<svg width="672" height="323" viewBox="0 0 672 323" fill="none" xmlns="http://www.w3.org/2000/svg">
<path opacity="0.23" d="M670.9 16.7999C667.2 13.9999 662.5 12.2 656.6 13.3C638.7 16.6 637.3 56.3 622.9 58.5C608.4 60.7 611.7 50.0999 602.8 42.2999C593.9 34.4999 586.9 36.2 576.8 38.5C566.7 40.8 564.3 37.6 555.7 34C548.9 31.1 541.2 35.6999 532.7 34.7999C530.5 34.5999 528.2 33.9999 525.9 32.7999C522.9 31.6999 522.8 29.2 522.1 27C521.9 26.4 521.7 25.7 521.3 25.2C517.7 19.5 512.5 15.4 506.6 12.3C499.7 8.69995 491.9 6.39995 484.5 4.29995C482.2 3.49995 480.3 2.29995 478.7 0.699951H405.3C399.5 4.39995 393.5 7.59995 387 9.49995C378.9 11.5 370.8 13.5 362.7 15.7C361.8 16.1 360.8 16.4999 359.8 16.7999C351.4 19.8999 341.6 22.4 331.4 25C316.3 28 300.4 32.6 286.6 40.7C272.2 49.8 262.6 63 253.1 76.8C251.1 80.2 244.5 74 239.1 72.4C234.4 70.7 224.4 73.9 227.4 77.5C237.7 89.9 252.3 97.1 268 99.9C283.8 102.7 300.7 100.8 315.7 95.1C325.9 91.4 335.7 85.8 344.5 78.2C346.4 77 351.3 79.4 355.7 79.7C356.4 79.5 359.4 80.2 358.1 77.7C349.6 60.2 367.6 51.3999 381 46.7999C381.8 46.4999 382.6 46.2 383.4 46C394.4 41.7 406.3 39.2 418.2 38.9C428.1 38.3 432.4 45.7 437 53C438.2 55 439.5 56.9 440.9 58.7C441.7 59.3 443.1 59.8 444.6 60.4C459.1 64.3 471.1 53.1 482.7 44.7C487.6 41.2 483.8 35.2 484.6 31.1C484.8 30.3 485.1 29.6 485.7 28.9C491.9 23.4 498.5 25 504 29.6C506.9 32 509.5 35.1999 511.5 38.5999C513.5 41.8999 515 45.2999 515.8 48.2999C519.8 60.1999 523.3 54.9999 532 56.7999C534.9 57.3999 535.9 58.5 536.4 60C537.4 63.1 536.4 68.2 544.6 75.7C556.9 87 565.9 87.8 565.9 87.8C565.9 87.8 559.6 96 553 100.3C551.1 101.6 549.1 102.5 547.3 102.8C539.5 104 531.6 93.2 519.1 92C518.7 92 518.3 91.9 517.9 91.9C514.4 92.4 511.5 93.7 509.2 95.4C499.4 102.7 497.7 118.6 487.3 126.1C481.8 129.5 475.7 128.5 469.5 127.9C466.2 127.6 462.8 127.3 459.4 128C441.8 133.3 435.3 146.5 432.3 161.9C432.3 162 432.3 162.1 432.2 162.2C431.2 167.3 430.7 172.5 430.4 177.7C430.1 183.1 429.9 188.6 429.4 193.9C428.6 202.3 426.8 210.6 422 218.1C417.1 225.8 410.6 232.1 405.1 239.1C399.6 246 395 253.7 394 263.9C393.2 272.1 386 277.5 378.2 278C366 278.2 354 273.3 349.4 263.7C347.6 259.8 345.8 255.9 344.1 252C342.8 249.2 341.5 246.4 340.3 243.6C336.6 235.4 332.8 227.3 329 219.3C306.7 173 280.8 130.6 233.3 104.9C216.2 95.7 199.7 88.9 183.6 78.3C180.9 76.6 178.3 74.7 175.6 72.7C173.1 70.7 170.6 69 168.1 67.5C166.3 66.5 164.5 65.4999 162.7 64.5999C155.5 61.0999 147.9 58.5 140.6 55.2C139 54.5 137.1 54.1 135.3 53.4C133.3 52.7 131.4 51.6 130.2 49.7C129.8 49 129.3 48.3 128.9 47.7C109.3 19 55.1996 15.9 51.6996 13.5C96.1996 7.49995 135.4 43.2 139.4 45.2C138.1 43.4 136.8 41.6 135.5 39.9C130.1 32.9 124 26.4 117.3 20.5C115.6 19 113.9 17.6 112.4 16C110.3 9.49995 107.1 4.59995 103.1 0.899951H18.9996C14.9996 0.899951 11.3996 2.19995 8.39961 4.29995C8.19961 4.29995 7.89961 4.49995 7.59961 4.79995C7.59961 4.79995 7.59961 4.79995 7.49961 4.79995C7.29961 4.99995 7.09961 5.19995 6.79961 5.49995C6.59961 5.69995 6.29961 5.89995 6.09961 6.09995C5.79961 6.39995 5.59961 6.69995 5.29961 6.99995C5.19961 7.19995 4.99961 7.29995 4.89961 7.49995C4.79961 7.69995 4.69961 7.79995 4.59961 7.89995C4.19961 8.49995 3.79961 9.09995 3.39961 9.69995C3.29961 9.89995 3.19961 10.1 3.09961 10.3C2.99961 10.5 2.79961 10.8 2.69961 11C2.59961 11.2 2.49961 11.4 2.39961 11.6C1.89961 12.7 1.49961 13.9 1.29961 15.2C1.29961 15.4 1.19961 15.6 1.19961 15.8C1.19961 15.9 1.19961 16 1.19961 16.1C1.19961 16.3 1.09961 16.5 1.09961 16.7C1.09961 16.9 1.09961 17.0999 1.09961 17.2999C1.09961 17.3999 1.09961 17.5 1.09961 17.7C1.09961 18 1.09961 18.4 1.09961 18.7V302.7C1.09961 307.6 3.09961 312 6.19961 315.3C10.3996 316.6 14.4996 318.4 18.2996 320.7C18.4996 320.7 18.7996 320.7 19.0996 320.7H412.9C414.1 319 415.3 317.2 416.4 315.4C421.8 306.4 426.2 296.8 429.2 286.4C432.1 276 433.7 264.7 433.3 252.5C432.8 250.5 445 256 445.5 249.4C446.5 227.6 448 207.8 456.2 188.5C457.2 185.5 458.2 182.5 459.2 179.7C461.5 173.3 463.7 167.5 465.5 163.1C467.7 157.6 469.2 154.1 469.2 154.1C478.7 148.7 486.1 135.6 486.1 135.6C491.7 134.6 504.4 139.7 512.8 135.6C519.4 132.4 517.6 128.5 523 124.7C524.2 123.8 525.8 123 528 122.1C528.4 121.9 528.8 121.8 529.3 121.6C541.7 117.2 542.3 130.7 551.4 136.5C552 136.9 552.7 137.3 553.4 137.6C555.5 138.5 557.5 138.9 559.5 139C560.2 139 560.8 139 561.5 138.9C562.3 138.8 563.2 138.6 564.1 138.4C565.3 138.1 566.5 137.7 567.6 137.2C568.9 136.6 570.1 135.9 571.1 135.3C571.1 135.2 571.2 135.2 571.3 135.2C571.1 135.5 570.9 135.7 570.7 136C570.5 136.2 570.4 136.4 570.3 136.6C570.2 136.8 570.1 137 570 137.2C568.8 140.1 570.5 143.8 582.9 146.7C607.1 152.2 611.2 135.7 611.2 135.7C615.5 138.1 624.8 135.2 631.2 129.6C633.5 127.6 635.5 125.2 636.7 122.5C641.1 112.9 636.6 112.4 631 112.7H630.2C624.3 112.9 620.9 107.7 627.3 94.3C633.7 80.9 643.7 87.3 656.1 93.4C660.2 95.3 663.9 96.5 667.2 97.3C668.6 97.6 670 97.8 671.3 98V18.7C671 18.1 671 17.3999 670.9 16.7999ZM224.8 168C207.7 170.1 200.6 150.4 196.3 136.3C193.1 123.5 195.8 86.6 242.4 131.1C248.3 140.4 252.6 151.5 250.4 162.8C249.7 163 248.4 163.3 247.9 163.5C242.2 165.6 234.4 168.3 224.8 168ZM313.8 260.5C313.8 260.5 313.7 260.5 313.7 260.6C305.7 266.8 294.8 274.5 295.3 255.6C294.4 254.6 296.1 252.8 295.2 252.3C293.9 251.4 292.7 250.5 291.4 249.6C273 236.7 252.2 223.4 248.4 200.2C246.2 185.7 259.2 171.6 273.7 175.1C271.8 173.4 269 173.4 268.3 170.7C284.7 173 299.7 181.4 307 196.1C310.7 202.8 314.6 209.6 317.9 216.7C323.9 229.7 327.7 243.2 323.8 257.3C323.5 258.7 322.1 259.8 320.4 260.4C318.4 260.9 315.9 261.1 313.8 260.5ZM574.5 132.7C574.4 132.8 574.2 133 574 133.1C573.8 133.2 573.6 133.4 573.3 133.7C572.9 134 572.4 134.4 571.8 134.8C571.6 134.9 571.4 135.1 571.1 135.2C571.6 134.6 572.3 134.1 572.8 133.7L573.4 133.3C573.9 133 574.3 132.8 574.5 132.7C574.5 132.6 574.6 132.6 574.6 132.6C574.6 132.6 574.6 132.7 574.5 132.7Z" fill="#7000FF"/>
<path opacity="0.23" d="M395.4 60.9001C389 58.3001 384.8 52.8001 381.1 46.7001C378.7 42.8001 376.5 38.6001 374 34.9001C369.7 28.6001 365.2 22.4 359.7 16.8C359.3 16.4 358.8 16 358.4 15.6C352.1 9.10005 345.3 4.20005 338.4 0.800049H265.4C259.8 4.10005 255.4 9.20005 253.2 17.2001C252.1 18.5001 250.9 19.6 249.7 20.8C244.9 25.5 240.4 30.7001 236.6 36.2001C235.6 37.6001 234.7 39.0001 233.8 40.4001C236.7 38.7001 265.3 10.1 299.4 13C296.7 15 253.8 19.5 240.9 43.5C239.4 46.4 235.7 46.9 233.2 48.1C224.3 52.7 215 55.7 207.1 62.8C199.6 69.1 191.8 73.8 183.9 78.3C177.5 81.9 171 85.4 164.3 89.4C118 117.5 101.2 166.1 81.6998 214.8C78.5998 222.3 69.5998 226.5 60.2998 226.8C54.3998 226.7 48.5998 222.8 47.6998 216.6C46.4998 208.8 42.7998 203.2 38.2998 198.1C33.7998 193 28.5998 188.4 24.5998 182.8C15.7998 170.2 18.3998 154.5 14.5998 140.3C12.3998 131.3 8.5998 123.4 0.799805 118.7V168.6C5.3998 180.9 6.8998 193.7 8.1998 207.6C8.7998 212.6 17.8998 207.9 17.5998 209.5C17.7998 218.8 19.3998 227.3 21.9998 235.2C24.5998 243 28.3998 250.2 32.7998 256.8C51.4998 283.5 81.6998 297.7 105.3 318.7C106.1 319.4 106.8 320.1 107.6 320.8C107.7 320.9 107.9 321 108 321.2C113.5 323 118.9 322.6 124.2 320.8C136.9 316.5 148.6 304.1 158.2 294.6C160.8 292.4 164.7 292.1 168 291.7C169.8 291 172.1 290.4 173.5 288.5C179.2 278.8 187.2 269 199 269.3C209.5 269.5 217.6 274.6 224.8 281.4C237.9 294.8 251 310.4 266.8 321H326.3C331.2 314.4 333.2 306.1 330.3 298.4C326.9 289.6 323.4 279.5 323.1 270.3C322.8 261 325.7 252.5 335.2 246.9C336.9 245.7 338.6 244.6 340.4 243.7C345.5 241.1 351 239.6 356.4 238.7C367.6 236.6 379.1 235.4 389.9 232.5C402.6 229.6 413.1 220.8 420 210.3C423.2 204.9 426.4 199.5 429.5 194.1C440.6 174.9 451.4 156 464.4 137.4C466.6 134.2 468.3 131.1 469.5 128.1C483.9 92.1001 426.9 73.7001 395.4 60.9001ZM163 64.5C163 64.5 163 64.4 163 64.5C161.5 64.4 160 64.5 159 64.9C154.9 66.2 150.1 71.2 148.5 68.7C144.4 63.3 140.3 58.0001 135.6 53.2001C133.6 51.2001 131.5 49.2001 129.2 47.4001C126.9 45.6001 124.4 43.9 121.7 42.3C110.9 36.7 98.5998 33.7 86.9998 32C78.1998 30.2 69.7998 28.5001 62.8998 26.1C56.6998 24.8001 50.3998 23.5 44.1998 22.3C34.1998 20 25.5998 13.6 16.9998 8.30005C13.9998 6.80005 11.1998 5.30005 8.3998 4.10005C8.1998 4.30005 7.8998 4.50005 7.5998 4.80005C7.5998 4.80005 7.5998 4.80005 7.4998 4.80005C7.2998 5.00005 7.0998 5.20005 6.7998 5.50005C6.5998 5.70005 6.2998 5.90005 6.0998 6.10005C5.7998 6.40005 5.5998 6.70005 5.2998 7.00005C5.1998 7.20005 4.9998 7.30005 4.8998 7.50005C4.7998 7.70005 4.6998 7.80005 4.5998 7.90005C4.1998 8.50005 3.7998 9.10005 3.3998 9.70005C3.2998 9.90005 3.1998 10.1 3.0998 10.3C2.9998 10.5 2.7998 10.8 2.6998 11C2.5998 11.2 2.4998 11.4 2.3998 11.6C1.8998 12.7 1.4998 13.9 1.2998 15.2C1.2998 15.4 1.1998 15.6 1.1998 15.8C1.1998 15.9 1.1998 16 1.1998 16.1C1.1998 16.3 1.0998 16.5 1.0998 16.7C1.0998 16.9 1.0998 17.1 1.0998 17.3C1.0998 17.4 1.0998 17.5001 1.0998 17.7001C1.0998 18.0001 1.0998 18.4001 1.0998 18.7001V63.5C1.3998 63.4 1.6998 63.3 1.8998 63.3C2.9998 62.8 4.0998 62.4001 4.6998 61.9001C9.3998 55.3001 11.5998 45.9 21.1998 46C30.2998 45.8 39.4998 47.2 47.9998 50.1C58.4998 52.9 74.6998 58.8 68.4998 73.3C67.5998 75.3 69.8998 74.7 70.3998 74.8C73.6998 74.4 77.3998 72.4 78.7998 73.2C85.7998 78.7 93.4998 82.6 101.4 85C113.1 88.8 126 89.6 137.9 86.9C149.8 84.2 160.7 78.1 168 68.3C168.2 68 168.4 67.6 168.4 67.3C168.4 65.9 165.7 64.7 163 64.5ZM158.6 109.8C154.4 117.1 151.6 125.7 153.7 134.3C154.2 134.4 155.3 134.6 155.6 134.7C160.1 136 166.1 137.8 173.4 137.2C186.5 138.2 191.2 122.9 193.9 112C195.9 102.1 192.4 74.1 158.6 109.8ZM136.5 144.3C137.8 143 140 142.9 140.5 140.8C128.1 143.2 116.9 150.2 111.9 161.6C104.6 176.4 95.8998 192.5 101.3 208.8C101.9 211.1 106.1 211.9 109 210.9C115.3 215.4 124 220.9 122.9 206.4C123.6 205.6 122.2 204.3 122.8 203.9C137 192.7 154.4 181.5 156.6 162.5C157.8 151.3 147.4 141.1 136.5 144.3Z" fill="#7000FF"/>
<path d="M670.7 0H128V319.7H670.7V0Z" fill="url(#paint0_radial_430_960)"/>
<path opacity="0.23" d="M670.7 16.7C667 14 662.4 12.2 656.6 13.3C638.7 16.6 637.3 56.3 622.9 58.5C608.4 60.7 611.7 50.1 602.8 42.3C593.9 34.5 586.9 36.2 576.8 38.5C566.7 40.8 564.3 37.6 555.7 34C548.9 31.1 541.2 35.7 532.7 34.8C537.9 41.9 543.8 51.6 537.1 58.8C536.9 59.1 536.7 59.4001 536.5 59.7001C533.3 64.1001 529.5 66.7001 526.6 68.8001C526.4 69.0001 525.7 69.5001 525.4 69.8001C519 66.8001 514.9 60.7 512.4 54.5C511.4 47.7 511.2 42.4 511.6 38.3C512.5 27.7 517.2 25.8 522 27C521.8 26.4 521.6 25.7 521.2 25.2C517.6 19.5 512.4 15.4 506.5 12.3C505.9 18.1 505 23.6 504.1 29.3C503.5 33 502.9 36.7 502.4 40.5C499.9 60.1 503.1 78 509.3 95.2C512.9 105.2 517.6 115 522.7 124.7C528.1 134.9 534 145 539.9 155.3C543 161 541.2 168.7 536.7 174.7C533.7 178.4 528.4 180.1 524 177.5C518.5 174.4 513.1 173.9 507.7 174.2C502.3 174.4 496.8 175.4 491.2 175.1C481.1 174.5 473.5 168 465.2 163.1C463.4 162 461.5 161 459.5 160.1C450.7 156.1 441.8 154.6 432.9 161.4C432.7 161.6 432.5 161.7 432.4 161.9C428.5 166.1 427.4 172.3 422 174.6C412.8 177.7 401.8 169.5 394 177.6C389.5 184.4 392.4 192.6 388.9 196.1C385.4 199.6 374.8 200 374.8 200C374.8 200 377.6 195.2 376.4 185.1C375.2 174.9 369.3 177 371.5 172C373.7 167 377.5 167.1 373 160.9C368.2 155 364 141.3 374.1 139C377.4 138.6 378.9 144.5 383.1 143.1C391.4 140.3 401.3 138.3 404.6 129.7C404.9 128.8 405.1 127.9 405.1 127.3C403.3 121 398.5 114.9 403.4 108.9C407.8 103.1 413.3 98 419.4 94.1C426.4 88.9 438.3 81.7 444.3 92.8C445.1 94.4 445.8 92.6 446.2 92.3C447.6 90 448.2 86.7 449.4 86.2C456.4 84.5 462.6 81.7 468.2 77.9C476.4 72.5 483.4 64.7 487.7 55.8C492 47 493.6 37.1 491.1 27.5C490.5 25 486.3 27.8 484.8 30.6C484.6 30.9 484.5 31.2 484.4 31.5C483.2 34.7 484 40.3 481.6 40C471.3 39.7 461.3 39.8001 451.6 43.7001C446.5 46.0001 441.6 49 437.1 52.5C433.8 55 430.6 57.7 427.7 60.5C422.2 65.1 416.9 69.6 411.9 72.7C407.9 76 404 79.3 400.1 82.6C393.7 87.7 385.3 89.9 377.6 92.7C372.6 94.7 368 96.9 364.7 100.1C361.4 103.3 359.3 107.4 359.5 113.2C359.4 118.3 364.5 123.5 362.6 129.4C359.6 137.7 356.4 146.9 359.8 155.2C360.5 157 362.6 157.8 362 160.3C360.8 168 353.2 170 351.9 175.6C350.6 181.2 351.3 183.5 346.6 187.7C341.8 191.9 338.5 194.8 339.2 202C339.9 209.2 346.3 211.4 340.1 217.8C337.9 220.1 333.9 219.8 329.3 218.9C325.7 218.2 321.6 217 317.9 216.4C313 215.6 308.5 215.6 305.6 218.4C297.5 226.1 307 237.8 303.2 237.7C302.4 237.7 300.3 237.6 297.2 237.2C296.2 237.1 295 236.9 293.7 236.7C292.5 237.1 291.5 237.6 290.5 238.2C287.7 240.2 290.2 244 291.5 249.2C293.2 256.3 292.9 266 274.8 277C277.5 278.7 313.4 272 313.9 260.2C314 258.2 313 256 310.6 253.6C312.8 255.4 316.5 257.9 320.6 259.9C329.2 264 339.9 265.4 344.7 251.5C345.2 250 345.6 248.4 346 246.6C347.4 238.2 347.8 231 356.8 232.6C365.8 234.2 367.2 237.8 365 240.6C362.8 243.4 360.9 246 367.6 247.3C374.3 248.5 382.8 243.4 383.3 239.3C383.3 239.3 393 243.2 398.9 229.2C401.9 222 400.7 219.8 398.8 219.4C398.7 219.4 398.5 219.4 398.4 219.4C398.2 219.4 398.1 219.4 397.9 219.4C397.7 219.4 397.5 219.4 397.3 219.4H397.4C398.1 219.1 398.8 218.8 399.6 218.3C400.2 217.9 400.9 217.5 401.5 217C401.9 216.6 402.3 216.3 402.7 215.9C403 215.6 403.2 215.3 403.4 215C404.1 214 404.6 212.8 404.9 211.5C406.4 204.2 398.5 198.7 405.6 193.8C412.7 188.9 413.5 193.3 418.5 190.6C423.5 187.9 425.6 179.7 428.1 177.3C428.1 177.3 429.4 177.4 431.3 177.4C434.5 177.5 439.6 177.2 443.4 175.5C443.4 175.5 450.6 177.1 459.6 179.7C461.4 180.2 463.3 180.8 465.2 181.4C477.8 184.2 488.1 190.6 499.4 197.9C502.9 200 504.4 192 505.3 192.9C511.3 197.4 517.4 200.7 523.7 203C529.9 205.2 536.3 206.5 542.7 207C568.8 208.6 592.9 196.7 618 192.4C619 192.2 620 192.1 620.9 191.9C634.1 183.2 631 162.3 629.3 147C629.2 144.3 631 141.7 632.4 139.4C632.8 137.9 633.6 136.2 633.1 134.3C632.5 132.8 632 131.2 631.5 129.6C629.8 123.9 629.1 117.9 631.3 112.7C631.9 111.3 632.7 109.9 633.8 108.6C639.2 102.1 646.5 99.6 654.3 98.4C658.7 98 663.1 97.6 667.6 97.2C668.9 97.1 670.1 97 671.4 96.9V16.7H670.7ZM396.3 219.9C395.9 220 395.5 220.2 395.2 220.3C395 220.3 394.8 220.4 394.7 220.4C394.5 220.4 394.4 220.5 394.3 220.5H394.2C394.2 220.5 394.3 220.5 394.3 220.4C394.4 220.3 394.6 220.2 394.9 220.1L395.3 220C395.7 219.9 396.2 219.7 396.7 219.7C396.6 219.8 396.5 219.8 396.3 219.9ZM551.3 136.3C551.3 136.4 551.2 136.5 551.2 136.6C550.3 138.8 547.8 140.8 546.1 140.1C537.6 137 532.1 130 527.8 122.2C525.6 118.2 523.6 113.9 521.7 109.8C518.7 104.2 518.1 97.9 519.2 91.8C519.9 88.2 521.1 84.7 522.9 81.4C524 82.7 523 84.1 523.1 85.7C526.6 77.2 538.2 75.8 544.6 82.1C549.6 87.2 552 93.4 553 100.1C554.2 107.9 553.7 116.3 553.7 124.1C553.7 124.7 555.2 124.5 555.3 125.3C565.2 131.9 557.3 134.6 551.3 136.3Z" fill="#7000FF"/>
<path opacity="0.23" d="M103.1 300.3C111.5 302.1 120.3 302.6 129.1 303.8C134.7 304.5 140.6 306 145.6 309.3C150.5 311.9 153.3 315.5 154.7 319.7H366.8C370.9 315.4 374.7 310.8 378 305.7C381.2 300.4 383.8 294.8 385.5 288.7C387.2 282.6 388.1 276 387.9 268.8C387.6 267.6 394.7 270.9 395 267C395.6 254.2 396.4 242.6 401.3 231.3C404.9 220.5 408.9 211.1 408.9 211.1C414.4 207.9 418.8 200.3 418.8 200.3C422.1 199.7 429.6 202.7 434.5 200.3C439.4 197.9 436.4 194.8 444.2 192.1C452 189.4 451.8 198.5 458.3 201.4C459.5 202 460.7 202.2 461.9 202.2C462.3 202.2 462.7 202.2 463 202.2C463.5 202.1 464 202 464.5 201.9C465.2 201.7 465.9 201.5 466.6 201.2C467.4 200.9 468.1 200.5 468.7 200.1L468.8 200C468.7 200.2 468.5 200.3 468.4 200.5C468.3 200.6 468.2 200.7 468.1 200.9C468 201 468 201.1 467.9 201.2C467.2 202.9 468.2 205.1 475.4 206.8C489.6 210 492 200.3 492 200.3C495.4 202.2 504.2 198.4 507 192.6C509.7 186.7 506.7 186.7 503.2 186.9C499.7 187 497.8 184 501.5 176.1C505.3 168.2 511.1 172 518.4 175.5C542.7 186.7 544 160.9 543.6 152C546.6 173.5 581.3 140.8 581.6 137.3C549.1 151 549.9 125.4 542.6 127.9C541.6 128.3 540.6 128.8 539.7 129.5C539.1 130.6 538.6 131.6 538.1 132.5C536.7 135.2 535.6 136.9 535.1 137.5C533 140.5 529.3 126.7 518.8 128.6C508.3 130.6 507.5 153.8 499 155.1C490.5 156.4 492.4 150.2 487.2 145.6C482 141.1 477.9 142 472 143.4C466.1 144.7 464.7 142.9 459.6 140.8C454.5 138.7 448.8 143.5 442.1 140.1C439.8 139.3 440.4 137.1 439.4 135.6C434.8 128.3 425.9 125.7 417.8 123.3C412.2 121.5 411 114.6 407 111.8C402.6 108.5 398.3 107.8 393.9 108.6C389.6 109.4 385.3 111.7 380.9 114.5C374.5 118.9 368.1 124.2 360.6 126.3C355.9 127.5 351.1 128.7 346.4 129.9C341.2 132 334.8 133.7 328.1 135.3C319.2 137 309.9 139.8 301.8 144.5C293.3 149.8 287.7 157.6 282.2 165.7C281 167.7 277.1 164 274 163.1C271.2 162.1 265.4 164 267.2 166.1C273.2 173.4 281.8 177.6 291 179.2C300.2 180.8 310.2 179.8 319 176.4C325 174.2 330.7 170.9 335.9 166.5C337 165.8 339.9 167.2 342.4 167.4C342.8 167.3 344.6 167.7 343.8 166.2C338.5 155.3 350.7 150.2 358.7 147.6C365.1 145.1 372.1 143.6 379.1 143.4C386.4 142.9 388.5 150.1 392.4 155C392.9 155.4 393.7 155.7 394.6 156C403.1 158.3 410.1 151.7 416.9 146.8C420.3 144.3 416.5 139.9 418.7 137.6C426.1 131 434.4 141.9 436.3 148.9C438.6 155.8 440.7 152.8 445.8 153.9C450.9 155 445.9 158.4 453.2 165C460.4 171.6 465.7 172.1 465.7 172.1C465.7 172.1 459.5 180.1 454.8 180.9C450.1 181.6 445.3 174.9 437.6 174.5C426.9 176 427.3 189.1 419.7 194.6C414.7 197.7 409 194.6 403.4 195.7C393.1 198.8 389.3 206.5 387.5 215.6C385.2 226.6 387.8 238.5 381.5 248.5C378.6 253 374.8 256.7 371.6 260.8C368.4 264.9 365.7 269.3 365.1 275.3C364.6 280.1 360.4 283.3 355.8 283.6C348.7 283.7 341.6 280.9 339 275.2C322.2 238.6 307.5 201.9 270.9 182.1C259.2 175.8 248 171.5 237.1 163.3C230.8 158.2 223.5 156.2 216.5 153C214.5 152.2 211.7 151.9 210.4 149.8C199.6 131.9 166.5 130 164.4 128.6C190.5 125.1 213.5 146 215.8 147.2C215.1 146.1 214.3 145.1 213.5 144.1C210.3 140 206.7 136.2 202.8 132.7C201.8 131.8 200.8 131 200 130.1C194.1 112.1 173.9 114.3 158.5 114.4C157.3 114.4 156.2 114.5 155.1 114.5C148.3 114.9 141.6 116.7 135.2 120.1C129.6 123.1 124.2 127.3 119.2 132.9C114.7 137.6 111.3 142.9 108 148.3C103.5 155.8 100.5 165.4 92.5998 169.1C66.9998 181 18.4998 199.1 42.2998 230.2C55.9998 247.7 66.8998 266 79.0998 284.4C84.8998 292.2 93.1998 298.5 103.1 300.3ZM291.2 220.8C300.8 222.2 309.6 227.1 313.9 235.7C320.1 246.8 327.3 258.8 323.8 271.5C323.4 273.3 320.2 274.1 318 273.4C313.3 277.1 306.9 281.7 307.1 270.5C306.6 269.9 307.6 268.8 307.1 268.6C295.8 260.5 282 252.6 279.6 238.1C278.3 229.6 285.9 221.4 294.4 223.4C293.3 222.4 291.6 222.4 291.2 220.8ZM276.1 197.7C279.6 203.1 282.1 209.7 280.8 216.3C280.4 216.4 279.6 216.6 279.3 216.7C275.9 217.9 271.4 219.5 265.7 219.3C255.7 220.5 251.5 209 249 200.8C247.2 193.2 248.8 171.6 276.1 197.7Z" fill="#7000FF"/>
<path opacity="0.23" d="M469.8 199.1L470.1 198.9C470.3 198.7 470.5 198.6 470.6 198.6C470.6 198.6 470.7 198.5 470.7 198.6L470.6 198.7C470.5 198.8 470.4 198.9 470.3 199C470.2 199.1 470 199.2 469.9 199.3C469.7 199.5 469.4 199.7 469 199.9C468.9 200 468.8 200.1 468.6 200.2C469.1 199.7 469.5 199.4 469.8 199.1Z" fill="#7000FF"/>
<defs>
<radialGradient id="paint0_radial_430_960" cx="0" cy="0" r="1" gradientUnits="userSpaceOnUse" gradientTransform="translate(435.14 165.419) scale(314.925 184.861)">
<stop stop-color="#7000FF"/>
<stop offset="1" stop-color="#7000FF" stop-opacity="0"/>
</radialGradient>
</defs>
</svg>
