<svg width="440" height="321" viewBox="0 0 440 321" fill="none" xmlns="http://www.w3.org/2000/svg">
<path d="M202.346 320H160.736L181.541 299.2L202.346 320Z" fill="#063BA6"/>
<path d="M239.329 231.453L204.314 266.449L239.319 301.456L274.333 266.459L239.329 231.453Z" fill="#063BA6"/>
<path d="M297.062 163.669L252.074 208.635L297.05 253.612L342.038 208.647L297.062 163.669Z" fill="#063BA6"/>
<path d="M440 75.3V110.8L412.694 138.1L367.684 93L412.694 48L440 75.3Z" fill="#063BA6"/>
<path d="M440 30.7V39.8L435.499 35.2L440 30.7Z" fill="#063BA6"/>
<path d="M354.935 100.835L304.925 150.82L354.921 200.819L404.931 150.834L354.935 100.835Z" fill="#063BA6"/>
<path d="M123.784 246.408L103.766 266.416L123.778 286.43L143.797 266.422L123.784 246.408Z" fill="#063BA6"/>
<path d="M181.516 178.625L151.524 208.601L181.508 238.587L211.5 208.61L181.516 178.625Z" fill="#063BA6"/>
<path d="M297.068 48L252.058 93H252.158L297.068 138.1L342.078 93L297.068 48Z" fill="#063BA6"/>
<path d="M239.39 110.841L199.354 150.857L239.379 190.885L279.415 150.868L239.39 110.841Z" fill="#063BA6"/>
<path d="M394.889 33L354.88 73L314.871 33L347.879 0H361.982L394.889 33Z" fill="#063BA6"/>
<path d="M417.896 0.199219L412.694 5.39922L407.493 0.199219H417.896Z" fill="#063BA6"/>
<path d="M65.9042 193.643L50.9082 208.631L65.9 223.624L80.896 208.635L65.9042 193.643Z" fill="#063BA6"/>
<path d="M123.779 125.859L98.7383 150.887L123.772 175.922L148.812 150.894L123.779 125.859Z" fill="#063BA6"/>
<path d="M239.313 0.261793L204.299 35.2583L239.303 70.2647L274.318 35.2682L239.313 0.261793Z" fill="#063BA6"/>
<path d="M181.511 63.0251L151.519 93.002L181.502 122.987L211.494 93.0104L181.511 63.0251Z" fill="#063BA6"/>
<path d="M302.269 0.199219L297.068 5.39922L291.967 0.199219H302.269Z" fill="#063BA6"/>
<path d="M10.9357 138.027L0.961914 147.996L10.9329 157.967L20.9067 147.998L10.9357 138.027Z" fill="#063BA6"/>
<path d="M65.8964 78.047L50.9004 93.0354L65.8922 108.028L80.8882 93.0396L65.8964 78.047Z" fill="#063BA6"/>
<path d="M181.741 2.30005L181.541 2.4988L181.341 2.30005H181.741Z" fill="#063BA6"/>
<path d="M123.77 15.2131L103.752 35.2212L123.765 55.235L143.783 35.2269L123.77 15.2131Z" fill="#063BA6"/>
<path d="M322.873 320H271.361L297.067 294.2L322.873 320Z" fill="#063BA6"/>
<path d="M440 190.9V226.3L412.694 253.6L367.684 208.6L412.694 163.6L440 190.9Z" fill="#063BA6"/>
<path d="M354.871 226.401L314.834 266.417L354.859 306.445L394.896 266.428L354.871 226.401Z" fill="#063BA6"/>
<path d="M440 141.3V160.4L430.498 150.8L440 141.3Z" fill="#063BA6"/>
<path d="M440 261.9V270.9L435.499 266.4L440 261.9Z" fill="#063BA6"/>
<path d="M433.999 315.5C430.898 318.2 426.897 319.8 422.496 319.8H387.088L412.794 294.2L433.999 315.5Z" fill="#063BA6"/>
<path d="M355.8 319.163C347.7 230.563 336.1 261.663 317.7 237.863L306.2 218.663L301.6 206.863C294.2 193.163 291.9 177.463 295.1 162.563C296 158.163 297.4 153.863 299.3 149.763C299.4 149.463 299.6 149.063 299.8 148.763C302.7 142.463 306.1 135.763 309.1 129.563C314.6 118.663 319.3 109.563 319.7 107.463C321.5 98.3631 303.4 33.8631 287.8 31.1631C255.4 25.5631 204.8 14.4631 181.4 28.7631C165.6 38.3631 155.4 63.3631 149.1 91.1631C148.2 95.0631 147.4 98.9631 146.7 102.863C141.9 128.963 160.6 141.863 161 146.863C161.7 155.263 147.4 175.663 147.4 175.663C147.4 175.663 146.5 177.063 146.3 178.563C146.2 179.263 146.3 179.963 146.7 180.563C147.6 181.663 151.7 184.763 154.3 186.663C155.7 187.763 158.6 189.863 159.3 191.663C159.6 192.463 159.4 193.963 159 195.563C158.6 197.263 158.1 199.163 157.7 200.663C157.6 201.263 157.4 201.763 157.3 202.263C157.2 202.663 158.6 202.963 160.8 203.163L160.6 204.863C160.4 206.463 161 208.063 162.2 209.163L166 212.763C166 212.763 166.8 214.363 168.1 216.763C171.5 223.063 178.4 234.863 182.6 235.363C182.9 235.363 183.2 235.363 183.4 235.263C183.6 235.263 184 235.063 184.7 234.863C189.5 233.263 205.9 227.263 219.3 220.563C219.4 220.563 219.4 220.563 219.5 220.563C238.8 220.763 250.5 249.963 253.8 259.863C253.5 260.663 253.5 261.363 253.7 262.163C256.2 271.663 233.4 301.963 224.4 319.463L355.8 319.163Z" fill="#0055FF"/>
<path d="M355.7 319.063C347.6 230.463 336 261.563 317.6 237.763L306.1 218.563L301.5 206.763C294.1 193.063 291.8 177.363 295 162.463C295.9 158.063 297.3 153.763 299.2 149.663C299.3 149.363 299.5 148.963 299.7 148.663C302.6 142.363 306 135.663 309 129.463C314.5 118.563 319.2 109.463 319.6 107.363C321.4 98.2632 303.3 33.7632 287.7 31.0632C255.3 25.4632 204.7 14.3632 181.3 28.6632C165.5 38.2632 155.3 63.3632 149 91.0632C148.1 94.9632 147.3 98.8632 146.6 102.763C141.8 128.863 160.5 141.763 160.9 146.763C161.6 155.163 147.3 175.563 147.3 175.563C147.3 175.563 146.4 176.963 146.2 178.463C146.1 179.163 146.2 179.863 146.6 180.463C147.5 181.563 151.6 184.663 154.2 186.563C155.6 187.663 158.5 189.763 159.2 191.563C159.5 192.363 159.3 193.863 158.9 195.463C158.5 197.163 158 199.063 157.6 200.563C157.5 201.163 157.3 201.663 157.2 202.163C157.1 202.563 158.5 202.863 160.7 203.063L160.5 204.763C160.3 206.363 160.9 207.963 162.1 209.063L165.9 212.663C165.9 212.663 166.7 214.263 168 216.663C171.4 222.963 178.3 234.763 182.5 235.263C182.8 235.263 183.1 235.263 183.3 235.163C183.5 235.163 183.9 234.963 184.6 234.763C189.4 233.163 205.8 227.163 219.2 220.463C219.3 220.463 219.3 220.463 219.4 220.463C238.7 220.663 250.4 249.863 253.7 259.763C253.4 260.563 253.4 261.263 253.6 262.063C256.1 271.563 233.3 301.863 224.3 319.363L355.7 319.063Z" fill="#0055FF"/>
<path d="M294.9 162.463C291.7 177.363 294 193.163 301.4 206.763L306 218.563L318.9 240.063C303.2 250.163 273.3 255.563 254.2 261.863C252.1 255.163 240.2 220.763 219.2 220.563C219.1 220.563 219.1 220.563 219 220.563C205.6 227.263 189.1 233.263 184.4 234.863C183.7 235.063 183.3 235.263 183.1 235.263C182.8 235.363 182.6 235.363 182.3 235.363C178.2 234.863 171.3 223.063 167.8 216.763C166.5 214.363 165.7 212.763 165.7 212.763L161.9 209.163C160.7 208.063 160.1 206.463 160.3 204.863L160.5 203.163C158.3 202.963 156.9 202.663 157 202.263C157.1 201.863 157.2 201.263 157.4 200.663C157.8 199.163 158.3 197.263 158.7 195.563C159.1 193.863 159.3 192.363 159 191.663C158.3 189.863 155.4 187.663 154 186.663C151.4 184.763 147.3 181.663 146.4 180.563C146 180.063 145.9 179.263 146 178.563C146.2 177.163 147.1 175.663 147.1 175.663C147.1 175.663 161.4 155.263 160.7 146.863C160.3 141.963 141.6 129.063 146.4 102.863C147.1 98.9631 147.9 94.9631 148.8 91.1631C155.1 63.3631 165.3 38.3631 181.1 28.7631C204.4 14.4631 255.1 25.5631 287.5 31.1631C303.1 33.8631 321.2 98.3631 319.4 107.463C319 109.563 314.3 118.663 308.8 129.563C305.7 135.663 302.4 142.363 299.5 148.763C299.3 149.063 299.2 149.463 299 149.763C297.2 153.763 295.8 158.163 294.9 162.463Z" fill="#0055FF"/>
<path d="M164.799 211.863C170.299 213.063 175.699 201.463 193.899 200.863C190.499 195.863 161.199 203.263 161.199 203.263C161.199 203.263 158.899 207.863 164.799 211.863Z" fill="#0029BC"/>
<path d="M235.699 212.263L219.899 220.863C219.899 220.863 231.399 219.963 242.099 237.763C246.899 233.163 246.899 217.563 246.899 217.563L244.499 179.263C245.199 189.163 235.699 212.263 235.699 212.263Z" fill="#0029BC"/>
<path d="M260.899 319.163C261.499 316.763 262.199 314.363 262.799 311.963C263.499 309.563 264.099 307.163 264.799 304.763C265.099 303.563 265.499 302.363 265.899 301.163C266.099 300.563 266.299 299.963 266.499 299.363C266.699 298.763 266.899 298.163 267.099 297.563C267.299 296.963 267.499 296.363 267.799 295.763L268.199 294.863L268.599 294.063C269.099 292.963 269.799 291.863 270.499 290.763L271.099 291.063C270.899 291.663 270.699 292.263 270.499 292.863L269.899 294.663C269.699 295.263 269.499 295.863 269.299 296.463C269.099 297.063 268.899 297.663 268.699 298.263C267.899 300.563 267.299 302.963 266.599 305.363C265.899 307.763 265.299 310.163 264.599 312.563C263.899 314.963 263.199 317.363 262.399 319.763L260.899 319.163Z" fill="black"/>
<path d="M245.099 179.263C244.999 180.563 244.899 181.763 244.799 183.063C244.699 184.363 244.499 185.563 244.399 186.863C244.299 188.163 244.099 189.363 243.899 190.663C243.699 191.963 243.499 193.163 243.299 194.463C242.799 196.963 242.299 199.463 241.699 201.963C241.099 204.463 240.299 206.963 239.199 209.363C238.899 209.963 238.599 210.563 238.299 211.163C237.899 211.763 237.499 212.363 236.999 212.963L236.799 213.163L236.699 213.263L236.599 213.363C236.499 213.463 236.399 213.463 236.299 213.563L235.999 213.763H235.899C235.899 213.763 235.899 213.763 235.799 213.763L235.699 213.863L235.499 213.963C235.399 214.063 235.199 214.163 235.099 214.263C234.499 214.563 233.899 214.863 233.399 215.163C231.099 216.363 228.799 217.363 226.499 218.463C224.199 219.563 221.899 220.663 219.699 221.763C218.599 222.263 217.399 222.863 216.299 223.463C215.099 223.963 213.999 224.563 212.799 225.063C211.599 225.563 210.499 226.063 209.299 226.563L207.499 227.363L205.699 228.063C204.499 228.563 203.399 229.063 202.199 229.563C200.999 230.063 199.799 230.463 198.599 230.963C196.199 231.863 193.899 232.763 191.499 233.663C189.099 234.563 186.699 235.363 184.299 236.163L183.799 236.263L183.299 236.363C183.199 236.363 183.099 236.463 182.899 236.463C182.799 236.463 182.599 236.463 182.499 236.563C182.399 236.563 182.199 236.563 182.099 236.563C181.999 236.563 181.799 236.563 181.699 236.563C181.199 236.463 180.799 236.363 180.399 236.163C179.999 235.963 179.699 235.763 179.399 235.563C178.799 235.163 178.299 234.663 177.799 234.163C177.299 233.663 176.799 233.163 176.399 232.663C174.699 230.663 173.199 228.563 171.899 226.363C170.499 224.163 169.299 221.963 168.099 219.763C166.899 217.563 165.699 215.263 164.599 212.963L164.799 213.263L162.599 211.163L161.499 210.163L160.999 209.663C160.799 209.463 160.599 209.263 160.399 208.963C159.699 208.063 159.199 206.863 159.199 205.663C159.199 205.363 159.199 205.063 159.199 204.763V204.563V204.363V203.963L159.399 202.463L161.199 202.663L160.999 204.163V204.563V204.763V204.863C160.999 205.063 160.999 205.263 160.999 205.463C160.999 206.263 161.399 207.063 161.899 207.763C161.999 207.963 162.199 208.063 162.299 208.263L162.799 208.763L163.899 209.763L166.099 211.863L166.199 211.963L166.299 212.063C167.499 214.263 168.699 216.463 169.999 218.663C171.299 220.863 172.599 222.963 173.999 225.063C175.399 227.163 176.899 229.163 178.499 230.963C179.299 231.863 180.199 232.663 181.099 233.263C181.499 233.563 181.999 233.763 182.299 233.763H182.399H182.499C182.499 233.763 182.499 233.763 182.599 233.763C182.699 233.763 182.599 233.763 182.699 233.763L183.099 233.663L183.499 233.563C184.699 233.163 185.899 232.663 187.099 232.263L190.599 230.963C192.899 230.063 195.299 229.163 197.599 228.163C202.299 226.263 206.899 224.363 211.499 222.263C212.599 221.763 213.799 221.163 214.899 220.663L218.299 219.063C220.599 217.963 222.899 216.863 225.199 215.763C227.499 214.663 229.799 213.563 231.999 212.463C232.499 212.163 233.099 211.863 233.599 211.563C233.699 211.463 233.899 211.463 233.999 211.363L234.199 211.263L234.299 211.163C234.399 211.063 234.599 210.963 234.699 210.763C234.999 210.463 235.299 209.963 235.599 209.463C235.899 208.963 236.099 208.463 236.399 207.963C236.899 206.863 237.399 205.763 237.799 204.563C238.199 203.363 238.599 202.263 238.899 201.063C239.599 198.663 240.299 196.263 240.799 193.763C241.999 188.863 242.999 183.963 244.099 178.963L245.099 179.263Z" fill="black"/>
<path d="M158.8 183.663C158.7 183.663 152.2 178.863 145.9 180.363L145.5 178.563C152.7 176.863 159.6 181.963 159.9 182.163L158.8 183.663Z" fill="black"/>
<path d="M222.6 320.263L223.3 318.963C226.2 313.363 230.4 306.563 234.9 299.463C244 284.963 254.2 268.463 252.6 262.263C252.6 262.163 250.3 253.063 245 243.463C241.9 237.863 238.3 233.263 234.4 229.663C229.6 225.263 224.2 222.463 218.5 221.363L218.8 219.563C224.9 220.663 230.5 223.663 235.6 228.363C239.6 232.063 243.3 236.863 246.5 242.663C252 252.463 254.2 261.763 254.3 261.863C256.1 268.763 246.1 284.863 236.4 300.463C232.3 307.063 228.4 313.263 225.6 318.563L354.7 318.263C349.1 257.663 341.9 254.363 332 249.963C327.5 247.963 322.3 245.663 316.6 238.063C303.3 218.663 295.4 200.663 293.1 184.663C291.3 172.063 292.9 160.563 297.9 149.363C298 149.163 298.1 149.063 298.1 148.863C298.2 148.663 298.3 148.563 298.3 148.363C302 140.263 306.3 131.863 310.1 124.363C314.3 116.063 317.8 108.963 318.2 107.363C318.9 103.963 316.3 91.2631 312.3 77.9631C307.4 61.8631 301.5 47.9631 296 40.0631C292.7 35.2631 289.7 32.6631 287 32.1631C283.8 31.5631 280.4 30.9631 276.8 30.3631C245.2 24.7631 202 16.9631 181.3 29.6631C170.7 36.1631 156.1 54.1631 147 103.263C143.5 121.963 152.4 133.663 157.7 140.663C159.8 143.363 161.2 145.363 161.4 146.963C162.1 155.463 148.4 175.163 147.7 176.263C147.3 176.963 146.3 179.063 147 180.063C147.9 181.163 152.6 184.663 154.4 186.063L154.5 186.163C156.1 187.363 159 189.463 159.7 191.563C160.2 192.963 159.5 195.763 158.6 199.563C158.3 200.563 158.1 201.463 157.9 202.163C158.3 202.263 159 202.363 160.5 202.563C163.2 202.763 167.2 202.063 171.8 201.163C179.1 199.763 187.5 198.263 194.7 199.763L194.3 201.563C187.5 200.063 179.3 201.563 172.1 202.963C167.3 203.863 163.2 204.663 160.3 204.363C157.1 204.063 156.5 203.663 156.2 203.263C156 202.963 155.9 202.663 156 202.363C156.2 201.463 156.5 200.363 156.8 199.063C157.4 196.763 158.4 193.163 158 192.163C157.4 190.663 154.7 188.563 153.4 187.563L153.3 187.463C150 184.963 146.5 182.263 145.6 181.163C143.9 179.063 145.9 175.663 146.1 175.263C146.2 175.063 160.2 155.063 159.5 147.063C159.4 145.963 157.9 143.963 156.2 141.663C153.5 138.163 149.9 133.263 147.4 126.963C144.4 119.463 143.7 111.363 145.2 102.863C150.3 75.4631 160.4 40.2631 180.3 28.0631C189.8 22.2631 204.3 20.0631 224.8 21.2631C242.3 22.2631 260.8 25.5631 277.1 28.5631C280.7 29.1631 284.1 29.7631 287.3 30.3631C290.5 30.9631 293.9 33.8631 297.5 38.9631C310 57.1631 321.5 99.9631 320 107.663C319.6 109.463 316.8 115.163 311.8 125.163C308 132.663 303.8 141.063 300.1 149.063C300 149.263 299.9 149.363 299.9 149.563C299.8 149.763 299.7 149.863 299.7 150.063C294.8 160.963 293.3 172.163 295 184.363C297.2 200.063 305 217.763 318.2 236.963C323.7 244.163 328.6 246.363 332.9 248.363C343.4 253.063 351 256.463 356.8 319.163L356.9 320.163H355.9L222.6 320.263Z" fill="black"/>
<path d="M371 319.463H220C226.1 305.563 237 278.263 242.4 264.763C244.2 260.163 247.9 256.663 252.6 255.063C272.4 247.963 306 219.763 305.4 216.063C304.9 212.463 299.6 205.763 299.9 203.763C300.3 201.363 349.6 158.863 354.9 198.963C354.2 202.263 351.9 205.163 351.9 205.163C378.1 254.763 366.4 292.563 358.2 282.363C358.2 282.363 354.4 270.563 352.8 262.763C352.5 263.763 364.2 299.863 365.6 303.963C369.9 317.363 371 319.463 371 319.463Z" fill="#FFD645"/>
<path d="M371 320.063H220L219.5 319.263C225.9 304.863 237.5 275.563 241.9 264.563C243.8 259.863 247.6 256.163 252.4 254.463C256.4 252.963 267.8 248.063 286.2 233.863C291.4 229.863 296.2 225.763 299.7 222.363C304.9 217.363 304.9 216.263 304.9 216.163C304.6 214.463 303.2 211.963 301.9 209.663C300.2 206.763 299.2 204.863 299.4 203.663C299.6 202.363 306.3 196.463 313.5 191.563C326.4 182.863 334.9 181.163 339.8 181.163C344 181.163 347.4 182.563 350 185.263C352.9 188.263 354.8 192.763 355.6 198.863V199.063C355 201.863 353.4 204.263 352.8 205.163C364.7 227.763 368 246.363 368.7 257.963C369.1 264.563 368.7 270.463 367.6 275.263C366.6 279.663 365 282.763 363.1 283.963C362.1 284.563 361.1 284.763 360.2 284.363C362.9 292.963 365.7 301.463 366.4 303.663C370.5 316.763 371.7 318.963 371.8 319.063L371 320.063ZM220.9 318.863H370.1C369.5 317.363 368 313.463 365 304.163C364.4 302.263 361.3 292.763 358.3 283.463C358.1 283.263 357.9 283.063 357.7 282.763L357.6 282.563C357.6 282.463 354.2 272.063 352.5 264.463C352.1 262.963 352.2 262.763 352.2 262.663L353.4 262.763C353.5 263.363 353.6 263.863 353.8 264.463C354.7 267.663 357 275.163 359.4 282.763C360.3 283.563 361.3 283.663 362.2 283.063C363.8 282.063 365.2 279.063 366.2 275.063C367.3 270.363 367.7 264.563 367.3 258.063C366.6 246.563 363.3 228.063 351.4 205.463L351.5 204.863C351.5 204.863 353.6 202.063 354.3 199.063C353 189.063 348.7 183.563 341.7 182.663C337.1 182.063 328.8 183.163 315.5 191.763C306.9 197.363 300.9 203.063 300.5 203.963C300.4 204.863 301.7 207.063 302.9 209.163C304.3 211.663 305.8 214.163 306.1 216.063C306.2 216.563 306.3 217.763 300.7 223.263C297.2 226.663 292.4 230.763 287.1 234.863C268.6 249.263 257 254.263 252.9 255.763C248.4 257.363 244.8 260.763 243.1 265.163C238.6 275.763 227.4 304.063 220.9 318.863Z" fill="black"/>
<path d="M282.9 319.963L282.5 318.863C287.3 317.063 288.3 311.963 289.6 305.363C291.5 295.263 293.9 282.763 312.3 277.463L312.6 278.663C304.7 280.863 299.2 284.763 295.7 290.263C292.7 295.163 291.6 300.663 290.7 305.563C289.5 312.263 288.4 317.963 282.9 319.963Z" fill="black"/>
<path d="M354.1 319.563C353.1 316.263 352.6 312.763 352.2 308.163C352.2 308.063 352.2 307.963 352.2 307.963C352.2 307.863 352.2 307.863 352.2 307.763C352.1 307.063 352.1 306.463 352 305.763C351.3 297.763 350.5 288.763 346.5 277.163L347.6 276.763C351.7 288.463 352.5 297.963 353.2 305.563C353.3 306.263 353.3 306.863 353.4 307.563C353.4 307.663 353.4 307.763 353.4 307.763C353.4 307.863 353.4 307.863 353.4 307.963C353.8 312.463 354.3 315.963 355.2 319.163L354.1 319.563Z" fill="black"/>
<path d="M370.3 317.763C370.4 317.963 370.5 318.263 370.6 318.463C370.5 318.163 370.4 317.963 370.3 317.763Z" fill="#FFA748"/>
<path d="M368.299 312.263C367.999 311.363 367.699 310.463 367.399 309.563C367.599 310.163 367.799 310.763 367.899 311.363C368.099 311.563 368.199 311.963 368.299 312.263Z" fill="#FFA748"/>
<path d="M370.9 319.263C370.8 319.063 370.7 318.763 370.6 318.563C370.7 318.763 370.8 318.963 370.9 319.263C370.8 318.963 370.5 318.363 370 317.063C370.1 317.263 370.2 317.463 370.3 317.763C370.2 317.563 370.1 317.363 370 317.063C369.6 315.963 369 314.463 368.3 312.263C368.8 313.663 369.2 315.063 369.8 316.463C369.2 314.763 368.6 313.063 368 311.363C367.3 309.363 366.6 306.963 365.6 303.963C366.3 306.063 366.9 307.863 367.4 309.563C365.7 304.063 364.1 298.063 361.6 290.963C350.8 259.863 343.5 222.963 323.5 236.263C304.6 249.863 301.2 248.163 277.3 263.463C275.4 264.263 273.4 265.063 271.3 265.963C262 269.863 250 276.463 246.8 284.163C238.5 303.863 235.6 313.763 236 314.763C236.5 316.163 263.1 281.663 288.8 263.763C314.5 245.863 306.6 266.763 315.1 261.163C323.6 255.563 332.4 256.563 338.1 263.063C334.5 260.863 327.7 259.763 314 263.463C301.5 270.863 337.7 270.263 329.2 276.263C324.6 285.763 344 293.063 326.1 312.963C339.6 306.563 348.1 313.963 348.1 313.963C348.1 313.963 324.7 312.963 326.7 317.863C336.6 316.763 340.7 317.763 342.1 319.463H371C371 319.463 371 319.363 370.9 319.263ZM370 316.963V316.863C370 316.863 370 316.863 370 316.963Z" fill="#FFA748"/>
<path d="M247.699 263.563C247.699 263.563 252.499 265.563 259.099 264.263C265.699 262.963 330.599 218.263 329.999 200.463C314.499 226.963 272.499 254.963 262.899 259.363C253.399 263.863 247.699 263.563 247.699 263.563Z" fill="#FFA748"/>
<path d="M251.5 255.963L251.1 254.863C251.2 254.863 258.9 252.163 273.4 243.563C289.5 234.063 298 224.663 303.6 218.563L304.1 217.963C312.2 209.063 318.1 201.863 321.6 196.363C325.8 189.963 325.2 188.263 324.9 187.863C324.5 187.263 322.7 187.363 319.1 189.163L318.5 188.063C322.3 186.063 324.7 185.763 325.8 187.063C327 188.563 325.9 191.763 322.6 196.963C319 202.463 313.1 209.763 305 218.663L304.5 219.263C298.8 225.463 290.3 234.863 274 244.463C259.5 253.263 251.6 255.963 251.5 255.963Z" fill="black"/>
<path d="M253.8 256.663C252.7 256.663 251.6 256.563 250.5 256.263L250.8 255.063C257.2 256.663 264.9 252.963 278.7 244.863C292.6 236.663 302.7 224.863 308.8 217.763C310 216.363 311 215.163 311.9 214.163C320 205.263 325.9 198.063 329.4 192.563C333.6 186.163 333 184.463 332.7 184.063C332.3 183.463 330.5 183.563 326.9 185.363L326.3 184.263C330.1 182.263 332.5 181.963 333.6 183.263C334.8 184.763 333.7 187.963 330.4 193.163C326.8 198.663 320.9 205.963 312.8 214.863C311.9 215.863 310.9 217.063 309.7 218.463C303.6 225.563 293.4 237.463 279.3 245.763C267.5 252.963 260 256.663 253.8 256.663Z" fill="black"/>
<path d="M247.499 284.263L246.399 283.863C248.799 276.163 257.499 271.963 267.599 267.063C274.099 263.963 280.799 260.763 286.799 256.163C290.499 253.363 295.899 249.963 301.999 245.963C306.499 243.063 311.599 239.763 316.699 236.363C345.399 216.863 351.899 205.463 354.299 198.563L355.399 198.963C353.199 205.363 348.299 211.963 340.599 219.263C334.699 224.863 327.299 230.563 317.299 237.363C312.199 240.763 307.099 244.063 302.599 246.963C296.499 250.863 291.199 254.263 287.499 257.063C281.399 261.663 274.299 265.063 268.099 268.063C258.299 272.963 249.699 277.063 247.499 284.263Z" fill="black"/>
<path d="M352.299 262.863C349.799 253.763 346.799 246.663 343.399 241.863C340.699 237.963 337.699 235.563 334.499 234.563C328.699 232.763 323.999 236.663 323.999 236.663L323.199 235.763C323.399 235.563 328.399 231.463 334.799 233.363C342.499 235.763 348.699 245.563 353.399 262.463L352.299 262.863Z" fill="black"/>
<path d="M371 320.263H220L219.5 319.163C225.9 304.763 237.5 275.463 241.9 264.463C243.8 259.763 247.6 256.063 252.4 254.363C261.2 251.263 273.8 243.663 286.2 234.263C298.4 224.963 304.9 217.963 304.8 216.063C304.5 214.363 303.1 211.863 301.8 209.563C300.1 206.663 299.1 204.763 299.3 203.563C299.3 203.363 299.4 202.763 302.5 199.963C304.6 198.063 307.3 195.863 310.1 193.863C320 186.663 327.5 183.563 332 182.263C340.3 179.863 346.6 181.163 350.7 185.963C353.2 188.963 354.9 193.263 355.6 198.863V199.063C355 201.863 353.4 204.263 352.8 205.163C364.7 227.863 368.1 246.463 368.8 258.063C369.7 272.963 366.8 281.863 363.4 284.063C362.3 284.763 361.1 284.863 360 284.263C362.8 292.963 365.6 301.563 366.3 303.863C370.4 316.963 371.6 319.263 371.7 319.263L371 320.263ZM220.9 318.863H370.1C369.5 317.363 368 313.463 365 304.063C364.3 302.063 361 291.863 358 282.263V282.163C357.3 280.363 354.2 271.363 352.6 264.563C352.2 262.863 352.2 262.663 352.3 262.563L353.5 262.663C353.6 263.263 353.8 263.863 353.9 264.563C354.8 267.763 356.9 274.663 359.2 281.863C359.2 281.963 359.3 282.063 359.3 282.063C360.4 283.463 361.6 283.763 362.7 283.063C364.3 282.063 365.7 279.163 366.6 275.063C367.6 270.463 368 264.563 367.6 258.063C366.9 246.463 363.5 227.963 351.5 205.363L351.6 204.763C351.6 204.763 353.7 201.963 354.4 198.963C353.7 193.663 352.1 189.563 349.8 186.863C346.7 183.163 342 181.763 336 182.763C331.4 183.463 323.7 185.963 312.7 193.663C305.5 198.663 300.9 203.163 300.5 203.963C300.4 204.863 301.7 207.063 302.9 209.163C304.3 211.663 305.8 214.163 306.1 216.063V216.163C306.3 219.463 295.9 228.663 287 235.463C274.5 244.963 261.7 252.563 252.9 255.763C248.4 257.363 244.8 260.763 243.1 265.163C238.6 275.763 227.4 304.063 220.9 318.863Z" fill="black"/>
<path d="M252.6 319.763L251.6 319.163C262.8 301.563 279.1 284.263 295.4 272.863C313.4 260.263 328.7 256.563 338.5 262.463L337.9 263.463C333.1 260.563 326.8 260.163 319.3 262.163C312.3 264.063 304.5 267.963 296.1 273.863C279.9 285.063 263.6 302.263 252.6 319.763Z" fill="black"/>
<path d="M246.4 284.163C245.9 280.663 249.8 275.863 259.1 268.463C267.1 262.063 278.2 254.563 289.9 246.663C305.6 236.063 321.8 225.063 333.9 214.663C347.4 202.963 353 194.363 350.9 188.163L352 187.763C353.2 191.363 352.2 195.663 348.8 200.663C345.9 205.063 341.3 209.863 334.7 215.563C322.6 225.963 306.4 236.963 290.6 247.563C278.9 255.463 267.9 262.963 259.9 269.263C251.2 276.163 247.2 280.963 247.6 283.863L246.4 284.163Z" fill="black"/>
<path d="M165.8 212.763L174.3 214.663L176.2 219.863L213.1 214.163C213.1 214.163 223.1 199.363 226.7 160.963C237.2 170.363 245.3 174.463 245.3 174.463L238.2 211.063L181.7 236.563L165.8 212.763Z" fill="black"/>
<path d="M180.4 27.1632C162.2 43.2632 166.2 59.4632 166.2 59.4632C166.2 59.4632 196.1 62.3632 214 77.3632C217.7 80.4632 225.5 84.8632 219.2 99.5632C221.6 102.463 231.3 109.663 232.3 113.563C234.2 120.863 225.6 129.663 225.6 129.663L239.7 134.063C239.7 134.063 243 128.263 257.2 121.563C260.8 119.863 271.3 123.163 278.2 131.863C282.4 137.063 277.1 169.263 273.4 173.863C289.2 168.963 294.1 179.063 294.1 179.063C294.1 179.063 307.7 139.563 319.2 116.763C328.7 97.9632 325.9 56.4632 300.4 33.1632C274.9 9.86317 193.9 15.3632 180.4 27.1632Z" fill="black"/>
<path d="M166.1 227.763C165.7 216.963 171.5 211.663 172.8 210.863C174 210.063 174.3 211.763 174.3 211.763C174.3 211.763 173.8 223.863 181 225.663C185.1 226.663 180.5 230.963 180.5 230.963L171.9 233.963L166.1 227.763Z" fill="#FFD645"/>
<path d="M172.1 234.463L171.4 234.263L165.7 228.163L165.5 227.763C165.2 217.463 170.4 211.663 172.5 210.363C173.2 209.963 173.7 209.963 174 210.163C174.7 210.463 174.9 211.463 174.9 211.663V211.763C174.9 211.863 174.5 223.363 181.1 224.963C182.3 225.263 183 225.763 183.2 226.663C183.7 228.563 181.2 231.063 180.9 231.263L180.7 231.363L172.1 234.463ZM166.7 227.463L172 233.163L180.1 230.263C181 229.363 182.2 227.763 182 226.863C181.9 226.463 181.5 226.263 180.8 226.063C177.6 225.263 175.4 222.563 174.3 218.063C173.6 214.963 173.6 212.163 173.6 211.663C173.6 211.463 173.4 211.163 173.4 211.163C173.4 211.163 173.3 211.163 173.1 211.263C173.1 211.363 166.4 216.063 166.7 227.463Z" fill="black"/>
<path d="M182.9 226.963C177.5 217.263 179.5 210.463 180.1 209.263C180.7 208.063 181.7 209.563 181.7 209.563C181.7 209.563 187.1 220.763 193.6 219.863C197.3 219.363 195.7 224.863 195.7 224.863L190.4 230.563L182.9 226.963Z" fill="#FFD645"/>
<path d="M190.1 231.063L182.6 227.463L182.3 227.263C179.9 223.063 178.7 218.963 178.6 214.963C178.5 211.863 179.1 209.763 179.5 209.063C179.8 208.463 180.2 208.263 180.5 208.263C181.3 208.263 181.9 209.063 182.1 209.263V209.363C182.2 209.463 187.4 220.163 193.4 219.363C194.7 219.163 195.4 219.663 195.8 220.063C197.1 221.563 196.3 224.763 196.2 225.063L196.1 225.263L190.8 230.963L190.1 231.063ZM183.3 226.463L190.2 229.863L195.1 224.563C195.3 223.763 195.6 221.663 194.9 220.763C194.8 220.663 194.5 220.263 193.6 220.463C190.7 220.863 187.7 219.163 184.7 215.463C182.6 212.863 181.3 210.263 181.1 209.863C181 209.663 180.8 209.463 180.7 209.463C180.7 209.463 180.7 209.563 180.6 209.563C179.7 211.163 178.5 217.763 183.3 226.463Z" fill="black"/>
<path d="M192.499 225.263C187.099 215.563 189.099 208.763 189.699 207.563C190.299 206.363 191.299 207.863 191.299 207.863C191.299 207.863 196.699 219.063 203.199 218.163C206.899 217.663 205.299 223.163 205.299 223.163L199.999 228.863L192.499 225.263Z" fill="#FFD645"/>
<path d="M199.7 229.463L192.2 225.863L191.9 225.663C189.5 221.463 188.3 217.363 188.2 213.363C188.1 210.263 188.7 208.163 189.1 207.463C189.4 206.863 189.8 206.663 190.1 206.663C190.9 206.663 191.5 207.463 191.7 207.663V207.763C191.8 207.863 197 218.563 203 217.763C204.3 217.563 205 218.063 205.4 218.463C206.7 219.963 205.9 223.163 205.8 223.463L205.7 223.663L200.4 229.363L199.7 229.463ZM193 224.863L199.9 228.263L204.8 222.963C205 222.163 205.3 220.063 204.6 219.163C204.5 219.063 204.2 218.663 203.3 218.863C200.4 219.263 197.4 217.563 194.4 213.863C192.3 211.263 191 208.663 190.8 208.263C190.7 208.063 190.5 207.863 190.4 207.863C190.4 207.863 190.4 207.963 190.3 207.963C189.4 209.563 188.1 216.163 193 224.863Z" fill="black"/>
<path d="M213.5 216.163C210.6 205.463 214.2 199.363 215.1 198.363C216 197.363 216.6 199.063 216.6 199.063C216.6 199.063 219.1 211.263 225.6 211.963C229.3 212.363 226.5 217.363 226.5 217.363L219.9 221.663L213.5 216.163Z" fill="#FFD645"/>
<path d="M220.199 221.963H219.499L213.099 216.663L212.899 216.363C210.099 206.063 213.199 199.563 214.599 197.963C215.099 197.463 215.499 197.363 215.799 197.463C216.599 197.663 216.999 198.663 217.099 198.863V198.963C217.099 199.063 219.599 210.763 225.599 211.363C226.899 211.463 227.499 212.163 227.799 212.663C228.699 214.463 227.099 217.263 226.999 217.563L226.799 217.763L220.199 221.963ZM214.099 215.763L219.999 220.663L226.099 216.763C226.499 215.963 227.299 214.063 226.799 213.063C226.699 212.963 226.499 212.463 225.599 212.363C218.899 211.663 216.299 200.063 216.099 199.063C215.999 198.863 215.899 198.663 215.799 198.563C215.799 198.563 215.699 198.563 215.699 198.663C214.299 200.063 211.499 206.163 214.099 215.763Z" fill="black"/>
<path d="M221.5 217.263C218.6 206.563 222.2 200.463 223.1 199.463C224 198.463 224.6 200.163 224.6 200.163C224.6 200.163 227.1 212.363 233.6 213.063C237.3 213.463 234.5 218.463 234.5 218.463L227.9 222.763L221.5 217.263Z" fill="#FFD645"/>
<path d="M228.199 223.063H227.499L221.099 217.763L220.899 217.463C218.099 207.163 221.199 200.663 222.599 199.063C223.099 198.563 223.499 198.463 223.799 198.563C224.599 198.763 224.999 199.763 225.099 199.963V200.063C225.099 200.163 227.599 211.863 233.599 212.463C234.899 212.563 235.499 213.263 235.799 213.763C236.699 215.563 235.199 218.363 234.999 218.663L234.799 218.863L228.199 223.063ZM221.999 216.863L227.899 221.763L233.999 217.863C234.399 217.063 235.199 215.163 234.699 214.163C234.599 214.063 234.399 213.563 233.499 213.463C226.799 212.763 224.199 201.163 223.999 200.163C223.899 199.963 223.799 199.763 223.699 199.663C223.699 199.663 223.599 199.663 223.599 199.763C222.299 201.163 219.499 207.263 221.999 216.863Z" fill="black"/>
<path d="M169.8 250.563C169.3 240.563 162.6 229.263 162.6 229.263C166.8 219.263 181 227.763 193.5 214.763C212.4 194.963 223.1 209.063 241.2 203.263C259.3 197.463 263.7 184.363 261.3 174.463C259 164.563 268 118.563 264.7 107.263L280.9 101.163C297.5 152.163 282.4 204.263 270.2 215.063C258.4 222.463 213.5 242.263 213.5 242.263C213.5 242.263 170.3 260.563 169.8 250.563Z" fill="#FFD645"/>
<path d="M175.2 254.463C173.1 254.463 171.6 254.163 170.5 253.463C169.5 252.763 168.9 251.863 168.8 250.563C168.3 240.963 161.8 229.863 161.7 229.763L161.6 228.963C163.8 223.763 168.5 223.163 173.9 222.463C179.8 221.663 186.4 220.863 192.7 214.263C204.9 201.563 213.8 202.463 223.2 203.463C228.6 204.063 234.2 204.663 240.8 202.563C258.7 196.863 262.5 184.063 260.3 174.863C259.2 170.163 260.6 157.763 262 144.663C263.6 130.163 265.4 113.663 263.7 107.663L264.2 106.563L280.4 100.463L281.6 101.063C285.5 113.063 287.9 125.863 288.7 139.063C289.4 150.663 288.9 162.163 287.1 173.463C284.1 192.763 277.5 209.863 270.6 215.863L270.5 215.963C258.8 223.263 215.5 242.363 213.6 243.163C213.5 243.163 204.6 246.963 195 250.063C186.2 252.963 179.6 254.463 175.2 254.463ZM163.6 229.263C164.8 231.463 170.3 241.363 170.7 250.563C170.7 251.163 171 251.663 171.5 251.963C173 252.963 178.1 253.763 194.6 248.363C204.2 245.263 213 241.563 213.1 241.463C213.5 241.263 258 221.663 269.6 214.463C277.1 207.663 283 188.863 285.4 173.163C287.1 161.963 287.7 150.563 287 139.163C286.2 126.463 284 114.163 280.3 102.463L265.7 107.963C267.2 114.763 265.5 129.963 263.9 144.763C262.5 157.763 261.1 169.963 262.1 174.363C263.4 180.063 262.5 185.963 259.6 190.963C256.1 196.963 249.8 201.463 241.4 204.163C234.5 206.363 228.7 205.763 223.1 205.163C218.5 204.663 214.1 204.263 209.5 205.363C204.3 206.663 199.4 209.863 194.1 215.363C187.4 222.463 180.1 223.363 174.2 224.163C169.2 224.863 165.5 225.363 163.6 229.263Z" fill="black"/>
<path d="M172.3 243.163C173.9 248.763 170.6 250.563 179.9 250.563C189.2 250.563 260.5 220.563 269 211.963C277.5 203.363 287.8 163.863 285.5 162.763C283.2 161.663 277.3 176.763 273.1 189.563C269 202.363 274.2 204.463 258.7 210.663C243.1 216.863 212.3 237.263 198.3 236.763C184.3 236.263 172.3 243.163 172.3 243.163Z" fill="#FFA748"/>
<path d="M211.2 207.263C208.9 206.663 201.4 209.163 199.9 212.963C198.4 216.763 199.5 220.863 202.1 219.063C204.7 217.263 206.8 213.863 208.7 211.863C210.6 209.763 213.5 207.863 211.2 207.263Z" fill="#FFEAB0"/>
<path d="M172.099 213.563C171.099 214.463 168.399 218.563 168.299 220.263C168.199 221.963 169.299 222.463 170.099 220.763C170.899 219.063 171.299 217.263 171.699 215.863C172.299 214.463 173.099 212.663 172.099 213.563Z" fill="#FFEAB0"/>
<path d="M180.4 211.463C180.1 212.763 180.2 217.763 181.1 219.163C182 220.563 183.2 220.463 182.9 218.563C182.6 216.663 181.9 214.963 181.5 213.563C181 212.063 180.7 210.163 180.4 211.463Z" fill="#FFEAB0"/>
<path d="M190.5 209.963C190.2 210.663 189.7 213.363 190 214.163C190.3 215.063 191 215.063 191 214.063C191 213.063 190.8 212.063 190.8 211.163C190.7 210.363 190.8 209.263 190.5 209.963Z" fill="#FFEAB0"/>
<path d="M215.399 199.563C215.099 199.863 214.299 201.363 214.399 201.863C214.399 202.363 214.799 202.563 214.999 201.963C215.199 201.363 215.299 200.763 215.399 200.263C215.499 199.863 215.799 199.263 215.399 199.563Z" fill="#FFEAB0"/>
<path d="M223.399 200.263C223.099 200.563 222.299 202.063 222.399 202.563C222.399 203.063 222.799 203.263 222.999 202.663C223.199 202.063 223.299 201.463 223.399 200.963C223.499 200.563 223.699 199.863 223.399 200.263Z" fill="#FFEAB0"/>
<path d="M173.399 225.563C171.899 225.163 166.999 226.763 166.099 229.263C165.099 231.763 165.799 234.363 167.599 233.263C169.399 232.163 170.599 229.863 171.899 228.563C173.099 227.163 174.899 225.963 173.399 225.563Z" fill="#FFEAB0"/>
<path d="M275.999 130.163C284.394 130.163 291.199 123.358 291.199 114.963C291.199 106.568 284.394 99.7632 275.999 99.7632C267.604 99.7632 260.799 106.568 260.799 114.963C260.799 123.358 267.604 130.163 275.999 130.163Z" fill="#FFD645"/>
<path d="M275.999 130.763C267.299 130.763 260.199 123.663 260.199 114.963C260.199 106.263 267.299 99.1631 275.999 99.1631C284.699 99.1631 291.799 106.263 291.799 114.963C291.799 123.663 284.699 130.763 275.999 130.763ZM275.999 100.363C267.899 100.363 261.399 106.963 261.399 114.963C261.399 122.963 267.999 129.563 275.999 129.563C284.099 129.563 290.599 122.963 290.599 114.963C290.599 106.963 284.099 100.363 275.999 100.363Z" fill="black"/>
<path d="M275.999 126.263C282.24 126.263 287.299 121.204 287.299 114.963C287.299 108.722 282.24 103.663 275.999 103.663C269.758 103.663 264.699 108.722 264.699 114.963C264.699 121.204 269.758 126.263 275.999 126.263Z" fill="#FFD645"/>
<path d="M276 126.863C269.4 126.863 264.1 121.563 264.1 114.963C264.1 108.363 269.4 103.063 276 103.063C282.6 103.063 287.9 108.363 287.9 114.963C287.9 121.463 282.6 126.863 276 126.863ZM276 104.263C270.1 104.263 265.3 109.063 265.3 114.963C265.3 120.863 270.1 125.663 276 125.663C281.9 125.663 286.7 120.863 286.7 114.963C286.7 109.063 281.9 104.263 276 104.263Z" fill="black"/>
<path d="M207.3 136.863L173.7 128.663L158.4 133.663L154.9 126.163L171.9 117.163L200.3 127.763L207.3 136.863Z" fill="black"/>
<path d="M171.4 151.263L177 149.563L189.8 143.963C189.8 143.963 174.7 137.263 171.6 138.963L171.4 151.263Z" fill="white"/>
<path d="M165.3 133.363C166.1 134.063 166.9 134.763 167.8 135.563C168.2 135.963 168.6 136.363 169 136.763C169.2 136.963 169.4 137.163 169.6 137.363C169.7 137.463 169.8 137.563 169.9 137.663L170 137.863C170 137.963 170.1 137.963 170.2 138.063L169.5 137.663L172.2 137.963C173.1 138.063 174 138.263 174.9 138.363C175.8 138.463 176.7 138.663 177.6 138.863L178.9 139.163C179.3 139.263 179.8 139.363 180.2 139.463L181.5 139.763C181.9 139.863 182.4 140.063 182.8 140.163C183 140.263 183.2 140.263 183.5 140.363L184.2 140.563L184.9 140.763C185.1 140.863 185.3 140.863 185.6 140.963L186.3 141.163C186.5 141.263 186.7 141.363 186.9 141.463C187.1 141.563 187.3 141.663 187.5 141.763L188.1 142.063C188.3 142.163 188.5 142.263 188.7 142.363C188.9 142.463 189.1 142.563 189.3 142.763C189.5 142.863 189.7 143.063 189.9 143.163C190 143.263 190.1 143.263 190.2 143.363C190.2 143.363 190.3 143.463 190.4 143.463L190.5 143.563L190.6 143.663L189.3 144.963L189.2 144.863L189.1 144.763C189 144.663 189 144.663 188.9 144.563C188.7 144.463 188.6 144.363 188.4 144.263C188.2 144.163 188 144.063 187.9 143.963C187.7 143.863 187.5 143.763 187.3 143.663L186.7 143.363C186.5 143.263 186.3 143.163 186.1 143.063C185.9 142.963 185.7 142.863 185.5 142.863L184.9 142.663C184.7 142.563 184.5 142.563 184.3 142.463L183.7 142.263L183.1 142.063C182.9 141.963 182.7 141.963 182.5 141.863C182.1 141.763 181.7 141.663 181.2 141.563L179.9 141.263C179.5 141.163 179 141.063 178.6 140.963L177.3 140.663C176.4 140.563 175.5 140.363 174.7 140.263C173.8 140.163 172.9 139.963 172.1 139.863L169.4 139.563H169L168.7 139.163L168.6 139.063L168.5 138.963C168.4 138.863 168.3 138.763 168.2 138.663C168 138.463 167.8 138.263 167.7 138.163C167.3 137.763 167 137.463 166.6 137.063C165.8 136.363 165 135.663 164.2 134.963L165.3 133.363Z" fill="black"/>
<path d="M171.5 159.763C171.2 159.063 170.8 158.463 170.5 157.763C170.2 157.063 170 156.363 169.7 155.663C169.5 154.963 169.3 154.263 169.1 153.563C169 153.163 169 152.863 168.9 152.463C168.9 152.263 168.8 152.063 168.8 151.963C168.8 151.763 168.8 151.563 168.7 151.363L169.4 150.463C171.1 150.163 172.8 149.763 174.5 149.263C176.2 148.763 177.8 148.163 179.5 147.563C181.1 146.963 182.8 146.263 184.4 145.563C186 144.863 187.6 144.163 189.2 143.363L189.3 143.263H189.4L194.6 143.363V144.263L189.4 144.363L189.7 144.263C188.1 145.063 186.5 145.863 184.9 146.663C183.3 147.463 181.6 148.163 180 148.863C178.4 149.563 176.7 150.163 175 150.763C173.3 151.363 171.6 151.863 169.7 152.163L170.4 151.263C170.4 151.363 170.4 151.563 170.4 151.763C170.4 151.963 170.4 152.063 170.5 152.263C170.6 152.563 170.6 152.963 170.7 153.263C170.8 153.963 171 154.563 171.2 155.163C171.4 155.763 171.6 156.463 171.9 157.063C172.2 157.663 172.5 158.263 172.8 158.863L171.5 159.763Z" fill="black"/>
<path d="M170.5 151.363C170 147.963 170.1 142.063 170.7 138.663L172.5 138.963C171.9 142.063 171.8 147.863 172.3 151.063L170.5 151.363Z" fill="black"/>
<path d="M159.4 182.963C164.9 186.263 157.8 190.163 153.7 186.563C151.3 184.463 147 181.563 146.1 180.463C145.7 179.963 145.6 179.163 145.7 178.463L154.3 180.263C154.3 180.263 153.8 179.663 159.4 182.963Z" fill="#062784"/>
<path d="M248.9 146.563L262.2 127.463H273.8L270.1 145.263L254.2 162.763L252.7 155.663L257.3 151.163L256.7 148.063L248.9 146.563Z" fill="#0029BC"/>
<path d="M276.001 130.163C284.396 130.163 291.201 123.358 291.201 114.963C291.201 106.568 284.396 99.7632 276.001 99.7632C267.606 99.7632 260.801 106.568 260.801 114.963C260.801 123.358 267.606 130.163 276.001 130.163Z" fill="#FFD645"/>
<path d="M276 131.063C267.1 131.063 259.9 123.863 259.9 114.963C259.9 106.063 267.1 98.8633 276 98.8633C284.9 98.8633 292.1 106.063 292.1 114.963C292.1 123.863 284.9 131.063 276 131.063ZM276 100.663C268.1 100.663 261.7 107.063 261.7 114.963C261.7 122.863 268.1 129.263 276 129.263C283.9 129.263 290.3 122.863 290.3 114.963C290.3 107.063 283.9 100.663 276 100.663Z" fill="black"/>
<path d="M276 126.263C282.241 126.263 287.3 121.204 287.3 114.963C287.3 108.722 282.241 103.663 276 103.663C269.759 103.663 264.7 108.722 264.7 114.963C264.7 121.204 269.759 126.263 276 126.263Z" fill="#FFD645"/>
<path d="M276 127.163C269.3 127.163 263.8 121.663 263.8 114.963C263.8 108.263 269.3 102.763 276 102.763C282.7 102.763 288.2 108.263 288.2 114.963C288.2 121.663 282.7 127.163 276 127.163ZM276 104.563C270.3 104.563 265.6 109.263 265.6 114.963C265.6 120.663 270.3 125.363 276 125.363C281.7 125.363 286.4 120.663 286.4 114.963C286.4 109.263 281.7 104.563 276 104.563Z" fill="black"/>
<path d="M276 99.763C229.8 132.263 171.1 7.36303 140.1 21.763C152.5 99.763 138 127.063 138 127.063L152.5 151.663C141.5 164.763 137 179.163 137 179.163L157.9 189.063C161.4 190.163 162.7 187.663 164.6 184.263C171.8 171.463 186.3 163.563 200.9 162.363C202.3 162.263 203.3 162.063 204.1 161.963C217.6 159.363 231.7 146.563 239.9 135.563C243.4 130.863 291.1 130.163 291.1 115.063C291.2 99.863 279.8 103.363 276 99.763Z" fill="#FFD645"/>
<path d="M159.5 190.163C158.9 190.163 158.3 190.063 157.6 189.863H157.5L136.6 179.963L136.1 178.863C136.1 178.763 140.7 164.463 151.4 151.563L137.2 127.563V126.663C137.2 126.563 140.8 119.663 142.8 103.363C146.2 76.0631 142.7 44.0631 139.2 21.9631L139.7 20.9631C146.2 17.9631 154 20.2631 164.2 28.2631C173.1 35.2631 182.9 45.6631 193.2 56.6631C206.8 71.1631 220.9 86.1631 235 95.4631C242.6 100.463 249.4 103.263 255.7 104.063C262.9 104.963 269.3 103.363 275.4 99.0631L276.5 99.1631C277.5 100.063 279.1 100.463 281 100.963C285.6 102.063 292 103.663 292 114.963C292 119.763 287.8 123.663 279.2 126.663C272.1 129.163 263.3 130.763 255.5 132.163C248.7 133.363 241.6 134.663 240.6 135.963C232.7 146.563 218.4 159.963 204.3 162.763C203.6 162.863 202.5 163.063 201 163.163C193.7 163.763 186.6 166.063 180.4 169.663C173.9 173.463 168.7 178.663 165.4 184.663L165.3 184.863C163.8 187.663 162.4 190.163 159.5 190.163ZM158.3 188.163C160.9 188.963 161.9 187.463 163.8 183.963L163.9 183.763C167.4 177.463 172.8 172.063 179.6 168.163C186 164.363 193.4 162.063 200.9 161.363C202.3 161.263 203.4 161.063 204 160.963C212.5 159.363 226.9 151.463 239.2 134.863C240.6 133.063 245.6 132.063 255.2 130.363C262.9 128.963 271.6 127.463 278.6 124.963C286.4 122.163 290.2 118.863 290.2 114.963C290.2 105.063 285.3 103.863 280.6 102.663C278.8 102.263 277.1 101.763 275.9 100.863C249.2 118.863 218.8 86.4631 191.9 57.8631C181.6 46.8631 171.9 36.5631 163.1 29.6631C153.8 22.3631 146.7 20.0631 141.1 22.3631C144.6 44.6631 148 76.5631 144.6 103.763C142.8 118.163 139.9 125.163 139 126.963L153.3 151.163L153.2 152.163C143.9 163.263 139.2 175.463 138.1 178.563L158.3 188.163Z" fill="black"/>
<path d="M139.5 127.063C155.8 141.863 166.6 111.663 208.3 125.563L205.7 128.563C183.5 123.163 185.9 134.063 159.3 130.863C154.1 146.563 148.4 141.563 148.4 141.563L139.5 127.063Z" fill="#FFA748"/>
<path d="M277.801 109.163C282.801 113.863 290.101 113.863 290.001 113.863C290.001 113.863 288.901 106.963 284.201 102.563C279.601 98.1633 272.701 97.4633 272.601 97.3633C272.701 97.3633 272.901 104.463 277.801 109.163Z" fill="#FFD645"/>
<path d="M289.801 114.463C288.001 114.463 281.801 113.863 277.401 109.663C272.401 104.863 272.101 97.7633 272.101 97.4633H272.401L272.601 96.8633L272.901 97.1633L273.001 97.0633C272.901 96.9633 272.801 96.8633 272.701 96.8633H272.801C275.601 97.2633 280.701 98.5633 284.501 102.163C288.701 106.063 290.101 111.963 290.401 113.663V113.763H290.201L290.101 114.363C290.201 114.463 290.101 114.463 289.801 114.463ZM273.301 98.0633C273.501 99.9633 274.401 105.063 278.201 108.763C282.101 112.463 287.401 113.163 289.301 113.263C288.801 111.063 287.301 106.263 283.901 102.963C280.501 99.7633 275.701 98.5633 273.301 98.0633Z" fill="black"/>
<path d="M276.601 102.463C276.601 102.463 287.401 112.063 286.301 111.663C285.201 111.263 281.501 110.563 279.201 107.663C276.901 104.863 276.601 102.463 276.601 102.463Z" fill="#FFA748"/>
<path d="M276.601 102.463C285.001 109.563 290.101 113.863 290.101 113.863L276.601 102.463Z" fill="#FFD645"/>
<path d="M289.7 114.363C289.6 114.363 284.5 110.063 276.2 102.963L277 102.063C285.3 109.063 290.4 113.363 290.5 113.363L289.7 114.363Z" fill="black"/>
<path d="M262.401 104.463C268.001 110.663 276.801 111.463 276.801 111.463C276.801 111.463 276.001 103.063 270.801 97.2632C265.601 91.4632 257.301 89.7632 257.201 89.7632C257.101 89.5632 256.801 98.1632 262.401 104.463Z" fill="#FFD645"/>
<path d="M276.801 111.963C276.101 111.963 273.901 111.563 271.501 110.763C268.801 109.863 265.001 108.063 262.001 104.763C256.401 98.5632 256.501 89.7632 256.701 89.3632L257.401 89.2632L257.501 89.0632H257.601C260.201 89.7632 266.801 91.7632 271.301 96.6632C276.001 101.863 277.201 109.063 277.501 111.163V111.263H277.401L277.101 111.863C276.901 111.963 276.901 111.963 276.801 111.963ZM257.701 90.4632C257.801 92.5632 258.301 99.0632 262.801 104.063C267.301 109.063 273.901 110.463 276.001 110.763C275.601 108.163 274.301 102.163 270.201 97.6632C266.301 93.1632 260.601 91.1632 257.701 90.4632Z" fill="black"/>
<path d="M262.101 96.1633C262.101 96.1633 275.101 109.063 274.001 108.563C272.901 108.063 267.601 106.463 265.501 103.563C263.401 100.463 262.101 96.1633 262.101 96.1633Z" fill="#FFA748"/>
<path d="M262.527 95.7085L261.661 96.5396L276.273 111.763L277.139 110.932L262.527 95.7085Z" fill="black"/>
<path d="M247.7 97.2633C252.6 103.663 261 105.163 261 105.163C261 105.163 260.7 97.0633 256.1 91.0633C251.5 85.0633 243.7 82.6633 243.7 82.6633C243.7 82.6633 242.8 90.8633 247.7 97.2633Z" fill="#FFD645"/>
<path d="M261.1 105.763C260.4 105.763 252.1 103.963 247.3 97.6632C244.7 94.2632 243.7 90.3632 243.3 87.6632C243 85.3632 243 82.6632 243.2 82.3632L243.8 82.2632L243.9 82.0632C245.8 82.6632 252.4 85.2632 256.5 90.6632C260.6 96.0632 261.4 102.963 261.5 104.963V105.063V105.263L261.1 105.763ZM244.2 83.5632C244.1 85.6632 244.3 91.8632 248.2 96.9632C252.1 102.063 258.2 103.963 260.3 104.463C260.1 101.963 259.1 96.0632 255.6 91.4632C252.1 86.8632 246.6 84.3632 244.2 83.5632Z" fill="black"/>
<path d="M245.9 86.9632C245.9 86.9632 261.2 105.063 260.1 104.563C259.1 103.963 255.5 102.763 253.6 99.6632C251.7 96.5632 243.6 83.5632 245.9 86.9632Z" fill="#FFA748"/>
<path d="M245.9 86.9631C252.1 93.9631 261 105.163 261 105.163L245.9 86.9631Z" fill="#FFD645"/>
<path d="M260.5 105.563C260.4 105.463 251.5 94.2632 245.4 87.3632L246.3 86.5632C252.5 93.4632 261.4 104.663 261.5 104.763L260.5 105.563Z" fill="black"/>
<path d="M233.9 89.8633C238.9 97.4633 248.1 99.9633 248.1 99.8633C248.1 99.8633 248.4 90.8633 243.6 83.7633C238.9 76.6633 230.4 73.2633 230.4 73.2633C230.4 73.1633 228.9 82.2633 233.9 89.8633Z" fill="#FFD645"/>
<path d="M248.2 100.463C247.6 100.463 238.5 97.6632 233.5 90.1632C230.8 86.1632 230 81.7632 229.8 78.7632C229.6 76.0632 229.8 73.1632 230.1 72.8632L230.7 72.9632L230.8 72.7632H230.9C233.6 73.9632 240.2 77.3632 244.2 83.4632C248.4 89.8632 248.8 97.5632 248.8 99.8632V99.9632V100.163L248.2 100.463ZM230.9 74.1632C230.7 76.4632 230.4 83.5632 234.4 89.5632C238.4 95.6632 245.2 98.3632 247.5 99.1632C247.4 96.3632 246.8 89.6632 243.2 84.1632C239.5 78.6632 233.8 75.4632 230.9 74.1632Z" fill="black"/>
<path d="M232.5 76.6632C233.5 77.0632 247.7 99.5632 246.9 98.6632C246.1 97.7632 237.5 90.6632 236.8 87.1632C236.1 83.4632 231.4 76.2632 232.5 76.6632Z" fill="#FFA748"/>
<path d="M232.5 76.6633C235.8 80.9633 248.1 99.9633 248.1 99.9633L232.5 76.6633Z" fill="#FFD645"/>
<path d="M247.6 100.263C247.5 100.063 235.2 81.2633 232 77.0633L233 76.3633C236.2 80.6633 248.5 99.4633 248.7 99.6633L247.6 100.263Z" fill="black"/>
<path d="M274.8 121.663C266.6 123.063 258.1 117.563 258.2 117.563C258.2 117.563 263.4 110.863 271.5 109.763C279.5 108.663 287.5 112.963 287.5 112.963C287.4 112.963 282.9 120.263 274.8 121.663Z" fill="#FFD645"/>
<path d="M272 122.463C268.7 122.463 265.5 121.563 263.2 120.663C261.5 120.063 260.2 119.363 259.3 118.863C257.6 117.963 257.6 117.863 257.5 117.563V117.463V117.163C257.8 116.463 263.4 110.163 271.2 109.063C278.4 108.063 285.5 111.263 287.5 112.263H287.6L287.8 112.363L287.4 113.263V113.363C287.6 113.363 287.7 113.263 287.8 113.163C287.8 113.163 287.8 113.263 287.7 113.263C286.1 115.463 281.6 120.863 274.8 122.063C273.9 122.463 273 122.463 272 122.463ZM259.1 117.463C261 118.563 268 122.263 274.7 121.163C280.8 120.063 284.8 115.563 286.6 113.263C284.1 112.063 277.9 109.563 271.6 110.463C265 111.263 260.4 115.963 259.1 117.463ZM258.6 117.663H258.8C258.8 117.563 258.8 117.363 258.7 117.263L258.6 117.663Z" fill="black"/>
<path d="M265.5 116.963C265.5 116.963 286.2 113.163 284.6 113.963C283.1 114.763 278.9 117.663 273.1 118.463C267.3 119.263 265.5 116.963 265.5 116.963Z" fill="#FFA748"/>
<path d="M265.5 117.563L265.4 116.363C274 115.363 284.4 113.463 287.3 112.363L287.7 113.463C284.7 114.663 274.4 116.563 265.5 117.563Z" fill="black"/>
<path d="M284.8 122.263C280.8 125.263 274.8 124.263 274.8 124.263C274.8 124.263 275.6 118.763 279.7 116.063C283.8 113.363 289.4 113.963 289.4 113.963C289.5 113.863 288.8 119.363 284.8 122.263Z" fill="#FFD645"/>
<path d="M277.2 125.063C275.8 125.063 274.8 124.963 274.6 124.863L274.5 124.663L274.4 124.763L274.3 124.463L274.2 124.363V124.263C274.2 124.163 275 118.563 279.4 115.663C283 113.263 287.6 113.263 289.4 113.463H289.5V113.563H289.8L289.9 114.563C290 114.463 290 114.363 290.1 114.263V114.363C289.4 118.063 287.6 121.163 285.2 122.963C283 124.563 280.3 125.063 278.4 125.163C278 125.063 277.6 125.063 277.2 125.063ZM275.6 123.763C277.1 123.863 281.5 124.063 284.5 121.763C286.6 120.263 288.1 117.663 288.8 114.463C286.8 114.363 283.1 114.563 280.2 116.563C277 118.663 275.9 122.363 275.6 123.763Z" fill="black"/>
<path d="M279.5 121.163C279.5 121.163 289.2 113.763 288.6 114.863C288 115.963 286.6 119.363 283.4 121.163C280.2 122.863 279.5 121.163 279.5 121.163Z" fill="#FFA748"/>
<path d="M258.5 115.763C250.3 116.463 242.3 110.163 242.3 110.163C242.3 110.163 247.9 104.063 256 103.663C264 103.363 271.6 108.363 271.6 108.363C271.6 108.263 266.6 115.063 258.5 115.763Z" fill="#FFD645"/>
<path d="M257.2 116.363C253.3 116.363 249.6 114.963 247 113.763C245.4 112.963 244.1 112.163 243.3 111.663C241.8 110.663 241.7 110.463 241.7 110.363V110.263V109.863C242 109.363 247.9 103.463 255.9 103.063C263 102.763 269.9 106.563 271.8 107.763H271.9L271.7 108.163V108.863C271.9 108.863 272.1 108.763 272.1 108.663C272.1 108.663 272.1 108.663 272 108.763C270.3 110.863 265.5 115.663 258.6 116.263C258.1 116.363 257.7 116.363 257.2 116.363ZM243.2 110.063C244.9 111.263 250.8 115.163 257.2 115.163C257.6 115.163 258 115.163 258.4 115.063C264.5 114.563 268.8 110.563 270.7 108.363C268.3 106.963 262.3 103.863 256 104.163C249.4 104.563 244.6 108.763 243.2 110.063ZM242.8 109.863L242.9 110.163C242.9 110.163 242.9 110.063 242.8 109.863C242.9 109.963 242.9 109.863 242.8 109.863Z" fill="black"/>
<path d="M252.101 110.763C252.101 110.763 270.801 107.863 269.801 108.663C268.901 109.363 266.301 112.163 262.701 112.663C259.001 113.063 252.101 110.763 252.101 110.763Z" fill="#FFA748"/>
<path d="M243.5 108.863C235.3 108.863 227.7 101.863 227.7 101.863C227.7 101.863 233.7 96.2632 241.7 96.5632C249.7 96.9632 257 102.563 257.1 102.563C257.1 102.563 251.7 108.963 243.5 108.863Z" fill="#FFD645"/>
<path d="M243.7 109.463H243.6C239.2 109.463 235.1 107.463 232.3 105.863C230.8 104.963 229.5 104.063 228.7 103.463C227.2 102.263 227.2 102.163 227.2 101.863H227.3V101.563C227.3 101.463 233.3 95.6632 241.9 95.9632C248.8 96.2632 255.1 100.363 257.5 102.063L257.6 102.163L257.3 102.563L257.2 103.263C257.4 103.263 257.5 103.163 257.6 103.063C257.6 103.063 257.6 103.063 257.5 103.163C255.6 105.063 250.6 109.463 243.7 109.463ZM228.7 101.863C230.4 103.363 236.8 108.263 243.6 108.263H243.7C249.8 108.263 254.3 104.663 256.2 102.663C253.9 101.063 248 97.4632 241.7 97.1632C235.2 96.8632 230.1 100.663 228.7 101.863Z" fill="black"/>
<path d="M233.6 102.463C233.6 102.463 255.3 103.163 254.2 103.663C253.1 104.063 241.4 105.563 237.7 105.063C234.1 104.563 229.5 102.063 233.6 102.463Z" fill="#FFA748"/>
<path d="M233.601 102.463C241.401 104.663 257.201 102.563 257.201 102.563L233.601 102.463Z" fill="#FFD645"/>
<path d="M243.6 104.163C239.9 104.163 236.2 103.863 233.4 103.163L233.7 101.963C241.3 104.063 256.9 102.063 257 102.063L257.2 103.263C256.8 103.263 250.3 104.163 243.6 104.163Z" fill="black"/>
<path d="M228.9 101.163C220 100.363 212.2 91.9631 212.3 91.9631C212.3 91.9631 219.2 86.3631 227.9 87.5631C236.6 88.7631 244.1 95.6631 244.1 95.6631C244.1 95.5631 237.8 101.963 228.9 101.163Z" fill="#FFD645"/>
<path d="M230.5 101.763C229.9 101.763 229.4 101.763 228.8 101.663C224.1 101.263 219.7 98.6632 216.8 96.6632C215.2 95.4632 213.9 94.3632 213.1 93.6632C212.1 92.7632 211.8 92.3632 211.6 92.1632C211.5 92.0632 211.5 91.9632 211.5 91.8632L211.6 91.7632V91.5632C211.8 91.3632 213.7 89.8632 216.4 88.6632C219 87.4632 223.1 86.2632 227.7 86.8632C235 87.8632 241.6 92.8632 244.1 94.9632C244.2 95.0632 244.2 95.0632 244.2 95.0632C244.2 95.0632 244.1 94.9632 244 94.9632C244 94.9632 244 94.9632 244.1 94.9632V95.8632L244.2 95.9632H244.1C242.9 97.5632 237.6 101.763 230.5 101.763ZM213.1 92.0632C214.8 93.7632 221.4 99.8632 228.9 100.563C229.4 100.663 230 100.663 230.5 100.663C236.6 100.663 241.3 97.2632 243.2 95.6632C236.1 89.8632 230.1 88.4632 227.8 88.1632C220.6 87.1632 214.8 90.8632 213.1 92.0632ZM243.9 95.0632H243.8H243.9ZM212.8 91.6632V92.1632C212.8 92.0632 212.8 92.0632 212.8 91.9632C212.8 91.8632 212.8 91.7632 212.8 91.6632Z" fill="black"/>
<path d="M218.4 93.4632C218.4 93.4632 241.3 96.0632 240.1 96.1632C238.9 96.2632 228.1 98.7632 224.8 97.1632C221.5 95.5632 220 92.0632 218.4 93.4632Z" fill="#FFA748"/>
<path d="M240.6 96.3632C234.8 96.3632 224.1 95.6632 217.2 92.8632L217.6 91.7632C226.3 95.2632 241.3 95.3632 243.9 94.9632L244.1 96.1632C243.5 96.2632 242.3 96.3632 240.6 96.3632Z" fill="black"/>
<path d="M181.8 43.0632C184.9 53.9632 194.2 60.5632 194.1 60.5632C194.1 60.5632 197.1 50.3632 194.1 40.0632C191.1 29.7632 183.1 22.2632 183 22.2632C183.1 22.1632 178.7 32.1632 181.8 43.0632Z" fill="#FFD645"/>
<path d="M194.101 61.1632C193.701 61.0632 191.101 58.9632 188.701 56.2632C186.201 53.4632 182.901 48.9632 181.301 43.2632C179.601 37.5632 180.101 32.0632 180.701 28.4632C181.401 24.9632 182.501 21.9632 182.701 21.7632L183.401 21.9632L183.501 21.8632C183.501 21.8632 183.501 21.8632 183.601 21.9632C186.101 24.4632 192.101 31.1632 194.701 39.9632C197.501 49.4632 195.201 58.9632 194.701 60.7632H194.601L194.101 61.1632ZM183.301 23.2632C182.401 25.7632 179.801 33.9632 182.401 42.8632C185.001 51.7632 191.701 57.7632 193.801 59.4632C194.501 56.5632 196.001 48.3632 193.601 40.1632C191.201 32.1632 185.701 25.7632 183.301 23.2632Z" fill="black"/>
<path d="M184.8 29.0633C184.4 24.5633 194.3 59.5633 193.6 58.5633C192.9 57.5633 184.8 43.4633 184.5 39.8633C184.3 36.1633 185.2 33.5633 184.8 29.0633Z" fill="#FFA748"/>
<path d="M184.8 29.0632C186.7 34.6632 194.2 60.5632 194.2 60.5632L184.8 29.0632Z" fill="#FFD645"/>
<path d="M193.6 60.6632C193.5 60.3632 186.1 34.7632 184.2 29.1632L185.3 28.7632C187.2 34.3632 194.6 60.0632 194.7 60.2632L193.6 60.6632Z" fill="black"/>
<path d="M214.2 91.1632C205.3 89.5632 198.2 80.4632 198.2 80.4632C198.2 80.4632 205.4 75.4632 214 77.4632C222.6 79.4632 229.6 87.0632 229.7 87.0632C229.8 86.9632 223 92.7632 214.2 91.1632Z" fill="#FFD645"/>
<path d="M217.401 92.0633C216.301 92.0633 215.201 91.9632 214.101 91.7632C209.401 90.8632 205.201 87.9632 202.501 85.6632C201.001 84.3632 199.801 83.1632 199.001 82.3632C197.601 80.7632 197.601 80.6632 197.601 80.4632L197.801 80.0633C197.901 79.9633 205.301 74.8632 214.101 76.9632C221.401 78.6632 227.601 84.2632 230.001 86.6632L230.101 86.7632L230.301 87.1632L229.701 87.7632C229.801 87.7632 229.901 87.7632 230.001 87.6632C230.001 87.6632 230.001 87.6632 229.901 87.7632C228.101 89.0632 223.401 92.0633 217.401 92.0633ZM199.101 80.5633C200.701 82.3632 206.901 89.1633 214.301 90.5633C220.901 91.7633 226.401 88.6632 228.801 86.9632C222.201 80.4632 216.201 78.5632 213.901 77.9632C206.901 76.3632 200.901 79.5633 199.101 80.5633Z" fill="black"/>
<path d="M206.2 82.8633C212.8 86.7633 229.2 87.2633 228 87.3633C226.8 87.4633 218.3 90.0633 215 88.4633C211.7 86.8633 204.4 83.4633 206.2 82.8633Z" fill="#FFA748"/>
<path d="M206.2 82.863C212.4 86.663 228.2 87.163 229.8 86.963L206.2 82.863Z" fill="#FFD645"/>
<path d="M228.6 87.6631C224.4 87.6631 211.4 86.9631 205.9 83.4631L206.5 82.4631C212.6 86.2631 228.4 86.6631 229.7 86.4631L229.9 87.6631C229.6 87.5631 229.2 87.6631 228.6 87.6631Z" fill="black"/>
<path d="M199.6 79.0631C191.1 76.6631 184.7 67.0631 184.8 67.0631C184.8 67.0631 192.2 62.7631 200.4 65.4631C208.6 68.1631 215 76.3631 215 76.3631C215 76.2631 208 81.4631 199.6 79.0631Z" fill="#FFD645"/>
<path d="M204.2 80.2631C202.7 80.2631 201.1 80.0631 199.4 79.5631C194.9 78.2631 191 74.9631 188.5 72.4631C187.1 71.0631 186 69.6631 185.3 68.8631C184 67.1631 184 67.0631 184.1 66.8631L184.3 66.4631C184.4 66.4631 191.9 61.9631 200.4 64.8631C207.4 67.1631 213 73.2631 215.2 75.8631C215.2 75.9631 215.3 75.9631 215.3 75.9631H215.2L215.4 76.3631L214.8 76.9631C214.9 76.9631 215 76.9631 215.1 76.8631C215.1 76.8631 215 76.8631 215 76.9631C213.4 78.0631 209.3 80.2631 204.2 80.2631ZM199.8 78.4631C206.1 80.2631 211.6 77.6631 214.1 76.2631C211.8 73.6631 206.5 68.1631 200.2 66.0631C193.5 63.8631 187.4 66.3631 185.7 67.2631C187 69.1631 192.6 76.3631 199.8 78.4631Z" fill="black"/>
<path d="M190.5 69.5632C190.5 69.5632 211.6 75.5632 210.4 75.4632C209.2 75.3632 203.6 77.2632 201.1 75.8632C198.6 74.4632 191.9 72.3632 190.5 69.5632Z" fill="#FFA748"/>
<path d="M190.5 69.5632C196.4 73.4632 214.9 76.2632 214.9 76.2632L190.5 69.5632Z" fill="#FFD645"/>
<path d="M214.9 76.9633C214.1 76.8633 196.2 74.0633 190.2 70.1633L190.9 69.1633C196.6 72.9633 214.9 75.7633 215.1 75.7633L214.9 76.9633Z" fill="black"/>
<path d="M186.8 65.5632C179.6 62.7632 174.6 53.8632 174.6 53.8632C174.6 53.8632 181.2 50.5632 188.2 53.6632C195.1 56.6632 200.2 64.4632 200.3 64.3632C200.3 64.3632 194 68.3632 186.8 65.5632Z" fill="#FFD645"/>
<path d="M192 67.1632C190.3 67.1632 188.4 66.8632 186.5 66.1632C182.6 64.6632 179.5 61.4632 177.5 59.0632C176.4 57.6632 175.5 56.4632 175 55.6632C174 54.0632 174 53.9632 174 53.7632L174.2 53.3632C175 52.8632 181.6 50.1632 188.4 53.0632C194 55.4632 198.4 60.8632 200.5 63.7632C200.6 63.8632 200.6 63.8632 200.6 63.9632C200.5 63.8632 200.5 63.8632 200.4 63.7632C200.4 63.7632 200.4 63.7632 200.5 63.7632V64.7632C199.7 65.3632 196.3 67.1632 192 67.1632ZM187 64.9632C192.5 67.0632 197.6 65.0632 199.4 64.1632C197.2 61.2632 193.1 56.3632 188 54.1632C182.4 51.7632 177.1 53.4632 175.5 54.0632C176.6 55.9632 181 62.6632 187 64.9632ZM200.3 63.7632C200.2 63.7632 200.1 63.7632 200 63.8632C200.1 63.7632 200.2 63.7632 200.3 63.7632ZM175.2 53.7632L175.1 54.0632C175.2 54.0632 175.2 53.9632 175.2 53.7632C175.2 53.8632 175.2 53.8632 175.2 53.7632Z" fill="black"/>
<path d="M180.2 56.3633C180.2 56.3633 199.9 64.8633 198.8 64.5633C197.6 64.3633 186.5 64.0633 183.8 61.5633C181.1 59.0633 180.2 56.3633 180.2 56.3633Z" fill="#FFA748"/>
<path d="M180.2 56.363C187.2 61.263 200.2 64.363 200.2 64.363L180.2 56.363Z" fill="#FFD645"/>
<path d="M200.1 64.9631C199.6 64.8631 186.9 61.8631 179.9 56.9631L180.6 55.9631C187.5 60.7631 200.3 63.7631 200.4 63.8631L200.1 64.9631Z" fill="black"/>
<path d="M170.701 41.3633C164.901 33.1633 165.901 19.6633 165.901 19.6633C165.901 19.6633 175.301 20.7633 180.601 29.0633C185.901 37.3633 185.901 49.5633 186.001 49.5633C186.001 49.5633 176.401 49.5633 170.701 41.3633Z" fill="#FFD645"/>
<path d="M185.9 50.1632H185.8C182.8 49.9632 175.2 48.6632 170.3 41.6632C167.2 37.3632 166.1 31.5632 165.6 27.5632C165.3 24.6632 165.2 20.2632 165.5 19.4632V19.3632L165.7 19.2632L166 19.0632C166.3 19.0632 168.8 19.4632 171.7 20.7632C174.5 21.9632 178.4 24.3632 181.2 28.7632C185.7 35.7632 186.5 45.4632 186.6 49.3632C186.6 49.4632 186.6 49.5632 186.6 49.5632H186.5V49.9632L185.7 50.1632C185.8 50.1632 185.8 50.1632 185.9 50.1632ZM166.5 20.3632C166.3 23.2632 166.4 34.1632 171.2 40.9632C175.6 47.1632 182.2 48.5632 185.4 48.8632C185.2 44.8632 184.3 35.8632 180.2 29.3632C175.7 22.5632 168.5 20.7632 166.5 20.3632ZM166.2 20.1632L166.3 20.2632C166.4 20.1632 166.5 20.0632 166.5 20.0632L166.2 20.1632Z" fill="black"/>
<path d="M169.101 24.2632C175.101 32.0632 186.201 47.7632 185.001 47.8632C183.801 47.9632 177.001 44.4632 175.001 38.6632C173.001 32.8632 170.601 26.1632 169.101 24.2632Z" fill="#FFA748"/>
<path d="M185.401 49.9633C185.301 49.7633 174.901 31.4633 168.601 24.6633L169.501 23.8633C172.201 26.7633 175.901 31.9633 180.401 39.2633C183.801 44.6633 186.401 49.3633 186.501 49.3633L185.401 49.9633Z" fill="black"/>
<path d="M174.4 52.7633C165.9 48.5633 160.7 37.1633 160.8 37.1633C160.8 37.1633 169 33.8633 177.1 38.3633C185.2 42.8633 190.7 52.8633 190.7 52.8633C190.7 52.6633 182.8 56.9633 174.4 52.7633Z" fill="#FFD645"/>
<path d="M182.3 55.1633C179.8 55.1633 177 54.6633 174.2 53.2633C169.7 51.0633 166.2 46.8633 164 43.6633C162.8 41.8633 161.8 40.2633 161.3 39.1633C160.2 37.1633 160.3 37.0633 160.3 36.8633H160.4L160.6 36.4633C160.7 36.4633 169.1 32.9633 177.5 37.6633C184 41.2633 188.8 48.2633 191.2 52.0633C191.3 52.1633 191.3 52.2633 191.3 52.2633C191.3 52.1633 191.2 52.1633 191.1 52.0633L191.4 52.5633L190.8 53.1633C190.9 53.1633 190.9 53.1633 191 53.1633H190.9C189.2 54.0633 186.1 55.1633 182.3 55.1633ZM161.6 37.4633C162.7 39.7633 167.5 48.7633 174.7 52.2633C181 55.3633 187.1 53.6633 189.9 52.4633C187.6 48.6633 182.9 42.1633 176.9 38.7633C170.2 35.1633 163.5 36.8633 161.6 37.4633ZM161.4 37.1633L161.3 37.4633C161.3 37.4633 161.4 37.3633 161.4 37.2633V37.1633Z" fill="black"/>
<path d="M166.8 40.0632C166.8 40.0632 188.4 52.3632 187.3 52.1632C186.1 51.8632 178.7 53.2632 172.5 48.0632C166.3 42.8632 167.7 41.8632 166.8 40.0632Z" fill="#FFA748"/>
<path d="M166.8 40.0632C173.3 44.1632 187.7 52.9632 190.8 52.7632L166.8 40.0632Z" fill="#FFD645"/>
<path d="M190.7 53.3632C186.8 53.3632 169.9 42.7632 166.5 40.5632L167.1 39.5632C176.8 45.7632 188.3 52.2632 190.7 52.1632L190.8 53.3632C190.7 53.3632 190.7 53.3632 190.7 53.3632Z" fill="black"/>
<path d="M195.5 58.1631C198.6 66.5631 206.4 71.1631 206.3 71.1631C206.3 71.1631 208.2 62.8631 205.3 54.9631C202.4 47.0631 195.5 41.6631 195.5 41.6631C195.5 41.6631 192.4 49.7631 195.5 58.1631Z" fill="#FFD645"/>
<path d="M206.3 71.7632C205.9 71.7632 203.5 69.9632 201.6 68.2632C199.4 66.2632 196.5 62.8632 194.9 58.3632C193.3 53.9632 193.3 49.5632 193.7 46.7632C194 43.9632 194.8 41.5632 195 41.2632H195.8C196.5 41.8632 203 47.1632 205.8 54.8632C208.5 62.2632 207.2 69.8632 206.9 71.3632H206.8L206.3 71.7632ZM195.8 42.7632C195.2 44.9632 193.7 51.4632 196.1 58.0632C198.5 64.7632 204 68.9632 205.9 70.2632C206.3 67.7632 207 61.4632 204.7 55.2632C202.4 48.9632 197.6 44.3632 195.8 42.7632Z" fill="black"/>
<path d="M197.201 47.4632C197.501 46.6632 205.601 70.0632 205.101 69.0632C204.601 67.9632 198.201 58.8632 198.601 55.1632C198.901 51.5632 196.901 48.2632 197.201 47.4632Z" fill="#FFA748"/>
<path d="M197.2 47.4634C200.4 53.1634 206.3 71.1634 206.3 71.1634L197.2 47.4634Z" fill="#FFD645"/>
<path d="M205.8 71.3633C205.7 71.1633 199.9 53.3633 196.7 47.7633L197.7 47.1633C200.9 52.8633 206.6 70.2633 206.9 70.9633L205.8 71.3633Z" fill="black"/>
<path d="M206.5 68.7632C210.4 77.2632 219.1 81.4632 219 81.3632C219 81.3632 220.4 72.4632 216.7 64.4632C213 56.4632 205.2 51.4632 205.2 51.4632C205.2 51.3632 202.5 60.1632 206.5 68.7632Z" fill="#FFD645"/>
<path d="M219 81.9633C218.6 81.9633 216.1 80.5633 213.8 78.6633C211.3 76.7633 208 73.4633 205.9 68.9633C203.8 64.4633 203.6 59.8633 203.7 56.8633C203.9 53.9633 204.5 51.2633 204.7 50.9633H205.4V50.8633C206.7 51.7633 213.7 56.6633 217.1 64.0633C220.6 71.5633 219.6 79.7633 219.4 81.2633H219.3L219 81.9633ZM205.6 52.3633C205.1 54.6633 203.9 61.6633 207 68.4633C210.1 75.2633 216.4 79.2633 218.5 80.3633C218.7 77.9633 219.1 70.9633 216.2 64.5633C213.3 58.3633 207.7 53.8633 205.6 52.3633Z" fill="black"/>
<path d="M208 58.0632C208 58.0632 219 80.6632 218.2 79.7632C217.4 78.8632 209.9 69.8632 209.1 66.2632C208.3 62.7632 207.5 60.5632 208 58.0632Z" fill="#FFA748"/>
<path d="M208 58.0632C211.5 64.5632 219 81.3632 219 81.3632L208 58.0632Z" fill="#FFD645"/>
<path d="M218.5 81.5632C218.4 81.3632 210.9 64.7632 207.5 58.3632L208.6 57.7632C212 64.1632 219.5 80.8632 219.6 81.0632L218.5 81.5632Z" fill="black"/>
<path d="M220.3 79.8631C224.7 86.9631 233 89.5631 233 89.5631C233 89.5631 233.4 81.3631 229.2 74.6631C225 67.9631 217.4 64.5631 217.4 64.4631C217.3 64.4631 215.8 72.7631 220.3 79.8631Z" fill="#FFD645"/>
<path d="M233.1 90.1631C232.5 90.1631 229.9 88.9631 228 87.8631C225.6 86.4631 222.1 83.8631 219.8 80.1631C217.4 76.3631 216.7 72.2631 216.6 69.5631C216.5 67.9631 216.6 66.6631 216.6 65.8631C216.7 64.1631 216.9 64.1631 217.1 63.9631L217.7 64.0631L217.8 63.9631C217.8 63.9631 217.9 63.9631 217.9 64.0631C220.3 65.2631 226.2 68.6631 229.8 74.3631C233.5 80.2631 233.7 87.4631 233.7 89.4631V89.5631H233.5L233.1 90.1631ZM217.9 65.4631C217.7 67.5631 217.3 73.9631 220.9 79.5631C224.4 85.2631 230.4 87.9631 232.5 88.7631C232.4 86.1631 232 80.1631 228.8 75.0631C225.5 70.0631 220.4 66.8631 217.9 65.4631Z" fill="black"/>
<path d="M221.3 69.7632C229.2 77.5632 232.7 89.4632 232 88.4632C231.3 87.5632 220.2 72.1632 221.3 69.7632Z" fill="#FFA748"/>
<path d="M232.4 89.7633C232.4 89.6633 228.4 77.6633 220.9 70.1633L221.7 69.3633C229.5 77.0633 233.3 88.9633 233.5 89.4633L232.4 89.7633Z" fill="black"/>
<path d="M279.7 121.663L279.2 120.563C280.8 119.863 286.9 115.163 289.1 113.463L289.8 114.363C289.5 114.663 281.8 120.763 279.7 121.663Z" fill="black"/>
<path d="M252.1 110.763C252.1 110.763 266.9 109.263 271.6 108.363L252.1 110.763Z" fill="#FFD645"/>
<path d="M252.1 111.363L252 110.163C252.1 110.163 266.9 108.563 271.5 107.763L271.7 108.963C267.1 109.763 252.7 111.263 252.1 111.363Z" fill="black"/>
<path d="M162.1 138.763C160.7 145.363 162 149.863 165.8 151.463C169.6 153.063 174.5 151.363 168.9 146.963C163.4 142.563 162.1 138.763 162.1 138.763Z" fill="#FFA748"/>
<path d="M138 178.463C141.5 179.163 153.5 185.963 157.2 187.563C161 189.163 162.1 185.163 161.3 182.863C155.7 178.563 138 178.463 138 178.463Z" fill="#FFA748"/>
<path d="M238.1 135.463C235.2 137.463 210 155.763 202.4 156.363C198.1 156.763 194.9 161.063 197.2 161.063C220.4 160.963 238.1 135.463 238.1 135.463Z" fill="#FFA748"/>
<path d="M170 156.763C170.1 156.063 170.3 155.363 170.4 154.563C170.4 154.163 170.5 153.863 170.5 153.463C170.5 153.063 170.5 152.763 170.5 152.363C170.5 151.663 170.5 150.863 170.4 150.163C170.4 149.763 170.3 149.463 170.3 149.063C170.3 148.863 170.2 148.663 170.2 148.563C170.2 148.363 170.1 148.163 170.1 148.063L170 147.463L170.5 147.063C171.5 146.263 172.5 145.563 173.5 144.763C174.5 144.063 175.6 143.363 176.7 142.663C177.8 141.963 178.9 141.363 180 140.763C180.5 140.463 181.1 140.163 181.7 139.863C182.3 139.563 182.8 139.263 183.5 139.063L184.2 140.663C183.7 140.863 183.1 141.163 182.6 141.463C182.1 141.763 181.5 142.063 181 142.363C179.9 142.963 178.9 143.563 177.8 144.263C176.8 144.963 175.7 145.663 174.8 146.363C173.8 147.063 172.8 147.863 171.9 148.663L172.2 147.663C172.3 147.863 172.3 148.063 172.3 148.263C172.3 148.463 172.4 148.663 172.4 148.863C172.5 149.263 172.5 149.663 172.6 150.063C172.7 150.863 172.7 151.663 172.7 152.463C172.7 152.863 172.7 153.263 172.7 153.663C172.7 154.063 172.7 154.463 172.6 154.863C172.5 155.663 172.4 156.463 172.2 157.263L170 156.763Z" fill="black"/>
<path d="M160.4 130.663C160.5 131.363 160.6 131.963 160.8 132.663C160.9 133.363 161.1 133.963 161.3 134.563C161.5 135.163 161.8 135.763 162 136.463C162.1 136.763 162.3 137.063 162.4 137.363C162.5 137.463 162.5 137.663 162.6 137.763L162.7 137.963L162.8 138.163L161.4 137.763C163.2 136.863 165.2 136.563 167.1 136.463C169 136.363 170.9 136.463 172.7 136.663C174.6 136.863 176.4 137.163 178.2 137.663C180 138.063 181.8 138.563 183.6 139.163H183.4C184.4 139.163 185.4 139.063 186.5 138.963C187.5 138.863 188.6 138.763 189.6 138.563C191.6 138.263 193.6 137.863 195.6 137.163C197.5 136.563 199.4 135.763 201.2 134.763C202.9 133.763 204.5 132.463 205.7 130.863L206.6 131.563C205.3 133.263 203.6 134.663 201.8 135.763C200 136.863 198 137.663 196 138.363C194 139.063 191.9 139.463 189.8 139.763C188.8 139.963 187.7 140.063 186.7 140.163C185.6 140.263 184.6 140.363 183.5 140.363H183.4H183.3C181.6 139.863 179.8 139.463 178 139.163C176.2 138.863 174.4 138.563 172.6 138.463C170.8 138.363 169 138.263 167.3 138.463C165.6 138.663 163.9 138.963 162.4 139.763L161.5 140.163L161 139.363C160.9 139.263 160.9 139.163 160.8 139.063L160.7 138.763C160.6 138.563 160.5 138.463 160.4 138.263C160.2 137.963 160.1 137.563 159.9 137.263C159.6 136.563 159.3 135.863 159.1 135.163C158.9 134.463 158.7 133.763 158.5 133.063C158.3 132.363 158.2 131.663 158.1 130.863L160.4 130.663Z" fill="black"/>
<path d="M171 148.663C168.6 148.663 166.3 147.263 164.7 144.663C163.4 142.663 162.6 139.963 162.6 137.963H164.4C164.4 141.063 166.9 146.863 171.1 146.863V148.663H171Z" fill="black"/>
<path d="M177.6 133.263C175.8 131.963 168.1 131.963 166.9 132.163C165.7 132.263 162.1 134.463 165.1 134.863C168.1 135.163 171.2 134.463 173.7 134.463C176.1 134.263 179.4 134.563 177.6 133.263Z" fill="#FFEAB0"/>
<path d="M182.3 144.563C180.9 144.163 176.5 145.463 175.1 148.263C173.8 151.063 174.9 153.263 176.6 152.163C178.3 151.063 179.6 148.863 180.8 147.463C182 146.163 183.8 144.963 182.3 144.563Z" fill="#FFEAB0"/>
<path d="M168.4 170.663C166.2 165.263 150.9 164.563 148.5 173.063C147.7 176.063 150.3 178.163 151.1 176.263C152.6 172.563 159.8 169.063 162.6 171.063C166.5 173.863 168.7 172.163 168.4 170.663Z" fill="#FFEAB0"/>
<path d="M227.482 113.104L218.148 122.437L227.482 131.771L236.816 122.437L227.482 113.104Z" fill="#FFD645"/>
<path d="M227.9 132.263H227.1L217.8 122.963V122.163L227.1 112.863H227.9L237.2 122.163V122.963L227.9 132.263ZM219 122.463L227.5 130.963L236 122.463L227.5 113.963L219 122.463Z" fill="black"/>
<path d="M164.3 185.063C160.7 183.663 154.8 181.563 149.6 180.163C140.6 177.763 138.5 178.463 138 178.763C137.9 178.863 137.8 178.963 137.8 179.063H136C136 178.263 136.3 177.663 137 177.263C141.6 174.163 164.7 183.263 164.9 183.363L164.3 185.063Z" fill="black"/>
<path d="M242.699 137.663L256.699 125.563C258.599 123.963 260.799 122.963 263.299 122.563C268.999 121.763 278.899 120.463 278.899 120.463C279.599 120.663 280.099 121.363 280.099 122.063L278.699 146.863C278.699 147.163 278.599 147.563 278.399 147.863L263.299 168.063C263.099 168.363 262.799 168.563 262.399 168.663L254.799 170.963C254.299 171.063 249.199 171.263 248.799 171.063L247.199 166.663" fill="#0055FF"/>
<path d="M242.1 136.963L249.8 129.963L253.7 126.463L255.6 124.763L255.8 124.563L256.1 124.363C256.3 124.263 256.5 124.063 256.6 123.963C257 123.663 257.4 123.363 257.8 123.163C258.6 122.663 259.5 122.263 260.4 121.963C260.8 121.763 261.3 121.663 261.8 121.563C262 121.463 262.3 121.463 262.5 121.363L262.9 121.263H263.1H263.3L268.5 120.463L278.8 118.863L279.1 118.763L279.5 118.863C280.2 119.063 280.8 119.563 281.2 120.063C281.6 120.663 281.9 121.363 281.9 122.063V122.163V122.263V122.363V122.463V122.763V123.263L281.8 124.363L281.5 128.663L280.9 137.163L280.3 145.663L280.2 146.763V147.363C280.2 147.663 280.1 147.963 279.9 148.263C279.8 148.563 279.5 148.863 279.5 148.963L279.2 149.363L278.5 150.163L275.9 153.563L265.5 167.063L264.2 168.763C264 168.963 263.8 169.163 263.5 169.363C263.4 169.463 263.2 169.463 263.1 169.563C263 169.563 263 169.663 262.9 169.663H262.8H262.7L261.7 169.963L257.6 171.163L255.5 171.763L255.2 171.863H255.1H255H254.9C254.7 171.863 254.5 171.863 254.3 171.963C253.9 171.963 253.6 171.963 253.2 172.063C252.5 172.063 251.8 172.063 251 172.063C250.6 172.063 250.3 172.063 249.9 172.063C249.7 172.063 249.5 172.063 249.3 172.063C249.2 172.063 249.1 172.063 249 172.063C248.9 172.063 248.9 172.063 248.8 172.063H248.7H248.6C248.6 172.063 248.5 172.063 248.5 171.963L248.3 171.863L248.2 171.563L246.6 167.163L248.3 166.563L249.9 170.963L249.6 170.563H249.5H249.6C249.7 170.563 249.7 170.563 249.8 170.563C249.9 170.563 250.1 170.563 250.3 170.563C250.6 170.563 251 170.563 251.3 170.563C252 170.563 252.7 170.563 253.4 170.463C253.7 170.463 254.1 170.463 254.4 170.363C254.6 170.363 254.7 170.363 254.9 170.263H255L255.3 170.163L257.3 169.563L261.4 168.263L262.4 167.963H262.5H262.6L262.7 167.863L263.9 166.163L274 152.363L276.5 148.963L277.1 148.063C277.3 147.763 277.6 147.363 277.5 147.463V147.363V147.163V146.863V145.763L277.9 137.263L278.3 128.763L278.5 124.463L278.6 122.363L279.3 122.463L269 123.663L263.8 124.263H263.6H263.5H263.2C263 124.263 262.8 124.363 262.6 124.363C262.2 124.463 261.8 124.563 261.5 124.663C260.8 124.863 260 125.163 259.4 125.563C259.1 125.763 258.7 125.963 258.4 126.163C258.3 126.263 258.1 126.363 257.9 126.563L257.7 126.763L257.4 126.963L255.4 128.663L251.4 131.963L243.4 138.663L242.1 136.963Z" fill="black"/>
<path d="M248.899 146.563L262.199 127.463H273.799L270.099 145.263L254.199 162.763L252.699 155.663L257.299 151.163L256.699 148.063L248.899 146.563Z" fill="#0029BC"/>
<path d="M140.5 125.963C141.7 127.963 148.8 131.563 152.5 129.863C156.2 128.163 158.4 124.563 155.2 123.963C152 123.363 148.2 124.363 145.4 124.463C142.6 124.563 139.2 123.963 140.5 125.963Z" fill="#FFEAB0"/>
</svg>
