<svg width="1147" height="934" viewBox="0 0 1147 934" fill="none" xmlns="http://www.w3.org/2000/svg">
<g opacity="0.5">
<path d="M303.076 307.166C301.026 289.496 298.976 271.827 296.138 254.315C293.93 240.432 285.731 230.02 270.593 227.18C260.028 226.234 249.305 225.129 238.898 226.865C211.934 231.124 186.547 239.17 163.525 254.631C162.263 256.051 160.371 256.051 158.006 256.997C158.794 256.682 158.479 255.893 159.267 255.577C155.64 253.527 151.856 251.318 149.018 248.794L146.652 249.74C140.66 253.211 134.826 256.682 128.834 260.153C120.95 265.359 111.173 268.672 111.646 280.504C111.962 287.761 109.123 291.863 102.027 294.86C98.8738 296.28 96.0354 300.224 92.4087 302.748C78.6901 316.158 64.4984 328.621 50.7798 342.031C47.4684 345.344 42.8956 347.237 39.8996 351.339L3.63201 398.51C3.63201 398.51 3.63201 398.51 3.15895 399.614C0.635994 404.505 -1.5716 410.027 3.00127 414.444C7.41645 418.073 12.147 414.128 16.5622 411.446C22.5542 407.976 28.0732 403.716 34.0652 400.245C54.8796 390.306 75.3787 379.736 94.1432 365.064C100.135 359.701 108.02 356.23 115.588 352.128C117.008 355.283 117.638 356.861 117.165 357.965C118.742 376.739 120.319 395.67 120.792 413.971C121.58 426.592 121.265 438.897 120.95 451.045L122.369 486.699C121.738 489.697 122.842 492.063 123 494.745C124.419 510.837 123.788 526.928 127.888 542.862C131.199 557.219 132.145 567.947 121.58 579.937C110.542 593.031 103.131 608.334 93.5125 622.69L89.0973 631.998C86.8897 637.677 90.3588 649.983 94.4586 652.98C98.5584 655.82 107.862 653.769 113.065 648.721L114.8 646.197C122.684 636.258 130.884 625.372 138.768 615.433C140.503 612.909 142.079 610.227 144.602 607.387C146.968 625.845 149.806 643.199 150.752 660.553C153.433 701.256 151.383 741.958 157.533 782.188C160.686 806.799 162.736 831.094 165.89 855.705C169.044 873.848 173.301 892.463 176.455 910.606L178.82 922.596C182.131 932.377 188.281 936.164 197.742 932.062C209.096 928.118 214.457 919.283 216.349 908.24C217.295 897.67 217.926 886.153 217.926 875.11C217.611 846.397 217.453 817.684 216.349 789.445C214.772 764.045 212.722 739.907 210.357 714.981C206.257 679.642 197.112 645.408 200.423 609.596C200.581 605.809 199.319 602.654 198.688 599.183C198.058 591.138 196.165 582.618 197.742 575.361C200.423 562.109 206.1 549.488 210.199 537.499C218.241 517.305 233.221 502.475 247.098 487.172C260.659 471.081 271.539 453.411 279.581 435.111C286.204 418.23 290.776 400.561 295.507 383.68C299.291 370.902 301.184 357.965 302.287 345.502C303.234 333.196 303.864 319.787 303.076 307.166ZM249.936 401.507C235.587 424.383 218.399 444.734 202.631 466.506C196.796 474.551 190.173 483.07 184.024 490.328C175.982 450.098 172.197 410.815 173.616 371.217C174.09 363.645 172.197 355.125 171.567 347.08L170.147 324.52C168.571 318.682 171.094 313.949 175.982 310.005C192.381 298.331 209.096 285.552 228.964 277.822C242.683 272.931 254.982 277.822 258.293 292.178C260.816 302.275 261.605 313.003 263.339 323.415C264.285 332.25 266.178 340.769 266.335 349.919C267.754 369.797 260.028 386.047 249.936 401.507Z" fill="black"/>
<path d="M474.637 479.6C470.853 457.986 468.015 436.057 464.545 415.233C463.284 410.184 462.811 404.82 460.446 401.192L436.162 370.744C431.432 366.326 426.228 364.749 420.236 368.22C413.455 372.006 406.36 377.054 400.683 383.207C397.056 385.731 395.952 391.726 395.795 395.512C397.529 412.393 400.052 428.958 401.629 445.996C402.891 457.513 404.941 468.714 405.098 479.915C406.517 509.101 406.675 537.814 412.352 565.896C414.875 575.992 413.455 587.825 413.929 597.764C414.244 611.489 412.352 624.425 413.14 637.046C418.186 687.846 418.344 737.856 408.252 787.709C407.148 793.704 406.202 797.964 399.579 799.857C396.899 793.546 395.006 786.92 392.326 780.768C386.649 767.516 383.495 753.948 383.653 738.961C383.495 721.291 380.657 703.938 378.922 687.057C376.715 673.174 373.561 659.606 370.565 646.039L368.2 634.049C364.888 617.799 360.158 602.181 361.104 585.143C361.577 575.677 358.739 566.684 355.743 557.692C353.22 547.595 348.174 537.814 345.651 527.717C342.34 517.936 338.713 509.417 327.832 505.63C325.625 504.684 322.944 503.106 321.21 501.055C313.483 496.007 306.545 497.111 302.918 506.104C300.238 512.888 298.661 519.987 298.976 527.244C299.134 551.382 301.184 575.519 302.918 599.026C303.076 603.601 304.337 606.756 304.495 611.331C305.126 619.377 306.23 628.212 307.964 636.731C309.068 652.034 311.118 667.81 314.114 683.271C316.637 697.943 319.317 712.614 322.629 726.971C325.783 745.113 328.936 763.256 333.194 781.872C335.717 796.544 341.393 811.847 343.286 826.834C346.597 849.552 358.266 865.959 375.453 879.842C384.599 886.153 392.956 894.672 401.629 901.929C406.833 905.242 411.563 909.817 417.24 910.133C432.062 912.184 446.412 906.82 454.138 894.357C461.392 880.947 467.226 866.433 471.168 851.761C475.11 835.196 476.687 816.895 478.422 799.384C479.841 781.083 480.629 761.205 480.156 742.905C479.841 709.617 479.368 676.329 483.625 642.884C484.729 630.263 487.41 617.168 487.41 604.074C487.094 577.254 485.518 550.119 483.31 523.142C481.418 508.312 477.16 494.272 474.637 479.6Z" fill="black"/>
<path d="M723.464 708.513C711.953 693.683 699.338 679.484 687.827 664.812C686.408 663.235 685.304 660.711 685.462 659.291L682.308 621.27C681.993 617.011 680.416 613.382 680.889 609.438C684.831 593.188 680.101 576.939 678.051 560.374C675.213 541.916 673.793 523.458 676.947 505.473C677.42 503.106 677.263 501.055 676.947 498.847C675.055 469.03 673.478 439.844 672.217 409.711C672.059 406.083 672.69 402.296 672.532 398.668C673.005 386.047 673.32 373.584 673.163 361.278C672.847 345.344 671.428 330.041 671.901 314.423C671.901 297.7 666.855 282.397 659.602 267.252C656.763 260.468 650.298 261.099 644.937 260.468C642.887 260.626 639.891 265.516 638.787 268.198C636.264 274.351 635.318 280.662 634.372 286.814C632.322 302.275 631.061 318.051 627.276 332.881C621.442 356.545 619.55 379.263 621.757 403.085C623.807 419.65 624.911 435.9 618.919 452.465C617.815 455.147 617.973 458.775 618.131 462.246C619.707 476.129 621.6 490.643 621.915 504.999C622.704 516.989 622.861 529.295 623.177 541.6C622.23 541.285 621.127 541.758 620.181 541.443C619.077 540.496 618.446 539.234 617.973 537.972C612.927 522.669 608.039 507.997 603.781 493.009C601.258 485.437 600.785 477.549 597.632 470.134C594.793 461.93 591.324 453.884 587.855 445.839C580.759 429.274 573.348 412.077 566.725 395.197C565.148 391.568 562.626 387.467 561.049 383.838C554.899 371.217 549.538 358.912 543.703 346.764C541.023 340.611 530.615 338.56 525.412 341.558C513.585 348.026 505.701 356.545 506.963 371.375C507.12 375.003 506.963 378.001 506.332 381.787C503.021 402.927 505.386 423.752 507.278 444.892C508.54 464.77 510.905 485.595 510.274 506.261C510.274 517.936 506.805 528.822 508.539 541.285C511.22 557.692 513.901 573.941 510.116 590.822C509.328 594.135 511.22 598.395 511.536 602.654C512.166 605.967 513.585 609.122 514.058 611.804C514.374 627.738 514.374 643.041 515.793 658.344C517.055 673.174 520.681 688.319 522.574 702.833C525.254 727.917 530.773 752.528 538.184 776.35C542.284 792.758 553.164 797.648 567.514 798.753C574.294 799.384 578.552 794.02 580.759 787.236C583.755 775.719 580.286 764.045 578.867 752.371C576.975 737.856 573.663 723.342 572.087 707.882C570.667 696.049 568.933 683.744 568.144 671.596C567.829 667.337 568.618 662.604 568.302 658.344C567.987 647.459 568.775 635.626 565.306 626.003C560.26 609.28 560.891 592.084 561.364 575.992C561.522 567.947 562.783 560.847 563.887 553.117C563.729 551.066 564.202 548.7 564.833 546.806C569.091 551.539 572.402 555.957 574.767 561.478L595.424 609.438C597.316 613.698 599.682 617.799 602.204 621.901C607.408 629.158 612.454 637.204 618.131 643.515C629.799 658.818 634.845 675.698 637.053 694.472C637.841 697.785 637.841 701.413 637.999 705.042C637.211 718.452 640.68 730.126 647.618 741.012C658.025 756.946 684.043 754.579 691.77 738.803L701.861 741.8C705.488 741.643 708.642 742.432 712.111 741.8C722.36 741.8 731.191 733.597 729.772 725.393C728.826 719.398 727.091 713.561 723.464 708.513Z" fill="black"/>
<path d="M1129.98 397.406C1122.72 384.785 1100.65 376.581 1086.3 380.052C1071.95 383.523 1058.23 388.413 1044.51 388.729C1021.49 389.36 999.098 386.836 975.445 385.889C978.283 381.787 980.333 380.052 982.068 377.528C992.159 368.535 1003.36 360.016 1013.13 350.235C1034.89 329.726 1055.23 307.954 1076.05 286.972L1129.19 233.491C1137.7 225.129 1142.43 214.717 1144.8 202.727C1145.43 199.73 1144.8 196.259 1146.06 192.788C1148.11 182.534 1145.59 174.33 1137.07 169.755L1122.25 176.223C1119.41 180.325 1116.42 184.269 1113.26 187.582C1096.39 202.254 1078.73 215.348 1062.64 229.862C1053.81 237.435 1046.09 245.323 1037.26 252.895C1010.14 278.453 980.964 301.328 956.838 329.252C940.912 348.184 928.612 369.324 918.205 390.464C916.471 394.881 913.475 398.983 913.632 403.558C913.79 414.602 915.84 425.803 917.417 436.215C919.467 447.416 927.036 454.358 937.758 455.304C943.75 456.409 949.585 456.724 954.946 456.251C976.391 454.358 998.467 451.518 1019.6 448.836C1041.51 445.839 1062.64 445.208 1084.56 448.678C1086.77 449.625 1088.98 450.414 1093.24 451.518C1088.51 460.037 1084.25 467.452 1079.2 475.182L1048.61 520.776C1044.04 527.402 1039.78 534.816 1035.21 541.443C1027.32 551.381 1018.02 559.901 1011.08 569.524C997.994 586.405 985.221 603.916 972.291 621.428C969.768 619.219 967.403 616.853 965.038 614.802C957.153 607.072 948.008 598.868 939.177 591.453L897.391 559.27C873.896 541.442 850.558 523.615 827.379 506.735C820.125 500.582 811.61 495.849 802.307 489.539L836.997 431.956C855.131 402.77 873.58 374.372 892.03 345.975C892.976 343.766 894.868 341.873 896.129 340.453C898.968 336.352 903.067 332.881 905.906 328.779L913.317 313.476C917.259 305.272 922.305 297.542 924.986 288.865C927.193 283.186 927.982 276.402 922.778 273.089C917.259 268.987 911.74 273.247 907.325 276.086C893.133 284.132 883.672 296.438 873.265 309.374C855.131 332.092 838.101 355.125 819.967 377.843C809.718 390.622 798.207 402.927 787.484 416.81C785.592 403.716 783.542 392.515 783.385 381.472C781.808 341.242 776.604 300.855 765.408 261.888C761.939 249.425 760.047 236.33 757.367 223.552C755.001 205.094 754.213 185.847 749.955 167.231C743.648 137.414 741.598 106.65 741.44 76.2018C741.756 54.5884 734.029 34.7104 724.095 15.7789C719.207 6.62871 713.53 -0.155066 702.492 0.00269588L667.959 14.8323C663.071 20.6695 659.286 26.98 653.294 30.4508C646.199 35.3414 646.199 39.9165 648.879 46.227C651.875 55.2195 655.817 64.5274 658.025 73.8354C661.809 87.0874 663.702 100.182 666.54 112.96C671.901 138.518 671.586 163.76 671.744 189.791C673.005 201.307 672.847 211.72 676.316 222.132C680.889 236.961 685.304 251.633 688.3 267.094C692.873 286.499 694.923 306.061 699.969 324.362C707.065 353.863 711.796 384.311 710.061 414.759C709.903 423.121 711.007 431.956 712.742 440.475L731.033 506.893C735.133 522.827 740.967 538.76 743.49 555.483C750.271 590.664 755.159 625.687 760.047 660.868C763.043 682.797 767.458 704.095 775.185 724.131C779.285 733.597 784.331 738.803 791.269 737.699C800.888 736.279 805.776 730.442 806.88 719.871C807.037 716.085 806.88 713.403 806.249 709.932C805.145 690.054 802.464 668.757 801.361 648.878L797.261 581.041C796.945 571.891 796.788 562.74 796.63 551.539C804.357 556.588 810.191 561.478 817.287 564.949C837.628 575.677 860.492 583.565 879.572 597.606C893.133 607.545 909.059 616.537 921.359 627.896C931.451 636.731 942.016 642.726 953.842 645.881C951.634 648.721 949.427 651.718 947.219 654.558C929.086 677.276 910.006 697.469 896.602 722.711C887.141 741.643 887.299 759.312 893.133 777.139C895.341 784.554 901.648 788.34 908.271 786.447C919.151 783.607 928.139 778.875 935.235 769.251C945.012 753.002 956.207 738.014 968.034 722.553C985.852 699.047 1004.3 677.276 1022.12 653.769C1034.89 637.993 1044.2 620.955 1056.97 605.336C1066.74 593.662 1076.68 581.987 1084.72 568.262C1087.24 563.371 1091.82 558.796 1095.92 553.275C1106.17 540.496 1117.2 529.295 1126.03 515.254C1146.22 484.333 1151.89 450.256 1141.8 413.655C1140.07 407.818 1133.45 403.243 1129.98 397.406Z" fill="black"/>
</g>
</svg>
