<svg width="152" height="129" viewBox="0 0 152 129" fill="none" xmlns="http://www.w3.org/2000/svg">
<path d="M25.5764 16.8021L26.4923 16.9372C27.476 17.123 28.4766 17.3932 29.2399 18.1362C29.5791 18.4739 29.8504 18.8961 30.037 19.3182C30.3253 19.9599 30.5458 20.6691 30.8511 21.3108C30.9698 21.6654 31.1564 22.0201 31.1733 22.324C31.343 23.9451 31.4447 25.5662 31.5295 27.1198C31.5126 28.3187 31.0885 29.3151 30.5289 30.3451C30.2066 30.9024 29.7317 31.3246 29.0702 31.3921C28.4936 31.5272 28.0865 31.3414 27.883 30.7673C27.883 30.6998 27.7982 30.6322 27.7812 30.5478C27.5777 29.2982 27.2894 27.9979 27.0011 26.6976C26.8315 25.752 26.4244 24.8232 26.2548 23.8776C26.0852 22.9995 25.5933 22.5267 24.7623 22.3916C23.9991 22.2565 23.2698 22.324 22.6592 22.9826C22.2691 23.4723 21.862 23.8776 21.3871 24.2997C19.8946 25.6507 19.4028 27.4744 18.7752 29.2644C18.3173 30.5815 17.7067 31.8312 17.2488 33.1483C16.4686 34.9383 15.7563 36.7282 15.1287 38.5689C14.4503 40.5784 13.7549 42.5034 13.297 44.5636C12.6355 47.4512 11.4992 50.1699 10.4476 52.9562C10.3967 53.2602 10.295 53.5641 10.2441 53.8681C9.6844 56.2998 9.19254 58.7314 8.54805 61.18C8.19187 62.6998 7.68306 64.2364 7.30993 65.7731C7.12336 66.7525 7.07248 67.7319 7.0216 68.6269C6.98768 69.0829 7.03856 69.5219 7.15728 69.8765C7.37777 70.5182 7.8357 70.704 8.4802 70.4C9.90488 69.809 11.0921 69.0153 12.008 67.7995C12.1267 67.5631 12.415 67.3773 12.5338 67.1578C13.1274 66.3473 13.7888 65.6211 14.2807 64.6755C14.7725 63.7298 15.5188 62.9868 16.4177 62.2945C17.6558 61.3488 18.6565 60.133 19.4876 58.7821C19.9116 57.9209 20.5052 57.1103 21.1836 56.4517C21.5737 55.962 22.303 55.7425 22.9305 55.371C23.2189 55.2697 23.4902 55.0839 23.8634 54.9826C24.6605 54.7462 25.3559 55.0502 26.0174 55.5736C26.6619 56.0971 26.6958 57.0597 26.3226 57.7013L24.881 60.3019C24.2535 61.4839 23.5581 62.666 22.8627 63.7805C22.5405 64.2533 21.896 64.5573 21.5059 65.0301C21.1667 65.3678 20.9122 65.8407 20.59 66.2459C20.0642 66.972 19.5554 67.7657 19.0466 68.5594C18.7922 68.9647 18.6056 69.2686 18.3343 69.6064C17.9442 70.0961 17.6219 70.6533 17.1301 70.991C15.7223 71.886 14.4164 72.8317 12.9239 73.5071C11.3635 74.267 9.63352 74.8243 8.05619 75.4322C7.76786 75.5335 7.54738 75.5673 7.32689 75.5842L4.81674 75.8544C4.4436 75.8206 3.98567 75.7193 3.59558 75.618C3.0698 75.5166 2.57795 75.1958 1.96737 75.1114C1.57728 75.01 1.32287 74.7399 1.06847 74.3852C0.220441 73.4396 -0.0339665 72.342 0.0508359 71.143C0.20348 69.1166 0.831019 67.1916 1.4416 65.2665C1.79777 64.3377 1.98433 63.2739 2.23874 62.2776L4.20616 55.4554C4.86762 53.2264 5.52908 50.9298 5.95309 48.6502C6.54671 45.7626 7.8357 43.0945 8.64981 40.2575L10.8377 33.3341C10.9564 33.0301 10.9904 32.7261 11.0412 32.4222C11.2617 30.9193 11.9401 29.5852 12.7034 28.3019C13.7888 26.5457 14.6369 24.6881 15.6545 22.9319C16.8417 20.8042 18.5208 18.9974 20.6409 17.7984C21.4211 17.4269 22.32 17.3932 23.185 17.1567C23.4733 17.0554 23.6938 16.9541 23.9821 16.9203L25.5764 16.8021Z" fill="#FF00CF"/>
<path d="M47.5403 13.4586C47.8625 13.6443 48.1169 13.9145 48.3713 14.1847C48.3713 14.1847 48.3035 14.2691 48.3204 14.3367C48.4731 14.3198 48.6936 14.3029 48.8971 14.2016C50.7119 13.7119 52.6454 13.5936 54.5958 13.7625C55.7322 13.8638 56.7837 14.0496 57.8183 14.5393C58.9886 15.0121 59.5992 15.8396 59.5822 17.1061C59.6161 18.8116 59.3278 20.3989 58.836 22.02C58.5646 22.9488 58.2084 23.7931 57.937 24.7894C57.3265 26.8665 55.9357 28.4876 54.7654 30.1762C53.7987 31.6116 52.4079 32.5741 51.102 33.6042C50.0674 34.381 49.1006 35.2253 47.9982 36.0865C48.2696 36.5087 48.5409 36.9309 48.8632 37.1841C49.6094 37.8427 49.9995 38.7039 50.3896 39.5483C50.4914 39.8353 50.5931 40.1224 50.7627 40.2575C52.1705 41.5915 52.6623 43.3984 53.5782 44.952C54.0531 45.9483 54.2397 46.9615 54.5789 48.0422C54.935 49.3425 55.7322 50.457 56.3767 51.639C56.8177 52.2638 56.9703 53.0575 57.2756 53.7836L57.2586 54.3071C57.1229 55.067 56.682 55.1852 56.1053 54.7293C55.6813 54.324 55.3421 53.9187 54.935 53.581C54.511 53.0237 54.0022 52.5678 53.4934 52.0274L53.0185 51.7741C52.3231 51.6221 51.9161 51.2169 51.6277 50.5752C50.5592 48.3124 48.8293 46.7082 47.0145 45.0364C46.4209 44.4285 45.912 43.8206 45.2675 43.2802C44.7587 42.7398 44.1142 42.2839 43.4528 41.6929C42.8422 43.6855 42.2147 45.4586 41.8754 47.2823C41.0783 51.0818 40.7391 54.915 39.6367 58.6638C38.7378 61.5008 37.9236 64.4221 37.0417 67.3266C36.7703 68.2554 36.4142 69.1841 35.5153 69.7921C34.9556 70.1467 34.2941 70.2987 33.7514 70.1298C33.4291 69.944 33.056 69.2348 33.0899 68.8633C33.4122 66.229 33.7344 63.5947 34.1245 60.9435C34.5994 58.3599 35.0743 55.7931 35.7018 53.1926C36.2785 50.8285 37.0756 48.5826 37.5844 46.2353C38.0085 43.9557 38.6699 41.7435 38.5173 39.4469C38.4155 37.8258 38.4664 36.1878 38.8226 34.5836C39.1957 33.1314 39.484 31.696 39.8571 30.3113C40.1964 29.2306 40.6882 28.2849 40.9426 27.2211C41.4854 25.2285 41.9433 23.3203 42.4182 21.3446C42.4182 21.277 42.4012 21.1926 42.4521 20.9731C41.7228 21.125 41.0613 21.1926 40.3999 21.4121C38.4664 22.2058 36.4142 22.5773 34.2771 22.8644C33.7683 22.915 33.2595 23.1177 32.7507 23.3203C32.3097 23.4385 31.8857 23.6411 31.6143 23.1345C31.343 22.7124 31.5974 22.324 31.9366 21.9863C32.2758 21.6485 32.6998 21.4628 33.1238 21.1926C33.7514 20.7535 34.2941 20.2469 34.9216 19.8923C35.6849 19.3688 36.465 18.9129 37.2452 18.5414C38.7378 17.7984 40.2303 17.1061 41.7228 16.363C42.1468 16.1773 42.6556 16.0422 43.0796 15.8564C43.3001 15.7551 43.5715 15.5863 43.6393 15.4343C44.0125 14.6575 44.3856 14.0834 45.3523 13.9989C46.0986 13.8301 46.811 13.6105 47.5403 13.4586ZM44.5382 33.8406C47.1671 31.9324 49.8299 30.1593 52.3062 28.2005C53.4086 27.2717 54.4093 26.1235 54.7654 24.6037L55.1894 22.324C55.3082 21.3446 55.5117 20.4327 55.5626 19.5377C55.5965 18.4907 54.7654 17.6802 53.8835 17.7815C51.8821 17.8491 49.9995 18.4063 48.1339 19.2C47.9134 19.3013 47.642 19.5546 47.5911 19.7741C47.3537 20.3989 47.2689 20.99 47.1841 21.5979C46.9636 22.3578 46.8958 23.1852 46.6753 23.8776C45.4541 27.1198 44.8266 30.4633 44.3008 33.8575L44.5382 33.8406Z" fill="#FF00CF"/>
<path d="M61.4478 9.32141C62.0754 9.55782 62.3468 10.0475 62.2789 10.7905L62.3128 11.0776C63.2965 13.2729 63.534 15.637 64.1615 17.9504C64.6534 19.8248 65.1622 21.7837 65.7389 23.7256C66.112 25.0934 66.6378 26.5288 67.0787 27.9642C67.0787 28.0317 67.1805 28.1837 67.2653 28.3188C67.3331 28.3188 67.3331 28.2343 67.401 28.2343C67.8589 26.8496 68.6221 25.7351 69.4023 24.6037C70.5726 22.9995 71.5054 21.2602 72.54 19.5884C73.5068 18.0686 74.5414 16.6333 75.7625 15.3837C76.2374 14.894 76.6953 14.3198 77.0685 13.6781C77.6282 12.5805 78.5101 11.8206 79.3921 10.9763C79.7991 10.6386 80.291 10.3684 80.8337 10.5204C81.3086 10.7737 81.4443 11.3478 81.4952 11.8713C81.6139 13.0533 81.3425 14.0496 80.6302 15.0122C80.1044 15.6539 79.8839 16.4306 79.5108 17.1399C79.0868 18.0011 78.6458 18.8623 78.137 19.7404C78.0183 20.0444 77.7638 20.3821 77.5603 20.6861C75.7795 22.9489 73.9308 25.2285 73.0319 27.9979C72.4552 29.619 71.4885 31.1388 70.6065 32.5573C70.2334 33.199 69.9959 33.8913 69.8433 34.5668C69.2327 37.3024 69.538 40.1056 69.7585 42.9087C69.8942 44.9689 70.1995 47.0966 70.1147 49.1905C70.0468 52.095 70.1995 54.9826 69.521 57.8027C69.2836 59.1705 69.2836 60.5721 69.131 61.923C69.114 62.4465 68.9953 62.8349 68.5034 63.1051L67.4688 63.2064C66.943 63.105 66.6038 62.7842 66.553 62.2607L66.3664 60.4201C66.1459 58.3599 66.0102 56.2998 65.7897 54.2396C65.8237 53.7837 65.688 53.2771 65.6371 52.838C65.6371 51.352 65.688 49.866 65.6032 48.3124C65.5523 46.4549 64.9078 44.513 65.2979 42.6217C65.3657 42.5372 65.2809 42.4697 65.264 42.3346C65.1622 40.6291 64.9756 38.9404 64.9587 37.2349C64.9078 35.9853 64.4159 34.9214 63.9919 33.7731C63.7036 33.1314 63.4831 32.4222 63.2626 31.7636C62.8047 30.1763 62.4655 28.5045 61.7192 27.0185C61.2613 26.2417 60.8712 25.3299 60.6337 24.4518C59.9214 21.9188 59.4295 19.3689 58.7172 16.8528C58.4119 15.4006 58.4119 13.9821 58.3271 12.513C58.2762 12.0064 58.378 11.618 58.7172 11.2803C59.3278 10.6217 60.0062 10.0306 60.6846 9.37207L61.4478 9.32141Z" fill="#FF00CF"/>
<path d="M90.7895 5.74142C90.9761 6.0285 91.2135 6.29868 91.4679 6.56887C91.4001 6.56887 91.4001 6.6533 91.3322 6.6533C91.5527 6.63641 91.7054 6.68707 91.8411 6.60264C94.1646 5.91029 96.4713 5.8934 98.8288 6.24802C99.7447 6.38311 100.593 6.73773 101.458 7.09235C102.645 7.71715 103.052 8.781 102.882 9.99683C102.662 11.4997 102.374 13.0195 102.085 14.5393C101.831 15.6032 101.424 16.6839 101 17.6971C100.576 18.7103 100.101 19.7235 99.4563 20.686C98.6253 21.9694 97.7942 23.3203 96.7935 24.5361C95.6572 25.8364 94.3003 27.0354 92.7569 27.9979C91.2135 28.9098 89.5853 29.7372 88.3981 31.2063C87.7366 32.0844 86.9395 32.9963 86.3798 34.0264C86.0575 34.5836 85.9897 35.3266 85.837 36.019C85.7862 36.323 85.8201 36.61 85.7014 36.9309C84.5141 39.8016 84.3784 42.858 83.8187 45.8976C83.3778 48.0253 82.9198 50.0855 82.3941 52.2132C81.7496 54.5773 81.0372 56.9583 80.3079 59.3393C80.0366 60.2681 79.6804 61.1968 79.3242 62.0412C78.9002 62.9024 78.2048 63.4934 77.1702 63.5272C76.2883 63.6116 75.8643 63.1388 75.8473 62.2607L75.966 61.2137C76.1696 59.6264 76.3052 57.9884 76.5088 56.4011C76.8819 54.2733 77.3398 52.2301 77.713 50.1024C78.2387 46.6237 79.4599 43.2971 80.291 39.8691C80.6641 38.4169 80.8676 36.914 81.1559 35.3266C80.8846 35.5124 80.6641 35.6813 80.4606 35.8501C79.5617 36.458 78.578 37.1673 77.679 37.7752L77.4755 37.9441C76.9158 38.2311 76.0848 38.1636 75.8134 37.8259C75.559 37.4881 75.5759 36.3567 75.9152 35.9514L76.5257 35.2929C77.696 34.3472 78.6967 33.2834 79.9687 32.4728C81.1559 31.7467 81.3595 30.8348 81.4612 29.5683C81.5291 28.1499 81.987 26.8327 82.2923 25.4649C82.3432 25.2285 82.3262 25.009 82.4449 24.7726L83.2421 21.7836C83.5813 20.7873 83.9205 19.7741 84.1919 18.7103C84.6328 17.1736 84.989 15.5863 85.3282 13.9821C85.3961 13.8976 85.3791 13.7456 85.3452 13.4586C84.6159 13.6106 83.8696 13.6781 83.2421 13.9821C81.3086 14.7082 79.3242 15.0628 77.3398 15.3499C76.7632 15.485 76.1865 15.6876 75.5929 15.8227C75.1519 15.9409 74.6601 16.1435 74.3887 15.7214C74.1173 15.2317 74.4396 14.8264 74.7788 14.4887C74.8466 14.4042 74.8466 14.4042 74.8466 14.4042L79.0868 11.4322C79.426 11.1789 79.8839 11.1282 80.2231 10.9425C81.7156 10.1995 83.2082 9.50712 84.7007 8.76412C85.0569 8.64591 85.413 8.39261 85.7014 8.35884C86.3628 8.29129 86.719 8.03799 86.8716 7.41319C87.143 6.41689 88.0419 6.4 88.8391 6.16359C89.4157 6.0285 90.0093 5.8934 90.586 5.75831L90.7895 5.74142ZM87.4653 26.5963C88.1606 26.1573 88.9239 25.6338 89.6192 25.1103C91.4849 23.7256 93.4523 22.476 95.2332 20.9562C96.4713 19.943 97.5398 18.7778 97.9638 17.1061C98.1843 16.3462 98.2521 15.5863 98.3878 14.8264C98.5235 13.9145 98.727 13.0026 98.7779 12.1077C98.8627 10.8412 97.9638 10.115 96.7087 10.1657C94.86 10.2839 93.1301 10.9087 91.4679 11.4491C90.9591 11.6517 90.6369 11.9894 90.6029 12.5129L90.1281 14.4211C89.9754 15.1135 89.9076 15.8565 89.6701 16.4813C88.5168 19.7235 87.8384 23.067 87.4653 26.5963Z" fill="#FF00CF"/>
<path d="M127.475 10.3683C127.322 11.0607 126.898 11.314 126.169 11.3984C125.864 11.3477 125.575 11.4659 125.287 11.5673C123.642 12.1921 121.98 12.7324 120.403 13.4079C119.334 13.8132 118.333 14.3704 117.35 14.9108C117.129 15.0121 117.027 15.3161 117.027 15.4681C116.858 17.3425 116.756 19.2169 116.502 21.0237C116.298 22.6786 116.315 24.2322 116.264 25.8871C116.213 27.6095 116.044 29.3995 115.84 31.1388C115.603 33.0976 115.196 34.9889 114.89 36.9646C114.534 39.3119 114.195 41.6422 113.754 43.9219C113.381 46.1171 112.94 48.2448 112.567 50.3725C112.16 52.8717 111.821 55.3541 111.43 57.9208C111.295 58.6807 111.21 59.4237 110.989 60.1161C110.888 60.5045 110.616 60.8929 110.277 61.0786C109.65 61.4501 109.005 61.0617 108.852 60.2681C108.768 59.39 108.666 58.4274 108.717 57.5324C108.819 55.7425 109.005 53.9356 109.192 52.1287C109.446 48.9034 109.785 45.7456 109.972 42.5372C110.108 40.2237 110.006 37.9272 110.057 35.6137C110.057 34.9382 110.141 34.2628 110.294 33.6549C110.905 31.6623 111.142 29.7034 111.227 27.677C111.227 25.6 111.464 23.4892 111.532 21.3952C111.583 21.0913 111.532 20.7198 111.498 20.4327C111.498 19.6897 111.498 18.9467 111.787 18.2543C111.973 17.9335 112.024 17.6295 112.126 17.1736C111.617 17.3087 111.244 17.3425 110.888 17.5282L107.716 18.5245C107.36 18.7103 107.004 18.8285 106.648 18.9298L102.136 20.0781C101.627 20.2132 101.186 20.3314 100.677 20.382C99.9312 20.4665 99.4394 19.9937 99.4394 19.2506L99.5581 19.0142C100.864 17.9842 102.102 16.8865 103.764 16.4137C104.12 16.2955 104.409 16.1266 104.68 15.8733C106.139 14.9108 107.784 14.134 109.429 13.5261C110.498 13.1208 111.498 12.5636 112.482 12.0907C112.702 11.9894 112.821 11.753 112.804 11.5335C112.821 10.9425 112.753 10.2839 112.686 9.69286C112.652 9.32136 112.77 9.08494 113.194 8.81476C114.025 8.20684 114.924 8.2575 115.806 8.08864C116.688 8.00421 117.01 8.18996 117.333 9.05117C117.35 9.20315 117.451 9.40579 117.468 9.55777L125.135 6.51819C125.202 6.51819 125.202 6.43376 125.202 6.43376L125.864 6.36621C126.271 6.61951 126.661 6.80526 126.78 7.24431L127.272 9.72663C127.356 9.79418 127.441 9.92927 127.458 10.0813L127.475 10.3683Z" fill="#FF00CF"/>
<path d="M138.55 0C139.076 0.0168865 139.534 0.118206 139.941 0.455937C140.263 0.726121 140.45 0.996306 140.263 1.31715C140.094 1.78997 139.754 2.11082 139.5 2.58364C139.313 2.90449 139.059 3.29288 138.856 3.61372L136.583 6.9066C135.684 8.34195 134.717 9.70976 133.818 11.1282C133.632 11.4491 133.598 11.8206 133.479 12.209C132.852 14.8095 132.088 17.41 131.613 20.0612C131.274 21.885 130.884 23.7763 130.324 25.5493C130.155 26.0053 130.036 26.3937 130.019 26.8496C129.85 28.7916 129.765 30.8179 129.68 32.8274C129.646 33.1989 129.612 33.5704 129.493 33.9588C129.086 35.715 128.883 37.4375 129.239 39.2612C129.375 39.9198 129.612 40.629 129.68 41.3045C129.934 43.0607 130.053 44.8338 130.24 46.59C130.274 47.7045 130.884 48.3799 131.613 49.0554C131.698 49.123 131.851 49.1061 131.987 49.0892C132.36 49.123 132.885 49.0723 133.259 49.1736C134.327 49.4269 135.345 49.8491 136.481 50.0179C137.007 50.1193 137.685 50.0348 138.262 49.8997C139.432 49.6296 140.484 49.0723 141.281 48.0929C141.417 47.924 141.62 47.7551 141.841 47.6707C143.265 46.9953 143.655 45.695 144.029 44.3272C144.385 42.723 144.656 41.1356 145.029 39.6158C145.301 37.8765 145.555 36.1372 145.894 34.3979C146.03 33.638 146.25 32.7937 146.386 31.9662C146.505 30.9193 146.674 29.7879 146.708 28.6565C146.776 27.238 146.861 25.8871 146.861 24.4855C146.946 23.219 146.742 21.9018 146.318 20.686C145.674 18.896 145.046 17.1061 144.334 15.2486C143.825 14.0327 143.265 12.8338 142.689 11.6348C142.299 10.7061 141.824 9.7942 141.434 8.86544C141.145 8.30818 141.162 7.7847 141.552 7.21055C141.875 6.73773 142.4 6.82216 142.926 6.83905C143.52 6.7715 143.859 7.10923 144.113 7.5314C144.198 7.66649 144.368 7.80158 144.537 7.93668C145.877 8.61214 146.607 9.87863 147.115 11.162C147.879 12.7831 148.37 14.5224 148.981 16.1773C149.303 17.1061 149.778 18.0348 150.185 19.0311C151.084 21.2433 151.338 23.5905 151.593 25.9546C151.627 26.2417 151.661 26.5456 151.746 26.7483C152.203 28.3356 151.915 29.8554 151.644 31.3752C151.355 32.895 151.22 34.4654 151.016 35.9683C150.898 36.9478 150.779 37.9947 150.507 38.9235C150.1 40.7472 149.609 42.5034 149.134 44.2765C149.032 44.8 148.879 45.3404 148.625 45.8976C148.099 47.2823 147.505 48.6839 146.895 50.0855C146.318 51.6391 145.148 52.6522 143.825 53.5303C142.79 54.3071 141.671 55.0164 140.535 55.6581C139.415 56.2997 138.092 56.5868 136.82 56.5699C135.921 56.5193 135.09 56.5193 134.259 56.3842C133.513 56.3166 132.818 56.1646 132.122 55.8607C131.427 55.5567 130.85 55.1008 130.206 54.6449C129.307 53.9187 128.408 53.1926 127.441 52.5509C126.373 51.6897 125.949 50.4063 125.592 49.1736C124.88 46.7251 124.914 44.1921 125.016 41.6591C125.05 39.8691 124.999 38.0116 125.118 36.2216C125.168 33.8406 125.219 31.5272 125.491 29.1968C125.932 25.6507 126.61 22.172 127.068 18.6934C127.339 16.2786 128.204 13.9652 129.018 11.7193C129.239 10.9594 129.595 10.1657 129.968 9.38892C130.341 8.61214 130.85 7.81847 131.139 6.95726C131.953 4.62691 133.564 2.97203 135.514 1.58734C136.345 1.04697 137.346 0.574143 138.262 0.0337731L138.55 0Z" fill="#FF00CF"/>
<path d="M25.5594 103.802C25.5934 102.012 26.6958 100.492 26.5771 98.6344C26.5092 98.0434 26.8993 97.4186 27.2046 96.8613C27.6456 96.0676 28.0018 95.2908 28.2222 94.4465C28.5614 92.7748 28.9176 91.1705 29.3586 89.6508C29.4604 89.1273 29.7826 88.6376 30.1049 88.2323C30.7663 87.4217 31.1903 86.4085 31.4447 85.4122C32.2928 82.2038 33.0221 79.0798 33.887 75.9389C34.1584 75.0101 34.6672 74.0814 35.0912 73.1357C35.3796 72.3589 35.7527 71.6497 36.041 70.8729C36.4142 70.0961 37.1774 69.5727 38.0763 69.6233C38.9074 69.6909 39.484 70.2988 39.6536 71.0924C39.7723 71.5315 39.9589 71.8861 39.9928 72.2407C40.0776 73.0513 40.0946 73.8618 40.0946 74.6893L40.349 77.1209C40.5186 78.742 40.6882 80.2787 40.773 81.8323C40.9596 83.6729 41.0105 85.5304 41.2818 87.3542C41.3836 88.3843 41.4854 89.3468 41.1461 90.3431L41.0274 91.3225C40.9935 93.7879 40.9426 96.2365 41.3666 98.7188C41.638 100.543 41.9772 102.366 42.2486 104.207C42.4691 105.592 42.6217 107.061 42.8592 108.53C42.927 109.121 43.1305 109.763 43.351 110.337C44.0973 112.481 44.8435 114.558 45.5898 116.72L47.5402 122.394C47.659 122.748 47.9643 122.951 48.1508 123.289C48.2526 123.576 48.3713 123.93 48.3204 124.167C48.2696 124.319 47.8286 124.437 47.5402 124.538C47.1671 124.572 46.7092 124.471 46.2852 124.589C45.488 124.741 44.9283 124.505 44.3686 124.049C43.1984 122.9 42.5369 121.566 42.079 120.047C41.8415 119.185 41.6719 118.307 41.3497 117.446C40.7391 115.876 40.4168 114.204 39.7893 112.633C39.077 110.843 38.7208 108.885 38.2289 106.993C37.9915 106.2 37.7032 105.49 37.4657 104.697C37.2622 104.123 37.1265 103.548 37.0587 102.957C36.923 101.64 36.7873 100.306 36.7873 98.9721C36.7873 97.5536 36.4142 96.1183 36.1937 94.7167C36.075 93.6191 35.8884 92.5215 35.7697 91.4238L35.5831 89.7352C35.5322 89.8872 35.3796 89.9716 35.3287 90.1405L34.9725 91.0692C34.4807 92.8254 33.7683 94.4634 33.039 96.1014C32.8525 96.4898 32.598 96.8106 32.4793 97.1315C32.2419 97.6719 32.0044 98.2967 31.767 98.9215L31.4108 99.8502C31.0716 100.931 30.7494 101.995 30.7833 103.109C30.7324 103.261 30.7324 103.413 30.6815 103.565C30.4949 104.545 30.2914 105.541 30.1557 106.436C29.9692 107.415 29.596 108.277 29.2568 109.205C29.0194 109.83 28.9515 110.506 28.7989 111.181C28.6123 112.161 28.4088 113.072 28.0526 114.001C27.7134 114.997 27.5269 116.061 27.9339 117.142C28.5954 119.152 29.2399 121.093 29.9861 123.103C30.1049 123.458 30.2745 123.745 30.5458 124.082C30.8172 124.572 30.8681 125.096 30.6985 125.552C30.478 126.311 29.9183 126.598 29.1381 126.379C27.917 126.058 26.8654 125.433 26.2887 124.082L25.9835 124.775C25.4746 126.311 23.9821 126.396 22.8627 125.687C22.303 125.366 22.0317 124.809 21.7433 124.251C21.1327 122.681 21.5737 121.229 22.0825 119.759C22.3709 118.915 22.4217 117.936 22.5405 117.041C22.6762 116.213 22.8288 115.453 22.8966 114.693C22.9475 114.457 22.9136 114.17 22.8966 113.95C22.4896 112.211 22.0147 110.472 21.5398 108.817C21.4041 108.158 20.9631 107.618 20.8275 106.959C20.607 105.642 20.4034 104.325 20.2678 103.076C20.0812 101.319 19.9794 99.6138 19.8777 97.9083C19.8437 97.5368 19.725 97.1821 19.6233 96.8951C19.2671 95.5948 19.1314 94.3452 19.1484 93.0787C19.1823 92.7072 19.1484 92.3357 18.9448 91.9135C18.894 92.0655 18.8261 92.15 18.7583 92.3019L18.4021 93.2307C17.9103 94.9869 17.1979 96.6249 16.4686 98.2629C16.3668 98.6513 16.0955 98.9046 15.9089 99.293C15.6545 99.6982 15.4001 100.087 15.2983 100.543C14.9082 101.843 14.5351 103.228 14.2298 104.528C14.1789 104.764 14.0602 105.001 14.162 105.271C14.3146 105.997 14.2298 106.672 14.0093 107.449C13.6023 108.53 13.4327 109.746 12.7882 110.776C12.5168 111.097 12.5677 111.536 12.4659 111.992L12.008 114.795C11.9571 114.947 11.9571 115.099 11.9062 115.251C11.2109 116.365 11.2617 117.615 11.0752 118.763C10.8886 119.743 10.6172 120.739 10.4307 121.803C10.1932 123.019 10.0236 124.302 9.78617 125.585C9.73529 125.822 9.68441 126.041 9.56568 126.278C9.31128 126.683 9.14167 127.139 8.8703 127.544C8.68374 127.933 8.32757 128.118 7.93748 127.933C7.07249 127.51 6.1227 127.088 5.73261 126.159C5.54604 125.805 5.49516 125.366 5.46124 124.994L5.51212 123.356C5.57997 122.529 5.69869 121.634 5.83437 120.79L6.17358 117.564C6.27535 117.041 6.42799 116.5 6.51279 115.892C6.64848 115.065 6.69936 114.17 6.83504 113.258C6.91985 112.65 7.15729 112.042 7.2421 111.434C7.34386 110.978 7.37778 110.523 7.47954 110.151C7.61523 109.391 7.76787 108.631 8.07316 108.006C8.7007 106.824 8.93815 105.609 9.2604 104.393C9.43 103.852 9.66745 103.312 9.75225 102.704C9.92185 102.248 10.0067 101.64 9.95578 101.117C9.93882 100.306 10.1763 99.6138 10.6172 98.9721C11.143 98.246 11.4313 97.4692 11.567 96.6418C11.9232 95.0375 12.3472 93.4333 12.7712 91.7616C12.8221 91.4576 13.0087 91.1368 13.1952 90.8328C14.2637 89.6001 14.7726 88.1478 15.1287 86.5436C15.8071 83.7911 16.4856 81.0555 17.3336 78.3537C17.588 77.2898 18.012 76.3442 18.436 75.4154C18.8092 74.6386 19.1653 73.8449 19.4537 73.0851C19.8098 72.2238 20.59 71.7848 21.5568 71.8186C22.303 71.8186 22.8966 72.494 23.1341 73.2877C23.185 73.7267 23.3885 74.2333 23.4224 74.6724C23.5072 75.4154 23.5072 76.1584 23.5751 76.817C23.592 77.6275 23.6768 78.4381 23.7616 79.2486C23.9312 80.8697 24.1008 82.4909 24.1856 84.0275C24.3722 85.8682 24.4231 87.6413 24.6097 89.4819C24.7114 90.512 24.9828 91.5252 24.5588 92.5383C24.457 92.9267 24.4231 93.3658 24.457 93.7373C24.4061 96.0507 24.3552 98.3642 24.7284 100.627C24.8301 101.59 24.9997 102.535 25.1863 103.481C25.2033 103.633 25.2881 103.7 25.305 103.835L25.5594 103.802Z" fill="#FF00CF"/>
<path d="M58.8699 74.9595C57.9879 75.0439 57.106 75.2128 56.2919 75.2296L55.4778 75.3141C55.0198 75.2128 54.6976 75.027 54.5788 74.5204C54.3075 73.4397 54.3584 72.3927 55.0707 71.4133C55.3421 71.0924 55.4438 70.704 55.5456 70.3157C55.6982 69.6233 55.8509 69.6233 56.3936 69.7753C56.5463 69.8259 56.6311 69.8259 56.7668 69.8091L60.2097 69.218C60.5829 69.1843 60.6337 69.0323 60.7525 68.7114C60.9899 67.4281 61.7531 66.9046 63.11 66.9721C63.4153 67.0228 63.7714 66.9046 64.0767 66.8708C65.0435 66.7695 65.4505 67.1072 65.6201 68.0529C65.6371 68.2048 65.6541 68.4244 65.688 68.6439L67.5367 68.4581C70.0468 68.1204 72.4722 67.7996 74.9823 67.5294C75.7964 67.4449 76.6445 67.6476 77.5264 67.6307C77.9843 67.6645 78.4762 67.4618 78.9172 67.4112C79.3581 67.293 79.7822 67.1748 80.2231 67.1241C80.7998 66.989 81.2916 67.3099 81.3425 67.9009C81.4612 68.3399 81.4952 68.6945 81.4612 69.0829C81.4782 69.2349 81.4273 69.4544 81.2916 69.5389C80.6132 70.1299 79.9178 70.7209 78.968 70.8222C76.9667 71.0249 74.9993 71.3795 73.1506 72.3252C72.5909 72.6122 71.9125 72.5953 71.251 72.6798C69.7076 72.9162 68.0794 73.085 66.536 73.3215C66.0272 73.3721 65.5014 73.4228 64.9926 73.6254C64.7721 73.7267 64.5007 73.98 64.4499 74.1996C63.6866 76.9521 63.0082 79.7046 62.3298 82.4571C61.7362 85.2771 61.0578 88.0972 60.4641 90.9003C60.4133 91.1368 60.4302 91.2718 60.3793 91.5758L64.8908 91.103C65.3318 91.0523 65.7728 90.9341 66.2137 90.8835C66.8074 90.8159 67.3671 91.1368 67.7741 91.542C68.1133 91.8798 68.0964 92.4708 67.7741 92.9605C67.1466 94.075 66.1459 94.5478 64.9926 94.8856C63.975 95.2064 62.9743 95.6117 62.0584 96.017C61.1934 96.2534 60.3963 96.4898 59.5313 96.7938C59.3787 96.8106 59.1073 97.0639 59.0564 97.2159C58.5985 98.6006 58.1406 99.9178 57.8353 101.286C57.072 103.971 56.4615 106.706 55.783 109.459C55.376 111.282 55.0537 113.106 54.6297 114.862C54.6467 115.014 54.5788 115.166 54.528 115.318C55.783 115.183 56.8855 115.065 58.0727 114.947L62.4316 114.491C63.3983 114.39 64.2803 114.373 65.247 114.339C65.6201 114.305 66.0611 114.322 66.4342 114.221C67.2992 113.984 68.2151 114.035 69.131 114.238C69.7415 114.322 70.403 114.322 71.0814 114.339C72.116 114.305 73.1676 114.947 73.4898 115.943C73.6085 116.298 73.5068 116.754 73.3032 117.074C72.6757 118.189 71.6072 118.746 70.2843 118.949L66.4851 119.793C66.1968 119.827 65.9763 119.928 65.7558 119.945C64.3481 120.013 62.9234 119.945 61.5157 120.165C59.9723 120.401 58.395 120.942 56.8516 121.313C55.7661 121.583 54.7485 121.904 53.663 122.174C53.3747 122.276 53.3068 122.36 53.1881 122.664L52.8489 123.745C52.1026 125.163 51.068 125.197 49.8638 124.505C49.2193 124.133 48.507 123.677 48.2695 122.816C47.8964 122.85 47.5402 122.968 47.1671 123.002C46.0647 123.187 44.9283 122.343 44.8944 121.313C44.8774 120.418 45.0131 119.591 45.2167 118.746C45.3184 118.29 45.7255 117.953 46.2343 117.817C46.5226 117.784 46.8109 117.615 47.0145 117.362C47.625 116.703 48.3374 116.399 49.1684 116.619C49.4229 115.555 49.6094 114.491 49.8129 113.511C50.0504 112.296 50.3048 111.08 50.6271 109.864C50.9323 108.496 51.2207 107.044 51.6108 105.676C51.8652 104.612 52.2044 103.531 52.4588 102.468C52.8319 101.083 53.0694 99.7996 53.4425 98.4317C54.3414 94.9193 55.3081 91.3901 56.2749 87.8101L56.6989 85.4629C56.9703 83.7236 57.3773 81.9674 57.937 80.2787C58.3441 79.1135 58.4289 77.847 58.5985 76.7157C58.7851 76.1584 58.802 75.6349 58.8699 74.9595Z" fill="#FF00CF"/>
<path d="M99.0153 66.229C99.5072 66.6174 99.4733 67.0734 99.3037 67.6137L98.7949 69.0829C98.2012 70.552 97.2006 71.6327 95.8607 72.3589C95.0805 72.8148 94.3173 73.3383 93.6219 73.7773C93.1301 74.0475 92.723 74.3852 92.2311 74.6723C90.5351 75.6011 88.839 76.4454 87.2108 77.3573C86.8547 77.543 86.5833 77.7963 86.3119 77.9652C84.4802 79.0459 82.7502 80.2786 80.9185 81.2749C79.6634 82.0686 78.2218 82.5921 76.9497 83.3182C76.39 83.6728 75.9151 84.1625 75.5929 84.6523C75.1858 85.0744 75.3724 85.4122 75.9151 85.6654L77.0685 85.9863C77.9334 86.3409 78.7136 86.7124 79.5108 87.1515C81.0203 88.0296 82.6654 88.6881 84.4632 88.7895C85.7353 88.8739 86.9564 89.0428 88.2454 89.2116C88.7034 89.2454 89.0935 89.4143 89.4157 89.6169C90.6877 90.3093 91.7393 91.1536 91.9767 92.6903C91.9937 92.9098 92.0955 93.1293 92.2651 93.3319C92.723 94.1087 92.8078 94.9193 92.5873 95.7467C92.1633 97.3509 91.8071 98.9552 91.2135 100.492C90.7047 101.961 89.6192 103.109 88.4659 104.19C87.3126 105.355 86.0066 106.385 84.5311 107.196C83.3947 107.753 82.5976 108.732 81.7326 109.644C81.3255 110.067 80.8506 110.472 80.3588 110.759C78.8663 111.502 77.6451 112.6 76.424 113.765C74.5244 115.521 72.6926 117.277 70.5217 118.696C68.8426 119.692 67.2314 120.823 65.654 122.107C64.6195 122.883 63.7545 123.863 62.8047 124.792C62.2619 125.298 61.6853 125.568 60.939 125.433C60.3284 125.349 60.074 125.079 60.0062 124.42C59.8366 122.799 60.2097 121.431 61.2782 120.131C62.9404 118.172 64.9417 116.703 66.96 115.234C68.0794 114.44 69.097 113.596 70.1316 112.751C70.6913 112.329 71.2341 111.823 71.8616 111.451C73.4728 110.472 74.8297 109.205 76.1187 107.888C76.6614 107.382 77.2889 106.875 77.9843 106.503C79.392 105.608 80.698 104.578 81.9022 103.346C83.1064 101.961 84.6159 100.83 85.9897 99.58L87.991 97.3678C88.3811 96.8106 88.1097 95.7129 87.567 95.409C85.7353 94.3451 83.8357 93.3488 81.7156 93.0449C80.0365 92.7071 78.2218 92.437 76.5936 91.9472C75.4403 91.6264 74.3039 91.5251 73.2184 91.1029C72.2856 90.8327 71.3189 90.7145 70.7083 89.8871C70.2843 89.3298 69.9959 88.7726 69.9959 88.0971C70.0129 87.5061 69.8602 86.8475 70.0299 86.3071C70.1655 85.5472 70.3182 84.7874 70.7761 84.2132C71.675 82.8623 72.7435 81.6296 73.812 80.3968C74.3548 79.8227 74.9823 79.4512 75.5929 78.9446C76.7632 78.0834 77.9334 77.1377 79.2055 76.4116C80.257 75.7024 81.3934 75.2971 82.5297 74.723L85.4978 73.0681C87.4822 72.038 89.3818 70.9573 91.3831 70.0792C93.4693 69.2686 95.3688 68.2554 97.2854 67.3098C97.7942 67.1071 98.1843 66.6174 98.5913 66.2797L99.0153 66.229Z" fill="#FF00CF"/>
<path d="M115.704 64.4897C116.196 64.8781 116.162 65.3341 115.993 65.8744L115.484 67.3436C114.89 68.8127 113.89 69.8934 112.55 70.6196C111.77 71.0755 111.006 71.599 110.311 72.038C109.819 72.3082 109.412 72.6459 108.92 72.933C107.224 73.8618 105.528 74.7061 103.9 75.618C103.544 75.8037 103.272 76.057 103.001 76.2259C101.169 77.3066 99.4394 78.5393 97.6076 79.5357C96.3526 80.3293 94.9109 80.8528 93.6389 81.5789C93.0792 81.9335 92.6043 82.4233 92.282 82.913C91.875 83.3351 92.0616 83.6729 92.6043 83.9262L93.7576 84.247C94.6226 84.6016 95.4028 84.9731 96.1999 85.4122C97.7094 86.2903 99.3546 86.9488 101.152 87.0502C102.424 87.1346 103.646 87.3035 104.935 87.4723C105.393 87.5061 105.783 87.675 106.105 87.8776C107.377 88.57 108.428 89.4143 108.666 90.951C108.683 91.1705 108.785 91.39 108.954 91.5926C109.412 92.3694 109.497 93.1631 109.276 94.0074C108.852 95.6116 108.496 97.2159 107.903 98.7525C107.394 100.222 106.308 101.37 105.155 102.451C104.002 103.616 102.696 104.646 101.22 105.456C100.084 106.014 99.2867 106.993 98.4217 107.905C98.0147 108.327 97.5398 108.732 97.0479 109.02C95.5554 109.763 94.3343 110.86 93.1131 112.025C91.2135 113.782 89.3818 115.538 87.2109 116.956C85.5318 117.953 83.9205 119.084 82.3432 120.367C81.3086 121.144 80.4436 122.124 79.4938 123.052C78.9511 123.559 78.3744 123.846 77.6282 123.694C77.0176 123.61 76.7632 123.339 76.6953 122.681C76.5257 121.06 76.8989 119.692 77.9674 118.392C79.6295 116.433 81.6309 114.964 83.6492 113.494C84.7685 112.701 85.7862 111.856 86.8208 111.012C87.3805 110.59 87.9232 110.083 88.5507 109.712C90.162 108.732 91.5188 107.466 92.8078 106.149C93.3506 105.642 93.9781 105.136 94.6735 104.764C96.0812 103.869 97.3872 102.839 98.5913 101.606C99.7955 100.222 101.305 99.0903 102.679 97.8407L104.68 95.6285C105.07 95.0713 104.799 93.9736 104.256 93.6697C102.424 92.589 100.525 91.6095 98.4048 91.3056C96.7257 90.9678 94.9109 90.6977 93.2827 90.208C92.1294 89.8871 90.993 89.7858 89.9076 89.3636C88.9747 89.0934 88.008 88.9752 87.3974 88.1478C86.9734 87.5905 86.6851 87.0333 86.6851 86.3578C86.702 85.7668 86.5494 85.1082 86.719 84.5678C86.8547 83.8079 87.0073 83.0481 87.4653 82.4739C88.3642 81.123 89.4327 79.8903 90.5012 78.6576C91.0439 78.0834 91.6715 77.7119 92.282 77.2053C93.4523 76.3441 94.6226 75.3985 95.8946 74.6723C96.9462 73.9631 98.0825 73.5578 99.2189 72.9837L102.187 71.3288C104.171 70.2987 106.071 69.218 108.072 68.3399C110.158 67.5293 112.058 66.5161 113.975 65.5705C114.483 65.3678 114.873 64.8781 115.28 64.5404L115.704 64.4897Z" fill="#FF00CF"/>
</svg>
