<svg width="404" height="351" viewBox="0 0 404 351" fill="none" xmlns="http://www.w3.org/2000/svg">
<path d="M404 115.8V333C404 342.9 395.9 351 386 351H80L0 271L240 31H319.2L404 115.8Z" fill="#282828"/>
<path d="M339.107 349.779C331.11 262.756 319.728 293.279 301.657 269.94L290.316 251.045L285.767 239.479C278.477 226.065 276.254 210.617 279.349 195.978C280.263 191.68 281.634 187.444 283.462 183.374C283.607 183.042 283.773 182.709 283.919 182.377C286.806 176.148 290.067 169.586 293.079 163.565C298.437 152.871 303.049 143.922 303.464 141.887C305.25 133 287.408 69.6478 272.1 67.0107C240.279 61.5497 190.554 50.6484 167.623 64.6643C152.107 74.1329 142.096 98.697 135.927 125.961C135.075 129.76 134.286 133.602 133.58 137.464C128.823 163.149 147.226 175.795 147.621 180.633C148.285 188.856 134.265 208.873 134.265 208.873C134.265 208.873 133.393 210.264 133.227 211.676C133.144 212.361 133.227 213.067 133.663 213.607C134.556 214.707 138.544 217.718 141.099 219.628C142.49 220.667 145.336 222.764 145.98 224.57C146.25 225.318 146.063 226.792 145.689 228.432C145.315 230.094 144.796 231.962 144.422 233.457C144.277 234.039 144.152 234.579 144.069 235.015C143.986 235.409 145.357 235.7 147.496 235.887L147.288 237.569C147.081 239.147 147.662 240.746 148.825 241.825L152.564 245.335C152.564 245.335 153.354 246.913 154.621 249.259C158.006 255.488 164.757 267.013 168.849 267.552C169.139 267.594 169.43 267.573 169.679 267.49C169.846 267.449 170.282 267.303 170.946 267.075C175.641 265.455 191.759 259.579 204.969 253.017C205.031 253.017 205.094 253.017 205.156 253.017C224.14 253.246 235.585 281.921 238.825 291.577C238.576 292.345 238.535 293.093 238.721 293.799C241.214 303.163 218.823 332.898 209.912 350.091L339.107 349.779Z" fill="#0055FF"/>
<path d="M279.37 196.082C276.275 210.721 278.497 226.19 285.788 239.583L290.337 251.149L303.028 272.308C287.616 282.254 258.246 287.549 239.448 293.695C237.434 287.092 225.719 253.35 205.114 253.101C205.052 253.101 204.99 253.101 204.927 253.101C191.717 259.683 175.599 265.539 170.905 267.158C170.24 267.387 169.804 267.532 169.638 267.573C169.368 267.657 169.098 267.677 168.807 267.636C164.736 267.117 157.964 255.592 154.579 249.342C153.312 247.017 152.522 245.418 152.522 245.418L148.784 241.909C147.621 240.808 147.039 239.23 147.247 237.652L147.454 235.97C145.315 235.783 143.944 235.493 144.027 235.098C144.11 234.662 144.235 234.122 144.38 233.541C144.754 232.046 145.294 230.198 145.647 228.516C146 226.855 146.208 225.401 145.938 224.654C145.294 222.847 142.449 220.75 141.057 219.712C138.502 217.822 134.514 214.791 133.621 213.69C133.185 213.15 133.102 212.444 133.185 211.759C133.351 210.347 134.223 208.956 134.223 208.956C134.223 208.956 148.244 188.939 147.579 180.716C147.184 175.878 128.802 163.212 133.538 137.547C134.244 133.685 135.033 129.823 135.885 126.044C142.054 98.7803 152.066 74.2161 167.581 64.7476C190.512 50.7317 240.238 61.6329 272.058 67.094C287.367 69.731 305.209 133.083 303.422 141.97C303.007 144.005 298.417 152.934 293.037 163.648C290.025 169.67 286.764 176.252 283.877 182.461C283.711 182.793 283.565 183.125 283.42 183.457C281.655 187.569 280.284 191.784 279.37 196.082Z" fill="#0055FF"/>
<path d="M302.758 141.949C302.343 143.984 297.732 152.913 292.373 163.627C289.361 169.649 286.1 176.231 283.213 182.439C283.047 182.772 282.902 183.104 282.756 183.436C280.928 187.527 273.929 159.786 269.608 154.428C262.484 145.562 243.375 152.788 239.657 154.532C225.096 161.343 217.017 177.394 217.017 177.394L205.323 163.502L206.756 158.519L219.405 166.742L207.691 154.636C211.242 141.098 206.839 140.786 207.171 130.923L242.295 113.024L204.513 121.787C202.207 118.88 198.759 115.994 195.145 113.44C188.685 108.872 181.706 105.383 179.795 104.739C176.451 103.597 161.019 102.954 151.672 115.848C146.541 122.368 137.153 125.441 135.18 126.023C141.349 98.7593 151.36 74.1951 166.876 64.7266C189.807 50.7107 239.574 61.4043 271.353 67.0729C289.05 70.2084 304.545 133.062 302.758 141.949Z" fill="#0029BC"/>
<path d="M146.25 216.057C151.671 219.255 144.713 223.179 140.683 219.629C138.294 217.532 134.12 214.708 133.247 213.607C132.811 213.067 132.728 212.361 132.811 211.676L141.244 213.462C141.265 213.462 140.828 212.86 146.25 216.057Z" fill="#062784"/>
<path d="M221.212 244.815L205.696 253.267C205.696 253.267 216.975 252.374 227.526 269.836C232.283 265.351 232.283 249.986 232.283 249.986L229.957 212.382C230.559 222.162 221.212 244.815 221.212 244.815Z" fill="#0029BC"/>
<path d="M246.013 349.842C246.636 347.474 247.28 345.128 247.924 342.761C248.568 340.394 249.211 338.047 249.897 335.68C250.229 334.497 250.582 333.313 250.956 332.15C251.143 331.569 251.33 330.967 251.538 330.385C251.745 329.804 251.932 329.223 252.161 328.641C252.389 328.06 252.597 327.478 252.846 326.918L253.22 326.066L253.615 325.236C254.155 324.115 254.757 323.035 255.443 321.997L256.066 322.287C255.9 322.889 255.692 323.45 255.505 324.031L254.923 325.755C254.736 326.336 254.549 326.897 254.363 327.478C254.176 328.06 253.989 328.641 253.802 329.202C253.054 331.507 252.431 333.853 251.787 336.22C251.143 338.587 250.52 340.954 249.835 343.301C249.17 345.668 248.464 348.014 247.695 350.34L246.013 349.842Z" fill="black"/>
<path d="M230.413 212.423C230.33 213.669 230.226 214.915 230.101 216.161C229.977 217.407 229.831 218.653 229.686 219.878C229.541 221.124 229.354 222.349 229.167 223.595C228.98 224.84 228.793 226.066 228.564 227.291C228.107 229.762 227.609 232.212 226.986 234.662C226.342 237.112 225.636 239.542 224.576 241.95C224.306 242.552 224.015 243.155 223.662 243.757C223.309 244.359 222.915 244.961 222.375 245.542C222.105 245.833 221.793 246.124 221.398 246.373L221.315 246.415L221.253 246.456L221.149 246.518L220.921 246.643C220.775 246.726 220.63 246.809 220.484 246.892C219.924 247.204 219.342 247.494 218.781 247.785C216.538 248.927 214.274 249.986 212.031 251.066C209.787 252.125 207.503 253.184 205.322 254.263C204.2 254.803 203.079 255.364 201.936 255.904C200.794 256.423 199.672 256.963 198.53 257.482C197.387 258.001 196.245 258.499 195.103 258.998L193.379 259.745L191.655 260.472C190.512 260.97 189.349 261.427 188.186 261.905C187.023 262.382 185.86 262.818 184.696 263.275C182.37 264.168 180.044 265.061 177.697 265.933C175.35 266.805 173.002 267.636 170.614 268.425L170.157 268.57L169.679 268.715L169.617 268.736L169.534 268.757C169.471 268.778 169.409 268.798 169.326 268.798C169.201 268.819 169.056 268.84 168.931 268.861C168.661 268.882 168.412 268.861 168.184 268.84C167.706 268.778 167.29 268.632 166.937 268.445C166.563 268.279 166.252 268.072 165.94 267.885C165.338 267.47 164.819 267.013 164.341 266.556C163.863 266.099 163.406 265.601 162.991 265.123C162.139 264.147 161.371 263.109 160.644 262.092C159.917 261.053 159.211 259.994 158.546 258.935C157.196 256.797 155.95 254.637 154.766 252.436C153.561 250.235 152.439 248.013 151.359 245.75L151.546 245.999L149.282 243.881L148.161 242.822L147.87 242.552L147.807 242.49L147.724 242.407L147.558 242.241C147.35 242.013 147.164 241.784 146.997 241.535C146.312 240.538 145.938 239.313 145.959 238.109C145.959 237.818 146 237.486 146.042 237.237L146.146 236.468L146.333 234.932L148.077 235.16L147.891 236.697C147.828 237.195 147.745 237.756 147.724 238.15C147.704 239.002 147.953 239.853 148.451 240.559C148.576 240.746 148.701 240.891 148.846 241.057L148.95 241.161L149.012 241.223L149.074 241.286L149.365 241.556L150.487 242.615L152.751 244.733L152.876 244.836L152.938 244.982C154.101 247.162 155.326 249.301 156.573 251.44C157.84 253.557 159.128 255.655 160.498 257.69C161.869 259.724 163.323 261.718 164.902 263.483C165.691 264.355 166.543 265.185 167.415 265.746C167.83 266.016 168.287 266.224 168.578 266.244C168.641 266.244 168.703 266.244 168.744 266.244C168.765 266.244 168.786 266.244 168.807 266.224H168.827C168.827 266.224 168.827 266.224 168.848 266.224L168.89 266.203L169.305 266.058L169.741 265.912C170.905 265.497 172.068 265.061 173.231 264.625L176.7 263.317C179.005 262.424 181.311 261.51 183.616 260.597C188.207 258.728 192.776 256.817 197.263 254.762C198.384 254.263 199.506 253.724 200.628 253.204L203.951 251.585C206.236 250.484 208.479 249.446 210.722 248.387C212.965 247.328 215.209 246.269 217.41 245.169C217.95 244.899 218.49 244.608 219.01 244.317C219.134 244.255 219.259 244.172 219.384 244.11L219.571 244.006L219.654 243.944L219.695 243.923L219.716 243.902C219.841 243.819 220.007 243.694 220.152 243.528C220.464 243.196 220.775 242.76 221.045 242.303C221.336 241.826 221.585 241.307 221.835 240.787C222.333 239.728 222.769 238.607 223.164 237.465C223.579 236.323 223.932 235.16 224.286 233.997C224.971 231.651 225.615 229.263 226.196 226.855C227.36 222.058 228.398 217.199 229.416 212.34L230.413 212.423Z" fill="black"/>
<path d="M145.731 216.763C145.669 216.721 139.251 212.091 133.04 213.524L132.646 211.8C139.666 210.16 146.5 215.122 146.79 215.33L145.731 216.763Z" fill="black"/>
<path d="M208.417 350.983L209.082 349.696C211.928 344.193 216.082 337.549 220.464 330.489C229.354 316.224 239.428 300.048 237.829 294.027C237.808 293.923 235.606 284.974 230.351 275.588C227.277 270.106 223.788 265.538 219.987 262.029C215.251 257.669 209.996 254.928 204.367 253.869L204.699 252.124C210.661 253.246 216.206 256.153 221.191 260.742C225.138 264.396 228.752 269.11 231.909 274.758C237.268 284.351 239.511 293.487 239.532 293.57C241.318 300.298 231.473 316.12 221.96 331.403C217.93 337.881 214.109 344.007 211.325 349.198L338.131 348.886C332.585 289.334 325.523 286.157 315.802 281.797C311.357 279.803 306.31 277.54 300.64 270.065L300.619 270.023C287.513 250.941 279.744 233.312 277.543 217.635C275.798 205.322 277.356 193.984 282.278 183C282.424 182.668 282.59 182.315 282.735 181.983C286.412 174.071 290.587 165.745 294.284 158.415C298.355 150.317 301.886 143.319 302.197 141.7C302.883 138.336 300.39 125.919 296.402 112.817C291.584 96.9735 285.747 83.3937 280.409 75.607C277.21 70.9351 274.219 68.3188 271.561 67.8619C268.383 67.3221 265.059 66.7199 261.549 66.097C230.538 60.5529 188.062 52.9739 167.707 65.4118C157.259 71.7864 142.927 89.4984 134.058 137.63C130.672 156.006 139.334 167.51 144.526 174.383C146.624 177.165 147.995 178.993 148.12 180.55C148.784 188.918 135.387 208.249 134.619 209.35C134.203 210.035 133.206 212.112 133.954 213.046C134.556 213.794 137.215 215.932 141.224 218.902L141.245 218.922C142.782 220.064 145.669 222.203 146.396 224.238C146.915 225.65 146.25 228.412 145.253 232.17C145.025 233.063 144.796 233.935 144.63 234.62C145.004 234.724 145.731 234.849 147.164 234.994L146.998 236.759C144.111 236.51 143.342 236.177 142.969 235.679C142.782 235.43 142.719 235.139 142.761 234.828C142.927 233.997 143.218 232.897 143.529 231.713C144.111 229.512 145.087 225.837 144.713 224.84C144.153 223.304 141.369 221.227 140.165 220.334L140.144 220.314C135.844 217.116 133.269 215.039 132.542 214.147C130.859 212.07 132.853 208.769 133.082 208.395L133.102 208.353C133.248 208.146 146.915 188.503 146.292 180.695C146.209 179.657 144.734 177.705 143.052 175.442C140.435 171.974 136.862 167.219 134.37 160.969C131.441 153.556 130.714 145.604 132.251 137.298C137.215 110.387 147.227 75.7939 166.71 63.896C176.015 58.2065 190.305 56.0263 210.391 57.2306C227.547 58.2481 245.742 61.5081 261.778 64.3735C265.288 64.9965 268.611 65.5986 271.789 66.1385C274.946 66.6784 278.311 69.5231 281.801 74.6103C294.055 92.4677 305.375 134.557 303.88 142.053C303.527 143.818 300.723 149.424 295.8 159.204C292.103 166.534 287.928 174.84 284.272 182.73C284.127 183.062 283.961 183.395 283.815 183.727C279.038 194.4 277.522 205.405 279.225 217.386C281.406 232.793 289.07 250.173 302.011 269.006C307.39 276.107 312.209 278.267 316.467 280.177C326.811 284.828 334.268 288.171 339.938 349.675L340.021 350.63L208.417 350.983Z" fill="black"/>
<path d="M164.445 190.724L163.261 197.784L165.671 205.882L161.704 197.722L162.867 190.849L160.042 185.596L161.039 185.886L164.445 190.724Z" fill="black"/>
<path d="M156.241 164.208L160.748 147.431L153.665 142.53L152.253 131.089L152.689 143.486L158.567 148.365L154.205 165.226L157.383 170.23L156.241 164.208Z" fill="black"/>
<path d="M157.965 173.324L163.614 174.57L176.534 179.117C176.534 179.117 162.285 186.8 159.149 185.451L157.965 173.324Z" fill="white"/>
<path d="M157.051 184.869C158.338 184.973 159.605 184.911 160.893 184.703C162.16 184.495 163.427 184.142 164.653 183.706C167.145 182.813 169.555 181.588 172.151 180.592C173.439 180.093 174.789 179.657 176.181 179.346C177.572 179.034 178.985 178.868 180.418 178.868C181.851 178.868 183.263 179.014 184.655 179.304C186.047 179.595 187.397 180.01 188.705 180.509L188.082 182.149C186.836 181.692 185.59 181.318 184.302 181.048C183.014 180.799 181.726 180.675 180.439 180.675C179.151 180.695 177.863 180.862 176.596 181.152C175.329 181.443 174.083 181.858 172.836 182.336C170.365 183.312 167.935 184.558 165.297 185.534C163.988 186.011 162.617 186.406 161.205 186.655C159.792 186.904 158.338 186.966 156.905 186.883L157.051 184.869Z" fill="black"/>
<path d="M158.608 186.925C157.757 183.644 156.864 176.563 157.071 173.262L158.837 173.366C158.65 176.418 159.502 183.333 160.312 186.468L158.608 186.925Z" fill="black"/>
<path d="M156.781 166.617L156.449 167.365C156.345 167.614 156.241 167.863 156.158 168.133C155.992 168.652 155.805 169.151 155.68 169.67C155.555 170.189 155.452 170.708 155.389 171.227C155.368 171.476 155.348 171.746 155.348 171.995C155.348 172.12 155.348 172.244 155.348 172.369L155.368 172.535V172.618V172.66V172.681L154.579 171.975C156.594 172.203 158.526 172.597 160.437 173.034C162.347 173.47 164.258 173.989 166.149 174.508C168.039 175.048 169.908 175.608 171.777 176.21C173.647 176.813 175.495 177.415 177.365 178.058L177.323 178.038L188.477 180.841L188.269 181.734L177.074 179.097H177.053H177.032C175.184 178.515 173.314 177.955 171.445 177.415C169.576 176.875 167.686 176.377 165.816 175.899C163.926 175.421 162.036 174.985 160.146 174.591C158.256 174.217 156.345 173.885 154.455 173.739L153.79 173.677L153.665 173.034C153.645 172.888 153.624 172.826 153.624 172.743C153.624 172.66 153.603 172.577 153.603 172.494C153.603 172.328 153.582 172.161 153.603 172.016C153.603 171.705 153.624 171.393 153.665 171.082C153.728 170.459 153.852 169.877 153.998 169.296C154.143 168.715 154.33 168.133 154.517 167.572C154.621 167.303 154.725 167.012 154.828 166.742L155.182 165.932L156.781 166.617Z" fill="black"/>
<path d="M151.609 244.442C157.03 245.646 179.733 235.928 195.851 227.104C183.305 232.128 148.016 235.97 148.016 235.97C148.016 235.97 145.793 240.538 151.609 244.442Z" fill="#0029BC"/>
<path d="M148.036 236.8C147.621 236.8 147.268 236.78 146.998 236.759C144.11 236.51 143.342 236.177 142.968 235.679C142.781 235.43 142.719 235.139 142.76 234.828C142.927 233.997 143.217 232.897 143.529 231.713C144.11 229.512 145.087 225.837 144.713 224.84L146.374 224.238C146.894 225.65 146.229 228.411 145.232 232.17C145.004 233.063 144.775 233.935 144.609 234.62C144.983 234.724 145.71 234.848 147.143 234.994C149.802 235.243 161.89 234.101 174.789 231.755C181.477 230.55 187.168 229.201 191.239 227.892C197.574 225.857 198.551 224.362 198.696 223.823C198.862 223.117 197.678 222.182 195.497 221.289L196.162 219.649C197.367 220.147 201.043 221.642 200.399 224.217C199.942 226.107 197.201 227.809 191.779 229.554C187.646 230.882 181.872 232.232 175.1 233.457C164.133 235.492 152.398 236.8 148.036 236.8Z" fill="black"/>
<path d="M228.19 171.621L241.961 159.702C243.789 158.124 246.012 157.107 248.4 156.775C253.967 155.965 263.771 154.698 263.771 154.698C264.477 154.906 264.955 155.57 264.934 156.318L263.584 180.716C263.563 181.048 263.459 181.38 263.252 181.65L248.442 201.439C248.234 201.729 247.943 201.916 247.59 202.02L240.134 204.242C239.656 204.387 234.65 204.574 234.256 204.304L232.677 199.944" fill="#0055FF"/>
<path d="M227.609 170.957L235.211 164.125L239.013 160.699L240.903 158.997L241.131 158.789L241.401 158.56C241.567 158.415 241.754 158.27 241.941 158.124C242.315 157.834 242.71 157.564 243.104 157.315C243.914 156.816 244.745 156.401 245.638 156.09C246.075 155.923 246.532 155.778 246.989 155.674C247.217 155.612 247.445 155.57 247.674 155.508L248.027 155.446L248.193 155.425L248.359 155.404L253.427 154.615L263.543 153.016L263.875 152.954L264.228 153.058C264.914 153.266 265.516 153.702 265.931 154.262C266.347 154.844 266.575 155.529 266.575 156.256V156.318V156.38V156.443V156.567L266.555 156.837L266.513 157.356L266.451 158.394L266.181 162.568L265.62 170.936L265.059 179.304L264.997 180.342L264.955 180.944C264.914 181.256 264.831 181.567 264.706 181.858C264.581 182.149 264.332 182.46 264.27 182.543L263.958 182.959L263.314 183.789L260.76 187.111L250.561 200.401L249.253 202.103C249.066 202.332 248.858 202.519 248.609 202.664C248.484 202.747 248.359 202.809 248.235 202.872C248.172 202.892 248.11 202.934 248.027 202.955L247.923 202.996L247.861 203.017L246.843 203.308L242.814 204.45L240.799 205.031L240.55 205.093L240.404 205.135L240.321 205.156H240.28H240.259L240.155 205.176C239.926 205.197 239.76 205.218 239.573 205.239C239.199 205.259 238.846 205.28 238.493 205.301C237.787 205.322 237.081 205.342 236.354 205.342C236.001 205.342 235.648 205.342 235.274 205.322C235.087 205.322 234.9 205.301 234.713 205.28C234.609 205.28 234.505 205.259 234.401 205.239C234.339 205.239 234.277 205.218 234.214 205.197C234.173 205.176 234.111 205.176 234.069 205.156C234.048 205.156 234.048 205.156 234.028 205.135L233.944 205.093C233.903 205.073 233.841 205.052 233.799 205.01L233.778 204.989L233.55 204.844L233.446 204.553L231.867 200.193L233.529 199.591L235.108 203.951L234.775 203.515H234.755C234.734 203.494 234.692 203.474 234.671 203.474C234.651 203.474 234.651 203.453 234.63 203.453C234.609 203.453 234.63 203.453 234.609 203.453H234.588H234.651C234.713 203.453 234.775 203.474 234.858 203.474C235.004 203.494 235.17 203.494 235.336 203.494C235.668 203.494 236.001 203.494 236.354 203.494C237.039 203.474 237.725 203.453 238.41 203.411C238.743 203.391 239.096 203.37 239.428 203.328C239.594 203.308 239.76 203.287 239.885 203.266H239.906H239.885L239.989 203.225L240.238 203.141L242.232 202.519L246.241 201.273L247.238 200.961L247.3 200.94H247.321L247.362 200.92C247.383 200.899 247.425 200.899 247.445 200.878C247.487 200.837 247.549 200.795 247.57 200.754L248.775 199.092L258.662 185.554L261.133 182.169L261.757 181.318C261.943 181.069 262.255 180.654 262.193 180.695C262.193 180.674 262.213 180.633 262.213 180.612V180.446L262.234 180.176L262.276 179.138L262.629 170.77L262.982 162.402L263.169 158.207L263.252 156.173C263.252 156.193 263.252 156.193 263.252 156.214L263.273 156.235L263.979 156.297L253.843 157.46L248.775 158.041L248.609 158.062L248.463 158.083L248.172 158.124C247.986 158.166 247.799 158.187 247.612 158.228C247.238 158.311 246.864 158.415 246.511 158.519C245.784 158.747 245.078 159.059 244.413 159.433C244.081 159.619 243.748 159.827 243.437 160.056C243.291 160.159 243.125 160.284 242.98 160.408L242.751 160.595L242.502 160.803L240.529 162.443L236.603 165.703L228.731 172.244L227.609 170.957Z" fill="black"/>
<path d="M234.215 180.363L247.3 161.696H258.683L255.069 179.179L239.428 196.268L237.974 189.333L242.544 184.931L241.9 181.816L234.215 180.363Z" fill="#0029BC"/>
<path d="M317.214 295.792C316.487 293.57 315.428 292.262 314.098 291.556C308.677 288.628 304.315 284.06 301.304 278.662L296.069 269.318C295.093 267.573 294.242 265.788 293.535 263.919C292.538 261.282 281.53 234.766 267.676 253.557C253.822 272.349 231.036 268.715 235.336 275.505C239.656 282.295 239.656 282.295 240.715 288.462C242.356 294.671 239.822 301.419 236.561 310.41C236.166 311.095 235.772 311.864 235.336 312.673C229.624 323.637 213.152 348.492 213.152 348.492L244.163 348.18C244.163 348.18 247.549 342.761 246.759 339.044C245.762 334.289 231.306 344.983 228.834 341.141C226.363 337.3 232.116 331.673 245.638 332.088C251.578 332.275 254.403 318.363 249.377 320.834C244.35 323.305 232.947 326.648 231.908 323.492C231.908 323.492 239.967 316.224 241.774 309.081C241.92 308.5 242.045 307.96 242.128 307.462C243.415 302.935 246.282 300.921 250.664 301.398C256.397 302.001 274.198 306.216 284.147 307.773C297.066 309.808 300.161 311.801 300.203 316.619C300.66 359.476 250.831 329.929 250.104 348.305H311.544H332.294C330.071 332.296 308.366 351.856 308.324 319.92C308.324 315.29 306.849 307.296 312.457 302.997C315.365 300.776 318.523 299.779 317.214 295.792ZM281.571 299.011C270.563 297.121 254.071 294.193 250.664 293.03C250.291 292.906 250.02 292.532 249.792 292.034C248.67 289.542 249.979 286.614 252.555 285.68C256.646 284.185 261.278 282.233 265.91 280.094C267.364 279.43 269.088 279.534 270.438 280.385L285.144 289.584C285.185 289.604 285.227 289.625 285.248 289.646C289.942 292.677 287.076 299.966 281.571 299.011ZM297.004 290.29C293.182 287.569 288.073 282.441 283.731 277.914C281.551 275.671 282.091 271.975 284.812 270.439C285.622 269.982 286.369 269.546 287.096 269.131C289.568 267.656 292.767 268.632 294.055 271.207L301.553 286.344C302.924 289.106 299.829 292.034 297.191 290.414C297.129 290.373 297.066 290.331 297.004 290.29Z" fill="#0029BC"/>
<path d="M233.924 197.494C237.559 195.314 241.63 193.569 243.374 197.411C246.947 198.096 248.256 203.744 246.345 206.651C241.713 209.433 238.618 208.457 234.671 207.482C231.244 205.156 232.179 201.398 233.924 197.494Z" fill="#FFD645"/>
<path d="M240.362 209.059C238.555 209.059 236.852 208.623 235.024 208.166L234.505 208.042L234.318 207.959C230.434 205.322 231.659 201.065 233.383 197.265L233.612 196.995C236 195.563 239.012 194.026 241.359 194.753C242.398 195.064 243.187 195.791 243.769 196.912C245.243 197.307 246.427 198.449 247.154 200.151C248.13 202.456 247.985 205.197 246.822 206.962L246.635 207.149C244.267 208.582 242.252 209.059 240.362 209.059ZM234.899 206.921L235.315 207.024C238.908 207.938 241.775 208.665 245.908 206.215C246.78 204.761 246.863 202.477 246.074 200.608C245.721 199.757 244.89 198.303 243.249 197.992L242.834 197.66C242.398 196.705 241.816 196.123 241.027 195.874C239.157 195.293 236.374 196.725 234.38 197.909C232.324 202.581 232.469 205.218 234.899 206.921Z" fill="black"/>
<path d="M159.98 28.0777C159.813 43.381 170.22 54.1992 179.192 62.1519C191.593 66.1802 202.456 44.5022 198.883 41.3668C180.543 39.5188 178.237 34.8053 166.917 12.5252C162.534 3.90799 160.146 13.1689 159.98 28.0777Z" fill="#FFD645"/>
<path d="M182.287 63.5223C181.186 63.5223 180.065 63.3562 178.922 62.9824L178.611 62.7956C168.869 54.1784 158.92 43.2979 159.107 28.0569H160H159.107C159.169 22.6581 159.523 18.0485 160.125 14.7262C160.852 10.7394 161.89 8.72528 163.407 8.37229C165.318 7.91547 166.772 10.2826 167.706 12.1099L167.852 12.4006C173.418 23.3434 176.762 29.9464 180.937 33.9955C184.863 37.8161 189.599 39.498 198.966 40.4532L199.465 40.6608C200.441 41.5121 200.711 43.1733 200.212 45.4781C199.797 47.4715 198.842 49.8179 197.533 52.1227C194.355 57.7498 188.705 63.5223 182.287 63.5223ZM179.649 61.3628C186.338 63.3977 192.631 57.2307 196.017 51.2714C197.242 49.1326 198.115 46.9524 198.489 45.1459C198.821 43.5678 198.696 42.6334 198.447 42.1974C188.851 41.2007 183.907 39.3734 179.712 35.2828C175.329 31.0262 171.923 24.3193 166.273 13.2104L166.128 12.9197C164.923 10.5525 164.092 10.0334 163.822 10.0957C163.054 10.2826 161.039 13.8541 160.873 28.0776C160.706 42.5504 170.24 53.0156 179.649 61.3628Z" fill="black"/>
<path d="M163.033 13.0649C164.944 21.2253 167.021 36.4663 172.255 42.4049C182.516 54.0537 193.296 44.3568 191.822 48.3643C189.703 54.0745 188.561 62.7332 180.128 58.788C171.695 54.8428 165.401 46.6824 162.452 36.1341C158.464 21.4953 163.033 13.0649 163.033 13.0649Z" fill="#FFA748"/>
<path d="M88.9434 176.376C88.9434 204.45 109.548 210.492 109.07 208.54C108.073 204.512 101.593 185.243 112.892 177.809C117.669 174.653 111.584 167.448 111.584 167.448L101.011 164.229L88.9434 176.376Z" fill="#FFD645"/>
<path d="M108.488 209.765C107.242 209.765 105.56 209.039 104.75 208.665C102.402 207.564 97.9159 204.824 94.0941 199.01C90.0853 192.926 88.0498 185.305 88.0498 176.376L88.2991 175.753L100.367 163.627L101.239 163.399L111.812 166.617L112.227 166.887C112.393 167.074 116.07 171.476 115.53 175.234C115.322 176.626 114.595 177.747 113.369 178.557C109.215 181.298 107.138 186.115 107.2 192.905C107.242 198.573 108.758 204.076 109.568 207.025C109.714 207.544 109.838 208 109.921 208.353C110.025 208.769 109.88 209.205 109.548 209.475C109.298 209.682 108.924 209.765 108.488 209.765ZM89.8361 176.75C89.8776 183.81 91.477 196.393 101.177 204.284C104.251 206.775 106.827 207.731 108.011 207.959C107.969 207.814 107.927 207.668 107.886 207.502C107.055 204.471 105.518 198.823 105.456 192.926C105.393 185.513 107.741 180.176 112.435 177.082C113.245 176.543 113.702 175.857 113.826 174.985C113.993 173.802 113.577 172.244 112.58 170.479C111.999 169.441 111.375 168.59 111.085 168.237L101.281 165.267L89.8361 176.75Z" fill="black"/>
<path d="M113.993 164.395C115.343 179.802 123.028 186.053 124.628 186.945C126.227 187.838 126.206 185.388 126.206 185.388C126.206 185.388 123.589 168.278 131.794 164.229C136.426 161.945 130.361 156.816 130.361 156.816L119.747 154.387L113.993 164.395Z" fill="#FFD645"/>
<path d="M125.251 188.025C124.96 188.025 124.607 187.942 124.191 187.714C121.553 186.239 114.387 179.221 113.1 164.478L113.203 163.959L118.957 153.951L119.912 153.536L130.526 155.965L130.9 156.152C131.295 156.484 134.722 159.453 134.369 162.257C134.265 163.066 133.808 164.209 132.167 165.018C124.648 168.735 127.037 185.077 127.058 185.243V185.367C127.058 185.679 127.016 187.195 126.019 187.797C125.853 187.921 125.583 188.025 125.251 188.025ZM114.886 164.603C116.402 180.965 124.96 186.136 125.043 186.177C125.084 186.198 125.126 186.219 125.167 186.239C125.251 186.073 125.313 185.741 125.313 185.45C125.105 184.038 122.903 167.635 131.399 163.44C132.541 162.88 132.603 162.257 132.645 162.049C132.832 160.554 130.838 158.436 129.945 157.626L120.182 155.404L114.886 164.603Z" fill="black"/>
<path d="M126.435 161.032C127.785 176.439 135.47 182.689 137.069 183.582C138.669 184.475 138.648 182.024 138.648 182.024C138.648 182.024 136.031 164.915 144.235 160.865C148.867 158.581 142.802 153.453 142.802 153.453L132.188 151.023L126.435 161.032Z" fill="#FFD645"/>
<path d="M137.693 184.661C137.402 184.661 137.049 184.578 136.634 184.35C133.996 182.876 126.83 175.857 125.542 161.115L125.646 160.596L131.399 150.587L132.355 150.172L142.969 152.601L143.343 152.788C143.737 153.12 147.164 156.09 146.811 158.893C146.707 159.703 146.25 160.845 144.61 161.655C140.746 163.565 139.542 168.901 139.23 173.033C138.877 177.664 139.5 181.858 139.5 181.9V182.024C139.5 182.336 139.458 183.852 138.461 184.454C138.295 184.558 138.025 184.661 137.693 184.661ZM127.328 161.239C128.845 177.601 137.402 182.772 137.485 182.813C137.527 182.834 137.568 182.855 137.61 182.876C137.693 182.709 137.755 182.377 137.755 182.087C137.548 180.675 135.346 164.271 143.841 160.076C144.983 159.516 145.046 158.893 145.087 158.685C145.274 157.19 143.28 155.072 142.387 154.262L132.625 152.041L127.328 161.239Z" fill="black"/>
<path d="M127.847 129.594C125.645 122.514 128.408 114.769 131.066 107.273C132.832 102.31 134.639 97.1605 134.992 92.2809C135.677 82.6047 140.849 79.76 146.852 76.4792C149.178 75.2126 151.567 73.9044 153.852 72.1187C155.119 71.122 156.988 70.3953 159.273 69.9592C154.06 75.3372 149.345 82.8123 145.19 92.2601C141.119 101.563 137.568 112.838 134.639 125.753C134.473 126.5 134.307 127.29 134.12 128.058C131.544 128.764 129.425 129.324 127.847 129.594Z" fill="#FFA748"/>
<path d="M156.553 71.6414C152.087 76.8532 148.016 83.6432 144.381 91.9074C140.268 101.251 136.717 112.589 133.767 125.566C133.642 126.148 133.497 126.75 133.372 127.352C131.441 127.871 129.8 128.307 128.471 128.577C127.764 125.836 127.744 122.825 128.387 119.254C129.094 115.433 130.506 111.447 131.877 107.584C133.663 102.559 135.491 97.3684 135.865 92.3642C136.53 83.1656 141.265 80.57 147.268 77.2685C149.615 75.9811 152.045 74.6522 154.372 72.8249C154.974 72.3681 155.701 71.9736 156.553 71.6414ZM161.808 68.7344C158.277 69.0251 155.244 69.9179 153.292 71.4337C145.149 77.7876 135.096 78.2444 134.099 92.2188C133.227 104.553 122.821 118.237 127.224 130.571C129.011 130.363 131.503 129.678 134.847 128.785C135.055 127.83 135.263 126.895 135.47 125.961C140.912 101.978 149.304 80.0925 161.808 68.7344Z" fill="black"/>
<path d="M332.294 62.4633C332.294 62.4633 333.125 54.033 326.126 48.7589C317.236 42.0728 298.957 38.2522 285.789 38.5844C277.667 38.792 228.69 34.037 217.972 36.7779C211.72 38.3767 207.358 39.415 206.112 39.3942C206.029 39.3942 205.946 39.3942 205.842 39.3942C200.213 39.5395 177.947 45.9557 164.82 54.6975C162.909 55.9641 160.582 57.5422 158.007 59.3279C142.553 69.9385 117.878 87.5466 117.878 87.5466C117.878 87.5466 104.439 100.462 100.056 110.574C97.8961 115.578 95.6944 119.607 94.0327 122.41C92.4126 125.13 97.9792 142.78 98.27 145.936C99.0385 154.595 87.0538 154.927 87.0538 154.927C85.5998 157.377 84.4782 164.125 85.2052 166.949C85.7867 169.192 86.6591 170.376 87.5523 170.978C90.564 173.054 87.0953 173.573 89.0893 176.626L89.4424 177.186C89.4424 177.186 99.2878 176.584 102.673 177.705C106.059 178.847 108.323 182.855 108.323 182.855C108.323 182.855 108.759 182.357 109.465 181.63C111.272 179.761 114.783 176.397 116.777 176.376C120.806 170.687 125.978 175.4 125.978 175.4L130.631 175.172C130.631 175.172 132.853 170.521 138.233 174.778C141.452 175.4 148.909 174.217 148.909 174.217L173.211 168.382L190.887 159.599C190.887 159.599 203.37 158.332 206.257 148.324C209.144 138.315 216.809 148.552 218.616 140.309C224.037 115.412 238.867 117.219 250.665 119.108C262.463 120.998 283.67 121.621 283.67 121.621C283.67 121.621 296.859 116.866 303.153 106.525C304.129 104.926 304.877 103.328 305.479 101.77C311.274 86.7784 320.476 73.3438 332.294 62.4633ZM182.371 126.646C173.232 134.723 152.066 139.935 152.066 139.935C152.066 139.935 137.651 146.829 129.302 134.869C128.325 133.457 127.661 132.024 127.245 130.57C124.15 119.524 135.637 106.92 137.402 95.4578C139.417 82.4801 148.701 81.2551 156.698 74.7558C159.378 72.5756 163.968 71.3712 168.891 71.1844C172.858 71.039 177.054 71.5166 180.668 72.6794C184.593 73.9253 187.813 75.9602 189.308 78.7633C189.807 79.6977 190.118 80.7152 190.202 81.8365C190.742 89.2493 191.157 95.3333 191.406 98.6556C191.531 100.4 191.593 101.376 191.593 101.376C191.593 101.376 191.572 107.501 189.599 114.146C188.291 118.631 186.068 123.386 182.371 126.646ZM142.823 142.8C136.883 142.8 131.981 140.246 128.575 135.367C127.578 133.934 126.851 132.398 126.394 130.799C124.441 123.843 127.972 116.368 131.399 109.142C133.58 104.532 135.844 99.7561 136.53 95.3125C138.046 85.4702 143.654 82.0856 149.574 78.4934C151.755 77.1645 153.998 75.8148 156.137 74.0706C158.817 71.8903 163.469 70.4991 168.849 70.2915C173.024 70.1254 177.324 70.6652 180.938 71.8281C185.403 73.2608 188.581 75.5033 190.098 78.3273C190.679 79.3863 191.012 80.5491 191.095 81.7534C191.635 89.1663 192.05 95.2502 192.299 98.5725L192.507 101.376C192.507 101.625 192.445 107.688 190.472 114.395C188.81 120.064 186.276 124.403 182.973 127.331C179.089 130.757 172.754 134.059 164.113 137.173C158.152 139.312 153.105 140.62 152.378 140.807C151.776 141.077 148.307 142.593 143.883 142.8C143.509 142.8 143.156 142.8 142.823 142.8ZM170.324 72.0357C169.867 72.0357 169.389 72.0357 168.932 72.0565C163.906 72.2641 159.648 73.4892 157.259 75.441C155.037 77.2475 152.731 78.6595 150.509 80.0092C144.713 83.5184 139.687 86.5707 138.295 95.6032C137.568 100.296 135.263 105.196 133.02 109.91C129.738 116.845 126.352 124.009 128.118 130.342C128.512 131.754 129.156 133.104 130.049 134.37C133.31 139.063 137.921 141.285 143.737 141.015C148.161 140.807 151.672 139.167 151.713 139.146L151.879 139.084C152.087 139.042 172.941 133.81 181.81 125.981C184.863 123.282 187.211 119.212 188.789 113.876C190.617 107.667 190.742 101.853 190.742 101.376L190.555 98.6763C190.326 95.354 189.89 89.2701 189.35 81.8572C189.288 80.9021 189.018 79.9884 188.561 79.1371C187.273 76.7284 184.448 74.7558 180.439 73.4892C177.386 72.534 173.855 72.0357 170.324 72.0357Z" fill="#FFD645"/>
<path d="M84.0831 163.523C84.1454 163.15 84.2285 162.776 84.27 162.402C84.5193 160.076 84.9347 157.813 85.7655 155.612C85.8486 155.404 85.9525 155.197 86.0355 154.968C86.3056 154.283 86.8041 153.993 87.531 153.93C89.712 153.743 91.8306 153.266 93.783 152.248C94.5931 151.833 95.3201 151.314 95.9224 150.649C97.2725 149.196 97.7087 147.452 97.3556 145.562C96.9817 143.569 96.4625 141.617 95.9847 139.644C95.1124 136.094 94.1777 132.543 93.4923 128.93C93.2015 127.352 92.9314 125.753 92.9107 124.133C92.8899 123.158 93.0561 122.244 93.5753 121.372C95.5693 118.029 97.3556 114.54 98.8927 110.969C100.16 108.02 101.759 105.279 103.608 102.663C106.266 98.8632 109.237 95.3125 112.394 91.9072C113.91 90.2668 115.489 88.668 117.067 87.0691C117.233 86.8822 117.441 86.7369 117.628 86.5915C129.945 77.9121 142.283 69.2326 154.621 60.5531C157.508 58.5182 160.457 56.5663 163.386 54.573C167.665 51.6452 172.234 49.2781 176.97 47.2016C183.679 44.2531 190.575 41.8444 197.679 39.9964C199.693 39.4773 201.729 38.9997 203.806 38.6883C204.595 38.5637 205.385 38.5637 206.174 38.4599C207.15 38.3353 208.126 38.2107 209.061 38.003C211.844 37.3594 214.607 36.6741 217.39 35.9889C218.927 35.5944 220.485 35.3867 222.063 35.2622C226.321 34.9299 230.6 35.013 234.858 35.0753C237.413 35.096 239.968 35.1791 242.523 35.3037C246.241 35.4698 249.959 35.6567 253.656 35.8643C256.252 36.0097 258.828 36.1758 261.403 36.3211C263.73 36.4665 266.077 36.6118 268.403 36.7572C270.709 36.9025 273.014 37.0686 275.32 37.214C277.563 37.3386 279.785 37.4839 282.029 37.567C284.106 37.6293 286.183 37.6293 288.26 37.65C290.462 37.6708 292.663 37.8162 294.865 38.0238C298.105 38.3145 301.325 38.7921 304.523 39.4358C309.862 40.5155 315.075 41.969 320.039 44.2116C322.262 45.2083 324.38 46.3503 326.354 47.783C329.905 50.337 332.024 53.8254 332.876 58.0821C332.979 58.6012 333.021 59.1411 333.083 59.6602C333.104 59.764 333.146 59.8679 333.166 59.9925C333.166 60.8853 333.166 61.7782 333.166 62.6918C332.751 63.4186 332.086 63.8754 331.505 64.436C328.036 67.7583 324.796 71.2882 321.805 75.0466C317.734 80.1754 314.182 85.6364 311.149 91.4296C309.363 94.8557 307.764 98.3649 306.372 101.978C304.856 105.965 302.571 109.453 299.559 112.464C296.319 115.703 292.58 118.299 288.509 120.375C287.138 121.081 285.705 121.683 284.293 122.306C284.023 122.431 283.711 122.472 283.42 122.472C281.053 122.389 278.685 122.306 276.296 122.182C272.682 121.995 269.068 121.808 265.454 121.538C262.172 121.289 258.911 120.998 255.629 120.645C253.407 120.396 251.184 120.043 248.962 119.711C246.137 119.295 243.312 118.922 240.446 118.984C237.87 119.025 235.357 119.378 232.927 120.313C229.873 121.496 227.422 123.469 225.428 126.064C223.517 128.556 222.209 131.359 221.17 134.308C220.423 136.447 219.883 138.627 219.363 140.828C219.218 141.472 218.969 142.095 218.657 142.676C217.951 144.005 216.767 144.669 215.292 144.69C214.503 144.711 213.693 144.607 212.904 144.545C212.177 144.482 211.45 144.379 210.723 144.462C209.643 144.586 208.832 145.105 208.23 145.998C207.732 146.725 207.399 147.556 207.15 148.386C206.132 152.061 203.91 154.844 200.753 156.92C198.011 158.727 194.978 159.786 191.738 160.346C191.323 160.409 190.949 160.533 190.554 160.72C185.175 163.399 179.795 166.057 174.415 168.756C173.439 169.234 172.421 169.462 171.383 169.711C166.875 170.791 162.389 171.871 157.882 172.95C154.995 173.636 152.107 174.362 149.22 175.006C148.14 175.255 147.019 175.359 145.918 175.484C143.986 175.691 142.054 175.857 140.102 175.795C139.541 175.774 138.98 175.733 138.419 175.67C138.066 175.629 137.755 175.504 137.464 175.276C136.862 174.798 136.218 174.404 135.491 174.113C133.85 173.469 132.562 173.864 131.524 175.297C131.233 175.691 130.859 175.982 130.34 176.003C128.969 176.065 127.577 176.127 126.206 176.19C125.791 176.21 125.438 176.044 125.105 175.795C124.233 175.131 123.257 174.632 122.156 174.445C121.055 174.258 120.058 174.508 119.123 175.131C118.563 175.504 118.106 175.982 117.711 176.522C117.462 176.875 117.129 177.082 116.735 177.165C115.925 177.352 115.198 177.726 114.554 178.224C113.661 178.91 112.768 179.616 111.937 180.363C111.044 181.173 110.213 182.066 109.361 182.938C109.216 183.083 109.112 183.27 108.987 183.436C108.883 183.436 108.78 183.436 108.696 183.436C108.323 183.353 107.928 183.27 107.513 183.187C107.367 182.979 107.201 182.73 107.035 182.481C106.329 181.464 105.519 180.509 104.542 179.719C103.587 178.951 102.548 178.391 101.344 178.245C100.16 178.1 98.9757 177.955 97.7918 177.892C95.1539 177.788 92.516 177.851 89.8781 177.975C89.2758 177.996 88.7773 177.788 88.4657 177.249C88.3619 177.062 88.2372 176.896 88.1126 176.709C87.5103 175.67 87.3649 174.57 87.7387 173.407C88.0295 172.493 87.988 172.39 87.2402 171.808C87.1779 171.767 87.1156 171.704 87.0325 171.663C86.5133 171.31 86.0978 170.874 85.7447 170.355C84.9139 169.15 84.4154 167.801 84.1869 166.368C84.1454 166.119 84.0623 165.87 84 165.6C84.0831 164.915 84.0831 164.229 84.0831 163.523ZM108.634 181.381C108.759 181.215 108.842 181.048 108.966 180.924C109.901 180.031 110.815 179.117 111.771 178.245C112.788 177.332 113.868 176.501 115.115 175.92C115.53 175.712 116.029 175.67 116.402 175.421C116.797 175.151 117.046 174.715 117.399 174.383C119.061 172.826 121.014 172.286 123.236 172.867C124.275 173.137 125.23 173.615 126.082 174.238C126.289 174.404 126.497 174.445 126.767 174.425C127.723 174.362 128.699 174.321 129.654 174.3C130.007 174.3 130.257 174.196 130.485 173.905C131.627 172.452 133.144 171.85 134.972 172.12C136.072 172.286 137.09 172.743 137.963 173.386C138.565 173.822 139.167 174.03 139.894 174.009C140.019 174.009 140.164 174.009 140.289 174.009C142.241 174.051 144.173 173.885 146.105 173.677C147.081 173.573 148.057 173.449 149.013 173.262C150.28 173.013 151.526 172.66 152.793 172.369C158.983 170.874 165.193 169.4 171.383 167.905C172.006 167.759 172.671 167.655 173.231 167.365C176.347 165.87 179.421 164.312 182.516 162.776C185.112 161.488 187.688 160.201 190.284 158.934C190.533 158.81 190.803 158.727 191.073 158.685C193.587 158.311 195.975 157.543 198.239 156.38C200.046 155.446 201.646 154.262 202.975 152.705C204.159 151.314 204.99 149.736 205.488 147.992C205.758 147.016 206.132 146.081 206.672 145.209C207.503 143.88 208.666 143.008 210.245 142.759C211.117 142.614 211.99 142.697 212.883 142.759C213.734 142.821 214.565 142.904 215.417 142.904C216.206 142.904 216.829 142.51 217.182 141.804C217.432 141.326 217.639 140.807 217.743 140.267C218.304 137.817 218.948 135.367 219.841 133C220.983 129.947 222.417 127.061 224.473 124.528C227.132 121.226 230.496 119.005 234.609 117.966C237.081 117.343 239.573 117.157 242.128 117.26C244.496 117.343 246.864 117.634 249.211 117.987C251.039 118.257 252.887 118.569 254.736 118.776C257.81 119.108 260.884 119.42 263.958 119.669C267.261 119.939 270.584 120.126 273.907 120.313C276.94 120.479 279.972 120.583 283.005 120.728C283.4 120.749 283.753 120.707 284.127 120.541C285.414 119.918 286.723 119.378 287.99 118.714C291.978 116.637 295.613 114.083 298.749 110.844C301.366 108.124 303.34 105.009 304.71 101.5C308.408 91.9072 313.413 83.0616 319.707 74.9428C323.196 70.4369 327.018 66.2633 331.193 62.3803C331.422 62.1727 331.526 61.9443 331.505 61.6328C331.401 60.6361 331.38 59.6395 331.193 58.6635C330.466 54.7806 328.576 51.6037 325.336 49.2781C323.591 48.0114 321.722 46.994 319.769 46.0804C315.034 43.9001 310.069 42.4674 305.001 41.3876C301.719 40.7024 298.396 40.1833 295.073 39.8718C292.684 39.6434 290.275 39.4773 287.865 39.4773C286.827 39.4773 285.767 39.5188 284.729 39.4773C282.631 39.415 280.554 39.3112 278.456 39.2074C276.026 39.0828 273.617 38.9374 271.207 38.7713C267.863 38.5637 264.519 38.3353 261.175 38.1276C257.852 37.92 254.507 37.7123 251.184 37.5462C247.612 37.3593 244.06 37.1932 240.487 37.0479C237.974 36.9441 235.481 36.8818 232.968 36.8402C229.271 36.7987 225.553 36.7987 221.856 37.1102C220.589 37.214 219.342 37.3801 218.117 37.6916C216.165 38.1899 214.233 38.6883 212.28 39.1451C210.536 39.5396 208.77 39.8926 207.025 40.2248C206.485 40.3286 205.904 40.2871 205.343 40.3494C203.328 40.5363 201.376 40.9723 199.423 41.4499C191.8 43.3395 184.427 45.9142 177.24 49.112C173.314 50.8562 169.493 52.7665 165.899 55.1336C162.638 57.2931 159.398 59.5149 156.178 61.7367C143.654 70.3954 131.233 79.1994 118.812 88.0243C118.604 88.1696 118.396 88.3565 118.209 88.5434C117.005 89.7685 115.8 90.9728 114.637 92.2187C111.231 95.8524 107.99 99.6315 105.124 103.722C103.566 105.902 102.133 108.166 101.053 110.657C99.2458 114.769 97.2518 118.755 94.9877 122.638C94.8631 122.867 94.78 123.137 94.7385 123.386C94.5931 124.424 94.7385 125.442 94.8839 126.459C95.2162 128.868 95.7355 131.235 96.3171 133.581C97.1064 136.779 97.8957 139.956 98.6849 143.154C98.9757 144.379 99.2873 145.604 99.2458 146.891C99.1834 148.988 98.4565 150.774 96.9402 152.228C95.694 153.453 94.1777 154.221 92.5368 154.761C91.1244 155.238 89.6497 155.571 88.1542 155.674C87.7595 155.716 87.5518 155.841 87.448 156.214C87.2818 156.796 87.0325 157.377 86.8871 157.958C86.3056 160.056 85.994 162.215 85.9317 164.395C85.8901 165.766 86.1186 167.074 86.7002 168.32C87.0741 169.13 87.5726 169.836 88.3203 170.355C88.6734 170.604 89.0058 170.936 89.2966 171.268C89.6704 171.684 89.8366 172.182 89.7743 172.743C89.7327 173.137 89.6704 173.532 89.525 173.905C89.255 174.632 89.4212 175.276 89.7743 175.899C89.9197 176.127 90.0651 176.21 90.3351 176.19C91.1036 176.148 91.8929 176.086 92.6822 176.086C94.8216 176.106 96.961 176.086 99.1004 176.19C100.18 176.231 101.281 176.397 102.361 176.626C104.189 176.999 105.643 178.079 106.931 179.408C107.492 180.01 107.99 180.654 108.634 181.381Z" fill="black"/>
<path d="M142.719 142.78C138.586 142.759 134.723 141.492 131.482 138.565C128.948 136.281 127.12 133.54 126.31 130.176C125.874 128.369 125.812 126.542 125.999 124.694C126.331 121.517 127.287 118.527 128.533 115.62C129.8 112.692 131.171 109.827 132.5 106.92C133.705 104.283 134.889 101.625 135.761 98.8634C136.239 97.306 136.509 95.7072 136.82 94.1083C137.527 90.433 139.022 87.1315 141.618 84.3699C142.948 82.9579 144.443 81.7536 146.084 80.7153C147.704 79.6771 149.345 78.6597 150.986 77.663C152.835 76.5209 154.642 75.3166 156.345 73.9462C157.903 72.7003 159.731 71.932 161.641 71.3714C163.594 70.79 165.588 70.4993 167.623 70.3332C169.929 70.1463 172.235 70.1878 174.54 70.4578C178.071 70.8523 181.498 71.6621 184.697 73.3025C186.338 74.1331 187.813 75.192 189.017 76.604C190.347 78.1613 191.074 79.9471 191.198 81.982C191.385 84.972 191.634 87.9621 191.842 90.9729C192.029 93.5269 192.195 96.0602 192.382 98.6142C192.403 99.0087 192.424 99.4032 192.465 99.7977C192.694 101.978 192.445 104.137 192.175 106.297C191.842 109.1 191.281 111.862 190.471 114.561C189.807 116.762 188.976 118.88 187.917 120.915C186.068 124.445 183.472 127.29 180.148 129.491C176.97 131.609 173.585 133.291 170.074 134.786C164.446 137.174 158.65 139.063 152.752 140.662C152.025 140.87 151.318 141.202 150.612 141.43C148.078 142.302 145.523 142.759 142.719 142.78ZM127.66 126.501C127.66 127.684 127.827 129.013 128.097 130.051C128.844 132.917 130.464 135.222 132.604 137.194C135.553 139.914 139.105 141.036 143.052 140.994C146.022 140.973 148.867 140.309 151.609 139.167C151.838 139.063 152.087 139.001 152.315 138.938C158.152 137.402 163.885 135.512 169.451 133.124C172.795 131.692 176.036 130.072 179.089 128.058C181.893 126.189 184.178 123.864 185.839 120.936C187.252 118.444 188.27 115.786 189.038 113.025C189.744 110.429 190.222 107.792 190.513 105.113C190.658 103.66 190.824 102.206 190.721 100.753C190.554 98.3442 190.388 95.9148 190.201 93.5062C189.931 89.8724 189.64 86.2179 189.433 82.5841C189.308 80.5285 188.643 78.7635 187.19 77.31C186.338 76.4587 185.382 75.7527 184.323 75.1713C181.519 73.6139 178.445 72.8249 175.288 72.3681C173.252 72.0774 171.217 71.9943 169.181 72.0566C166.793 72.1397 164.446 72.4304 162.161 73.0948C160.187 73.6555 158.36 74.486 156.802 75.8357C156.532 76.0849 156.22 76.2718 155.929 76.5002C153.998 77.9329 151.941 79.158 149.906 80.3831C148.244 81.4006 146.603 82.418 145.066 83.6223C141.888 86.0933 139.77 89.2702 138.814 93.1947C138.544 94.316 138.357 95.4788 138.129 96.6C137.651 98.9672 136.903 101.251 135.927 103.452C134.702 106.255 133.393 109.038 132.105 111.82C130.859 114.54 129.613 117.261 128.741 120.105C128.138 122.202 127.702 124.32 127.66 126.501Z" fill="black"/>
<path d="M288.675 93.1944C235.585 94.4611 229.541 55.4865 218.615 83.9128C213.63 96.8905 215.313 88.8339 210.162 98.3648C200.109 116.97 261.216 100.524 277.958 110.906C289.215 117.862 306.143 92.7792 288.675 93.1944Z" fill="#FFA748"/>
<path d="M104.23 176.543C104.48 172.597 103.857 164.167 108.239 164.146C112.622 164.126 111.396 176.065 109.319 178.764C107.242 181.464 107.076 176.958 104.23 176.543Z" fill="#FFA748"/>
<path d="M122.467 172.577C122.073 171.331 119.58 164.52 122.53 163.772C125.479 163.025 126.684 171.871 125.728 174.051C125.708 174.051 124.171 172.68 122.467 172.577Z" fill="#FFA748"/>
<path d="M135.304 172.265C134.972 170.999 134.494 167.095 136.343 166.534C139.251 165.641 139.541 171.767 138.503 173.885C138.482 173.885 136.986 172.431 135.304 172.265Z" fill="#FFA748"/>
<path d="M124.773 142.094C123.755 151.085 135.449 161.426 148.161 158.27C155.971 156.339 182.495 160.284 184.53 154.387C191.966 133.02 199.298 122.721 194.064 124.403C187.708 126.438 168.641 146.849 157.819 147.161C146.998 147.472 141.452 154.927 139.042 151.542C130.568 139.727 125.167 138.606 124.773 142.094Z" fill="#FFA748"/>
<path d="M175.724 28.0568C175.475 50.1085 190.471 65.7232 203.432 77.1644L210.058 80.1544L215.396 75.9393L221.814 73.759L224.826 67.9035L230.33 62.1725L230.953 51.4166L231.784 47.1807C205.384 44.5229 202.04 37.7329 185.715 5.63132C179.421 -6.76498 175.973 6.56571 175.724 28.0568Z" fill="#FFD645"/>
<path d="M209.684 80.9852L203.058 77.9951L202.829 77.8497C188.851 65.4742 174.581 49.901 174.83 28.0569C174.913 20.2911 175.433 13.6672 176.305 8.91221C177.801 0.751834 180.023 0.232726 180.75 0.0666118C182.619 -0.369439 184.51 1.33324 186.504 5.23693L186.711 5.67298C194.75 21.4954 199.61 31.0262 205.654 36.9025C211.387 42.4673 218.262 44.9383 231.888 46.3295L232.656 47.3885L231.825 51.5621L231.202 62.2557L230.953 62.8164L225.532 68.4435L222.624 74.1745L222.125 74.6105L215.832 76.7492L210.598 80.8606L209.684 80.9852ZM203.909 76.417L209.912 79.1371L214.835 75.2542L215.105 75.1088L221.191 73.0324L224.036 67.4883L224.182 67.2807L229.458 61.7989L230.081 51.3545L230.101 51.2299L230.745 47.9284C217.307 46.4749 210.348 43.8793 204.429 38.1276C198.156 32.0437 193.254 22.3883 185.133 6.42049L184.925 5.98444C182.765 1.76929 181.498 1.68623 181.165 1.76929C180.729 1.87311 179.255 2.70368 178.05 9.20291C177.198 13.8541 176.7 20.3741 176.617 28.0569H175.724H176.617C176.367 49.1327 190.263 64.3322 203.909 76.417Z" fill="black"/>
<path d="M180.127 6.42041C182.89 18.173 185.881 40.1624 193.421 48.7173C208.209 65.5157 223.767 51.5205 221.627 57.3138C218.595 65.5364 216.933 78.0365 204.782 72.3471C192.631 66.6577 183.555 54.8843 179.317 39.7056C173.543 18.5883 180.127 6.42041 180.127 6.42041Z" fill="#FFA748"/>
<path d="M220.152 133.664L212.571 126.771L214.336 122.306L210.93 119.648L209.351 114.354L204.698 114.291L204.242 110.782L201.541 111.363L198.01 108.519L194.915 108.83L191.26 107.356L191.924 105.716L195.185 107.024L198.55 106.692L201.998 109.474L205.737 108.664L206.256 112.547L210.68 112.589L212.467 118.61L216.476 121.704L214.668 126.293L221.336 132.356L220.152 133.664Z" fill="black"/>
<path d="M310.838 89.6854L304.233 83.6845L288.094 86.6745L278.644 77.6836L266.97 76.6246L262.796 71.8904L255.422 69.2118L260.428 59.9509L249.481 48.9666L250.894 43.4017L250.001 36.0304L251.766 35.8228L252.68 43.5263L251.434 48.4267L262.588 59.6187L257.956 68.2358L263.813 70.3953L267.843 74.9427L279.412 75.9809L288.655 84.785L304.773 81.7949L312.022 88.3772L310.838 89.6854Z" fill="black"/>
<path d="M108.011 152.144L103.42 149.653L97.75 150.67L97.4385 148.926L103.732 147.805L107.699 149.964L110.732 146.891L116.194 145.977L116.818 141.347L120.349 141.326L120.099 138.585L123.36 135.408L123.423 132.315L125.334 128.868L126.891 129.74L125.188 132.792L125.105 136.177L121.927 139.25L122.28 143.07L118.375 143.112L117.773 147.493L111.583 148.552L108.011 152.144Z" fill="black"/>
<path d="M223.58 307.524C223.58 307.524 222.832 306.756 221.752 307.005C220.381 307.316 218.512 308.77 217.473 310.057C216.829 310.846 212.363 315.186 211.761 316.453C211.408 317.179 211.159 317.698 211.055 317.802L211.034 317.823C210.577 318.384 209.393 321.041 209.165 323.014C209.123 323.305 209.102 323.658 209.061 324.052C208.832 326.399 208.5 330.219 208.5 330.219C208.5 330.219 208.645 332.566 209.269 333.812C209.58 334.434 209.788 334.974 209.912 335.348C210.037 335.722 212.197 336.636 212.53 336.864C213.423 337.487 212.488 338.67 212.488 338.67C212.613 339.003 213.173 339.667 213.506 339.833C213.776 339.958 213.963 339.979 214.087 339.937C214.524 339.812 214.295 340.186 214.752 340.249H214.835C214.835 340.249 215.583 339.252 215.957 339.023C216.351 338.795 216.954 338.38 216.954 338.38C216.331 336.864 217.971 336.158 217.971 336.158C217.971 336.158 218.387 334.538 219.239 334.372C219.571 334.123 219.405 334.31 219.405 334.31L220.817 331.486L221.419 329.057C221.419 329.057 222.313 327.748 221.586 326.648C220.859 325.547 222.479 325.651 221.814 324.8C219.862 322.246 221.233 320.958 222.396 319.983C223.559 319.007 225.324 317.013 225.324 317.013C225.324 317.013 225.947 315.352 225.449 313.899C225.366 313.67 225.283 313.463 225.179 313.276C224.223 311.531 223.663 309.538 223.58 307.524ZM217.535 327.188C217.577 328.724 216.351 331.195 216.351 331.195C216.351 331.195 215.832 333.147 214.004 332.981C213.797 332.96 213.589 332.898 213.423 332.836C212.114 332.233 211.823 330.095 210.868 328.994C209.788 327.748 210.432 326.752 210.452 325.444C210.452 325.007 210.722 324.468 211.096 323.969C211.408 323.575 211.803 323.201 212.197 322.952C212.633 322.682 213.09 322.537 213.485 322.62C213.61 322.64 213.734 322.703 213.859 322.786C214.607 323.346 215.23 323.803 215.583 324.052C215.77 324.177 215.853 324.26 215.853 324.26C215.853 324.26 216.434 324.758 216.912 325.485C217.245 325.963 217.515 326.565 217.535 327.188Z" fill="#2B2B2B"/>
<path d="M218.699 348.637C217.909 348.637 216.372 348.367 214.939 346.54L214.877 346.333L215.147 344.152L215.334 343.903L216.663 343.384L216.829 343.363C216.912 343.384 217.66 343.55 217.951 344.049C218.076 344.256 218.076 344.485 218.013 344.713C217.577 346.021 219.26 347.288 219.82 347.703C219.883 347.745 219.924 347.786 219.966 347.807C220.07 347.89 220.111 348.035 220.07 348.16C219.924 348.513 219.177 348.637 218.699 348.637Z" fill="#FFD645"/>
<path d="M216.767 343.674C216.767 343.674 217.951 343.923 217.722 344.629C217.162 346.29 219.342 347.723 219.758 348.055C219.841 348.118 219.405 348.367 218.678 348.367C217.764 348.367 216.414 347.993 215.168 346.374L215.438 344.193L216.767 343.674ZM216.891 343.093L216.559 343.114L215.23 343.633L214.856 344.11L214.586 346.29L214.711 346.727C216.206 348.658 217.847 348.948 218.699 348.948C218.927 348.948 220.111 348.907 220.339 348.284C220.423 348.035 220.339 347.765 220.132 347.599C220.09 347.578 220.049 347.536 219.986 347.495C219.467 347.1 217.909 345.937 218.283 344.837C218.387 344.526 218.366 344.214 218.2 343.944C217.868 343.321 217.058 343.134 216.891 343.093Z" fill="black"/>
<path d="M221.004 344.816C220.194 344.816 218.906 344.588 217.39 343.508L217.286 343.363L216.601 341.453L216.704 341.12L218.241 339.978L218.366 339.916C218.366 339.916 218.553 339.875 218.782 339.875C219.238 339.875 219.571 339.999 219.737 340.227C219.841 340.352 219.945 340.58 219.862 340.913C219.592 342.013 221.274 343.342 221.939 343.757L221.98 343.778C222.043 343.84 222.292 344.048 222.229 344.318C222.209 344.401 222.146 344.567 221.918 344.671C221.752 344.754 221.44 344.816 221.004 344.816Z" fill="#FFD645"/>
<path d="M218.781 340.186C219.176 340.186 219.716 340.29 219.571 340.871C219.176 342.428 221.772 344.027 221.772 344.027C221.772 344.027 222.105 344.297 221.793 344.422C221.689 344.463 221.398 344.526 220.983 344.526C220.214 344.526 218.989 344.297 217.556 343.28L216.87 341.369L218.407 340.227C218.407 340.227 218.574 340.186 218.781 340.186ZM218.781 339.604C218.532 339.604 218.324 339.646 218.304 339.646L218.054 339.75L216.517 340.892L216.31 341.556L216.995 343.467L217.203 343.737C218.781 344.858 220.131 345.086 220.983 345.086C221.565 345.086 221.897 344.982 222.001 344.941C222.271 344.837 222.458 344.629 222.499 344.36C222.562 343.944 222.25 343.633 222.146 343.55L222.084 343.508C221.357 343.051 219.924 341.847 220.131 340.996C220.235 340.539 220.111 340.227 219.965 340.041C219.737 339.75 219.342 339.604 218.781 339.604Z" fill="black"/>
<path d="M220.132 341.411L218.366 340.414L218.221 340.103L218.636 338.234L218.698 338.109C218.802 338.005 219.28 337.445 219.82 337.445C219.986 337.445 220.298 337.507 220.505 337.922C220.879 338.691 222.167 338.795 222.894 338.795C223.476 338.795 223.933 338.732 223.933 338.732H223.974C224.099 338.732 224.39 338.753 224.514 338.981C224.556 339.064 224.618 339.231 224.493 339.438C224.223 339.916 222.956 341.224 220.298 341.473L220.132 341.411Z" fill="#FFD645"/>
<path d="M219.821 337.715C219.987 337.715 220.132 337.798 220.236 338.026C220.672 338.899 221.939 339.065 222.874 339.065C223.497 339.065 223.954 338.982 223.954 338.982C223.975 338.982 224.369 338.982 224.224 339.252C224.079 339.542 222.978 340.892 220.257 341.141L218.491 340.144L218.907 338.276C218.927 338.276 219.405 337.715 219.821 337.715ZM219.821 337.113C219.177 337.113 218.637 337.715 218.491 337.881L218.367 338.13L217.951 339.999L218.242 340.643L220.007 341.639L220.361 341.722C223.705 341.411 224.785 339.542 224.785 339.542C224.93 339.293 224.93 339.023 224.785 338.795C224.577 338.442 224.162 338.4 223.995 338.4H223.912C223.912 338.4 223.476 338.462 222.915 338.462C221.794 338.462 221.025 338.193 220.797 337.736C220.568 337.362 220.215 337.113 219.821 337.113Z" fill="black"/>
<path d="M229.749 309.891C229.645 309.579 229.521 309.289 229.375 309.04C228.025 306.548 227.257 303.786 227.153 300.962C227.153 300.962 226.114 299.882 224.598 300.235C222.687 300.672 220.091 302.686 218.637 304.492C217.744 305.613 211.533 311.635 210.682 313.4C210.183 314.417 209.83 315.123 209.685 315.29C209.685 315.31 209.664 315.31 209.664 315.331C209.041 316.099 207.379 319.816 207.047 322.578C207.005 322.972 206.943 323.471 206.901 324.011C206.569 327.291 206.133 332.607 206.133 332.607C206.133 332.607 206.341 335.888 207.192 337.611C207.608 338.463 207.919 339.231 208.106 339.771C208.293 340.29 211.284 341.556 211.741 341.889C212.987 342.761 211.679 344.422 211.679 344.422C211.845 344.899 212.634 345.813 213.091 346.042C213.465 346.228 213.714 346.228 213.901 346.187C214.524 346.021 214.192 346.54 214.836 346.623L214.96 346.644C214.96 346.644 215.999 345.252 216.539 344.92C217.079 344.588 217.931 344.007 217.931 344.007C217.058 341.889 219.343 340.913 219.343 340.913C219.343 340.913 219.925 338.649 221.109 338.421C221.275 338.276 221.358 338.234 221.379 338.234L223.31 334.393L224.141 331.029C224.141 331.029 225.387 329.202 224.37 327.686C223.352 326.17 225.595 326.295 224.702 325.111C221.981 321.54 223.913 319.775 225.512 318.404C227.111 317.034 229.604 314.251 229.604 314.251C229.604 314.251 230.414 311.905 229.749 309.891ZM217.037 333.977C217.037 333.977 216.331 336.698 213.756 336.448C213.465 336.428 213.195 336.345 212.946 336.241C211.118 335.41 210.723 332.42 209.394 330.884C207.878 329.139 208.771 327.748 208.812 325.942C208.833 325.34 209.186 324.571 209.726 323.886C210.162 323.325 210.702 322.827 211.263 322.474C211.886 322.1 212.509 321.893 213.07 321.996C213.257 322.038 213.423 322.1 213.59 322.225C214.649 322.993 215.521 323.637 215.978 323.969C216.227 324.156 216.373 324.26 216.373 324.26C216.373 324.26 217.183 324.966 217.868 325.983C218.325 326.668 218.699 327.52 218.72 328.371C218.741 330.551 217.037 333.977 217.037 333.977Z" fill="#FFD645"/>
<path d="M214.836 347.204L214.711 347.184C214.275 347.121 214.046 346.914 213.922 346.748C213.589 346.81 213.195 346.748 212.8 346.54C212.177 346.228 211.305 345.19 211.097 344.588L211.201 344.027C211.346 343.841 211.741 343.218 211.678 342.761C211.658 342.657 211.616 342.491 211.388 342.346C211.284 342.262 210.827 342.055 210.411 341.847C208.438 340.871 207.69 340.435 207.524 339.937C207.358 339.459 207.067 338.712 206.652 337.86C205.759 336.033 205.53 332.752 205.53 332.628V332.545C205.53 332.482 205.987 327.188 206.299 323.928C206.361 323.367 206.403 322.889 206.465 322.474C206.797 319.671 208.459 315.85 209.207 314.916C209.227 314.895 209.227 314.874 209.248 314.874C209.352 314.75 209.664 314.148 210.162 313.109C210.744 311.926 213.215 309.309 216.144 306.278C217.1 305.281 217.93 304.43 218.2 304.098C219.654 302.291 222.355 300.111 224.494 299.633C226.301 299.218 227.547 300.485 227.589 300.526L227.755 300.921C227.859 303.662 228.607 306.361 229.915 308.728C230.081 309.04 230.227 309.351 230.331 309.683C231.058 311.884 230.164 314.314 230.144 314.418L230.04 314.604C229.936 314.729 227.506 317.428 225.886 318.799C224.411 320.065 222.728 321.519 225.179 324.717C225.927 325.693 225.242 326.336 224.951 326.606C224.639 326.897 224.619 326.918 224.868 327.312C225.948 328.953 224.972 330.78 224.702 331.216L223.892 334.497L223.85 334.621L221.918 338.463L221.482 338.774C221.586 338.753 221.648 338.712 221.669 338.712C221.669 338.712 221.628 338.733 221.503 338.836L221.254 338.961C220.693 339.065 220.153 340.269 219.945 341.037L219.613 341.432C219.426 341.515 217.889 342.242 218.512 343.757L218.304 344.463C218.263 344.484 217.432 345.066 216.871 345.377C216.56 345.564 215.874 346.395 215.459 346.934L214.836 347.204ZM214.067 345.564C214.399 345.564 214.607 345.73 214.732 345.896C215.106 345.419 215.729 344.692 216.165 344.422C216.456 344.235 216.871 343.965 217.162 343.778C216.726 342.117 217.889 340.996 218.782 340.497C218.99 339.833 219.592 338.234 220.776 337.881C220.818 337.86 220.838 337.84 220.859 337.819L222.687 334.185L223.497 330.884L223.58 330.697C223.58 330.676 224.598 329.181 223.809 328.018C222.999 326.793 223.725 326.129 224.058 325.796C224.12 325.734 224.203 325.672 224.245 325.609C224.224 325.589 224.203 325.526 224.162 325.464C221.046 321.374 223.539 319.235 225.055 317.947C226.446 316.764 228.586 314.418 229.022 313.94C229.167 313.504 229.687 311.677 229.167 310.099C229.084 309.829 228.96 309.579 228.835 309.33C227.485 306.859 226.696 304.077 226.55 301.253C226.26 301.025 225.595 300.63 224.702 300.817C222.895 301.232 220.423 303.205 219.073 304.866C218.782 305.24 217.972 306.07 216.954 307.129C214.877 309.289 211.741 312.528 211.18 313.649C210.453 315.144 210.245 315.497 210.1 315.663L210.079 315.684C209.581 316.307 207.919 319.899 207.587 322.64C207.545 323.035 207.483 323.533 207.441 324.073C207.13 327.146 206.714 332.088 206.673 332.628C206.693 333.002 206.922 335.867 207.67 337.383C208.023 338.089 208.334 338.836 208.584 339.542C208.854 339.833 210.224 340.497 210.889 340.83C211.512 341.141 211.845 341.307 212.011 341.432C212.447 341.743 212.717 342.159 212.779 342.657C212.883 343.384 212.53 344.09 212.281 344.505C212.53 344.879 213.029 345.419 213.257 345.543C213.527 345.668 213.652 345.647 213.652 345.647C213.839 345.585 213.963 345.564 214.067 345.564ZM214.067 337.071C213.942 337.071 213.818 337.071 213.693 337.051C213.34 337.009 213.008 336.926 212.696 336.781C211.388 336.179 210.765 334.787 210.141 333.438C209.768 332.607 209.414 331.839 208.937 331.278C207.649 329.804 207.857 328.516 208.064 327.25C208.127 326.814 208.21 326.378 208.21 325.921C208.23 325.215 208.584 324.364 209.248 323.533C209.726 322.91 210.328 322.37 210.951 321.976C211.741 321.477 212.53 321.29 213.195 321.436C213.465 321.498 213.714 321.602 213.922 321.768L216.746 323.824C216.788 323.844 217.64 324.592 218.346 325.672C218.969 326.606 219.281 327.52 219.301 328.371C219.343 330.51 217.827 333.708 217.598 334.185C217.287 335.244 216.206 337.071 214.067 337.071ZM212.717 322.578C212.385 322.578 211.99 322.723 211.554 322.993C211.055 323.305 210.557 323.761 210.162 324.26C209.684 324.883 209.394 325.506 209.373 325.962C209.352 326.502 209.29 326.98 209.207 327.457C209.02 328.62 208.895 329.451 209.809 330.531C210.391 331.216 210.806 332.109 211.201 332.981C211.741 334.185 212.26 335.327 213.174 335.742C213.361 335.826 213.569 335.888 213.797 335.909C215.812 336.095 216.414 333.957 216.456 333.853L216.497 333.749C216.518 333.708 218.138 330.406 218.097 328.433C218.076 327.79 217.827 327.105 217.328 326.357C216.767 325.506 216.082 324.862 215.957 324.779L213.195 322.765C213.112 322.702 213.008 322.661 212.904 322.64C212.862 322.578 212.8 322.578 212.717 322.578Z" fill="black"/>
<path d="M221.338 338.213L221.296 338.297C221.296 338.297 221.358 338.213 221.338 338.213Z" fill="#FFD645"/>
<path d="M221.42 338.795L221.358 338.442L221.171 338.317L221.254 338.276L220.839 337.923L221.233 337.632L221.836 337.923C221.919 338.068 222.002 338.338 221.711 338.67L221.358 338.421L221.42 338.795ZM220.776 338.047L220.797 337.943L220.818 337.923C220.818 337.964 220.797 338.006 220.776 338.047Z" fill="black"/>
<path d="M241.214 303.599C240.985 305.738 240.445 307.918 238.368 307.441C236.997 308.666 234.318 307.482 233.736 305.821C234.027 303.101 235.356 302.146 236.977 300.858C238.929 300.173 240.175 301.689 241.214 303.599Z" fill="#FFD645"/>
<path d="M236.914 308.52C236.624 308.52 236.312 308.479 236 308.396C234.692 308.063 233.529 307.087 233.134 305.987L233.113 305.738C233.404 302.893 234.837 301.751 236.354 300.526L236.561 300.36L236.748 300.256C239.531 299.322 241.068 302.083 241.712 303.288L241.775 303.641C241.629 305.094 241.297 306.88 240.196 307.669C239.718 308.022 239.137 308.146 238.493 308.043C238.078 308.375 237.517 308.52 236.914 308.52ZM234.318 305.738C234.63 306.423 235.419 307.046 236.312 307.274C236.707 307.378 237.434 307.461 237.974 307.004L238.493 306.859C238.929 306.963 239.261 306.9 239.531 306.714C240.279 306.174 240.528 304.471 240.612 303.703C239.448 301.647 238.493 300.983 237.247 301.356L237.122 301.46C235.647 302.644 234.588 303.474 234.318 305.738Z" fill="black"/>
<path d="M241.214 303.599C240.985 305.738 240.445 307.918 238.368 307.441C236.997 308.666 234.318 307.482 233.736 305.821C234.027 303.101 235.356 302.146 236.977 300.858C238.929 300.173 240.175 301.689 241.214 303.599Z" fill="#FFD645"/>
<path d="M236.914 308.52C236.624 308.52 236.312 308.479 236 308.396C234.692 308.063 233.529 307.087 233.134 305.987L233.113 305.738C233.404 302.893 234.837 301.751 236.354 300.526L236.561 300.36L236.748 300.256C239.531 299.322 241.068 302.083 241.712 303.288L241.775 303.641C241.629 305.094 241.297 306.88 240.196 307.669C239.718 308.022 239.137 308.146 238.493 308.043C238.078 308.375 237.517 308.52 236.914 308.52ZM234.318 305.738C234.63 306.423 235.419 307.046 236.312 307.274C236.707 307.378 237.434 307.461 237.974 307.004L238.493 306.859C238.929 306.963 239.261 306.9 239.531 306.714C240.279 306.174 240.528 304.471 240.612 303.703C239.448 301.647 238.493 300.983 237.247 301.356L237.122 301.46C235.647 302.644 234.588 303.474 234.318 305.738Z" fill="black"/>
<path d="M234.173 306.444C233.944 308.583 233.404 310.763 231.327 310.286C229.956 311.511 227.277 310.327 226.695 308.666C226.986 305.946 228.315 304.991 229.936 303.703C231.888 303.018 233.134 304.555 234.173 306.444Z" fill="#FFD645"/>
<path d="M229.873 311.386C229.583 311.386 229.271 311.344 228.959 311.261C227.651 310.929 226.488 309.953 226.093 308.853L226.072 308.603C226.363 305.759 227.796 304.617 229.313 303.392L229.52 303.225L229.707 303.122C232.49 302.187 234.027 304.949 234.671 306.153L234.734 306.506C234.588 307.96 234.256 309.745 233.155 310.535C232.677 310.887 232.096 311.012 231.452 310.908C231.016 311.22 230.476 311.386 229.873 311.386ZM227.277 308.583C227.589 309.268 228.378 309.891 229.271 310.119C229.666 310.223 230.393 310.306 230.933 309.849L231.452 309.704C231.888 309.808 232.22 309.766 232.49 309.559C233.238 309.019 233.487 307.316 233.571 306.548C232.407 304.492 231.452 303.828 230.206 304.201L230.081 304.305C228.606 305.489 227.547 306.34 227.277 308.583Z" fill="black"/>
<path d="M234.173 306.444C233.944 308.583 233.404 310.763 231.327 310.286C229.956 311.511 227.277 310.327 226.695 308.666C226.986 305.946 228.315 304.991 229.936 303.703C231.888 303.018 233.134 304.555 234.173 306.444Z" fill="#FFD645"/>
<path d="M229.873 311.386C229.583 311.386 229.271 311.344 228.959 311.261C227.651 310.929 226.488 309.953 226.093 308.853L226.072 308.603C226.363 305.759 227.796 304.617 229.313 303.392L229.52 303.225L229.707 303.122C232.49 302.187 234.027 304.949 234.671 306.153L234.734 306.506C234.588 307.96 234.256 309.745 233.155 310.535C232.677 310.887 232.096 311.012 231.452 310.908C231.016 311.22 230.476 311.386 229.873 311.386ZM227.277 308.583C227.589 309.268 228.378 309.891 229.271 310.119C229.666 310.223 230.393 310.306 230.933 309.849L231.452 309.704C231.888 309.808 232.22 309.766 232.49 309.559C233.238 309.019 233.487 307.316 233.571 306.548C232.407 304.492 231.452 303.828 230.206 304.201L230.081 304.305C228.606 305.489 227.547 306.34 227.277 308.583Z" fill="black"/>
<path d="M243.354 304.679C240.944 304.409 240.612 302.852 240.944 300.215C241.983 299.281 243.042 298.284 244.621 299.031C247.072 298.72 248.235 301.482 247.425 302.374C246.968 303.87 244.475 305.198 243.354 304.679Z" fill="#FFD645"/>
<path d="M243.935 305.364C243.665 305.364 243.416 305.323 243.187 305.24C242.149 305.094 241.38 304.741 240.903 304.118C240.093 303.08 240.176 301.523 240.342 300.132L240.529 299.758L240.591 299.696C241.609 298.782 242.855 297.64 244.683 298.408C246.282 298.284 247.383 299.239 247.882 300.215C248.339 301.108 248.359 302.042 247.923 302.644C247.549 303.724 246.469 304.554 245.535 304.99C244.974 305.24 244.434 305.364 243.935 305.364ZM241.484 300.505C241.318 301.98 241.422 302.873 241.837 303.392C242.128 303.765 242.647 303.994 243.416 304.098L243.603 304.139C243.894 304.264 244.475 304.181 245.057 303.911C245.95 303.495 246.656 302.81 246.843 302.208L246.968 301.98C247.113 301.814 247.113 301.294 246.843 300.775C246.677 300.464 246.033 299.446 244.662 299.613L244.33 299.55C243.25 299.031 242.523 299.55 241.484 300.505Z" fill="black"/>
<path d="M243.354 304.679C240.944 304.409 240.612 302.852 240.944 300.215C241.983 299.281 243.042 298.284 244.621 299.031C247.072 298.72 248.235 301.482 247.425 302.374C246.968 303.87 244.475 305.198 243.354 304.679Z" fill="#FFD645"/>
<path d="M243.935 305.364C243.665 305.364 243.416 305.323 243.187 305.24C242.149 305.094 241.38 304.741 240.903 304.118C240.093 303.08 240.176 301.523 240.342 300.132L240.529 299.758L240.591 299.696C241.609 298.782 242.855 297.64 244.683 298.408C246.282 298.284 247.383 299.239 247.882 300.215C248.339 301.108 248.359 302.042 247.923 302.644C247.549 303.724 246.469 304.554 245.535 304.99C244.974 305.24 244.434 305.364 243.935 305.364ZM241.484 300.505C241.318 301.98 241.422 302.873 241.837 303.392C242.128 303.765 242.647 303.994 243.416 304.098L243.603 304.139C243.894 304.264 244.475 304.181 245.057 303.911C245.95 303.495 246.656 302.81 246.843 302.208L246.968 301.98C247.113 301.814 247.113 301.294 246.843 300.775C246.677 300.464 246.033 299.446 244.662 299.613L244.33 299.55C243.25 299.031 242.523 299.55 241.484 300.505Z" fill="black"/>
<path d="M250.374 301.212C247.965 300.942 247.633 299.384 247.965 296.747C249.003 295.813 250.063 294.816 251.641 295.564C254.092 295.252 255.255 298.014 254.445 298.907C253.988 300.402 251.496 301.731 250.374 301.212Z" fill="#FFD645"/>
<path d="M250.956 301.918C250.686 301.918 250.436 301.876 250.208 301.793C249.169 301.648 248.401 301.295 247.923 300.672C247.113 299.634 247.196 298.076 247.362 296.685L247.549 296.332L247.612 296.27C248.629 295.356 249.876 294.214 251.703 294.982C253.303 294.858 254.404 295.813 254.902 296.789C255.359 297.682 255.38 298.616 254.944 299.218C254.57 300.298 253.49 301.129 252.555 301.565C251.994 301.772 251.454 301.918 250.956 301.918ZM248.505 297.038C248.339 298.512 248.442 299.405 248.858 299.924C249.149 300.298 249.668 300.527 250.436 300.63L250.623 300.672C250.914 300.817 251.496 300.713 252.077 300.444C252.97 300.028 253.677 299.343 253.864 298.741L253.988 298.512C254.134 298.346 254.134 297.827 253.864 297.308C253.697 296.997 253.053 295.979 251.683 296.145L251.35 296.083C250.27 295.564 249.543 296.104 248.505 297.038Z" fill="black"/>
<path d="M250.374 301.212C247.965 300.942 247.633 299.384 247.965 296.747C249.003 295.813 250.063 294.816 251.641 295.564C254.092 295.252 255.255 298.014 254.445 298.907C253.988 300.402 251.496 301.731 250.374 301.212Z" fill="#FFD645"/>
<path d="M250.956 301.918C250.686 301.918 250.436 301.876 250.208 301.793C249.169 301.648 248.401 301.295 247.923 300.672C247.113 299.634 247.196 298.076 247.362 296.685L247.549 296.332L247.612 296.27C248.629 295.356 249.876 294.214 251.703 294.982C253.303 294.858 254.404 295.813 254.902 296.789C255.359 297.682 255.38 298.616 254.944 299.218C254.57 300.298 253.49 301.129 252.555 301.565C251.994 301.772 251.454 301.918 250.956 301.918ZM248.505 297.038C248.339 298.512 248.442 299.405 248.858 299.924C249.149 300.298 249.668 300.527 250.436 300.63L250.623 300.672C250.914 300.817 251.496 300.713 252.077 300.444C252.97 300.028 253.677 299.343 253.864 298.741L253.988 298.512C254.134 298.346 254.134 297.827 253.864 297.308C253.697 296.997 253.053 295.979 251.683 296.145L251.35 296.083C250.27 295.564 249.543 296.104 248.505 297.038Z" fill="black"/>
<path d="M256.502 291.12C257.561 290.663 260.157 291.784 260.677 292.594C261.902 295.107 260.282 297.059 258.413 297.993C257.416 297.868 255.609 297.972 254.632 295.397C254.009 293.446 254.175 291.826 256.502 291.12Z" fill="#FFD645"/>
<path d="M258.329 298.575C258.225 298.554 258.142 298.554 258.018 298.533C257.478 298.471 256.73 298.408 256.003 298.014C255.151 297.557 254.487 296.726 254.05 295.584L254.03 295.543C253.593 294.131 253.593 293.03 254.05 292.179C254.445 291.432 255.193 290.871 256.273 290.539C257.125 290.206 258.329 290.559 258.973 290.809C259.783 291.12 260.759 291.66 261.133 292.262L261.154 292.324C261.798 293.633 261.798 294.962 261.175 296.145C260.676 297.1 259.762 297.931 258.62 298.512L258.329 298.575ZM255.172 295.211C255.92 297.163 257.145 297.287 258.142 297.391C258.205 297.391 258.246 297.391 258.288 297.412C259.077 296.976 261.383 295.46 260.157 292.906C259.721 292.283 257.436 291.369 256.73 291.681L256.668 291.702C255.878 291.93 255.359 292.283 255.11 292.761C254.819 293.321 254.84 294.11 255.172 295.211Z" fill="black"/>
<path d="M256.502 291.12C257.561 290.663 260.157 291.784 260.677 292.594C261.902 295.107 260.282 297.059 258.413 297.993C257.416 297.868 255.609 297.972 254.632 295.397C254.009 293.446 254.175 291.826 256.502 291.12Z" fill="#FFD645"/>
<path d="M258.329 298.575C258.225 298.554 258.142 298.554 258.018 298.533C257.478 298.471 256.73 298.408 256.003 298.014C255.151 297.557 254.487 296.726 254.05 295.584L254.03 295.543C253.593 294.131 253.593 293.03 254.05 292.179C254.445 291.432 255.193 290.871 256.273 290.539C257.125 290.206 258.329 290.559 258.973 290.809C259.783 291.12 260.759 291.66 261.133 292.262L261.154 292.324C261.798 293.633 261.798 294.962 261.175 296.145C260.676 297.1 259.762 297.931 258.62 298.512L258.329 298.575ZM255.172 295.211C255.92 297.163 257.145 297.287 258.142 297.391C258.205 297.391 258.246 297.391 258.288 297.412C259.077 296.976 261.383 295.46 260.157 292.906C259.721 292.283 257.436 291.369 256.73 291.681L256.668 291.702C255.878 291.93 255.359 292.283 255.11 292.761C254.819 293.321 254.84 294.11 255.172 295.211Z" fill="black"/>
<path d="M278.27 279.014C278.851 280.738 279.287 283.25 277.605 283.583C276.649 285.618 273.638 285.41 272.246 284.164C271.727 281.838 272.08 280.572 273.285 278.475C274.863 277 276.421 277.54 278.27 279.014Z" fill="#FFD645"/>
<path d="M274.904 285.7C273.782 285.7 272.619 285.306 271.851 284.6L271.664 284.288C271.082 281.734 271.56 280.281 272.765 278.163L272.869 278.017C274.966 276.066 277.043 277.27 278.622 278.536L278.809 278.806C279.266 280.177 279.681 282.066 278.996 283.229C278.767 283.624 278.414 283.914 277.978 284.06C277.521 284.849 276.732 285.389 275.735 285.596C275.486 285.679 275.195 285.7 274.904 285.7ZM272.765 283.852C273.492 284.413 274.593 284.662 275.527 284.475C276.026 284.371 276.711 284.101 277.064 283.354L277.48 283.022C277.729 282.98 277.874 282.855 277.999 282.669C278.331 282.108 278.248 280.883 277.75 279.367C275.963 277.976 274.863 277.83 273.741 278.827C272.723 280.654 272.349 281.796 272.765 283.852Z" fill="black"/>
<path d="M278.27 279.014C278.851 280.738 279.287 283.25 277.605 283.583C276.649 285.618 273.638 285.41 272.246 284.164C271.727 281.838 272.08 280.572 273.285 278.475C274.863 277 276.421 277.54 278.27 279.014Z" fill="#FFD645"/>
<path d="M274.904 285.7C273.782 285.7 272.619 285.306 271.851 284.6L271.664 284.288C271.082 281.734 271.56 280.281 272.765 278.163L272.869 278.017C274.966 276.066 277.043 277.27 278.622 278.536L278.809 278.806C279.266 280.177 279.681 282.066 278.996 283.229C278.767 283.624 278.414 283.914 277.978 284.06C277.521 284.849 276.732 285.389 275.735 285.596C275.486 285.679 275.195 285.7 274.904 285.7ZM272.765 283.852C273.492 284.413 274.593 284.662 275.527 284.475C276.026 284.371 276.711 284.101 277.064 283.354L277.48 283.022C277.729 282.98 277.874 282.855 277.999 282.669C278.331 282.108 278.248 280.883 277.75 279.367C275.963 277.976 274.863 277.83 273.741 278.827C272.723 280.654 272.349 281.796 272.765 283.852Z" fill="black"/>
<path d="M290.254 269.421C290.836 271.145 291.272 273.657 289.589 273.989C288.634 276.024 285.622 275.817 284.23 274.571C283.711 272.245 284.064 270.978 285.269 268.881C286.848 267.386 288.405 267.926 290.254 269.421Z" fill="#FFD645"/>
<path d="M286.889 276.086C285.768 276.086 284.605 275.692 283.836 274.986L283.649 274.674C283.068 272.12 283.545 270.667 284.75 268.549L284.854 268.404C286.952 266.452 289.029 267.656 290.607 268.923L290.794 269.193C291.251 270.563 291.667 272.453 290.981 273.615C290.753 274.01 290.4 274.301 289.964 274.446C289.507 275.235 288.717 275.775 287.72 275.983C287.471 276.066 287.18 276.086 286.889 276.086ZM284.75 274.238C285.477 274.799 286.578 275.048 287.513 274.861C288.011 274.757 288.696 274.488 289.05 273.74L289.465 273.408C289.714 273.366 289.86 273.242 289.984 273.055C290.317 272.494 290.234 271.269 289.735 269.753C287.949 268.362 286.848 268.217 285.726 269.213C284.688 271.041 284.335 272.183 284.75 274.238Z" fill="black"/>
<path d="M290.254 269.421C290.836 271.145 291.272 273.657 289.589 273.989C288.634 276.024 285.622 275.817 284.23 274.571C283.711 272.245 284.064 270.978 285.269 268.881C286.848 267.386 288.405 267.926 290.254 269.421Z" fill="#FFD645"/>
<path d="M286.889 276.086C285.768 276.086 284.605 275.692 283.836 274.986L283.649 274.674C283.068 272.12 283.545 270.667 284.75 268.549L284.854 268.404C286.952 266.452 289.029 267.656 290.607 268.923L290.794 269.193C291.251 270.563 291.667 272.453 290.981 273.615C290.753 274.01 290.4 274.301 289.964 274.446C289.507 275.235 288.717 275.775 287.72 275.983C287.471 276.066 287.18 276.086 286.889 276.086ZM284.75 274.238C285.477 274.799 286.578 275.048 287.513 274.861C288.011 274.757 288.696 274.488 289.05 273.74L289.465 273.408C289.714 273.366 289.86 273.242 289.984 273.055C290.317 272.494 290.234 271.269 289.735 269.753C287.949 268.362 286.848 268.217 285.726 269.213C284.688 271.041 284.335 272.183 284.75 274.238Z" fill="black"/>
<path d="M269.109 288.919C266.699 288.67 266.326 287.133 266.637 284.496C267.655 283.541 268.693 282.524 270.272 283.25C272.744 282.918 273.907 285.659 273.138 286.552C272.744 288.047 270.251 289.396 269.109 288.919Z" fill="#FFD645"/>
<path d="M269.67 289.604C269.421 289.604 269.172 289.563 268.964 289.5C267.905 289.376 267.136 289.002 266.638 288.379C265.828 287.362 265.869 285.804 266.035 284.413L266.222 284.06L266.305 283.977C267.302 283.043 268.528 281.901 270.356 282.627C271.955 282.482 273.056 283.437 273.575 284.392C274.053 285.264 274.074 286.22 273.658 286.822C273.305 287.902 272.246 288.753 271.332 289.189C270.75 289.459 270.189 289.604 269.67 289.604ZM267.198 284.766C267.053 286.24 267.157 287.133 267.572 287.652C267.884 288.026 268.403 288.255 269.172 288.338L269.338 288.379C269.566 288.483 270.106 288.462 270.833 288.109C271.706 287.694 272.391 286.988 272.557 286.386L272.682 286.157C272.806 286.012 272.848 285.534 272.536 284.953C272.37 284.642 271.726 283.645 270.335 283.832L270.002 283.79C268.922 283.25 268.216 283.811 267.198 284.766Z" fill="black"/>
<path d="M269.109 288.919C266.699 288.67 266.326 287.133 266.637 284.496C267.655 283.541 268.693 282.524 270.272 283.25C272.744 282.918 273.907 285.659 273.138 286.552C272.744 288.047 270.251 289.396 269.109 288.919Z" fill="#FFD645"/>
<path d="M269.67 289.604C269.421 289.604 269.172 289.563 268.964 289.5C267.905 289.376 267.136 289.002 266.638 288.379C265.828 287.362 265.869 285.804 266.035 284.413L266.222 284.06L266.305 283.977C267.302 283.043 268.528 281.901 270.356 282.627C271.955 282.482 273.056 283.437 273.575 284.392C274.053 285.264 274.074 286.22 273.658 286.822C273.305 287.902 272.246 288.753 271.332 289.189C270.75 289.459 270.189 289.604 269.67 289.604ZM267.198 284.766C267.053 286.24 267.157 287.133 267.572 287.652C267.884 288.026 268.403 288.255 269.172 288.338L269.338 288.379C269.566 288.483 270.106 288.462 270.833 288.109C271.706 287.694 272.391 286.988 272.557 286.386L272.682 286.157C272.806 286.012 272.848 285.534 272.536 284.953C272.37 284.642 271.726 283.645 270.335 283.832L270.002 283.79C268.922 283.25 268.216 283.811 267.198 284.766Z" fill="black"/>
<path d="M265.557 286.822C266.617 287.901 267.988 290.268 266.949 291.099C266.637 293.611 263.771 294.338 261.881 293.715C260.884 292.054 260.323 290.891 260.863 288.317C261.798 286.365 263.231 285.97 265.557 286.822Z" fill="#FFD645"/>
<path d="M263.231 294.505C262.712 294.505 262.193 294.422 261.694 294.276L261.362 294.027C260.282 292.262 259.679 290.975 260.282 288.192L260.323 288.068C261.694 285.202 264.062 285.659 265.744 286.261L265.973 286.407C266.762 287.216 267.988 288.981 267.905 290.352C267.884 290.746 267.738 291.099 267.51 291.369C267.323 292.387 266.762 293.217 265.89 293.778C265.121 294.256 264.187 294.505 263.231 294.505ZM262.276 293.217C263.273 293.467 264.436 293.3 265.246 292.802C265.89 292.387 266.264 291.785 266.368 291.037L266.575 290.643C266.617 290.622 266.7 290.539 266.721 290.31C266.762 289.542 265.994 288.172 265.225 287.341C262.94 286.552 262.068 287.196 261.424 288.525C260.967 290.767 261.403 291.785 262.276 293.217Z" fill="black"/>
<path d="M265.557 286.822C266.617 287.901 267.988 290.268 266.949 291.099C266.637 293.611 263.771 294.338 261.881 293.715C260.884 292.054 260.323 290.891 260.863 288.317C261.798 286.365 263.231 285.97 265.557 286.822Z" fill="#FFD645"/>
<path d="M263.231 294.505C262.712 294.505 262.193 294.422 261.694 294.276L261.362 294.027C260.282 292.262 259.679 290.975 260.282 288.192L260.323 288.068C261.694 285.202 264.062 285.659 265.744 286.261L265.973 286.407C266.762 287.216 267.988 288.981 267.905 290.352C267.884 290.746 267.738 291.099 267.51 291.369C267.323 292.387 266.762 293.217 265.89 293.778C265.121 294.256 264.187 294.505 263.231 294.505ZM262.276 293.217C263.273 293.467 264.436 293.3 265.246 292.802C265.89 292.387 266.264 291.785 266.368 291.037L266.575 290.643C266.617 290.622 266.7 290.539 266.721 290.31C266.762 289.542 265.994 288.172 265.225 287.341C262.94 286.552 262.068 287.196 261.424 288.525C260.967 290.767 261.403 291.785 262.276 293.217Z" fill="black"/>
<path d="M282.943 273.367C284.002 274.446 285.373 276.813 284.335 277.644C284.023 280.156 281.157 280.883 279.267 280.26C278.27 278.599 277.709 277.436 278.249 274.862C279.184 272.91 280.596 272.536 282.943 273.367Z" fill="#FFD645"/>
<path d="M280.617 281.07C280.098 281.07 279.578 280.987 279.08 280.842L278.748 280.593C277.667 278.828 277.065 277.54 277.667 274.758L277.709 274.633C279.08 271.768 281.448 272.225 283.13 272.827L283.359 272.972C284.148 273.782 285.373 275.547 285.29 276.917C285.27 277.312 285.124 277.665 284.896 277.935C284.709 278.952 284.148 279.783 283.276 280.343C282.507 280.821 281.552 281.07 280.617 281.07ZM279.641 279.762C280.638 280.011 281.801 279.845 282.611 279.347C283.255 278.931 283.629 278.329 283.733 277.582L283.94 277.187C283.982 277.166 284.065 277.083 284.086 276.855C284.127 276.087 283.359 274.716 282.59 273.886C280.305 273.097 279.433 273.74 278.789 275.069C278.332 277.312 278.789 278.329 279.641 279.762Z" fill="black"/>
<path d="M282.943 273.367C284.002 274.446 285.373 276.813 284.335 277.644C284.023 280.156 281.157 280.883 279.267 280.26C278.27 278.599 277.709 277.436 278.249 274.862C279.184 272.91 280.596 272.536 282.943 273.367Z" fill="#FFD645"/>
<path d="M280.617 281.07C280.098 281.07 279.578 280.987 279.08 280.842L278.748 280.593C277.667 278.828 277.065 277.54 277.667 274.758L277.709 274.633C279.08 271.768 281.448 272.225 283.13 272.827L283.359 272.972C284.148 273.782 285.373 275.547 285.29 276.917C285.27 277.312 285.124 277.665 284.896 277.935C284.709 278.952 284.148 279.783 283.276 280.343C282.507 280.821 281.552 281.07 280.617 281.07ZM279.641 279.762C280.638 280.011 281.801 279.845 282.611 279.347C283.255 278.931 283.629 278.329 283.733 277.582L283.94 277.187C283.982 277.166 284.065 277.083 284.086 276.855C284.127 276.087 283.359 274.716 282.59 273.886C280.305 273.097 279.433 273.74 278.789 275.069C278.332 277.312 278.789 278.329 279.641 279.762Z" fill="black"/>
<path d="M299.996 257.316C301.055 258.396 302.426 260.763 301.387 261.593C301.076 264.106 298.209 264.832 296.319 264.21C295.322 262.548 294.762 261.386 295.302 258.811C296.236 256.859 297.669 256.485 299.996 257.316Z" fill="#FFD645"/>
<path d="M297.69 265.019C297.171 265.019 296.652 264.936 296.153 264.791L295.821 264.542C294.741 262.777 294.138 261.489 294.741 258.707L294.782 258.582C296.153 255.717 298.521 256.174 300.203 256.776L300.432 256.921C301.221 257.731 302.447 259.496 302.364 260.867C302.343 261.261 302.197 261.614 301.969 261.884C301.782 262.901 301.221 263.732 300.349 264.293C299.58 264.749 298.625 265.019 297.69 265.019ZM296.714 263.711C297.711 263.96 298.874 263.794 299.684 263.296C300.328 262.881 300.702 262.279 300.806 261.531L301.014 261.136C301.055 261.116 301.138 261.033 301.159 260.804C301.2 260.036 300.432 258.666 299.663 257.835C297.379 257.046 296.506 257.69 295.862 259.019C295.405 261.261 295.842 262.279 296.714 263.711Z" fill="black"/>
<path d="M299.996 257.316C301.055 258.396 302.426 260.763 301.387 261.593C301.076 264.106 298.209 264.832 296.319 264.21C295.322 262.548 294.762 261.386 295.302 258.811C296.236 256.859 297.669 256.485 299.996 257.316Z" fill="#FFD645"/>
<path d="M297.69 265.019C297.171 265.019 296.652 264.936 296.153 264.791L295.821 264.542C294.741 262.777 294.138 261.489 294.741 258.707L294.782 258.582C296.153 255.717 298.521 256.174 300.203 256.776L300.432 256.921C301.221 257.731 302.447 259.496 302.364 260.867C302.343 261.261 302.197 261.614 301.969 261.884C301.782 262.901 301.221 263.732 300.349 264.293C299.58 264.749 298.625 265.019 297.69 265.019ZM296.714 263.711C297.711 263.96 298.874 263.794 299.684 263.296C300.328 262.881 300.702 262.279 300.806 261.531L301.014 261.136C301.055 261.116 301.138 261.033 301.159 260.804C301.2 260.036 300.432 258.666 299.663 257.835C297.379 257.046 296.506 257.69 295.862 259.019C295.405 261.261 295.842 262.279 296.714 263.711Z" fill="black"/>
<path d="M295.218 263.691C296.278 264.771 297.649 267.138 296.61 267.968C296.299 270.481 293.432 271.207 291.542 270.585C290.545 268.923 289.984 267.761 290.524 265.186C291.459 263.234 292.871 262.86 295.218 263.691Z" fill="#FFD645"/>
<path d="M292.891 271.394C292.372 271.394 291.853 271.311 291.354 271.165L291.022 270.916C289.942 269.151 289.34 267.864 289.942 265.082L289.983 264.957C291.354 262.091 293.722 262.548 295.405 263.15L295.633 263.296C296.422 264.106 297.648 265.871 297.565 267.241C297.544 267.635 297.399 267.988 297.17 268.258C296.983 269.276 296.422 270.106 295.55 270.667C294.781 271.145 293.826 271.394 292.891 271.394ZM291.915 270.086C292.912 270.335 294.075 270.169 294.885 269.67C295.529 269.255 295.903 268.653 296.007 267.905L296.215 267.511C296.256 267.49 296.339 267.407 296.36 267.179C296.402 266.41 295.633 265.04 294.865 264.209C292.58 263.42 291.707 264.064 291.064 265.393C290.607 267.635 291.064 268.653 291.915 270.086Z" fill="black"/>
<path d="M295.218 263.691C296.278 264.771 297.649 267.138 296.61 267.968C296.299 270.481 293.432 271.207 291.542 270.585C290.545 268.923 289.984 267.761 290.524 265.186C291.459 263.234 292.871 262.86 295.218 263.691Z" fill="#FFD645"/>
<path d="M292.891 271.394C292.372 271.394 291.853 271.311 291.354 271.165L291.022 270.916C289.942 269.151 289.34 267.864 289.942 265.082L289.983 264.957C291.354 262.091 293.722 262.548 295.405 263.15L295.633 263.296C296.422 264.106 297.648 265.871 297.565 267.241C297.544 267.635 297.399 267.988 297.17 268.258C296.983 269.276 296.422 270.106 295.55 270.667C294.781 271.145 293.826 271.394 292.891 271.394ZM291.915 270.086C292.912 270.335 294.075 270.169 294.885 269.67C295.529 269.255 295.903 268.653 296.007 267.905L296.215 267.511C296.256 267.49 296.339 267.407 296.36 267.179C296.402 266.41 295.633 265.04 294.865 264.209C292.58 263.42 291.707 264.064 291.064 265.393C290.607 267.635 291.064 268.653 291.915 270.086Z" fill="black"/>
</svg>
