<svg width="193" height="119" viewBox="0 0 193 119" fill="none" xmlns="http://www.w3.org/2000/svg">
<path d="M0.5 0H4.9L10.8 14.4H11L16.9 0H21.3V19.8H17.8V6.2H17.6L12.1 19.8H9.6L4.1 6.2H4V19.9H0.5V0Z" fill="white"/>
<path d="M27.8996 19.8H24.0996L31.0996 0H35.4996L42.4996 19.8H38.6996L33.3996 4.1H33.1996L27.8996 19.8ZM28.0996 12.1H38.5996V15H28.0996V12.1Z" fill="white"/>
<path d="M51.9998 19.8H45.2998V0H52.1998C54.1998 0 55.8998 0.4 57.2998 1.2C58.6998 2 59.7998 3.1 60.5998 4.6C61.3998 6.1 61.6998 7.8 61.6998 9.9C61.6998 12 61.2998 13.7 60.5998 15.2C59.8998 16.7 58.6998 17.8 57.2998 18.6C55.7998 19.5 54.0998 19.8 51.9998 19.8ZM48.8998 16.7H51.8998C53.2998 16.7 54.3998 16.4 55.3998 15.9C56.2998 15.4 56.9998 14.6 57.4998 13.6C57.9998 12.6 58.1998 11.3 58.1998 9.8C58.1998 8.3 57.9998 7 57.4998 6C56.9998 5 56.2998 4.2 55.3998 3.7C54.4998 3.2 53.3998 2.9 51.9998 2.9H48.8998V16.7Z" fill="white"/>
<path d="M65.2002 19.8V0H78.1002V3H68.8002V8.4H77.4002V11.4H68.8002V16.8H78.2002V19.8H65.2002Z" fill="white"/>
<path d="M0.5 52.6V32.8H8.1C9.5 32.8 10.7 33 11.7 33.5C12.7 34 13.4 34.6 13.8 35.3C14.3 36.1 14.5 37.0001 14.5 37.9001C14.5 38.7001 14.3 39.4 14 40C13.7 40.6 13.3 41.0001 12.7 41.4001C12.1 41.8001 11.6 42.0001 10.9 42.2001V42.4001C11.6 42.4001 12.3 42.7 12.9 43C13.5 43.4 14.1 43.9001 14.5 44.7001C14.9 45.4001 15.1 46.3 15.1 47.3C15.1 48.3 14.9 49.3 14.4 50.1C13.9 50.9 13.2 51.6 12.2 52C11.2 52.5 9.9 52.7001 8.4 52.7001H0.5V52.6ZM4.1 41.2001H7.7C8.3 41.2001 8.9 41.1001 9.4 40.9001C9.9 40.7001 10.3 40.3001 10.6 39.9001C10.9 39.5001 11 39.0001 11 38.4001C11 37.6001 10.7 37 10.2 36.5C9.7 36 8.9 35.8 7.8 35.8H4.1V41.2001ZM4.1 49.6H8C9.3 49.6 10.2 49.3 10.8 48.8C11.4 48.3 11.7 47.7001 11.7 46.9001C11.7 46.3001 11.6 45.8 11.3 45.3C11 44.8 10.6 44.5001 10.1 44.2001C9.6 43.9001 8.9 43.8 8.2 43.8H4.2V49.6H4.1Z" fill="white"/>
<path d="M17.2002 32.8H21.3002L26.2002 41.6H26.4002L31.3002 32.8H35.4002L28.2002 45.2001V52.6H24.6002V45.2001L17.2002 32.8Z" fill="white"/>
<path d="M44.0996 35.8V32.8H59.8996V35.8H53.7996V52.6H50.1996V35.8H44.0996Z" fill="white"/>
<path d="M63.0996 52.6V32.8H75.9996V35.8H66.6996V41.2001H75.2996V44.2001H66.6996V49.6H76.0996V52.6H63.0996Z" fill="white"/>
<path d="M82.3996 52.6H78.5996L85.5996 32.8H89.9996L96.9996 52.6H93.1996L87.8996 36.8H87.6996L82.3996 52.6ZM82.4996 44.8H92.9996V47.7001H82.4996V44.8Z" fill="white"/>
<path d="M99.7996 32.8H104.2L110.1 47.2001H110.3L116.2 32.8H120.6V52.6H117.1V39H116.9L111.4 52.6H108.8L103.3 39H103.1V52.7001H99.5996V32.8H99.7996Z" fill="white"/>
<path d="M149.3 42.7C149.3 44.8 148.9 46.7 148.1 48.2C147.3 49.7 146.2 50.9 144.8 51.7C143.4 52.5 141.9 52.9 140.1 52.9C138.3 52.9 136.8 52.5 135.4 51.7C134 50.9 132.9 49.7 132.1 48.2C131.3 46.7 130.9 44.9 130.9 42.7C130.9 40.6 131.3 38.7 132.1 37.2C132.9 35.7 134 34.5 135.4 33.7C136.8 32.9 138.3 32.5 140.1 32.5C141.9 32.5 143.4 32.9 144.8 33.7C146.2 34.5 147.3 35.7 148.1 37.2C148.9 38.7 149.3 40.5 149.3 42.7ZM145.7 42.7C145.7 41.2 145.5 39.9 145 38.9C144.5 37.9 143.9 37.1 143.1 36.5C142.3 35.9 141.3 35.7 140.2 35.7C139.1 35.7 138.2 36 137.3 36.5C136.5 37 135.8 37.8 135.4 38.9C134.9 39.9 134.7 41.2 134.7 42.7C134.7 44.2 134.9 45.5 135.4 46.5C135.9 47.5 136.5 48.3 137.3 48.9C138.1 49.4 139.1 49.7 140.2 49.7C141.3 49.7 142.2 49.4 143.1 48.9C143.9 48.4 144.6 47.6 145 46.5C145.5 45.5 145.7 44.2 145.7 42.7Z" fill="white"/>
<path d="M152.9 52.6V32.8H165.6V35.8H156.5V41.2001H164.7V44.2001H156.5V52.6H152.9Z" fill="white"/>
<path d="M17.5 72.2H13.9C13.8 71.6 13.6 71.1 13.3 70.6C13 70.1 12.7 69.7 12.3 69.4C11.9 69.1 11.4 68.8 10.9 68.7C10.4 68.5 9.8 68.5 9.2 68.5C8.1 68.5 7.2 68.8 6.3 69.3C5.5 69.8 4.8 70.6 4.3 71.7C3.8 72.8 3.6 74 3.6 75.5C3.6 77 3.8 78.3 4.3 79.3C4.8 80.3 5.4 81.1 6.3 81.6C7.1 82.1 8.1 82.4 9.2 82.4C9.8 82.4 10.4 82.3 10.9 82.2C11.4 82.1 11.9 81.8 12.3 81.5C12.7 81.2 13.1 80.8 13.4 80.4C13.7 79.9 13.9 79.4 14 78.9H17.6C17.5 79.8 17.2 80.7 16.7 81.6C16.3 82.4 15.7 83.2 14.9 83.8C14.2 84.4 13.3 84.9 12.4 85.3C11.4 85.7 10.4 85.8 9.2 85.8C7.5 85.8 5.9 85.4 4.5 84.6C3.1 83.8 2.1 82.6 1.3 81.1C0.4 79.4 0 77.6 0 75.4C0 73.3 0.4 71.4 1.2 69.9C2 68.4 3.1 67.2 4.4 66.4C5.8 65.6 7.3 65.2 9.1 65.2C10.2 65.2 11.2 65.4 12.2 65.7C13.2 66 14 66.5 14.7 67.1C15.4 67.7 16.1 68.4 16.5 69.3C16.9 70.2 17.3 71.1 17.5 72.2Z" fill="white"/>
<path d="M21 85.3V65.5H28.4C29.9 65.5 31.2 65.8 32.2 66.3C33.2 66.8 34 67.6 34.6 68.5C35.2 69.4 35.4 70.6 35.4 71.8C35.4 73.1 35.1 74.2 34.6 75.1C34.1 76 33.3 76.8 32.2 77.3C31.2 77.8 29.9 78.1 28.3 78.1H23V75.1H27.8C28.7 75.1 29.4 75 30 74.7C30.6 74.5 31 74.1 31.3 73.6C31.6 73.1 31.7 72.5 31.7 71.8C31.7 71.1 31.6 70.5 31.3 70C31 69.5 30.6 69.1 30 68.9C29.4 68.6 28.7 68.5 27.8 68.5H24.5V85.3H21ZM31.2 76.4L36.1 85.4H32.1L27.3 76.4H31.2Z" fill="white"/>
<path d="M37.5 65.5H41.6L46.5 74.3H46.7L51.6 65.5H55.7L48.5 77.9V85.3H44.9V77.9L37.5 65.5Z" fill="white"/>
<path d="M58.2998 85.3V65.5H65.6998C67.1998 65.5 68.4998 65.8 69.4998 66.4C70.4998 67 71.2998 67.7 71.8998 68.7C72.3998 69.7 72.6998 70.8 72.6998 72.1C72.6998 73.4 72.3998 74.5 71.8998 75.5C71.3998 76.5 70.5998 77.3 69.4998 77.8C68.4998 78.4 67.1998 78.6 65.5998 78.6H60.6998V75.6H65.0998C65.9998 75.6 66.6998 75.4 67.2998 75.1C67.8998 74.8 68.2998 74.4 68.5998 73.8C68.8998 73.3 68.9998 72.6 68.9998 71.9C68.9998 71.2 68.8998 70.6 68.5998 70C68.2998 69.5 67.8998 69 67.2998 68.7C66.6998 68.4 65.9998 68.2 65.0998 68.2H61.7998V85H58.2998V85.3Z" fill="white"/>
<path d="M75.0996 68.5V65.5H90.9996V68.5H84.8996V85.3H81.2996V68.5H75.0996Z" fill="white"/>
<path d="M111 75.4C111 77.5 110.6 79.4 109.8 80.9C109 82.4 107.9 83.6 106.5 84.4C105.1 85.2 103.6 85.6 101.8 85.6C99.9996 85.6 98.4996 85.2 97.0996 84.4C95.6996 83.6 94.5996 82.4 93.7996 80.9C92.9996 79.4 92.5996 77.6 92.5996 75.4C92.5996 73.3 92.9996 71.4 93.7996 69.9C94.5996 68.4 95.6996 67.2 97.0996 66.4C98.4996 65.6 99.9996 65.2 101.8 65.2C103.6 65.2 105.1 65.6 106.5 66.4C107.9 67.2 109 68.4 109.8 69.9C110.6 71.4 111 73.3 111 75.4ZM107.4 75.4C107.4 73.9 107.2 72.6 106.7 71.6C106.2 70.6 105.6 69.8 104.8 69.2C104 68.6 103 68.4 101.9 68.4C100.8 68.4 99.8996 68.7 98.9996 69.2C98.1996 69.7 97.4996 70.5 97.0996 71.6C96.5996 72.6 96.3996 73.9 96.3996 75.4C96.3996 76.9 96.5996 78.2 97.0996 79.2C97.5996 80.2 98.1996 81 98.9996 81.6C99.7996 82.1 100.8 82.4 101.9 82.4C103 82.4 103.9 82.1 104.8 81.6C105.6 81.1 106.3 80.3 106.7 79.2C107.2 78.2 107.4 76.9 107.4 75.4Z" fill="white"/>
<path d="M0.5 118.1V98.2H13.4V101.2H4.1V106.6H12.7V109.6H4.1V115H13.5V118H0.5V118.1Z" fill="white"/>
<path d="M33.6002 98.2V118H30.4002L21.0002 104.6H20.8002V118.1H17.2002V98.2H20.4002L29.7002 111.7H30.0002V98.2H33.6002Z" fill="white"/>
<path d="M36.7998 101.3V98.3H52.5998V101.3H46.4998V118.1H42.8998V101.3H36.7998Z" fill="white"/>
<path d="M55.7998 118.1V98.2H59.3998V106.6H68.5998V98.2H72.1998V118H68.5998V109.6H59.3998V118H55.7998V118.1Z" fill="white"/>
<path d="M88.8004 98.2H92.4004V111.2C92.4004 112.6 92.1004 113.9 91.4004 115C90.7004 116.1 89.8004 116.9 88.6004 117.5C87.4004 118.1 86.0004 118.4 84.4004 118.4C82.8004 118.4 81.4004 118.1 80.2004 117.5C79.0004 116.9 78.1004 116.1 77.4004 115C76.7004 113.9 76.4004 112.7 76.4004 111.2V98.2H80.0004V110.9C80.0004 111.7 80.2004 112.5 80.5004 113.1C80.8004 113.7 81.4004 114.3 82.0004 114.6C82.7004 115 83.5004 115.1 84.4004 115.1C85.3004 115.1 86.1004 114.9 86.8004 114.6C87.5004 114.3 88.0004 113.7 88.3004 113.1C88.7004 112.5 88.8004 111.7 88.8004 110.9V98.2Z" fill="white"/>
<path d="M107.2 103.7C107.1 102.9 106.7 102.2 106.1 101.7C105.5 101.2 104.6 101 103.5 101C102.7 101 102.1 101.1 101.6 101.3C101.1 101.5 100.7 101.8 100.4 102.2C100.1 102.6 100 103 100 103.5C100 103.9 100.1 104.3 100.3 104.6C100.5 104.9 100.8 105.2 101.1 105.4C101.4 105.6 101.8 105.8 102.2 105.9C102.6 106 103 106.2 103.4 106.3L105.3 106.8C106 107 106.8 107.2 107.5 107.5C108.2 107.8 108.8 108.2 109.4 108.6C110 109 110.4 109.6 110.7 110.2C111 110.8 111.2 111.6 111.2 112.4C111.2 113.6 110.9 114.6 110.3 115.5C109.7 116.4 108.8 117.1 107.7 117.6C106.6 118.1 105.2 118.3 103.6 118.3C102.1 118.3 100.7 118.1 99.6004 117.6C98.5004 117.1 97.6004 116.4 96.9004 115.5C96.3004 114.6 95.9004 113.5 95.9004 112.1H99.4004C99.5004 112.8 99.7004 113.4 100 113.8C100.4 114.3 100.9 114.6 101.5 114.8C102.1 115 102.8 115.1 103.5 115.1C104.3 115.1 105 115 105.6 114.7C106.2 114.5 106.7 114.1 107 113.7C107.3 113.3 107.5 112.8 107.5 112.2C107.5 111.7 107.3 111.3 107 110.9C106.7 110.6 106.3 110.3 105.8 110C105.3 109.8 104.6 109.6 103.9 109.4L101.6 108.8C100 108.4 98.7004 107.7 97.7004 106.9C96.7004 106.1 96.3004 104.9 96.3004 103.5C96.3004 102.3 96.6004 101.3 97.3004 100.4C97.9004 99.5 98.8004 98.8 99.9004 98.4C101 97.9 102.2 97.7 103.6 97.7C105 97.7 106.2 97.9 107.3 98.4C108.4 98.9 109.2 99.6 109.8 100.4C110.4 101.3 110.7 102.3 110.7 103.4H107.2V103.7Z" fill="white"/>
<path d="M117.9 98.2V118H114.3V98.2H117.9Z" fill="white"/>
<path d="M124.5 118.1H120.7L127.7 98.3H132.1L139.1 118.1H135.3L130 102.3H129.8L124.5 118.1ZM124.7 110.3H135.2V113.2H124.7V110.3Z" fill="white"/>
<path d="M152.4 103.7C152.3 102.9 151.9 102.2 151.3 101.7C150.7 101.2 149.8 101 148.7 101C147.9 101 147.3 101.1 146.8 101.3C146.3 101.5 145.9 101.8 145.6 102.2C145.3 102.6 145.2 103 145.2 103.5C145.2 103.9 145.3 104.3 145.5 104.6C145.7 104.9 146 105.2 146.3 105.4C146.6 105.6 147 105.8 147.4 105.9C147.8 106 148.2 106.2 148.6 106.3L150.5 106.8C151.2 107 152 107.2 152.7 107.5C153.4 107.8 154 108.2 154.6 108.6C155.2 109 155.6 109.6 155.9 110.2C156.2 110.8 156.4 111.6 156.4 112.4C156.4 113.6 156.1 114.6 155.5 115.5C154.9 116.4 154 117.1 152.9 117.6C151.8 118.1 150.4 118.3 148.8 118.3C147.3 118.3 145.9 118.1 144.8 117.6C143.7 117.1 142.8 116.4 142.1 115.5C141.5 114.6 141.1 113.5 141.1 112.1H144.6C144.7 112.8 144.9 113.4 145.2 113.8C145.6 114.3 146.1 114.6 146.7 114.8C147.3 115 148 115.1 148.7 115.1C149.5 115.1 150.2 115 150.8 114.7C151.4 114.5 151.9 114.1 152.2 113.7C152.5 113.3 152.7 112.8 152.7 112.2C152.7 111.7 152.5 111.3 152.2 110.9C151.9 110.6 151.5 110.3 151 110C150.5 109.8 149.8 109.6 149.1 109.4L146.8 108.8C145.2 108.4 143.9 107.7 142.9 106.9C141.9 106.1 141.5 104.9 141.5 103.5C141.5 102.3 141.8 101.3 142.5 100.4C143.1 99.5 144 98.8 145.1 98.4C146.2 97.9 147.4 97.7 148.8 97.7C150.2 97.7 151.4 97.9 152.5 98.4C153.6 98.9 154.4 99.6 155 100.4C155.6 101.3 155.9 102.3 155.9 103.4H152.4V103.7Z" fill="white"/>
<path d="M158.6 101.3V98.3H174.4V101.3H168.3V118.1H164.7V101.3H158.6Z" fill="white"/>
<path d="M188.4 103.7C188.3 102.9 187.9 102.2 187.3 101.7C186.7 101.2 185.8 101 184.7 101C183.9 101 183.3 101.1 182.8 101.3C182.3 101.5 181.9 101.8 181.6 102.2C181.3 102.6 181.2 103 181.2 103.5C181.2 103.9 181.3 104.3 181.5 104.6C181.7 104.9 182 105.2 182.3 105.4C182.6 105.6 183 105.8 183.4 105.9C183.8 106 184.2 106.2 184.6 106.3L186.5 106.8C187.2 107 188 107.2 188.7 107.5C189.4 107.8 190 108.2 190.6 108.6C191.2 109 191.6 109.6 191.9 110.2C192.2 110.8 192.4 111.6 192.4 112.4C192.4 113.6 192.1 114.6 191.5 115.5C190.9 116.4 190 117.1 188.9 117.6C187.8 118.1 186.4 118.3 184.8 118.3C183.3 118.3 181.9 118.1 180.8 117.6C179.7 117.1 178.8 116.4 178.1 115.5C177.5 114.6 177.1 113.5 177.1 112.1H180.6C180.7 112.8 180.9 113.4 181.2 113.8C181.6 114.3 182.1 114.6 182.7 114.8C183.3 115 184 115.1 184.7 115.1C185.5 115.1 186.2 115 186.8 114.7C187.4 114.5 187.9 114.1 188.2 113.7C188.5 113.3 188.7 112.8 188.7 112.2C188.7 111.7 188.5 111.3 188.2 110.9C187.9 110.6 187.5 110.3 187 110C186.5 109.8 185.8 109.6 185.1 109.4L182.8 108.8C181.2 108.4 179.9 107.7 178.9 106.9C177.9 106.1 177.5 104.9 177.5 103.5C177.5 102.3 177.8 101.3 178.5 100.4C179.1 99.5 180 98.8 181.1 98.4C182.2 97.9 183.4 97.7 184.8 97.7C186.2 97.7 187.4 97.9 188.5 98.4C189.6 98.9 190.4 99.6 191 100.4C191.6 101.3 191.9 102.3 191.9 103.4H188.4V103.7Z" fill="white"/>
</svg>
