<svg width="330" height="347" viewBox="0 0 330 347" fill="none" xmlns="http://www.w3.org/2000/svg">
<path d="M330 215V329C330 338.9 321.9 347 312 347H18C8.1 347 0 338.9 0 329V209.6L162.3 47.2998L330 215Z" fill="#FF4200"/>
<path d="M143.9 345.4C154.4 325.1 180.8 290 177.9 279C177.7 278.2 177.7 277.3 178 276.4C174.4 265.6 162.1 234.7 141.8 231.2C140.7 231 139.5 230.9 138.3 230.9C138.2 230.9 138.2 230.9 138.1 230.9C122.5 238.7 103.5 245.6 98.0002 247.5C97.2002 247.8 96.7002 247.9 96.5002 248C96.2002 248.1 95.9002 248.1 95.5002 248.1C92.6002 247.7 88.5002 242.6 84.8002 236.9C82.4002 233.3 80.3002 229.4 78.7002 226.5C77.2002 223.8 76.3002 221.9 76.3002 221.9L71.9002 217.8C70.5002 216.5 69.9002 214.6 70.1002 212.8L70.4002 210.8C67.9002 210.6 66.3002 210.2 66.4002 209.8C66.5002 209.3 66.6002 208.6 66.8002 208C67.2002 206.2 67.9002 204 68.3002 202.1C68.7002 200.2 69.0002 198.4 68.6002 197.5C67.8002 195.4 64.5002 192.9 62.8002 191.7C59.8002 189.5 55.1002 185.9 54.0002 184.6C53.5002 184 53.4002 183.1 53.5002 182.3C53.7002 180.6 54.7002 179 54.7002 179C54.7002 179 71.2002 155.4 70.4002 145.7C69.9002 140 48.3002 125.1 53.8002 94.7997C54.6002 90.1997 55.6002 85.6997 56.6002 81.1997C63.9002 48.9997 75.7002 20.0997 94.0002 8.89967C121 -7.60033 179.7 5.19968 217.2 11.6997C235.3 14.7997 256.3 89.4997 254.2 99.9997C253.7 102.4 248.3 112.9 242 125.6C238.4 132.7 234.6 140.5 231.2 147.8C231 148.2 230.8 148.6 230.7 149C228.5 153.8 226.9 158.8 225.9 163.9C222.2 181.2 224.9 199.4 233.5 215.2L238.9 228.8L252.3 251.1C273.6 278.6 287 242.6 296.5 345.3L143.9 345.4Z" fill="#0055FF"/>
<path d="M253.5 99.8999C253 102.3 247.6 112.8 241.3 125.5C237.7 132.6 233.9 140.4 230.5 147.7C230.3 148.1 230.1 148.5 230 148.9C227.8 153.7 217.5 122.1 217.5 122.1L169.3 130.9L143 121L143.1 115.4L228.9 86.3999L141.8 110.2L131 93.2999L173.2 54L159.9 39.3999L128.8 67.1999C123.8 56.8999 125.8 48.7 116 42C112.1 40.7 77.9 54.7999 65.3 80.4999C65.3 80.4999 58.3 80.3999 56 80.9999C63.2 48.9999 75 19.9999 93.3 8.89994C120.3 -7.60006 179 4.99995 216.5 11.6999C237.3 15.2999 255.6 89.4999 253.5 99.8999Z" fill="black"/>
<path d="M69.0003 187.3C75.4003 191.1 67.2003 195.7 62.4003 191.5C59.6003 189 54.7003 185.7 53.6003 184.4C53.1003 183.8 53.0003 182.9 53.1003 182.1L63.1003 184.2C63.1003 184.3 62.6003 183.6 69.0003 187.3Z" fill="#062784"/>
<path d="M157.3 221.2L139 231.2C139 231.2 152.3 230.1 164.7 250.7C170.3 245.4 170.3 227.3 170.3 227.3L167.6 182.9C168.3 194.5 157.3 221.2 157.3 221.2Z" fill="#0029BC"/>
<path d="M186.6 345.1C187.3 342.3 188.1 339.5 188.9 336.8C189.7 334 190.4 331.2 191.2 328.5C191.6 327.1 192 325.7 192.5 324.3C192.7 323.6 192.9 322.9 193.2 322.2C193.4 321.5 193.7 320.8 193.9 320.1C194.2 319.4 194.4 318.7 194.7 318.1L195.1 317.1L195.6 316.1C196.2 314.8 196.9 313.5 197.7 312.3L198.4 312.6C198.2 313.3 198 314 197.7 314.7L197 316.7C196.8 317.4 196.6 318.1 196.3 318.7C196.1 319.4 195.9 320.1 195.6 320.7C194.7 323.4 194 326.2 193.2 329C192.4 331.8 191.7 334.6 190.9 337.4C190.1 340.2 189.3 343 188.4 345.7L186.6 345.1Z" fill="black"/>
<path d="M168.199 183.1C168.099 184.6 167.999 186 167.799 187.5C167.699 189 167.499 190.4 167.299 191.9C167.099 193.4 166.899 194.8 166.699 196.3C166.499 197.8 166.299 199.2 165.999 200.7C165.499 203.6 164.899 206.5 164.099 209.4C163.399 212.3 162.499 215.2 161.299 218C160.999 218.7 160.599 219.4 160.199 220.1C159.799 220.8 159.299 221.5 158.699 222.2C158.399 222.5 157.999 222.9 157.499 223.2L157.399 223.3H157.299L157.199 223.4L156.899 223.6C156.699 223.7 156.599 223.8 156.399 223.9C155.699 224.3 155.099 224.6 154.399 225C151.699 226.3 149.099 227.6 146.399 228.9C143.799 230.2 141.099 231.4 138.499 232.7C137.199 233.3 135.799 234 134.499 234.6C133.199 235.2 131.799 235.9 130.499 236.5C129.199 237.1 127.799 237.7 126.499 238.3L124.499 239.2L122.499 240.1C121.099 240.7 119.799 241.2 118.399 241.8C116.999 242.4 115.699 242.9 114.299 243.4C111.599 244.5 108.799 245.5 105.999 246.5C103.199 247.5 100.499 248.5 97.6994 249.4L97.1994 249.6L96.5994 249.8H96.4994H96.3994C96.2994 249.8 96.1994 249.8 96.1994 249.9C95.9994 249.9 95.8994 250 95.6994 250C95.3994 250 95.0994 250 94.7994 250C94.1994 249.9 93.7994 249.7 93.2994 249.5C92.8994 249.3 92.4994 249.1 92.0994 248.8C91.3994 248.3 90.7994 247.8 90.1994 247.2C89.5994 246.7 89.0994 246.1 88.5994 245.5C87.5994 244.3 86.6994 243.1 85.7994 241.9C84.8994 240.7 84.0994 239.4 83.2994 238.2C81.6994 235.7 80.1994 233.1 78.7994 230.5C77.3994 227.9 76.0994 225.3 74.7994 222.6L74.9994 222.9L72.2994 220.4L70.9994 219.1L70.6994 218.8L70.5994 218.7L70.4994 218.6L70.2994 218.4C70.0994 218.1 69.7994 217.9 69.5994 217.6C68.7994 216.4 68.3994 215 68.3994 213.5C68.3994 213.2 68.4994 212.8 68.4994 212.5L68.5994 211.6L68.7994 209.8L70.8994 210.1L70.6994 211.9C70.5994 212.5 70.4994 213.1 70.4994 213.6C70.4994 214.6 70.7994 215.6 71.3994 216.4C71.4994 216.6 71.6994 216.8 71.8994 217L71.9994 217.1L72.0994 217.2L72.1994 217.3L72.4994 217.6L73.7994 218.9L76.4994 221.4L76.5994 221.5L76.6994 221.7C78.0994 224.3 79.4994 226.8 80.9994 229.3C82.4994 231.8 83.9994 234.3 85.5994 236.7C87.1994 239.1 88.8994 241.4 90.7994 243.5C91.6994 244.5 92.6994 245.5 93.7994 246.2C94.2994 246.5 94.7994 246.8 95.1994 246.8C95.2994 246.8 95.3994 246.8 95.3994 246.8H95.4994H95.5994L96.0994 246.6L96.5994 246.4C97.9994 245.9 99.2994 245.4 100.699 244.9L104.799 243.4C107.499 242.4 110.199 241.3 112.999 240.2C118.399 238 123.799 235.7 129.099 233.3C130.399 232.7 131.699 232.1 133.099 231.5L136.999 229.6C139.699 228.3 142.299 227.1 144.999 225.8C147.599 224.6 150.299 223.3 152.899 222C153.499 221.7 154.199 221.3 154.799 221C154.999 220.9 155.099 220.8 155.199 220.7L155.399 220.6L155.499 220.5H155.599C155.699 220.4 155.899 220.3 156.099 220.1C156.499 219.7 156.799 219.2 157.199 218.6C157.499 218 157.799 217.4 158.099 216.8C158.699 215.6 159.199 214.2 159.699 212.9C160.199 211.6 160.599 210.2 160.999 208.8C161.799 206 162.599 203.2 163.199 200.4C164.599 194.7 165.799 189 166.999 183.3L168.199 183.1Z" fill="black"/>
<path d="M68.2998 188.2C68.1998 188.1 60.6998 182.7 53.2998 184.4L52.7998 182.4C61.0998 180.5 69.0998 186.3 69.4998 186.6L68.2998 188.2Z" fill="black"/>
<path d="M142.2 346.5L143 345C146.4 338.5 151.2 330.7 156.4 322.4C166.9 305.6 178.8 286.5 176.9 279.4C176.9 279.3 174.3 268.7 168.1 257.7C164.5 251.2 160.4 245.9 155.9 241.7C150.3 236.6 144.1 233.3 137.5 232.1L137.9 230.1C144.9 231.4 151.5 234.8 157.4 240.3C162.1 244.6 166.3 250.2 170 256.8C176.3 268.1 179 278.9 179 279C181.1 286.9 169.5 305.6 158.3 323.6C153.5 331.2 149 338.5 145.8 344.6L295.3 344.2C288.8 274 280.4 270.2 269 265.1C263.8 262.7 257.8 260.1 251.1 251.3C235.7 228.8 226.5 208 223.9 189.5C221.8 175 223.7 161.6 229.5 148.7C229.7 148.3 229.9 147.9 230 147.5C234.3 138.2 239.3 128.4 243.6 119.7C248.4 110.1 252.6 101.9 252.9 99.9998C253.7 95.9998 250.8 81.3998 246.1 65.8998C240.4 47.1998 233.5 31.1998 227.2 21.9998C223.4 16.4998 219.9 13.3998 216.8 12.8998C213.1 12.2998 209.1 11.5998 205 10.7998C168.4 4.29978 118.4 -4.70022 94.2998 9.99978C81.9998 17.4998 65.0998 38.3998 54.5998 95.1998C50.5998 116.9 60.7998 130.4 66.8998 138.6C69.3998 141.9 70.9998 144 71.0998 145.9C71.8998 155.8 56.0998 178.6 55.1998 179.9C54.6998 180.7 53.4998 183.2 54.3998 184.3C55.0998 185.2 58.1998 187.7 62.9998 191.2C64.7998 192.6 68.1998 195.1 69.0998 197.5C69.6998 199.2 68.8998 202.4 67.6998 206.9C67.3998 208 67.1998 209 66.9998 209.8C67.3998 209.9 68.2998 210.1 69.9998 210.2L69.7998 212.3C66.3998 212 65.4998 211.6 65.0998 211C64.8998 210.7 64.7998 210.4 64.8998 210C65.0998 209 65.3998 207.7 65.7998 206.3C66.4998 203.7 67.5998 199.4 67.1998 198.2C66.4998 196.4 63.1998 193.9 61.7998 192.9C56.6998 189.1 53.6998 186.7 52.7998 185.6C50.7998 183.2 53.1998 179.3 53.3998 178.8C53.5998 178.6 69.6998 155.4 68.9998 146.2C68.8998 145 67.1998 142.7 65.1998 140C62.0998 135.9 57.8998 130.3 54.9998 122.9C51.4998 114.2 50.6998 104.8 52.4998 94.9998C58.3998 63.2998 70.1998 22.4998 93.0998 8.39977C104.1 1.69977 120.9 -0.900221 144.6 0.499779C164.8 1.69978 186.3 5.49977 205.2 8.89977C209.3 9.59977 213.3 10.2998 217 10.9998C220.7 11.5998 224.7 14.9998 228.8 20.9998C243.2 42.0998 256.6 91.6998 254.8 100.5C254.4 102.6 251.1 109.2 245.3 120.7C241 129.3 236 139.1 231.7 148.4C231.5 148.8 231.3 149.2 231.2 149.6C225.6 162.2 223.8 175.2 225.8 189.3C228.4 207.5 237.4 228 252.7 250.2C259.1 258.6 264.7 261.1 269.7 263.4C281.9 268.9 290.7 272.8 297.4 345.4L297.5 346.5H142.2Z" fill="black"/>
<path d="M298.901 346.7L219.901 346.6L140.801 346.4H139.101L139.801 344.9C142.601 339.2 145.701 333.7 148.801 328.3C152.001 322.9 155.201 317.5 158.401 312.1C161.601 306.7 164.901 301.3 168.101 295.9C171.301 290.5 174.301 285 177.001 279.4L177.901 277.6L178.901 279.3C179.401 279.4 179.801 279.5 180.201 279.6C180.601 279.6 180.801 279.6 181.001 279.6C181.201 279.6 181.401 279.5 181.601 279.4C181.801 279.4 182.001 279.3 182.201 279.3C182.401 279.3 182.701 279.2 183.001 279.2C183.301 279.2 183.601 279.1 183.901 279C184.501 278.8 185.201 278.6 185.901 278.3C187.301 277.7 188.701 277 190.201 276.2C191.601 275.4 193.101 274.5 194.501 273.6C197.301 271.8 200.201 269.9 203.001 267.9C205.801 266 208.701 264 211.601 262.1C217.401 258.3 223.401 254.6 229.801 251.6C233.001 250.1 236.301 248.8 239.801 247.8C243.201 246.9 246.801 246.3 250.401 246.4H250.801L251.001 246.5C252.101 247.2 253.101 247.8 254.101 248.5C255.101 249.2 256.101 249.9 257.101 250.6C259.001 252 260.901 253.5 262.801 255.1C266.501 258.2 270.101 261.5 273.401 265C276.701 268.5 279.801 272.2 282.601 276.2C285.401 280.2 287.801 284.4 289.601 288.9C290.501 291.1 291.301 293.5 292.001 295.8C292.201 296.4 292.301 297 292.401 297.6L292.801 299.4L293.601 302.9C294.601 307.6 295.501 312.3 296.301 317.1C297.101 321.8 297.801 326.6 298.301 331.4C298.601 333.8 298.801 336.2 299.001 338.6L299.101 340.4L299.201 342.2C299.201 342.8 299.201 343.4 299.301 344V344.9V345.4V345.6V345.7V345.8C299.301 345.9 299.301 346 299.201 346.1C299.101 346.4 299.001 346.6 298.901 346.7ZM297.501 345.2C297.401 345.3 297.301 345.3 297.301 345.5C297.301 345.6 297.301 345.6 297.201 345.7V345.8C297.201 345.8 297.201 345.9 297.201 345.8V345.6V345.2V344.3C297.201 343.7 297.201 343.1 297.101 342.5L297.001 340.7L296.901 338.9C296.701 336.5 296.501 334.2 296.301 331.8C295.801 327.1 295.101 322.3 294.301 317.6C293.501 312.9 292.601 308.2 291.601 303.5L290.801 300L290.401 298.3C290.301 297.7 290.101 297.2 290.001 296.6C289.401 294.3 288.601 292.1 287.701 289.9C285.901 285.6 283.601 281.4 280.901 277.5C278.201 273.6 275.201 270 271.901 266.5C268.601 263.1 265.101 259.8 261.501 256.8C259.701 255.3 257.801 253.8 255.901 252.4C254.901 251.7 254.001 251 253.001 250.3C252.001 249.6 251.001 249 250.001 248.4L250.601 248.5C247.301 248.8 244.101 249.7 241.001 250.9C237.901 252.1 234.901 253.6 232.001 255.3C226.101 258.6 220.601 262.5 215.001 266.6C209.401 270.6 204.001 274.8 198.101 278.7C196.601 279.7 195.101 280.6 193.601 281.5C192.001 282.4 190.401 283.3 188.601 284C187.701 284.4 186.801 284.7 185.701 285C185.201 285.1 184.701 285.2 184.101 285.3C183.501 285.4 182.901 285.4 182.301 285.4C181.701 285.3 181.001 285.2 180.401 284.9C179.801 284.6 179.101 284.2 178.601 283.8C178.101 283.3 177.701 282.7 177.501 282.1C177.301 281.5 177.201 280.9 177.301 280.2H179.201C176.501 285.9 173.301 291.4 170.201 296.9C167.001 302.3 163.801 307.7 160.501 313.1C157.301 318.5 154.001 323.9 150.901 329.3C147.801 334.7 144.701 340.2 141.901 345.8L141.001 344.3L219.301 344.7L297.501 345.2Z" fill="black"/>
<path d="M298.2 346L221.6 345.7H217.5L199.3 345.6H193H182.4H179.5L140.8 345.5C141.8 344.8 166.4 281.7 166.4 281.7C166.4 281.7 169.5 283.1 172.6 281.8C174.9 280.8 177.1 278.2 178 272.5C178.4 269.6 177.1 265.5 175.1 261.1C170.4 251.1 161.9 239.9 161.9 239.9C163.5 239.4 165.1 238.8 166.7 238.2C173.1 235.8 179.6 233.1 186 230C204.1 221.3 221.3 210.2 233.9 199.4C236.5 206.6 250.3 225.7 256 234C263.5 244.9 269.3 252.3 276.7 266.3C277.8 268.4 278.9 270.4 279.9 272.5C284.9 282.3 289.1 291.4 291.3 298.1C291.8 299.5 292.2 300.9 292.6 302.3C292.7 302.6 292.8 303 292.9 303.3C299.4 325.3 298.2 346 298.2 346Z" fill="#ABE007"/>
<path d="M298.2 346.6L140.8 346.1L140.4 344.8C140.3 344.9 140.3 344.9 140.3 344.9C141.4 343.3 156.1 306 165.8 281.3L166.7 280.9C166.7 280.9 169.6 282.2 172.3 281C174.9 279.8 176.5 276.9 177.3 272.2C177.7 269.8 176.7 266.1 174.4 261.2C169.8 251.4 161.4 240.3 161.3 240.2L161.6 239.1C163.2 238.6 164.8 238 166.4 237.4C172.7 235.1 179.1 232.3 185.7 229.2C203.3 220.7 220.7 209.6 233.4 198.7L234.5 199C236.7 204.9 246.6 219.2 253.2 228.7C254.5 230.5 255.6 232.1 256.5 233.4C258 235.6 259.5 237.7 260.9 239.8C266.5 247.8 271.3 254.7 277.2 265.7C278.3 267.7 279.4 269.8 280.4 271.9C285.7 282.3 289.7 291.2 291.9 297.6C292.4 299 292.8 300.4 293.2 301.8C293.3 302.1 293.4 302.5 293.5 302.8C299.9 324.9 298.7 345.7 298.7 346L298.2 346.6ZM141.9 344.7L297.5 345.2C297.6 341.5 298 322.9 292.3 303.2C292.2 302.9 292.1 302.5 292 302.2C291.6 300.8 291.1 299.4 290.7 298.1C288.6 291.8 284.6 283 279.3 272.6C278.2 270.5 277.2 268.5 276.1 266.5C270.2 255.5 265.4 248.6 259.9 240.7C258.5 238.7 257 236.6 255.4 234.3C254.5 233 253.4 231.4 252.1 229.6C245.8 220.5 236.4 207.1 233.6 200.5C220.9 211.2 203.7 222.1 186.3 230.5C179.7 233.7 173.2 236.5 166.9 238.8C165.6 239.3 164.2 239.8 162.9 240.2C164.9 242.9 171.6 252.3 175.6 260.7C178 265.8 179 269.8 178.6 272.5C177.8 277.7 175.9 281 172.8 282.4C170.3 283.5 167.9 283 166.7 282.6C165.5 285.7 160 299.7 154.5 313.6C146 335.3 143.1 342.4 141.9 344.7Z" fill="black"/>
<path d="M205.601 233.2C201.201 228.3 208.501 221.2 207.101 222C189.901 226.5 193.701 256.5 193.901 258.1C193.401 254.9 191.701 243.4 191.301 241.4C190.301 236.2 188.301 232.5 186.001 230C179.601 233.1 173.101 235.9 166.701 238.2C169.501 238.7 171.801 238.7 173.001 238.5C177.801 237.6 171.901 245.3 171.401 247.5C170.401 252.2 171.501 255.2 174.801 257.2C176.301 258.1 177.701 259.1 179.201 260.1C179.001 260.5 178.901 260.9 178.701 261.3C177.901 261.2 177.101 261 176.301 261C175.801 261 175.401 261 174.901 261.1C176.901 265.5 178.301 269.6 177.801 272.5C176.901 278.3 174.701 280.8 172.401 281.8C173.401 281.8 174.701 281.5 176.101 281.2C181.101 279.9 185.701 280.1 189.901 281.9C190.701 282.2 191.501 282.4 192.401 282.6C193.001 277.2 193.501 272.3 194.101 266.9C198.701 267.6 202.901 268.2 207.401 268.8C206.201 260.9 208.201 253.4 211.101 245.8C213.001 241.4 206.501 234.2 205.601 233.2ZM292.701 302C291.001 301.2 288.301 299.8 284.901 297.8C284.801 297.9 284.701 298 284.601 298.1C284.401 298.3 284.201 298.5 284.001 298.7C283.901 298.8 283.801 299 283.601 299.1C283.101 299.6 282.701 300.2 282.201 300.7C281.701 301.3 281.301 301.9 280.801 302.5C280.601 302.7 280.501 302.9 280.301 303.2C280.201 303.4 280.101 303.5 279.901 303.7C279.801 303.8 279.701 304 279.601 304.1C279.501 304.2 279.401 304.4 279.301 304.5L278.901 305C283.201 304 287.901 303.3 292.801 302.9C293.301 302.9 293.801 302.8 294.301 302.8C294.501 302.9 293.801 302.6 292.701 302ZM161.701 324.9C162.001 324.8 162.301 324.8 162.601 324.7C162.301 324.7 162.001 324.8 161.701 324.9ZM198.101 295.7C192.501 288.7 185.201 285.5 175.701 287.5C170.701 288.6 166.501 291.7 163.301 297C160.201 302.3 160.501 304.5 164.601 306.9C165.101 307.2 165.601 307.5 166.401 308C166.301 308.1 166.201 308.1 166.201 308.2C166.101 308.3 166.001 308.4 165.901 308.5C165.701 308.7 165.501 308.8 165.301 309C165.201 309.1 165.001 309.3 164.901 309.4C164.701 309.6 164.501 309.8 164.201 310C164.101 310.1 164.001 310.2 163.801 310.4L163.701 310.5C163.601 310.6 163.501 310.7 163.301 310.9C163.001 311.2 162.701 311.6 162.401 311.9C162.301 312.1 162.101 312.2 162.001 312.4C162.001 312.4 162.001 312.4 162.001 312.5C161.901 312.6 161.801 312.7 161.701 312.8C161.501 313 161.301 313.2 161.201 313.4C161.101 313.5 161.001 313.7 160.901 313.8C160.801 313.9 160.801 314 160.701 314.1C160.601 314.3 160.501 314.4 160.401 314.6C160.301 314.7 160.201 314.8 160.201 314.9C160.201 314.9 160.201 314.9 160.201 315C160.101 315.1 160.001 315.2 160.001 315.4C160.001 315.4 160.001 315.5 159.901 315.5C159.901 315.5 159.901 315.6 159.801 315.6C159.601 315.9 159.401 316.2 159.301 316.5C159.301 316.6 159.201 316.7 159.201 316.7C159.201 316.7 159.201 316.8 159.101 316.8C161.701 318.9 164.301 321.2 166.701 324C166.801 324 166.901 324 167.001 323.9C167.201 323.9 167.401 323.8 167.601 323.8C167.701 323.8 167.801 323.8 167.901 323.7C168.001 323.7 168.201 323.6 168.301 323.6C168.401 323.6 168.601 323.5 168.701 323.5C168.801 323.5 168.901 323.4 169.001 323.4C169.201 323.4 169.301 323.3 169.501 323.2C169.601 323.2 169.601 323.2 169.701 323.1C169.701 323.1 169.701 323.1 169.801 323.1C169.901 323.1 170.001 323 170.101 323C170.201 323 170.301 322.9 170.301 322.9C170.401 322.9 170.401 322.8 170.501 322.8C170.601 322.8 170.701 322.7 170.701 322.7C170.801 322.7 170.901 322.6 170.901 322.6C171.101 322.5 171.201 322.4 171.401 322.3C171.501 322.3 171.601 322.2 171.601 322.2C171.701 322.2 171.801 322.1 171.801 322.1C171.901 322.1 171.901 322 172.001 322C172.101 322 172.101 321.9 172.201 321.9C172.301 321.9 172.301 321.8 172.401 321.8C172.501 321.8 172.501 321.7 172.601 321.7C172.701 321.7 172.701 321.6 172.801 321.6C172.901 321.5 173.101 321.4 173.201 321.3C173.301 321.2 173.501 321.1 173.601 320.9C173.701 320.8 173.701 320.8 173.801 320.7C173.901 320.6 173.901 320.6 174.001 320.5C174.201 320.3 174.301 320.2 174.501 320L174.601 319.9C174.701 319.8 174.701 319.8 174.801 319.7C174.901 319.6 174.901 319.6 175.001 319.5C175.101 319.4 175.101 319.4 175.201 319.3C175.401 319.1 175.501 318.9 175.701 318.6C175.801 318.5 175.901 318.4 176.001 318.2C175.701 320.9 175.401 322.5 175.401 324.1C175.401 326.8 176.301 328.9 178.701 329.2C181.001 329.5 182.401 327.8 183.301 325.1C183.601 324 184.701 322.8 185.601 322.2C190.501 318.9 192.301 314.1 193.001 308.6C193.601 304.3 194.701 300.3 199.201 297.9C198.601 296.9 198.501 296.2 198.101 295.7ZM245.101 258.6C243.801 258.2 242.301 258.1 240.001 257.7C240.301 257.5 240.501 257.4 240.801 257.2C240.901 257.1 241.001 257.1 241.101 257C241.201 256.9 241.301 256.8 241.401 256.8C241.501 256.7 241.601 256.6 241.701 256.6C241.801 256.5 241.901 256.4 242.101 256.3C242.201 256.2 242.201 256.2 242.301 256.1C242.901 255.6 243.401 255.1 243.801 254.5C243.901 254.4 243.901 254.3 244.001 254.3C244.201 254.1 244.301 253.9 244.401 253.7C244.401 253.6 244.501 253.6 244.501 253.5C244.601 253.4 244.601 253.3 244.701 253.2C244.801 253.1 244.901 252.9 245.001 252.7C245.001 252.6 245.101 252.6 245.101 252.5C245.101 252.5 245.101 252.4 245.201 252.4C245.301 252.3 245.301 252.1 245.401 252C245.401 251.9 245.501 251.9 245.501 251.8C244.701 247.1 244.801 242.1 245.901 236.8C245.801 236.8 245.701 236.8 245.601 236.8H245.501C245.301 236.8 245.001 236.9 244.801 236.9C244.701 236.9 244.501 237 244.401 237C244.301 237 244.301 237 244.201 237C244.101 237 244.001 237.1 243.901 237.1C243.801 237.1 243.701 237.2 243.601 237.2C243.501 237.2 243.401 237.3 243.301 237.3C243.201 237.3 243.201 237.4 243.101 237.4C243.001 237.4 243.001 237.5 242.901 237.5C242.801 237.5 242.701 237.6 242.601 237.6C242.301 237.7 242.001 237.9 241.701 238C241.601 238 241.501 238.1 241.401 238.1C241.301 238.2 241.201 238.2 241.101 238.3C240.701 238.5 240.301 238.8 239.801 239.1C239.701 239.2 239.601 239.3 239.401 239.3L239.101 239.5C238.801 239.7 238.501 239.9 238.201 240.2C238.101 240.3 237.901 240.4 237.801 240.5C237.601 240.7 237.401 240.8 237.201 241C237.101 241.1 237.001 241.2 236.801 241.3C236.501 241.6 236.201 241.9 235.901 242.1C235.801 242.2 235.601 242.3 235.501 242.5C235.301 242.7 235.101 242.9 234.901 243C234.801 243.1 234.701 243.2 234.601 243.2C234.401 243.4 234.301 243.5 234.101 243.7L233.901 243.9C233.601 242.4 233.501 241.4 233.301 240.5C233.201 240 233.101 239.5 232.901 239.1C232.701 238.4 232.501 237.9 232.201 237.4C231.601 236.4 230.701 236.2 229.201 236.5C228.601 236.6 228.001 236.8 227.201 237.1C223.801 238.3 220.801 240.4 218.501 243.8C211.601 254.3 211.601 264.3 214.601 274.1C215.201 276.1 216.401 277.8 217.601 280.3C220.701 275.4 224.001 274.7 227.501 275.1C228.301 275.2 229.201 275.2 230.001 275.2C232.701 275.3 235.301 274.5 237.601 272.7C238.401 272.1 239.201 271.3 240.001 270.4C241.201 269 243.001 268.5 244.501 267.5C244.601 267.5 244.601 267.4 244.701 267.4C245.701 266.7 246.901 265.9 247.401 264.8C249.101 262.5 247.801 259.3 245.101 258.6ZM228.501 343.6C229.201 344 229.901 344.5 230.601 344.9C229.901 344.4 229.201 344 228.501 343.6ZM234.501 333.6C234.401 333.5 234.301 333.5 234.201 333.4C234.101 333.3 234.001 333.2 233.801 333.2C233.801 333.2 233.801 333.2 233.701 333.2C233.601 333.1 233.501 333.1 233.401 333C233.301 332.9 233.201 332.9 233.001 332.8C233.001 332.8 233.001 332.8 232.901 332.8C232.801 332.8 232.801 332.7 232.701 332.7C232.301 332.5 231.901 332.3 231.501 332.2C231.401 332.2 231.401 332.2 231.301 332.1C231.201 332.1 231.101 332 231.001 332C230.901 332 230.801 331.9 230.701 331.9C230.601 331.9 230.601 331.9 230.501 331.8C230.401 331.8 230.301 331.7 230.201 331.7C230.101 331.7 230.001 331.6 229.801 331.6C229.701 331.6 229.501 331.5 229.401 331.5H229.301C229.201 331.5 229.001 331.4 228.901 331.4C228.701 331.4 228.601 331.3 228.401 331.3C228.201 331.3 228.101 331.2 227.901 331.2C222.401 330.3 217.001 333.3 213.901 338.7C216.901 339.4 220.101 339.7 223.001 340.9C223.301 341 223.701 341.2 224.001 341.3C224.201 341.4 224.401 341.5 224.601 341.6C225.001 341.8 225.401 342 225.801 342.2C225.901 342.2 226.001 342.3 226.101 342.3C226.201 342.4 226.301 342.4 226.501 342.5C226.701 342.6 226.801 342.7 227.001 342.8C227.101 342.9 227.201 342.9 227.301 343C227.401 343.1 227.601 343.1 227.701 343.2C227.701 343.2 227.701 343.2 227.801 343.2C228.001 343.3 228.201 343.4 228.401 343.6C230.201 340.2 232.301 336.9 234.501 333.6C234.501 333.7 234.501 333.6 234.501 333.6ZM247.401 307.2C242.001 310.1 238.901 314.5 237.801 320.4C237.501 322.1 237.401 323.7 237.401 325.3C237.401 325.5 237.401 325.7 237.401 325.9C237.401 326.1 237.401 326.2 237.401 326.4C237.401 326.7 237.401 327.1 237.501 327.4C237.501 327.5 237.501 327.6 237.501 327.7C237.501 327.9 237.501 328.1 237.601 328.4C237.601 328.6 237.701 328.8 237.701 329.1C237.701 329.2 237.701 329.2 237.701 329.3C237.701 329.4 237.701 329.5 237.801 329.6V329.7C240.401 326.6 243.301 323.7 246.501 321C246.101 316.6 246.301 312 247.401 307.2ZM220.501 281.1C219.401 282 218.401 283.1 217.101 284.3C212.601 276.8 206.801 271.9 197.701 272.1C195.501 282.6 197.801 290.7 202.801 297.8C201.801 298.8 201.101 299.5 200.301 300.1C195.701 304.2 195.201 309 199.101 312.1C199.801 312.6 201.501 312.5 202.201 311.8C206.401 307.7 210.601 307.2 214.401 309.2C217.601 310.9 220.401 313.2 223.301 315.4C224.701 316.5 226.001 317.8 227.401 318.9C227.601 318.7 227.801 318.5 228.001 318.2C227.701 317.3 227.401 316.4 227.101 315.4C225.801 310.5 224.201 305.7 223.401 300.6C222.601 295.7 224.001 290.8 228.501 287C229.101 286.5 229.701 285.2 229.701 284.5C229.501 279.4 224.501 277.5 220.501 281.1ZM255.401 313.6C255.401 313.6 255.301 313.6 255.401 313.6C255.301 313.5 255.301 313.5 255.201 313.5L255.101 313.4C254.201 312.9 252.001 313 251.701 313.5C251.401 314.1 251.101 314.8 251.001 315.6C251.001 315.8 250.901 315.9 250.901 316.1C250.901 316.2 250.901 316.3 250.901 316.4C250.901 316.5 250.901 316.6 250.901 316.7C250.901 316.8 250.901 317 250.901 317.1C250.901 317.2 250.901 317.3 250.901 317.3C252.501 316.2 254.201 315.1 255.901 314C255.701 313.9 255.601 313.8 255.401 313.6ZM268.501 288.9C267.601 284.8 264.301 283.3 260.301 283.9C257.001 284.4 254.401 286.3 252.301 289.8C257.901 291.4 258.001 291.4 255.701 298.3C254.301 302.5 254.201 306.5 255.301 310.1C255.401 310.3 255.401 310.5 255.501 310.6V310.7C255.501 310.8 255.601 310.9 255.601 311C255.901 311.9 256.301 312.8 256.601 313.7C260.101 311.7 264.001 309.9 268.201 308.3C268.301 308 268.301 307.8 268.401 307.5C268.401 307.3 268.501 307.2 268.501 307C268.501 306.9 268.501 306.8 268.601 306.7C268.601 306.5 268.701 306.3 268.701 306.1V306C268.701 305.8 268.801 305.7 268.801 305.5C268.801 305.4 268.901 305.2 268.901 305.1C269.001 304.8 269.001 304.6 269.001 304.3C269.001 304.2 269.001 304.1 269.101 304C269.101 303.8 269.101 303.7 269.201 303.5V303.4C269.201 303.2 269.201 303 269.301 302.9C269.301 302.8 269.301 302.7 269.301 302.6C269.301 302.5 269.301 302.3 269.301 302.2C269.601 297.6 269.401 292.9 268.501 288.9ZM217.701 345.5C217.601 345.6 217.601 345.6 217.501 345.7H221.601C220.601 344.1 219.101 344.4 217.701 345.5ZM198.501 344.2C198.101 343.4 200.001 338.8 200.001 337.2C195.001 338.5 194.201 343.3 193.001 345.5H199.301C199.001 345.2 198.701 344.6 198.501 344.2ZM182.301 336.9C181.401 336.2 179.701 336.3 178.501 336.7C177.701 337 177.001 337.6 176.301 338.2C177.501 340.5 176.101 343.5 173.901 345.7L182.401 345.6C182.401 344.9 182.301 344.1 182.101 343.4C181.901 342.7 182.401 341.7 182.401 340.8C182.501 339.4 182.901 337.3 182.301 336.9ZM273.801 290.7V290.8C273.801 291.2 273.801 291.6 273.801 292C273.801 292.9 273.801 293.7 273.701 294.6C273.701 295.6 273.601 296.5 273.601 297.5C273.601 298.5 273.501 299.4 273.501 300.4C273.501 300.8 273.501 301.2 273.501 301.6C273.501 303 273.701 304.3 273.901 305.6C274.901 304.4 275.101 303.3 275.501 302.2C276.401 299.9 277.201 297.6 278.101 295.4C278.201 295.2 278.301 294.9 278.401 294.7C278.501 294.4 278.601 294.2 278.701 293.9C278.701 293.9 278.701 293.9 278.701 293.8C277.101 293 275.501 291.9 273.801 290.7ZM245.501 284.4C244.601 279.2 240.301 277 236.001 279.6C238.301 284.3 236.201 288.9 233.101 293.5C227.301 302.1 227.201 310.4 232.401 316.1C234.701 311.5 237.101 306.7 239.601 302C240.801 299.8 242.401 297.7 243.601 295.5C245.501 291.8 246.101 288 245.501 284.4Z" fill="#8CAD00"/>
<path d="M225.1 324.8C218.8 324 213.4 327.4 207.9 330.5C203.6 332.9 199.5 333.4 195.8 331.1C192 328.8 191.3 323.8 194.2 318.8C197.3 322.4 201.3 321.6 205.7 319.1C214.5 314.1 220.1 315.6 225.1 324.8Z" fill="#8CAD00"/>
<path d="M178.9 333.4C174.1 333.9 170.7 337.4 167.2 340.5C164.4 343 161.5 344.1 158.4 343.1C155.2 342 153.9 338.4 155.1 334.2C158 336.4 160.8 335.1 163.6 332.5C169.3 327.3 173.7 327.5 178.9 333.4Z" fill="#8CAD00"/>
<path d="M213.2 302.3C213.8 304.1 214.3 305.8 214.7 307.6C215.1 309.4 215.4 311.2 215.6 313.1C216 316.8 216 320.4 215.9 324.1C215.8 325.9 215.7 327.8 215.5 329.6C215.3 331.4 215.1 333.2 214.8 335.1C214.5 336.9 214.2 338.7 213.8 340.5C213.6 341.4 213.4 342.3 213.2 343.2C213 344.1 212.7 345 212.5 345.9L209.9 345.1C210.2 344.3 210.4 343.4 210.7 342.6C210.9 341.7 211.2 340.9 211.4 340C211.8 338.3 212.2 336.5 212.5 334.8C212.8 333 213.1 331.3 213.4 329.5C213.6 327.7 213.8 325.9 214 324.2C214.3 320.6 214.3 317.1 214 313.5C213.9 311.7 213.6 310 213.3 308.2C213 306.5 212.5 304.7 212 303L213.2 302.3Z" fill="black"/>
<path d="M298.2 346L258.5 346.8C258.5 346.8 277.6 337.5 245.8 341.5C244.8 329.4 277.1 321.7 277.1 321.7C277.1 321.7 264.4 318.5 245 328.1C265.3 304.6 242.6 296.6 247.7 285.5C259 277.2 230.5 273.7 264.2 260.3C257.3 250.1 243.8 259.3 230.1 272.6C234.1 265.8 234.5 261.5 219.3 270C230.8 261 243.4 253.4 251.9 248.5C246.1 245.4 244.4 230.6 231.9 237.7C238 226.2 235.1 209.4 200.4 223.2C225.3 210.1 233.8 199.5 233.8 199.5C233.8 199.5 241 212.4 251.6 228.4C260.8 242.1 276.4 260.2 283.1 274.9C288.1 284.7 289 291.4 291.2 298.1C299.6 322 298.2 346 298.2 346Z" fill="#8CAD00"/>
<path d="M299.1 347H298.2L137.7 346.4L140.1 344.6C141.6 341.9 156 305.4 165.5 281.2L165.9 280.2L166.9 280.7C166.9 280.7 169.9 282 172.6 280.6C174.9 279.4 176.3 276.6 177 272.2C177.6 268.6 175 262 169.6 253.1C165.5 246.3 161.1 240.5 161.1 240.4L160.2 239.2L161.6 238.7C186.1 230.5 214.3 214.7 233.3 198.4L234.3 197.5L234.9 198.7C242.9 215.3 254.6 230.3 262.4 240.2C266.2 245 268.9 248.5 270 250.6C271.3 253.1 275.4 259.5 278.6 264.6C281 268.4 282.9 271.3 283.3 272.2C288.2 281.9 291.4 293.3 293.3 300.2L293.5 300.8C301.1 328.5 299.3 345.2 299.2 345.9L299.1 347ZM142.5 344.4L297.3 344.9C297.6 341 298.1 325.3 291.5 301.6L291.3 301C289.4 294.2 286.3 282.9 281.5 273.4C281.1 272.6 279 269.4 276.9 266C273.6 260.8 269.5 254.4 268.2 251.8C267.2 249.9 264.4 246.3 260.8 241.7C253.1 231.9 241.7 217.3 233.6 201C214.8 216.8 187.6 232.1 163.6 240.4C165.1 242.4 168.3 247 171.4 252.1C177.1 261.6 179.7 268.5 179 272.6C178.2 277.6 176.4 281 173.5 282.5C171 283.9 168.4 283.4 167 283C165.6 286.6 160.3 300.2 154.9 313.7C146.9 334 143.8 341.5 142.5 344.4Z" fill="black"/>
<path d="M202 266L200.8 264.3C218.6 251.8 234.7 245.2 248.8 244.9C260.1 244.6 266.8 248.5 269.3 250C269.5 250.1 269.6 250.2 269.7 250.2L268.7 252C268.6 251.9 268.4 251.8 268.3 251.7C256.7 245.1 235.8 242.1 202 266Z" fill="black"/>
<path d="M254.555 297.14L240.061 312.196L255.117 326.69L269.611 311.634L254.555 297.14Z" fill="#FF4200"/>
<path d="M255.1 328.2L238.5 312.3L254.4 295.7L271 311.6L255.1 328.2ZM241.5 312.2L255.1 325.3L268.2 311.7L254.6 298.6L241.5 312.2Z" fill="black"/>
<path d="M138.4 145.7C137.3 143.8 136.3 141.8 135.3 139.8C134.2 137.5 133.3 135.1 132.3 132.8C129.9 126.9 127.6 121.3 123.5 116.3L124 115.9C128.1 120.9 130.4 126.6 132.9 132.5C133.8 134.8 134.8 137.1 135.9 139.4C136.9 141.4 137.9 143.4 139 145.3L138.4 145.7Z" fill="#0029BC"/>
<path d="M136.6 144.1L136.2 143.5C136.8 143.1 137.3 142.9 138 142.7C138.1 142.7 138.2 142.6 138.3 142.5C138.5 142.4 138.6 142.3 138.8 142.2L139.1 142.8C139 142.8 138.9 142.9 138.8 143C138.6 143.1 138.5 143.2 138.3 143.3H138.2C137.5 143.6 137.1 143.8 136.6 144.1Z" fill="#0029BC"/>
<path d="M135.1 140.3L134.6 139.8C135 139.5 135.4 139.3 135.9 139.1C136.3 138.9 136.7 138.8 137 138.5L137.5 139C137.1 139.3 136.7 139.5 136.2 139.7C135.8 139.9 135.4 140 135.1 140.3Z" fill="#0029BC"/>
<path d="M133.1 136.1L132.7 135.5C133.3 135.1 133.8 134.9 134.5 134.7C134.6 134.7 134.7 134.6 134.8 134.5C135 134.4 135.1 134.3 135.3 134.2L135.6 134.8C135.5 134.8 135.4 134.9 135.3 135C135.1 135.1 135 135.2 134.8 135.3H134.7C134.1 135.5 133.7 135.7 133.1 136.1Z" fill="#0029BC"/>
<path d="M132.1 133.9L131.8 133.3C132 133.2 132.2 133.1 132.4 133.1C133 132.9 133.6 132.7 134 132.3L134.5 132.8C134 133.3 133.3 133.5 132.7 133.8C132.5 133.8 132.3 133.8 132.1 133.9Z" fill="#0029BC"/>
<path d="M130.9 131.6L130.5 131C130.9 130.7 131.4 130.6 131.8 130.4C132.2 130.2 132.6 130 133 129.8L133.4 130.4C133 130.7 132.5 130.8 132.1 131C131.7 131.2 131.3 131.3 130.9 131.6Z" fill="#0029BC"/>
<path d="M129.899 129.5L129.399 129C129.799 128.7 130.199 128.5 130.699 128.3C131.099 128.1 131.499 128 131.799 127.7L132.299 128.2C131.899 128.5 131.499 128.7 130.999 128.9C130.599 129.1 130.199 129.3 129.899 129.5Z" fill="#0029BC"/>
<path d="M129 127.8L128.6 127.2C129 126.9 129.5 126.8 129.9 126.6C130.3 126.4 130.7 126.2 131.1 126L131.5 126.6C131.1 126.9 130.6 127 130.2 127.2C129.8 127.4 129.4 127.5 129 127.8Z" fill="#0029BC"/>
<path d="M126.7 124.1L126.5 123.4C127.1 123.2 127.6 122.9 128.1 122.6C128.3 122.5 128.5 122.3 128.7 122.2L129.1 122.8C128.9 122.9 128.7 123.1 128.5 123.2C128 123.5 127.5 123.9 126.7 124.1Z" fill="#0029BC"/>
<path d="M125.3 121L124.8 120.5C125.2 120.2 125.6 120 126.1 119.8C126.5 119.6 126.9 119.5 127.2 119.2L127.7 119.7C127.3 120 126.9 120.2 126.4 120.4C126 120.6 125.6 120.7 125.3 121Z" fill="#0029BC"/>
<path d="M125.552 116.215L123.161 117.236L123.436 117.88L125.827 116.859L125.552 116.215Z" fill="#0029BC"/>
<path d="M137.791 140.541L135.859 141.366L136.134 142.01L138.066 141.185L137.791 140.541Z" fill="#0029BC"/>
<path d="M128.1 125.7L128 125C128.5 124.9 129 124.6 129.7 124L130.2 124.5C129.6 125 128.9 125.5 128.1 125.7Z" fill="#0029BC"/>
<path d="M126.5 122.3L126.1 121.7C126.7 121.3 127.2 120.9 128 120.6L128.3 121.2C127.6 121.6 127.1 121.9 126.5 122.3Z" fill="#0029BC"/>
<path d="M124.9 119.4L124.5 118.8C125.1 118.4 125.7 118 126.4 117.8L126.5 118.5C125.9 118.7 125.4 119.1 124.9 119.4Z" fill="#0029BC"/>
<path d="M134.7 138.3L134.3 137.7C134.9 137.3 135.5 136.9 136.2 136.7L136.3 137.4C135.7 137.6 135.2 137.9 134.7 138.3Z" fill="#0029BC"/>
<path d="M76.7991 221.2C83.1991 222.6 96.9991 211.5 118.099 210.7C101.999 209.4 86.0991 208.1 71.0991 210.8C70.9991 210.8 67.1991 215.5 76.7991 221.2Z" fill="#0029BC"/>
<path d="M72.7996 211.9C71.5996 211.9 70.5996 211.9 69.7996 211.8C66.3996 211.5 65.4996 211.1 65.0996 210.5C64.8996 210.2 64.7996 209.9 64.8996 209.5C65.0996 208.5 65.3996 207.2 65.7996 205.8C66.4996 203.2 67.5996 198.9 67.1996 197.7L69.1996 197C69.7996 198.7 68.9996 201.9 67.7996 206.4C67.4996 207.5 67.2996 208.5 67.0996 209.3C67.4996 209.4 68.3996 209.6 70.0996 209.7C73.0996 210 78.4996 209.7 84.7996 209.3C95.8996 208.7 109.7 207.9 118.3 209.8L117.9 211.8C109.5 210 95.8996 210.8 84.8996 211.4C80.1996 211.6 75.9996 211.9 72.7996 211.9Z" fill="black"/>
<path d="M165.499 134.9L181.699 120.8C183.799 118.9 186.499 117.7 189.299 117.3C195.899 116.3 207.399 114.9 207.399 114.9C208.199 115.1 208.799 115.9 208.799 116.8L207.199 145.6C207.199 146 207.099 146.4 206.799 146.7L189.299 170C189.099 170.3 188.699 170.6 188.299 170.7L179.499 173.3C178.899 173.5 172.999 173.7 172.599 173.4L170.699 168.2" fill="#0055FF"/>
<path d="M164.899 134.2L173.899 126.1L178.399 122.1L180.599 120.1L180.899 119.8L181.199 119.5C181.399 119.3 181.599 119.1 181.799 119C182.199 118.7 182.699 118.3 183.199 118.1C184.099 117.5 185.099 117 186.199 116.6C186.699 116.4 187.299 116.2 187.799 116.1C188.099 116 188.299 116 188.599 115.9L188.999 115.8H189.199H189.399L195.399 114.9L207.299 113.1L207.699 113L208.099 113.1C208.899 113.3 209.599 113.9 210.099 114.5C210.599 115.2 210.899 116 210.899 116.9V117V117.1V117.2V117.4V117.7V118.3L210.799 119.5L210.499 124.4L209.799 134.3L208.999 144L208.899 145.2L208.799 145.9C208.799 146.3 208.699 146.6 208.499 147C208.399 147.3 208.099 147.7 207.999 147.8L207.599 148.3L206.799 149.3L203.799 153.2L191.799 168.9L190.299 170.9C190.099 171.2 189.799 171.4 189.499 171.6C189.399 171.7 189.199 171.8 189.099 171.8C188.999 171.8 188.899 171.9 188.899 171.9H188.799H188.699L187.499 172.2L182.699 173.6L180.299 174.3L179.999 174.4H179.799H179.699H179.599C179.299 174.4 179.099 174.4 178.899 174.5C178.499 174.5 178.099 174.5 177.599 174.6C176.799 174.6 175.899 174.6 175.099 174.6C174.699 174.6 174.299 174.6 173.799 174.6C173.599 174.6 173.399 174.6 173.099 174.6C172.999 174.6 172.899 174.6 172.699 174.6C172.599 174.6 172.499 174.6 172.499 174.6C172.399 174.6 172.399 174.6 172.299 174.6H172.199C172.099 174.6 172.099 174.5 171.999 174.5L171.699 174.3L171.599 174L169.699 168.8L171.699 168.1L173.599 173.3L173.199 172.8C173.199 172.8 173.099 172.8 173.099 172.7C173.099 172.7 173.099 172.7 172.999 172.7H173.099C173.199 172.7 173.299 172.7 173.299 172.7C173.499 172.7 173.699 172.7 173.899 172.7C174.299 172.7 174.699 172.7 175.099 172.7C175.899 172.7 176.699 172.6 177.499 172.6C177.899 172.6 178.299 172.5 178.699 172.5C178.899 172.5 179.099 172.5 179.199 172.4H179.299L179.599 172.3L181.999 171.6L186.699 170.1L187.899 169.7H187.999H188.099C188.099 169.7 188.199 169.7 188.199 169.6C188.299 169.6 188.299 169.5 188.399 169.4L189.799 167.4L201.399 151.4L204.299 147.4L204.999 146.4C205.199 146.1 205.599 145.6 205.499 145.7V145.6V145.4V145.1L205.599 143.9L205.999 134L206.399 124.1L206.599 119.2L206.699 116.8L207.499 116.9L195.499 118.3L189.499 119H189.299H189.099H188.799C188.599 119 188.399 119.1 188.099 119.1C187.699 119.2 187.199 119.3 186.799 119.4C185.899 119.7 185.099 120 184.299 120.5C183.899 120.7 183.499 121 183.199 121.2C182.999 121.3 182.799 121.5 182.699 121.6L182.399 121.8L182.099 122L179.799 123.9L175.199 127.8L165.899 135.5L164.899 134.2Z" fill="black"/>
<path d="M172.699 145.2L188.099 123.2H201.499L197.299 143.8L178.799 164L177.099 155.8L182.499 150.6L181.699 147L172.699 145.2Z" fill="#0029BC"/>
<path d="M119.6 120.1L79.1002 129L70.2002 135.6L67.7002 125.5L72.3002 120.8L73.5002 125.3L79.6002 120.1L84.2002 121.5L118 113.3L119.6 120.1Z" fill="#FF4200"/>
<path d="M69.5 137.4L66.5 125.1L72.8 118.7L74.1 123.4L79.4 118.8L84.3 120.3L118.8 111.9L120.8 120.8L79.5 130L69.5 137.4ZM68.8 125.8L70.8 133.9L78.6 128.1H78.8L118.2 119.4L117.1 114.7L84.1 122.7L79.7 121.4L72.8 127.4L71.6 123L68.8 125.8Z" fill="black"/>
<path d="M82.2002 143.6H89.0002L105 145.5C105 145.5 90.6002 158 86.6002 157.2L82.2002 143.6Z" fill="#FF4200"/>
<path d="M84.0996 157.1C85.5996 156.9 87.0996 156.5 88.4996 155.9C89.8996 155.3 91.2996 154.6 92.5996 153.8C95.1996 152.1 97.6996 150.1 100.4 148.3C101.8 147.4 103.2 146.5 104.7 145.8C106.2 145.1 107.8 144.5 109.5 144.2C111.1 143.8 112.8 143.6 114.5 143.6C116.2 143.6 117.8 143.7 119.5 144L119.2 146.1C117.7 145.9 116.1 145.8 114.6 145.8C113.1 145.8 111.5 146 110.1 146.4C108.6 146.7 107.2 147.3 105.8 147.9C104.4 148.6 103.1 149.4 101.8 150.2C99.1996 151.9 96.6996 154 93.8996 155.8C92.4996 156.7 90.9996 157.5 89.4996 158.1C87.8996 158.7 86.2996 159.2 84.5996 159.5L84.0996 157.1Z" fill="black"/>
<path d="M86.3996 159.1C84.5996 155.5 81.6996 147.6 81.0996 143.8L83.1996 143.5C83.7996 147.1 86.4996 154.8 88.2996 158.2L86.3996 159.1Z" fill="black"/>
<path d="M79.0998 136.2L78.8998 137.1C78.8998 137.4 78.7998 137.7 78.7998 138.1C78.6998 138.7 78.6998 139.4 78.6998 140C78.6998 140.6 78.6998 141.3 78.7998 141.9C78.7998 142.2 78.8998 142.5 78.8998 142.8C78.8998 142.9 78.9998 143.1 78.9998 143.2L79.0998 143.4V143.5L77.9998 142.9C80.3998 142.6 82.6998 142.6 84.9998 142.6C87.2998 142.6 89.5998 142.7 91.8998 142.8C94.1998 142.9 96.4998 143.1 98.7998 143.3C101.1 143.5 103.4 143.7 105.7 144H105.6L119.1 144.4V145.5L105.5 145.3C103.2 145.1 100.9 144.9 98.5998 144.8C96.2998 144.7 93.9998 144.6 91.6998 144.5C89.3998 144.4 87.0998 144.4 84.7998 144.5C82.4998 144.6 80.1998 144.7 77.9998 145L77.1998 145.1L76.8998 144.4C76.7998 144.2 76.7998 144.2 76.7998 144.1C76.7998 144 76.6998 143.9 76.6998 143.8C76.5998 143.6 76.5998 143.4 76.5998 143.2C76.4998 142.8 76.4998 142.5 76.3998 142.1C76.2998 141.4 76.2998 140.7 76.2998 139.9C76.2998 139.2 76.3998 138.5 76.4998 137.8C76.4998 137.5 76.5998 137.1 76.6998 136.8L76.8998 135.8L79.0998 136.2Z" fill="black"/>
<path d="M167.599 183.5C174.199 214.6 173.999 216.2 156.999 225C148.099 229.6 114.799 244.5 98.0994 247.5C97.2994 247.6 96.7994 247.9 96.5994 248C96.2994 248.1 95.9994 248.1 95.5994 248.1C92.6994 247.7 88.5994 242.6 84.8994 236.9L94.1994 233.6C103.699 243.4 138.099 223.7 139.099 216.299L124.599 190.7L130.199 185.2L151.699 206.1L157.799 186.6L167.599 183.5Z" fill="#FF4200"/>
<path d="M95.8998 249.1C95.6998 249.1 95.5998 249.1 95.3998 249.1C91.1998 248.6 85.7998 240.2 83.9998 237.4L83.2998 236.3L94.3998 232.3L94.8998 232.8C97.7998 235.8 103.9 236 112.2 233.2C124.3 229.2 136.8 220.4 137.9 216.3L123.2 190.3L130.1 183.6L151.2 204.1L156.9 185.7L168.4 182.2L168.6 183.3C171.9 198.9 173.6 207.3 172.1 212.9C170.6 218.9 165.5 221.7 157.4 225.9C149.8 229.8 115.8 245.3 98.1998 248.5C97.6998 248.6 97.3998 248.7 97.1998 248.8C97.0998 248.9 96.9998 248.9 96.8998 248.9C96.4998 249.1 96.1998 249.1 95.8998 249.1ZM86.4998 237.4C91.7998 245.4 94.4998 246.9 95.6998 247C95.8998 247 96.0998 247 96.1998 247H96.2998C96.5998 246.9 97.0998 246.6 97.7998 246.5C113.8 243.6 146.6 229.2 156.4 224.1C164.9 219.7 168.8 217.3 170 212.4C171.3 207.3 169.8 199.4 166.7 184.9L158.4 187.4L152 208L130 186.6L125.7 190.8L140 216.1V216.4C139.5 219.8 134 224.1 130.7 226.3C125.3 230 118.7 233.3 112.8 235.3C101.9 238.9 96.4998 237.1 93.7998 234.8L86.4998 237.4Z" fill="black"/>
<path d="M160.5 43.8999L169.2 53.9999L123.8 96.5999L114.3 86.1999L160.5 43.8999Z" fill="#FF4200"/>
<path d="M123.8 98.0998L112.8 86.0998L160.5 42.2998L170.6 53.9998L123.8 98.0998ZM115.8 86.2998L123.9 95.1998L167.8 53.9998L160.4 45.4998L115.8 86.2998Z" fill="black"/>
<path d="M141.109 71.6207L134.925 71.1763L134.48 77.3602L140.664 77.8046L141.109 71.6207Z" fill="black"/>
<path d="M134.207 77.6217L128.023 77.1772L127.579 83.3611L133.763 83.8056L134.207 77.6217Z" fill="black"/>
<path d="M127.312 83.525L121.128 83.0806L120.684 89.2644L126.867 89.7089L127.312 83.525Z" fill="black"/>
<path d="M129.9 113.9L124.1 106.2L112.6 108.1L105.3 102.2L110.8 82.9997L159.1 38.6997L160.5 40.2997L112.6 84.1997L107.7 101.4L113.2 105.9L125 104L131.6 112.7L129.9 113.9Z" fill="black"/>
<path d="M134.601 181.1L149.101 195.1L154.101 179.4L165.501 175.8L160.601 154.1L149.901 154.4L148.101 167.8L134.601 181.1Z" fill="#ABE007"/>
<path d="M148.7 195.6L134.2 181.6V180.6L147.4 167.5L149.2 154.3L149.9 153.7L160.6 153.4L161.3 153.9L166.2 175.5L165.7 176.3L154.6 179.8L149.7 195.2L148.7 195.6ZM135.6 181.1L148.8 193.8L153.4 179.1L153.9 178.6L164.7 175.2L160.1 154.7L150.5 155L148.7 167.8L148.5 168.2L135.6 181.1Z" fill="black"/>
<path d="M100.8 196.1L107.1 201L143.8 167.2L145.7 155.7L100.8 196.1Z" fill="#ABE007"/>
<path d="M106.7 201.6L100.3 196.7V195.6L145.2 155.2L146.3 155.8L144.5 167.3L144.3 167.7L107.6 201.5L106.7 201.6ZM101.8 196.1L107 200.2L143.1 166.9L144.6 157.6L101.8 196.1Z" fill="black"/>
<path d="M189.3 252C183.6 253.4 168 258.7 164.1 274.4L153.7 267.1C156.6 251.1 178.3 242 184.3 239.8C185.2 239.5 186.1 239.9 186.5 240.7L190.5 249.6C190.9 250.6 190.4 251.8 189.3 252Z" fill="#FF4200"/>
<path d="M164.7 276.2L152.5 267.6L152.6 266.9C155.5 250.4 177.3 241.2 183.9 238.8C185.3 238.3 186.8 238.9 187.4 240.3L191.4 249.2C191.7 250 191.7 250.8 191.4 251.6C191 252.3 190.4 252.9 189.6 253.1L189.3 252.1L189.6 253.1C186.9 253.8 181.7 255.4 176.6 258.8C170.6 262.9 166.7 268.3 165.1 274.8L164.7 276.2ZM154.8 266.7L163.5 272.8C165.4 266.4 169.5 261.1 175.5 257.1C180.8 253.5 186.3 251.8 189.1 251.1C189.4 251 189.5 250.8 189.6 250.7C189.7 250.6 189.7 250.4 189.6 250.1L185.6 241.2C185.4 240.9 185.1 240.7 184.7 240.8C182 241.8 175 244.6 168.4 249.2C160.7 254.5 156.1 260.4 154.8 266.7Z" fill="black"/>
<path d="M185.5 246.9C183.3 247.7 169.9 251.2 160.6 266.1L185.5 246.9Z" fill="#FF4200"/>
<path d="M185.5 247.9C185.4 247.9 185.4 247.9 185.3 247.9C185.2 247.9 185.2 247.9 185.1 247.8C185 247.8 185 247.7 184.9 247.7C184.8 247.7 184.8 247.6 184.7 247.6C184.7 247.6 184.6 247.5 184.6 247.4C184.6 247.3 184.5 247.3 184.5 247.2C184.5 247.1 184.5 247.1 184.4 247C184.4 246.9 184.4 246.9 184.4 246.8C184.4 246.7 184.4 246.7 184.4 246.6C184.4 246.5 184.4 246.5 184.5 246.4C184.5 246.3 184.6 246.3 184.6 246.2C184.6 246.1 184.7 246.1 184.7 246C184.9 245.8 185.2 245.7 185.4 245.7C185.7 245.7 185.9 245.8 186.1 246C186.1 246 186.2 246.1 186.2 246.2C186.2 246.3 186.3 246.3 186.3 246.4C186.3 246.5 186.3 246.5 186.4 246.6C186.4 246.7 186.4 246.7 186.4 246.8C186.4 247.1 186.3 247.3 186.1 247.5C186.1 247.5 186 247.6 185.9 247.6C185.8 247.6 185.8 247.7 185.7 247.7C185.6 247.7 185.6 247.7 185.5 247.8C185.6 247.9 185.5 247.9 185.5 247.9Z" fill="black"/>
<path d="M163 262.5C162.5 262.1 162.5 261.5 162.8 261C163.2 260.5 163.8 260.5 164.3 260.8C164.8 261.2 164.8 261.8 164.5 262.3C164.3 262.6 164 262.7 163.7 262.7C163.4 262.8 163.2 262.7 163 262.5ZM166.5 258.5C166.1 258.1 166.1 257.4 166.5 257C166.9 256.6 167.6 256.6 168 257C168.4 257.4 168.4 258.1 168 258.5C167.8 258.7 167.5 258.8 167.3 258.8C167 258.8 166.7 258.7 166.5 258.5ZM170.4 254.8C170 254.3 170.1 253.7 170.6 253.3C171.1 252.9 171.7 253 172.1 253.5C172.5 254 172.4 254.6 171.9 255C171.7 255.1 171.5 255.2 171.3 255.2C170.9 255.2 170.6 255.1 170.4 254.8ZM174.8 251.7C174.5 251.2 174.7 250.6 175.2 250.3C175.7 250 176.3 250.2 176.6 250.7C176.9 251.2 176.7 251.8 176.2 252.1C176 252.2 175.9 252.2 175.7 252.2C175.3 252.2 175 252 174.8 251.7ZM179.5 249.2C179.3 248.7 179.5 248.1 180 247.8C180.5 247.6 181.1 247.8 181.4 248.3C181.6 248.8 181.4 249.4 180.9 249.7C180.8 249.8 180.6 249.8 180.5 249.8C180 249.8 179.7 249.6 179.5 249.2Z" fill="black"/>
<path d="M160.6 267.1C160.5 267.1 160.5 267.1 160.4 267.1C160.3 267.1 160.3 267.1 160.2 267C160.1 267 160.1 266.9 160 266.9C159.9 266.9 159.9 266.8 159.8 266.8C159.8 266.8 159.7 266.7 159.7 266.6C159.7 266.5 159.6 266.5 159.6 266.4C159.6 266.3 159.6 266.3 159.5 266.2C159.5 266.1 159.5 266.1 159.5 266C159.5 265.9 159.5 265.9 159.5 265.8C159.5 265.7 159.5 265.7 159.6 265.6C159.6 265.5 159.7 265.5 159.7 265.4C159.7 265.3 159.8 265.3 159.8 265.2C159.8 265.2 159.9 265.1 160 265.1C160.1 265.1 160.1 265 160.2 265C160.3 265 160.3 265 160.4 264.9C160.5 264.9 160.7 264.9 160.8 264.9C160.9 264.9 160.9 264.9 161 265C161.1 265 161.1 265.1 161.2 265.1C161.3 265.1 161.3 265.2 161.4 265.2C161.4 265.2 161.5 265.3 161.5 265.4C161.5 265.5 161.6 265.5 161.6 265.6C161.6 265.7 161.6 265.7 161.7 265.8C161.7 265.9 161.7 265.9 161.7 266C161.7 266.1 161.7 266.1 161.7 266.2C161.7 266.3 161.7 266.3 161.6 266.4C161.6 266.5 161.5 266.5 161.5 266.6C161.5 266.7 161.4 266.7 161.4 266.8C161.1 267 160.9 267.1 160.6 267.1Z" fill="black"/>
</svg>
