<svg width="46" height="32" viewBox="0 0 46 32" fill="none" xmlns="http://www.w3.org/2000/svg">
<path d="M44.9286 21.1456C44.2354 15.0834 42.3769 9.34561 39.6186 3.91761C39.3679 3.41611 38.8664 2.94411 38.3649 2.69336C35.6066 1.36586 32.6566 0.643106 29.6919 0.0236059C29.3674 -0.0353941 28.9691 0.244856 28.6151 0.362856C29.0871 0.702106 29.5001 0.790606 29.8836 0.952856C31.7864 1.73461 33.6891 2.50161 35.5624 3.34236C36.0344 3.54886 36.3736 4.03561 36.7719 4.38961C27.2286 0.510357 17.8329 0.525107 8.39288 4.46336C10.5759 2.10336 13.6734 1.60186 16.5201 0.318606C16.1809 0.200606 15.8121 -0.0501438 15.5024 0.00885616C12.4196 0.643106 9.36638 1.39536 6.51963 2.81136C6.15088 2.98836 5.79688 3.35711 5.61988 3.72586C4.77913 5.48111 3.93838 7.25111 3.23038 9.06536C1.25388 14.1984 -0.0146227 19.4936 0.000127265 25.0249C0.000127265 25.4379 0.221377 25.9689 0.531127 26.2196C1.72588 27.2079 2.95013 28.1961 4.26288 29.0369C6.18038 30.2611 8.28963 31.1019 10.6201 31.0576C11.0184 31.0576 11.5494 30.9986 11.7854 30.7479C12.5524 29.8924 13.2161 28.9336 13.9684 27.9454C13.6144 27.7979 13.3636 27.7094 13.1129 27.5914C11.7116 26.8539 10.2956 26.1606 8.93863 25.3494C8.49613 25.0986 8.23063 24.5529 7.89138 24.1399C7.95038 24.0661 8.02413 24.0071 8.08313 23.9334C17.7444 29.2139 27.4204 29.1991 37.1554 24.0219C35.8131 26.3229 33.3794 26.9129 31.1964 27.9749C31.5356 28.4321 31.9191 28.7861 32.1256 29.2286C33.0844 31.2199 34.6921 31.3231 36.5506 30.8806C39.8251 30.0841 42.4801 28.2404 44.8844 25.9984C45.0614 25.8361 45.1499 25.5116 45.1351 25.2609C45.0909 23.8744 45.0761 22.5026 44.9286 21.1456ZM15.6351 21.3816C13.5996 21.3816 11.9624 19.6854 11.9919 17.6056C12.0214 15.5554 13.6439 13.9919 15.6941 14.0066C17.7149 14.0361 19.3374 15.7029 19.3226 17.7089C19.2931 19.7296 17.6264 21.3816 15.6351 21.3816ZM29.4559 21.3816C27.4646 21.3816 25.7979 19.7001 25.7979 17.6794C25.7979 15.6586 27.4351 14.0066 29.4411 14.0066C31.4914 14.0066 33.0991 15.5849 33.1286 17.6351C33.1581 19.7149 31.5061 21.3816 29.4559 21.3816Z" fill="#0055FF"/>
</svg>
