<svg width="35" height="25" viewBox="0 0 35 25" fill="none" xmlns="http://www.w3.org/2000/svg">
<path d="M34.7185 17.1132C34.1828 12.4286 32.7466 7.99474 30.6152 3.80027C30.4214 3.41274 30.0339 3.048 29.6464 2.85423C27.5149 1.82841 25.2353 1.26991 22.9443 0.791191C22.6936 0.745599 22.3858 0.962161 22.1123 1.05335C22.477 1.3155 22.7962 1.38389 23.0925 1.50927C24.5628 2.11336 26.0332 2.70606 27.4807 3.35575C27.8455 3.51532 28.1076 3.89145 28.4154 4.16501C21.0409 1.16733 13.7803 1.17872 6.48558 4.222C8.17248 2.39831 10.5661 2.01078 12.7659 1.01915C12.5037 0.927967 12.2188 0.734201 11.9794 0.779793C9.59724 1.26991 7.23785 1.85121 5.03803 2.94542C4.75308 3.08219 4.47952 3.36715 4.34275 3.6521C3.69306 5.00846 3.04337 6.37622 2.49627 7.77818C0.968931 11.7447 -0.0112997 15.8366 9.83434e-05 20.1108C9.83434e-05 20.43 0.171069 20.8403 0.410427 21.0341C1.33367 21.7978 2.2797 22.5614 3.29413 23.2111C4.77587 24.1571 6.40579 24.8068 8.20668 24.7726C8.51443 24.7726 8.92475 24.727 9.10712 24.5333C9.69982 23.8722 10.2127 23.1313 10.794 22.3677C10.5205 22.2537 10.3267 22.1853 10.1329 22.0941C9.05013 21.5242 7.95592 20.9885 6.9073 20.3616C6.56536 20.1678 6.3602 19.7461 6.09804 19.427C6.14364 19.37 6.20063 19.3244 6.24622 19.2674C13.7119 23.3479 21.189 23.3365 28.7117 19.3358C27.6745 21.1139 25.7938 21.5698 24.1069 22.3905C24.3691 22.7438 24.6654 23.0173 24.825 23.3593C25.5659 24.898 26.8083 24.9778 28.2444 24.6359C30.7748 24.0204 32.8264 22.5956 34.6843 20.8631C34.8211 20.7377 34.8895 20.487 34.8781 20.2932C34.8439 19.2218 34.8325 18.1618 34.7185 17.1132ZM12.082 17.2955C10.5091 17.2955 9.2439 15.9848 9.2667 14.3776C9.28949 12.7933 10.5433 11.5851 12.1276 11.5965C13.6891 11.6193 14.9429 12.9073 14.9315 14.4574C14.9087 16.019 13.6207 17.2955 12.082 17.2955ZM22.762 17.2955C21.2232 17.2955 19.9352 15.9962 19.9352 14.4346C19.9352 12.8731 21.2004 11.5965 22.7506 11.5965C24.3349 11.5965 25.5773 12.8161 25.6001 14.4004C25.6229 16.0076 24.3463 17.2955 22.762 17.2955Z" fill="white"/>
</svg>
