<?xml version="1.0" encoding="utf-8"?>
<!-- Generator: Adobe Illustrator 25.2.3, SVG Export Plug-In . SVG Version: 6.00 Build 0)  -->
<svg version="1.1" id="Слой_1" xmlns="http://www.w3.org/2000/svg" xmlns:xlink="http://www.w3.org/1999/xlink" x="0px" y="0px"
	 viewBox="0 0 400 400" style="enable-background:new 0 0 400 400;" xml:space="preserve">
<style type="text/css">
	.st0{fill:#FFFFFF;}
</style>
<g>
	<path class="st0" d="M351.6,237.9c-4.7-41.1-17.3-80-36-116.8c-1.7-3.4-5.1-6.6-8.5-8.3c-18.7-9-38.7-13.9-58.8-18.1
		c-2.2-0.4-4.9,1.5-7.3,2.3c3.2,2.3,6,2.9,8.6,4c12.9,5.3,25.8,10.5,38.5,16.2c3.2,1.4,5.5,4.7,8.2,7.1
		c-64.7-26.3-128.4-26.2-192.4,0.5c14.8-16,35.8-19.4,55.1-28.1c-2.3-0.8-4.8-2.5-6.9-2.1c-20.9,4.3-41.6,9.4-60.9,19
		c-2.5,1.2-4.9,3.7-6.1,6.2c-5.7,11.9-11.4,23.9-16.2,36.2c-13.4,34.8-22,70.7-21.9,108.2c0,2.8,1.5,6.4,3.6,8.1
		c8.1,6.7,16.4,13.4,25.3,19.1c13,8.3,27.3,14,43.1,13.7c2.7,0,6.3-0.4,7.9-2.1c5.2-5.8,9.7-12.3,14.8-19c-2.4-1-4.1-1.6-5.8-2.4
		c-9.5-5-19.1-9.7-28.3-15.2c-3-1.7-4.8-5.4-7.1-8.2c0.4-0.5,0.9-0.9,1.3-1.4c65.5,35.8,131.1,35.7,197.1,0.6
		c-9.1,15.6-25.6,19.6-40.4,26.8c2.3,3.1,4.9,5.5,6.3,8.5c6.5,13.5,17.4,14.2,30,11.2c22.2-5.4,40.2-17.9,56.5-33.1
		c1.2-1.1,1.8-3.3,1.7-5C352.7,256.4,352.6,247.1,351.6,237.9z M153,239.5c-13.8,0-24.9-11.5-24.7-25.6
		c0.2-13.9,11.2-24.5,25.1-24.4c13.7,0.2,24.7,11.5,24.6,25.1C177.8,228.3,166.5,239.5,153,239.5z M246.7,239.5
		c-13.5,0-24.8-11.4-24.8-25.1c0-13.7,11.1-24.9,24.7-24.9c13.9,0,24.8,10.7,25,24.6C271.8,228.2,260.6,239.5,246.7,239.5z"/>
</g>
</svg>
