<svg width="16" height="24" viewBox="0 0 16 24" fill="none" xmlns="http://www.w3.org/2000/svg">
<path d="M3.50438 7.76298C4.14728 9.14845 4.30246 10.4679 3.83692 12.0073C4.0586 11.8534 4.19161 11.7654 4.28029 11.6775C5.41089 10.7098 6.00945 9.43433 6.1203 7.9829C6.1868 7.12523 6.14246 6.28955 6.16463 5.43189C6.1868 4.83812 6.1868 4.24435 6.27548 3.67257C6.56367 1.8033 7.73861 0.659744 9.48994 0.0439831C9.55645 0.0219916 9.62296 0.0219915 9.68946 0C9.71163 0.0439829 9.7338 0.0879661 9.7338 0.0879661C8.98006 1.64936 9.0909 3.23274 9.84464 4.72816C10.4432 5.9157 11.1748 7.03727 11.9285 8.11485C13.0591 9.69823 14.2119 11.2596 14.8326 13.1069C15.0986 13.8986 15.3203 14.7563 15.409 15.5919C15.6307 17.4612 15.0321 19.1106 13.7463 20.474C13.2365 21.0018 12.6379 21.4637 11.9728 22.0134C12.1724 21.2437 12.3497 20.628 12.4606 20.0122C12.7266 18.5168 12.4827 17.1094 11.6181 15.8338C11.4186 15.548 11.2413 15.2621 11.0418 14.9762C10.2658 13.8106 9.62295 12.6231 9.95549 11.1277C9.4456 11.6335 9.11307 12.2712 9.13524 12.975C9.15741 13.6787 9.26826 14.3824 9.46777 15.0422C9.71163 15.9218 10.1107 16.7795 10.3545 17.6591C10.7979 19.2865 10.2437 20.694 8.91356 21.5516C8.78054 21.6396 8.64753 21.7056 8.47018 21.7495C8.95789 20.9359 9.22392 20.1002 9.13524 19.1765C9.04657 18.2749 8.80271 17.4392 8.07114 16.7795C8.11548 16.9994 8.18199 17.1973 8.18199 17.4172C8.18199 17.8351 8.20416 18.2969 8.09331 18.6927C7.82729 19.4624 6.98488 19.5724 6.47499 18.9566C6.07596 18.4948 5.98728 17.967 6.05379 17.3732C6.09813 17.0434 6.16463 16.7355 6.1203 16.3177C5.85427 16.5156 5.54391 16.6695 5.30005 16.9114C4.39113 17.7691 4.0586 18.8907 4.12511 20.1002C4.16945 20.7819 4.28029 21.4637 4.45764 22.1014C4.63499 22.7392 4.96752 23.3549 5.21138 23.9927C5.18921 23.9927 5.14487 23.9927 5.10053 23.9707C1.30968 22.4973 -0.907193 18.4508 0.356425 14.5144C0.600281 13.7886 1.02149 13.1069 1.39835 12.4252C1.79739 11.7214 2.2851 11.0617 2.68414 10.358C2.90583 9.98412 3.08318 9.54429 3.21619 9.12645C3.37137 8.68662 3.41571 8.2468 3.50438 7.76298Z" fill="#FF00CF"/>
</svg>
