<svg width="1074" height="50" viewBox="0 0 1074 50" fill="none" xmlns="http://www.w3.org/2000/svg">
<path d="M1072.11 41.3933C1072.11 41.3933 1071.34 39.6357 1072.13 36.3656C1072.93 33.0954 1073.16 28.0145 1070.64 25.8308C1072.59 29.6442 1070.76 38.7303 1067.67 37.9953C1064.58 37.271 1064.35 30.7307 1067.56 27.6417C1065.04 28.0038 1062.41 28.1849 1059.31 32.1794C1061.26 27.6417 1058.4 17.1069 1054.74 18.1934C1057.82 24.3715 1053.24 29.0903 1050.27 26.5445C1047.3 23.9987 1046.49 17.2774 1050.5 13.2829C1054.51 9.28845 1053.82 2.20494 1051.41 0.0213038C1052.33 2.74819 1052.67 4.74009 1048.21 8.73456C1043.75 12.729 1038.94 19.8125 1041.69 27.8014C1044.43 35.7904 1040.42 42.6928 1037.11 41.9685C1033.79 41.2441 1032.76 35.066 1034.82 33.4363C1034.82 33.4363 1030.7 33.6174 1027.95 38.3362C1029.1 34.885 1026.69 30.7094 1022.34 28.8879C1017.99 27.0665 1015.59 18.1721 1018.1 14.1777C1014.21 15.4452 1011.81 22.1666 1013.87 27.9825C1015.93 33.7985 1014.9 38.8794 1009.52 39.2416C1004.14 39.6037 1003.11 31.2527 1005.97 27.9825C1005.97 27.9825 1001.16 29.069 998.874 34.5228C998.76 32.5202 995.558 25.8095 992.121 27.0771C994.524 32.3498 991.436 36.7064 988.57 35.9821C985.71 35.2578 984.905 29.804 988.114 25.2663C991.322 20.7286 987.543 9.09672 983.536 12.3669C987.429 20.5369 981.817 26.1717 978.159 27.2582C974.494 28.3447 971.292 31.977 968.775 37.0686C968.775 37.0686 968.204 31.8066 965.11 30.3473C965.11 30.3473 963.962 39.4333 960.19 36.8875C962.593 34.5228 961.566 28.3553 957.444 25.2663C953.323 22.1772 950.007 14.3694 951.604 9.65062C949.335 10.9501 947.939 20.9097 951.49 26.0013C955.041 31.0822 954.007 41.8087 949.201 40.1683C944.395 38.5279 946.342 29.9957 947.711 28.5471C947.711 28.5471 944.623 29.0903 942.677 33.447C942.677 33.447 941.415 28.1743 937.186 29.9957C939.817 33.447 939.247 38.1657 937.3 39.0818C935.353 39.9872 931.923 36.7171 933.635 29.0903C935.353 21.4636 932.031 15.2855 928.715 14.0179C931.346 18.3745 928.943 28.7282 925.164 31.0929C925.164 31.0929 923.331 27.2795 920.358 28.7282C922.761 31.9983 922.532 40.1683 917.384 40.1683C912.235 40.1683 910.061 32.3605 912.464 28.9092C912.464 28.9092 909.376 29.4525 907.543 32.5415C907.772 28.5471 904.57 22.7311 900.106 21.6447C902.623 24.9148 902.851 32.1794 898.502 33.8091C894.152 35.4389 891.749 24.542 895.065 20.1853C891.514 21.4529 888.084 27.2689 887.05 33.0848C887.05 33.0848 884.077 27.2689 880.411 28.9092C882.929 32.5415 882.815 38.5386 879.15 40.3494C875.485 42.1709 871.021 38.9007 872.967 32.1794C874.914 25.458 872.397 17.1069 865.644 16.0098C869.081 24.542 863.469 34.7145 859.576 36.536C859.348 31.8172 855.454 28.366 851.91 28.5471C855.575 35.4495 852.367 42.1709 848.937 41.9898C845.5 41.8087 844.13 34.7252 845.386 32.1794C845.386 32.1794 842.412 33.0848 840.351 35.8117C840.123 33.9902 838.291 30.5496 834.626 31.6361C837.485 39.9872 833.713 41.9898 830.39 40.9033C827.074 39.8168 826.04 33.8198 828.443 28.5471C830.846 23.285 826.839 12.9314 821.805 11.4721C826.953 21.4636 820.892 31.0929 817.455 32.1794C817.227 29.2714 815.166 26.9173 811.387 26.5445C817.28 36.6851 812.649 46.7086 809.098 43.2574C805.547 39.8061 808.688 34.9382 808.688 34.9382C807.312 35.5134 806.272 36.5147 805.493 37.5692C804.124 39.412 803.607 41.3826 803.607 41.3826C803.607 41.3826 802.828 39.6251 803.627 36.3549C804.426 33.0848 804.654 28.0038 802.137 25.8202C804.084 29.6336 802.251 38.7196 799.163 37.9847C796.076 37.2603 795.847 30.7201 799.049 27.631C796.532 27.9932 793.901 28.1743 790.806 32.1687C792.753 27.631 789.893 17.0963 786.228 18.1828C789.316 24.3609 784.738 29.0797 781.765 26.5339C778.791 23.9881 777.985 17.2667 781.993 13.2723C786 9.2778 785.316 2.19429 782.906 0.0106519C783.819 2.73754 784.168 4.72944 779.704 8.7239C775.24 12.7184 770.434 19.8019 773.179 27.7908C775.925 35.7797 771.917 42.6821 768.601 41.9578C765.279 41.2335 764.252 35.0554 766.312 33.4256C766.312 33.4256 762.191 33.6067 759.446 38.3255C760.593 34.8743 758.184 30.6988 753.834 28.8773C749.484 27.0558 747.081 18.1615 749.598 14.167C745.705 15.4346 743.302 22.1559 745.363 27.9719C747.423 33.7878 746.39 38.8688 741.013 39.2309C735.636 39.5931 734.603 31.242 737.462 27.9719C737.462 27.9719 732.656 29.0584 730.367 34.5121C730.253 32.5096 727.044 25.7989 723.614 27.0665C726.017 32.3392 722.93 36.6958 720.063 35.9715C717.204 35.2471 716.398 29.7934 719.607 25.2556C722.815 20.7179 719.036 9.08607 715.029 12.3562C718.922 20.5262 713.31 26.1611 709.652 27.2475C705.987 28.334 702.785 31.9663 700.268 37.0579C700.268 37.0579 699.698 31.7959 696.603 30.3366C696.603 30.3366 695.455 39.4227 691.683 36.8769C694.086 34.5121 693.059 28.3447 688.937 25.2556C684.816 22.1666 681.5 14.3588 683.098 9.63997C680.829 10.9395 679.433 20.899 682.983 25.9906C686.534 31.0716 685.501 41.798 680.695 40.1576C675.888 38.5173 677.835 29.9851 679.204 28.5364C679.204 28.5364 676.117 29.0797 674.17 33.4363C674.17 33.4363 672.908 28.1636 668.679 29.9851C671.31 33.4363 670.74 38.1551 668.793 39.0712C666.847 39.9766 663.416 36.7064 665.128 29.0797C666.847 21.4529 663.524 15.2748 660.208 14.0072C662.839 18.3639 660.436 28.7175 656.657 31.0822C656.657 31.0822 654.825 27.2689 651.851 28.7175C654.254 31.9876 654.026 40.1576 648.877 40.1576C643.729 40.1576 641.554 32.3498 643.957 28.8986C643.957 28.8986 640.869 29.4418 639.037 32.5309C639.265 28.5364 636.063 22.7205 631.599 21.634C634.116 24.9041 634.345 32.1687 629.995 33.7985C625.645 35.4282 623.242 24.5313 626.558 20.1747C623.007 21.4423 619.577 27.2582 618.543 33.0741C618.543 33.0741 615.57 27.2582 611.905 28.8986C614.422 32.5309 614.308 38.5279 610.643 40.3387C606.978 42.1602 602.514 38.8901 604.461 32.1687C606.407 25.4474 603.89 17.0963 597.137 15.9991C600.574 24.5313 594.962 34.7039 591.069 36.5254C590.841 31.8066 586.948 28.3553 583.404 28.5364C587.069 35.4389 583.86 42.1602 580.43 41.9791C576.993 41.798 575.624 34.7145 576.879 32.1687C576.879 32.1687 573.905 33.0741 571.845 35.801C571.616 33.9796 569.784 30.539 566.119 31.6255C568.978 39.9766 565.206 41.9791 561.883 40.8926C558.561 39.8061 557.534 33.8091 559.937 28.5364C562.34 23.2744 558.332 12.9207 553.298 11.4614C558.446 21.4529 552.385 31.0822 548.948 32.1687C548.72 29.2608 546.659 26.9067 542.88 26.5339C548.774 36.6745 544.142 46.6979 540.591 43.2467C537.04 39.7955 540.182 34.9276 540.182 34.9276C538.806 35.5028 537.765 36.504 536.987 37.5586C535.617 39.4014 535.1 41.372 535.1 41.372C535.1 41.372 534.322 39.6144 535.12 36.3443C535.919 33.0741 536.147 27.9932 533.63 25.8095C535.577 29.6229 533.744 38.709 530.657 37.974C527.569 37.239 527.334 30.7094 530.543 27.6204C528.025 27.9825 525.394 28.1636 522.3 32.1581C524.246 27.6204 521.387 17.0856 517.722 18.1721C520.809 24.3502 516.232 29.069 513.258 26.5232C510.284 23.9774 509.479 17.2561 513.486 13.2616C517.494 9.26715 516.809 2.18364 514.399 0C515.312 2.72689 515.661 4.71879 511.197 8.71325C506.733 12.7077 501.927 19.7912 504.673 27.7801C507.418 35.7691 503.411 42.6715 500.095 41.9472C496.772 41.2228 495.745 35.0447 497.806 33.415C497.806 33.415 493.684 33.5961 490.939 38.3149C492.087 34.8637 489.677 30.6881 485.327 28.8666C480.977 27.0452 478.574 18.1508 481.092 14.1564C477.198 15.4239 474.795 22.1453 476.856 27.9612C478.917 33.7772 477.883 38.8581 472.506 39.2203C467.13 39.5824 466.096 31.2314 468.955 27.9612C468.955 27.9612 464.149 29.0477 461.86 34.5015C461.746 32.4989 458.538 25.7882 455.108 27.0558C457.511 32.3285 454.423 36.6851 451.557 35.9608C448.697 35.2365 447.892 29.7827 451.1 25.245C454.309 20.7073 450.543 9.12868 446.542 12.3988C450.436 20.5688 444.824 26.2037 441.166 27.2902C437.501 28.3767 434.299 32.0089 431.782 37.1006C431.782 37.1006 431.211 31.8385 428.117 30.3792C428.117 30.3792 426.969 39.4653 423.196 36.9195C425.599 34.5548 424.572 28.3873 420.451 25.2983C416.329 22.2092 413.013 14.4014 414.611 9.68257C412.342 10.9821 410.946 20.9416 414.497 26.0332C418.048 31.1142 417.014 41.8406 412.208 40.2003C407.402 38.5705 409.348 30.0277 410.718 28.579C410.718 28.579 407.63 29.1223 405.683 33.4789C405.683 33.4789 404.421 28.2062 400.193 30.0277C402.824 33.4789 402.253 38.1977 400.307 39.1138C398.36 40.0192 394.93 36.749 396.642 29.1223C398.36 21.4955 395.037 15.3174 391.721 14.0499C394.353 18.4065 391.95 28.7601 388.17 31.1248C388.17 31.1248 386.338 27.3115 383.364 28.7601C385.767 32.0303 385.539 40.2003 380.391 40.2003C375.242 40.2003 373.067 32.3924 375.47 28.9412C375.47 28.9412 372.383 29.4844 370.55 32.5735C370.778 28.579 367.577 22.7631 363.113 21.6766C365.63 24.9467 365.858 32.2113 361.508 33.8411C357.159 35.4708 354.756 24.5739 358.072 20.2173C354.521 21.4849 351.091 27.3008 350.057 33.1167C350.057 33.1167 347.083 27.3008 343.418 28.9412C345.935 32.5735 345.821 38.5705 342.156 40.3813C338.491 42.2028 334.027 38.9327 335.974 32.2113C337.921 25.49 335.404 17.1389 328.651 16.0418C332.088 24.5739 326.476 34.7465 322.583 36.568C322.354 31.8492 318.461 28.398 314.917 28.579C318.582 35.4815 315.373 42.2028 311.943 42.0217C308.506 41.8406 307.137 34.7571 308.392 32.2113C308.392 32.2113 305.419 33.1167 303.358 35.8436C303.13 34.0222 301.297 30.5816 297.632 31.6681C300.492 40.0192 296.719 42.0217 293.397 40.9352C290.074 39.8487 289.047 33.8517 291.45 28.579C293.853 23.317 289.846 12.9634 284.811 11.504C289.96 21.4955 283.899 31.1248 280.462 32.2113C280.233 29.3034 278.173 26.9493 274.394 26.5765C280.287 36.7171 275.656 46.7405 272.105 43.2893C268.554 39.8381 271.695 34.9702 271.695 34.9702C270.319 35.5454 269.279 36.5467 268.5 37.6012C267.131 39.444 266.614 41.4146 266.614 41.4146C266.614 41.4146 265.835 39.657 266.634 36.3869C267.433 33.1167 267.661 28.0358 265.144 25.8522C267.09 29.6655 265.258 38.7516 262.17 38.0166C259.082 37.2923 258.854 30.752 262.056 27.663C259.539 28.0251 256.908 28.2062 253.813 32.2007C255.76 27.663 252.9 17.1282 249.235 18.2147C252.323 24.3928 247.745 29.1116 244.771 26.5658C241.798 24.02 240.992 17.2987 245 13.3042C249.007 9.30976 248.322 2.22625 245.912 0.0426076C246.825 2.76949 247.174 4.7614 242.711 8.75586C238.247 12.7503 233.441 19.8338 236.186 27.8228C238.931 35.8117 234.924 42.7141 231.608 41.9898C228.285 41.2654 227.258 35.0873 229.319 33.4576C229.319 33.4576 225.198 33.6387 222.452 38.3575C223.6 34.9063 221.19 30.7307 216.841 28.9092C212.491 27.0878 210.088 18.1934 212.605 14.199C208.712 15.4666 206.309 22.1879 208.369 28.0038C210.43 33.8198 209.396 38.9007 204.02 39.2629C198.643 39.6251 197.609 31.274 200.469 28.0038C200.469 28.0038 195.663 29.0903 193.374 34.5441C193.26 32.5415 190.058 25.8308 186.621 27.0984C189.024 32.3711 185.936 36.7277 183.07 36.0034C180.21 35.2791 179.405 29.8253 182.614 25.2876C185.822 20.7499 182.043 9.12868 178.042 12.3988C181.936 20.5688 176.324 26.2037 172.666 27.2902C169.001 28.3767 165.799 32.0089 163.282 37.1006C163.282 37.1006 162.711 31.8385 159.617 30.3792C159.617 30.3792 158.469 39.4653 154.696 36.9195C157.099 34.5548 156.072 28.3873 151.951 25.2983C147.829 22.2092 144.513 14.4014 146.111 9.68257C143.842 10.9821 142.446 20.9416 145.997 26.0332C149.548 31.1142 148.514 41.8406 143.708 40.2003C138.902 38.5599 140.848 30.0277 142.218 28.579C142.218 28.579 139.13 29.1223 137.183 33.4789C137.183 33.4789 135.921 28.2062 131.693 30.0277C134.324 33.4789 133.753 38.1977 131.807 39.1138C129.86 40.0298 126.43 36.749 128.142 29.1223C129.86 21.4955 126.537 15.3174 123.221 14.0499C125.853 18.4065 123.45 28.7601 119.67 31.1248C119.67 31.1248 117.838 27.3115 114.864 28.7601C117.267 32.0303 117.039 40.2003 111.891 40.2003C106.742 40.2003 104.567 32.3924 106.97 28.9412C106.97 28.9412 103.883 29.4844 102.05 32.5735C102.278 28.579 99.0765 22.7631 94.6127 21.6766C97.1299 24.9467 97.3581 32.2113 93.0084 33.8411C88.6587 35.4708 86.2556 24.5739 89.5716 20.2173C86.0207 21.4849 82.5906 27.3008 81.5569 33.1167C81.5569 33.1167 78.5832 27.3008 74.9182 28.9412C77.4354 32.5735 77.3213 38.5705 73.6563 40.3813C69.9912 42.2028 65.5274 38.9327 67.4741 32.2113C69.4207 25.49 66.9035 17.1389 60.1507 16.0418C63.5875 24.5739 57.9759 34.7465 54.0826 36.568C53.8544 31.8492 49.9611 28.398 46.4169 28.579C50.082 35.4815 46.8734 42.2028 43.4433 42.0217C40.0065 41.8406 38.6371 34.7571 39.8924 32.2113C39.8924 32.2113 36.9188 33.1167 34.858 35.8436C34.6298 34.0222 32.7973 30.5816 29.1322 31.6681C31.9918 40.0192 28.2193 42.0217 24.8967 40.9352C21.574 39.8487 20.547 33.8517 22.95 28.579C25.3531 23.317 21.3457 12.9634 16.3114 11.504C21.4599 21.4955 15.3985 31.1248 11.9617 32.2113C11.7334 29.3034 9.67271 26.9493 5.89358 26.5765C11.7872 36.7171 7.15553 46.7405 3.60461 43.2893C0.0537 39.8381 3.19515 34.9702 3.19515 34.9702C1.81909 35.5454 0.77865 36.5467 0 37.6012V50H268.5H537H805.5H1074V37.5799C1072.63 39.4227 1072.11 41.3933 1072.11 41.3933Z" fill="#FF00CF"/>
</svg>
