<svg width="60" height="91" viewBox="0 0 60 91" fill="none" xmlns="http://www.w3.org/2000/svg">
<path d="M59.0038 29.0886L29.997 0.0158081L0.990253 29.0886L29.997 58.1614L59.0038 29.0886Z" fill="#FF00CF"/>
<path d="M24.1267 23.2406C25.0138 25.1722 25.2279 27.0118 24.5855 29.158C24.8914 28.9434 25.075 28.8208 25.1973 28.6981C26.7575 27.3491 27.5834 25.5708 27.7364 23.5472C27.8281 22.3514 27.767 21.1863 27.7976 19.9906C27.8281 19.1628 27.8281 18.3349 27.9505 17.5378C28.3482 14.9316 29.9695 13.3373 32.3862 12.4788C32.4779 12.4481 32.5697 12.4481 32.6615 12.4175C32.6921 12.4788 32.7227 12.5401 32.7227 12.5401C31.6826 14.717 31.8355 16.9246 32.8756 19.0095C33.7016 20.6651 34.7111 22.2288 35.7511 23.7312C37.3113 25.9387 38.902 28.1156 39.7585 30.6911C40.1256 31.7948 40.4315 32.9906 40.5539 34.1557C40.8598 36.7618 40.0338 39.0614 38.2596 40.9623C37.556 41.6981 36.73 42.342 35.8123 43.1085C36.0876 42.0354 36.3324 41.1769 36.4853 40.3184C36.8524 38.2335 36.5159 36.2713 35.3229 34.493C35.0476 34.0944 34.8028 33.6958 34.5275 33.2972C33.4568 31.6722 32.5697 30.0165 33.0286 27.9316C32.325 28.6368 31.8661 29.526 31.8967 30.5071C31.9273 31.4882 32.0803 32.4694 32.3556 33.3892C32.6921 34.6156 33.2427 35.8114 33.5792 37.0378C34.191 39.3066 33.4262 41.2689 31.5908 42.4647C31.4073 42.5873 31.2237 42.6793 30.979 42.7406C31.652 41.6062 32.0191 40.4411 31.8967 39.1533C31.7743 37.8963 31.4378 36.7312 30.4284 35.8114C30.4895 36.118 30.5813 36.3939 30.5813 36.7005C30.5813 37.283 30.6119 37.9269 30.4589 38.4788C30.0919 39.5519 28.9294 39.7052 28.2258 38.8467C27.6752 38.2029 27.5528 37.467 27.6446 36.6392C27.7058 36.1793 27.7976 35.75 27.7364 35.1675C27.3693 35.4434 26.941 35.6581 26.6045 35.9953C25.3503 37.1911 24.8914 38.7547 24.9832 40.4411C25.0444 41.3915 25.1973 42.342 25.4421 43.2312C25.6868 44.1203 26.1457 44.9788 26.4822 45.868C26.4516 45.868 26.3904 45.868 26.3292 45.8373C21.0982 43.7831 18.0391 38.1415 19.7828 32.6533C20.1193 31.6415 20.7005 30.6911 21.2205 29.7406C21.7712 28.7595 22.4442 27.8397 22.9948 26.8585C23.3007 26.3373 23.5454 25.7241 23.729 25.1415C23.9431 24.5283 24.0043 23.9151 24.1267 23.2406Z" fill="white"/>
<path d="M23.5149 64.3868C23.5149 65.0307 23.3925 65.6132 23.1478 66.0731C22.903 66.533 22.5665 66.901 22.1383 67.1463C21.71 67.3915 21.2511 67.5142 20.7005 67.5142C20.1499 67.5142 19.691 67.3915 19.2628 67.1463C18.8345 66.901 18.498 66.533 18.2533 66.0731C18.0085 65.6132 17.8862 65.0613 17.8862 64.3868C17.8862 63.743 18.0085 63.1604 18.2533 62.7005C18.498 62.2406 18.8345 61.8727 19.2628 61.6274C19.691 61.3821 20.1499 61.2595 20.7005 61.2595C21.2511 61.2595 21.71 61.3821 22.1383 61.6274C22.5665 61.8727 22.903 62.2406 23.1478 62.7005C23.3925 63.1604 23.5149 63.743 23.5149 64.3868ZM22.4136 64.3868C22.4136 63.9269 22.3524 63.5283 22.1995 63.2217C22.0465 62.9151 21.863 62.6698 21.6182 62.4859C21.3735 62.3019 21.0676 62.2406 20.7311 62.2406C20.3946 62.2406 20.1193 62.3326 19.844 62.4859C19.5992 62.6392 19.3851 62.8845 19.2628 63.2217C19.1098 63.5283 19.0486 63.9269 19.0486 64.3868C19.0486 64.8467 19.1098 65.2453 19.2628 65.5519C19.4157 65.8585 19.5992 66.1038 19.844 66.2878C20.0887 66.4411 20.3946 66.533 20.7311 66.533C21.0676 66.533 21.3429 66.4411 21.6182 66.2878C21.863 66.1345 22.0771 65.8892 22.1995 65.5519C22.3218 65.2453 22.4136 64.8467 22.4136 64.3868Z" fill="white"/>
<path d="M29.6024 61.3514V67.4529H28.6235L25.748 63.3137H25.6868V67.4529H24.5856V61.3821H25.5645L28.4094 65.5212H28.4706V61.3821H29.6024V61.3514Z" fill="white"/>
<path d="M30.826 67.4529V61.3821H31.9273V66.5331H34.5887V67.4529H30.826Z" fill="white"/>
<path d="M34.5887 61.3514H35.843L37.3419 64.0495H37.4031L38.902 61.3514H40.1562L37.9537 65.1533V67.4222H36.7913V65.1533L34.5887 61.3514Z" fill="white"/>
<path d="M15.9896 70.4576V82.2005H14.2153V72.2359H14.1541L11.3398 74.0755V72.3892L14.2765 70.4576H15.9896Z" fill="white"/>
<path d="M23.3313 82.4152C22.4136 82.4152 21.6489 82.1699 21.0065 81.71C20.364 81.2501 19.8746 80.5449 19.5381 79.6251C19.2016 78.7053 19.0486 77.6321 19.0486 76.3444C19.0486 75.0567 19.2322 73.9835 19.5687 73.0944C19.9052 72.2052 20.3946 71.5001 21.037 71.0402C21.6794 70.5802 22.4442 70.335 23.3619 70.335C24.2491 70.335 25.0138 70.5802 25.6562 71.0402C26.2986 71.5307 26.7881 72.2052 27.1246 73.0944C27.4611 73.9835 27.6446 75.0873 27.6446 76.3444C27.6446 77.6321 27.4611 78.7053 27.1246 79.6251C26.7881 80.5449 26.2986 81.2194 25.6562 81.71C25.0138 82.1699 24.2491 82.4152 23.3313 82.4152ZM23.3313 80.8821C24.1267 80.8821 24.7385 80.4836 25.1974 79.717C25.6562 78.9505 25.8704 77.8161 25.8704 76.3444C25.8704 75.3633 25.7786 74.5354 25.5645 73.8609C25.3503 73.1864 25.075 72.6652 24.6773 72.3279C24.3102 71.9906 23.8514 71.8067 23.3313 71.8067C22.536 71.8067 21.9242 72.2052 21.4653 72.9718C21.0065 73.7383 20.7923 74.8727 20.7923 76.3444C20.7923 77.3255 20.8841 78.1534 21.0982 78.8279C21.3124 79.5024 21.5877 80.0236 21.9854 80.3609C22.383 80.6982 22.8113 80.8821 23.3313 80.8821Z" fill="white"/>
<path d="M33.8546 82.4152C32.9368 82.4152 32.1721 82.1699 31.5297 81.71C30.8873 81.2501 30.3978 80.5449 30.0613 79.6251C29.7248 78.7053 29.5413 77.6321 29.5413 76.3444C29.5413 75.0567 29.7248 73.9835 30.0613 73.0944C30.3978 72.2052 30.8873 71.5001 31.5297 71.0402C32.1721 70.5802 32.9368 70.335 33.8546 70.335C34.7417 70.335 35.5065 70.5802 36.1489 71.0402C36.7913 71.5307 37.2807 72.2052 37.6172 73.0944C37.9537 73.9835 38.1373 75.0873 38.1373 76.3444C38.1373 77.6321 37.9537 78.7053 37.6172 79.6251C37.2807 80.5449 36.7913 81.2194 36.1489 81.71C35.5065 82.1699 34.7417 82.4152 33.8546 82.4152ZM33.8546 80.8821C34.6499 80.8821 35.2617 80.4836 35.7206 79.717C36.1794 78.9505 36.3936 77.8161 36.3936 76.3444C36.3936 75.3633 36.3018 74.5354 36.0877 73.8609C35.8735 73.1864 35.5982 72.6652 35.2005 72.3279C34.8335 71.9906 34.3746 71.8067 33.8546 71.8067C33.0592 71.8067 32.4474 72.2052 31.9885 72.9718C31.5297 73.7383 31.3155 74.8727 31.3155 76.3444C31.3155 77.3255 31.4073 78.1534 31.6214 78.8279C31.8356 79.5024 32.1109 80.0236 32.5086 80.3609C32.9062 80.6982 33.3039 80.8821 33.8546 80.8821Z" fill="white"/>
<path d="M44.3472 82.4152C43.4294 82.4152 42.6647 82.1699 42.0223 81.71C41.3799 81.2501 40.8904 80.5449 40.5539 79.6251C40.2174 78.7053 40.0339 77.6321 40.0339 76.3444C40.0339 75.0567 40.2174 73.9835 40.5539 73.0944C40.8904 72.2052 41.3799 71.5001 42.0223 71.0402C42.6647 70.5802 43.4294 70.335 44.3472 70.335C45.2343 70.335 45.9991 70.5802 46.6415 71.0402C47.2839 71.5307 47.7733 72.2052 48.1098 73.0944C48.4463 73.9835 48.6299 75.0873 48.6299 76.3444C48.6299 77.6321 48.4463 78.7053 48.1098 79.6251C47.7733 80.5449 47.2839 81.2194 46.6415 81.71C46.0297 82.1699 45.2649 82.4152 44.3472 82.4152ZM44.3472 80.8821C45.1425 80.8821 45.7543 80.4836 46.2132 79.717C46.6721 78.9505 46.8862 77.8161 46.8862 76.3444C46.8862 75.3633 46.7944 74.5354 46.5803 73.8609C46.3662 73.1864 46.0908 72.6652 45.6932 72.3279C45.3261 71.9906 44.8672 71.8067 44.3472 71.8067C43.5518 71.8067 42.94 72.2052 42.4811 72.9718C42.0223 73.7383 41.8081 74.8727 41.8081 76.3444C41.8081 77.3255 41.8999 78.1534 42.114 78.8279C42.3282 79.5024 42.6035 80.0236 43.0012 80.3609C43.3989 80.6982 43.8271 80.8821 44.3472 80.8821Z" fill="white"/>
<path d="M25.228 84.8066V90.8774H24.2491L21.3736 86.7689H21.3124V90.9081H20.2111V84.8373H21.19L24.035 88.9765H24.0961V84.8373H25.228V84.8066Z" fill="white"/>
<path d="M26.4822 90.908V84.8373H30.3672V85.7571H27.5834V87.4128H30.0919V88.3326H27.5834V90.908H26.4822Z" fill="white"/>
<path d="M31.132 85.7571V84.8373H35.9653V85.7571H34.0993V90.908H32.998V85.7571H31.132Z" fill="white"/>
<path d="M39.9115 87.5354L38.9326 87.6274C38.902 87.5354 38.8714 87.4434 38.7796 87.3515C38.7184 87.2595 38.6267 87.1982 38.5043 87.1368C38.3819 87.0755 38.2596 87.0449 38.076 87.0449C37.8619 87.0449 37.6784 87.1062 37.5254 87.1982C37.3725 87.2901 37.3113 87.4128 37.3113 87.5661C37.3113 87.6887 37.3725 87.8114 37.4642 87.9033C37.556 87.9953 37.7395 88.0566 37.9537 88.118L38.7184 88.2713C39.1467 88.3632 39.4832 88.5165 39.6668 88.7005C39.8809 88.9151 39.9727 89.1604 39.9727 89.4977C39.9727 89.7736 39.8809 90.0496 39.7279 90.2642C39.575 90.4788 39.3303 90.6628 39.0549 90.7854C38.749 90.9081 38.4125 90.9694 38.0455 90.9694C37.4948 90.9694 37.036 90.8467 36.6995 90.6321C36.363 90.3868 36.1488 90.0802 36.0876 89.651L37.1277 89.559C37.1889 89.7736 37.2807 89.9269 37.4336 90.0189C37.5866 90.1109 37.8007 90.1722 38.0455 90.1722C38.2902 90.1722 38.5043 90.1109 38.6573 90.0189C38.8102 89.9269 38.902 89.7736 38.902 89.6203C38.902 89.4977 38.8408 89.375 38.749 89.2831C38.6573 89.1911 38.5043 89.1298 38.2902 89.0991L37.5254 88.9458C37.0971 88.8538 36.7606 88.7005 36.5465 88.4859C36.3324 88.2713 36.2406 87.9953 36.2406 87.6581C36.2406 87.3821 36.3018 87.1368 36.4853 86.9222C36.6383 86.7076 36.8524 86.5543 37.1277 86.4316C37.403 86.309 37.7395 86.2477 38.076 86.2477C38.5961 86.2477 39.0244 86.3703 39.3303 86.5849C39.6362 86.8609 39.8197 87.1675 39.9115 87.5354Z" fill="white"/>
</svg>
