<svg width="66" height="102" viewBox="0 0 66 102" fill="none" xmlns="http://www.w3.org/2000/svg">
<path d="M14.9488 33.0028C17.6913 38.8928 18.3532 44.5023 16.3673 51.0467C17.313 50.3923 17.8804 50.0183 18.2587 49.6444C23.0815 45.5307 25.6348 40.1082 26.1077 33.9377C26.3914 30.2915 26.2022 26.7388 26.2968 23.0926C26.3914 20.5683 26.3914 18.044 26.7696 15.6132C27.999 7.66636 33.011 2.80477 40.4818 0.186985C40.7655 0.0934929 41.0492 0.0934922 41.3329 0C41.4274 0.186984 41.522 0.37397 41.522 0.37397C38.3067 7.01192 38.7796 13.7434 41.9948 20.1008C44.5481 25.1494 47.6688 29.9175 50.8841 34.4986C55.7069 41.2301 60.6244 47.868 63.2723 55.7214C64.407 59.0871 65.3527 62.7333 65.731 66.286C66.6766 74.2328 64.1234 81.2447 58.6385 87.0412C56.4635 89.2851 53.9102 91.2484 51.0732 93.5857C51.9243 90.3135 52.6808 87.6957 53.1537 85.0779C54.2885 78.7204 53.2482 72.7369 49.5601 67.3144C48.709 66.099 47.9525 64.8836 47.1014 63.6682C43.7916 58.7131 41.0492 53.6645 42.4677 47.3071C40.2926 49.4574 38.8741 52.1687 38.9687 55.1604C39.0633 58.1521 39.5361 61.1439 40.3872 63.9487C41.4274 67.6884 43.1296 71.3346 44.1699 75.0742C46.0612 81.9927 43.697 87.9762 38.023 91.6224C37.4556 91.9963 36.8882 92.2768 36.1317 92.4638C38.2122 89.0046 39.347 85.4519 38.9687 81.5252C38.5904 77.692 37.5502 74.1393 34.4295 71.3346C34.6186 72.2695 34.9023 73.1109 34.9023 74.0458C34.9023 75.8222 34.9969 77.7855 34.5241 79.4684C33.3893 82.7406 29.7958 83.2081 27.6207 80.5903C25.9185 78.6269 25.5403 76.3831 25.824 73.8588C26.0131 72.4565 26.2968 71.1476 26.1077 69.3712C24.9729 70.2126 23.6489 70.8671 22.6087 71.8955C18.7315 75.5417 17.313 80.3098 17.5967 85.4519C17.7858 88.3501 18.2587 91.2484 19.0152 93.9597C19.7717 96.6709 21.1902 99.2887 22.2305 102C22.1359 102 21.9468 102 21.7576 101.907C5.58678 95.6425 -3.86986 78.44 1.52042 61.7049C2.56065 58.6196 4.35741 55.7214 5.96504 52.8231C7.66723 49.8313 9.74769 47.0266 11.4499 44.0348C12.3956 42.4455 13.1521 40.5756 13.7195 38.7993C14.3814 36.9294 14.5706 35.0596 14.9488 33.0028Z" fill="#FF00CF"/>
</svg>
