<svg width="219" height="133" viewBox="0 0 219 133" fill="none" xmlns="http://www.w3.org/2000/svg">
<path d="M132.912 66.9534L66.9395 0.980957L0.967023 66.9534L66.9395 132.926L132.912 66.9534Z" fill="#7000FF"/>
<path d="M74.7002 40.1001V90.0001H65.7002V48.9001H65.4002L53.7002 56.4001V48.1001L66.1002 40.1001H74.7002Z" fill="white"/>
<path d="M99 59.8V40H111.7V43H102.6V48.4H110.8V51.4H102.6V59.8H99Z" fill="white"/>
<path d="M118.701 40V59.8H115.101V40H118.701Z" fill="white"/>
<path d="M122.801 59.8V40H130.201C131.701 40 133.001 40.3 134.001 40.8C135.001 41.3 135.801 42.1 136.401 43C137.001 43.9 137.201 45.1 137.201 46.3C137.201 47.6 136.901 48.7 136.401 49.6C135.901 50.5 135.101 51.3 134.001 51.8C133.001 52.3 131.701 52.6 130.101 52.6H124.801V49.6H129.601C130.501 49.6 131.201 49.5 131.801 49.2C132.401 49 132.801 48.6 133.101 48.1C133.401 47.6 133.501 47 133.501 46.3C133.501 45.6 133.401 45 133.101 44.5C132.801 44 132.401 43.6 131.801 43.4C131.201 43.2 130.501 43 129.601 43H126.301V59.8H122.801ZM133.101 50.8L138.001 59.8H134.001L129.201 50.8H133.101Z" fill="white"/>
<path d="M151.5 45.3999C151.4 44.5999 151 43.8999 150.4 43.3999C149.7 42.8999 148.9 42.6999 147.8 42.6999C147 42.6999 146.4 42.7999 145.9 42.9999C145.4 43.1999 145 43.4999 144.7 43.8999C144.4 44.2999 144.3 44.6999 144.3 45.1999C144.3 45.5999 144.4 45.9999 144.6 46.2999C144.8 46.5999 145.1 46.8999 145.4 47.0999C145.7 47.2999 146.1 47.4999 146.5 47.5999C146.9 47.6999 147.3 47.8999 147.7 47.9999L149.6 48.4999C150.4 48.6999 151.1 48.8999 151.8 49.1999C152.5 49.4999 153.1 49.8999 153.7 50.2999C154.3 50.6999 154.7 51.2999 155 51.8999C155.3 52.4999 155.5 53.2999 155.5 54.0999C155.5 55.2999 155.2 56.2999 154.6 57.1999C154 58.0999 153.1 58.7999 152 59.2999C150.9 59.7999 149.5 59.9999 147.9 59.9999C146.4 59.9999 145 59.7999 143.9 59.2999C142.8 58.7999 141.9 58.0999 141.2 57.1999C140.6 56.2999 140.2 55.1999 140.2 53.7999H143.7C143.8 54.4999 144 55.0999 144.3 55.4999C144.7 55.9999 145.2 56.2999 145.8 56.4999C146.4 56.6999 147.1 56.7999 147.8 56.7999C148.6 56.7999 149.3 56.6999 149.9 56.3999C150.5 56.1999 151 55.7999 151.3 55.3999C151.6 54.9999 151.8 54.4999 151.8 53.8999C151.8 53.3999 151.6 52.9999 151.3 52.5999C151 52.1999 150.6 51.9999 150.1 51.6999C149.6 51.4999 148.9 51.2999 148.2 51.0999L145.9 50.4999C144.3 50.0999 143 49.3999 142 48.5999C141.1 47.6999 140.6 46.5999 140.6 45.1999C140.6 43.9999 140.9 42.9999 141.6 42.0999C142.2 41.1999 143.1 40.4999 144.2 40.0999C145.3 39.5999 146.5 39.3999 147.9 39.3999C149.3 39.3999 150.5 39.5999 151.6 40.0999C152.7 40.5999 153.5 41.2999 154.1 42.0999C154.7 42.8999 155 43.9999 155 45.0999H151.5V45.3999Z" fill="white"/>
<path d="M157.7 43V40H173.5V43H167.4V59.8H163.8V43H157.7Z" fill="white"/>
<path d="M201.501 49.9C201.501 52 201.101 53.9 200.301 55.4C199.501 56.9 198.401 58.1 197.001 58.9C195.601 59.7 194.101 60.0999 192.301 60.0999C190.501 60.0999 189.001 59.7 187.601 58.9C186.201 58.1 185.101 56.9 184.301 55.4C183.501 53.9 183.101 52.1 183.101 49.9C183.101 47.8 183.501 45.9 184.301 44.4C185.101 42.9 186.201 41.7 187.601 40.9C189.001 40.1 190.501 39.7 192.301 39.7C194.101 39.7 195.601 40.1 197.001 40.9C198.401 41.7 199.501 42.9 200.301 44.4C201.101 45.9 201.501 47.8 201.501 49.9ZM197.801 49.9C197.801 48.4 197.601 47.0999 197.101 46.0999C196.601 45.0999 196.001 44.3 195.201 43.7C194.401 43.2 193.401 42.9 192.301 42.9C191.201 42.9 190.301 43.2 189.401 43.7C188.501 44.2 187.901 44.9999 187.501 46.0999C187.001 47.0999 186.801 48.4 186.801 49.9C186.801 51.4 187.001 52.7 187.501 53.7C188.001 54.7 188.601 55.4999 189.401 56.0999C190.201 56.5999 191.201 56.9 192.301 56.9C193.401 56.9 194.301 56.5999 195.201 56.0999C196.001 55.5999 196.701 54.8 197.101 53.7C197.601 52.7 197.801 51.4 197.801 49.9Z" fill="white"/>
<path d="M205 59.8V40H217.7V43H208.6V48.4H216.8V51.4H208.6V59.8H205Z" fill="white"/>
<path d="M102 74V93.8H98.4004V74H102Z" fill="white"/>
<path d="M105.2 77V74H121V77H114.9V93.8H111.3V77H105.2Z" fill="white"/>
<path d="M127.1 74V76C127.1 76.6 127 77.2 126.8 77.8C126.6 78.4 126.3 79 125.9 79.5C125.5 80.1 125.1 80.5 124.6 80.9L123 79.8C123.4 79.3 123.7 78.7 123.9 78.1C124.2 77.5 124.3 76.8 124.3 76V74H127.1Z" fill="white"/>
<path d="M141.101 79.5C141.001 78.7 140.601 78 140.001 77.5C139.301 77 138.501 76.8 137.401 76.8C136.601 76.8 136.001 76.9 135.501 77.1C135.001 77.3 134.601 77.6 134.301 78C134.001 78.4 133.901 78.8 133.901 79.3C133.901 79.7 134.001 80.1 134.201 80.4C134.401 80.7 134.701 81 135.001 81.2C135.301 81.4 135.701 81.6 136.101 81.7C136.501 81.8 136.901 82 137.301 82.1L139.201 82.6C139.901 82.8 140.701 83 141.401 83.3C142.101 83.6 142.701 84 143.301 84.4C143.901 84.8 144.301 85.4 144.601 86C144.901 86.6 145.101 87.4 145.101 88.2C145.101 89.4 144.801 90.4 144.201 91.3C143.601 92.2 142.701 92.9 141.601 93.4C140.501 93.9 139.101 94.1 137.501 94.1C136.001 94.1 134.601 93.9 133.501 93.4C132.401 92.9 131.501 92.2 130.801 91.3C130.201 90.4 129.801 89.3 129.801 87.9H133.301C133.401 88.6 133.601 89.2 133.901 89.6C134.301 90.1 134.801 90.4 135.401 90.6C136.001 90.8 136.701 90.9 137.401 90.9C138.201 90.9 138.901 90.8 139.501 90.5C140.101 90.3 140.601 89.9 140.901 89.5C141.201 89.1 141.401 88.6 141.401 88C141.401 87.5 141.201 87.1 140.901 86.7C140.601 86.4 140.201 86.1 139.701 85.8C139.201 85.6 138.501 85.4 137.801 85.2L135.501 84.6C133.901 84.2 132.601 83.5 131.601 82.7C130.701 81.8 130.201 80.7 130.201 79.3C130.201 78.1 130.501 77.1 131.201 76.2C131.901 75.3 132.701 74.6 133.801 74.2C134.901 73.7 136.101 73.5 137.501 73.5C138.901 73.5 140.101 73.7 141.201 74.2C142.301 74.7 143.101 75.4 143.701 76.2C144.301 77.1 144.601 78.1 144.601 79.2H141.101V79.5Z" fill="white"/>
<path d="M155.101 93.9V74H158.701V83.1H158.901L166.601 74H171.001L163.301 82.9L171.001 93.8H166.701L160.801 85.3L158.601 87.9V93.8H155.101V93.9Z" fill="white"/>
<path d="M177.3 74V93.8H173.7V74H177.3Z" fill="white"/>
<path d="M197.7 74V93.8H194.5L185.1 80.3H185V93.8H181.4V74H184.6L193.9 87.5H194.1V74H197.7Z" fill="white"/>
<path d="M208.501 93.9H201.801V74H208.701C210.701 74 212.401 74.4 213.801 75.2C215.201 76 216.301 77.1 217.101 78.6C217.901 80.1 218.201 81.8 218.201 83.9C218.201 86 217.801 87.7 217.101 89.2C216.401 90.7 215.201 91.8 213.801 92.6C212.301 93.5 210.501 93.9 208.501 93.9ZM205.401 90.7H208.401C209.801 90.7 210.901 90.4 211.901 89.9C212.801 89.4 213.501 88.6 214.001 87.6C214.501 86.6 214.701 85.3 214.701 83.8C214.701 82.3 214.501 81 214.001 80C213.501 79 212.801 78.2 211.901 77.7C211.001 77.2 209.901 76.9 208.501 76.9H205.401V90.7Z" fill="white"/>
</svg>
