<svg width="1138" height="552" viewBox="0 0 1138 552" fill="none" xmlns="http://www.w3.org/2000/svg">
<path opacity="0.2" d="M515.669 474.634C535.045 459.017 542.558 390.026 553.828 373.026C565.098 356.223 564.702 373.619 573.204 367.886C581.508 362.351 578.147 368.677 581.113 343.176C583.881 317.477 644.382 247.893 644.382 247.893C657.826 244.137 672.457 230.299 672.457 230.299C679.377 230.694 692.229 240.578 703.894 238.008C715.559 235.439 711.803 227.729 729.399 225.752C746.996 223.973 739.878 242.753 750.555 252.044C752.532 253.823 754.707 254.811 757.079 255.404C757.87 255.602 758.661 255.8 759.452 255.8C760.441 255.998 761.627 255.998 762.615 255.998C764.197 255.998 765.779 255.8 767.361 255.602C769.14 255.207 770.919 254.811 772.304 254.416C772.304 254.416 772.501 254.416 772.501 254.218C772.106 254.416 771.71 254.811 771.513 255.009C771.315 255.207 770.92 255.405 770.722 255.602C770.524 255.8 770.326 255.998 770.129 256.195C767.361 259.358 767.756 264.3 781.003 271.417C806.904 285.057 819.162 266.277 819.162 266.277C824.698 271.812 845.063 268.452 854.949 257.579C864.834 246.706 858.705 245.125 851.785 243.939C844.667 242.555 843.086 235.241 856.53 220.81C869.975 206.379 878.872 217.054 890.735 227.927C942.734 273.196 964.285 172.378 960.133 187.006C946.096 236.427 987.418 255.998 990.582 248.683C971.008 189.379 1050.69 212.507 1078.76 67.0131C1082.12 50.2101 1048.71 4.15008 1046.34 11.4643C1017.67 100.817 990.582 -5.141 984.057 0.196428C977.532 5.33617 923.556 56.1406 901.016 54.9545C878.477 53.7684 885.199 177.518 867.207 175.936C849.215 174.355 857.717 162.494 850.797 150.435C843.679 138.376 834.782 138.376 821.93 138.376C809.079 138.179 807.695 133.632 799.193 126.911C790.691 119.992 775.467 127.109 764.593 117.027C753.718 106.747 771.513 116.434 757.673 95.4794C743.832 74.3274 738.296 79.4671 726.236 66.6177C714.175 53.7684 726.038 43.4889 711.012 30.4418C696.381 17.7902 634.693 50.6055 625.796 49.6171C616.899 48.6286 628.169 32.814 576.367 60.2919C524.566 87.7698 540.581 111.294 525.554 131.853C510.528 152.412 478.498 136.993 464.46 145.888C450.422 154.586 463.472 167.238 463.472 167.238C532.474 196.693 564.504 146.679 574.193 134.027C583.881 121.376 588.823 132.841 594.557 129.678C600.093 126.516 596.93 111.887 600.093 104.375C603.257 96.8632 644.975 86.979 655.454 92.5142C665.735 98.0493 657.233 121.969 666.526 127.702C675.818 133.434 704.685 122.562 712.989 116.829C721.293 111.096 712.198 97.6539 726.236 98.6423C740.076 99.6307 746.798 117.422 746.205 132.841C745.612 148.458 752.137 143.121 761.429 147.865C770.722 152.61 758.266 157.156 767.954 174.355C777.444 191.553 787.725 195.111 787.725 195.111C787.725 195.111 769.14 208.751 759.254 207.961C749.368 207.17 744.821 190.762 729.597 186.413C714.373 182.064 694.206 209.344 683.925 216.461C673.643 223.38 662.374 218.24 653.081 214.484C643.788 210.728 618.678 217.054 601.477 243.741C584.276 270.428 558.375 333.884 558.375 333.884C558.375 333.884 550.269 331.71 534.452 341.989C518.634 352.071 516.262 392.003 503.41 401.492C490.361 410.981 480.475 420.865 470.589 431.54C460.704 442.412 456.552 449.924 414.241 452.296C371.929 454.668 331.2 431.54 323.094 407.225C314.987 382.91 347.808 396.154 336.736 373.421C325.664 350.687 302.333 364.921 302.333 364.921C302.333 364.921 299.763 381.328 284.341 351.874C268.722 322.419 239.064 334.082 239.064 334.082C192.997 275.173 247.369 263.509 247.369 263.509C247.369 263.509 319.535 272.998 289.284 223.775C259.034 174.552 241.635 189.774 241.635 189.774C241.635 189.774 241.635 189.774 218.897 178.308C195.962 166.843 165.514 190.762 165.514 190.762C126.169 172.18 78.7171 224.764 63.8885 247.102C49.0598 269.44 -5.31202 280.115 0.421738 330.722C5.95778 381.328 33.0448 373.026 33.0448 373.026C37.79 391.212 54.7935 384.689 54.7935 384.689C54.7935 384.689 76.5423 438.854 93.3481 449.529C110.154 460.401 129.728 447.552 143.963 460.994C143.963 460.994 151.674 468.902 150.883 481.553C150.092 494.205 136.648 509.624 143.568 520.694C150.488 531.765 179.354 534.137 190.624 537.497C201.894 540.858 217.118 534.73 229.97 534.928C242.821 535.125 281.573 558.649 348.203 550.149C414.043 541.649 496.293 490.251 515.669 474.634ZM777.642 252.044H777.84H777.642C777.444 252.242 777.246 252.242 776.851 252.439C776.653 252.637 776.258 252.637 775.862 252.835C775.269 253.032 774.478 253.428 773.688 253.625C773.49 253.823 773.094 253.823 772.699 254.021C773.688 253.428 774.478 253.032 775.467 252.637L776.258 252.242C776.851 252.242 777.246 252.242 777.642 252.044ZM168.48 421.655C162.351 411.574 176.191 397.934 184.297 400.108C184.297 400.108 183.902 384.096 201.696 395.561C219.491 407.027 216.525 427.784 205.057 432.33C193.59 436.679 180.145 441.424 168.48 421.655ZM249.543 506.659C241.833 497.566 242.426 506.066 222.654 504.484C202.685 502.903 205.255 475.425 201.696 459.808C200.115 452.296 220.084 436.086 226.806 443.005C225.818 441.819 218.107 430.749 238.867 432.726C260.813 434.703 291.459 444.784 301.938 461.39C312.417 477.797 312.417 456.645 320.721 473.053C329.223 489.461 306.288 488.868 290.273 497.961C274.258 506.857 257.254 515.555 249.543 506.659Z" fill="#7000FF"/>
<path d="M382.5 25.8C381.6 17.5 380.6 9.3 379.6 1H332.5C334.4 3.5 335.8 6.5 336.7 10.2C339.2 20.6 340.2 31.6 341.9 42.3C342.9 51.4 344.8 60.1 345.1 69.6C346.3 90.1 338.2 106.9 327.9 122.8C313.2 146.3 295.5 167.3 279.3 189.5C273.3 197.8 266.5 206.4 260.2 213.9C252 172.6 248 132.3 249.6 91.6C250.1 83.8 248.2 75 247.5 66.7L246 43.5C244.4 37.5 247 32.6 252 28.5C265.3 19 278.9 8.7 294.2 1H185.8C185.5 7.1 182.4 10.7 175.9 13.5C172.7 14.9 169.7 19 166 21.6C151.9 35.3 137.4 48.2 123.2 61.9C119.9 65.2 115 67.3 112 71.5L74.8 120C74.8 120 74.8 120 74.3 121.2C71.7 126.1 69.4 131.9 74.2 136.5C78.7 140.3 83.6 136.3 88.1 133.4C94.2 129.8 99.9 125.4 106 121.9C127.4 111.8 148.4 100.8 167.7 85.8C173.9 80.3 181.9 76.8 189.7 72.5C191.1 75.7 191.8 77.3 191.3 78.5C192.9 97.8 194.6 117.2 195.1 136C195.9 149 195.6 161.5 195.3 174.1L196.7 210.7C196.1 213.8 197.2 216.2 197.4 219C198.8 235.6 198.2 252 202.4 268.4C205.9 283.1 206.8 294.2 195.9 306.5C184.5 320 177 335.6 167.1 350.4L162.6 360C160.3 365.8 163.9 378.5 168 381.5C172.2 384.5 181.7 382.3 187.1 377.1L188.8 374.4C196.8 364.3 205.3 353 213.4 342.9C215.1 340.2 216.8 337.6 219.4 334.6C221.8 353.6 224.7 371.4 225.7 389.1C228.4 430.9 226.4 472.8 232.6 513.9C234.2 526.4 235.5 538.8 236.9 551.2H293.9C293.7 541.2 293.4 531.3 293.1 521.3C291.5 495.3 289.3 470.5 286.9 444.8C282.7 408.4 273.4 373.4 276.6 336.6C276.8 332.7 275.4 329.5 274.8 325.9C274.1 317.6 272.3 308.9 273.9 301.5C276.6 287.9 282.5 274.9 286.7 262.6C295 241.9 310.4 226.7 324.6 211C338.5 194.5 349.8 176.3 357.9 157.6C364.8 140.3 369.3 122.1 374.3 104.8C378.2 91.7 380.1 78.4 381.3 65.6C382.5 52.5 383.3 38.8 382.5 25.8Z" fill="black"/>
<path d="M571.7 330.8C571.3 303.3 569.8 275.3 567.5 247.7C565.6 232.3 561.4 217.9 558.7 202.8C554.9 180.6 551.8 158 548.4 136.6C547.1 131.4 546.7 125.9 544.1 122.2L519.2 91.0001C514.4 86.4001 509 84.9001 502.8 88.5001C495.9 92.4001 488.6 97.5001 482.7 103.8C479 106.3 477.9 112.6 477.7 116.5C479.4 133.9 482 150.9 483.7 168.3C485 180.2 487.1 191.7 487.2 203C488.6 232.9 488.9 262.4 494.7 291.4C497.2 301.7 495.8 313.8 496.4 324.1C496.8 338.2 494.8 351.5 495.7 364.5C500.9 416.6 501.1 468 490.7 519.3C489.6 525.5 488.5 529.8 481.7 531.7C478.9 525.3 477 518.5 474.2 512C468.3 498.3 465.2 484.4 465.3 469.1C465.2 451 462.3 433.2 460.5 415.8C458.2 401.5 455 387.6 451.9 373.7L449.5 361.4C446.1 344.7 441.2 328.7 442.2 311.1C442.8 301.3 439.8 292.1 436.8 282.9C434.3 272.5 429 262.4 426.4 252.1C423.1 242.1 419.2 233.2 408.1 229.4C405.8 228.5 403.1 226.8 401.3 224.7C393.4 219.5 386.2 220.7 382.5 229.9C379.7 236.8 378.1 244.2 378.5 251.7C378.7 276.4 380.7 301.3 382.5 325.3C382.6 330 384 333.2 384.1 338C384.8 346.3 385.9 355.4 387.7 364.1C388.7 379.9 391 396.1 394 412C396.7 427.1 399.3 442.1 402.8 456.9C406 475.5 409.3 494.2 413.7 513.3C415.9 525.7 420.2 538.4 422.7 551.1H560.7C561.4 544.5 562 537.8 562.7 531.3C564.2 512.5 564.9 492.2 564.5 473.3C564.1 439.1 563.7 405 568.1 370.7C569 357.7 571.7 344.1 571.7 330.8Z" fill="black"/>
<path d="M821 455.2C819.8 449 818 443 814.3 437.9C802.5 422.7 789.5 408.1 777.8 393C776.4 391.4 775.3 388.8 775.4 387.3L772.1 348.3C771.7 344 770.1 340.2 770.6 336.2C774.6 319.5 769.7 302.9 767.6 285.8C764.7 266.9 763.3 248 766.5 229.4C766.9 227 766.8 224.8 766.6 222.6C764.7 192 763 162 761.7 131.1C761.6 127.4 762.1 123.4 762 119.7C762.4 106.8 762.9 93.9 762.7 81.2C762.4 64.9 760.8 49.1 761.5 33.1C761.5 21.8 759.3 11.2 755.7 0.900024H723.7C723.5 2.20002 723.3 3.50002 723.1 4.70002C720.9 20.6 719.7 36.9 715.7 52C709.7 76.3 707.7 99.6 710 124C712.1 141.1 713.3 157.8 707.1 174.7C706 177.4 706.1 181.1 706.2 184.8C707.9 199.1 709.8 214 710.1 228.8C710.9 241.2 711.1 253.8 711.3 266.4C710.4 266 709.1 266.6 708.2 266.2C707 265.2 706.5 263.9 705.9 262.7C700.6 247 695.7 231.9 691.3 216.6C688.7 208.7 688.2 200.7 684.9 193.1C682 184.6 678.5 176.4 674.9 168.2C667.6 151.1 660 133.5 653.3 116.1C651.7 112.3 649.1 108.2 647.5 104.4C641.2 91.4 635.7 78.8 629.7 66.4C627 60.1 616.3 57.9 610.9 61C598.8 67.7 590.6 76.5 591.9 91.6C592 95.3 591.8 98.4 591.3 102.3C587.9 124 590.4 145.4 592.2 167C593.5 187.4 596 208.8 595.4 230C595.3 242 591.9 253.2 593.6 265.9C596.3 282.7 599.1 299.5 595.3 316.8C594.5 320.1 596.4 324.6 596.8 328.9C597.5 332.3 598.9 335.5 599.3 338.3C599.6 354.6 599.6 370.4 601.2 386.1C602.5 401.3 606.2 416.9 608.1 431.8C610.9 457.5 616.6 482.8 624.1 507.3C628.4 524.2 639.5 529.1 654.2 530.3C661.2 531 665.6 525.4 667.8 518.5C670.9 506.7 667.3 494.8 665.8 482.7C663.9 467.8 660.4 452.8 658.9 437C657.4 424.9 655.7 412.2 654.9 399.8C654.6 395.5 655.4 390.6 655.1 386.3C654.8 375.2 655.5 362.9 652.1 353.2C646.9 336 647.6 318.4 648 301.8C648.2 293.5 649.5 286.2 650.6 278.2C650.4 276 650.9 273.6 651.6 271.8C655.9 276.7 659.4 281.2 661.8 286.9L683 336.2C684.9 340.6 687.4 344.8 690 348.9C695.4 356.3 700.5 364.6 706.3 371.1C718.3 386.9 723.5 404.1 725.8 423.4C726.5 426.8 726.6 430.5 726.7 434.2C725.9 448 729.5 459.9 736.6 471.1C747.4 487.4 774 485 782 468.8L792.3 471.9C796 471.8 799.3 472.6 802.8 471.9C813.2 472 822.3 463.6 821 455.2Z" fill="black"/>
<path d="M1111.8 69.9C1120.4 61.8 1128.7 53.6 1137 45.2V19C1137 9.1 1128.9 1 1119 1H1101.7C1084.9 16 1068.5 31.1 1053.8 48.1C1037.4 67.6 1024.7 89.2 1014.1 111C1012.3 115.6 1009.3 119.8 1009.4 124.5C1009.5 135.9 1011.6 147.4 1013.4 158.1C1015.5 169.6 1023.3 176.7 1034.3 177.8C1040.5 178.9 1046.4 179.3 1051.9 178.8C1074 176.9 1096.5 173.9 1118.3 171.2C1124.6 170.3 1130.9 169.7 1137.1 169.2V109.5C1116 109.5 1095.2 107.4 1073.3 106.5C1076.3 102.4 1078.4 100.5 1080.1 97.9C1090.3 88.7 1101.8 79.9 1111.8 69.9Z" fill="black"/>
<path d="M1137 262.2V359.6C1131.9 367.1 1126.8 374.5 1121 381.7C1102.7 405.8 1083.8 428.2 1065.5 452.3C1053.2 468.1 1041.7 483.5 1031.7 500.2C1024.5 510 1015.1 515 1004 517.9C997.2 519.9 990.8 516 988.5 508.4C982.5 490 982.4 471.9 992.1 452.5C1005.7 426.6 1025.4 405.7 1044 382.5C1046.3 379.5 1048.5 376.6 1050.8 373.6C1038.7 370.4 1027.7 364.1 1017.4 355.1C1004.7 343.4 988.4 334.2 974.4 324C954.8 309.5 931.3 301.5 910.4 290.5C903.2 286.9 897.2 281.9 889.2 276.7C889.3 288.1 889.6 297.5 889.8 306.9L894 376.6C895.2 397.1 897.8 418.8 899 439.3C899.6 442.9 899.8 445.6 899.6 449.5C898.6 460.4 893.5 466.4 883.6 467.8C876.5 469 871.3 463.6 867.1 453.9C859.3 433.4 854.6 411.6 851.6 389C846.6 353 841.6 317 834.7 280.9C832.1 263.9 826 247.4 821.9 231.1L803.1 162.9C801.3 154.2 800.2 145.1 800.3 136.4C802.1 105.1 797.2 73.8 789.9 43.6C786.1 29.9 784 15.5 781.4 1H863.3C870.9 34.1 874.8 68.1 876.1 101.9C876.2 113.3 878.3 124.8 880.3 138.3C891.3 124 903 111.3 913.6 98.2C932.2 74.9 949.7 51.2 968.3 27.9C976.1 18.1 983.5 8.6 992.8 1H1022.9C1022.7 3 1022 5.1 1021.3 7C1018.4 15.9 1013.3 23.8 1009.3 32.2L1001.7 47.9C998.7 52 994.6 55.7 991.6 59.9C990.3 61.4 988.3 63.2 987.4 65.5C968.4 94.6 949.5 123.8 930.9 153.7L895.3 212.9C904.7 219.3 913.5 224.1 921 230.5C944.7 248 968.8 266.2 992.9 284.5L1035.7 317.6C1044.7 325.2 1054 333.6 1062.2 341.5C1064.7 343.6 1067.2 346 1069.7 348.3C1082.9 330.5 1096.1 312.5 1109.5 295.1C1116.7 285.3 1126.3 276.4 1134.3 266.3C1135.2 265 1136.1 263.6 1137 262.2Z" fill="black"/>
</svg>
