<svg width="1067" height="552" viewBox="0 0 1067 552" fill="none" xmlns="http://www.w3.org/2000/svg">
<path d="M311.5 25.8C310.6 17.5 309.6 9.3 308.6 1H261.5C263.4 3.5 264.8 6.5 265.7 10.2C268.2 20.6 269.2 31.6 270.9 42.3C271.9 51.4 273.8 60.1 274.1 69.6C275.3 90.1 267.2 106.9 256.9 122.8C242.2 146.3 224.5 167.3 208.3 189.5C202.3 197.8 195.5 206.4 189.2 213.9C181 172.6 177 132.3 178.6 91.6C179.1 83.8 177.2 75 176.5 66.7L175 43.5C173.4 37.5 176 32.6 181 28.5C194.3 19 207.9 8.7 223.2 1H114.8C114.5 7.1 111.4 10.7 104.9 13.5C101.7 14.9 98.7 19 95 21.6C80.9 35.3 66.4 48.2 52.2 61.9C48.9 65.2 44 67.3 41 71.5L3.79996 120C3.79996 120 3.79996 120 3.29996 121.2C0.69996 126.1 -1.60002 131.9 3.19998 136.5C7.69998 140.3 12.6 136.3 17.1 133.4C23.2 129.8 28.9 125.4 35 121.9C56.4 111.8 77.4 100.8 96.7 85.8C102.9 80.3 110.9 76.8 118.7 72.5C120.1 75.7 120.8 77.3 120.3 78.5C121.9 97.8 123.6 117.2 124.1 136C124.9 149 124.6 161.5 124.3 174.1L125.7 210.7C125.1 213.8 126.2 216.2 126.4 219C127.8 235.6 127.2 252 131.4 268.4C134.9 283.1 135.8 294.2 124.9 306.5C113.5 320 106 335.6 96.1 350.4L91.6 360C89.3 365.8 92.9 378.5 97 381.5C101.2 384.5 110.7 382.3 116.1 377.1L117.8 374.4C125.8 364.3 134.3 353 142.4 342.9C144.1 340.2 145.8 337.6 148.4 334.6C150.8 353.6 153.7 371.4 154.7 389.1C157.4 430.9 155.4 472.8 161.6 513.9C163.2 526.4 164.5 538.8 165.9 551.2H222.9C222.7 541.2 222.4 531.3 222.1 521.3C220.5 495.3 218.3 470.5 215.9 444.8C211.7 408.4 202.4 373.4 205.6 336.6C205.8 332.7 204.4 329.5 203.8 325.9C203.1 317.6 201.3 308.9 202.9 301.5C205.6 287.9 211.5 274.9 215.7 262.6C224 241.9 239.4 226.7 253.6 211C267.5 194.5 278.8 176.3 286.9 157.6C293.8 140.3 298.3 122.1 303.3 104.8C307.2 91.7 309.1 78.4 310.3 65.6C311.5 52.5 312.3 38.8 311.5 25.8Z" fill="black"/>
<path d="M500.7 330.8C500.3 303.3 498.8 275.3 496.5 247.7C494.6 232.3 490.4 217.9 487.7 202.8C483.9 180.6 480.8 158 477.4 136.6C476.1 131.4 475.7 125.9 473.1 122.2L448.2 91.0001C443.4 86.4001 438 84.9001 431.8 88.5001C424.9 92.4001 417.6 97.5001 411.7 103.8C408 106.3 406.9 112.6 406.7 116.5C408.4 133.9 411 150.9 412.7 168.3C414 180.2 416.1 191.7 416.2 203C417.6 232.9 417.9 262.4 423.7 291.4C426.2 301.7 424.8 313.8 425.4 324.1C425.8 338.2 423.8 351.5 424.7 364.5C429.9 416.6 430.1 468 419.7 519.3C418.6 525.5 417.5 529.8 410.7 531.7C407.9 525.3 406 518.5 403.2 512C397.3 498.3 394.2 484.4 394.3 469.1C394.2 451 391.3 433.2 389.5 415.8C387.2 401.5 384 387.6 380.9 373.7L378.5 361.4C375.1 344.7 370.2 328.7 371.2 311.1C371.8 301.3 368.8 292.1 365.8 282.9C363.3 272.5 358 262.4 355.4 252.1C352.1 242.1 348.2 233.2 337.1 229.4C334.8 228.5 332.1 226.8 330.3 224.7C322.4 219.5 315.2 220.7 311.5 229.9C308.7 236.8 307.1 244.2 307.5 251.7C307.7 276.4 309.7 301.3 311.5 325.3C311.6 330 313 333.2 313.1 338C313.8 346.3 314.9 355.4 316.7 364.1C317.7 379.9 320 396.1 323 412C325.7 427.1 328.3 442.1 331.8 456.9C335 475.5 338.3 494.2 342.7 513.3C344.9 525.7 349.2 538.4 351.7 551.1H489.7C490.4 544.5 491 537.8 491.7 531.3C493.2 512.5 493.9 492.2 493.5 473.3C493.1 439.1 492.7 405 497.1 370.7C498 357.7 500.7 344.1 500.7 330.8Z" fill="black"/>
<path d="M750 455.2C748.8 449 747 443 743.3 437.9C731.5 422.7 718.5 408.1 706.8 393C705.4 391.4 704.3 388.8 704.4 387.3L701.1 348.3C700.7 344 699.1 340.2 699.6 336.2C703.6 319.5 698.7 302.9 696.6 285.8C693.7 266.9 692.3 248 695.5 229.4C695.9 227 695.8 224.8 695.6 222.6C693.7 192 692 162 690.7 131.1C690.6 127.4 691.1 123.4 691 119.7C691.4 106.8 691.9 93.9 691.7 81.2C691.4 64.9 689.8 49.1 690.5 33.1C690.5 21.8 688.3 11.2 684.7 0.900024H652.7C652.5 2.20002 652.3 3.50002 652.1 4.70002C649.9 20.6 648.7 36.9 644.7 52C638.7 76.3 636.7 99.6 639 124C641.1 141.1 642.3 157.8 636.1 174.7C635 177.4 635.1 181.1 635.2 184.8C636.9 199.1 638.8 214 639.1 228.8C639.9 241.2 640.1 253.8 640.3 266.4C639.4 266 638.1 266.6 637.2 266.2C636 265.2 635.5 263.9 634.9 262.7C629.6 247 624.7 231.9 620.3 216.6C617.7 208.7 617.2 200.7 613.9 193.1C611 184.6 607.5 176.4 603.9 168.2C596.6 151.1 589 133.5 582.3 116.1C580.7 112.3 578.1 108.2 576.5 104.4C570.2 91.4 564.7 78.8 558.7 66.4C556 60.1 545.3 57.9 539.9 61C527.8 67.7 519.6 76.5 520.9 91.6C521 95.3 520.8 98.4 520.3 102.3C516.9 124 519.4 145.4 521.2 167C522.5 187.4 525 208.8 524.4 230C524.3 242 520.9 253.2 522.6 265.9C525.3 282.7 528.1 299.5 524.3 316.8C523.5 320.1 525.4 324.6 525.8 328.9C526.5 332.3 527.9 335.5 528.3 338.3C528.6 354.6 528.6 370.4 530.2 386.1C531.5 401.3 535.2 416.9 537.1 431.8C539.9 457.5 545.6 482.8 553.1 507.3C557.4 524.2 568.5 529.1 583.2 530.3C590.2 531 594.6 525.4 596.8 518.5C599.9 506.7 596.3 494.8 594.8 482.7C592.9 467.8 589.4 452.8 587.9 437C586.4 424.9 584.7 412.2 583.9 399.8C583.6 395.5 584.4 390.6 584.1 386.3C583.8 375.2 584.5 362.9 581.1 353.2C575.9 336 576.6 318.4 577 301.8C577.2 293.5 578.5 286.2 579.6 278.2C579.4 276 579.9 273.6 580.6 271.8C584.9 276.7 588.4 281.2 590.8 286.9L612 336.2C613.9 340.6 616.4 344.8 619 348.9C624.4 356.3 629.5 364.6 635.3 371.1C647.3 386.9 652.5 404.1 654.8 423.4C655.5 426.8 655.6 430.5 655.7 434.2C654.9 448 658.5 459.9 665.6 471.1C676.4 487.4 703 485 711 468.8L721.3 471.9C725 471.8 728.3 472.6 731.8 471.9C742.2 472 751.3 463.6 750 455.2Z" fill="black"/>
<path d="M1040.8 69.9C1049.4 61.8 1057.7 53.6 1066 45.2V19C1066 9.1 1057.9 1 1048 1H1030.7C1013.9 16 997.5 31.1 982.8 48.1C966.4 67.6 953.7 89.2 943.1 111C941.3 115.6 938.3 119.8 938.4 124.5C938.5 135.9 940.6 147.4 942.4 158.1C944.5 169.6 952.3 176.7 963.3 177.8C969.5 178.9 975.4 179.3 980.9 178.8C1003 176.9 1025.5 173.9 1047.3 171.2C1053.6 170.3 1059.9 169.7 1066.1 169.2V109.5C1045 109.5 1024.2 107.4 1002.3 106.5C1005.3 102.4 1007.4 100.5 1009.1 97.9C1019.3 88.7 1030.8 79.9 1040.8 69.9Z" fill="black"/>
<path d="M1066 262.2V359.6C1060.9 367.1 1055.8 374.5 1050 381.7C1031.7 405.8 1012.8 428.2 994.5 452.3C982.2 468.1 970.7 483.5 960.7 500.2C953.5 510 944.1 515 933 517.9C926.2 519.9 919.8 516 917.5 508.4C911.5 490 911.4 471.9 921.1 452.5C934.7 426.6 954.4 405.7 973 382.5C975.3 379.5 977.5 376.6 979.8 373.6C967.7 370.4 956.7 364.1 946.4 355.1C933.7 343.4 917.4 334.2 903.4 324C883.8 309.5 860.3 301.5 839.4 290.5C832.2 286.9 826.2 281.9 818.2 276.7C818.3 288.1 818.6 297.5 818.8 306.9L823 376.6C824.2 397.1 826.8 418.8 828 439.3C828.6 442.9 828.8 445.6 828.6 449.5C827.6 460.4 822.5 466.4 812.6 467.8C805.5 469 800.3 463.6 796.1 453.9C788.3 433.4 783.6 411.6 780.6 389C775.6 353 770.6 317 763.7 280.9C761.1 263.9 755 247.4 750.9 231.1L732.1 162.9C730.3 154.2 729.2 145.1 729.3 136.4C731.1 105.1 726.2 73.8 718.9 43.6C715.1 29.9 713 15.5 710.4 1H792.3C799.9 34.1 803.8 68.1 805.1 101.9C805.2 113.3 807.3 124.8 809.3 138.3C820.3 124 832 111.3 842.6 98.2C861.2 74.9 878.7 51.2 897.3 27.9C905.1 18.1 912.5 8.6 921.8 1H951.9C951.7 3 951 5.1 950.3 7C947.4 15.9 942.3 23.8 938.3 32.2L930.7 47.9C927.7 52 923.6 55.7 920.6 59.9C919.3 61.4 917.3 63.2 916.4 65.5C897.4 94.6 878.5 123.8 859.9 153.7L824.3 212.9C833.7 219.3 842.5 224.1 850 230.5C873.7 248 897.8 266.2 921.9 284.5L964.7 317.6C973.7 325.2 983 333.6 991.2 341.5C993.7 343.6 996.2 346 998.7 348.3C1011.9 330.5 1025.1 312.5 1038.5 295.1C1045.7 285.3 1055.3 276.4 1063.3 266.3C1064.2 265 1065.1 263.6 1066 262.2Z" fill="black"/>
</svg>
