<svg width="236" height="316" viewBox="0 0 236 316" fill="none" xmlns="http://www.w3.org/2000/svg">
<path d="M173.463 159.757C170.392 174.256 172.598 189.578 179.831 202.843L185.025 212.406L194.154 229.168C178.863 239.019 151.824 249.405 133.153 255.493C131.154 248.953 120.128 216.232 99.6019 216.232C84.6606 223.656 65.9274 230.176 64.6085 230.587C59.3533 232.212 47.627 208.663 47.627 208.663L43.9174 205.188C42.7633 204.098 42.1863 202.535 42.3924 200.972L42.5985 199.306C40.4758 199.121 39.1156 198.833 39.198 198.442C39.2805 198.01 39.4041 197.475 39.5484 196.9C39.9193 195.419 40.4552 193.588 40.8055 191.923C41.1559 190.277 41.3619 188.838 41.094 188.097C40.4552 186.308 37.6318 184.231 36.251 183.202C33.7162 181.331 29.7593 178.328 28.8731 177.238C28.4404 176.704 28.3579 176.004 28.4404 175.326C28.6052 173.927 29.4708 172.549 29.4708 172.549C29.4708 172.549 43.3816 152.723 42.7221 144.579C42.3306 139.787 24.0919 127.242 28.7907 101.822C29.4914 97.9966 30.2745 94.1713 31.1195 90.4282C37.2402 63.4248 47.1736 39.0949 62.5682 29.7168C85.3201 15.8346 134.657 26.6318 166.23 32.0407C181.439 34.6526 199.121 97.4002 197.349 106.203C196.936 108.218 192.382 117.061 187.044 127.674C184.056 133.638 180.82 140.157 177.956 146.307C177.791 146.636 177.647 146.965 177.502 147.294C175.73 151.325 174.37 155.5 173.463 159.757Z" fill="#0055FF"/>
<path d="M173.998 159.757C170.928 174.256 173.133 189.578 180.366 202.843L185.56 212.406L194.689 229.168C179.398 239.019 152.359 249.405 133.688 255.493C131.689 248.953 120.663 216.232 100.137 216.232C85.1958 223.656 66.4626 230.176 65.1436 230.587C59.8884 232.212 48.1621 208.663 48.1621 208.663L44.4526 205.188C43.2985 204.098 42.7214 202.535 42.9275 200.972L43.1336 199.306C41.0109 199.121 39.6508 198.833 39.7332 198.442C39.8156 198.01 39.9393 197.475 40.0835 196.9C40.4545 195.419 40.9903 193.588 41.3407 191.923C41.691 190.277 41.8971 188.838 41.6292 188.097C40.9903 186.308 38.1669 184.231 36.7862 183.202C34.2513 181.331 30.2945 178.328 29.4083 177.238C28.9755 176.704 28.8931 176.004 28.9755 175.326C29.1404 173.927 30.0059 172.549 30.0059 172.549C30.0059 172.549 43.9167 152.723 43.2573 144.579C42.8657 139.787 24.6271 127.242 29.3259 101.822C30.0265 97.9966 30.8097 94.1713 31.6546 90.4282C37.7754 63.4248 47.7087 39.0949 63.1034 29.7168C85.8553 15.8346 135.192 26.6318 166.765 32.0407C181.974 34.6526 199.656 97.4002 197.884 106.203C197.472 108.218 192.917 117.061 187.579 127.674C184.591 133.638 181.356 140.157 178.491 146.307C178.326 146.636 178.182 146.965 178.038 147.294C176.265 151.325 174.905 155.5 173.998 159.757Z" fill="#0055FF"/>
<path d="M197.389 106.182C196.977 108.197 192.402 117.041 187.085 127.653C184.097 133.617 180.861 140.136 177.997 146.286C177.832 146.615 177.687 146.944 177.543 147.273C175.73 151.324 174.369 155.499 173.463 159.757L161.036 154.944C165.425 137.072 168.784 123.848 164.498 118.542C157.429 109.76 138.469 116.917 134.78 118.645C120.354 125.39 107.165 152.312 107.165 152.312L100.735 148.301L92.5738 146.059C96.0979 132.65 102.239 105.03 102.548 95.2403L137.398 77.5122L99.9517 86.2117C97.6641 83.3325 94.2431 80.4738 90.6572 77.9441C84.2479 73.4195 77.3234 69.9644 75.4275 69.3269C72.1095 68.1957 56.7973 67.5582 47.5234 80.3298C42.4331 86.7876 33.118 89.8314 31.1602 90.4072C37.2809 63.4038 47.2143 39.074 62.6089 29.6958C85.3608 15.8136 134.698 26.6108 166.27 32.0197C181.459 34.6317 199.162 97.3792 197.389 106.182Z" fill="#FF00CF"/>
<path d="M233.475 314.476H103.806C112.647 297.447 126.166 271.246 133.482 256.623C133.482 256.623 112.729 243.708 112.503 242.988C130.267 233.569 169.362 204.961 184.633 195.089L197.431 235.235C197.431 235.235 223.088 248.356 228.467 273.529C233.887 298.702 233.475 314.476 233.475 314.476Z" fill="black"/>
<path d="M233.475 316.019H103.805L102.445 313.777C107.144 304.708 122.868 274.372 131.503 257.179C129.669 256.027 125.96 253.703 122.271 251.359C111.369 244.407 111.286 244.14 111.06 243.42L111.802 241.631C123.507 235.42 144.817 220.633 161.963 208.725C170.928 202.514 178.656 197.126 183.829 193.794L186.116 194.617L198.729 234.165C200.48 235.132 205.962 238.34 211.98 243.79C218.616 249.796 227.127 259.791 229.992 273.18C235.35 298.229 235 313.839 235 314.477L233.475 316.019ZM106.32 312.955H231.929C231.909 306.538 230.878 292.018 226.983 273.858C224.283 261.251 216.205 251.811 209.919 246.094C203.057 239.883 196.812 236.654 196.75 236.613L195.988 235.708L183.808 197.475C178.738 200.807 171.711 205.681 163.715 211.234C147.475 222.504 127.485 236.366 115.326 243.194C119.097 245.765 128.268 251.564 134.306 255.328L134.863 257.302C126.97 273.077 112.214 301.582 106.32 312.955Z" fill="black"/>
<g opacity="0.09">
<path opacity="0.09" d="M233.475 315.114H200.027C200.027 315.114 216.329 300.039 189.496 302.897C187.312 297.468 216.04 293.252 216.04 293.252C216.04 293.252 205.427 290.393 188.96 298.147C206.375 278.753 187.456 271.657 191.949 262.423C201.614 255.636 169.671 252.778 198.255 242.042C195.081 240.376 189.084 240.335 177.378 251.276C180.841 245.641 181.253 242.042 168.372 248.891C178.203 241.528 175.276 236.798 189.269 232.725C182.015 227.625 178.223 234.741 172.35 235.111C178.883 223.43 166.476 229.455 155.409 232.89C158.583 227.214 179.707 219.481 175.771 212.159C169.011 224.252 157.862 219.974 141.169 224.478C162.313 213.866 184.694 195.11 184.694 195.11C184.694 195.11 192.732 220.345 196.359 233.281C206.498 241.199 214.515 246.711 215.937 249.508C223.706 259.791 226.736 267.935 228.529 273.529C235.041 293.931 233.475 315.114 233.475 315.114Z" fill="white"/>
</g>
<path d="M47.1119 207.758C52.4908 208.951 62.8981 204.447 76.7883 189.866C60.219 205.619 43.5466 199.367 43.5466 199.367C43.5466 199.367 41.3415 203.892 47.1119 207.758Z" fill="#0029BC"/>
<path d="M41.7939 179.644C47.1728 182.811 40.2689 186.698 36.2708 183.182C33.9008 181.104 29.7585 178.307 28.8929 177.217C28.4601 176.683 28.3777 175.983 28.4601 175.305L36.8272 177.073C36.8272 177.073 36.4151 176.477 41.7939 179.644Z" fill="#062784"/>
<path d="M116.171 208.108L100.776 216.479C100.776 216.479 111.967 215.594 122.436 232.891C127.155 228.448 127.155 213.229 127.155 213.229L124.847 175.984L116.171 208.108Z" fill="#0029BC"/>
<path d="M125.3 176.046C125.218 177.28 125.115 178.514 124.991 179.748C124.868 180.982 124.723 182.216 124.579 183.429C124.435 184.663 124.249 185.876 124.064 187.11C123.878 188.344 123.693 189.558 123.466 190.771C123.013 193.219 122.539 195.645 121.9 198.072C121.282 200.499 120.56 202.905 119.509 205.291C119.241 205.887 118.953 206.484 118.602 207.08C118.252 207.677 117.861 208.273 117.325 208.849L117.119 209.055L117.016 209.157L116.892 209.26C116.81 209.322 116.727 209.404 116.645 209.466L116.356 209.672L116.294 209.713C116.274 209.733 116.253 209.733 116.233 209.754L116.129 209.815L115.903 209.939C115.759 210.021 115.614 210.103 115.47 210.186C114.914 210.494 114.337 210.782 113.78 211.07C111.554 212.201 109.308 213.25 107.082 214.32C104.857 215.368 102.59 216.417 100.426 217.487C99.3128 218.021 98.2 218.577 97.0665 219.111C95.933 219.626 94.8202 220.16 93.6867 220.674C92.5532 221.189 91.4197 221.682 90.2863 222.176L88.5757 222.916L86.8652 223.636C85.7318 224.13 84.5777 224.582 83.4236 225.055C82.2695 225.528 81.1154 225.96 79.9614 226.412C77.6532 227.297 75.345 228.181 73.0162 229.045C70.6875 229.909 68.3587 230.731 65.9887 231.513L65.5353 231.657L65.0613 231.801C64.9995 231.821 64.8346 231.862 64.711 231.883C64.5873 231.924 64.4431 231.924 64.3194 231.945C64.1958 231.965 64.0515 231.965 63.9279 231.945C63.8042 231.945 63.6806 231.945 63.5569 231.904C63.0829 231.842 62.6707 231.677 62.3204 231.533C61.9494 231.369 61.6403 231.163 61.3312 230.978C60.7335 230.567 60.2183 230.114 59.7443 229.662C59.2703 229.209 58.8169 228.716 58.4047 228.243C56.7355 226.289 55.3135 224.212 53.9739 222.114C52.6343 219.996 51.3978 217.857 50.2231 215.677C49.0278 213.497 47.915 211.296 46.8433 209.055L47.0288 209.301L44.8855 207.286L43.8139 206.278L43.278 205.764C43.0719 205.558 42.8659 205.353 42.701 205.126C42.0003 204.221 41.5675 203.09 41.5057 201.939C41.4851 201.651 41.4851 201.363 41.5057 201.075L41.5263 200.869L41.5469 200.684L41.5881 200.314L41.7736 198.854L43.5047 199.08L43.3192 200.54L43.278 200.91L43.2574 201.095L43.2368 201.239C43.2162 201.445 43.2162 201.651 43.2368 201.836C43.278 202.638 43.5872 203.419 44.0818 204.057C44.2054 204.221 44.3497 204.365 44.4939 204.509L45.0298 205.003L46.1014 206.011L48.2447 208.026L48.3478 208.129L48.4302 208.273C49.5843 210.432 50.8002 212.551 52.0367 214.669C53.2938 216.767 54.5715 218.844 55.9317 220.86C57.2919 222.875 58.7345 224.849 60.3007 226.598C61.0839 227.461 61.9288 228.284 62.7944 228.839C63.2066 229.107 63.6599 229.312 63.9279 229.333C63.9691 229.353 63.9897 229.333 64.0309 229.333C64.0721 229.333 64.0927 229.333 64.1133 229.333C64.1339 229.333 64.1545 229.333 64.1752 229.312C64.1958 229.292 64.1958 229.312 64.2782 229.292L64.6904 229.148L65.1232 229.004C66.2772 228.592 67.4313 228.161 68.5854 227.729L72.027 226.433C74.3146 225.549 76.6021 224.644 78.8897 223.739C83.4442 221.888 87.9781 219.996 92.4296 217.96C93.5424 217.466 94.6553 216.931 95.7682 216.417L99.0655 214.813C101.332 213.723 103.558 212.695 105.784 211.646C108.01 210.597 110.235 209.548 112.42 208.458C112.956 208.191 113.492 207.903 114.007 207.615C114.13 207.553 114.254 207.471 114.378 207.409L114.563 207.306L114.646 207.245L114.687 207.224L114.707 207.204C114.831 207.142 114.996 206.977 115.14 206.833C115.449 206.504 115.759 206.072 116.026 205.599C116.315 205.126 116.562 204.633 116.81 204.098C117.304 203.049 117.737 201.939 118.128 200.807C118.52 199.676 118.891 198.525 119.241 197.373C119.921 195.049 120.56 192.684 121.137 190.298C122.291 185.547 123.322 180.735 124.332 175.922L125.3 176.046Z" fill="black"/>
<path d="M41.2793 180.344C41.2175 180.302 34.8494 175.716 28.6875 177.135L28.2959 175.428C35.2616 173.804 42.0418 178.719 42.3304 178.925L41.2793 180.344Z" fill="black"/>
<path d="M177.337 199.882C175.998 197.496 174.782 195.008 173.792 192.437C173.277 191.162 172.844 189.846 172.412 188.529C172.02 187.213 171.649 185.876 171.361 184.519C170.763 181.825 170.371 179.069 170.227 176.292L170.165 175.264L170.145 174.215C170.124 173.516 170.145 172.837 170.145 172.138C170.165 171.439 170.186 170.76 170.227 170.061C170.289 169.362 170.31 168.683 170.392 167.984C170.681 165.228 171.134 162.492 171.793 159.819C172.453 157.125 173.257 154.492 174.225 151.901C174.473 151.263 174.72 150.605 174.967 149.968C175.235 149.33 175.482 148.693 175.75 148.055C176.286 146.78 176.863 145.525 177.44 144.312C178.594 141.844 179.769 139.397 180.964 136.949C183.334 132.054 185.787 127.221 188.218 122.368L191.866 115.108C192.464 113.894 193.061 112.681 193.659 111.468C194.236 110.254 194.813 109.041 195.349 107.827C195.473 107.519 195.596 107.231 195.72 106.923C195.844 106.635 195.947 106.326 196.029 106.079C196.153 105.689 196.173 105.072 196.173 104.455C196.153 103.2 196.008 101.884 195.844 100.588C195.473 97.9556 194.957 95.3232 194.38 92.7113C193.206 87.4669 191.784 82.2636 190.217 77.1015C188.631 71.9394 186.879 66.8389 184.942 61.8208C182.984 56.8026 180.861 51.8667 178.347 47.1365C177.09 44.7714 175.75 42.468 174.225 40.3291C173.463 39.2596 172.659 38.2108 171.814 37.2442C170.948 36.2775 170.042 35.3932 169.052 34.6734C168.558 34.3237 168.043 33.9947 167.527 33.7479C167.26 33.6245 167.012 33.5217 166.744 33.4394C166.621 33.3983 166.476 33.3571 166.353 33.3366L166.147 33.2954L166.044 33.2749L165.92 33.2543L161.901 32.5551L153.885 31.1154C143.209 29.2028 132.513 27.3518 121.776 25.9944C116.418 25.3157 111.039 24.7605 105.64 24.4314C100.261 24.1023 94.8614 23.9584 89.4826 24.2257C84.1244 24.4725 78.7661 25.0895 73.614 26.4263C71.0379 27.105 68.5236 27.9482 66.1536 29.0794C63.7631 30.1899 61.5579 31.609 59.5177 33.2543C57.4774 34.9202 55.6226 36.8123 53.8915 38.8278C52.181 40.8638 50.6148 43.0233 49.1722 45.265C46.2869 49.769 43.8963 54.5815 41.7943 59.5379C39.6922 64.4944 37.9199 69.5743 36.333 74.7364C34.7461 79.8985 33.386 85.1223 32.1907 90.3667C31.593 92.9992 31.016 95.6317 30.5008 98.2847C30.2328 99.6009 29.9855 100.938 29.7382 102.254C29.4909 103.55 29.3055 104.866 29.2024 106.203C28.7078 111.468 29.223 116.835 30.8099 121.895C31.2014 123.149 31.6754 124.404 32.1907 125.617C32.7059 126.831 33.2829 128.044 33.9218 129.216C35.1789 131.561 36.6421 133.823 38.2084 136.003C38.9915 137.093 39.7952 138.183 40.6196 139.273C41.0318 139.828 41.4233 140.384 41.8149 140.939C42.2064 141.515 42.598 142.091 42.9277 142.749C43.0926 143.078 43.2575 143.428 43.3605 143.818C43.3811 143.921 43.4017 144.024 43.443 144.127C43.4636 144.23 43.4842 144.353 43.4842 144.456C43.4842 144.641 43.5048 144.826 43.5048 145.011C43.5048 145.752 43.4224 146.471 43.2987 147.171C43.0308 148.569 42.6186 149.885 42.1446 151.181C41.176 153.772 39.9807 156.22 38.703 158.626C37.4252 161.032 36.0445 163.377 34.6019 165.701C33.1799 168.025 31.6961 170.287 30.1298 172.529L29.9855 172.734C29.9649 172.776 29.9237 172.837 29.8825 172.92C29.8001 173.063 29.7382 173.207 29.6558 173.351C29.5115 173.639 29.3879 173.927 29.2848 174.236C29.0788 174.832 28.9345 175.449 28.9963 176.004C29.0169 176.292 29.0994 176.539 29.2436 176.745C29.3673 176.951 29.6146 177.177 29.8413 177.403C30.3153 177.855 30.8305 178.287 31.3457 178.719C32.3967 179.562 33.4684 180.406 34.54 181.208L36.1681 182.421C36.7039 182.832 37.2604 183.223 37.7962 183.655C38.8678 184.498 39.9395 185.383 40.8463 186.514C41.073 186.802 41.2791 187.11 41.4439 187.439C41.4851 187.522 41.5264 187.604 41.5676 187.707C41.6088 187.789 41.65 187.892 41.6706 187.995C41.7324 188.2 41.7531 188.406 41.7737 188.591C41.8149 189.352 41.7118 190.051 41.6088 190.73C41.3821 192.108 41.0318 193.424 40.702 194.74L40.1868 196.715C40.1044 197.044 40.0219 197.373 39.9395 197.681L39.8365 198.175L39.7952 198.422C39.7746 198.463 39.7952 198.545 39.7952 198.381C39.7746 198.278 39.7334 198.216 39.7128 198.195C39.6716 198.154 39.6922 198.195 39.754 198.195C39.7952 198.216 39.8571 198.237 39.9189 198.257C40.0425 198.298 40.2074 198.339 40.3517 198.36C40.6608 198.422 40.9905 198.483 41.3203 198.524C41.65 198.566 41.9797 198.607 42.3095 198.627C42.6392 198.648 42.9896 198.668 43.3399 198.71C44.7207 198.854 46.0603 199.059 47.3998 199.203C48.7394 199.368 50.0789 199.491 51.4185 199.553C52.7581 199.614 54.077 199.594 55.396 199.491C56.7149 199.388 58.0339 199.203 59.3116 198.915C60.5893 198.627 61.8465 198.257 63.083 197.784C65.5354 196.859 67.8229 195.542 69.9044 193.959C71.9859 192.396 73.8819 190.545 75.5718 188.55L78.1479 191.038C76.0458 192.91 73.8201 194.679 71.4295 196.159C69.0389 197.64 66.4628 198.854 63.763 199.697C61.0839 200.54 58.2812 200.972 55.499 201.054C52.7168 201.136 49.9553 200.869 47.2556 200.458C45.8954 200.252 44.5558 200.026 43.2369 199.861C42.5774 199.779 41.8767 199.717 41.1966 199.614C40.8463 199.553 40.4959 199.512 40.1456 199.429C39.9601 199.388 39.7952 199.347 39.5892 199.265C39.4861 199.224 39.4037 199.183 39.28 199.141C39.177 199.08 39.0533 199.018 38.9091 198.854C38.8472 198.771 38.7442 198.627 38.7236 198.442C38.7236 198.195 38.7442 198.195 38.7442 198.154L38.806 197.887L38.9297 197.373C39.0121 197.044 39.0945 196.715 39.177 196.386L39.7128 194.411C40.0631 193.116 40.4135 191.799 40.6402 190.504C40.7432 189.866 40.8463 189.187 40.8051 188.612C40.7844 188.303 40.7226 188.118 40.5784 187.83C40.4547 187.563 40.2692 187.316 40.0838 187.049C39.6922 186.555 39.2388 186.082 38.7442 185.629C38.2496 185.177 37.755 184.766 37.2192 184.354C36.6833 183.943 36.1475 183.552 35.5911 183.141L33.963 181.928C32.8707 181.105 31.7991 180.282 30.7481 179.418C30.2122 178.987 29.697 178.555 29.1818 178.061C28.9345 177.814 28.6666 177.588 28.4193 177.218C28.1926 176.848 28.0689 176.436 28.0277 176.046C27.9453 175.244 28.1308 174.524 28.3575 173.824C28.4811 173.475 28.6254 173.146 28.7696 172.837C28.8521 172.673 28.9345 172.529 29.0169 172.364C29.0582 172.282 29.0994 172.22 29.1818 172.117L29.3261 171.912C30.8511 169.691 32.2937 167.408 33.6951 165.084C35.0965 162.78 36.436 160.415 37.6519 158.03C38.8885 155.644 40.0219 153.197 40.9287 150.687C41.3615 149.433 41.7531 148.158 41.9591 146.883C42.0622 146.245 42.124 145.608 42.124 144.991C42.124 144.847 42.1034 144.682 42.1034 144.538C42.0828 144.476 42.0828 144.435 42.0828 144.374C42.0622 144.312 42.0622 144.25 42.0416 144.189C41.9591 143.942 41.8355 143.654 41.6912 143.386C41.4027 142.831 41.0318 142.296 40.6608 141.762C40.2692 141.227 39.8777 140.692 39.4655 140.158C38.6412 139.088 37.8168 138.019 36.9925 136.908C35.3644 134.707 33.8187 132.425 32.4792 130.018C31.8197 128.805 31.2014 127.571 30.645 126.316C30.0886 125.041 29.594 123.766 29.1612 122.45C28.2956 119.818 27.698 117.082 27.3889 114.326C27.0797 111.57 27.0797 108.773 27.3064 106.018C27.4301 104.64 27.5949 103.262 27.8422 101.904C28.0895 100.547 28.3368 99.2308 28.5842 97.8939C29.0994 95.2203 29.6558 92.5673 30.2535 89.9143C31.4488 84.6082 32.8089 79.3226 34.3958 74.1194C35.9826 68.8956 37.755 63.7334 39.8777 58.6947C42.0004 53.656 44.4322 48.7201 47.3792 44.0721C48.863 41.7482 50.4705 39.5064 52.2428 37.3676C54.0152 35.2492 55.973 33.2543 58.1369 31.4856C60.3008 29.7169 62.6914 28.1744 65.2263 26.9816C67.7611 25.7682 70.399 24.8633 73.0781 24.1435C74.4177 23.7938 75.7779 23.4853 77.1174 23.218C77.7975 23.074 78.4776 22.9712 79.1577 22.8478C79.8378 22.745 80.5178 22.6216 81.1979 22.5393C83.9183 22.1691 86.6592 21.9223 89.4002 21.7989C94.882 21.5316 100.364 21.6344 105.825 21.9634C111.287 22.2925 116.707 22.8272 122.127 23.4853C132.946 24.8016 143.683 26.6731 154.379 28.5652L162.396 29.9843L166.394 30.6835L166.518 30.7041L166.662 30.7247L166.971 30.7864C167.177 30.8481 167.363 30.8892 167.548 30.9509C167.94 31.0743 168.29 31.2182 168.661 31.3828C169.362 31.7118 170.021 32.1232 170.619 32.5551C171.835 33.4394 172.865 34.4471 173.813 35.496C174.761 36.5655 175.627 37.676 176.43 38.8072C178.038 41.09 179.439 43.4757 180.738 45.9025C183.314 50.7562 185.498 55.7743 187.477 60.8747C189.455 65.9546 191.227 71.1167 192.814 76.3405C194.401 81.5438 195.844 86.8088 197.039 92.156C197.637 94.8296 198.152 97.5032 198.543 100.259C198.729 101.637 198.894 103.015 198.894 104.475C198.894 104.845 198.894 105.216 198.852 105.606C198.832 105.812 198.811 105.997 198.791 106.223C198.77 106.326 198.749 106.429 198.729 106.552C198.708 106.676 198.667 106.779 198.646 106.881C198.523 107.272 198.399 107.622 198.275 107.951C198.152 108.28 198.008 108.609 197.863 108.938C197.307 110.213 196.73 111.447 196.132 112.681C195.535 113.915 194.937 115.128 194.339 116.342L190.63 123.602C188.198 128.435 185.766 133.288 183.375 138.142C182.18 140.569 181.005 143.016 179.851 145.443C179.274 146.677 178.718 147.87 178.182 149.104C177.914 149.721 177.667 150.338 177.399 150.955C177.152 151.572 176.904 152.189 176.678 152.826C175.73 155.315 174.926 157.865 174.287 160.436C173.628 163.007 173.154 165.619 172.844 168.251C172.247 173.516 172.432 178.863 173.483 184.066C174.493 189.27 176.43 194.308 178.883 199.039L177.337 199.882Z" fill="black"/>
<path d="M123.528 236.716C123.507 236.675 122.024 232.644 118.314 228.222C114.914 224.17 108.875 218.947 99.416 217.075L99.7664 215.368C109.741 217.343 116.109 222.875 119.716 227.173C123.611 231.821 125.115 235.975 125.177 236.14L123.528 236.716Z" fill="black"/>
<path d="M54.6543 142.214L58.5905 140.692L72.6456 141.309C72.6456 141.309 60.3423 147.232 60.0331 149.042L56.303 149.68L54.6543 142.214Z" fill="white"/>
<path d="M54.1387 151.263L83.5884 131.869L84.5982 133.309L56.2614 154.286L54.1387 151.263Z" fill="black"/>
<path d="M55.9727 151.243C54.7568 148.219 53.9943 144.703 53.7676 141.391L55.5193 141.289C55.7254 144.435 56.4467 147.746 57.6008 150.605L55.9727 151.243Z" fill="black"/>
<path d="M51.3155 132.157C51.6452 132.898 51.9131 133.659 52.1604 134.461C52.3871 135.242 52.5726 136.065 52.6344 136.929C52.7169 137.772 52.6963 138.656 52.4696 139.541C52.3665 139.972 52.2017 140.425 51.9956 140.836C51.8925 141.042 51.7689 141.248 51.604 141.453C51.5216 141.556 51.4597 141.659 51.3567 141.741C51.3155 141.782 51.2743 141.844 51.2124 141.885L51.13 141.967C51.0888 141.988 51.0888 142.008 51.0064 142.07L50.4499 140.487C54.2419 140.404 58.0339 140.363 61.8259 140.322L73.2018 140.199L72.8927 140.301L83.7741 132.26L84.3099 132.98L73.5728 141.124L73.4491 141.227H73.2637L61.9083 141.679C58.1163 141.844 54.3243 142.008 50.553 142.194L49.9965 140.61C49.9759 140.631 49.9965 140.61 49.9965 140.61L50.0171 140.589C50.0377 140.569 50.0584 140.548 50.079 140.528C50.1202 140.487 50.1614 140.425 50.2026 140.363C50.2851 140.24 50.3675 140.116 50.4293 139.993C50.5736 139.726 50.6766 139.417 50.759 139.109C50.9033 138.471 50.9445 137.772 50.8827 137.073C50.759 135.653 50.285 134.234 49.708 132.856L51.3155 132.157Z" fill="black"/>
<path d="M85.237 116.65L44.3289 123.046L41.8147 123.437L35.1787 124.465L48.0797 132.589L80.9298 123.786L85.237 116.65Z" fill="black"/>
<path d="M156.605 200.19L152.38 195.974L156.605 191.758L160.829 195.974L156.605 200.19ZM153.204 195.995L156.605 199.388L160.005 195.995L156.605 192.602L153.204 195.995Z" fill="#2D4A75"/>
<path d="M156.605 192.375L152.38 188.159L156.605 183.943L160.829 188.159L156.605 192.375ZM153.204 188.159L156.605 191.552L160.005 188.159L156.605 184.766L153.204 188.159Z" fill="#2D4A75"/>
<path d="M162.293 277.972C162.767 279.514 163.138 281.077 163.406 282.681C163.653 284.265 163.818 285.869 163.921 287.473C164.004 289.077 164.004 290.682 163.962 292.286C163.901 293.89 163.798 295.494 163.633 297.078C163.303 300.265 162.767 303.433 162.087 306.559C161.386 309.685 160.583 312.79 159.552 315.855L158.46 315.464C159.511 312.502 160.356 309.417 161.077 306.332C161.799 303.248 162.355 300.121 162.726 296.975C162.911 295.391 163.035 293.828 163.117 292.245C163.179 290.661 163.2 289.077 163.138 287.494C163.056 285.91 162.932 284.347 162.685 282.784C162.437 281.221 162.108 279.679 161.654 278.177L162.293 277.972Z" fill="black"/>
<path d="M141.148 253.991L142.797 252.963L144.446 251.935L146.115 250.927L147.784 249.94C148.897 249.282 150.031 248.623 151.144 247.986L154.544 246.094C155.678 245.456 156.832 244.86 157.965 244.243C159.099 243.626 160.273 243.05 161.427 242.454L163.158 241.569L164.91 240.726L166.662 239.883L168.434 239.081C169.032 238.813 169.63 238.546 170.207 238.279L172 237.518C173.195 237.003 174.411 236.53 175.627 236.057C176.224 235.811 176.843 235.605 177.461 235.379C178.079 235.153 178.677 234.926 179.316 234.741C179.934 234.536 180.552 234.33 181.17 234.145L183.046 233.61C185.56 232.931 188.136 232.376 190.774 232.273C192.093 232.232 193.412 232.294 194.69 232.664C195.019 232.746 195.308 232.89 195.617 233.014L196.05 233.26C196.194 233.343 196.318 233.466 196.462 233.548C196.586 233.651 196.709 233.775 196.812 233.898C196.915 234.021 197.018 234.145 197.101 234.289C197.266 234.577 197.389 234.885 197.41 235.214C197.348 234.885 197.204 234.597 197.018 234.35C196.936 234.206 196.812 234.104 196.709 234.001C196.586 233.898 196.462 233.795 196.338 233.692C196.194 233.61 196.07 233.528 195.926 233.446L195.493 233.24C195.184 233.137 194.896 233.034 194.587 232.972C193.35 232.705 192.052 232.705 190.795 232.829C190.156 232.87 189.517 232.993 188.899 233.075C188.589 233.116 188.26 233.199 187.951 233.26C187.641 233.322 187.312 233.384 187.003 233.466C186.384 233.631 185.745 233.754 185.127 233.939C184.509 234.124 183.891 234.289 183.272 234.474C180.82 235.235 178.388 236.119 175.998 237.086C174.802 237.579 173.607 238.032 172.412 238.567L170.639 239.327L168.867 240.13L167.095 240.911L165.343 241.734L163.591 242.556L161.839 243.4C159.511 244.51 157.203 245.703 154.894 246.834C150.34 249.199 145.765 251.626 141.148 253.991Z" fill="black"/>
<path d="M166.93 241.364C170.804 244.963 191.619 262.609 192.793 313.675H196.544C199.842 268.84 170 240.356 170 240.356L166.93 241.364Z" fill="#FF00CF"/>
<path d="M171.36 239.842C177.11 246.197 202.253 270.855 198.873 313.695H202.232C206.91 267.771 174.039 239.204 174.039 239.204L171.36 239.842Z" fill="#FF00CF"/>
<path d="M233.475 316.019H103.805L102.445 313.777C107.144 304.708 122.868 274.372 131.503 257.179C129.669 256.027 125.96 253.703 122.271 251.359C111.369 244.407 111.286 244.14 111.06 243.42L111.802 241.631C123.507 235.42 144.817 220.633 161.963 208.725C170.928 202.514 178.656 197.126 183.829 193.794L186.116 194.617L198.729 234.165C200.48 235.132 205.962 238.34 211.98 243.79C218.616 249.796 227.127 259.791 229.992 273.18C235.35 298.229 235 313.839 235 314.477L233.475 316.019ZM106.32 312.955H231.929C231.909 306.538 230.878 292.018 226.983 273.858C224.283 261.251 216.205 251.811 209.919 246.094C203.057 239.883 196.812 236.654 196.75 236.613L195.988 235.708L183.808 197.475C178.738 200.807 171.711 205.681 163.715 211.234C147.475 222.504 127.485 236.366 115.326 243.194C119.097 245.765 128.268 251.564 134.306 255.328L134.863 257.302C126.97 273.077 112.214 301.582 106.32 312.955Z" fill="black"/>
<path d="M3.8749 49.8103L1.29883 53.9647L54.5515 79.6725L183.273 152.312L188.343 143.202L179.089 138.122L186.323 125.206C193.35 115.355 199.842 116.671 199.842 116.671L207.55 102.809C213.32 79.4874 177.358 35.8253 160.253 21.4906C155.554 17.5419 150.031 14.7038 144.075 13.1407C142.179 12.6471 140.057 12.0918 137.728 11.4954C123.879 7.93747 103.497 3.14554 90.1425 1.87044C84.3515 1.31515 79.8795 1.41798 77.8392 2.56969C68.0501 8.08144 46.2462 32.5552 34.1283 62.2734L3.8749 49.8103Z" fill="#A400CC"/>
<path d="M182.53 153.649L53.8503 81.03L0.638867 55.3428L0 53.1422L2.57608 48.9879L4.47207 48.3709L33.3035 60.2787C40.1662 43.908 49.1928 30.7045 55.6432 22.4369C63.4127 12.4417 71.6355 4.33858 77.0762 1.25365C79.3019 -0.000889214 83.5061 -0.288816 90.2863 0.348737C103.579 1.62384 123.652 6.29238 138.14 9.9943C140.18 10.5085 142.261 11.0637 144.487 11.6396C150.628 13.2643 156.419 16.267 161.262 20.298C169.671 27.3316 182.984 41.7074 193.783 57.9136C202.583 71.1377 212.392 89.709 209.054 103.159L208.91 103.529L201.202 117.391L199.553 118.152H199.574C199.347 118.111 193.886 117.288 187.621 126.008L181.191 137.525L189.084 141.865L189.682 143.942L184.612 153.053L182.53 153.649ZM3.50346 53.3273L55.2311 78.2947L55.3135 78.3358L182.675 150.215L186.24 143.798L178.368 139.459L177.77 137.381L185.004 124.466L185.086 124.322C190.918 116.157 196.606 115.108 198.997 115.088L206.127 102.254C207.343 97.1334 206.478 90.5933 203.592 82.8193C200.996 75.8473 196.833 68.0527 191.227 59.6412C180.655 43.764 167.259 29.3471 159.284 22.6837C154.791 18.92 149.412 16.1436 143.704 14.6217C141.499 14.0458 139.417 13.5111 137.377 12.9764C122.992 9.27448 103.105 4.64708 89.9978 3.39254C82.2078 2.65215 79.508 3.39254 78.6012 3.90669C74.5826 6.16898 67.081 12.709 58.0751 24.2878C51.5627 32.6583 42.3713 46.1291 35.5499 62.8495L33.5508 63.6927L4.49268 51.7232L3.50346 53.3273Z" fill="black"/>
<path d="M3.8749 49.8103L1.29883 53.9647L54.5515 79.6725L60.4249 81.873L93.8521 69.8829C93.8521 69.8829 101.436 63.7748 96.7579 55.3015C92.0798 46.8282 98.7363 46.1701 119.386 40.9874C131.319 38.0053 135.955 23.321 137.728 11.4543C123.879 7.93747 103.497 3.14554 90.1425 1.87044C84.3515 1.31515 79.8795 1.41798 77.8392 2.56969C68.0501 8.08144 46.2462 32.5552 34.1283 62.2734L3.8749 49.8103Z" fill="#9200B5"/>
<path d="M34.1279 62.2939L53.7885 72.721C53.7885 72.721 82.0017 30.4986 88.0813 21.326C90.3688 17.8709 95.7065 13.6137 90.1421 1.89094C84.3511 1.33566 79.8791 1.43849 77.8388 2.5902C68.0497 8.10194 46.2458 32.5757 34.1279 62.2939Z" fill="black"/>
<path d="M53.0674 74.0576L33.4067 63.6306L32.7061 61.6973C39.6512 44.6685 49.0075 30.9303 55.6434 22.4159C63.4129 12.4412 71.6357 4.31759 77.0764 1.23265C79.3021 -0.0218853 83.5063 -0.309812 90.2865 0.32774L91.1521 0.697932L91.523 1.19152C96.7576 12.2561 92.8832 17.3977 90.3071 20.8117C89.9568 21.2847 89.627 21.7166 89.3591 22.1279C83.3414 31.1976 55.3343 73.1116 55.0664 73.5229L53.0674 74.0576ZM36.0859 61.5945L53.2941 70.7054C57.8692 63.8568 81.363 28.668 86.8243 20.4621C87.154 19.989 87.5043 19.516 87.8753 19.0019C90.1835 15.9375 93.0481 12.1328 89.1324 3.30984C82.0018 2.71342 79.4876 3.41267 78.6014 3.90626C74.5827 6.16855 67.0812 12.7086 58.0752 24.2874C51.7278 32.4522 42.8249 45.4706 36.0859 61.5945Z" fill="black"/>
<path d="M125.774 106.347L123.425 104.372C144.281 79.7545 156.296 61.3683 160.211 48.1854C163.57 36.8328 160.685 30.6424 157.635 24.1023C156.955 22.6627 156.275 21.1613 155.657 19.6394L158.501 18.5083C159.078 19.9685 159.758 21.4287 160.417 22.8272C163.57 29.5935 166.827 36.586 163.138 49.0697C161.2 55.6303 157.511 63.1164 151.885 71.9393C145.6 81.7289 137.047 92.9991 125.774 106.347Z" fill="black"/>
<path d="M163.839 141.33L168.97 132.342L179.089 138.121L188.342 143.201L183.293 152.312L163.839 141.33Z" fill="black"/>
<path d="M183.726 154.657L53.8503 81.03L0.638867 55.3428L0 53.1422L2.57608 48.9879L4.47207 48.3709L33.3035 60.2787C40.1662 43.908 49.1928 30.7045 55.6432 22.4369C63.4127 12.4417 71.6355 4.33858 77.0762 1.25365C79.3019 -0.000889214 83.5061 -0.288816 90.2863 0.348737C103.579 1.62384 123.652 6.29238 138.14 9.9943C140.18 10.5085 142.261 11.0637 144.487 11.6396C150.628 13.2643 156.419 16.267 161.262 20.298C169.671 27.3316 182.984 41.7074 193.783 57.9136C202.583 71.1377 212.392 89.709 209.054 103.159L208.91 103.529L201.202 117.391L199.553 118.152H199.574C199.347 118.111 193.886 117.288 187.621 126.008L181.17 137.546L190.321 142.893L190.877 144.95L185.828 154.061L183.726 154.657ZM3.50346 53.3273L55.2311 78.2947L55.3135 78.3358L183.891 151.223L187.477 144.785L178.326 139.438L177.77 137.361L185.004 124.445L185.086 124.301C190.918 116.137 196.606 115.088 198.997 115.067L206.127 102.234C207.343 97.1128 206.478 90.5728 203.592 82.7987C200.996 75.8268 196.833 68.0322 191.227 59.6206C180.655 43.7435 167.259 29.3265 159.284 22.6631C154.791 18.8995 149.412 16.123 143.704 14.6011C141.499 14.0253 139.417 13.4906 137.377 12.9558C122.992 9.27448 103.105 4.64708 89.9978 3.39254C82.2078 2.65215 79.508 3.39254 78.6012 3.90669C74.5826 6.16898 67.081 12.709 58.0751 24.2878C51.5627 32.6583 42.3713 46.1291 35.5499 62.8495L33.5508 63.6927L4.49268 51.7232L3.50346 53.3273Z" fill="black"/>
<path d="M151.247 14.8269L154.009 13.0171L160.315 16.246V20.3798L151.247 14.8269Z" fill="black"/>
<path d="M119.947 258.432L113.302 251.801L106.657 258.432L113.302 265.063L119.947 258.432Z" fill="black"/>
<path d="M114.625 244.366H111.987V251.791H114.625V244.366Z" fill="black"/>
<path d="M123.013 135.571L136.676 123.766C138.49 122.203 140.695 121.195 143.065 120.866C148.588 120.064 158.315 118.81 158.315 118.81C159.016 119.015 159.49 119.673 159.469 120.414L158.13 144.579C158.109 144.908 158.006 145.237 157.8 145.505L143.106 165.104C142.9 165.392 142.611 165.577 142.261 165.68L134.863 167.881C134.389 168.025 129.422 168.21 129.03 167.942L127.464 163.623" fill="#0055FF"/>
<path d="M122.456 134.913L129.999 128.147L133.77 124.753L135.646 123.067L135.872 122.861L136.14 122.635C136.305 122.491 136.491 122.347 136.676 122.203C137.047 121.915 137.439 121.648 137.83 121.401C138.634 120.907 139.458 120.496 140.344 120.187C140.777 120.023 141.23 119.879 141.684 119.776C141.911 119.714 142.137 119.673 142.364 119.612L142.714 119.55L142.879 119.529L143.044 119.509L148.073 118.727L158.109 117.185L158.439 117.123L158.789 117.226C159.469 117.432 160.067 117.863 160.479 118.419C160.891 118.995 161.118 119.673 161.118 120.393V120.455V120.516V120.578V120.702L161.097 120.969L161.056 121.483L160.994 122.511L160.726 126.645L160.17 134.933L159.613 143.222L159.552 144.25L159.51 144.846C159.469 145.155 159.387 145.463 159.263 145.751C159.139 146.039 158.892 146.348 158.83 146.43L158.521 146.841L157.882 147.664L155.347 150.954L145.229 164.117L143.93 165.803C143.745 166.03 143.539 166.215 143.291 166.359C143.168 166.441 143.044 166.503 142.92 166.564C142.859 166.585 142.797 166.626 142.714 166.647L142.611 166.688L142.549 166.708L141.54 166.996L137.542 168.127L135.543 168.703L135.295 168.765L135.151 168.806L135.069 168.827H135.027H135.007L134.904 168.847C134.677 168.868 134.512 168.888 134.327 168.909C133.956 168.929 133.605 168.95 133.255 168.97C132.554 168.991 131.854 169.012 131.132 169.012C130.782 169.012 130.432 169.012 130.061 168.991C129.875 168.991 129.69 168.971 129.504 168.95C129.401 168.95 129.298 168.929 129.195 168.909C129.133 168.909 129.071 168.888 129.01 168.868C128.968 168.847 128.907 168.847 128.865 168.827C128.845 168.827 128.845 168.827 128.824 168.806L128.742 168.765C128.7 168.744 128.639 168.724 128.597 168.683L128.577 168.662L128.35 168.518L128.247 168.23L126.681 163.911L128.33 163.315L129.896 167.634L129.566 167.202H129.545C129.525 167.181 129.484 167.161 129.463 167.161C129.442 167.161 129.442 167.14 129.422 167.14C129.401 167.14 129.422 167.14 129.401 167.14H129.381H129.442C129.504 167.14 129.566 167.161 129.648 167.161C129.793 167.181 129.958 167.181 130.122 167.181C130.452 167.181 130.782 167.181 131.132 167.181C131.812 167.161 132.492 167.14 133.173 167.099C133.502 167.078 133.853 167.058 134.182 167.017C134.347 166.996 134.512 166.976 134.636 166.955H134.656H134.636L134.739 166.914L134.986 166.832L136.965 166.215L140.942 164.981L141.931 164.672L141.993 164.652H142.014L142.055 164.631C142.075 164.61 142.117 164.61 142.137 164.59C142.178 164.549 142.24 164.508 142.261 164.466L143.456 162.821L153.266 149.412L155.718 146.06L156.337 145.217C156.522 144.97 156.831 144.558 156.769 144.6C156.769 144.579 156.79 144.538 156.79 144.517V144.353L156.811 144.085L156.852 143.057L157.202 134.769L157.553 126.481L157.738 122.326L157.82 120.311C157.82 120.331 157.82 120.331 157.82 120.352L157.841 120.373L158.542 120.434L148.485 121.586L143.456 122.162L143.291 122.182L143.147 122.203L142.859 122.244C142.673 122.285 142.488 122.306 142.302 122.347C141.931 122.429 141.56 122.532 141.21 122.635C140.489 122.861 139.788 123.17 139.128 123.54C138.799 123.725 138.469 123.93 138.16 124.157C138.016 124.26 137.851 124.383 137.706 124.506L137.48 124.691L137.232 124.897L135.275 126.522L131.38 129.751L123.569 136.229L122.456 134.913Z" fill="black"/>
<path d="M129.01 144.229L141.993 125.72H153.287L149.701 143.036L134.183 159.963L132.74 153.093L137.274 148.754L136.635 145.669L129.01 144.229Z" fill="#0029BC"/>
<path d="M48.5742 210.494L51.7273 248.089H57.9924L75.3448 226.33C75.3448 226.33 53.9943 214.957 51.1297 209.938L48.5742 210.494Z" fill="black"/>
</svg>
