<svg width="322" height="189" viewBox="0 0 322 189" fill="none" xmlns="http://www.w3.org/2000/svg">
<path d="M27.6545 109.558C28.1009 109.443 28.6588 109.269 29.2167 109.443C31.7832 109.674 32.5643 111.353 31.4484 113.669C30.4999 115.927 28.9377 117.201 27.0408 118.243C25.1439 119.286 23.2469 120.502 21.4058 121.717L17.2772 123.86C17.054 124.091 16.5519 124.555 16.6076 124.844C16.4403 130.46 15.5476 135.903 14.8781 141.346C14.376 146.383 14.376 151.42 13.9854 156.4C13.818 159.7 13.5949 163 13.5391 166.127C13.4833 169.369 13.5391 172.496 13.6507 175.68C13.5949 177.186 13.3717 178.691 13.3159 180.197L13.2601 183.439C13.0927 184.481 13.0369 185.465 12.7022 186.566C11.7537 189.461 9.07569 189.287 7.06716 188.418L5.56077 187.434C4.6123 186.913 4.16596 185.871 3.887 184.829C3.05012 182.339 3.32908 179.965 3.55225 177.417C3.887 173.538 3.66383 169.89 3.887 166.069C3.94279 163.927 4.05438 162.132 4.11017 160.105C4.38913 155.473 4.55651 150.841 4.83547 146.209C4.89126 145.225 5.22602 144.125 5.3376 142.967C5.50498 140.13 5.61656 137.177 5.78394 134.34L7.79246 110.774C7.90405 108.921 7.73667 107.184 7.90405 105.39C8.12722 101.742 8.51776 97.8625 8.74093 94.099C8.85252 91.1461 8.79672 88.0774 8.79672 85.1245C8.68514 84.1981 8.62935 83.3875 8.68514 82.4032L3.32908 84.0244C1.7111 84.4876 0.762631 83.7928 0.372085 82.2874C-0.185838 80.203 -0.0742537 78.3502 0.427877 76.2658C1.04159 73.9498 1.76689 72.6181 4.05438 71.7496C5.78394 71.2285 7.5135 70.0705 9.35465 69.3757C9.91257 69.0283 10.2473 68.623 10.2473 67.9861C10.3589 65.4963 12.3674 63.6435 14.7665 63.8751C15.1013 63.933 15.5476 63.933 15.8823 63.8751C17.5003 62.8908 18.5046 64.2225 19.5088 65.091C19.8436 65.1489 19.8436 65.67 20.0668 66.0753L23.5259 65.0331C28.4356 63.4119 33.2896 61.7907 38.2551 60.3432C39.873 59.88 41.6026 59.9958 43.2764 59.7063C44.1691 59.5905 45.0059 59.1852 45.8428 58.7799C46.8471 58.4904 47.6282 57.9114 48.5209 57.6798C49.6925 57.3324 50.5852 57.7377 51.0315 58.8957C51.2547 59.8221 51.4221 60.9222 51.701 61.7907C51.7568 62.0802 51.5894 62.4855 51.4778 62.6592C50.362 64.2804 49.023 65.8438 47.0145 66.4228C43.2206 67.5229 39.5383 68.9704 36.3023 71.4022C35.1865 72.3865 33.5127 72.7339 32.0621 73.1392C29.2167 74.1235 26.4829 75.1078 23.5817 75.9763C22.6332 76.4395 21.5732 76.729 20.7363 77.1343C19.732 77.4238 19.3973 78.0028 19.2299 79.045C18.8393 86.1667 18.2256 93.1726 17.8351 100.179C17.5561 104.347 17.4445 108.458 17.2214 112.743L27.6545 109.558Z" fill="#FF00CF"/>
<path d="M46.9026 154.315C47.0699 149.22 47.2373 144.356 47.2373 139.435C47.2931 137.234 46.8468 135.034 46.4562 132.892C45.8983 129.36 46.0099 125.539 46.1773 121.891C46.4562 115.406 47.7952 108.921 49.0227 102.436C49.9154 97.2833 50.9754 92.0723 51.7565 86.9192C52.2586 83.561 52.147 80.2607 52.5376 76.9025C52.705 73.4285 53.2071 69.8965 53.7092 66.3067C54.0998 63.1222 55.6062 60.5167 57.9495 58.3165C58.5074 57.9112 58.8979 57.3901 59.4558 56.869C60.7949 55.4215 62.8592 55.0162 64.8119 55.8847C65.7604 56.4058 66.4857 57.1006 66.2625 58.0849C66.3183 59.6482 66.1509 61.0957 65.872 62.5432C65.2025 65.7856 64.1982 68.9122 63.6961 72.2705C62.915 76.9604 62.4128 81.7661 61.9107 86.5718C61.5202 89.6405 60.9622 92.7092 61.018 95.8358C61.018 99.4835 60.4043 103.189 59.5674 106.779C59.1769 108.4 58.8979 110.195 58.9537 111.932C58.9537 115.58 58.2284 118.822 57.2799 122.065C56.2199 126.118 55.383 130.229 55.383 134.282C55.4388 136.019 55.662 137.698 55.662 139.319C55.7178 139.956 55.662 140.419 55.5504 140.94C55.5504 143.603 55.6062 146.325 55.7736 149.104C55.7736 150.204 56.6104 151.073 57.5589 151.42C58.061 151.652 58.4516 151.478 58.8979 151.42C59.6232 151.188 60.1811 150.783 60.7949 150.552C64.3656 149.799 66.8204 147.714 68.9405 144.761C72.2323 140.419 74.5198 135.497 76.1935 130.402C77.3094 126.812 77.7557 123.281 78.3694 119.517C78.76 117.722 79.4295 115.927 79.9874 114.074C80.8801 110.021 81.438 105.679 82.777 101.857C84.8414 96.2411 85.3435 90.4511 86.0688 84.719C86.1246 82.8083 86.6825 81.0134 87.2404 79.2185C88.6352 75.5708 88.9142 71.7494 89.5279 68.0437C90.03 64.6855 90.5322 61.2694 91.3691 57.8533C92.0944 54.9004 93.266 52.0633 95.944 50.1526C97.5062 48.9946 99.2916 48.763 101.244 48.7051C102.304 48.7051 103.03 49.5736 103.085 51.1369C102.918 53.6845 102.974 56.3479 102.528 58.9534C101.858 63.2959 100.965 67.5226 100.128 71.7494L98.5663 79.2185C98.1757 81.1871 98.1199 83.2136 97.7852 85.1822C97.2273 88.2509 96.5577 91.3196 95.8324 94.2725C95.2187 96.878 94.4934 99.4835 93.8797 102.089C93.1544 104.695 92.3733 107.358 91.7596 109.963C91.5364 110.6 91.3133 111.121 91.2017 111.758C90.3648 115.985 89.6395 120.154 88.7468 124.381C88.0773 127.797 86.7941 131.097 85.5109 134.397C83.2792 139.724 79.82 143.951 76.8631 148.757C74.9103 151.71 73.3481 154.894 71.228 157.673C69.1079 160.452 66.9878 163.116 64.5329 165.49C63.3055 166.59 61.576 167.285 59.958 168.153C59.1211 168.558 58.061 168.848 57.001 169.022C56.3873 169.08 55.6062 168.906 55.104 168.501C53.3745 166.995 51.8681 165.432 50.4175 163.753C48.13 161.031 46.9584 157.905 47.0142 154.431L46.9026 154.315Z" fill="#FF00CF"/>
<path d="M156.703 47.4893C156.424 48.9368 155.587 49.5158 154.08 49.7474C153.467 49.6895 152.909 49.9211 152.295 50.1527C148.948 51.5423 145.6 52.7582 142.42 54.2636C140.244 55.19 138.235 56.4059 136.283 57.5639C135.836 57.7955 135.613 58.4324 135.669 58.7219C135.39 62.717 135.278 66.6542 134.776 70.5335C134.442 74.0655 134.553 77.3658 134.497 80.8398C134.497 84.4875 134.163 88.3089 133.828 91.9566C133.437 96.1254 132.656 100.178 132.098 104.347C131.485 109.327 130.871 114.306 130.09 119.112C129.42 123.802 128.583 128.318 127.914 132.834C127.189 138.161 126.575 143.43 125.905 148.872C125.626 150.494 125.515 152.057 125.124 153.562C124.901 154.373 124.399 155.241 123.674 155.647C122.39 156.457 121.107 155.647 120.717 153.968C120.493 152.115 120.27 150.088 120.326 148.178C120.493 144.356 120.772 140.535 121.107 136.713C121.498 129.881 122.056 123.165 122.335 116.333C122.502 111.411 122.223 106.547 122.223 101.684C122.223 100.294 122.335 98.8467 122.614 97.515C123.785 93.2883 124.176 89.1195 124.287 84.8349C124.232 80.4345 124.566 75.9762 124.678 71.5178C124.734 70.8809 124.678 70.1282 124.566 69.4913C124.511 67.928 124.511 66.3647 125.068 64.8593C125.459 64.1645 125.515 63.5276 125.682 62.5433C124.678 62.8328 123.897 62.9486 123.172 63.3539L116.755 65.612C116.03 66.0173 115.305 66.2489 114.579 66.5384L105.485 69.1439C104.481 69.4334 103.588 69.7229 102.528 69.8387C101.022 70.0124 100.018 69.086 99.9619 67.4648L100.185 66.9437C102.807 64.6856 105.262 62.3696 108.61 61.2695C109.335 61.0379 109.893 60.6326 110.451 60.1115C113.408 57.9692 116.7 56.2901 120.047 54.9584C122.223 54.032 124.232 52.8161 126.184 51.7739C126.631 51.5423 126.854 51.0791 126.798 50.6159C126.798 49.3421 126.631 47.9525 126.463 46.7366C126.352 45.9839 126.631 45.4628 127.468 44.8838C129.141 43.5521 130.982 43.6679 132.768 43.2626C134.553 43.031 135.223 43.4363 135.892 45.2312C135.948 45.5207 136.115 45.9839 136.171 46.2734L151.737 39.4412C151.905 39.4412 151.849 39.2675 151.849 39.2675L153.188 39.0938C154.025 39.6149 154.806 39.9623 155.085 40.8887L156.145 46.0997C156.312 46.2155 156.48 46.505 156.535 46.8524L156.703 47.4893Z" fill="#FF00CF"/>
<path d="M152.351 133.992C152.518 128.897 152.686 124.033 152.686 119.111C152.741 116.911 152.295 114.711 151.904 112.569C151.347 109.037 151.458 105.215 151.626 101.568C151.904 95.0828 153.243 88.598 154.471 82.1132C155.364 76.9601 156.424 71.7491 157.205 66.5959C157.707 63.2377 157.595 59.9374 157.986 56.5792C158.153 53.1052 158.655 49.5733 159.157 45.9835C159.548 42.799 161.054 40.1935 163.398 37.9933C163.956 37.588 164.346 37.0669 164.904 36.5458C166.243 35.0983 168.307 34.693 170.26 35.5615C171.209 36.0826 171.934 36.7774 171.711 37.7617C171.767 39.325 171.599 40.7725 171.32 42.22C170.651 45.4624 169.646 48.589 169.144 51.9472C168.363 56.6371 167.861 61.4428 167.359 66.2485C166.968 69.3173 166.41 72.386 166.466 75.5126C166.466 79.1603 165.853 82.8659 165.016 86.4557C164.625 88.0769 164.346 89.8718 164.402 91.6088C164.402 95.2565 163.677 98.4989 162.728 101.741C161.668 105.794 160.831 109.905 160.831 113.958C160.887 115.695 161.11 117.374 161.11 118.996C161.166 119.632 161.11 120.096 160.999 120.617C160.999 123.28 161.054 126.002 161.222 128.781C161.222 129.881 162.059 130.749 163.007 131.097C163.509 131.328 163.9 131.155 164.346 131.097C165.071 130.865 165.629 130.46 166.243 130.228C169.814 129.476 172.269 127.391 174.389 124.438C177.681 120.096 179.968 115.174 181.642 110.079C182.702 106.489 183.204 102.957 183.818 99.1937C184.208 97.3988 184.878 95.6039 185.436 93.7511C186.328 89.6981 186.886 85.3556 188.225 81.5342C190.29 75.9179 190.792 70.1279 191.517 64.3957C191.573 62.485 192.131 60.6901 192.689 58.8952C194.083 55.2475 194.362 51.4261 194.976 47.7205C195.478 44.3623 195.98 40.9462 196.817 37.5301C197.543 34.5772 198.714 31.74 201.392 29.8293C202.954 28.6713 204.74 28.4397 206.692 28.3818C207.753 28.3818 208.478 29.2503 208.534 30.8136C208.366 33.3613 208.422 36.0247 207.976 38.6302C207.306 42.9727 206.414 47.1994 205.577 51.4261L204.014 58.8952C203.624 60.8638 203.568 62.8903 203.178 64.8589C202.62 67.9277 201.95 70.9964 201.225 73.9493C200.611 76.5548 199.886 79.1603 199.272 81.7658C198.547 84.3713 197.766 87.0347 197.152 89.6402C196.929 90.2771 196.706 90.7982 196.594 91.4351C195.757 95.6618 195.032 99.8307 194.139 104.057C193.47 107.473 192.186 110.774 190.959 114.074C188.727 119.401 185.268 123.628 182.311 128.433C180.359 131.386 178.796 134.571 176.676 137.35C174.556 140.129 172.436 142.793 169.981 145.166C168.754 146.267 167.024 146.961 165.406 147.83C164.569 148.235 163.509 148.525 162.449 148.698C161.836 148.756 161.054 148.583 160.552 148.177C158.823 146.672 157.316 145.109 155.866 143.429C153.578 140.708 152.407 137.582 152.462 134.108L152.351 133.992Z" fill="#FF00CF"/>
<path d="M236.709 17.2651C237.378 17.6704 237.88 18.1915 238.438 18.7705C238.438 18.7705 238.327 18.9442 238.327 19.1179C238.606 19.06 239.052 19.0021 239.498 18.8284C243.181 17.7283 247.086 17.3809 251.047 17.6704C253.335 17.8441 255.511 18.1915 257.631 19.1758C260.03 20.1022 261.313 21.8392 261.313 24.5606C261.425 28.1504 260.923 31.5665 259.974 34.9826C259.472 36.9512 258.747 38.7461 258.245 40.8884C257.073 45.2888 254.339 48.8207 251.996 52.4105C250.099 55.4792 247.309 57.6215 244.687 59.8217C242.623 61.5008 240.67 63.3536 238.494 65.2065C239.052 66.075 239.61 66.9435 240.279 67.5225C241.786 68.9121 242.623 70.707 243.46 72.5019C243.683 73.0809 243.906 73.7178 244.241 74.0073C247.142 76.7865 248.202 80.6079 250.155 83.8503C251.159 85.9347 251.55 88.077 252.331 90.3351C253.112 93.0564 254.785 95.3724 256.125 97.92C257.017 99.1938 257.408 100.931 258.021 102.436V103.536C257.742 105.158 256.906 105.447 255.678 104.463C254.841 103.652 254.116 102.784 253.279 102.089C252.386 100.931 251.326 99.9465 250.322 98.8464L249.374 98.3253C247.979 98.0358 247.086 97.2252 246.472 95.8356C244.241 91.0878 240.614 87.7296 236.876 84.3135C235.649 83.0397 234.589 81.7659 233.25 80.6658C232.19 79.5657 230.851 78.5814 229.512 77.3655C228.34 81.5922 227.112 85.4136 226.555 89.2929C225.104 97.3989 224.546 105.505 222.482 113.495C220.752 119.575 219.246 125.77 217.572 131.965C217.07 133.934 216.345 135.903 214.559 137.234C213.443 137.987 212.104 138.334 210.989 137.987C210.319 137.582 209.538 136.134 209.594 135.324C210.152 129.707 210.71 124.149 211.379 118.532C212.272 113.032 213.109 107.589 214.28 102.031C215.34 96.9936 216.902 92.2458 217.851 87.2085C218.632 82.3449 219.915 77.655 219.469 72.7914C219.19 69.3753 219.246 65.9013 219.915 62.4851C220.585 59.4164 221.143 56.3477 221.868 53.3948C222.482 51.0788 223.486 49.1102 223.988 46.7942C224.992 42.5675 225.885 38.5145 226.722 34.2878C226.722 34.1141 226.666 33.9983 226.778 33.4772C225.271 33.8246 223.932 33.9983 222.649 34.4615C218.744 36.1985 214.615 37.067 210.263 37.8197C209.203 37.9355 208.199 38.3987 207.195 38.8619C206.302 39.1514 205.465 39.5567 204.851 38.5145C204.293 37.646 204.796 36.7775 205.465 36.0827C206.135 35.3879 207.027 34.9247 207.864 34.3457C209.092 33.4193 210.207 32.3192 211.491 31.5086C213.053 30.3506 214.559 29.3663 216.177 28.5557C219.19 26.9345 222.203 25.4291 225.16 23.75C225.997 23.3447 227.057 23.0552 227.894 22.5919C228.34 22.3603 228.898 22.0129 229.009 21.6655C229.735 19.9864 230.516 18.7705 232.413 18.5389C233.752 18.1336 235.258 17.6125 236.709 17.2651ZM231.408 60.5744C236.709 56.4056 242.009 52.5842 246.975 48.2996C249.15 46.2731 251.159 43.8413 251.828 40.5989L252.61 35.7353C252.833 33.6509 253.168 31.7402 253.279 29.8295C253.335 27.6293 251.605 25.9502 249.82 26.1818C245.747 26.4134 241.953 27.6872 238.215 29.4242C237.769 29.6558 237.267 30.1769 237.155 30.6401C236.709 31.9718 236.541 33.2456 236.43 34.5194C236.039 36.1406 235.928 37.8776 235.481 39.383C233.138 46.331 231.966 53.3948 231.018 60.6323L231.408 60.5744Z" fill="#FF00CF"/>
<path d="M276.266 17.439C274.48 17.6707 272.695 18.076 271.021 18.1339L269.347 18.3655C268.399 18.1917 267.729 17.7864 267.45 16.6863C266.892 14.3703 266.892 12.1701 268.343 10.0857C268.845 9.39093 269.068 8.58032 269.292 7.76972C269.571 6.32222 269.849 6.26432 270.965 6.61172C271.3 6.72752 271.412 6.72752 271.746 6.66962L278.72 5.28001C279.446 5.16421 279.557 4.87471 279.78 4.17991C280.227 1.4586 281.733 0.300599 284.523 0.4164C285.137 0.4743 285.862 0.242699 286.476 0.184799C288.428 -0.0468017 289.265 0.5901 289.656 2.61661C289.712 2.90611 289.767 3.36931 289.823 3.83251L293.561 3.36931C298.638 2.55871 303.548 1.7481 308.625 1.1112C310.299 0.879601 311.973 1.2849 313.814 1.227C314.707 1.2849 315.767 0.821701 316.659 0.7059C317.552 0.4164 318.445 0.184799 319.337 0.0689987C320.509 -0.220502 321.513 0.4164 321.681 1.6902C321.959 2.61661 322.015 3.36931 321.959 4.17991C322.015 4.46941 321.904 4.99051 321.625 5.16421C320.23 6.43802 318.891 7.71182 316.938 8.00132C312.921 8.52242 308.904 9.33302 305.166 11.4174C304.05 12.0543 302.655 12.0543 301.316 12.228C298.192 12.807 294.9 13.2123 291.776 13.7913C290.716 13.9071 289.656 14.0808 288.651 14.4861C288.205 14.7177 287.703 15.2388 287.591 15.702C286.141 21.55 284.913 27.3979 283.63 33.2458C282.514 39.2095 281.287 45.2311 280.171 51.1948C280.059 51.658 280.115 52.0054 280.059 52.6423L289.209 51.4843C290.102 51.3685 290.995 51.079 291.887 50.9632C293.059 50.7895 294.231 51.4264 295.068 52.2949C295.737 52.9897 295.737 54.2636 295.123 55.3058C293.896 57.6797 291.887 58.7219 289.544 59.4746C287.48 60.2273 285.471 61.0958 283.63 61.9643C281.845 62.4854 280.283 63.0065 278.497 63.7013C278.218 63.7592 277.66 64.2803 277.549 64.6277C276.712 67.5806 275.819 70.3598 275.261 73.3127C273.811 79.0448 272.695 84.8348 271.412 90.6828C270.686 94.5621 270.073 98.4414 269.292 102.147C269.347 102.436 269.236 102.784 269.124 103.131C271.691 102.784 273.922 102.494 276.321 102.205L285.137 101.047C287.089 100.815 288.875 100.699 290.883 100.642C291.608 100.526 292.557 100.584 293.282 100.352C295.068 99.831 296.853 99.8889 298.75 100.294C299.977 100.468 301.372 100.41 302.711 100.41C304.831 100.294 306.951 101.626 307.677 103.71C307.9 104.463 307.732 105.447 307.342 106.142C306.114 108.516 303.994 109.732 301.316 110.253L293.617 112.164C293.003 112.222 292.613 112.453 292.111 112.511C289.265 112.743 286.364 112.627 283.519 113.148C280.394 113.727 277.214 114.885 274.09 115.811C271.858 116.39 269.849 117.143 267.618 117.722C267.06 117.954 266.892 118.127 266.669 118.764L266.056 121.08C264.605 124.091 262.485 124.207 260.03 122.817C258.747 122.065 257.24 121.138 256.738 119.285C256.013 119.401 255.232 119.633 254.507 119.749C252.275 120.212 249.932 118.417 249.82 116.275C249.764 114.364 249.987 112.627 250.378 110.832C250.545 109.848 251.382 109.095 252.442 108.806C253.056 108.748 253.614 108.342 254.004 107.821C255.176 106.432 256.627 105.737 258.356 106.142C258.858 103.884 259.193 101.626 259.528 99.5415C259.974 96.936 260.421 94.3884 261.034 91.7829C261.592 88.8879 262.15 85.8191 262.875 82.8662C263.378 80.6081 263.991 78.2921 264.493 76.034C265.219 73.0811 265.665 70.3598 266.335 67.4069C268.008 59.9378 269.849 52.4107 271.691 44.7679L272.472 39.7885C272.918 36.0829 273.699 32.3773 274.815 28.7296C275.596 26.2399 275.708 23.5765 276.042 21.1447C276.098 19.9867 276.098 18.8866 276.266 17.439Z" fill="#FF00CF"/>
</svg>
