<svg width="396" height="355" viewBox="0 0 396 355" fill="none" xmlns="http://www.w3.org/2000/svg">
<path d="M76.269 224.808L105.42 239.058L32.5027 276.117L64.3161 279.796L0.5 355L81.5669 307.252L89.6051 324.789L123.846 276.352L130.788 312.602L162.131 254.951L168.682 272.28L179.8 223.451L186.794 218.414L194.415 205.156L235.101 170.315L192.431 200.145L182.201 209.149L76.269 224.808Z" fill="#FF00CF"/>
<path d="M180.791 263.303C175.18 251.194 179.199 242.399 180.217 240.859C181.235 239.319 182.305 241.146 182.305 241.146C182.305 241.146 187.551 255.16 196.554 253.673C201.643 252.812 198.564 259.91 198.564 259.91L190.291 267.505L180.791 263.303Z" fill="white"/>
<path d="M189.952 268.184L180.478 263.982L180.113 263.616C174.736 252.081 177.92 242.973 179.591 240.468C180.113 239.659 180.739 239.502 181.13 239.528C182.148 239.554 182.801 240.598 182.905 240.807L182.957 240.911C183.01 241.042 188.046 254.195 196.267 252.968C196.319 252.968 196.346 252.942 196.398 252.942C197.859 252.708 198.903 252.995 199.556 253.83C201.069 255.761 199.399 259.754 199.19 260.198L199.008 260.459L190.735 268.053L189.952 268.184ZM181.339 262.755L190.108 266.644L197.911 259.467C198.486 258.058 199.112 255.63 198.407 254.743C198.12 254.378 197.52 254.247 196.659 254.404C196.607 254.404 196.554 254.43 196.502 254.43C192.587 255.004 188.751 252.942 185.437 248.427C183.114 245.27 181.809 242.033 181.626 241.485C181.47 241.224 181.209 240.99 181.104 240.99C181.104 240.99 181 241.016 180.843 241.277C180.765 241.355 175.493 249.941 181.339 262.755Z" fill="black"/>
<path d="M189.9 268.575L189.795 268.523L180.269 264.295L179.8 263.825L179.774 263.773C174.345 252.081 177.581 242.816 179.278 240.258C179.904 239.319 180.635 239.136 181.157 239.136C182.357 239.162 183.114 240.363 183.245 240.598L183.323 240.754C183.375 240.885 188.308 253.777 196.215 252.577C196.268 252.577 196.294 252.577 196.346 252.551C197.938 252.29 199.112 252.629 199.869 253.568C201.461 255.63 199.895 259.545 199.556 260.328L199.53 260.406L199.295 260.719L190.944 268.392L189.9 268.575ZM180.687 263.668L190.004 267.792L190.578 267.687L198.747 260.197L198.877 260.015C199.556 258.449 200.365 255.474 199.269 254.038C198.695 253.307 197.781 253.073 196.45 253.281C196.398 253.281 196.346 253.307 196.32 253.307C187.942 254.56 182.827 241.537 182.618 241.015L182.566 240.937C182.462 240.78 181.914 239.893 181.105 239.867C180.635 239.841 180.217 240.128 179.878 240.65C178.234 243.129 175.154 252.029 180.4 263.381L180.687 263.668ZM190.187 267.087L181.079 263.042L181.026 262.911C175.102 249.889 180.478 241.172 180.53 241.094C180.583 240.989 180.661 240.911 180.713 240.859L180.687 240.65H181.105C181.496 240.676 181.914 241.302 181.94 241.302L181.966 241.381C182.201 241.981 183.48 245.139 185.75 248.218C188.986 252.629 192.692 254.638 196.45 254.09C196.502 254.09 196.555 254.064 196.607 254.064C197.625 253.908 198.329 254.064 198.721 254.534C199.582 255.63 198.851 258.266 198.277 259.649L198.251 259.728L190.187 267.087ZM181.627 262.468L190.056 266.2L197.625 259.258C198.277 257.64 198.642 255.63 198.147 254.978C197.886 254.665 197.259 254.691 196.737 254.769C196.685 254.769 196.633 254.795 196.581 254.795C192.509 255.395 188.569 253.281 185.176 248.636C182.905 245.53 181.6 242.346 181.313 241.668C181.261 241.589 181.209 241.537 181.157 241.485C181.079 241.563 175.963 249.915 181.627 262.468Z" fill="black"/>
<path d="M199.399 254.325C188.542 245.947 187.55 237.205 187.681 235.613C187.785 233.995 189.612 235.195 189.612 235.195C189.612 235.195 201.121 245.321 208.09 241.145C212.03 238.797 212.918 245.791 212.918 245.791L209.655 254.873L199.399 254.325Z" fill="white"/>
<path d="M209.603 255.604L199.373 255.082L198.955 254.925C194.258 251.298 190.813 247.2 188.751 242.737C187.159 239.292 186.846 236.604 186.924 235.56C186.976 234.725 187.394 234.334 187.733 234.177C188.62 233.734 189.769 234.438 190.004 234.595L190.082 234.647C190.186 234.751 201.278 244.382 207.672 240.519C209.055 239.684 210.125 239.893 210.752 240.206C212.996 241.302 213.57 245.243 213.622 245.713L213.596 246.052L210.334 255.134L209.603 255.604ZM199.66 253.594L209.107 254.09L212.135 245.713C211.978 244.643 211.326 242.111 210.125 241.537C209.942 241.459 209.447 241.198 208.455 241.798C201.278 246.104 190.056 236.578 189.168 235.795C188.934 235.639 188.62 235.534 188.464 235.508C188.464 235.534 188.438 235.587 188.438 235.665C188.255 237.909 190.004 246.052 199.66 253.594Z" fill="black"/>
<path d="M199.295 255.421L198.773 255.238L198.72 255.212C193.971 251.532 190.5 247.409 188.412 242.894C186.794 239.397 186.481 236.604 186.559 235.534C186.637 234.464 187.211 234.021 187.577 233.838C188.673 233.29 189.952 234.099 190.213 234.282L190.317 234.36C190.369 234.412 193.136 236.813 196.711 238.744C199.895 240.467 204.332 242.111 207.515 240.206C209.029 239.292 210.23 239.527 210.96 239.867C213.361 241.041 213.962 245.191 214.04 245.634V245.713L213.988 246.104L210.673 255.343L209.734 255.969L199.295 255.421ZM199.112 254.586L199.425 254.69L209.473 255.212L209.995 254.847L213.205 245.921L213.231 245.66C213.022 244.095 212.239 241.302 210.569 240.493C209.995 240.232 209.081 240.049 207.829 240.806C206.393 241.667 204.723 241.876 203.001 241.693C196.815 240.989 189.899 234.96 189.795 234.882L189.743 234.83C189.638 234.778 188.594 234.099 187.864 234.464C187.498 234.647 187.29 235.012 187.263 235.56C187.185 236.578 187.498 239.188 189.038 242.555C191.126 246.965 194.493 250.984 199.112 254.586ZM199.53 253.96L199.425 253.881C189.612 246.208 187.864 237.909 188.02 235.613C188.02 235.534 188.046 235.456 188.046 235.378L188.125 235.065L188.438 235.091C188.699 235.117 189.09 235.273 189.325 235.43L189.377 235.456C189.847 235.874 201.2 245.634 208.246 241.433C209.395 240.728 210.047 241.067 210.282 241.172C211.874 241.954 212.448 245.243 212.5 245.634L212.526 245.739L209.395 254.455L199.53 253.96ZM188.777 236.004C188.803 238.562 190.761 246.13 199.817 253.255L208.873 253.725L211.769 245.686C211.535 244.355 210.908 242.32 209.969 241.876C209.838 241.824 209.447 241.641 208.638 242.111C205.506 243.99 201.356 243.625 196.267 241.041C192.509 239.136 189.534 236.63 188.934 236.082C188.882 236.056 188.829 236.03 188.777 236.004Z" fill="black"/>
<path d="M209.578 247.8C198.721 239.423 197.729 230.68 197.86 229.088C197.964 227.47 199.791 228.671 199.791 228.671C199.791 228.671 211.3 238.797 218.268 234.621C222.209 232.272 223.096 239.266 223.096 239.266L219.834 248.349L209.578 247.8Z" fill="white"/>
<path d="M219.782 249.053L209.552 248.531L209.134 248.375C204.436 244.747 200.991 240.65 198.93 236.187C197.338 232.742 197.024 230.054 197.103 229.01C197.155 228.175 197.573 227.783 197.912 227.627C198.799 227.183 199.947 227.888 200.182 228.018L200.261 228.07C200.365 228.175 211.457 237.805 217.851 233.943C219.234 233.107 220.304 233.316 220.93 233.629C223.175 234.725 223.749 238.666 223.801 239.136L223.775 239.475L220.513 248.557L219.782 249.053ZM209.839 247.07L219.286 247.566L222.313 239.188C222.157 238.118 221.504 235.587 220.304 235.013C220.121 234.934 219.625 234.673 218.634 235.274C211.457 239.58 200.261 230.08 199.347 229.271C199.112 229.114 198.799 229.01 198.643 228.984C198.643 229.01 198.616 229.062 198.616 229.141C198.434 231.385 200.182 239.501 209.839 247.07Z" fill="black"/>
<path d="M209.473 248.897L208.951 248.714L208.899 248.688C204.149 245.008 200.678 240.885 198.59 236.37C196.972 232.873 196.659 230.08 196.738 229.01C196.816 227.94 197.39 227.496 197.755 227.314C198.799 226.792 200.026 227.496 200.391 227.731L200.496 227.81C200.548 227.862 203.288 230.263 206.89 232.194C210.074 233.916 214.51 235.561 217.694 233.655C219.208 232.742 220.408 232.977 221.139 233.316C223.54 234.491 224.14 238.64 224.219 239.084V239.162L224.14 239.58L220.826 248.818L219.886 249.445L209.473 248.897ZM209.317 248.062L209.63 248.166L219.678 248.688L220.2 248.323L223.41 239.397L223.436 239.136C223.227 237.57 222.444 234.778 220.774 233.969C220.2 233.708 219.286 233.525 218.033 234.282C216.598 235.143 214.928 235.352 213.179 235.169C206.994 234.465 200.078 228.436 200 228.358L199.948 228.332C199.791 228.227 198.773 227.601 198.069 227.966C197.703 228.149 197.494 228.514 197.468 229.036C197.39 230.054 197.703 232.664 199.243 236.03C201.305 240.415 204.671 244.46 209.317 248.062ZM209.708 247.435L209.604 247.357C199.791 239.684 198.042 231.385 198.199 229.088C198.199 229.01 198.225 228.932 198.225 228.853L198.303 228.566L198.617 228.592C198.878 228.619 199.269 228.775 199.504 228.932L199.556 228.958C200.026 229.375 211.378 239.136 218.425 234.934C219.573 234.23 220.226 234.569 220.461 234.673C222.053 235.456 222.627 238.745 222.679 239.136L222.705 239.24L219.573 247.957L209.708 247.435ZM198.956 229.454C198.982 232.011 200.913 239.58 209.995 246.704L219.051 247.174L221.948 239.136C221.713 237.805 221.087 235.769 220.147 235.326C220.017 235.274 219.625 235.091 218.816 235.561C215.685 237.44 211.535 237.074 206.472 234.491C202.714 232.585 199.739 230.08 199.112 229.532C199.06 229.506 199.008 229.48 198.956 229.454Z" fill="black"/>
<path d="M229.02 227.262C220.538 216.484 221.686 207.793 222.182 206.253C222.678 204.713 224.166 206.305 224.166 206.305C224.166 206.305 232.882 218.937 240.633 216.588C245.018 215.257 244.209 222.251 244.209 222.251L238.833 230.263L229.02 227.262Z" fill="white"/>
<path d="M238.598 230.942L228.785 227.967L228.42 227.706C220.278 217.371 220.643 208.55 221.478 206.018C221.739 205.209 222.235 204.948 222.6 204.87C223.592 204.661 224.505 205.601 224.688 205.783L224.766 205.862C224.845 205.992 233.274 218.023 240.425 215.857C241.965 215.387 242.957 215.831 243.505 216.301C245.41 217.893 244.992 221.86 244.94 222.303L244.81 222.617L239.433 230.629L238.598 230.942ZM229.438 226.61L238.494 229.376L243.479 221.964C243.583 220.894 243.583 218.31 242.539 217.423C242.382 217.293 241.939 216.927 240.843 217.266C237.346 218.336 233.379 216.849 228.994 212.856C225.993 210.142 223.905 207.193 223.592 206.749C223.383 206.54 223.122 206.358 222.966 206.305C222.94 206.331 222.913 206.384 222.887 206.462C222.183 208.628 221.896 216.927 229.438 226.61Z" fill="black"/>
<path d="M238.598 231.333L228.629 228.306L228.159 227.992L228.133 227.94C219.886 217.501 220.277 208.497 221.112 205.914C221.452 204.896 222.13 204.583 222.522 204.504C223.67 204.243 224.688 205.235 224.975 205.548L225.079 205.679C225.105 205.705 227.219 208.758 230.195 211.472C235.023 215.883 238.363 216.118 240.321 215.518C242.017 214.996 243.113 215.518 243.739 216.04C245.801 217.762 245.357 221.912 245.305 222.381L245.279 222.46L245.123 222.851L239.668 230.968L238.598 231.333ZM228.968 227.627L238.598 230.55L239.198 230.341L244.496 222.46L244.575 222.225C244.757 220.659 244.679 217.762 243.27 216.588C242.8 216.196 241.939 215.805 240.529 216.222C233.222 218.441 224.792 206.54 224.479 206.096L224.427 206.044C224.244 205.861 223.461 205.078 222.704 205.235C222.313 205.313 222.026 205.626 221.843 206.148C221.034 208.628 220.695 217.266 228.707 227.444L228.968 227.627ZM238.65 229.793L229.229 226.922L229.151 226.818C221.504 217.005 221.817 208.523 222.522 206.331C222.548 206.253 222.574 206.174 222.626 206.096L222.783 205.835L223.07 205.914C223.331 205.992 223.644 206.253 223.853 206.462L223.879 206.514C224.114 206.853 226.228 209.828 229.229 212.542C233.509 216.431 237.372 217.892 240.738 216.875C242.043 216.483 242.591 216.953 242.774 217.11C244.131 218.258 243.87 221.572 243.844 221.964V222.068L238.65 229.793ZM229.673 226.296L238.363 228.932L243.139 221.833C243.244 220.502 243.113 218.362 242.33 217.71C242.226 217.632 241.886 217.344 240.973 217.632C237.345 218.728 233.248 217.214 228.759 213.143C225.81 210.455 223.748 207.61 223.331 207.01C223.279 206.957 223.226 206.931 223.2 206.879C222.548 209.332 222.574 217.162 229.673 226.296Z" fill="black"/>
<path d="M238.624 224.652C230.142 213.873 231.291 205.183 231.787 203.643C232.283 202.103 233.77 203.695 233.77 203.695C233.77 203.695 242.487 216.326 250.238 213.978C254.622 212.647 253.813 219.641 253.813 219.641L248.411 227.627L238.624 224.652Z" fill="white"/>
<path d="M248.203 228.331L238.39 225.356L238.025 225.095C229.882 214.761 230.247 205.939 231.083 203.408C231.343 202.599 231.839 202.338 232.205 202.26C233.196 202.051 234.11 202.99 234.293 203.173L234.371 203.251C234.449 203.382 242.879 215.413 250.03 213.247C251.569 212.777 252.561 213.221 253.109 213.69C255.014 215.282 254.597 219.249 254.545 219.693L254.414 220.006L249.038 228.018L248.203 228.331ZM239.068 223.999L248.124 226.766L253.109 219.354C253.214 218.284 253.214 215.7 252.17 214.813C252.013 214.682 251.569 214.317 250.473 214.656C247.002 215.726 243.009 214.239 238.625 210.246C235.624 207.531 233.536 204.582 233.223 204.139C233.014 203.93 232.753 203.747 232.596 203.695C232.57 203.721 232.544 203.773 232.518 203.852C231.787 206.018 231.5 214.317 239.068 223.999Z" fill="black"/>
<path d="M248.203 228.723L238.233 225.696L237.763 225.383L237.737 225.33C229.49 214.891 229.882 205.887 230.717 203.304C231.056 202.286 231.735 201.973 232.126 201.894C233.275 201.659 234.292 202.625 234.579 202.938L234.658 203.043C234.684 203.095 236.772 206.096 239.799 208.863C244.627 213.273 247.968 213.508 249.925 212.908C251.621 212.386 252.718 212.908 253.344 213.43C253.709 213.717 255.432 215.413 254.91 219.771L254.884 219.85L254.727 220.241L249.273 228.358L248.203 228.723ZM238.572 225.017L248.203 227.94L248.803 227.731L254.101 219.85L254.179 219.615C254.362 218.049 254.283 215.152 252.874 213.978C252.404 213.586 251.543 213.195 250.134 213.612C249.247 213.873 248.333 213.952 247.42 213.847C240.791 213.09 234.162 203.591 234.084 203.486L234.031 203.434C233.901 203.304 233.092 202.469 232.283 202.625C231.891 202.703 231.604 203.017 231.422 203.539C230.613 206.018 230.273 214.656 238.285 224.834L238.572 225.017ZM248.255 227.183L238.833 224.313L238.755 224.208C231.108 214.395 231.422 205.913 232.126 203.721C232.152 203.643 232.178 203.565 232.231 203.486L232.387 203.225L232.674 203.304C232.935 203.382 233.248 203.643 233.457 203.852L233.483 203.904C233.718 204.243 235.832 207.218 238.833 209.933C243.113 213.821 246.976 215.283 250.343 214.265C251.648 213.873 252.196 214.343 252.378 214.5C253.735 215.648 253.474 218.962 253.448 219.354V219.458L248.255 227.183ZM239.277 223.686L247.968 226.322L252.744 219.223C252.848 217.892 252.718 215.752 251.935 215.1C251.83 215.022 251.491 214.735 250.578 215.022C246.95 216.118 242.853 214.604 238.364 210.533C235.415 207.845 233.353 205 232.935 204.4C232.883 204.348 232.831 204.321 232.805 204.269C232.152 206.722 232.205 214.552 239.277 223.686Z" fill="black"/>
<path d="M186.872 319.831L173.145 271.994C173.145 258.631 197.703 256.256 205.584 235.456C217.511 203.904 236.458 214.656 254.257 199.389C272.03 184.122 270.673 167.132 263.235 157.006C255.823 146.88 243.922 90.2994 234.657 78.9729L250.107 64.2275C293.639 114.153 301.599 180.598 292.934 198.815C283.121 212.882 241.6 257.039 241.6 257.039L199.295 285.33L186.872 319.831Z" fill="white"/>
<path d="M187.916 320.196L185.802 320.118L172.075 272.281L172.022 271.967C172.022 264.947 178.025 260.85 184.993 256.1C192.301 251.115 200.574 245.478 204.514 235.039C212.187 214.734 222.757 211.498 233.953 208.053C240.399 206.07 247.054 204.034 253.5 198.502C271.064 183.417 269.237 167.053 262.321 157.606C258.772 152.778 254.362 138.033 249.664 122.426C244.47 105.123 238.598 85.5234 233.77 79.6253L233.875 78.1116L249.325 63.3662L250.917 63.4445C261.199 75.2408 270.073 88.603 277.354 103.218C283.722 116.006 288.707 129.42 292.151 143.096C298.05 166.479 298.78 189.028 293.926 199.232L293.822 199.389C284.061 213.351 244.079 255.943 242.383 257.744L242.2 257.901L200.234 286.034L187.916 320.196ZM174.267 271.837L187.003 316.23L198.277 284.964L198.695 284.416L240.895 256.204C243.035 253.934 282.443 211.89 291.995 198.267C295.831 190.072 296.693 170.081 290.038 143.696C286.619 130.177 281.712 116.919 275.397 104.262C268.402 90.1949 259.868 77.2764 250.029 65.8455L236.145 79.0772C241.104 86.0454 246.558 104.21 251.83 121.826C256.449 137.25 260.808 151.812 264.148 156.327C268.402 162.121 270.229 169.246 269.316 176.397C268.22 184.878 263.287 193.099 255.014 200.224C248.202 206.07 241.339 208.158 234.684 210.22C229.229 211.89 224.062 213.482 219.338 217.031C214.014 221.05 209.995 227.027 206.654 235.848C202.453 246.965 193.501 253.072 186.298 257.953C179.617 262.494 174.345 266.069 174.267 271.837Z" fill="black"/>
<path d="M177.659 275.151C179.747 277.709 187.524 305.79 187.524 305.79C187.524 305.79 191.961 283.737 197.624 281.336C208.142 276.874 284.504 209.697 289.959 195.761C295.413 181.851 288.08 132.03 284.948 131.873C281.79 131.743 282.338 151.76 283.852 168.332C285.366 184.904 292.308 184.722 277.614 199.232C262.895 213.743 237.789 251.82 221.634 258.057C205.48 264.294 177.659 275.151 177.659 275.151Z" fill="#E2E2E2"/>
<path d="M264.749 114.44C281.901 114.44 295.806 100.535 295.806 83.3833C295.806 66.2312 281.901 52.3267 264.749 52.3267C247.597 52.3267 233.692 66.2312 233.692 83.3833C233.692 100.535 247.597 114.44 264.749 114.44Z" fill="white"/>
<path d="M269.42 115.223C263.835 116.058 258.094 115.379 252.718 113.213C244.758 110.003 238.52 103.87 235.154 95.9626C228.212 79.6513 235.858 60.7303 252.169 53.7882C260.077 50.4216 268.82 50.3433 276.78 53.5533C284.74 56.7634 290.977 62.8964 294.344 70.8041C297.71 78.7118 297.789 87.4546 294.579 95.4145C291.369 103.374 285.236 109.612 277.328 112.978C274.77 114.075 272.108 114.831 269.42 115.223ZM253.057 55.8239C237.868 62.2701 230.743 79.8862 237.215 95.0752C242.644 107.863 256.006 114.936 269.159 112.978C271.612 112.613 274.066 111.935 276.467 110.917C283.826 107.785 289.542 101.991 292.517 94.5794C295.518 87.1675 295.44 79.025 292.308 71.6653C289.176 64.3057 283.383 58.6163 275.971 55.6151C268.559 52.6399 260.416 52.7182 253.057 55.8239Z" fill="black"/>
<path d="M264.748 106.454C277.49 106.454 287.819 96.1247 287.819 83.3831C287.819 70.6416 277.49 60.3125 264.748 60.3125C252.007 60.3125 241.678 70.6416 241.678 83.3831C241.678 96.1247 252.007 106.454 264.748 106.454Z" fill="white"/>
<path d="M268.324 107.289C257.702 108.855 246.923 103.166 242.513 92.8308C237.293 80.5647 243.035 66.3413 255.301 61.1217C261.251 58.5902 267.802 58.538 273.804 60.9651C279.781 63.3922 284.478 67.9855 287.01 73.9358C292.229 86.2019 286.488 100.425 274.222 105.645C272.291 106.454 270.307 107.002 268.324 107.289ZM256.188 63.1834C245.044 67.9072 239.825 80.8257 244.575 91.9695C248.568 101.365 258.354 106.532 268.011 105.097C269.811 104.836 271.612 104.34 273.361 103.583C278.763 101.286 282.939 97.0325 285.131 91.6041C287.323 86.1758 287.271 80.1993 284.974 74.797C280.224 63.6532 267.306 58.4597 256.188 63.1834Z" fill="black"/>
<path d="M292.451 99.9075L281.171 138.375L319.638 149.655L330.918 111.188L292.451 99.9075Z" fill="#FF00CF"/>
<path d="M309.972 56.0245L301.196 85.9517L331.123 94.7277L339.899 64.8006L309.972 56.0245Z" fill="#FF00CF"/>
<path d="M327.494 12.1416L321.223 33.5288L342.61 39.8006L348.882 18.4133L327.494 12.1416Z" fill="#FF00CF"/>
<path d="M244.568 88.1522L234.536 122.362L268.746 132.394L278.778 98.1841L244.568 88.1522Z" fill="#FF00CF"/>
<path d="M262.083 44.2943L254.562 69.939L280.207 77.4592L287.727 51.8145L262.083 44.2943Z" fill="#FF00CF"/>
<path d="M182.206 125.843L173.43 155.77L203.357 164.546L212.133 134.619L182.206 125.843Z" fill="#FF00CF"/>
<path d="M198.19 79.2245L190.67 104.869L216.315 112.389L223.835 86.7447L198.19 79.2245Z" fill="#FF00CF"/>
<path d="M135.811 116.886L129.539 138.273L150.926 144.545L157.198 123.158L135.811 116.886Z" fill="#FF00CF"/>
<path d="M122.821 169.061L117.805 186.166L134.909 191.182L139.925 174.077L122.821 169.061Z" fill="#FF00CF"/>
<path d="M124.889 201.398C134.519 214.603 144.88 216.039 146.811 215.961C148.742 215.882 147.385 213.69 147.385 213.69C147.385 213.69 135.693 199.649 140.887 191.507C143.81 186.914 135.537 185.583 135.537 185.583L124.602 189.21L124.889 201.398Z" fill="white"/>
<path d="M147.803 216.483C147.568 216.613 147.255 216.718 146.837 216.718C143.679 216.848 133.449 214.395 124.288 201.842L124.158 201.659L123.845 188.688L135.458 184.852L135.641 184.878C136.163 184.956 140.782 185.765 141.983 188.401C142.479 189.471 142.322 190.672 141.513 191.925C136.659 199.519 147.855 213.09 147.959 213.221L148.011 213.299C148.168 213.56 148.925 214.891 148.403 215.856C148.299 216.091 148.116 216.3 147.803 216.483ZM125.619 201.163C136.006 215.256 146.68 215.256 146.785 215.256C147.046 215.256 147.098 215.204 147.098 215.178C147.15 215.047 146.994 214.525 146.759 214.134C146.393 213.69 143.679 210.324 141.513 205.991C138.355 199.728 137.938 194.743 140.234 191.116C140.756 190.307 140.887 189.602 140.6 189.002C139.895 187.462 136.868 186.601 135.563 186.366L125.358 189.732L125.619 201.163Z" fill="black"/>
<path d="M145.532 217.005C141.357 216.509 132.222 213.325 124.001 202.05L123.793 201.763L123.479 188.401L135.432 184.46L135.693 184.513C136.241 184.591 141.043 185.426 142.296 188.245C142.844 189.445 142.662 190.75 141.8 192.107C139.399 195.891 141.226 201.32 143.183 205.182C145.376 209.515 148.194 212.933 148.22 212.959L148.325 213.09C148.56 213.481 149.343 214.891 148.716 216.039C148.534 216.352 148.299 216.613 147.986 216.796C147.672 216.979 147.281 217.057 146.863 217.083C146.498 217.083 146.054 217.083 145.532 217.005ZM124.523 201.529L124.602 201.633C133.684 214.056 143.732 216.483 146.837 216.352C147.15 216.352 147.437 216.274 147.646 216.169C147.829 216.065 147.985 215.909 148.09 215.726C148.534 214.917 147.829 213.716 147.725 213.534L147.672 213.481C147.281 213.012 136.268 199.493 141.2 191.742C141.931 190.593 142.087 189.523 141.644 188.558C140.756 186.574 137.416 185.53 135.589 185.243L135.511 185.217L124.21 188.949L124.523 201.529ZM145.898 215.543C143.079 215.204 134.075 213.247 125.332 201.372L125.254 201.268L124.993 189.471L135.563 185.974L135.667 186C136.111 186.079 140.078 186.861 140.991 188.845C141.331 189.576 141.2 190.385 140.6 191.324C138.381 194.821 138.799 199.702 141.879 205.835C144.045 210.141 146.785 213.534 147.098 213.899L147.124 213.951C147.124 213.951 147.672 214.891 147.464 215.334L147.411 215.439L147.333 215.491C147.229 215.569 147.046 215.621 146.811 215.621C146.759 215.595 146.446 215.595 145.898 215.543ZM125.985 201.033C135.772 214.238 145.741 214.838 146.707 214.865C146.654 214.708 146.576 214.525 146.472 214.343C146.08 213.873 143.366 210.48 141.2 206.174C137.99 199.78 137.572 194.665 139.947 190.933C140.391 190.228 140.521 189.654 140.287 189.158C139.686 187.853 137.024 187.018 135.615 186.757L125.724 189.993L125.985 201.033Z" fill="black"/>
<path d="M186.768 162.225C196.398 175.431 206.759 176.866 208.69 176.788C210.621 176.709 209.264 174.517 209.264 174.517C209.264 174.517 197.572 160.476 202.766 152.334C205.689 147.741 197.416 146.41 197.416 146.41L186.507 150.011L186.768 162.225Z" fill="white"/>
<path d="M209.682 177.284C209.447 177.414 209.134 177.518 208.716 177.518C205.558 177.649 195.328 175.196 186.167 162.643L186.037 162.46L185.724 149.489L197.337 145.653L197.52 145.679C198.042 145.757 202.661 146.566 203.862 149.202C204.358 150.272 204.201 151.473 203.392 152.725C198.538 160.32 209.734 173.891 209.838 174.021L209.89 174.1C210.047 174.361 210.804 175.692 210.282 176.657C210.177 176.892 209.995 177.127 209.682 177.284ZM187.498 161.964C197.885 176.057 208.559 176.057 208.664 176.057C208.925 176.057 208.977 175.979 208.977 175.979C209.029 175.848 208.899 175.352 208.638 174.935C208.272 174.491 205.558 171.124 203.392 166.792C200.234 160.529 199.817 155.544 202.113 151.916C202.635 151.107 202.766 150.403 202.479 149.802C201.774 148.263 198.747 147.401 197.442 147.167L187.211 150.533L187.498 161.964Z" fill="black"/>
<path d="M207.411 177.832C203.236 177.336 194.101 174.152 185.88 162.878L185.672 162.591L185.358 149.228L197.311 145.288L197.572 145.34C198.12 145.418 202.922 146.253 204.175 149.072C204.723 150.272 204.54 151.577 203.679 152.934C201.278 156.719 203.105 162.147 205.062 166.009C207.255 170.316 210.073 173.76 210.099 173.787L210.204 173.917C210.439 174.309 211.221 175.718 210.595 176.866C210.412 177.179 210.178 177.44 209.864 177.623C209.551 177.806 209.16 177.884 208.742 177.91C208.377 177.91 207.933 177.884 207.411 177.832ZM186.402 162.33L186.481 162.434C195.563 174.857 205.61 177.284 208.716 177.153C209.029 177.153 209.316 177.075 209.525 176.971C209.708 176.866 209.864 176.71 209.969 176.527C210.412 175.718 209.708 174.517 209.603 174.335L209.551 174.282C209.16 173.813 198.146 160.294 203.079 152.543C203.81 151.395 203.966 150.325 203.523 149.359C202.635 147.375 199.295 146.332 197.468 146.044L197.39 146.018L186.115 149.75L186.402 162.33ZM207.777 176.344C204.958 176.031 195.954 174.048 187.211 162.173L187.133 162.069L186.872 150.272L197.442 146.775L197.546 146.801C197.99 146.88 201.957 147.663 202.87 149.646C203.209 150.377 203.079 151.186 202.479 152.125C200.26 155.622 200.678 160.503 203.757 166.636C205.924 170.942 208.664 174.335 208.977 174.7L209.003 174.752C209.16 175.013 209.499 175.77 209.342 176.135L209.316 176.214L209.238 176.266C209.16 176.318 209.003 176.396 208.716 176.396C208.664 176.422 208.325 176.422 207.777 176.344ZM187.864 161.834C197.624 175.039 207.62 175.64 208.586 175.666C208.533 175.509 208.455 175.326 208.351 175.144C207.959 174.674 205.245 171.281 203.079 166.975C199.869 160.581 199.451 155.466 201.826 151.734C202.27 151.029 202.4 150.455 202.165 149.959C201.565 148.654 198.903 147.819 197.494 147.558L187.603 150.82L187.864 161.834Z" fill="black"/>
<path d="M140.417 183.599C146.08 199.023 157.903 203.173 160.278 203.616C162.626 204.06 162 201.555 162 201.555C162 201.555 154.223 184.748 164.166 178.197C169.777 174.491 160.382 171.02 160.382 171.02L145.584 171.646L140.417 183.599Z" fill="white"/>
<path d="M161.818 204.165C161.452 204.373 160.904 204.504 160.121 204.347C158.608 204.06 155.032 202.808 151.118 199.832C146.002 195.918 142.166 190.568 139.713 183.86L139.608 183.573L145.063 170.89L160.461 170.237L160.591 170.29C161.165 170.498 166.307 172.482 166.62 175.379C166.776 176.631 166.046 177.78 164.506 178.797C155.215 184.93 162.522 201.085 162.601 201.242L162.653 201.372C162.705 201.529 163.018 202.964 162.209 203.825C162.157 203.956 162 204.06 161.818 204.165ZM141.226 183.626C147.386 200.041 160.278 202.886 160.408 202.886C160.8 202.964 161.087 202.938 161.191 202.808C161.374 202.625 161.374 202.103 161.296 201.764C161.035 201.163 159.286 197.17 158.634 192.421C157.668 185.557 159.443 180.416 163.775 177.545C164.819 176.866 165.289 176.188 165.237 175.535C165.054 174.048 162.183 172.43 160.304 171.699L146.133 172.299L141.226 183.626Z" fill="black"/>
<path d="M160.356 204.765C160.252 204.765 160.173 204.738 160.069 204.712C158.529 204.425 154.876 203.146 150.909 200.119C145.741 196.178 141.853 190.75 139.373 183.991L139.217 183.573L144.828 170.55L160.539 169.872L160.748 169.95C161.035 170.054 162.496 170.602 163.932 171.516C165.837 172.716 166.881 173.995 167.037 175.352C167.194 176.735 166.437 178.014 164.767 179.11C155.763 185.087 162.94 200.928 162.992 201.085L163.07 201.267C163.123 201.45 163.488 203.068 162.548 204.086C162.392 204.243 162.209 204.373 162.026 204.504C161.557 204.738 160.983 204.843 160.356 204.765ZM140.026 183.599L140.078 183.73C142.505 190.358 146.315 195.656 151.352 199.519C155.189 202.442 158.712 203.695 160.2 203.982C160.8 204.086 161.27 204.034 161.661 203.825C161.792 203.747 161.896 203.668 162 203.564C162.653 202.859 162.392 201.607 162.366 201.45L162.34 201.346C162.079 200.745 154.98 184.695 164.375 178.458C165.785 177.518 166.437 176.5 166.307 175.404C166.046 173.212 162.548 171.359 160.513 170.628L160.434 170.602L145.35 171.255L140.026 183.599ZM160.539 203.303C160.487 203.303 160.408 203.277 160.33 203.277C160.2 203.251 147.098 200.38 140.861 183.782L140.809 183.651L145.82 172.038L160.304 171.411L160.382 171.437C162.079 172.09 165.367 173.786 165.55 175.561C165.654 176.344 165.106 177.153 163.932 177.91C159.756 180.676 158.033 185.687 158.973 192.42C159.652 197.196 161.426 201.241 161.609 201.685L161.635 201.763C161.635 201.789 161.818 202.729 161.452 203.12C161.27 203.277 160.956 203.329 160.539 203.303ZM141.618 183.625C147.725 199.754 160.356 202.494 160.487 202.52C160.748 202.572 160.878 202.546 160.93 202.546C160.956 202.468 160.983 202.181 160.93 201.894C160.565 201.059 158.895 197.17 158.242 192.472C157.251 185.452 159.103 180.18 163.54 177.257C164.166 176.84 164.897 176.213 164.819 175.613C164.688 174.517 162.366 172.977 160.173 172.116L146.315 172.716L141.618 183.625Z" fill="black"/>
<path d="M154.588 175.848C160.251 191.272 172.074 195.422 174.448 195.865C176.797 196.309 176.171 193.804 176.171 193.804C176.171 193.804 168.394 176.997 178.337 170.446C183.948 166.74 174.553 163.269 174.553 163.269L159.755 163.895L154.588 175.848Z" fill="white"/>
<path d="M176.015 196.413C175.65 196.622 175.102 196.752 174.319 196.596C172.805 196.309 169.23 195.056 165.315 192.081C160.2 188.166 156.363 182.816 153.91 176.109L153.806 175.822L159.26 163.138L174.658 162.486L174.788 162.538C175.363 162.747 180.504 164.73 180.817 167.627C180.974 168.88 180.243 170.028 178.703 171.046C169.412 177.179 176.72 193.334 176.798 193.49L176.85 193.621C176.902 193.777 177.216 195.213 176.407 196.074C176.328 196.204 176.198 196.335 176.015 196.413ZM155.398 175.874C161.557 192.29 174.449 195.134 174.58 195.134C174.971 195.213 175.258 195.187 175.363 195.056C175.545 194.873 175.545 194.351 175.467 194.012C175.206 193.412 173.457 189.419 172.805 184.669C171.839 177.805 173.614 172.664 177.946 169.793C178.99 169.115 179.46 168.436 179.408 167.784C179.225 166.296 176.354 164.678 174.475 163.973L160.304 164.574L155.398 175.874Z" fill="black"/>
<path d="M174.527 197.014C174.423 197.014 174.344 196.988 174.24 196.961C172.7 196.674 169.046 195.396 165.08 192.368C159.912 188.427 156.024 182.999 153.544 176.24L153.388 175.822L158.999 162.799L174.71 162.121L174.919 162.199C175.206 162.303 176.667 162.851 178.102 163.765C180.008 164.965 181.052 166.244 181.208 167.601C181.365 168.984 180.608 170.263 178.938 171.359C175.206 173.812 173.77 178.223 174.631 184.46C175.31 189.289 177.137 193.282 177.163 193.334L177.241 193.516C177.293 193.699 177.659 195.317 176.719 196.335C176.563 196.492 176.38 196.622 176.197 196.753C175.728 196.988 175.18 197.092 174.527 197.014ZM154.197 175.848L154.249 175.979C156.676 182.608 160.486 187.905 165.523 191.768C169.36 194.691 172.883 195.944 174.37 196.231C174.971 196.335 175.44 196.283 175.832 196.074C175.962 195.996 176.067 195.917 176.171 195.813C176.824 195.108 176.563 193.856 176.537 193.699L176.51 193.595C176.223 192.995 169.125 176.944 178.546 170.707C179.955 169.767 180.608 168.749 180.477 167.653C180.216 165.461 176.719 163.608 174.684 162.877L174.605 162.851L159.521 163.504L154.197 175.848ZM174.71 195.552C174.658 195.552 174.579 195.526 174.501 195.526C174.37 195.5 161.269 192.629 155.032 176.031L154.98 175.9L159.99 164.287L174.475 163.66L174.553 163.686C176.25 164.339 179.538 166.035 179.721 167.81C179.825 168.593 179.277 169.402 178.102 170.159C173.927 172.925 172.204 177.936 173.144 184.669C173.822 189.445 175.597 193.49 175.78 193.934L175.806 194.012C175.806 194.038 175.989 194.978 175.623 195.369C175.44 195.526 175.127 195.604 174.71 195.552ZM155.789 175.9C161.896 192.029 174.527 194.769 174.658 194.795C174.919 194.847 175.049 194.821 175.101 194.821C175.127 194.743 175.153 194.456 175.101 194.169C174.736 193.334 173.066 189.445 172.413 184.748C171.421 177.727 173.274 172.455 177.711 169.532C178.337 169.115 179.068 168.489 178.99 167.888C178.859 166.792 176.537 165.252 174.344 164.391L160.486 164.991L155.789 175.9Z" fill="black"/>
<path d="M168.812 167.392C174.475 182.816 186.297 186.966 188.672 187.409C191.021 187.853 190.395 185.348 190.395 185.348C190.395 185.348 182.617 168.541 192.561 161.99C198.172 158.284 188.776 154.813 188.776 154.813L173.979 155.439L168.812 167.392Z" fill="white"/>
<path d="M190.239 187.958C189.873 188.166 189.325 188.297 188.542 188.14C187.029 187.853 183.453 186.601 179.538 183.625C174.423 179.711 170.587 174.361 168.134 167.653L168.029 167.366L173.484 154.683L188.882 154.03L189.012 154.082C189.586 154.291 194.728 156.275 195.041 159.172C195.197 160.424 194.467 161.573 192.927 162.59C183.636 168.723 190.943 184.878 191.022 185.035L191.074 185.165C191.126 185.322 191.439 186.757 190.63 187.618C190.552 187.723 190.421 187.853 190.239 187.958ZM169.621 167.419C175.78 183.834 188.673 186.679 188.803 186.679C189.195 186.757 189.482 186.731 189.586 186.601C189.769 186.418 189.769 185.896 189.691 185.557C189.43 184.956 187.681 180.963 187.029 176.214C186.063 169.35 187.838 164.208 192.17 161.338C193.214 160.659 193.684 159.981 193.631 159.328C193.449 157.841 190.578 156.222 188.699 155.492L174.528 156.092L169.621 167.419Z" fill="black"/>
<path d="M188.751 188.532C188.646 188.532 188.568 188.506 188.464 188.479C186.924 188.192 183.27 186.914 179.303 183.886C174.136 179.945 170.247 174.517 167.768 167.758L167.611 167.34L173.222 154.317L188.933 153.639L189.142 153.717C189.429 153.821 190.891 154.396 192.326 155.283C194.231 156.483 195.275 157.762 195.432 159.119C195.588 160.502 194.832 161.781 193.161 162.877C189.429 165.331 187.994 169.741 188.855 175.979C189.534 180.728 191.36 184.8 191.387 184.852L191.465 185.035C191.517 185.217 191.882 186.835 190.943 187.853C190.786 188.01 190.604 188.14 190.421 188.271C189.951 188.532 189.403 188.61 188.751 188.532ZM168.42 167.366L168.473 167.497C170.9 174.126 174.71 179.423 179.747 183.286C183.583 186.209 187.107 187.462 188.594 187.749C189.194 187.853 189.664 187.801 190.056 187.592C190.186 187.514 190.29 187.436 190.395 187.331C191.047 186.627 190.786 185.374 190.76 185.217L190.734 185.113C190.447 184.513 183.348 168.462 192.77 162.225C194.179 161.285 194.832 160.268 194.701 159.171C194.44 156.979 190.943 155.126 188.907 154.396L188.829 154.369L173.744 155.022L168.42 167.366ZM188.933 187.07C188.881 187.07 188.803 187.044 188.725 187.044C188.594 187.018 175.493 184.147 169.255 167.549L169.203 167.418L174.214 155.805L188.698 155.178L188.777 155.205C190.473 155.857 193.761 157.553 193.944 159.328C194.049 160.111 193.501 160.92 192.326 161.677C188.15 164.443 186.428 169.454 187.367 176.187C188.02 180.859 189.69 184.721 190.003 185.452L190.029 185.53C190.056 185.635 190.212 186.496 189.847 186.887C189.664 187.044 189.351 187.122 188.933 187.07ZM170.012 167.418C176.119 183.547 188.751 186.287 188.881 186.313C189.142 186.366 189.273 186.339 189.325 186.339C189.351 186.261 189.377 185.974 189.325 185.687C188.959 184.852 187.289 180.963 186.637 176.266C185.645 169.245 187.498 163.973 191.935 161.05C192.561 160.633 193.292 160.007 193.213 159.406C193.083 158.31 190.76 156.77 188.568 155.909L174.71 156.509L170.012 167.418Z" fill="black"/>
<path d="M105.525 183.051L109.309 199.31C109.309 199.31 117.086 204.399 120.348 205.861C120.348 205.861 126.168 190.385 142.01 191.898C160.122 193.386 186.011 177.832 192.196 169.741C192.196 169.741 201.852 160.007 209.603 162.851L243.922 146.592L254.779 154.004L298.232 155.883L376.343 158.154L377.779 115.849L354.369 70.5168L363.059 23.9841L357.396 1.04395L290.272 26.3068L215.528 51.0477L197.442 50.3169L146.107 93.1176C100.148 129.185 82.2713 138.659 93.5195 159.667L105.525 183.051Z" fill="white"/>
<path d="M119.904 206.879C116.59 205.417 109.022 200.459 108.708 200.25L108.239 199.571L104.48 183.443L92.5537 160.163C89.97 155.309 88.9 151.16 89.2131 147.062C89.5263 143.017 91.2227 139.154 94.4849 134.9C100.67 126.836 112.075 118.041 129.326 104.757C134.154 101.051 139.608 96.8235 145.428 92.2564L196.737 49.4557L197.494 49.1947L215.371 49.9254L289.907 25.2628L357.004 0L358.466 0.782939L364.155 23.7231L364.181 24.1928L355.569 70.3602L378.796 115.353L378.927 115.901L377.491 158.206L376.343 159.276L298.232 157.005L254.753 155.126L254.178 154.944L243.844 147.871L210.099 163.843L209.238 163.869C202.504 161.39 193.762 169.767 193.057 170.472C189.664 174.883 181.235 180.859 172.1 185.4C165.576 188.636 153.023 193.908 141.957 192.995C135.746 192.394 130.422 194.43 126.116 198.997C122.853 202.468 121.418 206.2 121.392 206.252L119.904 206.879ZM110.3 198.658C111.71 199.571 116.773 202.833 119.8 204.373C120.505 202.912 121.966 200.198 124.445 197.562C127.76 194.012 133.501 189.967 142.14 190.802C159.547 192.238 185.149 177.153 191.335 169.063L191.439 168.958C191.856 168.541 201.356 159.093 209.551 161.651L243.478 145.575L244.574 145.653L255.17 152.908L298.31 154.787L375.299 157.005L376.682 116.084L353.403 71.0126L353.299 70.308L361.963 24.0101L356.613 2.50541L290.611 27.3507L215.867 52.0916L215.475 52.1438L197.833 51.4391L146.811 93.9788C140.992 98.546 135.511 102.774 130.683 106.506C113.563 119.711 102.262 128.428 96.2596 136.258C90.3354 143.983 89.8395 150.403 94.5371 159.145L106.542 182.555L106.647 182.816L110.3 198.658Z" fill="black"/>
<path d="M377.1 158.911L298.258 156.64L254.57 154.735L243.87 147.428L209.656 163.634L209.369 163.53C202.374 160.972 193.37 169.637 192.77 170.237C189.404 174.596 181.052 180.572 171.918 185.087C165.446 188.297 152.945 193.543 141.957 192.655C135.616 192.055 130.187 194.117 125.803 198.788C122.488 202.312 121.053 206.096 121.027 206.122L120.035 206.539C116.747 205.078 109.204 200.145 108.891 199.937L108.63 199.78L104.794 183.312L92.8671 160.007C82.7672 141.138 95.503 131.299 129.535 105.044C134.363 101.312 139.817 97.1106 145.637 92.5435L197.155 49.5601L215.371 50.2909L289.985 25.6022L357.866 0.0522461L363.816 23.958L355.152 70.3863L378.536 115.666V115.849L377.1 158.911ZM255.04 153.273L298.284 155.153L375.639 157.397L377.048 116.006L353.612 70.6212L353.664 70.3602L362.329 24.0102L356.874 2.03569L290.507 27.0115L215.632 51.8045L197.703 51.0738L146.577 93.6918C140.731 98.285 135.25 102.487 130.422 106.219C113.302 119.424 101.975 128.167 95.9206 136.023C89.9964 143.8 89.4744 150.533 94.172 159.302L106.229 182.79L109.961 198.867C111.214 199.676 116.877 203.329 119.957 204.869C120.557 203.538 122.045 200.641 124.681 197.823C127.917 194.352 133.58 190.359 142.088 191.194C159.6 192.655 185.384 177.466 191.622 169.324L191.674 169.245C192.066 168.828 201.539 159.433 209.551 162.068L243.974 145.757L255.04 153.273Z" fill="black"/>
<path d="M159.182 112.691L188.49 109.899L197.807 68.7944L180.164 102.539L159.182 112.691Z" fill="#E2E2E2"/>
<path d="M159.182 112.691L149.839 106.662L150.048 99.1461L193.788 67.0195L158.06 102.852L159.182 112.691Z" fill="#E2E2E2"/>
<path d="M160.8 109.768L160.096 103.557L194.206 69.3423L195.119 69.7338L178.73 101.077L160.8 109.768Z" fill="#FF00CF"/>
<path d="M188.907 77.4065L177.294 99.5898L162.392 106.793L162.105 104.235L188.907 77.4065ZM193.788 67.0195L158.06 102.852L159.208 112.691L180.191 102.539L197.833 68.7942L193.788 67.0195Z" fill="black"/>
<path d="M295.778 31.1347L322.894 30.4823L348.627 69.0551L354.316 25.628L350.976 8.97754L295.778 31.1347Z" fill="#E2E2E2"/>
<path d="M97.0163 150.402C93.3104 144.139 103.045 135.005 104.506 133.987L105.55 134.404C99.8349 143.069 100.983 147.271 100.983 147.271L97.0163 150.402Z" fill="black"/>
<path d="M120.714 196.335C120.714 196.335 125.568 185.374 147.96 186.392L168.499 180.52L192.248 159.72L207.49 157.371L241.548 139.468L207.098 154.239L189.169 158.128L167.168 177.388L148.039 184.252L134.102 180.128L175.963 125.296L115.703 192.681L120.714 196.335Z" fill="#E2E2E2"/>
<path d="M191.021 108.541L199.843 67.6718L293.665 32.3091L205.819 70.2294L191.021 108.541Z" fill="#E2E2E2"/>
<path d="M147.046 108.307L147.255 100.816L107.873 132.16L143.262 107.915L147.046 108.307Z" fill="#E2E2E2"/>
<path d="M369.245 117.076L366.974 149.202L259.581 148.184L371.933 153.195L374.047 116.162L350.141 71.4824L369.245 117.076Z" fill="#E2E2E2"/>
<path d="M114.528 189.341L111.71 180.833L107.038 172.273L157.355 116.475L188.568 111.986L159.182 118.641L114.058 172.873L126.142 176.866L114.528 189.341Z" fill="#E2E2E2"/>
<path d="M323.704 38.7817L348.419 71.9262L366.661 117.363L363.477 144.374L305.227 141.712L356.927 136.336L363.138 117.519L345.13 73.7269L323.704 38.7817Z" fill="#E2E2E2"/>
<path d="M327.016 103.688L324.4 104.737L330.24 119.294L332.856 118.245L327.016 103.688Z" fill="#E2E2E2"/>
<path d="M333.496 101.107L330.88 102.157L336.719 116.714L339.335 115.665L333.496 101.107Z" fill="#E2E2E2"/>
<path d="M344.793 96.5659L342.177 97.6152L348.016 112.172L350.632 111.123L344.793 96.5659Z" fill="#E2E2E2"/>
<path d="M328.573 103.079L327.604 103.467L333.444 118.024L334.413 117.636L328.573 103.079Z" fill="#E2E2E2"/>
<path d="M348.038 95.2554L347.069 95.644L352.909 110.201L353.878 109.813L348.038 95.2554Z" fill="#E2E2E2"/>
<path d="M330.089 102.478L329.12 102.866L334.96 117.423L335.928 117.035L330.089 102.478Z" fill="#E2E2E2"/>
<path d="M334.995 100.502L334.026 100.891L339.866 115.448L340.835 115.06L334.995 100.502Z" fill="#E2E2E2"/>
<path d="M346.532 95.8804L345.563 96.269L351.403 110.826L352.372 110.438L346.532 95.8804Z" fill="#E2E2E2"/>
<path d="M339.452 98.6992L338.483 99.0879L344.323 113.645L345.292 113.256L339.452 98.6992Z" fill="#E2E2E2"/>
<path d="M337.993 99.2959L337.024 99.6846L342.864 114.242L343.833 113.853L337.993 99.2959Z" fill="#E2E2E2"/>
<path d="M336.21 100.002L335.75 100.187L341.589 114.744L342.05 114.56L336.21 100.002Z" fill="#E2E2E2"/>
<path d="M348.845 94.9414L348.385 95.126L354.224 109.683L354.684 109.499L348.845 94.9414Z" fill="#E2E2E2"/>
<path d="M340.595 98.247L340.135 98.4316L345.974 112.989L346.434 112.804L340.595 98.247Z" fill="#E2E2E2"/>
<path d="M341.517 97.876L341.274 97.9731L347.114 112.53L347.356 112.433L341.517 97.876Z" fill="#E2E2E2"/>
<path d="M354.839 109.832L330.375 119.645L330.569 120.129L355.033 110.316L354.839 109.832Z" fill="#FF00CF"/>
<path d="M248.132 63.28L239.078 59.564L235.362 68.6177L244.416 72.3337L248.132 63.28Z" fill="#E2E2E2"/>
<path d="M234.816 68.8728L225.763 65.1567L222.047 74.2105L231.1 77.9265L234.816 68.8728Z" fill="#E2E2E2"/>
<path d="M221.455 74.3811L212.401 70.665L208.685 79.7188L217.739 83.4348L221.455 74.3811Z" fill="#E2E2E2"/>
<path d="M383.52 205.313L388.739 190.933L381.928 177.753L383.859 107.55L373.681 83.6441L354.395 70.4907L376.369 112.822V158.128L368.383 157.893C368.383 157.919 362.589 179.893 383.52 205.313Z" fill="white"/>
<path d="M384.225 205.574L382.946 205.783C376.917 198.449 369.323 186.679 367.365 172.169C366.191 163.452 367.6 157.945 367.652 157.71L368.383 157.162L375.612 157.371V113.004L353.742 70.8302L354.812 69.8906L374.099 83.044L374.36 83.3572L384.538 107.263L384.59 107.576L382.659 177.571L389.392 190.594L389.418 191.194L384.225 205.574ZM368.983 158.676C368.67 160.268 367.913 165.174 368.853 172.064C369.897 179.659 373.237 191.246 383.285 203.825L387.957 190.985L381.302 178.093L381.223 177.727L383.155 107.681L373.133 84.114L356.456 72.7353L377.074 112.456L377.152 112.796V158.154L376.395 158.885L368.983 158.676Z" fill="black"/>
<path d="M382.894 205.939L382.841 205.887C376.813 198.554 369.192 186.757 367.235 172.221C366.061 163.478 367.47 157.945 367.548 157.71V157.658L368.357 157.058L375.482 157.267V113.057L353.56 70.83L354.786 69.7339L374.177 82.9656L374.464 83.3309L384.642 107.237L384.694 107.576V107.602L382.763 177.571L389.47 190.594L389.523 191.246V191.272L384.277 205.73L382.894 205.939ZM367.783 157.815C367.626 158.389 366.374 163.765 367.496 172.168C369.427 186.601 376.996 198.345 382.998 205.652L384.12 205.469L389.314 191.194L389.288 190.646L382.554 177.623V177.597L384.486 107.602L384.433 107.315L374.255 83.4353L374.02 83.1482L354.838 70.0732L353.925 70.8822L375.769 112.978V157.527L368.462 157.319L367.783 157.815ZM383.311 204.112L383.155 203.93C373.081 191.298 369.74 179.632 368.696 172.09C367.757 165.279 368.488 160.424 368.827 158.65L368.853 158.545L376.265 158.754L376.943 158.102V112.848L376.865 112.535L356.013 72.3698L373.159 84.0617L373.185 84.0878L383.233 107.68V107.706L381.302 177.727L381.38 178.067L388.061 191.011L388.035 191.063L383.311 204.112ZM369.088 158.806C368.722 160.633 368.07 165.383 368.983 172.038C370.001 179.528 373.316 191.037 383.233 203.564L387.8 190.985L381.145 178.093L381.067 177.727V177.701L382.998 107.706L373.003 84.2183L356.796 73.1527L377.178 112.43L377.257 112.822V158.206L376.421 159.015L369.088 158.806Z" fill="black"/>
<path d="M370.314 83.4092L379.684 111.699L379.971 178.849L382.059 108.15L372.115 84.7924L370.314 83.4092Z" fill="#E2E2E2"/>
<path d="M341.853 134.505C343.49 134.361 344.746 133.43 344.658 132.425C344.569 131.42 343.171 130.722 341.534 130.865C339.897 131.009 338.642 131.94 338.73 132.945C338.818 133.95 340.216 134.648 341.853 134.505Z" fill="#C6C6C6"/>
<path d="M341.799 133.984C343.435 133.84 344.691 132.909 344.603 131.904C344.515 130.899 343.116 130.2 341.479 130.344C339.843 130.487 338.587 131.418 338.675 132.423C338.763 133.429 340.162 134.127 341.799 133.984Z" fill="#E2E2E2"/>
<path d="M339.476 130.095C341.113 129.951 342.369 129.02 342.281 128.015C342.193 127.01 340.794 126.311 339.157 126.455C337.52 126.599 336.265 127.53 336.353 128.535C336.441 129.54 337.839 130.238 339.476 130.095Z" fill="#C6C6C6"/>
<path d="M339.452 129.676C341.089 129.532 342.344 128.601 342.256 127.596C342.168 126.591 340.77 125.893 339.133 126.036C337.496 126.18 336.24 127.111 336.329 128.116C336.417 129.121 337.815 129.819 339.452 129.676Z" fill="#E2E2E2"/>
<path d="M388.035 157.71C386.182 158.728 384.094 159.119 381.954 158.754C376.265 157.815 371.776 151.89 369.975 142.939C366.53 125.871 356.926 120.103 349.775 120.338C344.895 120.494 341.241 123.365 340.693 127.437C340.589 128.246 339.806 128.48 338.997 128.376C338.188 128.272 337.666 127.854 337.77 127.045C338.501 121.564 343.407 117.571 349.697 117.363C358.022 117.076 369.088 123.47 372.898 142.338C374.464 150.063 378.039 155.1 382.476 155.831C385.399 156.301 388.165 154.813 389.914 151.786C392.863 146.723 392.811 137.406 384.512 125.845L384.642 121.147C389.783 127.489 392.993 133.752 394.168 139.755C395.16 144.896 394.585 149.698 392.498 153.274C391.323 155.257 389.783 156.771 388.035 157.71Z" fill="#FF00CF"/>
<path d="M390.775 163.896C389.183 164.757 387.33 165.07 385.373 164.757C382.554 164.287 379.866 162.538 377.622 159.72C375.168 156.614 373.394 152.439 372.35 147.323C369.009 130.855 359.588 123.835 351.732 124.2C346.93 124.435 343.512 127.384 343.042 131.769C342.964 132.578 342.233 132.891 341.424 132.813C340.615 132.735 340.015 132.265 340.093 131.456C340.719 125.636 345.339 121.539 351.576 121.251C360.684 120.834 371.541 128.533 375.221 146.723C377.282 156.901 382.032 161.207 385.816 161.834C388.217 162.225 390.305 161.207 391.584 159.015C392.993 156.614 393.202 153.065 392.237 149.072C391.01 144.087 388.922 139.703 384.251 133.935L384.329 129.603C389.34 135.788 393.75 142.887 395.107 148.367C396.282 153.117 395.942 157.423 394.142 160.503C393.307 162.016 392.132 163.165 390.775 163.896Z" fill="#0055FF"/>
<path d="M311.36 37.6592L316.188 74.2485L253.553 137.145L336.831 78.7635L311.36 37.6592Z" fill="#E2E2E2"/>
</svg>
