<svg width="605" height="289" viewBox="0 0 605 289" fill="none" xmlns="http://www.w3.org/2000/svg">
<path opacity="0.23" d="M588.4 0.600098H566.4C565.3 2.1001 563.2 2.4001 561.7 3.1001C556.1 6.0001 550.2 7.9001 545.1 12.4001C536.4 19.6001 527.4 23.6001 518 29.3001C488.7 47.2001 478 78.1001 465.7 109C463.7 113.8 458 116.4 452.1 116.6C448.3 116.5 444.7 114.1 444.1 110.1C443.4 105.2 441 101.6 438.1 98.4001C435.3 95.2001 432 92.3001 429.4 88.7001C423.8 80.7001 425.5 70.7001 423.1 61.7001C421.3 54.3001 417.8 48.1001 409.2 45.9001C404.5 45.3001 399.9 48.0001 395.7 45.7001C389.2 41.5001 388.9 30.7001 380.1 29.9001C373.7 30.5001 370.1 36.3001 366.2 35.8001C362.3 35.4001 356.9 29.0001 356.9 29.0001C356.9 29.0001 361.2 28.4001 366.9 22.6001C372.6 16.8001 368.4 14.3001 372.5 13.2001C376.6 12.1001 378.5 14.5001 380.1 8.7001C380.7 6.2001 382.1 3.0001 384.2 0.600098H376.1C375.9 1.0001 375.5 1.3001 375 1.6001C369.6 4.6001 364.7 0.900098 360.6 2.9001C356.5 4.8001 355.4 6.4001 350.5 5.6001C345.6 4.7001 342.2 4.1001 338 8.1001C333.9 12.1001 335.7 17.1001 328.7 16.4001C323.9 15.9001 321.6 6.8001 317.9 0.700098H301.4C299.9 2.7001 299 4.3001 298.2 3.3001C297.9 2.9001 297.3 2.1001 296.4 0.700098H286C282.6 5.5001 276.8 11.2001 259.8 5.0001C260.2 7.9001 290.2 33.5001 291.8 15.6001C291.9 23.0001 294 44.2001 313.6 34.0001C319.5 30.8001 324.1 27.4001 327.6 33.8001C331 40.2001 329.5 42.8001 326.6 42.8001C323.7 42.8001 321.2 43.0001 323.7 47.7001C326.2 52.4001 333.6 55.1001 336.4 53.5001C336.4 53.5001 338.8 61.4001 350.3 58.2001C356.2 56.5001 357 54.7001 356.3 53.3001C356.2 53.2001 356.2 53.1001 356.1 53.0001C356 52.9001 356 52.8001 355.9 52.7001C355.8 52.6001 355.7 52.5001 355.6 52.3001C355.6 52.3001 355.6 52.3001 355.7 52.4001C356.2 52.7001 356.8 53.0001 357.5 53.2001C358 53.4001 358.6 53.6001 359.2 53.7001C359.6 53.8001 360 53.8001 360.5 53.9001C360.8 53.9001 361.1 53.9001 361.5 53.9001C362.4 53.8001 363.4 53.6001 364.4 53.1001C369.6 50.4001 369.1 42.9001 375.7 44.8001C382.2 46.7001 379.9 49.4001 384 51.2001C388.1 53.0001 394.2 50.2001 396.9 50.6001C396.9 50.6001 400.8 56.7001 405.5 59.1001C405.5 59.1001 409.2 66.7001 412.6 75.4001C417 84.6001 418.2 94.1001 419.2 104.6C419.6 107.8 425.3 104.8 425.2 105.8C425.3 111.7 426.3 117.1 428 122.1C429.7 127.1 432 131.6 434.9 135.8C446.8 152.8 465.9 161.8 480.9 175.1C481.5 175.7 482.1 176.2 482.6 176.7C494.5 180.6 505.8 168.4 514.4 159.8C516.1 158.4 518.5 158.2 520.6 158C521.7 157.5 523.2 157.1 524.1 156C527.7 149.8 532.8 143.6 540.3 143.8C547 143.9 552.1 147.2 556.7 151.4C570.1 165.1 583.4 182.4 604.1 184.1V18.4001C604 9.3001 597.2 1.8001 588.4 0.600098ZM513.2 75.9001C511.8 88.0001 500.8 95.1001 491.8 102.2C491.4 102.5 492.3 103.3 491.8 103.8C492.5 113 486.9 109.5 482.9 106.6C481.1 107.2 478.4 106.7 478 105.3C474.6 95.0001 480.1 84.7001 484.7 75.3001C488 68.0001 495 63.6001 502.9 62.1001C502.6 63.4001 501.3 63.5001 500.4 64.3001C507.4 62.3001 514 68.8001 513.2 75.9001ZM536.9 43.8001C535.2 50.7001 532.2 60.4001 523.9 59.8001C519.3 60.2001 515.4 59.0001 512.6 58.2001C512.4 58.1001 511.7 58.0001 511.4 57.9001C510.1 52.5001 511.9 47.0001 514.5 42.4001C535.9 19.7001 538.1 37.5001 536.9 43.8001Z" fill="#7000FF"/>
<path opacity="0.23" d="M5.49963 174.6C16.2996 188.5 24.8996 202.9 34.5996 217.4C39.0996 223.6 45.6996 228.6 53.4996 229.9C60.0996 231.4 67.0996 231.8 73.9996 232.7C78.4996 233.2 83.0996 234.4 87.0996 237.1C92.9996 240.3 95.0996 245.3 95.1996 250.9C95.2996 256.5 93.3996 262.7 91.6996 268.2C88.4996 278 98.1996 288.8 108.8 288.5C130.1 287.1 142.4 269 155.1 254.8C159.3 250.5 164 247.2 170.4 246.7C177.6 246.2 182.7 251.9 186.4 257.6C187.3 258.7 188.7 259 189.8 259.4C191.8 259.6 194.2 259.6 195.8 260.9C204.4 268.7 215.8 279.8 227 275.5C227.5 275 228 274.5 228.6 273.9C242.3 260.4 260.2 250.9 270.7 234.2C273.2 230 275.2 225.6 276.6 220.8C278 216 278.7 210.8 278.5 205.1C278.3 204.2 283.9 206.7 284.1 203.7C284.5 193.6 285.2 184.5 289 175.5C291.9 167 295 159.6 295 159.6C299.4 157.1 302.8 151 302.8 151C305.4 150.6 311.3 152.9 315.2 151C319.1 149.1 316.7 146.7 322.8 144.5C328.9 142.3 328.8 149.6 333.9 151.9C334.9 152.3 335.8 152.5 336.7 152.5C337 152.5 337.3 152.5 337.6 152.5C338 152.4 338.4 152.4 338.8 152.3C339.4 152.2 339.9 152 340.4 151.7C341 151.4 341.6 151.1 342 150.8C342 150.8 342 150.8 342.1 150.7C342 150.8 341.9 150.9 341.8 151.1C341.7 151.2 341.7 151.3 341.6 151.4C341.5 151.5 341.5 151.6 341.5 151.7C340.9 153.1 341.7 154.8 347.5 156.1C358.7 158.7 360.6 151 360.6 151C363.3 152.5 370.3 149.5 372.4 144.9C374.5 140.3 372.1 140.2 369.4 140.4C366.7 140.5 365.1 138.1 368.1 131.9C371.1 125.7 375.7 128.6 381.4 131.5C400.6 140.3 401.6 120 401.3 113C403.7 130 431.1 104.2 431.3 101.4C405.6 112.2 406.2 92 400.5 93.9C399.7 94.2 398.9 94.6 398.2 95.2C397.8 96.1 397.4 96.9 397 97.6C395.9 99.7 395 101.1 394.7 101.5C393.1 103.9 390.1 92.9 381.8 94.5C373.5 96 372.9 114.4 366.2 115.4C359.5 116.4 361 111.5 356.9 107.9C352.8 104.3 349.6 105.1 344.9 106.1C340.2 107.1 339.1 105.7 335.1 104C331.1 102.3 326.6 106.1 321.3 103.5C319.5 102.8 319.9 101.2 319.1 100C315.5 94.3 308.4 92.2 302.1 90.3C297.7 88.9 296.8 83.5 293.6 81.2C290.1 78.6 286.7 78 283.3 78.7C279.9 79.3 276.5 81.2 273.1 83.4C268 86.8 263 91 257 92.6C253.3 93.5 249.5 94.5 245.8 95.5C241.7 97.2 236.6 98.5 231.4 99.8C224.4 101.2 217 103.3 210.7 107C204 111.2 199.6 117.3 195.2 123.7C194.3 125.3 191.2 122.4 188.7 121.7C186.5 120.9 181.9 122.4 183.3 124C188.1 129.7 194.8 133.1 202.1 134.4C209.4 135.7 217.2 134.8 224.2 132.2C228.9 130.5 233.5 127.9 237.6 124.4C238.5 123.9 240.7 124.9 242.8 125.1C243.1 125 244.5 125.3 243.9 124.2C239.7 115.6 249.3 111.5 255.6 109.5C260.7 107.5 266.2 106.4 271.7 106.2C277.5 105.8 279.1 111.5 282.2 115.4C282.6 115.7 283.2 115.9 283.9 116.2C290.6 118 296.2 112.8 301.5 108.9C304.2 107 301.2 103.4 302.9 101.6C308.8 96.4 315.3 105 316.8 110.5C318.6 116 320.3 113.6 324.3 114.4C328.3 115.3 324.4 117.9 330.1 123.2C335.8 128.4 340 128.8 340 128.8C340 128.8 335.1 135.1 331.4 135.7C327.7 136.3 323.9 130.9 317.8 130.7C309.4 131.9 309.6 142.3 303.6 146.5C299.7 148.9 295.2 146.5 290.7 147.4C282.6 149.8 279.6 156 278.2 163.1C276.4 171.8 278.4 181.2 273.4 189.1C271.1 192.7 268.1 195.6 265.6 198.8C263 202 260.9 205.5 260.5 210.3C260.1 214.1 256.8 216.6 253.2 216.8C247.6 216.9 242 214.6 239.9 210.2C226.6 181.3 215 152.3 186.1 136.7C176.9 131.7 168 128.3 159.4 121.8C154.4 117.7 148.7 116.2 143.2 113.7C141.6 113.1 139.4 112.9 138.4 111.2C129.8 97 103.7 95.6 102 94.4C122.6 91.6 140.8 108.2 142.6 109.1C142 108.3 141.4 107.4 140.8 106.6C138.3 103.4 135.5 100.3 132.4 97.6C131.6 96.9 130.8 96.3 130.1 95.5C125.4 81.3 109.5 83.1 97.2996 83.1C96.3996 83.1 95.4996 83.1 94.5996 83.2C89.1996 83.5 83.8996 84.9 78.8996 87.6C74.3996 89.9 70.1996 93.3 66.2996 97.7C62.7996 101.4 60.0996 105.6 57.3996 109.9C53.8996 115.8 51.4996 123.4 45.1996 126.3C24.9996 135.8 -13.3004 150.1 5.49963 174.6ZM343.1 150.1L343.4 149.9C343.6 149.8 343.7 149.7 343.8 149.6H343.9C343.9 149.6 343.9 149.6 343.8 149.6C343.8 149.7 343.7 149.7 343.6 149.8C343.5 149.9 343.4 150 343.3 150.1C343.1 150.3 342.9 150.4 342.6 150.6C342.5 150.7 342.4 150.7 342.3 150.8C342.6 150.5 342.9 150.3 343.1 150.1ZM204.6 169.3C203.7 168.5 202.4 168.5 202.1 167.3C209.7 168.4 216.6 172.3 220 179.1C224.9 187.8 230.6 197.4 227.8 207.4C227.5 208.8 225 209.4 223.2 208.9C219.5 211.8 214.4 215.4 214.6 206.6C214.2 206.2 215 205.3 214.6 205.1C205.7 198.7 194.8 192.5 192.9 181C191.9 174.1 197.9 167.6 204.6 169.3ZM190.2 149C192.9 153.3 194.9 158.4 193.9 163.7C193.6 163.8 193 163.9 192.8 164C190.1 164.9 186.5 166.2 182.1 166C174.2 167 170.9 157.8 168.9 151.4C167.3 145.4 168.6 128.3 190.2 149Z" fill="#7000FF"/>
</svg>
