<svg width="25" height="25" viewBox="0 0 25 25" fill="none" xmlns="http://www.w3.org/2000/svg">
<path d="M20.053 0H5.01284C2.13551 0 0.0478516 2.07858 0.0478516 4.95591V19.987C0.0478516 22.8644 2.12643 24.952 5.00376 24.952H20.0349C22.9122 24.952 24.9999 22.8644 24.9999 19.9961V4.96499C25.0089 2.07858 22.9304 0 20.053 0ZM12.5647 18.2806C9.35153 18.2988 6.73742 15.6846 6.73742 12.4715C6.73742 9.27645 9.34245 6.66234 12.5375 6.66234C15.7325 6.66234 18.3466 9.2583 18.3557 12.4533C18.3557 15.6574 15.7506 18.2715 12.5647 18.2806ZM19.2634 7.67894C18.2014 7.68802 17.33 6.81665 17.33 5.74559C17.3391 4.69269 18.2014 3.83947 19.2543 3.83947C20.3072 3.83947 21.1695 4.70176 21.1695 5.75467C21.1695 6.80757 20.3163 7.66987 19.2634 7.67894Z" fill="white"/>
</svg>
