<svg width="33" height="33" viewBox="0 0 33 33" fill="none" xmlns="http://www.w3.org/2000/svg">
<path d="M25.8884 0H6.42511C2.7016 0 0 2.68985 0 6.41337V25.8649C0 29.5884 2.68985 32.29 6.41337 32.29H25.8649C29.5884 32.29 32.29 29.5884 32.29 25.8766V6.42511C32.3018 2.68985 29.6119 0 25.8884 0ZM16.1979 23.6566C12.0397 23.6801 8.65687 20.2972 8.65687 16.1391C8.65687 12.0045 12.028 8.62163 16.1626 8.62163C20.2972 8.62163 23.6801 11.981 23.6919 16.1156C23.6919 20.262 20.3207 23.6449 16.1979 23.6566ZM24.8665 9.93719C23.4922 9.94894 22.3646 8.82131 22.3646 7.43528C22.3763 6.07273 23.4922 4.9686 24.8547 4.9686C26.2173 4.9686 27.3332 6.08448 27.3332 7.44702C27.3332 8.80957 26.229 9.92545 24.8665 9.93719Z" fill="#0055FF"/>
</svg>
