<?xml version="1.0" encoding="utf-8"?>
<!-- Generator: Adobe Illustrator 25.2.3, SVG Export Plug-In . SVG Version: 6.00 Build 0)  -->
<svg version="1.1" id="Слой_1" xmlns="http://www.w3.org/2000/svg" xmlns:xlink="http://www.w3.org/1999/xlink" x="0px" y="0px"
	 viewBox="0 0 400 400" style="enable-background:new 0 0 400 400;" xml:space="preserve">
<style type="text/css">
	.st0{fill:#FFFFFF;}
</style>
<g>
	<path class="st0" d="M283.2,62.9c-27.5,0-55,0-82.5,0c-27.7,0-55.4,0-83.2,0c-31.7,0-54.7,22.9-54.7,54.6c0,55.2,0,110.4,0,165.6
		c0,31.7,22.9,54.7,54.6,54.7c55.2,0,110.4,0,165.6,0c31.7,0,54.7-23,54.7-54.6c0-55.2,0-110.4,0-165.6
		C337.8,85.8,314.9,62.9,283.2,62.9z M316.7,283c0,20.3-13.4,33.7-33.8,33.7H117.9c-20.6,0-33.9-13.4-33.9-34V118
		c0-20.8,13.3-34,34.2-34h164.2c21.1,0,34.2,13.2,34.2,34.4c0,27.4,0,54.8,0,82.1C316.7,228,316.7,255.5,316.7,283z"/>
	<path class="st0" d="M295.5,126.3c0,11.6-9.4,21.1-21,21.2c-11.7,0.1-21.3-9.5-21.3-21.3c0.1-11.6,9.6-21,21.2-21
		C286,105.2,295.5,114.7,295.5,126.3z"/>
	<path class="st0" d="M200.3,126.3c-40.7,0-73.9,33.3-73.9,74c0,40.9,33.4,74.2,74.3,74c40.7-0.1,73.8-33.4,73.7-74.2
		C274.3,159.4,241,126.3,200.3,126.3z M200.3,253.2c-29.1,0-52.8-23.8-52.8-53c0-29.1,23.8-52.8,52.9-52.8c29.1,0,52.8,23.8,52.8,53
		C253.2,229.5,229.4,253.2,200.3,253.2z"/>
</g>
</svg>
