<svg width="229" height="94" viewBox="0 0 229 94" fill="none" xmlns="http://www.w3.org/2000/svg">
<path d="M11.3548 92.8778L0 54.3721H7.75659L15.3193 82.644H15.6856L23.2698 54.3721H31.0264L38.5675 82.5365H38.9553L46.4749 54.3721H54.2315L42.9198 92.8778H35.2494L27.4066 65.0789H26.8249L19.0037 92.8778H11.3548Z" fill="white"/>
<path d="M64.9397 93.7167C62.4834 93.7167 60.2857 93.2652 58.3035 92.3407C56.3213 91.4377 54.7699 90.1047 53.628 88.3633C52.486 86.6218 51.9043 84.4934 51.9043 81.9779C51.9043 79.8064 52.3137 78.022 53.154 76.603C53.9943 75.2055 55.1147 74.0876 56.5367 73.2706C57.9588 72.4536 59.5532 71.8301 61.3199 71.4216C63.0867 71.0131 64.8751 70.6906 66.7065 70.4756C69.0119 70.2176 70.8864 69.9811 72.33 69.8091C73.7736 69.6371 74.8078 69.3361 75.4757 68.9492C76.1221 68.5407 76.4453 67.8957 76.4453 66.9927V66.8207C76.4453 64.6277 75.8205 62.9293 74.5923 61.7253C73.3642 60.5213 71.5328 59.9193 69.0981 59.9193C66.5772 59.9193 64.5734 60.4783 63.1298 61.5963C61.6862 62.7143 60.6736 63.9398 60.1349 65.2942L53.0678 63.6818C53.9081 61.3383 55.1362 59.4463 56.7522 58.0059C58.3681 56.5654 60.2211 55.5119 62.3326 54.8454C64.4441 54.1789 66.6634 53.8564 68.9904 53.8564C70.5417 53.8564 72.1792 54.0284 73.9029 54.3939C75.6266 54.7594 77.2641 55.4044 78.7723 56.3719C80.2805 57.3179 81.5302 58.6724 82.4998 60.4568C83.4693 62.2198 83.9649 64.4987 83.9649 67.3152V92.8782H76.6177V87.6108H76.316C75.8205 88.5783 75.1094 89.5243 74.1399 90.4702C73.1703 91.4162 71.9206 92.1902 70.3909 92.7922C68.9042 93.4157 67.0728 93.7167 64.9397 93.7167ZM66.5772 87.7183C68.6456 87.7183 70.4339 87.3098 71.9206 86.4928C73.4073 85.6758 74.5277 84.6008 75.3034 83.2679C76.079 81.9349 76.4669 80.5159 76.4669 78.9895V74.0231C76.2083 74.281 75.6912 74.539 74.9155 74.754C74.1614 74.9905 73.278 75.1625 72.3085 75.3345C71.3389 75.485 70.3909 75.6355 69.4644 75.7645C68.5379 75.8935 67.7622 76.001 67.1589 76.087C65.6938 76.2805 64.3795 76.5815 63.1729 77.0115C61.9663 77.4415 61.0183 78.065 60.3073 78.882C59.5963 79.6989 59.23 80.7739 59.23 82.1069C59.23 83.9559 59.9194 85.3533 61.2984 86.2993C62.6989 87.2453 64.4441 87.7183 66.5772 87.7183Z" fill="white"/>
<path d="M117.965 54.3721L103.96 92.8778H95.923L81.8965 54.3721H89.9547L99.7367 83.9985H100.146L109.885 54.3721H117.965Z" fill="white"/>
<path d="M132.659 93.6522C128.867 93.6522 125.592 92.8352 122.856 91.2012C120.119 89.5673 118.008 87.2668 116.521 84.2999C115.034 81.3329 114.302 77.85 114.302 73.8511C114.302 69.9167 115.034 66.4337 116.521 63.4238C118.008 60.4138 120.076 58.0704 122.748 56.3719C125.42 54.6734 128.544 53.835 132.142 53.835C134.318 53.835 136.43 54.2005 138.476 54.9099C140.523 55.6194 142.355 56.7589 143.971 58.2854C145.587 59.8333 146.879 61.8113 147.806 64.2623C148.754 66.7132 149.206 69.6802 149.206 73.1846V75.8505H118.525V70.2391H141.838C141.838 68.2612 141.428 66.5197 140.631 64.9932C139.834 63.4668 138.692 62.2628 137.248 61.3813C135.805 60.4998 134.103 60.0483 132.163 60.0483C130.052 60.0483 128.221 60.5643 126.648 61.5963C125.075 62.6283 123.868 63.9613 123.028 65.6167C122.188 67.2722 121.757 69.0567 121.757 70.9701V75.356C121.757 77.936 122.209 80.129 123.136 81.9349C124.041 83.7409 125.333 85.1169 126.971 86.0628C128.608 87.0088 130.526 87.4818 132.724 87.4818C134.146 87.4818 135.438 87.2668 136.623 86.8583C137.787 86.4498 138.8 85.8263 139.662 85.0094C140.523 84.1924 141.17 83.1819 141.622 81.9779L148.732 83.2464C148.172 85.3319 147.138 87.1593 145.673 88.7288C144.208 90.2983 142.376 91.5022 140.179 92.3622C137.981 93.2222 135.46 93.6522 132.659 93.6522Z" fill="white"/>
<path d="M178.854 63.7678L172.046 64.9717C171.766 64.1117 171.313 63.2733 170.71 62.4993C170.107 61.7038 169.266 61.0803 168.232 60.5643C167.198 60.0698 165.905 59.8118 164.332 59.8118C162.199 59.8118 160.432 60.2848 159.01 61.2308C157.588 62.1768 156.877 63.3808 156.877 64.8857C156.877 66.1757 157.351 67.2077 158.299 68.0032C159.247 68.7987 160.799 69.4221 162.932 69.9381L169.072 71.3356C172.628 72.1526 175.278 73.4211 177.001 75.1195C178.747 76.818 179.608 79.0325 179.608 81.7629C179.608 84.0634 178.941 86.1273 177.605 87.9118C176.269 89.7177 174.416 91.1152 172.046 92.1257C169.676 93.1362 166.939 93.6522 163.815 93.6522C159.484 93.6522 155.972 92.7277 153.236 90.8787C150.5 89.0298 148.841 86.4068 148.216 82.9884L155.477 81.8919C155.929 83.7839 156.856 85.2028 158.256 86.1703C159.657 87.1378 161.488 87.6108 163.751 87.6108C166.207 87.6108 168.189 87.0948 169.654 86.0628C171.119 85.0308 171.873 83.7839 171.873 82.2789C171.873 81.0749 171.421 80.0644 170.538 79.2475C169.633 78.4305 168.275 77.807 166.422 77.3985L159.894 75.9795C156.296 75.1625 153.624 73.8511 151.922 72.0666C150.198 70.2821 149.336 68.0247 149.336 65.2727C149.336 62.9938 149.983 61.0158 151.254 59.2958C152.525 57.5974 154.292 56.2644 156.533 55.2969C158.773 54.3294 161.359 53.8564 164.246 53.8564C168.426 53.8564 171.701 54.7594 174.093 56.5439C176.506 58.3499 178.079 60.7578 178.854 63.7678Z" fill="white"/>
<path d="M155.821 17.9523C156.037 18.1243 156.295 18.2748 156.575 18.4468C156.511 18.4683 156.554 18.5328 156.489 18.5543C156.662 18.4898 156.791 18.4898 156.877 18.3823C158.536 17.2643 160.367 16.6838 162.328 16.3828C163.082 16.2538 163.858 16.3398 164.612 16.4043C165.711 16.5978 166.293 17.3503 166.465 18.3608C166.659 19.6078 166.81 20.8977 166.961 22.1662C167.025 23.0692 166.961 24.0367 166.874 24.9396C166.788 25.8426 166.659 26.7671 166.379 27.6916C166.034 28.9171 165.711 30.1855 165.215 31.411C164.634 32.7225 163.858 34.0125 162.867 35.1734C161.854 36.2699 160.777 37.3449 160.195 38.8069C159.893 39.6669 159.484 40.5913 159.29 41.5373C159.182 42.0533 159.312 42.6768 159.355 43.2573C159.398 43.5153 159.484 43.7303 159.484 44.0098C159.247 46.5897 159.915 49.0622 160.217 51.5991C160.389 53.4051 160.54 55.1466 160.648 56.974C160.734 59.0165 160.734 61.0804 160.755 63.1659C160.755 63.9614 160.712 64.7999 160.648 65.5524C160.518 66.3478 160.13 66.9928 159.312 67.2723C158.622 67.5733 158.17 67.2938 157.933 66.5843L157.76 65.7244C157.523 64.4129 157.222 63.0799 156.985 61.7684C156.748 59.984 156.597 58.2425 156.381 56.458C155.951 53.5556 156.08 50.6316 155.886 47.6862C155.821 46.4392 155.606 45.1923 155.433 43.8593C155.261 44.0743 155.132 44.2463 155.002 44.4398C154.442 45.1493 153.839 45.9447 153.279 46.6542L153.15 46.8477C152.762 47.2132 152.094 47.3637 151.814 47.1487C151.512 46.9337 151.275 46.0522 151.426 45.6437L151.749 44.9773C152.439 43.9453 152.977 42.8488 153.774 41.9028C154.55 41.0428 154.485 40.2688 154.227 39.2369C153.925 38.0974 153.968 36.9364 153.882 35.7754C153.861 35.5819 153.796 35.4099 153.839 35.1949L153.731 32.615C153.753 31.7335 153.774 30.852 153.71 29.9491C153.667 28.6161 153.559 27.2616 153.451 25.9071C153.473 25.8211 153.43 25.7136 153.343 25.4771C152.805 25.7781 152.245 26.0146 151.792 26.4016C150.435 27.4551 148.948 28.2291 147.44 28.9386C147.009 29.1966 146.6 29.4976 146.169 29.7556C145.845 29.949 145.501 30.25 145.199 29.9705C144.854 29.6481 145.027 29.2396 145.199 28.8956C145.221 28.8096 145.221 28.8096 145.221 28.8096L147.849 25.4126C148.065 25.1116 148.409 24.9826 148.625 24.7462C149.616 23.7787 150.65 22.8757 151.641 21.9082C151.9 21.7362 152.115 21.4352 152.331 21.3492C152.848 21.1342 153.042 20.8332 153.02 20.3172C152.977 19.4573 153.688 19.2208 154.27 18.8338C154.701 18.5758 155.132 18.3393 155.563 18.0813L155.821 17.9523ZM158.364 35.3669C158.816 34.851 159.29 34.2275 159.7 33.647C160.841 32.0775 162.091 30.6155 163.125 28.9601C163.858 27.8421 164.418 26.6596 164.332 25.2191C164.31 24.5527 164.181 23.9507 164.116 23.3057C163.987 22.5532 163.923 21.7792 163.75 21.0482C163.513 20.0162 162.608 19.6508 161.617 20.0162C160.174 20.5752 158.967 21.4997 157.782 22.3382C157.437 22.6177 157.243 22.9617 157.373 23.3917L157.48 25.0256C157.523 25.6061 157.653 26.2296 157.631 26.7671C157.502 29.6481 157.782 32.4645 158.364 35.3669Z" fill="#FF00CF"/>
<path d="M173.942 57.7051C174.416 57.5761 174.502 57.2752 174.567 56.8237C175.299 53.2332 175.278 49.6213 174.911 45.9449C174.847 45.0419 174.997 44.0959 174.954 43.1069C174.911 42.3974 175.019 41.5375 174.847 40.8065C174.437 38.764 174.416 36.7001 174.33 34.5931C174.33 33.7976 174.179 32.9806 174.093 32.1421C173.963 30.9167 173.791 29.7342 173.662 28.5087C173.683 28.2292 173.748 27.7992 174.006 27.6272C174.416 27.1757 174.933 26.8317 175.428 26.5523C175.859 26.2943 176.247 26.4018 176.57 26.7243L178.316 28.9172C178.488 29.1752 178.531 29.5622 178.617 29.9277C178.854 31.4327 179.07 33.0236 179.35 34.5716C179.544 35.6251 179.845 36.6356 179.975 37.732C180.147 39.667 180.255 41.645 180.276 43.5584C180.276 44.5044 180.082 45.4504 179.996 46.3534C179.695 48.7613 179.716 51.1693 179.738 53.5557C179.781 54.8887 179.716 56.3077 179.608 57.6406C179.479 58.9091 179.371 60.2206 179.091 61.4246C178.811 62.4781 178.38 63.5315 177.863 64.499C177.303 65.402 176.269 65.789 175.191 65.6385C174.782 65.617 174.437 65.2945 174.071 65.058C173.446 64.5205 172.843 63.9185 172.175 63.467C170.925 62.4566 170.085 61.2741 169.848 59.6401C169.719 58.5651 169.309 57.4686 169.115 56.3937C168.814 55.0607 168.577 53.7492 168.34 52.4377C168.103 51.4058 167.909 50.3523 167.715 49.2773C167.499 48.1593 167.349 47.0199 167.262 45.9234C167.133 45.2999 167.068 44.6764 167.004 44.0959C167.004 43.7734 166.896 43.5369 166.896 43.2144C166.767 41.516 166.616 39.7745 166.616 38.033C166.594 37.517 166.702 36.9796 166.896 36.5066C167.155 35.8616 167.65 35.7756 168.21 36.1411C168.34 36.2916 168.534 36.3991 168.684 36.4636C169.46 36.7216 169.74 37.345 169.977 38.0545C170.15 38.7855 170.537 39.495 170.71 40.226C170.925 40.871 171.141 41.516 171.098 42.2039C171.033 43.4509 171.378 44.5689 171.615 45.7299L171.787 46.5899C172.003 47.5573 172.218 48.5463 172.39 49.5568C172.52 50.7823 172.714 52.0293 172.735 53.2977C172.735 54.3727 172.951 55.3617 173.36 56.3077C173.618 56.7592 173.748 57.2537 173.942 57.7051Z" fill="#FF00CF"/>
<path d="M190.122 39.0652C190.101 38.1837 190.101 37.2807 190.036 36.4207C190.015 35.3887 189.864 34.3352 189.756 33.3248C189.756 33.0668 189.735 32.8088 189.821 32.6153C190.252 31.4328 190.166 30.2503 190.036 29.0464C189.885 27.3264 190.015 25.6924 190.446 23.9939C190.726 22.919 190.812 21.7795 190.963 20.6615C191.027 20.21 191.092 19.7585 191.286 19.307C191.372 19.1135 191.588 18.7695 191.738 18.748C192.126 18.791 192.579 18.748 192.794 19.2425C193.311 20.339 193.678 21.4355 193.678 22.6395C193.634 23.7575 193.742 24.8754 193.764 26.0149C193.785 26.8964 193.742 27.7994 193.721 28.7239C193.721 28.9819 193.699 29.2613 193.699 29.5193C193.785 31.6908 193.915 33.7978 194.044 35.9477C194.065 36.0982 194.065 36.2487 194.044 36.4207C193.807 37.7322 193.915 39.0437 194.108 40.3766C194.259 41.5806 194.604 42.7416 194.324 43.9241C194.281 44.2036 194.41 44.4616 194.432 44.784L194.669 47.5145C194.669 47.622 194.733 47.794 194.841 47.923C195.66 48.998 196.586 50.0084 197.405 51.0834C197.664 51.4489 197.793 51.8574 197.879 52.3089C197.965 52.8894 197.34 53.4914 196.586 53.4914C196.349 53.5344 196.112 53.4914 195.854 53.4914L195.121 53.2764C194.561 54.4159 192.686 54.5879 191.932 53.4484C191.437 52.6529 191.178 51.8359 191.243 50.8469C191.243 50.5889 191.221 50.3309 191.178 50.0944C191.027 48.74 190.661 47.536 189.799 46.418C189.39 45.9665 189.045 45.386 188.657 44.8485C188.485 44.5476 188.291 44.2681 188.162 43.9456L186.675 40.4841C186.503 40.0756 186.266 39.7746 185.964 39.4306C185.921 39.5596 185.878 39.7316 185.899 39.8821C185.835 40.4411 185.727 40.9571 185.727 41.5376C185.706 42.6986 185.662 43.9456 186.007 45.1495C186.244 45.8375 186.201 46.6975 186.223 47.4715C186.244 47.7725 186.18 48.1165 186.201 48.4175C186.266 49.2775 186.373 50.1804 186.481 51.0404C186.589 52.1584 186.826 53.2119 186.977 54.2439C187.084 55.1038 187.343 55.9208 187.106 56.7593C186.955 57.2538 186.654 57.6408 186.136 57.5978C185.102 57.5118 184.327 57.1678 184.025 55.9853C183.486 54.2654 183.098 52.4809 182.905 50.6749C182.775 49.6215 182.517 48.525 182.409 47.4715C182.301 46.3535 182.301 45.257 182.28 44.1176C182.258 43.9241 182.15 43.7091 182.107 43.4511C182.086 43.1501 181.956 42.8276 182 42.5911C182.258 41.3656 182.064 40.1831 181.87 39.0222C181.741 38.1192 182 37.3452 182 36.5067C182.043 35.0232 181.87 33.5183 181.784 32.0778C181.655 30.5513 181.482 29.0463 181.719 27.5199C181.763 27.2404 181.763 27.0254 181.763 26.7674C181.676 25.6924 182.258 25.0904 183.098 24.6174C183.486 24.4024 184.24 24.5529 184.413 25.0044C184.844 25.8644 185.231 26.7674 185.662 27.6704C185.77 27.9284 185.964 28.2294 186.072 28.4874C186.546 29.7128 187.084 30.9383 187.602 32.1423C187.86 32.7228 188.097 33.3033 188.313 33.8838C188.55 34.4212 188.571 34.9802 188.765 35.5392C189.067 36.6142 189.433 37.6677 189.799 38.7857C189.842 38.8717 189.885 38.9577 189.95 39.0437C189.972 39.0867 190.058 39.0437 190.122 39.0652Z" fill="#FF00CF"/>
<path d="M195.854 0C196.651 0 197.061 0.472991 197.427 1.13948C198.159 2.51545 198.698 3.93442 198.698 5.48239C198.72 7.69685 198.849 9.91131 199.323 12.0613C199.625 13.3942 199.689 14.7917 199.862 16.1247C200.055 17.0492 200.206 17.9952 200.443 18.8981C201.24 21.6931 201.628 24.617 201.736 27.5195C201.736 28.315 201.887 29.1319 202.038 30.0779C202.813 29.0674 203.632 28.186 204.386 27.2615C205.701 25.6275 206.929 23.9505 208.243 22.3166C208.997 21.3921 209.665 20.4891 210.699 19.9301C211.022 19.7366 211.41 19.4141 211.82 19.7151C212.186 19.9516 212.143 20.4461 211.97 20.8546C211.777 21.4781 211.41 22.0371 211.13 22.6176L210.591 23.714C210.376 24.015 210.096 24.273 209.88 24.5525C209.794 24.66 209.643 24.789 209.579 24.9395C208.243 26.982 206.907 29.0244 205.593 31.1314L203.093 35.2808C203.761 35.7323 204.365 36.0763 204.903 36.5063C206.584 37.7318 208.264 39.0217 209.967 40.2902L212.983 42.6122C213.608 43.1497 214.276 43.7302 214.858 44.2891C215.375 44.7406 215.849 45.3426 216.646 45.4716C216.711 45.4501 216.84 45.7941 216.775 45.9446C216.711 46.4391 216.323 46.7401 215.763 46.7186C214.19 46.7831 212.875 46.2671 211.712 45.2351C210.828 44.4181 209.665 43.7732 208.695 43.0422C207.316 42.0317 205.657 41.4512 204.192 40.6772C203.675 40.4192 203.266 40.0752 202.706 39.7097C202.706 40.5052 202.727 41.1717 202.749 41.8382L203.05 46.7401C203.137 48.1806 203.33 49.707 203.395 51.1475C203.438 51.4055 203.46 51.599 203.438 51.857C203.374 52.631 203.007 53.0395 202.318 53.147C201.822 53.233 201.456 52.846 201.154 52.1795C200.594 50.739 200.271 49.2125 200.055 47.6216C199.711 45.0846 199.344 42.5692 198.87 40.0322C198.698 38.8282 198.267 37.6888 197.965 36.5278L196.63 31.7334C196.5 31.1099 196.436 30.4864 196.436 29.8844C196.565 27.6915 196.22 25.477 195.703 23.37C195.337 22.0586 195.208 20.6396 194.863 19.2421C194.647 18.1241 194.324 17.0707 194.001 15.9957C193.742 15.2432 193.764 14.4907 193.656 13.6522C193.656 11.7818 193.678 9.95431 193.29 8.10534C193.096 7.18086 192.945 6.23488 192.687 5.2889C192.536 4.62241 192.234 3.93442 192.019 3.28944C191.825 2.83795 191.825 2.51545 192.342 2.14996C192.773 1.89196 193.053 1.44047 193.398 1.03198L195.854 0Z" fill="#FF00CF"/>
<path d="M227.289 12.2334C227.914 12.5774 228.087 13.1579 227.936 13.8889C227.85 14.1254 227.871 14.3834 227.85 14.5984C227.699 15.4798 227.332 16.2323 226.729 16.8128L222.894 20.6827C221.407 22.1877 219.921 23.7572 218.348 25.2406C217.637 25.9501 216.84 26.5521 216.107 27.2186C215.978 27.4121 215.848 27.5411 215.633 27.8206C217.335 27.8851 218.973 28.0571 220.632 28.0141C221.623 27.9926 222.614 27.6271 223.648 27.3906C224.682 27.1541 226.277 27.7346 226.815 28.6376C227.074 29.0676 227.548 29.3901 227.656 29.8201C228.388 32.4645 227.979 34.9155 226.514 37.1514C225.867 38.1619 225.092 38.9789 224.338 39.9034C224.036 40.2904 223.713 40.6343 223.519 40.9783C222.937 41.9673 222.226 42.8058 221.515 43.6443C220.589 44.7838 219.921 46.0092 218.994 47.1487C217.701 48.8472 216.366 50.4167 215.094 52.1151C214.232 53.2331 213.414 54.3081 212.724 55.4906C212.207 56.1785 211.561 56.5225 210.764 56.7375C210.29 56.8665 209.837 56.6085 209.665 56.071C209.234 54.7811 209.234 53.5126 209.923 52.1366C210.893 50.3092 212.272 48.8472 213.586 47.2132C215.137 45.2138 216.646 43.0853 218.197 41.0858C218.714 40.3978 219.382 39.7744 219.942 39.0649C220.265 38.5919 220.589 38.0544 220.912 37.5814L223.109 34.292C223.476 33.733 223.777 33.1955 224.122 32.5935C223.82 32.529 223.67 32.4645 223.497 32.4C221.903 32.142 220.395 32.185 218.8 32.4C217.27 32.5935 215.676 32.8085 214.125 32.9375C213.737 32.9805 213.328 32.9375 212.875 32.873C212.099 32.8085 211.561 32.2925 211.41 31.497C211.281 30.7445 211.13 29.9276 211.13 29.1321C211.13 28.8096 211.324 28.5086 211.453 28.1861C212.207 26.6596 213.091 25.1331 214.254 23.7787C215.999 21.7577 218.111 20.1022 220.071 18.2748C220.718 17.7373 221.278 17.1568 221.903 16.6193C223.066 15.5873 224.338 14.6414 225.566 13.5664C225.803 13.3299 226.018 13.0504 226.212 12.7494L227.289 12.2334Z" fill="#FF00CF"/>
</svg>
