<svg width="242" height="100" viewBox="0 0 242 100" fill="none" xmlns="http://www.w3.org/2000/svg">
<path d="M12.05 99.1176L0 57.9412H8.22927L16.1646 88.2353H16.6055L24.6878 58.0882H32.9171L40.8524 88.0882H41.1463L49.0817 58.0882H57.311L45.261 99.1176H37.1787L28.9494 69.4117H28.3616L20.1323 99.1176H12.05Z" fill="black"/>
<path d="M68.6259 99.9999C65.9808 99.9999 63.7765 99.5587 61.5723 98.5293C59.5149 97.4999 57.8985 96.1764 56.5759 94.2646C55.4003 92.3529 54.8125 90.147 54.8125 87.4999C54.8125 85.147 55.2534 83.2352 56.1351 81.7646C57.0168 80.294 58.1924 79.1176 59.6619 78.2352C61.1314 77.3529 62.8948 76.7646 64.6582 76.3234C66.5686 75.8823 68.479 75.5881 70.3893 75.294C72.8875 74.9999 74.7979 74.7058 76.2674 74.5587C77.7369 74.4117 78.9125 74.1176 79.6473 73.6764C80.382 73.2352 80.6759 72.4999 80.6759 71.6176V71.4705C80.6759 69.1176 80.0881 67.3529 78.7655 66.0293C77.443 64.7058 75.5326 64.1176 73.0345 64.1176C70.3893 64.1176 68.1851 64.7058 66.7156 65.8823C65.246 67.0587 64.0704 68.3823 63.4826 69.8529L55.9881 68.0881C56.8698 65.5881 58.1924 63.5293 59.8088 62.0587C61.5723 60.5881 63.4826 59.4117 65.6869 58.6764C67.8912 57.9411 70.2424 57.647 72.7405 57.647C74.357 57.647 76.1204 57.794 77.8838 58.2352C79.6473 58.6764 81.4107 59.2646 83.0271 60.294C84.6436 61.3234 85.9662 62.794 86.9948 64.7058C88.0235 66.6176 88.4643 68.9705 88.4643 72.0587V99.4117H80.6759V93.8234H80.382C79.9412 94.8529 79.0594 95.8823 78.0308 96.9117C77.0021 97.9411 75.6796 98.6764 74.0631 99.4117C72.8875 99.7058 70.8302 99.9999 68.6259 99.9999ZM70.3893 93.5293C72.5936 93.5293 74.504 93.0882 75.9735 92.2058C77.5899 91.3234 78.7655 90.147 79.5003 88.8234C80.382 87.3529 80.6759 85.8823 80.6759 84.2646V78.9705C80.382 79.2646 79.7942 79.5587 79.0595 79.7058C78.3247 79.9999 77.296 80.147 76.2674 80.294C75.2387 80.4411 74.2101 80.5882 73.3284 80.7352C72.2997 80.8823 71.5649 81.0293 70.8302 81.0293C69.3607 81.1764 67.8912 81.6176 66.5686 82.0587C65.246 82.4999 64.3643 83.2352 63.4826 84.1176C62.7479 84.9999 62.307 86.1764 62.307 87.4999C62.307 89.4117 63.0418 91.0293 64.5113 91.9117C66.2747 93.0881 68.1851 93.5293 70.3893 93.5293Z" fill="black"/>
<path d="M124.762 57.9412L109.92 99.1176H101.397L86.5547 57.9412H95.0779L105.364 89.5588H105.805L116.092 57.9412H124.762Z" fill="black"/>
<path d="M140.191 99.8529C136.223 99.8529 132.696 98.9706 129.757 97.2058C126.818 95.4411 124.614 93.0882 122.998 89.8529C121.381 86.6176 120.646 82.9411 120.646 78.6764C120.646 74.4117 121.381 70.7353 122.998 67.5C124.614 64.2647 126.818 61.7647 129.611 60C132.403 58.2353 135.782 57.3529 139.603 57.3529C141.954 57.3529 144.159 57.7941 146.363 58.5294C148.567 59.2647 150.478 60.4411 152.241 62.2058C154.004 63.8235 155.327 66.0294 156.356 68.5294C157.384 71.1764 157.825 74.2647 157.825 78.0882V80.8823H125.349V75H149.89C149.89 72.9411 149.449 71.0294 148.567 69.4117C147.686 67.7941 146.51 66.4705 145.04 65.5882C143.571 64.7058 141.661 64.1176 139.603 64.1176C137.399 64.1176 135.489 64.7058 133.725 65.7353C132.109 66.7647 130.786 68.2353 129.904 70C129.023 71.7647 128.582 73.6764 128.582 75.7353V80.4411C128.582 83.2353 129.023 85.5882 130.051 87.5C131.08 89.4117 132.403 90.8823 134.166 91.9117C135.929 92.9411 137.987 93.3823 140.191 93.3823C141.661 93.3823 143.13 93.2353 144.306 92.7941C145.481 92.3529 146.657 91.7647 147.539 90.8823C148.42 90 149.155 88.9705 149.596 87.647L157.09 88.9706C156.503 91.1764 155.474 93.0882 153.857 94.8529C152.241 96.4706 150.331 97.7941 147.979 98.6764C145.922 99.4117 143.13 99.8529 140.191 99.8529Z" fill="black"/>
<path d="M189.126 68.0882L181.926 69.4117C181.632 68.5294 181.191 67.647 180.456 66.7647C179.868 65.8823 178.987 65.2941 177.811 64.7059C176.782 64.1176 175.313 63.9706 173.696 63.9706C171.492 63.9706 169.582 64.4117 168.112 65.4412C166.643 66.4706 165.908 67.7941 165.908 69.2647C165.908 70.5882 166.349 71.7647 167.377 72.647C168.406 73.5294 170.022 74.1176 172.227 74.7059L178.693 76.1764C182.513 77.0588 185.305 78.3823 187.069 80.147C188.979 81.9117 189.861 84.2647 189.861 87.2059C189.861 89.7059 189.126 91.9117 187.804 93.8235C186.334 95.7353 184.424 97.2059 181.926 98.3823C179.427 99.4117 176.488 100 173.255 100C168.7 100 165.026 98.9706 162.087 97.0588C159.148 95.147 157.385 92.3529 156.797 88.6764L164.438 87.5C164.879 89.5588 165.908 91.0294 167.377 92.0588C168.847 93.0882 170.757 93.5294 173.255 93.5294C175.901 93.5294 177.958 92.9412 179.427 91.9117C181.044 90.8823 181.779 89.4117 181.779 87.9412C181.779 86.6176 181.338 85.5882 180.309 84.7059C179.427 83.8235 177.958 83.2353 175.901 82.7941L168.994 81.3235C165.173 80.4412 162.381 79.1176 160.618 77.2059C158.854 75.2941 157.826 72.9412 157.826 70C157.826 67.647 158.56 65.4412 159.883 63.6765C161.205 61.9117 163.116 60.4412 165.467 59.4118C167.818 58.3823 170.61 57.9412 173.549 57.9412C177.958 57.9412 181.485 58.9706 183.983 60.8823C186.628 62.2059 188.244 64.8529 189.126 68.0882Z" fill="black"/>
<path d="M164.732 19.1177C165.026 19.2648 165.173 19.4118 165.467 19.7059C165.467 19.7059 165.467 19.853 165.32 19.853C165.467 19.7059 165.614 19.853 165.761 19.7059C167.524 18.5295 169.435 17.9412 171.492 17.5001C172.227 17.353 173.109 17.5001 173.843 17.5001C175.019 17.6471 175.607 18.5295 175.754 19.5589C175.901 20.8824 176.195 22.2059 176.342 23.6765C176.342 24.7059 176.342 25.7353 176.195 26.6177C176.048 27.6471 175.901 28.5295 175.607 29.5589C175.313 30.8824 174.872 32.2059 174.431 33.5295C173.843 35 172.962 36.3236 171.933 37.5C170.904 38.6765 169.729 39.853 169.141 41.3236C168.847 42.2059 168.406 43.2353 168.112 44.2648C167.965 44.853 168.112 45.4412 168.112 46.0295C168.112 46.3236 168.259 46.4706 168.259 46.7648C167.965 49.5589 168.7 52.2059 168.994 54.853C169.141 56.7648 169.288 58.6765 169.435 60.5883C169.582 62.7942 169.582 65 169.582 67.2059C169.582 68.0883 169.582 68.9706 169.435 69.7059C169.288 70.5883 168.847 71.1765 167.965 71.4706C167.231 71.7647 166.79 71.4706 166.496 70.7353L166.349 69.853C166.055 68.5295 165.761 67.0589 165.467 65.5883C165.173 63.6765 165.026 61.7648 164.879 60C164.439 56.9118 164.585 53.8236 164.292 50.5883C164.292 49.2648 163.998 47.9412 163.851 46.4706C163.704 46.7648 163.557 46.9118 163.41 47.0589C162.822 47.7942 162.234 48.6765 161.646 49.4118L161.499 49.5589C161.059 50 160.324 50.1471 160.03 49.853C159.736 49.5589 159.442 48.6765 159.589 48.2353L159.883 47.5C160.618 46.3236 161.206 45.2942 162.087 44.2648C162.969 43.3824 162.822 42.5001 162.528 41.4706C162.234 40.2942 162.234 38.9706 162.087 37.7942C162.087 37.6471 161.94 37.353 162.087 37.2059L161.94 34.4118C161.94 33.5295 161.94 32.5001 161.94 31.6177C161.94 30.1471 161.793 28.8236 161.646 27.353C161.646 27.2059 161.646 27.2059 161.499 26.9118C160.912 27.2059 160.324 27.5001 159.883 27.9412C158.414 29.1177 156.944 29.853 155.328 30.5883C154.887 30.8824 154.446 31.1765 154.005 31.4706C153.711 31.6177 153.27 32.0589 152.976 31.7648C152.682 31.4706 152.829 31.0295 152.976 30.5883C152.976 30.4412 152.976 30.4412 152.976 30.4412L155.768 26.7648C156.062 26.4706 156.356 26.3236 156.65 26.0295C157.679 25.0001 158.707 23.9706 159.883 22.9412C160.177 22.7942 160.324 22.5001 160.618 22.353C161.206 22.0589 161.353 21.7648 161.353 21.1765C161.353 20.2942 162.087 20.0001 162.675 19.5589C163.116 19.2648 163.557 18.9706 163.998 18.8236L164.732 19.1177ZM167.378 37.7942C167.818 37.2059 168.406 36.6177 168.847 36.0295C170.023 34.4118 171.345 32.7942 172.521 31.0295C173.256 29.853 173.843 28.5295 173.843 27.0589C173.843 26.3236 173.696 25.7353 173.549 25.0001C173.403 24.2648 173.403 23.3824 173.109 22.6471C172.815 21.4706 171.933 21.1765 170.904 21.6177C169.435 22.2059 168.112 23.2353 166.79 24.1177C166.349 24.4118 166.202 24.853 166.349 25.2942L166.496 27.0589C166.496 27.6471 166.643 28.3824 166.643 28.9706C166.496 31.6177 166.79 34.7059 167.378 37.7942Z" fill="#FF00CF"/>
<path d="M183.836 61.6177C184.277 61.4706 184.424 61.1765 184.571 60.7353C185.305 56.9118 185.305 53.0882 185.011 49.1177C185.011 48.0882 185.158 47.2059 185.011 46.0294C185.011 45.2941 185.011 44.4118 184.864 43.5294C184.424 41.3235 184.424 39.1177 184.277 36.9118C184.277 36.0294 184.13 35.1471 183.983 34.2647C183.836 32.9412 183.689 31.6177 183.542 30.4412C183.542 30.1471 183.689 29.7059 183.983 29.5588C184.424 29.1177 185.011 28.6765 185.452 28.3824C185.893 28.0882 186.334 28.2353 186.628 28.5294L188.538 30.8824C188.685 31.1765 188.832 31.6177 188.832 31.9118C189.126 33.5294 189.273 35.1471 189.567 36.9118C189.714 38.0882 190.155 39.1177 190.155 40.2941C190.302 42.353 190.449 44.4118 190.449 46.4706C190.449 47.5 190.302 48.5294 190.155 49.4118C189.861 51.9118 189.861 54.5588 189.861 57.0588C189.861 58.5294 189.861 60 189.714 61.4706C189.567 62.7941 189.42 64.2647 189.126 65.4412C188.832 66.6177 188.391 67.6471 187.803 68.6765C187.216 69.7059 186.187 70 185.011 69.853C184.571 69.853 184.277 69.4118 183.836 69.2647C183.101 68.6765 182.513 68.0882 181.778 67.5C180.456 66.4706 179.574 65.1471 179.28 63.3824C179.133 62.2059 178.692 61.0294 178.546 59.853C178.252 58.3824 177.958 57.0588 177.664 55.5882C177.37 54.4118 177.223 53.3824 177.076 52.2059C176.782 51.0294 176.635 49.853 176.635 48.6765C176.488 48.0882 176.488 47.353 176.341 46.7647C176.341 46.4706 176.194 46.1765 176.194 45.8824C176.047 44.1177 175.9 42.2059 175.9 40.2941C175.9 39.7059 176.047 39.1177 176.194 38.6765C176.488 37.9412 176.929 37.9412 177.517 38.2353C177.664 38.3824 177.811 38.5294 177.958 38.5294C178.839 38.8235 179.133 39.4118 179.28 40.2941C179.427 41.0294 179.868 41.7647 180.015 42.6471C180.309 43.3824 180.456 43.9706 180.456 44.7059C180.309 46.0294 180.75 47.2059 181.044 48.5294L181.191 49.4118C181.485 50.4412 181.631 51.4706 181.778 52.5C181.925 53.8235 182.072 55.1471 182.072 56.4706C182.072 57.6471 182.366 58.6765 182.807 59.7059C183.542 60.5882 183.689 61.0294 183.836 61.6177Z" fill="#FF00CF"/>
<path d="M201.03 41.7647C201.03 40.8824 201.03 39.853 200.883 38.9706C200.883 37.7942 200.736 36.7647 200.589 35.7353C200.589 35.4412 200.589 35.1471 200.589 35C201.03 33.6765 201.03 32.5 200.736 31.1765C200.589 29.4118 200.736 27.6471 201.177 25.7353C201.471 24.5589 201.618 23.3824 201.764 22.2059C201.764 21.7647 201.911 21.1765 202.058 20.7353C202.205 20.5883 202.352 20.1471 202.499 20.1471C202.94 20.1471 203.381 20.1471 203.675 20.7353C204.263 21.9118 204.557 23.0883 204.557 24.4118C204.557 25.5883 204.557 26.7647 204.704 28.0883C204.704 28.9706 204.704 30 204.704 31.0294C204.704 31.3236 204.704 31.6177 204.704 31.9118C204.85 34.2647 204.997 36.4706 204.997 38.8236C204.997 38.9706 204.997 39.1177 204.997 39.2647C204.704 40.5883 204.85 42.0589 205.144 43.5294C205.291 44.853 205.732 46.0294 205.291 47.353C205.291 47.6471 205.438 47.9412 205.438 48.2353L205.732 51.1765C205.732 51.3236 205.879 51.4706 205.879 51.6177C206.761 52.7942 207.789 53.8236 208.671 55C208.965 55.4412 209.112 55.8824 209.112 56.3236C209.259 56.9118 208.524 57.6471 207.789 57.6471C207.496 57.6471 207.349 57.6471 207.055 57.6471L206.32 57.353C205.732 58.5294 203.675 58.8236 202.94 57.5C202.352 56.6177 202.205 55.7353 202.205 54.7059C202.205 54.4118 202.205 54.1177 202.205 53.8236C202.058 52.353 201.618 51.0295 200.736 49.853C200.295 49.4118 200.001 48.6765 199.56 48.2353C199.413 47.9412 199.119 47.6471 198.972 47.353L197.356 43.6765C197.209 43.2353 196.915 42.9412 196.621 42.5C196.621 42.6471 196.474 42.7942 196.474 42.9412C196.327 43.5295 196.327 44.1177 196.327 44.7059C196.327 45.8824 196.18 47.2059 196.621 48.5294C196.915 49.2647 196.768 50.1471 196.915 51.0294C196.915 51.3236 196.915 51.7647 196.915 52.0589C196.915 52.9412 197.062 53.9706 197.209 54.853C197.356 56.0294 197.65 57.2059 197.797 58.2353C197.944 59.1177 198.238 60 197.944 60.8824C197.797 61.4706 197.503 61.7647 196.915 61.7647C195.886 61.6177 195.005 61.3236 194.711 60C194.123 58.2353 193.682 56.3236 193.535 54.4118C193.388 53.2353 193.094 52.0589 192.947 51.0294C192.8 49.853 192.8 48.6765 192.8 47.5C192.8 47.353 192.654 47.0589 192.654 46.7647C192.654 46.4706 192.507 46.1765 192.507 45.8824C192.8 44.5589 192.653 43.3824 192.36 42.0589C192.213 41.1765 192.507 40.2942 192.507 39.4118C192.507 37.7942 192.36 36.1765 192.213 34.7059C192.066 33.0883 191.919 31.4706 192.213 29.853C192.213 29.5589 192.213 29.2647 192.213 29.1177C192.066 27.9412 192.8 27.353 193.682 26.7647C194.123 26.4706 194.858 26.7647 195.152 27.2059C195.593 28.0883 196.033 29.1177 196.474 30C196.621 30.2942 196.768 30.5883 196.915 30.8824C197.356 32.2059 197.944 33.5294 198.532 34.853C198.825 35.4412 199.119 36.0294 199.266 36.7647C199.56 37.353 199.56 37.9412 199.707 38.5294C200.001 39.7059 200.442 40.8824 200.736 42.0589C200.736 42.2059 200.883 42.2059 200.883 42.353C200.883 41.7647 200.883 41.6177 201.03 41.7647Z" fill="#FF00CF"/>
<path d="M207.054 0C207.936 0 208.377 0.588235 208.671 1.17647C209.405 2.64706 209.993 4.11765 209.993 5.88235C209.993 8.23529 210.14 10.5882 210.581 12.9412C210.875 14.4118 211.022 15.8824 211.169 17.2059C211.316 18.2353 211.463 19.2647 211.757 20.1471C212.638 23.0882 213.079 26.3235 213.079 29.4118C213.079 30.2941 213.226 31.1765 213.373 32.2059C214.255 31.1765 215.136 30.1471 215.871 29.2647C217.194 27.5 218.516 25.7353 219.986 23.9706C220.721 22.9412 221.455 22.0588 222.631 21.4706C222.925 21.3235 223.366 20.8824 223.807 21.1765C224.247 21.4706 224.1 21.9118 223.953 22.3529C223.807 23.0882 223.366 23.6765 223.072 24.2647L222.484 25.4412C222.19 25.7353 221.896 26.0294 221.749 26.3235C221.602 26.4706 221.455 26.6176 221.455 26.7647C219.986 28.9706 218.663 31.1765 217.194 33.3824L214.549 37.7941C215.283 38.2353 215.871 38.6765 216.459 39.1176C218.222 40.4412 219.986 41.7647 221.749 43.2353L224.982 45.7353C225.717 46.3235 226.305 46.9118 226.892 47.5C227.48 47.9412 227.921 48.6765 228.803 48.8235C228.803 48.8235 228.95 49.1176 228.95 49.2647C228.95 49.8529 228.509 50.1471 227.921 50.1471C226.305 50.2941 224.835 49.7059 223.66 48.5294C222.778 47.6471 221.455 46.9118 220.427 46.1765C218.957 45.1471 217.194 44.5588 215.724 43.6765C215.136 43.3824 214.696 43.0882 214.108 42.6471C214.108 43.5294 214.108 44.2647 214.108 44.8529L214.549 50C214.696 51.4706 214.842 53.2353 214.989 54.7059C214.989 55 214.989 55.1471 214.989 55.4412C214.842 56.3235 214.549 56.7647 213.814 56.7647C213.226 56.9118 212.932 56.4706 212.638 55.7353C212.05 54.2647 211.757 52.5 211.463 50.8824C211.022 48.2353 210.728 45.4412 210.14 42.7941C209.993 41.4706 209.552 40.2941 209.111 39.1176L207.642 33.9706C207.495 33.3824 207.495 32.6471 207.495 32.0588C207.642 29.7059 207.201 27.3529 206.76 25.1471C206.319 23.6765 206.172 22.2059 205.878 20.7353C205.585 19.5588 205.291 18.3824 204.997 17.2059C204.703 16.3235 204.703 15.5882 204.703 14.7059C204.703 12.6471 204.703 10.7353 204.262 8.82353C204.115 7.79412 203.968 6.76471 203.674 5.88235C203.527 5.14706 203.233 4.41176 202.939 3.82353C202.793 3.38235 202.792 2.94118 203.233 2.64706C203.674 2.35294 203.968 1.91176 204.409 1.47059L207.054 0Z" fill="#FF00CF"/>
<path d="M240.265 13.0882C240.853 13.3823 241.147 14.1176 241 14.8529C240.853 15.147 241 15.4412 240.853 15.5882C240.706 16.4706 240.265 17.3529 239.677 17.9412L235.563 22.0588C233.946 23.6765 232.477 25.2941 230.713 26.9117C229.978 27.647 229.097 28.3823 228.362 28.9706C228.215 29.1176 228.068 29.2647 227.921 29.5588C229.684 29.7059 231.448 29.8529 233.211 29.7059C234.24 29.7059 235.269 29.2647 236.444 28.9706C237.62 28.6765 239.236 29.2647 239.824 30.2941C240.118 30.7353 240.559 31.1765 240.706 31.6176C241.441 34.4118 241 37.0588 239.53 39.4118C238.795 40.4412 238.061 41.3235 237.179 42.3529C236.885 42.7941 236.591 43.0882 236.297 43.5294C235.709 44.5588 234.975 45.4412 234.24 46.3235C233.211 47.5 232.477 48.8235 231.595 50C230.272 51.7647 228.803 53.5294 227.48 55.2941C226.598 56.4706 225.717 57.647 224.982 58.8235C224.394 59.5588 223.806 60 222.925 60.147C222.484 60.2941 221.896 60 221.749 59.4118C221.308 58.0882 221.308 56.6176 222.043 55.147C223.072 53.2353 224.541 51.6176 225.864 49.8529C227.48 47.647 229.097 45.4412 230.713 43.2353C231.301 42.5 231.889 41.7647 232.623 41.0294C232.917 40.5882 233.358 40 233.652 39.4118L236.003 35.8823C236.444 35.2941 236.738 34.7059 237.032 34.1176C236.738 33.9706 236.591 33.9706 236.444 33.9706C234.828 33.6765 233.211 33.8235 231.448 33.9706C229.831 34.1176 228.215 34.4118 226.452 34.5588C226.011 34.5588 225.57 34.5588 225.129 34.4118C224.247 34.2647 223.659 33.8235 223.513 32.9412C223.366 32.2059 223.219 31.3235 223.219 30.4412C223.219 30.147 223.366 29.7059 223.513 29.4118C224.247 27.7941 225.276 26.1765 226.452 24.7059C228.362 22.5 230.566 20.7353 232.623 18.8235C233.358 18.2353 233.946 17.647 234.534 17.0588C235.709 15.8823 237.179 15 238.355 13.8235C238.648 13.5294 238.795 13.2353 239.089 12.9412L240.265 13.0882Z" fill="#FF00CF"/>
</svg>
