<svg width="257" height="97" viewBox="0 0 257 97" fill="none" xmlns="http://www.w3.org/2000/svg">
<path d="M168.517 11.5641C168.648 11.6678 168.832 11.7715 169.015 11.8752C168.989 11.9012 168.989 11.9271 168.963 11.953C169.068 11.9012 169.173 11.9012 169.225 11.8493C170.326 11.1233 171.531 10.7603 172.816 10.5529C173.313 10.4751 173.811 10.5269 174.309 10.5788C175.017 10.7084 175.41 11.2011 175.515 11.8493C175.646 12.679 175.751 13.5087 175.829 14.3385C175.856 14.9348 175.829 15.5571 175.777 16.1535C175.725 16.7499 175.62 17.3462 175.436 17.9426C175.2 18.7464 174.991 19.5761 174.676 20.354C174.283 21.2096 173.759 22.0394 173.13 22.7913C172.475 23.5173 171.741 24.1915 171.374 25.1508C171.164 25.7213 170.902 26.3176 170.771 26.9399C170.693 27.277 170.771 27.6659 170.798 28.0549C170.824 28.2104 170.876 28.366 170.876 28.5475C170.719 30.2329 171.138 31.8405 171.322 33.4999C171.427 34.6667 171.531 35.8076 171.584 37.0003C171.636 38.3227 171.636 39.671 171.636 41.0193C171.636 41.5379 171.61 42.0824 171.558 42.575C171.479 43.0936 171.217 43.5085 170.666 43.69C170.221 43.8715 169.933 43.69 169.775 43.2492L169.671 42.6788C169.513 41.8231 169.33 40.9415 169.173 40.0859C169.015 38.9191 168.937 37.7782 168.779 36.6373C168.491 34.7445 168.596 32.8258 168.491 30.933C168.439 30.1292 168.334 29.2994 168.203 28.4438C168.098 28.5734 167.993 28.7031 167.915 28.8327C167.548 29.2994 167.155 29.818 166.761 30.2847L166.683 30.4144C166.421 30.6478 166.001 30.7515 165.792 30.6218C165.608 30.4922 165.425 29.8958 165.556 29.6365L165.766 29.1957C166.237 28.5216 166.578 27.7956 167.102 27.1992C167.6 26.6288 167.574 26.1361 167.417 25.462C167.233 24.71 167.259 23.9581 167.207 23.2062C167.207 23.0765 167.155 22.9728 167.181 22.8172L167.128 21.1318C167.155 20.5614 167.155 19.991 167.128 19.3946C167.102 18.539 167.05 17.6574 166.971 16.7499C166.997 16.698 166.971 16.6202 166.893 16.4646C166.526 16.6461 166.159 16.8276 165.87 17.061C164.979 17.7352 164.01 18.2278 163.014 18.6945C162.725 18.8501 162.463 19.0575 162.175 19.2131C161.965 19.3427 161.73 19.5242 161.52 19.3427C161.284 19.1353 161.415 18.876 161.52 18.6427C161.546 18.5908 161.546 18.5908 161.546 18.5908L163.276 16.3869C163.407 16.2054 163.643 16.1016 163.8 15.9461C164.455 15.3238 165.137 14.7274 165.792 14.1051C165.975 14.0014 166.106 13.794 166.264 13.7421C166.604 13.6125 166.735 13.405 166.735 13.068C166.709 12.4975 167.181 12.3679 167.548 12.1086C167.836 11.953 168.124 11.7715 168.386 11.6159L168.517 11.5641ZM170.142 22.9209C170.431 22.5839 170.745 22.1949 171.033 21.806C171.793 20.7948 172.606 19.8354 173.287 18.7723C173.759 18.0463 174.152 17.2684 174.1 16.335C174.1 15.8942 173.995 15.5053 173.969 15.0904C173.89 14.5978 173.838 14.1051 173.733 13.6125C173.576 12.9383 172.999 12.7049 172.344 12.9383C171.4 13.3013 170.588 13.8977 169.802 14.4422C169.566 14.6237 169.461 14.857 169.513 15.1163L169.566 16.1794C169.592 16.5684 169.671 16.9573 169.644 17.3203C169.592 19.1872 169.775 21.0281 170.142 22.9209Z" fill="#FF00CF"/>
<path d="M180.312 37.5191C180.626 37.4413 180.678 37.2339 180.731 36.9486C181.229 34.615 181.229 32.2555 180.993 29.8701C180.967 29.2737 181.045 28.6773 181.045 28.0291C181.019 27.5624 181.098 27.0179 180.967 26.5252C180.705 25.2029 180.705 23.8546 180.652 22.4803C180.652 21.9617 180.547 21.4432 180.495 20.8987C180.416 20.0949 180.312 19.317 180.233 18.5391C180.233 18.3576 180.311 18.0724 180.469 17.9687C180.731 17.6835 181.072 17.4501 181.412 17.2686C181.701 17.113 181.936 17.1649 182.172 17.3983L183.325 18.8243C183.43 19.0059 183.456 19.2392 183.509 19.4726C183.666 20.4579 183.797 21.495 183.981 22.5063C184.112 23.2063 184.295 23.8546 184.374 24.5546C184.479 25.8251 184.531 27.0957 184.557 28.3662C184.557 28.9885 184.426 29.6108 184.374 30.1812C184.164 31.7629 184.164 33.3186 184.19 34.8743C184.216 35.73 184.164 36.6634 184.085 37.5191C184.007 38.3488 183.928 39.2045 183.719 39.9823C183.535 40.6824 183.247 41.3565 182.906 41.9788C182.539 42.5752 181.858 42.8086 181.15 42.7049C180.888 42.6789 180.652 42.4715 180.416 42.3159C179.997 41.9788 179.604 41.564 179.185 41.2788C178.372 40.6046 177.822 39.8527 177.664 38.7637C177.586 38.0636 177.324 37.3376 177.193 36.6375C176.983 35.7559 176.852 34.9003 176.695 34.0446C176.538 33.3705 176.407 32.6704 176.302 31.9962C176.171 31.2702 176.066 30.5183 176.013 29.7923C175.935 29.4033 175.882 28.9625 175.856 28.5995C175.856 28.3921 175.778 28.2365 175.778 28.0291C175.699 26.9401 175.62 25.7992 175.62 24.6583C175.594 24.3213 175.673 23.9842 175.804 23.6731C175.987 23.2582 176.302 23.2063 176.669 23.4397C176.747 23.5434 176.878 23.6212 176.983 23.6471C177.507 23.8286 177.664 24.2176 177.822 24.6843C177.927 25.151 178.189 25.6177 178.293 26.1104C178.425 26.5252 178.556 26.966 178.529 27.4068C178.477 28.2106 178.713 28.9366 178.844 29.7145L178.949 30.2849C179.08 30.9331 179.237 31.5554 179.342 32.2037C179.42 33.0074 179.551 33.8112 179.551 34.641C179.551 35.3411 179.683 35.9893 179.945 36.6116C180.102 36.9227 180.18 37.2339 180.312 37.5191Z" fill="#FF00CF"/>
<path d="M191.004 25.4361C191.004 24.8657 191.004 24.2693 190.951 23.7248C190.925 23.0506 190.847 22.3765 190.768 21.7023C190.768 21.5208 190.768 21.3653 190.82 21.2356C191.109 20.4577 191.056 19.7058 190.978 18.9279C190.873 17.813 190.978 16.7499 191.266 15.635C191.449 14.9349 191.502 14.2089 191.607 13.4829C191.659 13.1977 191.711 12.8865 191.816 12.6013C191.869 12.4716 192 12.2383 192.105 12.2383C192.367 12.2642 192.655 12.2383 192.786 12.5754C193.127 13.2754 193.363 14.0014 193.363 14.8052C193.336 15.5312 193.389 16.2573 193.415 17.0092C193.415 17.5796 193.389 18.176 193.363 18.7724C193.363 18.9539 193.336 19.1354 193.336 19.2909C193.389 20.717 193.467 22.0653 193.546 23.4914C193.546 23.5951 193.572 23.6989 193.546 23.8026C193.389 24.6582 193.441 25.5139 193.572 26.3955C193.677 27.1733 193.887 27.9512 193.703 28.7031C193.677 28.8846 193.756 29.0661 193.756 29.2476L193.887 31.0367C193.887 31.1145 193.939 31.2182 193.992 31.296C194.542 31.9961 195.119 32.6702 195.669 33.3703C195.852 33.6037 195.931 33.8889 195.983 34.1741C196.036 34.5631 195.616 34.952 195.145 34.952C194.987 34.9779 194.83 34.952 194.673 34.952L194.201 34.8223C193.834 35.5484 192.603 35.678 192.105 34.9261C191.79 34.4075 191.607 33.863 191.659 33.2407C191.659 33.0592 191.659 32.9036 191.607 32.748C191.502 31.8665 191.266 31.0886 190.716 30.3626C190.453 30.0514 190.218 29.6884 189.956 29.3513C189.851 29.1698 189.72 28.9624 189.641 28.755L188.671 26.4992C188.567 26.2399 188.409 26.0325 188.2 25.7991C188.173 25.8769 188.147 25.9806 188.147 26.0843C188.095 26.4473 188.042 26.7844 188.016 27.1733C187.99 27.9253 187.964 28.7291 188.2 29.5329C188.357 29.9736 188.331 30.5441 188.331 31.0627C188.357 31.2701 188.304 31.4775 188.331 31.6849C188.357 32.2554 188.435 32.8258 188.514 33.3963C188.593 34.1223 188.75 34.7964 188.829 35.4965C188.881 36.041 189.064 36.5855 188.907 37.13C188.802 37.4412 188.593 37.7005 188.278 37.6745C187.597 37.6227 187.073 37.3893 186.889 36.6114C186.548 35.4965 186.286 34.3297 186.155 33.1629C186.077 32.4887 185.893 31.7627 185.841 31.0627C185.762 30.3366 185.788 29.6106 185.762 28.8587C185.736 28.7291 185.684 28.5735 185.657 28.4179C185.631 28.2105 185.553 28.029 185.605 27.8734C185.788 27.0696 185.657 26.3177 185.526 25.5398C185.448 24.9694 185.605 24.4508 185.605 23.9063C185.631 22.9469 185.526 21.9616 185.474 21.0282C185.395 20.0429 185.291 19.0576 185.448 18.0723C185.474 17.8908 185.474 17.7611 185.474 17.5796C185.422 16.8796 185.788 16.4906 186.365 16.1795C186.627 16.0498 187.099 16.1535 187.23 16.4388C187.518 17.0092 187.754 17.5796 188.042 18.176C188.121 18.3575 188.226 18.539 188.304 18.7205C188.619 19.5243 188.96 20.3281 189.3 21.106C189.458 21.4949 189.615 21.8579 189.746 22.2468C189.903 22.5839 189.903 22.9728 190.034 23.3099C190.244 24.01 190.453 24.7101 190.689 25.4361C190.716 25.4879 190.742 25.5398 190.794 25.5917C190.899 25.462 190.978 25.4361 191.004 25.4361Z" fill="#FF00CF"/>
<path d="M194.883 0C195.407 0 195.669 0.311147 195.905 0.751938C196.377 1.63352 196.744 2.59289 196.717 3.57819C196.717 5.00428 196.796 6.45629 197.11 7.85645C197.32 8.73804 197.346 9.64555 197.451 10.5012C197.582 11.0976 197.661 11.7199 197.818 12.3162C198.342 14.1572 198.578 16.05 198.657 17.9428C198.657 18.4614 198.762 18.9799 198.84 19.6022C199.364 18.954 199.888 18.3836 200.386 17.7872C201.251 16.7241 202.064 15.6351 202.929 14.572C203.427 13.9757 203.872 13.3793 204.554 13.0163C204.763 12.8867 205.025 12.6792 205.287 12.8867C205.523 13.0422 205.497 13.3793 205.392 13.6386C205.261 14.0535 205.025 14.4165 204.842 14.7795L204.475 15.5055C204.344 15.687 204.134 15.8685 204.003 16.05C203.951 16.1278 203.846 16.2056 203.793 16.3093C202.902 17.6316 202.038 18.9799 201.146 20.3283L199.495 23.0249C199.941 23.3101 200.334 23.5434 200.675 23.8287C201.775 24.6325 202.876 25.4622 203.977 26.3178L205.943 27.8476C206.362 28.1847 206.781 28.5736 207.174 28.9366C207.515 29.2219 207.83 29.6367 208.354 29.7145C208.38 29.6886 208.485 29.9219 208.432 30.0257C208.406 30.3368 208.118 30.5442 207.777 30.5183C206.729 30.5702 205.89 30.2331 205.104 29.533C204.527 28.9885 203.767 28.5736 203.112 28.1069C202.221 27.4328 201.12 27.0698 200.151 26.5512C199.81 26.3956 199.548 26.1623 199.181 25.903C199.181 26.4215 199.181 26.8623 199.207 27.2772L199.391 30.4664C199.443 31.3999 199.548 32.4111 199.6 33.3446C199.626 33.5001 199.626 33.6298 199.626 33.8113C199.574 34.3039 199.338 34.5891 198.893 34.641C198.552 34.6929 198.316 34.4336 198.133 33.9928C197.766 33.0593 197.556 32.0481 197.425 31.011C197.189 29.3515 196.979 27.718 196.665 26.0585C196.56 25.2807 196.272 24.5287 196.088 23.7768L195.223 20.6394C195.145 20.2505 195.092 19.8097 195.092 19.4207C195.171 17.9947 194.961 16.5426 194.647 15.1684C194.411 14.3127 194.332 13.3793 194.096 12.4718C193.965 11.7458 193.756 11.0457 193.546 10.3456C193.389 9.85298 193.389 9.36033 193.336 8.81582C193.336 7.59717 193.363 6.40444 193.101 5.21171C192.97 4.61534 192.891 3.99305 192.707 3.37076C192.603 2.92997 192.419 2.48917 192.288 2.07431C192.157 1.78909 192.157 1.55573 192.498 1.32237C192.786 1.1668 192.97 0.855653 193.205 0.596365L194.883 0Z" fill="#FF00CF"/>
<path d="M215.509 8.06396C215.902 8.29732 216.033 8.66033 215.928 9.15298C215.876 9.30855 215.902 9.46412 215.849 9.6197C215.745 10.1901 215.509 10.6828 215.116 11.0717L212.573 13.5868C211.578 14.5721 210.608 15.5833 209.56 16.5427C209.088 17.0094 208.564 17.3984 208.092 17.8132C208.013 17.9429 207.908 18.0207 207.777 18.2022C208.904 18.254 209.953 18.3837 211.053 18.3577C211.709 18.3318 212.364 18.1244 213.045 17.9688C213.727 17.8132 214.775 18.2022 215.116 18.7985C215.273 19.0837 215.587 19.2912 215.666 19.5764C216.138 21.2877 215.849 22.8953 214.88 24.3473C214.46 24.9955 213.936 25.54 213.438 26.1364C213.229 26.3957 213.019 26.6031 212.914 26.8365C212.521 27.4847 212.049 28.0292 211.578 28.5737C210.975 29.2997 210.529 30.1035 209.9 30.8555C209.062 31.9445 208.17 32.9816 207.306 34.0706C206.729 34.7967 206.205 35.4967 205.733 36.2487C205.392 36.6895 204.973 36.9228 204.449 37.0525C204.134 37.1303 203.846 36.9488 203.741 36.6117C203.479 35.756 203.453 34.9522 203.925 34.0447C204.554 32.852 205.471 31.9185 206.336 30.8555C207.358 29.559 208.354 28.1848 209.376 26.8624C209.717 26.4216 210.162 26.0068 210.529 25.54C210.739 25.2289 210.949 24.8918 211.184 24.5807L212.652 22.4545C212.888 22.0915 213.098 21.7544 213.333 21.3396C213.124 21.2877 213.019 21.2618 212.914 21.2099C211.866 21.0284 210.87 21.0543 209.822 21.2099C208.826 21.3396 207.777 21.4692 206.755 21.547C206.493 21.5729 206.231 21.547 205.943 21.4951C205.445 21.4433 205.078 21.1062 204.973 20.5876C204.894 20.095 204.79 19.5764 204.79 19.0578C204.79 18.8504 204.921 18.643 204.999 18.4355C205.497 17.4502 206.1 16.4649 206.86 15.5574C208.013 14.235 209.402 13.172 210.713 11.9792C211.132 11.6162 211.499 11.2532 211.918 10.9161C212.678 10.242 213.517 9.6197 214.329 8.94555C214.487 8.78997 214.618 8.60847 214.775 8.42697L215.509 8.06396Z" fill="#FF00CF"/>
<path d="M10.7191 57.3805L0 21.3652H7.31204L14.4406 47.8127H14.8075L21.9623 21.3652H29.2744L36.3767 47.709H36.7437L43.8198 21.3652H51.1319L40.439 57.3805H33.2056L25.8673 31.3738H25.317L17.9263 57.3805H10.7191Z" fill="white"/>
<path d="M61.2484 58.1842C58.9421 58.1842 56.8455 57.7694 54.9847 56.9137C53.1239 56.0581 51.6563 54.8135 50.5556 53.2059C49.481 51.5724 48.9307 49.5759 48.9307 47.2163C48.9307 45.1939 49.3238 43.5085 50.11 42.1861C50.8963 40.8637 51.9708 39.8266 53.3074 39.0746C54.644 38.2968 56.1641 37.7263 57.8152 37.3374C59.4663 36.9485 61.1698 36.6373 62.8995 36.4558C65.0748 36.1965 66.8569 35.9891 68.2198 35.8335C69.5826 35.678 70.5785 35.3927 71.1813 35.0297C71.8103 34.6667 72.0986 34.0444 72.0986 33.1888V33.0332C72.0986 30.9848 71.522 29.4032 70.3688 28.2623C69.2157 27.1474 67.4859 26.5769 65.1796 26.5769C62.7947 26.5769 60.9077 27.0955 59.5449 28.1327C58.1821 29.1698 57.2386 30.3366 56.7144 31.5812L50.0576 30.0773C50.8439 27.8993 51.997 26.1102 53.5171 24.7619C55.0371 23.4136 56.7931 22.4283 58.7849 21.806C60.7767 21.1837 62.8733 20.8726 65.0748 20.8726C66.5162 20.8726 68.0625 21.0281 69.7136 21.3652C71.3385 21.7023 72.8848 22.3246 74.3 23.2062C75.7415 24.0877 76.8946 25.3583 77.8119 27.0177C78.7292 28.6772 79.1747 30.8033 79.1747 33.4221V57.3286H72.2558V52.4021H71.9675C71.522 53.3096 70.8144 54.1912 69.8971 55.0728C68.9798 55.9544 67.8004 56.6804 66.359 57.2508C64.9962 57.899 63.2665 58.1842 61.2484 58.1842ZM62.7947 52.5577C64.7603 52.5577 66.4376 52.1687 67.8266 51.4168C69.2157 50.6389 70.2902 49.6536 71.024 48.4091C71.7579 47.1645 72.1248 45.8421 72.1248 44.416V39.7747C71.8627 40.034 71.3909 40.2674 70.6571 40.4748C69.9495 40.6822 69.1108 40.8637 68.1936 41.0193C67.2763 41.1749 66.3852 41.3045 65.5203 41.4082C64.6555 41.5379 63.9217 41.6157 63.3451 41.6935C61.9823 41.875 60.7243 42.1602 59.5973 42.5491C58.4704 42.964 57.5793 43.5344 56.8979 44.2864C56.2165 45.0383 55.902 46.0495 55.902 47.2941C55.902 49.0313 56.5572 50.3278 57.8414 51.2094C59.1518 52.1169 60.8029 52.5577 62.7947 52.5577Z" fill="white"/>
<path d="M111.254 21.3652L98.0447 57.3805H90.4706L77.2617 21.3652H84.862L94.0873 49.0832H94.4542L103.653 21.3652H111.254Z" fill="white"/>
<path d="M125.117 58.1064C121.527 58.1064 118.434 57.3545 115.866 55.8247C113.271 54.2949 111.28 52.1428 109.891 49.3684C108.502 46.594 107.794 43.3269 107.794 39.5932C107.794 35.9113 108.502 32.6442 109.891 29.8439C111.28 27.0177 113.245 24.8396 115.761 23.258C118.277 21.6763 121.239 20.8984 124.62 20.8984C126.664 20.8984 128.656 21.2355 130.595 21.9097C132.534 22.5838 134.264 23.6469 135.784 25.073C137.304 26.4991 138.536 28.366 139.401 30.6736C140.292 32.9554 140.737 35.7298 140.737 38.9968V41.486H111.804V36.2224H133.792C133.792 34.3815 133.425 32.7479 132.665 31.3219C131.905 29.8958 130.857 28.7549 129.468 27.9252C128.105 27.0954 126.506 26.6806 124.672 26.6806C122.68 26.6806 120.95 27.1732 119.483 28.1326C118.015 29.092 116.862 30.3366 116.076 31.8923C115.289 33.4221 114.87 35.1075 114.87 36.8966V40.9933C114.87 43.4047 115.289 45.4531 116.154 47.1385C117.019 48.8239 118.225 50.1203 119.771 51.0019C121.317 51.8835 123.126 52.3243 125.196 52.3243C126.533 52.3243 127.764 52.1428 128.865 51.7538C129.966 51.3649 130.936 50.7945 131.722 50.0425C132.534 49.2647 133.137 48.3312 133.583 47.2163L140.292 48.409C139.742 50.3537 138.798 52.065 137.409 53.5429C136.02 54.9949 134.29 56.1358 132.22 56.9396C130.149 57.6915 127.791 58.1064 125.117 58.1064Z" fill="white"/>
<path d="M168.702 30.1551L162.281 31.27C162.019 30.4662 161.599 29.6883 161.023 28.9364C160.446 28.1845 159.66 27.5881 158.69 27.1214C157.72 26.6547 156.489 26.4213 155.021 26.4213C153.003 26.4213 151.352 26.8621 149.989 27.7437C148.652 28.6252 147.971 29.7661 147.971 31.1663C147.971 32.359 148.417 33.3443 149.334 34.0703C150.225 34.7963 151.693 35.4186 153.684 35.8853L159.476 37.2077C162.831 37.9856 165.321 39.1524 166.972 40.76C168.623 42.3416 169.435 44.4159 169.435 46.9829C169.435 49.135 168.806 51.0537 167.548 52.7391C166.29 54.4245 164.534 55.7469 162.307 56.6803C160.079 57.6397 157.485 58.1064 154.549 58.1064C150.461 58.1064 147.159 57.2508 144.564 55.5135C141.996 53.7763 140.397 51.339 139.82 48.1497L146.661 47.1126C147.08 48.8757 147.971 50.224 149.281 51.1056C150.618 52.0131 152.348 52.4539 154.471 52.4539C156.803 52.4539 158.638 51.9613 160.053 51.0019C161.442 50.0425 162.15 48.8757 162.15 47.4756C162.15 46.3606 161.73 45.4012 160.892 44.6493C160.053 43.8714 158.742 43.301 157.013 42.9121L150.854 41.5638C147.447 40.7859 144.957 39.5672 143.332 37.9078C141.707 36.2483 140.895 34.1222 140.895 31.5552C140.895 29.429 141.498 27.5622 142.703 25.9805C143.909 24.3729 145.56 23.1283 147.683 22.2467C149.806 21.3392 152.217 20.8984 154.969 20.8984C158.9 20.8984 161.992 21.7282 164.246 23.4135C166.474 25.0989 167.968 27.3547 168.702 30.1551Z" fill="white"/>
<path d="M138.352 87.8728C138.929 87.4839 139.584 87.069 140.213 86.6541L142.205 85.4096C143.017 84.891 143.882 84.4243 144.695 83.9316C145.402 83.5168 146.162 83.076 146.844 82.5833C148.18 81.7536 149.517 80.872 150.854 80.0423C151.771 79.4459 152.74 78.9533 153.736 78.4606L154.575 77.8902C155.65 77.242 156.724 76.6197 157.746 75.9196C158.873 75.2195 160 74.4935 160.97 73.6897C161.782 72.9896 162.647 72.6525 163.564 72.3673L165.32 71.9265C166.028 71.745 166.369 71.9006 166.631 72.3933C166.945 72.9378 166.893 73.6119 166.421 73.9749C165.189 75.0121 164.036 76.0492 162.778 76.9827C162.097 77.5272 161.415 77.942 160.629 78.2532C159.764 78.5384 159.083 79.057 158.375 79.6274C156.514 81.0794 154.654 82.5833 152.714 84.0094C151.614 84.7873 150.46 85.4355 149.333 86.1356C148.416 86.7319 147.604 87.3802 146.739 87.9506L145.9 88.521C145.035 89.2211 144.144 89.9471 143.253 90.5953C141.681 91.7362 140.108 92.8511 138.247 93.6809C137.881 93.8883 137.461 93.992 137.016 94.1735C135.994 94.5625 135.102 95.2107 134.29 95.9108C133.766 96.2997 133.084 96.5849 132.482 96.8442C132.036 97.0257 131.591 96.8183 131.302 96.4034C130.516 95.2366 130.149 94.0439 130.778 92.6437C130.988 92.2289 131.119 91.7621 131.25 91.3473C131.355 91.0621 131.355 90.8287 131.486 90.6213C131.826 89.7915 132.246 88.9618 132.587 88.0802C132.875 87.4579 132.953 86.8097 133.163 86.2134C133.556 84.891 134.264 83.7242 135.024 82.5574C135.653 81.6499 136.282 80.6386 136.623 79.5756C137.252 77.942 138.116 76.3604 139.007 74.8046C139.584 73.6638 140.161 72.5488 140.659 71.3042C141.261 69.7485 142.205 68.4002 143.017 66.9482C143.83 65.4443 144.537 63.9145 145.297 62.4366C145.612 61.7365 145.953 61.1142 146.372 60.5178C147.525 58.7547 148.704 56.9915 149.884 55.2802C150.225 54.7097 150.46 54.1393 150.722 53.7244L146.713 56.5248C145.9 57.0433 145.035 57.5619 144.197 58.1324C143.725 58.4435 143.279 58.7287 142.86 59.0139L139.479 61.3475C138.536 62.0217 137.514 62.644 136.492 63.3181C135.784 63.733 135.05 63.5515 134.316 63.37C133.844 63.2403 133.661 62.4884 133.976 62.0476C134.342 61.5809 134.736 61.1142 135.207 60.7512C137.723 58.4694 140.501 56.3951 142.86 53.9578C143.856 52.9725 145.088 52.2206 146.424 51.5983C147.42 51.1575 148.416 50.613 149.307 50.0166L153.291 47.3459C153.867 46.957 154.365 46.4644 154.89 46.0236L156.2 45.0901C156.986 44.5197 158.401 44.416 159.371 45.3494C159.79 45.7902 159.895 46.3866 159.659 46.9311C159.581 47.32 159.371 47.7349 159.109 47.9942C158.192 48.772 157.72 49.8092 157.091 50.8463C156.357 52.1428 155.571 53.3874 154.759 54.632C153.972 55.9284 153.186 57.2508 152.557 58.625C151.614 60.7771 150.329 62.8255 148.967 64.7702C148.075 66.0925 147.08 67.389 146.241 68.7113C145.926 69.2299 145.717 69.8263 145.559 70.4227C145.14 71.6932 144.668 72.9896 143.908 74.2083C143.122 75.5047 142.755 77.0086 142.388 78.5384C141.969 80.0682 141.34 81.4424 140.554 82.7648C140.108 83.4908 139.768 84.3205 139.427 85.1503C139.112 85.9022 138.824 86.6541 138.457 87.432L138.352 87.8728Z" fill="#87C400"/>
<path d="M167.312 49.8354C168.779 50.0169 169.618 50.6133 169.697 52.1431C169.88 53.5692 169.801 55.0212 169.723 56.3954C169.618 57.8993 169.225 59.3513 168.963 60.7774C168.858 61.3478 168.91 62.022 168.858 62.5406C168.753 64.3556 168.779 66.0669 168.701 67.8041C168.701 69.5154 168.779 71.2267 168.937 72.9121C169.041 74.4938 169.723 75.7902 170.928 76.8533C171.19 77.0867 171.321 77.4237 171.557 77.6312C172.082 78.2275 172.658 78.2794 173.182 77.6571C173.811 77.0089 174.283 76.3347 174.335 75.4013C174.388 74.3901 174.466 73.2751 174.597 72.2639C174.65 70.9674 174.86 69.6191 175.358 68.4523C175.567 67.856 175.934 67.2596 176.118 66.5855C176.694 64.9001 177.166 63.111 177.795 61.4256C178.529 59.455 178.686 57.3288 178.424 55.1768C178.136 53.8284 177.978 52.4542 177.769 51.1578C177.638 50.6392 177.507 50.1725 176.956 50.1206C176.38 50.0688 175.698 50.3021 175.62 50.9503C175.279 51.5986 174.86 52.0653 174.309 52.3764C173.759 52.6876 172.815 52.5579 172.579 51.8838C172.265 51.1578 172.082 50.4577 171.924 49.7835C171.898 49.1872 172.213 48.7205 172.71 48.2278C174.1 47.0869 175.672 47.1129 177.061 47.5018C178.345 47.8648 179.21 48.8242 180.206 49.5502C181.464 50.7688 182.355 52.0912 183.089 53.5692C183.796 55.3583 184.032 57.2251 184.059 59.1179C183.901 61.4256 183.796 63.9148 183.823 66.1965C183.718 67.5189 183.456 68.6857 182.801 69.7229C182.145 70.8119 182.014 72.0046 181.778 73.2492C181.359 75.4531 180.914 77.6571 180.416 79.8092C180.442 80.1722 180.18 80.613 179.918 81.0279C179.682 81.5205 179.289 82.1687 179.053 82.791C178.634 83.8282 177.69 84.2949 176.484 84.243C175.174 84.1912 173.785 84.1134 172.527 84.0615C171.374 83.9837 170.326 83.4911 169.513 82.791C168.439 82.0131 167.416 81.1575 166.473 80.4056C166.368 80.25 166.211 80.0944 166.158 79.9388C165.818 78.8498 165.425 77.8386 165.163 76.7496C164.979 76.0495 164.901 75.2716 164.691 74.4678C163.695 71.7712 163.328 68.8931 163.695 65.9632C164.009 63.5518 164.167 61.2182 164.429 58.8327C164.507 57.6919 164.638 56.6806 164.901 55.5657C164.979 55.1249 165.136 54.5285 165.32 54.0359C165.687 52.7654 166.132 51.6245 166.473 50.4836C166.814 50.1465 166.971 49.991 167.312 49.8354Z" fill="#87C400"/>
<path d="M197.897 58.288C197.635 59.4029 197.216 60.4919 197.085 61.6328C196.849 63.1626 196.875 64.6924 196.77 66.2741C196.744 66.4556 196.692 66.7149 196.692 66.9742L196.404 69.2041C196.325 69.9041 196.272 70.6042 196.246 71.2784C196.22 71.4599 192.603 75.1936 192.341 73.3008C192.105 71.408 192.184 70.7079 191.476 69.4633C190.69 67.8817 189.983 66.3259 189.668 64.5628C189.485 63.6293 189.222 62.7737 188.96 61.8402L188.725 61.8921C188.279 63.5516 187.702 65.2369 187.833 66.9223C187.886 67.8298 188.043 68.7114 187.755 69.5411C187.362 70.8635 187.624 72.2118 187.414 73.5601C187.231 75.0899 187.388 76.6456 187.336 78.1236C187.362 78.6681 187.178 79.2126 186.916 79.6534C186.811 79.9386 186.287 80.1201 185.946 80.0164C184.898 79.783 184.269 79.3163 184.138 78.0717C183.876 76.2826 183.771 74.4676 183.824 72.6785C183.85 71.7969 183.771 70.9672 183.797 70.1116C183.797 69.4374 184.007 68.7633 184.112 68.115C184.164 67.052 184.138 66.0148 184.164 64.9517C184.191 64.7702 184.191 64.5628 184.269 64.4331C184.846 63.007 184.662 61.555 184.767 60.0512L184.82 59.5326C185.711 57.7176 185.527 55.721 185.737 53.8282C185.842 52.3243 185.946 50.7686 186.392 49.3425C186.444 49.0832 186.575 48.798 186.575 48.5647C186.628 47.5016 187.283 46.983 188.279 46.6718C188.725 46.4903 189.432 46.7496 189.616 47.2682C189.851 48.2016 190.114 49.1869 190.402 50.0945L190.559 50.7427C190.847 51.8317 191.136 52.9985 191.424 54.0875L192.315 57.562C192.394 57.8472 192.394 58.1583 192.42 58.4695C192.551 59.74 192.682 60.9846 192.761 62.2551C192.918 61.6587 193.023 61.0883 193.127 60.5697C193.206 60.1808 193.363 59.8437 193.39 59.4548C193.599 57.8731 193.573 56.2655 194.097 54.7098C194.621 53.1541 194.621 51.4428 194.831 49.7833C194.962 48.1498 195.119 46.5163 195.696 44.8828C195.879 44.3382 195.958 43.7159 196.194 43.1714C196.666 42.3158 198.002 41.9269 198.788 42.3417C198.946 42.4195 199.103 42.5751 199.129 42.6788C199.575 43.6641 200.02 44.6753 200.046 45.7643C200.02 46.1533 200.23 46.4644 200.335 46.8533C200.623 47.9424 200.833 49.0054 201.095 50.1204C201.357 51.339 201.645 52.5058 201.933 53.6726C202.012 53.9579 202.064 54.1912 202.091 54.5024C201.933 56.7582 202.458 58.9103 203.27 61.0365C203.716 62.3329 204.004 63.6293 204.397 64.9517C204.502 65.1591 204.58 65.4703 204.711 65.6777C205.812 67.752 206.939 69.7486 208.014 71.7969C208.302 72.2118 208.721 72.6007 208.957 73.0934C209.167 73.4045 209.324 73.7935 209.272 74.1305C209.245 74.5195 208.931 74.701 208.485 74.7528C207.961 74.8825 207.516 75.064 206.939 75.064C205.969 75.1936 205.262 74.6232 204.738 73.949C204.24 73.223 203.847 72.3933 203.375 71.5895L201.593 68.2188C201.2 67.389 200.937 66.6112 200.544 65.7814C200.387 65.4444 200.125 65.0814 199.968 64.7443C199.601 63.5516 199.182 62.3588 198.867 61.1402C198.631 60.2067 198.5 59.1955 197.897 58.288Z" fill="#87C400"/>
<path d="M213.386 25.6436C214.094 25.7732 214.198 26.3696 214.408 26.94C214.801 28.2624 214.513 29.507 214.408 30.8293C214.251 32.411 214.172 34.0186 214.067 35.6003C214.041 36.7152 213.963 37.8561 213.936 38.971C213.884 40.2675 213.963 41.538 213.989 42.7826L214.041 42.9641C214.592 42.4455 215.142 41.901 215.745 41.3565C215.85 41.2787 216.033 41.2268 216.19 41.175C216.295 41.149 216.426 41.1231 216.531 41.0194C217.265 40.5267 217.972 40.0341 218.732 39.6192C219.021 39.4896 219.388 39.4637 219.702 39.4896C221.013 39.5414 222.349 39.6192 223.398 40.5267C224.027 40.9935 224.551 41.5898 225.022 42.2121C225.494 42.8863 225.887 43.5864 226.254 44.3124C226.464 44.6235 226.516 45.0384 226.543 45.4792C226.569 46.0755 226.49 46.7238 226.464 47.346C226.49 47.4498 226.464 47.5794 226.438 47.735C226.123 48.9277 225.73 50.0686 225.363 51.2613L224.97 52.843C224.682 55.0729 223.974 57.225 223.004 59.2993C222.611 60.2068 222.349 61.1143 222.035 62.0737C221.353 64.2776 220.619 66.4816 219.309 68.4781C218.864 69.2041 218.444 69.9301 217.527 70.2672C217.291 70.3191 217.16 70.7339 216.95 70.9673C216.662 71.2784 216.452 71.6414 216.138 71.9007C215.719 72.2378 215.273 72.3674 214.67 72.2119C214.041 71.9266 213.334 71.8748 212.6 71.6933L211.132 71.2525C211.132 71.5118 211.08 71.7711 211.027 72.0304C210.949 72.4711 210.896 72.9897 210.765 73.4046C210.634 73.8713 210.241 74.0269 209.796 74.0269C209.35 74.001 209.088 73.6639 209.114 73.275C208.983 71.7711 208.904 70.2413 208.826 68.7892C208.852 68.6077 208.852 68.3485 208.8 68.2447C208.275 67.441 208.066 66.6371 208.092 65.7037L208.564 58.0806C208.59 57.6398 208.695 57.1731 208.904 56.7064C209.402 55.4618 209.402 54.2431 209.245 52.9208C209.114 51.2354 209.14 49.5759 209.586 47.9165C210.031 46.0237 209.927 44.1309 209.927 42.2381C209.979 40.2675 210.136 38.245 209.953 36.2485C209.9 36.0151 209.979 35.8077 209.953 35.5743C210.189 34.3557 210.477 33.0333 210.608 31.7887C210.739 30.596 210.844 29.3255 210.608 28.1068C210.556 27.8734 210.477 27.6401 210.556 27.3808C210.582 27.1993 210.765 27.0178 210.922 26.8622C211.447 26.2399 212.233 26.1621 212.967 25.851L213.386 25.6436ZM212.783 65.5741C212.783 65.5741 212.731 65.6 212.731 65.6518C212.809 65.7556 212.888 65.9889 213.019 66.0149C213.438 66.2223 213.884 66.2223 214.225 65.8334C214.565 65.4963 214.906 65.1073 215.221 64.6666C216.95 62.3848 218.339 59.8697 219.755 57.3805C221.248 54.658 222.375 51.8058 222.952 48.7462C223.083 48.0461 223.004 47.2423 223.004 46.5163C222.952 45.6088 222.375 44.8309 222.506 43.8716C222.48 43.8197 222.244 43.6382 222.061 43.6123C221.275 43.2493 220.672 43.7679 220.095 44.1568C219.335 44.5976 218.732 45.168 217.999 45.7385C217.291 46.3607 216.557 46.9571 215.771 47.4757C215.09 47.9424 214.723 48.5388 214.618 49.2907C214.303 50.7168 214.067 52.2466 213.543 53.569C212.626 55.8248 212.495 58.2103 212.416 60.5698C212.338 61.5032 212.338 62.4367 212.259 63.3701C212.154 63.9405 212.18 64.511 212.547 65.0296C212.678 65.1592 212.731 65.3926 212.783 65.5741Z" fill="#87C400"/>
<path d="M231.548 36.3521C232.125 36.1965 232.491 36.4299 232.754 36.9225C233.068 37.6486 233.251 38.4005 233.042 39.2561C232.649 40.5785 232.622 42.0046 232.622 43.4307C232.649 43.7418 232.622 44.1048 232.57 44.4938C232.544 45.1161 232.518 45.7384 232.57 46.4125C232.754 48.0979 232.675 49.7833 232.439 51.4946C232.046 53.8023 231.81 56.084 231.469 58.3917C231.286 59.6103 230.971 60.8549 230.788 62.0736L230.028 67.8557C229.923 68.6854 229.582 69.0744 228.849 69.1262C228.377 69.2559 228.01 69.0225 227.957 68.6077C227.8 67.7779 227.643 66.8963 227.695 66.0925C227.695 64.6146 226.935 62.7736 227.931 61.6587C229.53 59.8696 228.246 57.6138 227.722 55.4876C227.46 54.4245 227.564 53.3874 227.905 52.3502C228.324 51.0797 228.22 49.6796 228.193 48.3313C228.167 46.983 228.298 45.5828 228.01 44.2604C227.984 44.1567 228.01 44.0271 228.036 43.8715C228.22 43.0936 228.508 42.2898 228.56 41.512C228.691 40.5526 228.639 39.6451 228.665 38.7116C228.665 38.4783 228.613 38.2968 228.508 38.0634C228.429 37.7263 228.482 37.4671 228.927 37.2855C229.504 37.0781 230.107 36.741 230.631 36.4299C230.657 36.4818 230.657 36.4818 230.709 36.5336L231.548 36.3521ZM232.308 28.4697C233.225 28.6772 233.33 28.8327 233.199 29.7921C233.016 31.2441 232.911 32.748 232.727 34.2259C232.701 34.6149 232.518 34.8223 232.151 34.926C231.496 35.0816 230.814 35.315 230.159 35.4187C229.74 35.5224 229.294 35.4446 228.849 35.4446C228.718 35.4187 228.56 35.2631 228.586 35.1335C228.534 34.6667 228.455 34.1741 228.482 33.7333L228.953 31.1663C229.006 31.0885 228.98 31.0367 228.98 30.9848C228.718 30.2588 229.242 29.3254 229.949 29.1439C230.369 29.0402 230.762 28.8846 231.102 28.7809L232.308 28.4697Z" fill="#87C400"/>
<path d="M248.4 27.0698C250.26 27.0439 251.597 28.107 252.881 29.2219C253.746 29.922 254.034 30.7776 253.877 31.9185C253.641 34.6929 251.938 36.482 250.077 38.2192C247.64 40.6047 245.071 42.9124 242.634 45.3237C241.9 46.0757 241.245 46.9054 240.223 47.3462C240.118 47.3721 240.013 47.5277 239.987 47.6573C239.594 48.9797 238.991 50.3021 238.965 51.7282C238.965 52.7135 239.436 53.5691 239.725 54.4248C240.013 55.2804 240.537 55.8768 241.114 56.4213C241.533 56.8621 241.926 56.9658 242.503 56.6806C243.735 56.1361 244.835 55.3582 245.543 54.1914C245.857 53.6728 246.382 53.3098 246.775 52.895C247.43 52.2467 248.059 51.5985 248.557 50.8466C249.448 49.7576 250.234 48.6426 251.125 47.5536C251.492 47.0869 252.043 46.7758 252.514 46.4128C253.196 45.9201 253.903 45.5052 254.663 45.0644C254.978 44.857 255.397 44.7533 255.738 45.1163C256.079 45.4534 256.131 45.8942 255.921 46.309C254.716 48.6426 253.746 51.1577 252.016 53.2061C250.549 54.9952 249.631 57.0177 248.426 58.9105C247.849 59.7921 247.22 60.5699 246.329 61.2181C245.91 61.5034 245.517 61.9182 245.176 62.3072C244.416 63.1887 243.394 63.3702 242.346 62.9035C241.166 62.4109 239.934 61.9701 238.729 61.3996C237.759 60.9589 236.999 60.2328 236.449 59.2735C235.793 58.2104 235.164 57.1473 234.562 56.0583L234.431 55.5916C234.457 54.4766 234.509 53.4135 234.588 52.3505C234.64 51.5985 234.824 50.8725 234.824 50.1465C234.981 47.3462 235.61 44.6496 236.868 42.1086C237.864 40.1898 238.755 38.2452 239.62 36.3005C240.223 34.9781 240.825 33.7076 241.717 32.5667C242.293 31.8666 242.843 31.1147 243.21 30.3368C243.577 29.6368 244.023 29.0923 244.704 28.6774C245.228 28.2885 245.779 27.9773 246.303 27.5884L248.4 27.0698ZM240.563 42.4716C240.563 42.4716 240.642 42.5234 240.694 42.4975C242.214 41.3825 243.735 40.3195 245.255 39.2045C246.146 38.5563 246.88 37.8044 247.509 36.845C247.823 36.3264 248.321 35.9115 248.688 35.367L250.444 32.463C250.653 32.0481 250.444 31.7889 250.051 31.6333C249.762 31.5296 249.5 31.3999 249.238 31.3999C248.085 31.5036 247.037 32.0222 246.224 32.7223C245.176 33.5261 244.547 34.6929 243.892 35.756C242.817 37.6747 241.769 39.6712 240.747 41.6678C240.616 41.9011 240.616 42.2123 240.563 42.4716Z" fill="#87C400"/>
</svg>
