<svg width="212" height="144" viewBox="0 0 212 144" fill="none" xmlns="http://www.w3.org/2000/svg">
<path d="M210.896 36.5008L202.868 37.9395C202.534 36.9093 202.006 35.9146 201.284 34.991C200.562 34.0674 199.594 33.2859 198.362 32.6997C197.129 32.0958 195.615 31.8116 193.767 31.8116C191.267 31.8116 189.172 32.38 187.5 33.499C185.827 34.618 184.982 36.0745 184.982 37.8507C184.982 39.3782 185.545 40.6216 186.672 41.5452C187.799 42.4866 189.612 43.2503 192.112 43.8365L199.33 45.5061C203.52 46.483 206.636 47.9928 208.678 50.0176C210.738 52.0425 211.759 54.689 211.759 57.9217C211.759 60.6748 210.967 63.1082 209.4 65.2574C207.833 67.3888 205.65 69.0762 202.851 70.284C200.052 71.4918 196.83 72.1135 193.151 72.1135C188.063 72.1135 183.908 71.0123 180.687 68.8098C177.465 66.6073 175.493 63.4812 174.771 59.4137L183.327 58.0993C183.855 60.3551 184.947 62.0425 186.619 63.197C188.292 64.3515 190.44 64.9199 193.098 64.9199C196.003 64.9199 198.309 64.316 200.052 63.0904C201.795 61.8649 202.657 60.3728 202.657 58.5966C202.657 57.1579 202.129 55.9501 201.073 54.991C200.016 54.0141 198.397 53.2858 196.231 52.7885L188.538 51.0833C184.295 50.1064 181.162 48.5611 179.137 46.4297C177.113 44.2983 176.109 41.5985 176.109 38.3303C176.109 35.6304 176.866 33.2503 178.363 31.2255C179.859 29.2006 181.936 27.602 184.577 26.4653C187.218 25.3285 190.246 24.7424 193.661 24.7424C198.573 24.7424 202.446 25.8081 205.263 27.9573C208.115 30.071 209.981 32.9306 210.896 36.5008Z" fill="white"/>
<path d="M51.2041 2.94848H49.6901C49.6549 2.69982 49.5668 2.46891 49.4436 2.27353C49.3204 2.07815 49.1795 1.91829 49.0035 1.77619C48.8274 1.6341 48.6338 1.54529 48.4225 1.47424C48.2113 1.40319 47.9648 1.36767 47.7183 1.36767C47.2606 1.36767 46.8733 1.47424 46.5212 1.70515C46.1691 1.93605 45.9051 2.25577 45.7114 2.69982C45.5177 3.14387 45.4121 3.65896 45.4121 4.29839C45.4121 4.93782 45.5177 5.47068 45.7114 5.91473C45.9051 6.35878 46.1867 6.67849 46.5212 6.9094C46.8733 7.12254 47.2606 7.24688 47.7183 7.24688C47.9648 7.24688 48.1937 7.21135 48.4225 7.1403C48.6338 7.06925 48.8274 6.98045 49.0035 6.83835C49.1795 6.71402 49.3204 6.55416 49.4436 6.35878C49.5668 6.1634 49.6549 5.95025 49.6901 5.70159H51.2041C51.1513 6.09235 51.028 6.46535 50.8344 6.82059C50.6407 7.17583 50.3942 7.47778 50.095 7.74421C49.7957 8.01064 49.4436 8.22378 49.0387 8.36588C48.6338 8.50797 48.1937 8.59678 47.7007 8.59678C46.9789 8.59678 46.3276 8.41916 45.7466 8.08169C45.1833 7.74421 44.7255 7.24687 44.391 6.60744C44.0566 5.96801 43.8981 5.20425 43.8981 4.29839C43.8981 3.39253 44.0566 2.62877 44.391 1.98934C44.7255 1.34991 45.1657 0.852574 45.7466 0.515097C46.31 0.17762 46.9613 0 47.6831 0C48.1409 0 48.5634 0.0710475 48.9683 0.195381C49.3556 0.319715 49.7253 0.515096 50.0245 0.763764C50.3414 1.01243 50.5879 1.31438 50.7816 1.68739C51.0104 2.06039 51.1336 2.48667 51.2041 2.94848Z" fill="white"/>
<path d="M52.5772 8.47244V0.124329H55.6757C56.3094 0.124329 56.8376 0.2309 57.2777 0.461805C57.7178 0.69271 58.0347 0.994664 58.2635 1.40319C58.4924 1.81171 58.598 2.27352 58.598 2.80638C58.598 3.33924 58.4924 3.80105 58.2635 4.19181C58.0347 4.58258 57.7002 4.88453 57.2777 5.09767C56.8376 5.31082 56.3094 5.41739 55.6757 5.41739H53.4751V4.15629H55.482C55.8517 4.15629 56.151 4.103 56.3974 3.99643C56.6263 3.88986 56.8024 3.73 56.9256 3.53462C57.0312 3.33924 57.1016 3.09057 57.1016 2.78862C57.1016 2.48667 57.0488 2.238 56.9256 2.02486C56.8024 1.81171 56.6263 1.65186 56.3974 1.54528C56.1686 1.43871 55.8517 1.38543 55.482 1.38543H54.1088V8.47244H52.5772ZM56.8376 4.68915L58.8797 8.47244H57.2073L55.2003 4.68915H56.8376Z" fill="white"/>
<path d="M59.4078 0.124329H61.0979L63.1224 3.81881H63.2105L65.235 0.124329H66.925L63.9146 5.3641V8.47244H62.4182V5.3641L59.4078 0.124329Z" fill="white"/>
<path d="M67.9813 8.47244V0.124329H71.0798C71.7135 0.124329 72.2417 0.248662 72.6818 0.479568C73.1219 0.710473 73.4388 1.04795 73.6676 1.45647C73.8965 1.865 74.0021 2.34457 74.0021 2.87743C74.0021 3.41029 73.8965 3.88986 73.6676 4.29839C73.4388 4.70691 73.1219 5.04439 72.6818 5.27529C72.2417 5.5062 71.7135 5.63053 71.0622 5.63053H69.0024V4.3872H70.8509C71.2206 4.3872 71.5199 4.31615 71.7663 4.19181C72.0128 4.06748 72.1712 3.88986 72.2945 3.65896C72.4001 3.42805 72.4705 3.16162 72.4705 2.87743C72.4705 2.59324 72.4177 2.32681 72.2945 2.0959C72.1712 1.865 71.9952 1.68738 71.7663 1.56305C71.5199 1.43871 71.2206 1.36766 70.8509 1.36766H69.4777V8.45468H67.9813V8.47244Z" fill="white"/>
<path d="M74.9352 1.40319V0.14209H81.5369V1.40319H78.9843V8.47244H77.5055V1.40319H74.9352Z" fill="white"/>
<path d="M90.1985 4.29839C90.1985 5.20425 90.04 5.96801 89.7055 6.60744C89.371 7.24687 88.9133 7.74421 88.35 8.08169C87.769 8.41916 87.1352 8.59678 86.4134 8.59678C85.6917 8.59678 85.0403 8.41916 84.4769 8.08169C83.9136 7.74421 83.4559 7.24687 83.1214 6.60744C82.7869 5.96801 82.6284 5.20425 82.6284 4.29839C82.6284 3.39253 82.7869 2.62877 83.1214 1.98934C83.4559 1.34991 83.9136 0.852574 84.4769 0.515097C85.0403 0.17762 85.6917 0 86.4134 0C87.1352 0 87.7866 0.17762 88.35 0.515097C88.9133 0.852574 89.371 1.34991 89.7055 1.98934C90.0224 2.62877 90.1985 3.41029 90.1985 4.29839ZM88.6845 4.29839C88.6845 3.65896 88.5788 3.1261 88.3852 2.69982C88.1915 2.25577 87.9275 1.93605 87.5754 1.70515C87.2233 1.47424 86.836 1.36767 86.3782 1.36767C85.9205 1.36767 85.5332 1.47424 85.1811 1.70515C84.829 1.93605 84.565 2.25577 84.3713 2.69982C84.1777 3.14387 84.072 3.67672 84.072 4.29839C84.072 4.93782 84.1777 5.47068 84.3713 5.89697C84.565 6.34102 84.829 6.66073 85.1811 6.89164C85.5332 7.12254 85.9205 7.22911 86.3782 7.22911C86.836 7.22911 87.2233 7.12254 87.5754 6.89164C87.9275 6.66073 88.1915 6.34102 88.3852 5.89697C88.5964 5.47068 88.6845 4.93782 88.6845 4.29839Z" fill="white"/>
<path d="M102.733 2.94848H101.219C101.184 2.69982 101.096 2.46891 100.973 2.27353C100.849 2.07815 100.708 1.91829 100.532 1.77619C100.356 1.6341 100.163 1.54529 99.9514 1.47424C99.7402 1.40319 99.4937 1.36767 99.2473 1.36767C98.7895 1.36767 98.4022 1.47424 98.0501 1.70515C97.698 1.93605 97.434 2.25577 97.2403 2.69982C97.0467 3.14387 96.941 3.65896 96.941 4.29839C96.941 4.93782 97.0467 5.47068 97.2403 5.91473C97.434 6.35878 97.7156 6.67849 98.0501 6.9094C98.4022 7.12254 98.7895 7.24688 99.2473 7.24688C99.4937 7.24688 99.7226 7.21135 99.9514 7.1403C100.163 7.06925 100.356 6.98045 100.532 6.83835C100.708 6.71402 100.849 6.55416 100.973 6.35878C101.096 6.1634 101.184 5.95025 101.219 5.70159H102.733C102.68 6.09235 102.557 6.46535 102.363 6.82059C102.17 7.17583 101.923 7.47778 101.624 7.74421C101.325 8.01064 100.973 8.22378 100.568 8.36588C100.163 8.50797 99.7226 8.59678 99.2297 8.59678C98.5079 8.59678 97.8565 8.41916 97.2755 8.08169C96.7122 7.74421 96.2545 7.24687 95.92 6.60744C95.5855 5.96801 95.427 5.20425 95.427 4.29839C95.427 3.39253 95.5855 2.62877 95.92 1.98934C96.2545 1.34991 96.6946 0.852574 97.2755 0.515097C97.8389 0.17762 98.4902 0 99.212 0C99.6698 0 100.092 0.0710475 100.497 0.195381C100.884 0.319715 101.254 0.515096 101.553 0.763764C101.87 1.01243 102.117 1.31438 102.31 1.68739C102.539 2.06039 102.663 2.48667 102.733 2.94848Z" fill="white"/>
<path d="M104.106 8.47244V0.124329H105.603V3.65896H109.44V0.124329H110.937V8.47244H109.44V4.92005H105.603V8.47244H104.106Z" fill="white"/>
<path d="M112.574 8.47244V0.124329H115.672C116.306 0.124329 116.834 0.2309 117.274 0.461805C117.715 0.69271 118.031 0.994664 118.26 1.40319C118.489 1.81171 118.595 2.27352 118.595 2.80638C118.595 3.33924 118.489 3.80105 118.26 4.19181C118.031 4.58258 117.697 4.88453 117.274 5.09767C116.834 5.31082 116.306 5.41739 115.672 5.41739H113.472V4.15629H115.479C115.848 4.15629 116.148 4.103 116.394 3.99643C116.623 3.88986 116.799 3.73 116.922 3.53462C117.028 3.33924 117.098 3.09057 117.098 2.78862C117.098 2.48667 117.046 2.238 116.922 2.02486C116.799 1.81171 116.623 1.65186 116.394 1.54528C116.165 1.43871 115.848 1.38543 115.479 1.38543H114.106V8.47244H112.574ZM116.834 4.68915L118.876 8.47244H117.204L115.197 4.68915H116.834Z" fill="white"/>
<path d="M127.362 4.29839C127.362 5.20425 127.204 5.96801 126.869 6.60744C126.535 7.24687 126.077 7.74421 125.513 8.08169C124.933 8.41916 124.299 8.59678 123.577 8.59678C122.855 8.59678 122.204 8.41916 121.64 8.08169C121.077 7.74421 120.619 7.24687 120.285 6.60744C119.95 5.96801 119.792 5.20425 119.792 4.29839C119.792 3.39253 119.95 2.62877 120.285 1.98934C120.619 1.34991 121.077 0.852574 121.64 0.515097C122.204 0.17762 122.855 0 123.577 0C124.299 0 124.95 0.17762 125.513 0.515097C126.077 0.852574 126.535 1.34991 126.869 1.98934C127.186 2.62877 127.362 3.41029 127.362 4.29839ZM125.848 4.29839C125.848 3.65896 125.742 3.1261 125.549 2.69982C125.355 2.25577 125.091 1.93605 124.739 1.70515C124.387 1.47424 123.999 1.36767 123.542 1.36767C123.084 1.36767 122.697 1.47424 122.345 1.70515C121.993 1.93605 121.728 2.25577 121.535 2.69982C121.341 3.14387 121.236 3.67672 121.236 4.29839C121.236 4.93782 121.341 5.47068 121.535 5.89697C121.728 6.34102 121.993 6.66073 122.345 6.89164C122.697 7.12254 123.084 7.22911 123.542 7.22911C123.999 7.22911 124.387 7.12254 124.739 6.89164C125.091 6.66073 125.355 6.34102 125.549 5.89697C125.76 5.47068 125.848 4.93782 125.848 4.29839Z" fill="white"/>
<path d="M135.583 0.124329V8.47244H134.245L130.355 2.78862H130.284V8.47244H128.788V0.124329H130.126L134.017 5.80815H134.087V0.124329H135.583Z" fill="white"/>
<path d="M138.699 0.124329V8.47244H137.203V0.124329H138.699Z" fill="white"/>
<path d="M147.414 2.94848H145.9C145.864 2.69982 145.776 2.46891 145.653 2.27353C145.53 2.07815 145.389 1.91829 145.213 1.77619C145.037 1.6341 144.843 1.54529 144.632 1.47424C144.421 1.40319 144.174 1.36767 143.928 1.36767C143.47 1.36767 143.083 1.47424 142.731 1.70515C142.379 1.93605 142.115 2.25577 141.921 2.69982C141.727 3.14387 141.622 3.65896 141.622 4.29839C141.622 4.93782 141.727 5.47068 141.921 5.91473C142.115 6.35878 142.396 6.67849 142.731 6.9094C143.083 7.12254 143.47 7.24688 143.928 7.24688C144.174 7.24688 144.403 7.21135 144.632 7.1403C144.843 7.06925 145.037 6.98045 145.213 6.83835C145.389 6.71402 145.53 6.55416 145.653 6.35878C145.776 6.1634 145.864 5.95025 145.9 5.70159H147.414C147.361 6.09235 147.238 6.46535 147.044 6.82059C146.85 7.17583 146.604 7.47778 146.305 7.74421C146.005 8.01064 145.653 8.22378 145.248 8.36588C144.843 8.50797 144.403 8.59678 143.91 8.59678C143.189 8.59678 142.537 8.41916 141.956 8.08169C141.393 7.74421 140.935 7.24687 140.601 6.60744C140.266 5.96801 140.108 5.20425 140.108 4.29839C140.108 3.39253 140.266 2.62877 140.601 1.98934C140.935 1.34991 141.375 0.852574 141.956 0.515097C142.52 0.17762 143.171 0 143.893 0C144.35 0 144.773 0.0710475 145.178 0.195381C145.565 0.319715 145.935 0.515096 146.234 0.763764C146.551 1.01243 146.798 1.31438 146.991 1.68739C147.22 2.06039 147.343 2.48667 147.414 2.94848Z" fill="white"/>
<path d="M148.787 8.47244V0.124329H150.283V7.19358H153.927V8.45468H148.787V8.47244Z" fill="white"/>
<path d="M155.23 8.47244V0.124329H160.6V1.38543H156.727V3.65896H160.336V4.92005H156.727V7.19358H160.635V8.45468H155.23V8.47244Z" fill="white"/>
<path d="M166.638 2.41562C166.603 2.06039 166.444 1.77619 166.163 1.58081C165.881 1.38543 165.529 1.27886 165.071 1.27886C164.754 1.27886 164.49 1.33215 164.261 1.42096C164.033 1.50977 163.874 1.65186 163.751 1.81172C163.628 1.97158 163.575 2.16696 163.575 2.36234C163.575 2.53996 163.61 2.68205 163.698 2.80639C163.786 2.93072 163.892 3.03729 164.015 3.1261C164.138 3.21491 164.297 3.28596 164.473 3.33925C164.631 3.39253 164.807 3.44582 164.983 3.48134L165.758 3.67672C166.075 3.74777 166.374 3.85434 166.656 3.97868C166.937 4.10301 167.201 4.26287 167.43 4.45825C167.659 4.65363 167.835 4.88453 167.976 5.15096C168.117 5.41739 168.17 5.73711 168.17 6.09235C168.17 6.58968 168.046 7.01597 167.8 7.38897C167.553 7.76197 167.201 8.04616 166.726 8.2593C166.251 8.47245 165.687 8.57902 165.036 8.57902C164.385 8.57902 163.839 8.47245 163.364 8.27707C162.888 8.08168 162.519 7.77973 162.254 7.38897C161.99 6.99821 161.85 6.5364 161.832 5.98577H163.311C163.328 6.26997 163.416 6.51863 163.575 6.71402C163.733 6.9094 163.927 7.05149 164.191 7.1403C164.437 7.22911 164.719 7.2824 165.036 7.2824C165.37 7.2824 165.652 7.22911 165.899 7.1403C166.145 7.05149 166.339 6.9094 166.48 6.73178C166.62 6.55416 166.691 6.34101 166.691 6.11011C166.691 5.89697 166.62 5.71935 166.497 5.57725C166.374 5.43516 166.198 5.31082 165.987 5.22201C165.758 5.1332 165.511 5.04439 165.212 4.95558L164.279 4.70692C163.592 4.5293 163.064 4.26287 162.659 3.90763C162.272 3.55239 162.061 3.07282 162.061 2.46891C162.061 1.97158 162.202 1.54529 162.466 1.17229C162.73 0.799287 163.099 0.515097 163.557 0.301953C164.015 0.0888098 164.525 0 165.106 0C165.687 0 166.216 0.106572 166.656 0.301953C167.096 0.515097 167.448 0.799287 167.694 1.15453C167.941 1.50977 168.082 1.93605 168.082 2.39786H166.638V2.41562Z" fill="white"/>
<path d="M13.6004 71.1721L0.220886 25.3107H9.35772L18.2657 58.9874H18.7058L27.649 25.3107H36.7858L45.6586 58.8453H46.0987L54.9715 25.3107H64.1083L50.7639 71.1721H41.7327L32.5079 38.0638H31.8213L22.5964 71.1721H13.6004Z" fill="white"/>
<path d="M76.7133 72.1846C73.8261 72.1846 71.2206 71.634 68.8968 70.5505C66.573 69.467 64.7245 67.8862 63.3689 65.8258C62.0133 63.7477 61.3444 61.2255 61.3444 58.2059C61.3444 55.6127 61.8373 53.4813 62.8232 51.8116C63.809 50.142 65.147 48.8099 66.8194 47.833C68.4919 46.8561 70.3756 46.1278 72.4353 45.6305C74.5127 45.1331 76.6252 44.7601 78.773 44.4937C81.5017 44.174 83.7023 43.9076 85.41 43.6944C87.1 43.4813 88.3323 43.1438 89.107 42.6642C89.8816 42.1847 90.2689 41.4031 90.2689 40.3374V40.1243C90.2689 37.5133 89.5471 35.4884 88.0859 34.0675C86.6423 32.6287 84.4769 31.9183 81.625 31.9183C78.6498 31.9183 76.3083 32.5754 74.6007 33.9076C72.893 35.2397 71.7135 36.6962 71.0621 38.3126L62.7527 36.412C63.7386 33.6234 65.1822 31.3676 67.0835 29.6447C68.9848 27.9218 71.1854 26.6607 73.6676 25.8792C76.1499 25.0977 78.773 24.7069 81.5193 24.7069C83.3326 24.7069 85.2691 24.9201 87.3113 25.3463C89.3534 25.7726 91.2723 26.5541 93.0504 27.6909C94.8285 28.8277 96.3073 30.444 97.4516 32.5399C98.5959 34.6358 99.1768 37.3534 99.1768 40.7104V71.1722H90.5329V64.9022H90.1808C89.5999 66.0567 88.7549 67.1935 87.6106 68.3125C86.4663 69.4315 84.9875 70.3551 83.2094 71.0834C81.3785 71.8294 79.2307 72.1846 76.7133 72.1846ZM78.6498 65.0265C81.0968 65.0265 83.1918 64.5292 84.9346 63.57C86.6775 62.5931 88.0155 61.3143 88.9309 59.7335C89.8464 58.1527 90.3041 56.4475 90.3041 54.6358V48.7211C89.9872 49.0408 89.3886 49.325 88.4908 49.6092C87.593 49.8756 86.5719 50.1065 85.4276 50.3019C84.2833 50.4973 83.1742 50.6571 82.0827 50.817C80.9912 50.9591 80.0934 51.0834 79.354 51.19C77.6287 51.4031 76.0795 51.7761 74.6711 52.2912C73.2627 52.8063 72.136 53.5523 71.291 54.5115C70.446 55.4706 70.0411 56.7495 70.0411 58.348C70.0411 60.5505 70.8509 62.2201 72.4705 63.3569C74.0726 64.4581 76.1323 65.0265 78.6498 65.0265Z" fill="white"/>
<path d="M156.48 72.0957C152.009 72.0957 148.153 71.1188 144.931 69.1828C141.71 67.2467 139.228 64.5114 137.467 60.9767C135.724 57.4421 134.844 53.3036 134.844 48.5434C134.844 43.8542 135.724 39.6979 137.467 36.1278C139.21 32.5399 141.657 29.7512 144.808 27.7441C147.959 25.737 151.639 24.7246 155.864 24.7246C158.434 24.7246 160.916 25.1509 163.328 26.0035C165.74 26.856 167.888 28.206 169.807 30.0354C171.726 31.8649 173.222 34.245 174.331 37.158C175.44 40.0709 175.986 43.6056 175.986 47.7796V50.9412H139.844V44.245H167.307C167.307 41.9004 166.832 39.8045 165.881 37.9928C164.93 36.1633 163.61 34.7423 161.902 33.6766C160.195 32.6287 158.205 32.0958 155.917 32.0958C153.434 32.0958 151.269 32.6997 149.421 33.9253C147.572 35.1509 146.164 36.7494 145.16 38.7033C144.157 40.6571 143.664 42.7885 143.664 45.0798V50.3018C143.664 53.3746 144.21 55.9679 145.284 58.1171C146.357 60.2663 147.871 61.9004 149.79 63.0371C151.727 64.1561 153.98 64.7245 156.568 64.7245C158.241 64.7245 159.772 64.4758 161.163 63.9963C162.536 63.5167 163.733 62.7707 164.737 61.7938C165.74 60.8169 166.515 59.6091 167.043 58.1881L175.423 59.7156C174.754 62.2023 173.557 64.387 171.831 66.2343C170.106 68.0993 167.941 69.538 165.353 70.5682C162.747 71.5806 159.79 72.0957 156.48 72.0957Z" fill="white"/>
<path d="M120.39 38.2947C121.623 38.277 122.274 39.0585 122.802 40.0709C123.911 42.2024 124.774 44.4404 124.756 46.856C124.774 50.3018 125.003 53.7654 125.707 57.1046C126.182 59.2005 126.27 61.3497 126.535 63.4457C126.834 64.8844 127.045 66.3586 127.432 67.7618C128.682 72.1312 129.263 76.6961 129.439 81.2254C129.457 82.4687 129.686 83.7298 129.897 85.204C131.094 83.641 132.362 82.2556 133.524 80.8168C135.548 78.2591 137.449 75.6659 139.474 73.1082C140.618 71.6694 141.692 70.2662 143.277 69.3604C143.77 69.0407 144.386 68.5611 145.002 69.0229C145.583 69.3959 145.495 70.1774 145.248 70.7991C144.931 71.776 144.368 72.6463 143.946 73.57L143.118 75.2929C142.801 75.7547 142.344 76.1454 142.027 76.6073C141.886 76.7671 141.657 76.9803 141.569 77.2289C139.509 80.4261 137.449 83.6232 135.425 86.9092L131.552 93.3923C132.573 94.1028 133.524 94.6179 134.351 95.3284C136.921 97.2467 139.544 99.2537 142.167 101.243L146.833 104.867C147.801 105.701 148.822 106.625 149.72 107.495C150.53 108.188 151.251 109.129 152.466 109.325C152.554 109.289 152.783 109.822 152.677 110.071C152.589 110.835 151.973 111.314 151.111 111.279C148.664 111.403 146.674 110.586 144.843 108.97C143.47 107.691 141.692 106.678 140.178 105.559C138.048 103.978 135.495 103.09 133.224 101.883C132.432 101.492 131.781 100.941 130.918 100.373C130.936 101.616 130.953 102.664 130.989 103.694L131.446 111.332C131.569 113.57 131.869 115.968 131.992 118.206C132.062 118.597 132.08 118.898 132.062 119.325C131.957 120.533 131.393 121.172 130.32 121.332C129.545 121.456 128.982 120.87 128.524 119.804C127.679 117.566 127.168 115.168 126.834 112.682C126.288 108.739 125.742 104.778 124.985 100.817C124.704 98.9518 124.035 97.1401 123.595 95.3461L121.552 87.8683C121.359 86.9092 121.236 85.9145 121.253 84.9731C121.447 81.5451 120.919 78.117 120.126 74.7955C119.563 72.7352 119.352 70.5327 118.824 68.3479C118.489 66.6073 117.996 64.9377 117.486 63.2858C117.081 62.0957 117.098 60.9412 116.975 59.6446C116.975 56.7139 117.01 53.872 116.394 50.9945C116.095 49.5558 115.884 48.0816 115.444 46.5896C115.197 45.5416 114.757 44.4759 114.423 43.4812C114.123 42.7707 114.106 42.2556 114.915 41.705C115.584 41.3143 116.007 40.6038 116.553 39.9466L120.39 38.2947Z" fill="#FF00CF"/>
<path d="M58.6156 66.3231C58.9325 66.6073 59.355 66.8382 59.7599 67.0869C59.6719 67.1224 59.7071 67.2112 59.6191 67.2468C59.8832 67.1402 60.0944 67.1402 60.2353 66.9803C62.8055 65.2397 65.6399 64.316 68.6503 63.8542C69.8122 63.6588 71.0093 63.7832 72.1888 63.8897C73.8789 64.2095 74.7943 65.3817 75.0408 66.9448C75.3577 68.8986 75.5866 70.888 75.8154 72.8951C75.9034 74.316 75.8154 75.8258 75.6922 77.229C75.569 78.6499 75.3577 80.0886 74.9352 81.5274C74.407 83.4279 73.8965 85.435 73.1571 87.3177C72.2769 89.3781 71.0445 91.3675 69.5305 93.1792C67.9813 94.9021 66.3089 96.5717 65.411 98.8453C64.9533 100.195 64.3196 101.616 64.0203 103.108C63.8442 103.907 64.0555 104.867 64.1259 105.79C64.1963 106.181 64.3372 106.536 64.3196 106.962C63.9675 110.994 64.9885 114.831 65.4286 118.827C65.6927 121.634 65.9216 124.369 66.0976 127.211C66.2209 130.408 66.2385 133.641 66.2737 136.856C66.2913 138.099 66.2209 139.396 66.0976 140.586C65.904 141.829 65.2878 142.824 64.0203 143.268C62.964 143.73 62.2774 143.303 61.9077 142.202L61.6612 140.852C61.3092 138.81 60.8338 136.714 60.4817 134.671C60.1296 131.9 59.9008 129.165 59.5487 126.394C58.8621 121.882 59.091 117.282 58.7917 112.7C58.6861 110.764 58.3692 108.81 58.1051 106.714C57.8234 107.034 57.6474 107.335 57.4537 107.62C56.5735 108.739 55.658 109.964 54.7778 111.083L54.5842 111.367C54.0032 111.936 52.9645 112.184 52.5068 111.847C52.0491 111.527 51.6618 110.124 51.9083 109.485L52.4012 108.437C53.4751 106.82 54.3025 105.097 55.5348 103.623C56.7143 102.273 56.6263 101.065 56.239 99.4492C55.7813 97.6552 55.8517 95.8612 55.6933 94.0318C55.6757 93.7298 55.5524 93.4634 55.6228 93.1259L55.4644 89.1117C55.4996 87.744 55.5348 86.3586 55.4468 84.9377C55.394 82.8773 55.2179 80.7458 55.0419 78.6322C55.0947 78.5078 55.0243 78.3302 54.8658 77.975C54.0208 78.4368 53.1582 78.8275 52.4716 79.4314C50.3766 81.0655 48.088 82.2734 45.7642 83.3924C45.0952 83.7831 44.4791 84.2627 43.8101 84.6535C43.3172 84.9732 42.789 85.4172 42.2961 84.9909C41.768 84.4936 42.0144 83.8542 42.3137 83.3213C42.3665 83.197 42.3665 83.197 42.3665 83.197L46.4156 77.8862C46.7325 77.4243 47.2606 77.2112 47.6303 76.8382C49.1619 75.3284 50.7463 73.9252 52.278 72.4155C52.6829 72.1313 52.9997 71.6872 53.3518 71.5274C54.144 71.1899 54.4609 70.7281 54.4257 69.911C54.3729 68.5789 55.4644 68.2059 56.3446 67.6198C57.0136 67.229 57.665 66.8382 58.334 66.4475L58.6156 66.3231ZM62.5239 93.4989C63.2105 92.6819 63.9499 91.7227 64.6012 90.8169C66.3617 88.3835 68.2806 86.0744 69.8826 83.4989C71.0093 81.7583 71.872 79.911 71.7487 77.673C71.7311 76.6428 71.5199 75.6837 71.4142 74.689C71.2206 73.5167 71.115 72.3089 70.8509 71.1721C70.4812 69.5558 69.0904 69.0052 67.5764 69.5558C65.3582 70.4084 63.4745 71.8649 61.6612 73.1792C61.1155 73.6233 60.8338 74.1562 61.0099 74.8133L61.1683 77.3533C61.2387 78.2592 61.45 79.2183 61.3972 80.0709C61.2035 84.5646 61.626 88.9696 62.5239 93.4989Z" fill="#FF00CF"/>
<path d="M86.5895 128.348C87.3289 128.135 87.4345 127.673 87.5577 126.98C88.6844 121.367 88.6668 115.719 88.1035 110.018C88.0155 108.597 88.2267 107.14 88.1915 105.595C88.1211 104.476 88.2795 103.144 88.0155 102.007C87.3817 98.8275 87.3641 95.5948 87.2056 92.3266C87.188 91.0833 86.9592 89.8222 86.8183 88.5078C86.6247 86.6073 86.343 84.7423 86.167 82.824C86.1846 82.3977 86.3078 81.705 86.7127 81.4386C87.3465 80.7458 88.1563 80.1952 88.8957 79.7512C89.5647 79.3604 90.1456 79.5203 90.6738 80.0354L93.3849 83.4634C93.6666 83.8719 93.7194 84.4758 93.8426 85.0442C94.2123 87.3888 94.5468 89.8577 94.9693 92.2911C95.251 93.943 95.7263 95.5238 95.92 97.2112C96.1664 100.231 96.3425 103.304 96.3777 106.323C96.3777 107.78 96.0784 109.272 95.9552 110.692C95.4798 114.458 95.5327 118.206 95.5679 121.954C95.6207 124.014 95.5327 126.252 95.3742 128.312C95.1806 130.284 95.0221 132.344 94.5644 134.209C94.1243 135.861 93.4729 137.495 92.6631 139.005C91.8181 140.426 90.1984 141.012 88.5436 140.781C87.9098 140.746 87.3817 140.248 86.8007 139.858C85.8325 139.023 84.8994 138.064 83.8784 137.371C81.9595 135.79 80.6567 133.961 80.287 131.403C80.0933 129.716 79.4596 127.993 79.1603 126.341C78.685 124.245 78.3329 122.202 77.9808 120.16C77.6111 118.543 77.3118 116.891 77.0301 115.24C76.6956 113.499 76.4668 111.723 76.3436 110C76.1499 109.041 76.0267 108.046 75.9563 107.14C75.9386 106.625 75.7978 106.27 75.7802 105.755C75.5866 103.126 75.3577 100.391 75.3401 97.673C75.3049 96.8559 75.4809 96.0389 75.7802 95.2929C76.1851 94.2804 76.9597 94.1561 77.8223 94.7245C78.016 94.9554 78.3153 95.133 78.5617 95.2396C79.7765 95.6481 80.1814 96.625 80.5511 97.7263C80.8327 98.863 81.3961 99.9643 81.6778 101.101C82.0123 102.113 82.3291 103.126 82.2763 104.192C82.1707 106.128 82.6988 107.868 83.0685 109.698L83.3326 111.048C83.6671 112.575 84.0192 114.103 84.2657 115.666C84.4593 117.566 84.7762 119.52 84.7938 121.51C84.7762 123.179 85.1283 124.707 85.7621 126.216C86.0789 126.909 86.2902 127.637 86.5895 128.348Z" fill="#FF00CF"/>
<path d="M111.571 99.2893C111.553 97.9039 111.535 96.5184 111.43 95.1685C111.394 93.5522 111.183 91.9181 111.007 90.355C110.99 89.9465 110.99 89.538 111.095 89.2538C111.764 87.4066 111.641 85.5771 111.412 83.6943C111.166 81.0123 111.377 78.4545 112.028 75.7903C112.451 74.1206 112.592 72.3444 112.82 70.6038C112.926 69.8933 113.032 69.2006 113.313 68.5079C113.437 68.2059 113.771 67.6553 114 67.6375C114.599 67.7086 115.303 67.6375 115.637 68.4013C116.447 70.1064 117.01 71.8293 117.01 73.7121C116.94 75.4705 117.116 77.1934 117.151 78.9874C117.169 80.3728 117.134 81.7938 117.081 83.197C117.098 83.6055 117.028 84.0318 117.046 84.4403C117.186 87.8328 117.362 91.1188 117.574 94.4758C117.591 94.7067 117.609 94.9554 117.574 95.2218C117.222 97.2644 117.38 99.3248 117.697 101.403C117.926 103.268 118.454 105.097 118.014 106.927C117.961 107.371 118.137 107.78 118.172 108.259L118.524 112.54C118.507 112.7 118.63 112.984 118.788 113.161C120.074 114.831 121.482 116.43 122.767 118.081C123.172 118.65 123.366 119.307 123.489 119.982C123.63 120.906 122.644 121.829 121.517 121.829C121.147 121.9 120.778 121.811 120.373 121.829L119.246 121.492C118.384 123.268 115.479 123.534 114.317 121.74C113.542 120.515 113.155 119.2 113.243 117.691C113.225 117.282 113.225 116.874 113.137 116.501C112.891 114.387 112.328 112.504 111.025 110.764C110.391 110.053 109.845 109.147 109.247 108.33C108.965 107.868 108.701 107.424 108.49 106.927L106.184 101.527C105.919 100.906 105.55 100.408 105.074 99.8755C105.004 100.071 104.951 100.337 104.969 100.586C104.846 101.456 104.705 102.256 104.687 103.161C104.652 104.991 104.581 106.909 105.127 108.792C105.497 109.858 105.427 111.208 105.462 112.433C105.497 112.913 105.409 113.446 105.444 113.925C105.532 115.275 105.726 116.678 105.884 118.01C106.06 119.751 106.43 121.385 106.641 123.019C106.8 124.351 107.187 125.648 106.852 126.945C106.606 127.708 106.131 128.33 105.374 128.241C103.772 128.117 102.575 127.566 102.099 125.719C101.289 123.037 100.673 120.266 100.356 117.442C100.145 115.808 99.7402 114.103 99.5994 112.433C99.4233 110.692 99.4233 108.97 99.4057 107.193C99.3529 106.891 99.212 106.536 99.124 106.163C99.0888 105.684 98.8776 105.204 98.9656 104.831C99.3705 102.931 99.0712 101.083 98.7895 99.2538C98.5959 97.8506 98.9656 96.625 98.9832 95.3106C99.0536 92.9838 98.7895 90.6392 98.6487 88.4012C98.455 86.0211 98.1734 83.6766 98.5431 81.2965C98.5959 80.8524 98.6135 80.5327 98.6135 80.1242C98.4727 78.4545 99.3705 77.4954 100.673 76.7672C101.254 76.4297 102.416 76.6606 102.715 77.3533C103.367 78.7032 103.965 80.0886 104.652 81.5274C104.828 81.9359 105.11 82.3977 105.286 82.8062C106.007 84.7067 106.835 86.6428 107.645 88.5078C108.032 89.4137 108.419 90.3018 108.736 91.2431C109.088 92.078 109.141 92.9483 109.423 93.8186C109.898 95.506 110.444 97.1579 111.007 98.8808C111.06 99.0229 111.13 99.165 111.254 99.2715C111.324 99.3071 111.465 99.2538 111.571 99.2893Z" fill="#FF00CF"/>
<path d="M168.909 57.3889C169.86 57.9217 170.141 58.8453 169.912 59.9821C169.772 60.3551 169.824 60.7459 169.772 61.1011C169.525 62.4688 168.979 63.6411 168.029 64.5647L162.096 70.586C159.79 72.9483 157.519 75.3995 155.072 77.7085C153.98 78.8098 152.73 79.7689 151.604 80.7813C151.41 81.0655 151.199 81.2787 150.864 81.7227C153.505 81.8293 156.005 82.1135 158.575 82.0424C160.107 82.0069 161.638 81.4385 163.24 81.0655C164.842 80.6925 167.307 81.5984 168.117 83.0193C168.504 83.6943 169.243 84.2094 169.42 84.8666C170.546 88.9874 169.912 92.8062 167.659 96.3053C166.673 97.8861 165.441 99.1472 164.297 100.586C163.839 101.208 163.328 101.74 163.047 102.273C162.149 103.819 161.057 105.133 159.948 106.447C158.522 108.224 157.484 110.142 156.058 111.9C154.068 114.547 152.009 116.998 150.019 119.644C148.681 121.367 147.431 123.073 146.357 124.902C145.565 125.968 144.562 126.518 143.347 126.838C142.608 127.051 141.903 126.625 141.657 125.79C141.006 123.765 140.988 121.794 142.044 119.662C143.523 116.82 145.671 114.529 147.695 111.989C150.09 108.863 152.413 105.541 154.808 102.415C155.6 101.35 156.639 100.373 157.501 99.2538C158.012 98.5078 158.487 97.673 158.998 96.9269L162.413 91.7937C162.976 90.9234 163.452 90.0886 163.98 89.1294C163.522 89.0229 163.258 88.9163 163.011 88.8097C160.564 88.4012 158.205 88.49 155.758 88.8275C153.399 89.1294 150.952 89.4492 148.54 89.6623C147.942 89.7156 147.308 89.6801 146.621 89.5557C145.442 89.4492 144.579 88.6676 144.35 87.4065C144.157 86.2342 143.928 84.9732 143.928 83.7298C143.91 83.2147 144.245 82.7529 144.439 82.2556C145.6 79.8755 146.974 77.4954 148.752 75.3639C151.445 72.2023 154.702 69.6446 157.73 66.7672C158.716 65.9146 159.579 65.0265 160.564 64.1739C162.36 62.5576 164.332 61.0833 166.215 59.4137C166.585 59.0407 166.902 58.5967 167.219 58.1349L168.909 57.3889Z" fill="#FF00CF"/>
<path d="M139.157 25.3107L122.679 71.1721H113.208L96.6946 25.3107H106.201L117.715 60.6037H118.19L129.668 25.3107H139.157Z" fill="white"/>
</svg>
