<svg width="404" height="320" viewBox="0 0 404 320" fill="none" xmlns="http://www.w3.org/2000/svg">
<path d="M404 84.8V302C404 311.9 395.9 320 386 320H80L0 240L240 0H319.2L404 84.8Z" fill="#FFD645"/>
<path d="M106.499 302.9C209.699 286.8 383.799 209.4 383.799 209.4L364.999 175.4L125.699 244.4L106.499 302.9Z" fill="#FFA748"/>
<path d="M106.599 303.6L105.899 302.8L125.199 244.3L125.599 243.9L364.899 174.9L365.599 175.2L384.399 209.2L384.099 210.1C383.699 210.3 339.899 229.7 284.099 250.8C251.299 263.2 220.899 273.8 193.599 282.2C159.399 292.7 130.199 299.9 106.599 303.6ZM126.299 244.9L107.499 302.1C130.799 298.4 159.699 291.3 193.199 280.9C220.499 272.5 250.899 261.9 283.699 249.5C335.799 229.8 377.399 211.5 382.999 209.1L364.799 176.2L126.299 244.9Z" fill="black"/>
<path d="M106.5 302.9C145.1 274.4 318.1 191.9 383.8 209.4L370.8 124L382.2 25.6001L343.4 63.6001L315.7 67.3001L334.6 88.0001L328 123.1C268 117.9 235.1 140.5 235.1 140.5L223.6 111.5L247.6 85.6001L216.7 87.8001L181.7 55.0001L177.8 101.3L155.3 122.7L183.1 124.8L196.2 155.5C140.5 175.4 106.1 204.5 106.1 204.5L91.0998 188.8L109.9 157.8L64.8998 168.1L17.2998 163.8L79.3998 234.9C79.3998 234.8 106.9 298.3 106.5 302.9Z" fill="#FFD645"/>
<path d="M106.9 303.4L105.9 302.8C106.2 299.6 89.8998 260.6 78.8998 235.1L16.7998 164.1L17.2998 163L64.7998 167.3L109.7 157.1L110.4 158.1L91.7998 188.7L106.1 203.7C108.1 202.1 116.4 195.4 129.9 187C144 178.1 166.8 165.5 195.3 155.2L182.6 125.5L155.1 123.5L154.7 122.4L177 101L180.9 55.0001L182 54.6001L216.8 87.2001L247.4 85.0001L248 86.0001L224.3 111.6L235.4 139.5C237.7 138.1 245.7 133.4 258.9 129.2C268.1 126.3 277.9 124.2 288.1 122.9C300.7 121.4 314 121.2 327.5 122.3L333.9 88.1001L315.3 67.6001L315.7 66.5001L343.2 62.9001L381.8 25.1001L382.9 25.6001L371.5 124L384.5 209.3L383.7 210C368.5 205.9 346.5 207 318.4 213.2C294.3 218.5 266.3 227.3 235.3 239.4C191.6 256.5 131.6 285.1 106.9 303.4ZM18.7998 164.5L79.8998 234.4L79.9998 234.6C82.6998 240.8 104.9 292.3 107 301.8C127.2 287.2 179.9 259.8 234.8 238.3C265.9 226.1 293.9 217.3 318.1 212C345.9 205.9 367.8 204.8 383.1 208.6L370.2 124.2V124L381.4 27.4001L343.9 64.1001L343.5 64.3001L317 67.8001L335 87.6001L335.2 88.1001L328.6 123.2L327.9 123.7C297 121 273.5 125.8 259.2 130.4C243.7 135.3 235.4 140.9 235.3 141L234.3 140.7L222.8 111.7L222.9 111L246 86.4001L216.7 88.5001L216.2 88.3001L182.1 56.4001L178.3 101.4L178.1 101.8L156.6 122.2L183 124.2L183.5 124.6L196.6 155.3L196.2 156.2C167.5 166.4 144.6 179.2 130.4 188.1C115.1 197.7 106.4 205 106.3 205.1H105.4L90.3998 189.4L90.2998 188.6L108.3 158.9L64.9998 168.6H64.7998L18.7998 164.5Z" fill="black"/>
<path d="M97.4002 277.4L96.7002 276.3C121 260.4 173.3 233.3 231.1 211.2C261.5 199.5 289.1 191 313.1 185.7C340.9 179.6 363.2 178.1 379.4 181.4L379.1 182.7C363.1 179.5 341 180.9 313.3 187C289.4 192.2 261.9 200.8 231.5 212.5C173.9 234.4 121.6 261.5 97.4002 277.4Z" fill="black"/>
<path d="M122.725 265.259L118.428 279.63L132.799 283.928L137.097 269.556L122.725 265.259Z" fill="#FFD645"/>
<path d="M132.599 284.5L118.299 280.2L117.899 279.4L122.199 265.1L122.999 264.7L137.299 269L137.699 269.8L133.399 284.1L132.599 284.5ZM119.199 279.1L132.299 283L136.199 269.9L123.099 266L119.199 279.1Z" fill="black"/>
<path d="M149.731 250.734L145.434 265.106L159.805 269.403L164.103 255.032L149.731 250.734Z" fill="#FFD645"/>
<path d="M159.5 270L145.2 265.7L144.8 264.9L149.1 250.6L149.9 250.2L164.2 254.5L164.6 255.3L160.3 269.6L159.5 270ZM146.2 264.6L159.3 268.5L163.2 255.4L150.1 251.5L146.2 264.6Z" fill="black"/>
<path d="M179.417 236.501L175.119 250.873L189.491 255.17L193.788 240.799L179.417 236.501Z" fill="#FFD645"/>
<path d="M189.3 255.8L175 251.5L174.6 250.7L178.9 236.4L179.7 236L194 240.3L194.4 241.1L190.1 255.4L189.3 255.8ZM175.9 250.5L189 254.4L192.9 241.3L179.8 237.4L175.9 250.5Z" fill="black"/>
<path d="M210.154 222.569L205.19 236.724L219.346 241.688L224.309 227.532L210.154 222.569Z" fill="#FFD645"/>
<path d="M219 242.3L204.9 237.4L204.5 236.6L209.4 222.5L210.2 222.1L224.3 227L224.7 227.8L219.8 241.9L219 242.3ZM206 236.3L218.9 240.8L223.4 227.9L210.5 223.4L206 236.3Z" fill="black"/>
<path d="M243.699 210.034L237.532 223.708L251.206 229.874L257.373 216.2L243.699 210.034Z" fill="#FFD645"/>
<path d="M250.9 230.5L237.3 224.4L237 223.6L243.1 210L243.9 209.7L257.5 215.8L257.8 216.6L251.7 230.2L250.9 230.5ZM238.4 223.4L250.9 229L256.5 216.5L244 211L238.4 223.4Z" fill="black"/>
<path d="M276.866 198.742L270.611 212.376L284.245 218.631L290.5 204.997L276.866 198.742Z" fill="#FFD645"/>
<path d="M283.9 219.1L270.3 212.9L270 212.1L276.2 198.5L277 198.2L290.6 204.4L290.9 205.2L284.7 218.8L283.9 219.1ZM271.4 212L283.8 217.7L289.5 205.3L277.1 199.6L271.4 212Z" fill="black"/>
<path d="M313.192 188.727L305.128 201.375L317.776 209.439L325.84 196.791L313.192 188.727Z" fill="#FFD645"/>
<path d="M317.4 210L304.8 202L304.6 201.1L312.6 188.5L313.5 188.3L326.1 196.3L326.3 197.2L318.3 209.8L317.4 210ZM306 201.2L317.5 208.6L324.9 197.1L313.4 189.7L306 201.2Z" fill="black"/>
<path d="M348.926 183.066L340.345 195.369L352.648 203.951L361.229 191.648L348.926 183.066Z" fill="#FFD645"/>
<path d="M352.3 204.5L340 195.9L339.8 195L348.4 182.7L349.3 182.5L361.6 191.1L361.8 192L353.2 204.3L352.3 204.5ZM341.3 195.2L352.5 203L360.3 191.8L349.1 184L341.3 195.2Z" fill="black"/>
<path d="M380.1 184.9L383 204.7L371.5 195.1L380.1 184.9Z" fill="#FFD645"/>
<path d="M382.6 205.2L371.2 195.6L371.1 194.7L379.6 184.5L380.7 184.8L383.6 204.6L382.6 205.2ZM372.5 195L382.2 203.1L379.8 186.4L372.5 195Z" fill="black"/>
<path d="M105.6 298.7L97.5996 279.1L111.4 284.9L105.6 298.7Z" fill="#FFD645"/>
<path d="M106.2 299H105L97 279.4L97.8 278.6L111.6 284.4L111.9 285.2L106.2 299ZM98.8 280.3L105.6 297L110.6 285.2L98.8 280.3Z" fill="black"/>
<path d="M163.2 117.9L191.1 100.6L183.9 65.9001L182.5 100.6L163.2 117.9Z" fill="#FFEAB0"/>
<path d="M24.2002 166.9C25.9002 167.5 66.0002 178.2 66.0002 178.2L103.8 162.6L66.3002 171.9L24.2002 166.9Z" fill="#FFEAB0"/>
<path d="M375.7 37.4001L349.2 72.8001L326.6 71.4001L343.4 83.4001L330.5 122.8L338.4 88.8001L323.5 70.3001L343.4 69.0001L375.7 37.4001Z" fill="#FFEAB0"/>
<path d="M170.7 120.4L191.4 119.1L201.7 152.8L187.2 122.4L170.7 120.4Z" fill="#FFA748"/>
<path d="M70.2998 183.7L102.6 208.7L86.2998 189.9L100.4 167L70.2998 183.7Z" fill="#FFA748"/>
<path d="M376.8 39.1001L369.2 125.5L376.9 179.9C376.9 179.9 321.6 173.1 245.4 203.3C201.6 219.3 98.2998 273.3 98.2998 273.3L101.3 262.4C124.6 244.4 137.9 247.7 168.4 222C198.9 196.3 230.2 186.7 230.2 186.7C230.2 186.7 255.2 193.4 288 175.8C320.8 158.2 311.3 169.1 337 142.6C362.7 116.2 376.8 39.1001 376.8 39.1001Z" fill="#FFA748"/>
<path d="M229.5 198.7C241.595 198.7 251.4 188.895 251.4 176.8C251.4 164.705 241.595 154.9 229.5 154.9C217.405 154.9 207.6 164.705 207.6 176.8C207.6 188.895 217.405 198.7 229.5 198.7Z" fill="#FFD645"/>
<path d="M229.6 199.4C228.2 199.4 226.7 199.3 225.3 199C219.4 197.9 214.3 194.5 210.9 189.5C207.5 184.5 206.3 178.5 207.4 172.6C208.5 166.7 211.9 161.6 216.9 158.2C221.9 154.8 227.9 153.6 233.8 154.7C239.7 155.8 244.8 159.2 248.2 164.2C251.6 169.2 252.8 175.2 251.7 181.1C250.6 187 247.2 192.1 242.2 195.5C238.4 198.1 234 199.4 229.6 199.4ZM229.5 155.5C225.3 155.5 221.2 156.8 217.6 159.2C212.9 162.4 209.7 167.2 208.6 172.8C207.5 178.4 208.7 184.1 211.9 188.8C215.1 193.5 219.9 196.7 225.5 197.8C231.1 198.9 236.8 197.7 241.5 194.5C246.2 191.3 249.4 186.5 250.5 180.9C251.6 175.3 250.4 169.6 247.2 164.9C244 160.2 239.2 157 233.6 155.9C232.2 155.7 230.8 155.5 229.5 155.5Z" fill="black"/>
<path d="M245.3 166.1C251.2 174.8 248.9 186.7 240.2 192.6C231.5 198.5 243 181.2 237.1 172.4C231.2 163.7 210.1 166.9 218.8 161C227.5 155.1 239.4 157.4 245.3 166.1Z" fill="#FFA748"/>
<path d="M229.499 193.1C238.501 193.1 245.799 185.802 245.799 176.8C245.799 167.798 238.501 160.5 229.499 160.5C220.497 160.5 213.199 167.798 213.199 176.8C213.199 185.802 220.497 193.1 229.499 193.1Z" fill="#FFD645"/>
<path d="M229.499 193.8C228.399 193.8 227.299 193.7 226.299 193.5C221.899 192.6 217.999 190.1 215.499 186.4C212.999 182.7 211.999 178.2 212.899 173.7C213.799 169.2 216.299 165.4 219.999 162.9C223.699 160.4 228.199 159.4 232.699 160.3C237.099 161.2 240.999 163.7 243.499 167.4C248.699 175.1 246.699 185.7 238.999 190.9C236.199 192.8 232.899 193.8 229.499 193.8ZM220.699 163.9C213.599 168.7 211.699 178.5 216.499 185.6C218.799 189.1 222.399 191.4 226.499 192.2C230.599 193 234.799 192.1 238.199 189.8C245.299 185 247.199 175.2 242.399 168.1C240.099 164.6 236.499 162.3 232.399 161.5C228.399 160.7 224.199 161.5 220.699 163.9Z" fill="black"/>
<path d="M241.4 168.8C245.5 174.8 243.9 182.9 237.9 187C237.9 187 238.3 178.2 234.2 172.2C230.1 166.2 223.2 165.3 223.2 165.3C229.2 161.2 237.4 162.8 241.4 168.8Z" fill="#FFA748"/>
<path d="M222.499 167.5C220.399 168.3 215.699 174.3 216.599 178.1C217.499 181.9 220.499 184.6 221.599 181.7C222.699 178.8 222.499 175.1 222.999 172.4C223.399 169.8 224.599 166.7 222.499 167.5Z" fill="#FFEAB0"/>
<path d="M213.4 166.3C211.9 166.8 208.6 171.1 209.2 173.8C209.8 176.5 210.7 177.9 211.5 175.9C212.3 173.9 212.2 171.8 212.5 169.9C212.8 168.1 214.9 165.8 213.4 166.3Z" fill="#FFEAB0"/>
<path d="M100.024 270.275C105.153 267.23 104.74 257.062 99.1012 247.564C93.4624 238.065 84.7333 232.834 79.6043 235.879C74.4753 238.924 74.8886 249.092 80.5274 258.59C86.1662 268.089 94.8953 273.32 100.024 270.275Z" fill="#FFD645"/>
<path d="M96.5995 271.8C94.5995 271.8 92.3995 271.1 89.9995 269.7C86.1995 267.4 82.5995 263.6 79.7995 258.9C76.9995 254.2 75.3995 249.2 75.1995 244.8C74.9995 240.3 76.3995 236.9 79.0995 235.3C81.7995 233.7 85.3995 234.1 89.2995 236.4C93.0995 238.7 96.6995 242.5 99.4995 247.2C102.299 251.9 103.899 256.9 104.099 261.3C104.299 265.8 102.899 269.2 100.199 270.8C99.1995 271.5 97.9995 271.8 96.5995 271.8ZM82.8995 235.6C81.7995 235.6 80.7995 235.9 79.8995 236.4C77.5995 237.8 76.4995 240.7 76.5995 244.8C76.7995 249 78.2995 253.8 80.9995 258.3C83.6995 262.8 87.0995 266.5 90.6995 268.6C94.1995 270.7 97.2995 271.1 99.5995 269.7C101.899 268.3 102.999 265.4 102.899 261.3C102.699 257.1 101.199 252.3 98.4995 247.8C95.7995 243.3 92.3995 239.6 88.7995 237.5C86.6995 236.3 84.6995 235.6 82.8995 235.6Z" fill="black"/>
<path d="M81.7001 257.9C76.8001 249.6 76.4001 240.8 80.9001 238.1C85.4001 235.4 80.9001 246.5 85.8001 254.8C90.7001 263.1 103.2 265.4 98.7001 268.1C94.2001 270.7 86.6001 266.2 81.7001 257.9Z" fill="#FFA748"/>
<path d="M94.0852 267.792C98.3594 265.255 98.4417 257.5 94.269 250.471C90.0962 243.442 83.2486 239.802 78.9745 242.339C74.7003 244.877 74.618 252.631 78.7908 259.66C82.9635 266.689 89.8111 270.33 94.0852 267.792Z" fill="#FFD645"/>
<path d="M91 269.3C89.5 269.3 87.8 268.8 86.1 267.9C83.1 266.3 80.3 263.5 78.2 260C76.1 256.5 75 252.7 75 249.3C75 245.8 76.3 243.1 78.6 241.8C80.9 240.5 83.8 240.6 86.9 242.3C89.9 243.9 92.7 246.7 94.8 250.2C96.9 253.7 98 257.5 98 260.9C98 264.4 96.7 267.1 94.4 268.4C93.3 269 92.2 269.3 91 269.3ZM82 242.1C81 242.1 80.1 242.3 79.2 242.8C77.3 243.9 76.3 246.2 76.2 249.3C76.2 252.5 77.2 256 79.2 259.3C81.2 262.6 83.8 265.3 86.6 266.7C89.3 268.1 91.8 268.3 93.7 267.2C95.6 266.1 96.6 263.8 96.7 260.7C96.7 257.5 95.7 254 93.7 250.7C91.7 247.4 89.1 244.7 86.3 243.3C84.8 242.5 83.3 242.1 82 242.1Z" fill="black"/>
<path d="M79.6002 259.1C76.2002 253.4 76.3002 247.2 79.7002 245.1C79.7002 245.1 80.5002 252.1 83.9002 257.8C87.3002 263.5 91.9002 265.7 91.9002 265.7C88.5002 267.7 83.0002 264.8 79.6002 259.1Z" fill="#FFA748"/>
<path d="M92.1994 264.1C93.4994 263.9 95.7994 260 94.7994 256.8C93.7994 253.5 91.4994 250.8 91.0994 252.8C90.6994 254.9 91.2994 257.9 91.2994 260C91.2994 262 90.8994 264.2 92.1994 264.1Z" fill="#FFEAB0"/>
<path d="M101.2 265.1C102 265 103.4 262.4 102.6 260.1C101.8 257.8 101.1 256.5 100.9 257.9C100.7 259.3 101.1 261 101.2 262.4C101.3 263.8 100.3 265.2 101.2 265.1Z" fill="#FFEAB0"/>
<path d="M379.145 170.811C384.876 169.156 387.036 159.211 383.971 148.6C380.906 137.988 373.776 130.728 368.045 132.383C362.315 134.038 360.155 143.982 363.22 154.594C366.285 165.205 373.415 172.466 379.145 170.811Z" fill="#FFD645"/>
<path d="M377.4 171.7C374.9 171.7 372.2 170.3 369.7 167.8C366.6 164.7 364.1 160.1 362.6 154.8C361.1 149.6 360.8 144.3 361.7 140C362.7 135.6 364.9 132.6 367.9 131.8C370.9 130.9 374.3 132.2 377.5 135.5C380.6 138.6 383.1 143.2 384.6 148.5C386.1 153.7 386.4 159 385.5 163.3C384.5 167.7 382.3 170.7 379.3 171.5C378.7 171.6 378 171.7 377.4 171.7ZM369.7 132.8C369.2 132.8 368.7 132.9 368.2 133C362.8 134.6 360.8 144.2 363.8 154.4C366.8 164.7 373.6 171.7 379 170.2C384.4 168.6 386.4 159 383.4 148.8C380.7 139.4 374.8 132.8 369.7 132.8Z" fill="black"/>
<path d="M382.6 149C385.3 158.2 383.4 166.9 378.4 168.3C373.4 169.7 380.5 160.2 377.9 150.9C375.2 141.7 363.8 136.3 368.8 134.8C373.7 133.4 379.9 139.7 382.6 149Z" fill="#FFA748"/>
<path d="M381.394 164.717C386.17 163.338 388.202 155.854 385.934 148.001C383.666 140.149 377.956 134.901 373.18 136.281C368.405 137.66 366.373 145.144 368.641 152.996C370.909 160.849 376.619 166.097 381.394 164.717Z" fill="#FFD645"/>
<path d="M379.8 165.6C377.8 165.6 375.6 164.6 373.6 162.8C371.1 160.5 369.1 157.1 368 153.2C366.9 149.3 366.7 145.3 367.6 142C368.5 138.6 370.4 136.3 373 135.6C375.5 134.9 378.4 135.8 380.9 138.2C383.4 140.5 385.4 143.9 386.5 147.8C387.6 151.7 387.8 155.7 386.9 159C386 162.4 384.1 164.7 381.5 165.4C381 165.5 380.4 165.6 379.8 165.6ZM373.3 136.9C368.9 138.2 367 145.3 369.2 152.9C370.3 156.6 372.1 159.8 374.5 162C376.7 164.1 379.1 164.9 381.2 164.3C385.6 163 387.5 155.9 385.3 148.3C384.2 144.6 382.4 141.4 380 139.2C377.8 137.1 375.4 136.2 373.3 136.9Z" fill="black"/>
<path d="M384.9 148.3C386.7 154.6 385.1 160.7 381.2 161.8C381.2 161.8 382.2 154.8 380.3 148.5C378.5 142.1 374.5 138.9 374.5 138.9C378.5 137.7 383.1 142 384.9 148.3Z" fill="#FFA748"/>
<path d="M374 140.3C372.7 140.2 369.5 143.3 369.6 146.7C369.8 150.1 371.3 153.4 372.2 151.5C373.1 149.6 373.3 146.5 373.8 144.5C374.3 142.5 375.3 140.5 374 140.3Z" fill="#FFEAB0"/>
<path d="M365.5 137C364.7 136.9 362.7 139 362.9 141.4C363.1 143.8 363.5 145.3 364 144C364.5 142.7 364.6 141 364.9 139.6C365.1 138.2 366.4 137.2 365.5 137Z" fill="#FFEAB0"/>
<path d="M108.5 217.7C109.7 219.7 110.9 221.7 112 223.7C111.7 223.9 111.4 224.1 111.1 224.2C109.9 222.2 108.8 220.2 107.6 218.2C107.9 218 108.2 217.9 108.5 217.7Z" fill="#FFA748"/>
<path d="M116.8 220.9C115.1 219.2 113.4 217.5 111.6 215.8C111.9 215.6 112.2 215.4 112.6 215.2C113.9 216.5 115.2 217.9 116.5 219.2C116.5 219.2 116.5 219.2 116.6 219.2C116.1 217.4 115.6 215.6 115.1 213.8C115.4 213.6 115.7 213.4 116.1 213.2C117.4 214.5 118.7 215.9 120 217.2C120 217.2 120 217.2 120.1 217.2C119.6 215.4 119.1 213.6 118.6 211.8C118.9 211.6 119.3 211.4 119.6 211.2C120.2 213.6 120.8 215.9 121.3 218.3C121 218.5 120.7 218.7 120.4 218.8C119.1 217.5 117.8 216.3 116.5 215C116.9 216.8 117.4 218.5 117.8 220.3C117.4 220.5 117.1 220.7 116.8 220.9Z" fill="#FFA748"/>
<path d="M121.299 210.2C122.399 212.2 123.599 214.3 124.699 216.3C124.399 216.5 124.099 216.6 123.799 216.8C122.699 214.8 121.499 212.7 120.399 210.7C120.699 210.6 120.999 210.4 121.299 210.2Z" fill="#FFA748"/>
<path d="M126.2 215.5C125.1 213.5 123.9 211.4 122.8 209.4C123.1 209.2 123.4 209.1 123.7 208.9C124.7 210.7 125.7 212.4 126.7 214.2C127.6 213.7 128.6 213.2 129.5 212.7C129.6 213 129.8 213.2 129.9 213.5C128.6 214.1 127.4 214.8 126.2 215.5Z" fill="#FFA748"/>
<path d="M131 212.9C129.9 210.8 128.8 208.8 127.6 206.8C127.9 206.6 128.2 206.5 128.5 206.3C129.5 208.1 130.5 209.9 131.4 211.6C132.3 211.1 133.3 210.6 134.2 210.1C134.3 210.4 134.5 210.6 134.6 210.9C133.5 211.5 132.2 212.2 131 212.9Z" fill="#FFA748"/>
<path d="M139.199 202.6C138.999 202.3 138.799 202.2 138.399 202.1C138.099 202.1 137.699 202.1 137.399 202.3C137.099 202.4 136.899 202.6 136.799 202.8C136.699 203 136.599 203.2 136.499 203.4C136.499 203.6 136.499 203.8 136.599 204C136.699 204.1 136.799 204.3 136.899 204.3C136.999 204.4 137.199 204.4 137.299 204.4C137.499 204.4 137.599 204.4 137.799 204.4C137.999 204.4 138.099 204.3 138.199 204.3C138.399 204.2 138.699 204.2 138.899 204.1C139.099 204 139.399 204 139.599 204C139.899 204 140.099 204 140.399 204C140.699 204 140.899 204.1 141.099 204.3C141.299 204.4 141.499 204.7 141.599 204.9C141.799 205.3 141.899 205.6 141.799 206C141.799 206.4 141.599 206.7 141.299 207.1C140.999 207.4 140.699 207.7 140.199 208C139.699 208.2 139.299 208.4 138.899 208.4C138.499 208.4 138.099 208.4 137.799 208.2C137.499 208 137.199 207.8 136.999 207.4C137.299 207.2 137.599 207.1 137.899 206.9C137.999 207.1 138.199 207.3 138.399 207.3C138.599 207.4 138.799 207.4 139.099 207.4C139.299 207.4 139.599 207.3 139.799 207.2C140.099 207.1 140.299 206.9 140.499 206.7C140.699 206.5 140.799 206.3 140.799 206.1C140.799 205.9 140.799 205.7 140.699 205.5C140.599 205.3 140.499 205.2 140.299 205.1C140.099 205 139.899 205 139.699 205C139.499 205 139.199 205.1 138.999 205.1C138.699 205.2 138.399 205.2 138.199 205.3C137.599 205.4 137.099 205.4 136.699 205.3C136.299 205.2 135.899 204.9 135.699 204.5C135.499 204.1 135.399 203.8 135.499 203.4C135.599 203 135.699 202.7 135.999 202.4C136.299 202.1 136.599 201.8 136.999 201.6C137.399 201.4 137.799 201.3 138.299 201.2C138.699 201.2 139.099 201.2 139.399 201.4C139.699 201.6 139.999 201.8 140.199 202.1C139.799 202.3 139.499 202.5 139.199 202.6Z" fill="#FFA748"/>
<path d="M140.599 200.8C140.499 200.5 140.299 200.3 140.199 200C141.799 199.2 143.499 198.3 145.099 197.5C145.199 197.8 145.399 198 145.499 198.3C144.799 198.6 144.199 199 143.499 199.3C144.399 201.1 145.399 202.9 146.299 204.7C145.999 204.9 145.699 205 145.299 205.2C144.399 203.4 143.399 201.6 142.499 199.8C141.899 200.1 141.299 200.5 140.599 200.8Z" fill="#FFA748"/>
<path d="M147.199 196.4C148.299 198.5 149.299 200.6 150.399 202.7C150.099 202.9 149.799 203 149.399 203.2C148.299 201.1 147.299 199 146.199 197C146.599 196.8 146.899 196.6 147.199 196.4Z" fill="#FFA748"/>
<path d="M151.899 202C150.799 199.9 149.799 197.8 148.699 195.7C148.999 195.5 149.299 195.4 149.699 195.2C150.599 197 151.599 198.8 152.499 200.7C153.499 200.2 154.399 199.8 155.399 199.3C155.499 199.6 155.699 199.8 155.799 200.1C154.499 200.7 153.199 201.3 151.899 202Z" fill="#FFA748"/>
<path d="M156.899 199.5C155.899 197.4 154.799 195.3 153.699 193.2C153.999 193 154.399 192.9 154.699 192.7C155.599 194.5 156.499 196.3 157.399 198.2C158.399 197.7 159.399 197.3 160.299 196.8C160.399 197.1 160.599 197.3 160.699 197.6C159.499 198.3 158.199 198.9 156.899 199.5Z" fill="#FFA748"/>
<path d="M164.4 196C163.4 193.9 162.3 191.8 161.3 189.7C162.7 189.1 164 188.4 165.4 187.8C165.5 188.1 165.7 188.3 165.8 188.6C164.8 189.1 163.7 189.6 162.7 190C163 190.6 163.3 191.3 163.6 191.9C164.6 191.5 165.5 191 166.5 190.6C166.6 190.9 166.8 191.1 166.9 191.4C165.9 191.8 165 192.3 164 192.7C164.3 193.3 164.6 194 164.9 194.6C165.9 194.1 167 193.6 168.1 193.2C168.2 193.5 168.4 193.8 168.5 194C167.2 194.7 165.8 195.3 164.4 196Z" fill="#FFA748"/>
<path d="M170.4 193.2C170 193.4 169.7 193.5 169.3 193.7C169.1 191.2 168.8 188.7 168.6 186.3C169 186.1 169.4 186 169.8 185.8C171.6 187.6 173.4 189.3 175.2 191.1C174.8 191.3 174.5 191.4 174.1 191.6C172.7 190.1 171.2 188.7 169.8 187.2C169.8 187.2 169.8 187.2 169.7 187.2C170 189.2 170.2 191.2 170.4 193.2ZM169.4 190.7C170.5 190.2 171.7 189.7 172.8 189.2C172.9 189.5 173.1 189.7 173.2 190C172.1 190.5 170.9 191 169.8 191.5C169.7 191.2 169.6 190.9 169.4 190.7Z" fill="#FFA748"/>
<path d="M172.599 185.6C172.499 185.3 172.299 185 172.199 184.8C173.899 184 175.599 183.3 177.399 182.6C177.499 182.9 177.699 183.2 177.799 183.4C177.099 183.7 176.399 184 175.699 184.3C176.599 186.2 177.399 188 178.299 189.9C177.999 190 177.599 190.2 177.299 190.3C176.399 188.4 175.599 186.6 174.699 184.7C173.899 185 173.199 185.3 172.599 185.6Z" fill="#FFA748"/>
<path d="M114.3 229.8C114.7 229.6 115 229.4 115.4 229.1C116.9 230.3 118.4 231.5 119.9 232.7C119.9 232.7 119.9 232.7 120 232.7C119.8 230.8 119.5 228.8 119.3 226.9C119.7 226.7 120 226.5 120.4 226.3C121.5 228.3 122.6 230.4 123.8 232.4C123.5 232.6 123.2 232.7 122.9 232.9C122.1 231.4 121.3 230 120.5 228.5C120.5 228.5 120.5 228.5 120.4 228.5C120.6 230.3 120.9 232.1 121.1 233.9C120.9 234 120.6 234.2 120.4 234.3C119 233.2 117.6 232.1 116.2 230.9C116.2 230.9 116.2 230.9 116.1 230.9C116.9 232.4 117.7 233.8 118.6 235.3C118.3 235.5 118 235.6 117.8 235.8C116.6 233.9 115.5 231.9 114.3 229.8Z" fill="#FFA748"/>
<path d="M121.3 225.7C121.6 225.5 122 225.3 122.3 225.1C123.3 225.7 124.4 226.3 125.4 227C125.4 227 125.4 227 125.5 227C125.5 225.8 125.5 224.5 125.6 223.3C125.9 223.1 126.3 222.9 126.6 222.7C126.5 224.4 126.5 226 126.4 227.7C126.8 228.5 127.3 229.3 127.7 230.1C127.4 230.3 127.1 230.4 126.8 230.6C126.4 229.8 125.9 229 125.5 228.2C124.1 227.4 122.7 226.5 121.3 225.7Z" fill="#FFA748"/>
<path d="M134.999 226C134.299 226.4 133.699 226.7 132.999 227.1C131.899 225 130.799 223 129.699 220.9C130.399 220.5 131.099 220.1 131.699 219.8C132.299 219.5 132.899 219.3 133.399 219.3C133.999 219.3 134.499 219.5 134.999 219.8C135.499 220.1 135.899 220.6 136.199 221.3C136.499 221.9 136.699 222.6 136.699 223.1C136.699 223.7 136.599 224.2 136.299 224.7C136.099 225.2 135.599 225.7 134.999 226ZM133.499 225.8C133.799 225.6 134.199 225.4 134.499 225.2C134.999 224.9 135.299 224.6 135.499 224.3C135.699 224 135.799 223.6 135.799 223.1C135.799 222.7 135.599 222.2 135.399 221.7C135.099 221.2 134.899 220.8 134.499 220.6C134.199 220.3 133.799 220.2 133.399 220.2C132.999 220.2 132.599 220.3 132.099 220.6C131.699 220.8 131.399 221 130.999 221.2C131.899 222.7 132.699 224.2 133.499 225.8Z" fill="#FFA748"/>
<path d="M136.799 217.1C137.899 219.2 138.999 221.2 139.999 223.3C139.699 223.5 139.399 223.6 139.099 223.8C137.999 221.7 136.999 219.7 135.899 217.6C136.199 217.4 136.499 217.2 136.799 217.1Z" fill="#FFA748"/>
<path d="M144.399 215.6C144.099 215.8 143.799 215.9 143.499 216.1C143.399 215.9 143.199 215.8 142.999 215.7C142.799 215.6 142.599 215.5 142.399 215.5C142.199 215.5 141.999 215.5 141.799 215.5C141.599 215.5 141.399 215.6 141.199 215.7C140.799 215.9 140.599 216.1 140.399 216.5C140.199 216.8 140.099 217.2 140.099 217.6C140.099 218 140.299 218.5 140.499 219C140.799 219.5 141.099 219.9 141.399 220.2C141.699 220.5 142.099 220.6 142.499 220.6C142.899 220.6 143.199 220.6 143.599 220.4C143.799 220.3 143.999 220.2 144.099 220C144.199 219.9 144.399 219.7 144.499 219.5C144.599 219.3 144.599 219.1 144.699 218.9C144.699 218.7 144.699 218.5 144.599 218.3C144.899 218.1 145.199 218 145.499 217.8C145.599 218.1 145.699 218.5 145.599 218.8C145.599 219.1 145.499 219.4 145.399 219.8C145.299 220.1 145.099 220.4 144.899 220.6C144.699 220.9 144.399 221.1 143.999 221.2C143.499 221.5 142.899 221.6 142.399 221.6C141.899 221.6 141.299 221.4 140.899 221C140.399 220.7 139.999 220.1 139.699 219.5C139.399 218.8 139.199 218.2 139.199 217.6C139.199 217 139.299 216.5 139.599 216C139.899 215.5 140.299 215.1 140.799 214.9C141.099 214.7 141.499 214.6 141.799 214.6C142.099 214.5 142.499 214.5 142.799 214.6C143.099 214.7 143.399 214.8 143.699 215C143.899 215.1 144.199 215.3 144.399 215.6Z" fill="#FFA748"/>
<path d="M147.7 219.2C146.7 217.1 145.6 215 144.5 213C144.8 212.8 145.1 212.7 145.4 212.5C145.9 213.5 146.4 214.5 146.9 215.5H147C147.4 214.1 147.7 212.6 148.1 211.2C148.5 211 148.9 210.8 149.3 210.6C148.9 212 148.6 213.3 148.2 214.7C149.6 215.4 151 216.1 152.4 216.9C152 217.1 151.6 217.3 151.3 217.5C150.2 216.9 149 216.3 147.9 215.7C147.8 216.1 147.7 216.5 147.6 216.9C147.9 217.5 148.3 218.2 148.6 218.8C148.3 218.9 148 219 147.7 219.2Z" fill="#FFA748"/>
<path d="M153.599 208.4C154.599 210.5 155.699 212.6 156.699 214.7C156.399 214.9 156.099 215 155.799 215.2C154.799 213.1 153.699 211 152.699 208.9C152.999 208.7 153.299 208.5 153.599 208.4Z" fill="#FFA748"/>
<path d="M158.1 214C157.1 211.9 156.1 209.8 155 207.7C156.3 207.1 157.6 206.4 158.9 205.8C159 206.1 159.2 206.3 159.3 206.6C158.3 207.1 157.3 207.6 156.3 208C156.6 208.6 156.9 209.3 157.2 209.9C158.1 209.5 159 209 159.9 208.6C160 208.9 160.2 209.1 160.3 209.4C159.4 209.8 158.5 210.3 157.6 210.7C158 211.6 158.5 212.5 158.9 213.4C158.8 213.6 158.4 213.8 158.1 214Z" fill="#FFA748"/>
<path d="M166.9 209.8C165.3 208 163.7 206.1 162.1 204.3C162.4 204.1 162.8 204 163.1 203.8C164.3 205.2 165.5 206.7 166.7 208.1C166.7 208.1 166.7 208.1 166.8 208.1C166.5 206.3 166.1 204.4 165.8 202.6C166.1 202.4 166.5 202.3 166.8 202.1C168 203.5 169.2 205 170.4 206.4C170.4 206.4 170.4 206.4 170.5 206.4C170.2 204.6 169.8 202.7 169.4 200.9C169.7 200.7 170.1 200.6 170.4 200.4C170.8 202.8 171.2 205.2 171.6 207.6C171.3 207.7 170.9 207.9 170.6 208C169.4 206.6 168.2 205.2 167 203.9C167 203.9 167 203.9 166.9 203.9C167.2 205.7 167.5 207.5 167.8 209.3C167.5 209.5 167.2 209.6 166.9 209.8Z" fill="#FFA748"/>
<path d="M174.299 206.3C173.299 204.2 172.299 202 171.399 199.9C172.199 199.6 172.899 199.2 173.699 198.9C174.199 198.7 174.699 198.6 175.099 198.6C175.499 198.6 175.899 198.7 176.199 199C176.499 199.2 176.699 199.5 176.899 199.9C177.099 200.3 177.199 200.7 177.099 201C177.099 201.4 176.899 201.7 176.699 202C176.399 202.3 176.099 202.6 175.599 202.8C174.999 203.1 174.399 203.3 173.799 203.6C173.699 203.3 173.499 203 173.399 202.8C173.999 202.6 174.499 202.3 175.099 202.1C175.399 202 175.699 201.8 175.799 201.6C175.999 201.4 175.999 201.2 176.099 201C176.099 200.8 176.099 200.6 175.999 200.3C175.899 200.1 175.699 199.9 175.599 199.7C175.399 199.6 175.199 199.5 174.999 199.5C174.799 199.5 174.499 199.6 174.099 199.7C173.699 199.9 173.299 200.1 172.899 200.3C173.799 202.2 174.599 204 175.499 205.9C174.999 206.1 174.599 206.2 174.299 206.3ZM176.199 202C177.199 202.7 178.099 203.5 179.099 204.2C178.699 204.4 178.399 204.5 177.999 204.7C176.999 204 176.099 203.2 175.099 202.5C175.499 202.4 175.799 202.2 176.199 202Z" fill="#FFA748"/>
<path d="M184.399 198.1C184.699 198.8 184.799 199.4 184.799 200C184.799 200.6 184.599 201.1 184.299 201.6C183.999 202.1 183.499 202.4 182.999 202.6C182.399 202.8 181.899 202.9 181.299 202.9C180.699 202.8 180.199 202.6 179.699 202.2C179.199 201.8 178.799 201.3 178.499 200.6C178.199 199.9 177.999 199.3 178.099 198.7C178.099 198.1 178.299 197.6 178.599 197.1C178.899 196.6 179.399 196.3 179.899 196C180.499 195.8 180.999 195.7 181.599 195.7C182.199 195.8 182.699 196 183.199 196.4C183.699 196.9 184.099 197.4 184.399 198.1ZM183.399 198.5C183.199 198 182.899 197.6 182.499 197.3C182.199 197 181.799 196.8 181.399 196.8C180.999 196.7 180.599 196.8 180.299 197C179.899 197.2 179.599 197.4 179.399 197.7C179.199 198 179.099 198.4 179.099 198.8C179.099 199.2 179.199 199.7 179.399 200.2C179.599 200.7 179.899 201.1 180.299 201.4C180.599 201.7 180.999 201.9 181.399 201.9C181.799 202 182.199 201.9 182.499 201.7C182.899 201.5 183.199 201.3 183.399 201C183.599 200.7 183.699 200.3 183.699 199.9C183.699 199.5 183.599 199.1 183.399 198.5Z" fill="#FFA748"/>
<path d="M189.6 192.1C190.5 194.3 191.5 196.4 192.4 198.6C192.1 198.7 191.8 198.9 191.5 199C189.7 197.9 187.9 196.8 186.1 195.7C186.1 195.7 186.1 195.7 186 195.7C186.7 197.3 187.4 198.9 188.1 200.4C187.8 200.5 187.4 200.7 187.1 200.8C186.2 198.6 185.2 196.5 184.3 194.4C184.6 194.3 184.9 194.1 185.2 194C187 195.1 188.8 196.2 190.7 197.3C190.7 197.3 190.7 197.3 190.8 197.3C190.1 195.7 189.4 194.1 188.7 192.6C188.9 192.4 189.2 192.2 189.6 192.1Z" fill="#FFA748"/>
<path d="M196.5 191.7C196.4 191.5 196.2 191.4 196 191.3C195.8 191.2 195.6 191.1 195.5 191.1C195.3 191 195.1 191 194.9 191.1C194.7 191.1 194.5 191.2 194.2 191.3C193.8 191.5 193.5 191.7 193.3 192C193.1 192.3 193 192.7 192.9 193.1C192.9 193.5 193 194 193.2 194.5C193.4 195 193.7 195.4 194 195.7C194.3 196 194.7 196.2 195.1 196.2C195.5 196.3 195.9 196.2 196.3 196.1C196.7 196 196.9 195.8 197.2 195.5C197.4 195.2 197.5 195 197.6 194.6C197.6 194.3 197.6 193.9 197.4 193.6C197.5 193.6 197.6 193.6 197.7 193.5C197.1 193.8 196.4 194 195.8 194.3C195.7 194 195.6 193.8 195.5 193.5C196.4 193.2 197.3 192.8 198.1 192.5C198.2 192.7 198.3 193 198.4 193.2C198.6 193.7 198.7 194.3 198.6 194.8C198.5 195.3 198.3 195.7 198 196.1C197.7 196.5 197.2 196.8 196.7 197C196.1 197.2 195.5 197.3 194.9 197.2C194.3 197.1 193.8 196.9 193.3 196.5C192.8 196.1 192.5 195.6 192.2 194.9C192 194.4 191.8 193.9 191.8 193.4C191.8 192.9 191.8 192.5 192 192.1C192.1 191.7 192.4 191.4 192.7 191.1C193 190.8 193.4 190.6 193.8 190.4C194.2 190.3 194.5 190.2 194.9 190.2C195.3 190.2 195.6 190.2 195.9 190.3C196.2 190.4 196.5 190.5 196.8 190.7C197.1 190.9 197.3 191.1 197.5 191.4C197.2 191.4 196.9 191.6 196.5 191.7Z" fill="#FFA748"/>
<path d="M201.4 195.1C201.2 195.2 201 195.2 200.9 195.1C200.7 195 200.6 194.9 200.5 194.7C200.4 194.5 200.4 194.4 200.5 194.2C200.6 194 200.7 193.9 200.9 193.8C201.1 193.7 201.3 193.7 201.4 193.8C201.6 193.9 201.7 194 201.8 194.2C201.8 194.3 201.9 194.4 201.8 194.6C201.8 194.7 201.7 194.8 201.7 194.9C201.6 194.9 201.5 195 201.4 195.1Z" fill="#FFA748"/>
</svg>
