<svg width="335" height="322" viewBox="0 0 335 322" fill="none" xmlns="http://www.w3.org/2000/svg">
<path d="M267.4 1H221.8L167.5 55.3L113.2 1H67.6002L0.700195 67.9L77.8002 145L0.700195 222.1L90.4002 311.8L167.5 234.7L244.6 311.8L334.3 222.1L257.2 145L334.3 67.9L267.4 1Z" fill="#ED7601"/>
<path d="M116.7 25.9999C54.0997 51.9999 24.3997 123.9 50.4997 186.5C75.2997 246.1 127.6 244.3 187.9 224.5C189 224.2 212.6 247.3 224.5 236.5L218.5 232.1L221.2 199.6L212.6 187.5L209.4 171.4L223.3 195.8L223.2 227.7L230.9 230.7C251.7 211.8 276 189.2 276 189.2C289.2 159.5 290.6 124.6 277.1 92.1999C251.2 29.5999 179.3 -0.100063 116.7 25.9999ZM163.9 183.8C163.9 183.8 162.5 184.1 160.5 184.6C160 184.7 159.4 184.8 158.8 185C158.1 185.1 157.4 185.1 156.8 185.3C156.5 185.4 156.1 185.4 155.8 185.5C152.6 186.9 149.2 187.2 146 187.9C145.5 188.1 145.1 188.4 144.6 188.7C144.1 188.9 143.8 189.2 143.4 189.5C141 191.6 141.3 195.5 141.3 198.7C141.3 199.1 141.3 199.6 141.4 200C141.8 208.6 142.3 219.3 142.3 219.3L120.9 221.4C120.9 221.4 120.5 214.2 120.1 207.5C120.1 207.1 120 206.6 120 206.2C119.9 205.2 119.8 204.1 119.8 203.1C119.6 201 119.5 199 119.5 197C118 197.6 116.4 198.1 114.7 198.6C113.9 198.8 113.1 198.9 112.2 198.8C111.8 198.8 111.4 198.7 111 198.6C110.2 198.4 109.3 198 108.5 197.4C108 197.3 107.5 197.4 107.1 197.5C105.2 198 103.4 198.9 101.7 200.3C101.3 200.5 101 200.8 100.6 200.9C100.2 201 99.8997 201.2 99.3997 201.1C92.6997 200.1 93.5997 191.5 94.0997 186.4C94.0997 185.9 93.9997 185.5 93.9997 185C93.7997 182.7 93.2997 180.4 94.0997 178.1C95.9997 179.3 98.3997 179.4 100.5 178.5C100.9 178.3 101.3 178.1 101.7 177.8C102.1 177.5 102.5 177.2 102.8 176.9C103.2 176.6 103.6 176.3 104.1 175.9C104.6 175.7 105 175.5 105.5 175.4C109.6 174.5 113.9 173.6 116.7 173C117.2 172.9 117.6 172.8 118 172.7C118.3 172.5 118.6 172.2 118.8 171.8C119 171.5 119.2 171.1 119.3 170.7C119.8 169 120.1 167.3 120.3 165.6C120.3 165 120.4 164.5 120.4 163.9C120.6 162.3 120.6 160.8 120.5 159.2C120.5 158.7 120.4 158.2 120.4 157.7C120.5 157.3 120.6 156.8 120.6 156.3C120.7 155.4 120.6 154.3 120.4 153.2C120.4 152.9 120.3 152.6 120.3 152.4C120.3 152.1 120.2 151.8 120.2 151.5C120.1 150.9 119.9 150.3 119.7 149.7C119.6 149.4 119.5 149.1 119.3 148.8C118.4 146.9 117.3 145.4 116.9 143.3C116.7 142.3 116 140.6 117.6 140.8C119.9 141 122.2 142.2 124.7 142.5C125 142.5 125.3 142.5 125.6 142.5C125.9 142.5 126.2 142.5 126.4 142.4C126.7 142.3 127.1 142.2 127.4 142.2C128.5 141.9 129.5 141.7 130.6 141.4C131.1 141.3 131.6 141.2 132.1 141C134.1 140.6 135.5 138.3 137.1 139.4C138.4 140.4 137.6 142.8 137.5 144.7C137.5 145 137.5 145.3 137.5 145.6C137.5 145.9 137.5 146.1 137.5 146.4C137.5 146.8 137.6 147.2 137.6 147.6C137.7 149.7 137.9 152 138 154.3C138 154.7 138.1 155.1 138.1 155.5C138.2 159.5 138.4 163.6 140 167C140.4 167.5 143 167.3 144.6 166.8C145 166.7 145.3 166.6 145.7 166.5C148.1 165.9 150.9 165.3 153.4 164.7C153.8 164.6 154.1 164.5 154.5 164.4C155 164.3 155.4 164.2 155.9 164.1C156.4 164.1 156.8 164.1 157.3 164.1C160.1 164.3 162.8 163.4 165.2 162.2C164.6 164.5 163.5 166.7 163.4 169.2C163.4 169.6 163.5 170 163.6 170.4C164 172.3 164.5 174.2 164.8 176.1C164.9 176.4 164.9 176.8 164.9 177.1C165 178.8 164.7 180.6 164.1 182.5C164.1 182.8 164.1 183.1 164.1 183.3C163.9 183.5 163.9 183.8 163.9 183.8Z" fill="#ED7601" stroke="black" stroke-width="1.1661" stroke-miterlimit="10" stroke-linejoin="bevel"/>
<path d="M269.601 50.7C269.401 50.2 269.401 49.7 269.501 49.2C269.501 48.9 269.601 48.7 269.701 48.4C269.701 48.3 269.601 48.2999 269.601 48.2C269.401 47.7999 269.301 47.2999 269.301 46.7999C269.301 46.5 269.301 46.2999 269.401 46C269.301 45.9 269.301 45.6999 269.301 45.5999C269.101 45.0999 269.101 44.5999 269.201 44.0999C269.201 44 269.201 43.9 269.201 43.7C269.001 43 269.101 42.2 269.401 41.4C269.301 41.3 269.201 41.1999 269.101 41.0999C268.501 40.5 268.101 39.5999 268.001 38.7999C267.501 38.0999 267.101 37.3 267.101 36.4C267.001 35.2 267.701 34.2 268.601 33.5C268.601 33.2999 268.701 33 268.801 32.7999C268.601 32.4 268.601 32 268.501 31.5C268.501 30.4 269.001 29.4 269.801 28.7C269.801 28.6 269.901 28.6 269.901 28.5C269.901 28.2999 269.901 28.2 269.801 28C269.801 27.5 269.901 27 270.101 26.6C270.201 26.4 270.301 26.1 270.401 25.9C268.001 21.4 263.701 18 256.801 16.6C260.301 9.79995 258.401 3.99995 254.401 0.699951H238.001C236.501 1.79995 235.101 3.39995 233.901 5.29995C231.801 2.99995 229.801 1.49995 227.701 0.699951H218.801C206.901 5.29995 197.001 24.5 197.001 24.5C197.001 24.5 224.601 100 240.101 91.7C255.601 83.3999 252.501 93.5 252.501 93.5C252.501 93.5 265.601 72.5999 270.801 52.5999C270.601 52.3999 270.401 52.2 270.201 52C270.001 51.5999 269.701 51.2 269.601 50.7Z" fill="#FFAB17"/>
<path d="M233.501 6C233.601 6.1 233.801 6.2 234.001 6.2C234.201 6.2 234.301 6.1 234.401 5.9C235.701 3.8 237.301 2.2 239.001 1H237.001C235.801 2 234.701 3.2 233.801 4.6C232.301 3 230.701 1.8 229.001 1H225.501C228.301 1.6 231.001 3.2 233.501 6Z" fill="#070707"/>
<path d="M270.801 51.5999C270.701 51.5999 270.701 51.5999 270.801 51.5999C270.501 51.1999 270.301 50.8999 270.201 50.4999C270.101 50.0999 270.101 49.6999 270.101 49.2999V49.1999C270.101 48.9999 270.101 48.7999 270.201 48.5999C270.201 48.4999 270.201 48.2999 270.201 48.1999V48.0999V47.9999V47.8999C270.001 47.4999 269.901 47.1999 269.901 46.7999C269.901 46.5999 269.901 46.3999 270.001 46.1999C270.001 46.0999 270.001 45.9999 270.001 45.7999C270.001 45.6999 269.901 45.5999 269.901 45.4999C269.801 45.0999 269.801 44.6999 269.801 44.2999V44.1999C269.801 44.0999 269.801 43.9999 269.801 43.8999C269.801 43.7999 269.801 43.6999 269.801 43.6999C269.701 43.0999 269.701 42.3999 270.001 41.7999C270.101 41.5999 270.001 41.2999 269.801 41.0999C269.701 40.9999 269.601 40.9999 269.501 40.8999C269.001 40.4999 268.701 39.6999 268.601 38.9999C268.601 38.8999 268.501 38.7999 268.501 38.6999C268.001 38.0999 267.701 37.3999 267.701 36.6999C267.701 35.7999 268.101 34.8999 268.901 34.2999C269.001 34.1999 269.101 34.0999 269.101 33.8999C269.101 33.6999 269.201 33.4999 269.201 33.2999C269.201 33.1999 269.201 32.9999 269.201 32.8999C269.101 32.4999 269.001 32.1999 269.001 31.7999C269.001 30.9999 269.401 30.0999 270.101 29.4999L270.201 29.3999C270.201 29.2999 270.301 29.2999 270.301 29.1999C270.401 29.0999 270.401 28.8999 270.401 28.7999L270.301 28.2999C270.301 27.8999 270.401 27.4999 270.601 27.1999V27.0999C270.701 26.8999 270.701 26.6999 270.901 26.5999C271.001 26.3999 271.001 26.1999 270.901 25.9999C268.301 21.1999 263.901 17.9999 257.601 16.5999C260.701 9.99985 258.901 4.39985 255.201 1.09985H253.401C259.001 4.99985 258.901 11.5999 256.301 16.6999C256.201 16.8999 256.201 17.0999 256.301 17.1999C256.401 17.3999 256.501 17.4999 256.701 17.4999C262.901 18.6999 267.201 21.6999 269.801 26.1999C269.701 26.2999 269.701 26.4999 269.601 26.5999C269.301 27.0999 269.201 27.6999 269.201 28.2999C269.201 28.2999 269.201 28.2999 269.201 28.3999V28.5999C268.301 29.3999 267.801 30.5999 267.801 31.7999C267.801 32.1999 267.901 32.5999 268.001 33.0999C268.001 33.1999 267.901 33.3999 267.901 33.4999C266.901 34.2999 266.301 35.4999 266.401 36.7999C266.401 37.6999 266.801 38.6999 267.301 39.3999C267.401 40.3999 267.901 41.2999 268.501 41.8999C268.301 42.5999 268.301 43.2999 268.401 43.9999C268.401 44.0999 268.401 44.1999 268.401 44.2999C268.301 44.8999 268.301 45.3999 268.501 45.9999C268.501 46.0999 268.601 46.1999 268.601 46.2999C268.601 46.4999 268.501 46.7999 268.501 46.9999C268.501 47.5999 268.601 48.0999 268.901 48.6999C268.801 48.8999 268.801 49.0999 268.801 49.3999C268.701 49.9999 268.701 50.4999 268.901 51.0999C269.001 51.6999 269.301 52.0999 269.701 52.5999C269.801 52.7999 269.901 52.8999 270.101 53.0999C265.801 69.0999 256.601 85.5999 253.201 91.3999C253.101 90.4999 252.801 89.5999 252.001 88.8999C250.001 87.1999 246.001 88.0999 239.701 91.3999C238.401 92.0999 236.901 92.1999 235.301 91.4999C220.501 85.8999 199.101 28.8999 197.501 24.6999C198.101 23.5999 200.801 18.5999 204.801 13.4999C211.601 4.79985 217.101 1.89985 220.801 1.19985H217.101C212.801 3.09985 208.401 6.99985 203.801 12.7999C199.301 18.5999 196.301 24.2999 196.301 24.2999C196.201 24.3999 196.201 24.5999 196.301 24.7999C196.401 24.9999 202.001 40.3999 209.501 56.2999C219.601 77.7999 228.201 89.9999 234.801 92.4999C236.701 93.1999 238.501 93.1999 240.201 92.2999C243.401 90.5999 249.101 87.8998 251.201 89.6999C252.601 90.7999 251.801 93.4999 251.801 93.4999C251.701 93.7999 251.901 94.0999 252.101 94.1999C252.201 94.1999 252.301 94.2999 252.301 94.2999C252.501 94.2999 252.701 94.1999 252.801 93.9999C252.901 93.7999 266.001 72.7999 271.201 52.8999C271.301 52.6999 271.201 52.3999 271.001 52.2999C271.001 51.9999 270.901 51.7999 270.801 51.5999Z" fill="#070707"/>
<path d="M88.0996 166.3C88.3996 166.7 88.2996 167.2 88.5996 167.6C97.7996 181.3 85.7996 209.4 86.3996 211.1C86.9996 212.9 84.9996 218.8 84.4996 221.5C84.2996 222.3 87.1996 222.6 87.1996 222.6C92.3996 218.1 155.7 214.3 155.7 214.3C171.7 228.7 158.8 244.9 158.8 244.9C169.6 251.3 178.6 279.7 178.6 279.7C173.1 290.7 164.1 306.6 156.3 321.1H277.6C276.9 315 275.7 306.8 273.5 296.6C268.1 271.4 242.5 258.3 242.5 258.3L224.9 225.9C215.6 208.7 214.6 188.1 222.6 170.3C222.8 170 222.9 169.6 223.1 169.3C231 152.2 241.8 132.3 242.4 129.2L74.0996 124.8C69.4996 150.2 88.0996 166.3 88.0996 166.3Z" fill="#5A5EAF"/>
<path d="M224.4 226.1L242.1 258.7L242.3 258.8C242.4 258.8 248.7 262.1 255.7 268.4C262.1 274.2 270.3 283.8 273 296.7C275.2 306.8 276.4 314.9 277.1 321.1H278.3C277.6 314.9 276.4 306.7 274.2 296.5C271.4 283.3 263 273.5 256.5 267.6C250.1 261.8 244.1 258.5 243.1 257.9L225.6 225.7C221.1 217.3 218.4 207.9 218 198.4C217.6 188.9 219.4 179.3 223.3 170.6C223.4 170.3 223.6 169.9 223.8 169.6C227.4 161.8 231.6 153.6 235.2 146.3C239.6 137.5 242.8 131.2 243.2 129.4L242.1 129.2C241.8 130.8 238.3 137.8 234.2 145.8C230.5 153.1 226.4 161.3 222.8 169.1C222.6 169.4 222.5 169.8 222.3 170.1C218.3 178.9 216.5 188.7 216.9 198.4C217.1 208 219.7 217.6 224.4 226.1Z" fill="black"/>
<path d="M87.5 167.6C87.4 166.5 86 164.6 84.2 162.3C78.9 155.3 70.1 143.6 73.6 124.7L74.7 124.9C71.3 143.2 80 154.7 85.1 161.5C87.1 164.1 88.5 166 88.6 167.5L87.5 167.6Z" fill="black"/>
<path d="M173.2 266.6C176.1 273 177.7 278.5 178 279.6C174.1 287.4 168.6 297.4 162.7 308.1C160.3 312.4 157.9 316.8 155.6 321.1H156.9C159.1 317 161.4 312.8 163.7 308.7C169.6 298 175.2 287.8 179.1 280L179.2 279.8L179.1 279.6C179.1 279.5 177.4 273.5 174.2 266.2C168.7 254 163 247.6 159.2 244.4L158.5 245.3C162.2 248.3 167.8 254.6 173.2 266.6Z" fill="black"/>
<path d="M130.6 158.6C125.6 158.3 122.6 158.4 121.6 160.2C120.6 162 118.1 165.8 118 165.8C117.9 165.8 103.2 173.8 103.2 173.8C103.2 173.8 114.9 170.1 119.3 167.2C120 166.8 121.5 166.3 122 165.6C126.2 160.5 123.9 162.6 125.8 161.2C127.8 159.8 130.6 158.6 130.6 158.6Z" fill="#4F528E"/>
<path d="M160.9 157.2C155.5 156.7 150.8 157.3 150.8 157.3L148.5 162.2C148.5 162.2 139.6 167.9 135.7 170.6C134.7 171.3 131.5 171.3 128.3 171L113.4 173.8L125.9 173.5C127.3 174.4 128.4 175 128.4 175C122.3 178.4 101.6 190 101.6 190C101.6 190 118.3 183.9 128.7 177.5C130.3 176.5 140.5 173.2 140.5 173.2L151.6 159.8L160.9 157.2Z" fill="#4F528E"/>
<path d="M168.3 167C160.9 166.4 160.4 167.1 158.6 169.8C156.8 172.5 148.4 178.2 148.2 178.2C148 178.2 127.6 190 127.6 190C127.6 190 139.1 185.7 146.2 181.2C147.3 180.5 153.3 179.2 154.3 178.2C161.5 170.2 157.6 173.5 160.8 171.2C163.9 168.8 168.3 167 168.3 167Z" fill="#4F528E"/>
<path d="M168.2 201.9C177.3 235.1 175.9 269.4 175.9 269.4C175.9 269.4 172.5 257.9 164.5 249.4C149.7 233.6 139.5 241 139.5 241L144.8 226.9L168.2 201.9Z" fill="#4F528E"/>
<path d="M170.4 196C170.4 196 167.1 227.2 161.7 230.5C159.1 232 148.5 237.1 137.6 242.1C129.8 245.6 122 249.1 116.8 251.2C114 252.3 112 253.1 111.3 253.1C106 253.7 105.1 251 105.1 251L97.9998 241L91.9998 230.8L87.9998 226.5L87.7998 222.2L137.7 215.3C144.9 209.2 170.4 196 170.4 196Z" fill="#5A5EAF"/>
<path d="M94.9998 221.7C95.3998 221.6 95.7998 221.5 96.1998 221.4C96.0998 221.3 95.9998 221.2 95.9998 221.1C94.8998 220.5 94.2998 221.5 94.2998 221.7C94.3998 221.7 94.6998 221.7 94.9998 221.7Z" fill="#A59E81"/>
<path d="M88.3002 221.9C88.3002 221.9 88.2002 221.9 88.1002 221.7C88.0002 221.7 87.8002 221.8 87.7002 221.8L88.3002 221.9Z" fill="#A88279"/>
<path d="M128.701 218C129.301 217.6 130.001 217.3 130.801 217.3C131.001 217.3 131.201 217.3 131.501 217.4C133.201 216.8 134.901 216.1 136.601 215.5L136.201 215.4C136.201 215.4 108.701 216.4 97.1007 218.3C94.7007 218.7 92.5007 217.9 91.9007 218.5C90.9007 219.5 87.9007 221.4 88.2007 221.8C88.8007 221.6 89.5007 221.6 90.1007 221.6C90.9007 221.6 91.6006 221.7 92.3006 221.9C92.9006 221.8 93.4007 221.7 94.0007 221.8C94.4007 221.8 94.7007 221.8 95.1007 221.9C97.5007 221.1 100.001 220.8 102.601 220.5C105.101 220.2 107.701 220.1 110.201 219.9C115.201 219.5 120.301 219.2 125.401 218.6C126.401 218.3 127.501 218.1 128.701 218Z" fill="#A88279"/>
<path d="M125.2 218.5C126.4 218.3 127.5 218.1 128.7 218C129.3 217.6 130 217.3 130.8 217.3C131 217.3 131.2 217.3 131.5 217.4C132.3 217.1 133.1 216.8 133.9 216.5C134.9 215.9 135.9 215.4 136.9 215.4C137.3 215.2 137.8 215.1 138.2 215L140 214.2L144 209.3L144.4 206.5C144.4 206.5 136.3 206.3 133.5 210.2C131.3 213.1 130.6 212.7 128.7 214.1C128 214.6 127.3 215 126.8 214.9C119.4 214.7 101.6 216.5 99.5 217.5C93.1 223.2 91.7 217.5 92 218.6C91.2 219.8 89.6 220.1 88.5 221.8C89.1 221.7 89.6 221.6 90.2 221.6C91 221.6 91.7 221.7 92.4 221.9C92.6 221.6 92.9 221.3 93.1 221C96.2 217.8 101.1 219.7 101.3 218.8C101.8 216.2 107.5 217.4 109 219.1C110.2 220.5 111.3 218.7 112.4 218C115 216.3 115.4 217.5 116.4 218C117.7 218.6 118.7 216.7 119.9 216.1C122.1 215 124 217.7 125.5 218.7C125.2 218.5 125.2 218.5 125.2 218.5Z" fill="#991F3F"/>
<path d="M144.6 206C142.1 208.3 139.3 210.7 139.1 212.7C138.6 212.8 138.5 209.4 138 209.4C137.6 209.5 136.4 211.8 136 211.8C135.6 211.8 133.8 215.5 132.9 216.7C132.7 216.8 132.6 216.8 132.4 216.9C132.3 215.8 134 210.2 133.6 209.8C137.4 207.3 142.5 206.3 144.6 206Z" fill="#6D0635"/>
<path d="M130.8 217.3C130.9 217.3 131.1 217.3 131.2 217.3C131.2 216.9 131 216.6 130.7 216.5C128.3 216.1 124.3 217.5 124 218.6C124.4 218.6 124.8 218.5 125.2 218.5C126.4 218.3 127.5 218.1 128.7 218C129.3 217.5 130 217.3 130.8 217.3Z" fill="#8C1137"/>
<path d="M124 218.6C124.2 218.6 124.5 218.5 124.7 218.5C124.7 218.1 124.6 217.3 124.2 217C122 215.2 119.3 214.4 115.9 218.3C115.3 219.1 121.8 218.1 124 218.6Z" fill="#8C1137"/>
<path d="M118 219.2C120.2 219 122.3 218.8 124.5 218.6C123.5 216.9 121.1 215.3 119.8 216.2C117.9 217.4 118.3 218.4 118.3 218.4C118.2 218.7 118.1 219 118 219.2Z" fill="#D3CAA3"/>
<path d="M100.8 218.5C100.9 220 105.2 218.6 107.2 219.9C108.1 219.8 109.1 219.8 110 219.7C110.2 219.7 110.3 219.7 110.5 219.7C110.5 219.7 110.5 219.7 110.5 219.6C110.7 219.3 122.6 215 122.4 214.7C121.2 213.1 102.8 215.4 102.8 215.4L102.9 216.1L102.1 215.8C102.2 215.9 100.7 217 100.8 218.5Z" fill="#8C1137"/>
<path d="M100.2 220.6C100.4 220.6 100.6 220.5 100.8 220.5C101.4 220.1 102 218.7 101.3 218.5C100.3 218.1 98.0003 218.5 96.6003 218.6C96.4003 218.6 93.9003 217.5 94.0003 217.6C94.6003 219 92.8003 219.6 93.5003 221.2C94.1003 222.5 97.8003 220.3 100.2 220.6Z" fill="#8C1137"/>
<path d="M93.8998 221.6C94.0998 221.6 94.3998 221.6 94.5998 221.7C94.6998 220.9 94.5998 219.9 94.0998 220.1C93.1998 220.4 92.1998 220.9 91.2998 221.6C91.5998 221.6 91.7998 221.7 92.0998 221.8C92.6998 221.7 93.2998 221.6 93.8998 221.6Z" fill="#8C1137"/>
<path d="M95 221.7C95.4 221.6 95.8 221.5 96.2 221.4C95.8 221.3 95.3 221.3 95 221.7Z" fill="#F2EBCE"/>
<path d="M102.501 220.4C104.701 220.2 106.801 220 109.001 219.9C108.501 218 103.801 216.5 102.701 218.2C102.001 219.3 101.901 220 102.001 220.4C102.101 220.4 102.301 220.4 102.501 220.4Z" fill="#D3CAA3"/>
<path d="M111 219.7C111.6 219.7 112.2 219.6 112.8 219.6C113.2 219.5 113.6 219.4 114.2 219.5C114.7 219.5 115.1 219.4 115.6 219.4C116.3 218.9 117 218.1 116.4 217.6C116.1 217.4 115.7 217 115.4 216.7L113.7 215.6L113.9 214.3L113.1 216.1L113.3 216.7C113.3 216.7 110.4 218.2 110.9 219.4C110.9 219.6 111 219.6 111 219.7Z" fill="#8C1137"/>
<path d="M115 219.4C114.9 218 115 217 113.6 217.4C112.6 217.6 112.7 218.4 112 219.7C113 219.6 114 219.5 115 219.4Z" fill="#D3CAA3"/>
<path d="M101.1 220.5C101 220.4 101 220.3 100.9 220.2C100.4 219.6 100.1 219.8 99.9004 220.6C100.3 220.6 100.7 220.6 101.1 220.5Z" fill="#A59E81"/>
<path d="M90.0006 221.5C90.3006 221.5 90.5006 221.5 90.8006 221.5C89.6006 221.3 91.1006 220.7 90.6006 220.6C90.1006 220.5 89.2006 220.5 89.1006 221.6C89.3006 221.5 89.7006 221.5 90.0006 221.5Z" fill="#F2EBCE"/>
<path d="M109.3 254.2C106.8 254.2 103.4 250.7 98.9002 243.5C95.6002 238.2 92.8002 232.7 92.4002 232L88.8002 228.6C87.5002 227.4 86.9002 225.6 87.1002 223.9L87.4002 221.9L88.6002 222L88.3002 224C88.1002 225.4 88.6002 226.8 89.6002 227.7L93.4002 231.2V231.3C93.4002 231.4 96.4002 237.2 99.9002 242.8C102 246.1 107.1 253.7 109.7 252.9C111.3 252.4 129.9 245.9 144.5 238.6C145.6 238.1 147.3 237.3 149.3 236.3C153.4 234.4 158.5 232 160.3 230.9C164.6 228.2 168.3 206.8 169.4 198.8L170.6 199C170.6 199.1 169.6 206.4 168 214C165.8 224.4 163.4 230.4 161 231.9C159.2 233 154 235.4 149.9 237.4C147.9 238.3 146.2 239.2 145.1 239.7C130.4 247 111.7 253.6 110.1 254.1C109.8 254.2 109.6 254.2 109.3 254.2Z" fill="black"/>
<path d="M88.5005 222.3C86.4005 227.9 93.0005 230.6 93.0005 230.6C93.0005 230.6 117.3 222.7 137.8 216.1C130.7 215.4 116.9 217.2 115.5 215.6C110.2 216.1 104.8 217.3 100.6 218.2C94.2005 221.7 88.5005 222.3 88.5005 222.3Z" fill="#4F528E"/>
<path d="M163.4 250.2C157.8 243.5 152.4 240.5 144.8 239.8L144.9 238.6C152.8 239.4 158.4 242.5 164.3 249.4L163.4 250.2Z" fill="black"/>
<path d="M85.8004 223.2C85.2004 223.2 84.8004 223.1 84.5004 222.8C83.9004 222.3 83.9004 221.6 83.9004 221.4H85.1004C85.1004 221.6 85.1004 221.8 85.2004 221.9C85.7004 222.3 87.9004 221.8 91.0004 221.1C91.9004 220.9 92.9004 220.7 94.0004 220.4C94.7004 220.3 95.6004 219.8 96.5004 219.3C97.7004 218.7 99.1004 218 100.4 217.7H100.5H100.6C102.1 218.1 106.2 217 109.6 216.1C114.3 214.9 116 214.5 116.7 215.2C116.9 215.4 116.9 215.6 116.9 215.9C117.2 216 118.1 216.2 120.9 216.1C123.2 216 126.1 215.7 129.2 215.4C131.7 215.2 134.3 214.9 136.6 214.8L136.7 216C134.4 216.2 131.8 216.4 129.3 216.6C120.5 217.5 116.8 217.7 115.9 216.6C115.8 216.4 115.7 216.2 115.7 216C115.7 216 115.7 216 115.6 216C114.6 216 111.9 216.7 109.9 217.2C106.2 218.2 102.3 219.1 100.5 218.8C99.4004 219 98.2004 219.7 97.0004 220.3C96.0004 220.8 95.0004 221.3 94.2004 221.5C93.1004 221.7 92.1004 222 91.2004 222.2C88.5004 222.8 86.9004 223.2 85.8004 223.2Z" fill="black"/>
<path d="M95.7001 225.7C95.9001 226.3 96.2001 227.2 96.0001 227.6C95.9001 228 95.4001 228 94.1001 226.9C92.3001 225.3 91.1001 221.7 91.2001 220.1C91.3001 218.6 92.7001 219 93.4001 218.4C93.4001 218.4 93.7001 217.7 95.4001 217.7C95.6001 217.7 95.7001 217.8 95.8001 217.9C96.7001 219.3 95.4001 224.7 95.7001 225.7Z" fill="#D3CAA3"/>
<path d="M93.1 225.4C92.1 224.4 91.5 221.5 91.5 220.5C91.5 219.5 92.2 219.4 92.6 219.4C93 219.4 91.9 220.1 92.7 220C92.8 220 92.7 220.3 92.6 220.4C91.3 222.1 93.9 226.1 93.1 225.4Z" fill="#F2EBCE"/>
<path d="M95.7004 225.7C95.9004 226.3 96.2003 227.2 96.0003 227.6C95.8003 227.1 95.4003 226.6 95.3003 225.3C94.8003 219.9 94.9003 217 95.8003 218C96.7003 219 95.4004 224.7 95.7004 225.7Z" fill="#A59E81"/>
<path d="M74.7999 195.5C74.7999 195.5 72.8999 198.6 74.1999 200.2C75.0999 201.3 78.9999 204.3 81.5999 206.2C81.9999 206.5 87.1999 210.7 87.6999 211.1C87.6999 211.1 105.5 186.2 88.5999 167.6C88.7999 168.3 88.0999 168.9 88.0999 169.5C85.1999 182.7 74.7999 195.5 74.7999 195.5Z" fill="#5A5EAF"/>
<path d="M76.9004 193.2C79.8004 190 84.8004 187.1 86.8004 187.2C87.0004 186.5 83.7004 185.7 83.9004 185C84.1004 184.5 86.7004 183.1 86.8004 182.5C86.9004 182 91.0004 179.9 92.4004 178.8C92.5004 178.6 92.6004 178.4 92.7004 178.1C91.6004 177.8 85.7004 179.3 85.4004 178.6C81.9004 183.7 77.8004 190.1 76.9004 193.2Z" fill="#6D0635"/>
<path d="M87.0998 202.6C89.0998 206.1 89.1998 213.5 86.3998 211C83.5998 208.6 73.7998 199.2 73.7998 199.2C73.7998 199.2 85.8998 200.5 87.0998 202.6Z" fill="#4F528E"/>
<path d="M86.8002 203.1C86.7002 203.1 80.3002 198.4 74.0002 199.8L73.7002 198.7C80.5002 197.1 87.2002 201.9 87.5002 202.1L86.8002 203.1Z" fill="black"/>
<path d="M85.0999 221.5L83.9999 221.3C84.1999 220.5 84.3999 219.4 84.7999 218.2C85.4999 215.7 86.3999 212.3 85.9999 211.2C85.3999 209.6 82.6999 207.6 81.3999 206.6C78.4999 204.4 74.7999 201.6 73.8999 200.5C72.2999 198.6 74.3999 195.3 74.4999 195.1C74.5999 194.9 88.1999 175.3 87.5999 167.5L88.7999 167.4C89.4999 175.6 76.1999 194.8 75.4999 195.7C74.9999 196.5 73.9999 198.6 74.8999 199.7C75.4999 200.5 78.1999 202.6 82.1999 205.6C83.6999 206.7 86.4999 208.8 87.1999 210.7C87.6999 212 86.9999 214.7 86.0999 218.4C85.4999 219.6 85.1999 220.7 85.0999 221.5Z" fill="black"/>
<path d="M106.5 173.1C111.4 169.4 116.5 165.7 119.8 163.5C118.6 166.8 118.1 169.8 118.6 171.2C117.7 171.7 115.5 167.7 114.5 168.3C113.8 168.7 112.8 172.7 112 173.1C111.3 173.5 109.7 179.7 108.7 181.9C108.4 182.1 108.1 182.3 107.9 182.6C107.2 181.3 107.2 174.5 106.5 173.1Z" fill="#6D0635"/>
<path d="M96.9004 184.9C99.2004 184.2 101.7 183.4 102.9 181.4C104.8 177.9 105 174 107.3 170.7C107.7 170.2 108.1 169.7 108.5 169.1C110.5 166.3 112.8 163.2 112.8 163.2C112.8 163.2 106.5 160.7 104 164.4C103.8 164.7 102.8 164.2 101.7 163.7C100.7 163.2 99.7004 162.8 99.6004 163.1C97.6004 169.1 100.1 175.3 100.1 181.5C100.1 182.1 99.1004 182.5 98.6004 183.1C97.7004 184 96.9004 184.9 96.9004 184.9Z" fill="#4F528E"/>
<path d="M124.201 160.8C123.601 163.6 107.501 170.4 107.201 172.2L105.201 173.4L104.701 173.7L102.101 163.4L104.101 163.2L106.201 162.9C106.001 162.9 122.201 159.7 124.201 160.8Z" fill="#FFAB17"/>
<path d="M125.964 159.772L103.649 174.25L104.303 175.257L126.617 160.779L125.964 159.772Z" fill="black"/>
<path d="M104.1 174C103 171.2 101.7 167 101.4 163.5L102.6 163.4C102.8 166.8 104.1 170.8 105.2 173.5L104.1 174Z" fill="black"/>
<path d="M98.6004 164.3L94.4004 152.8L95.5004 152.4L99.3004 163L120.2 159.8H120.3L126.2 159.6L126.3 160.8L120.3 160.9L98.6004 164.3Z" fill="black"/>
<path d="M135.5 149.3L97.6004 155.2L89.3004 159.6L86.9004 152.9L91.2004 149.8L93.4004 155.4L92.1004 145L97.4004 149.9L131.2 142.2L135.5 149.3Z" fill="black"/>
<path d="M242.1 130L74 125.6C74 125.3 74.1 125.1 74.1 124.8C79.9 93.4 90.3 63.4 107.8 52.7C130.5 38.8 179.8 49.6 211.3 55C226.5 57.6 244.1 120.4 242.4 129.2C242.4 129.3 242.3 129.6 242.1 130Z" fill="#5A5EAF"/>
<path d="M242.7 130.2L241.6 129.8C241.7 129.5 241.8 129.2 241.8 129.1C242.5 125.7 240.1 113.6 236.1 100.3C231.3 84.6 225.5 71.1 220.2 63.4C217 58.7 214 56.1 211.2 55.6C208.1 55.1 204.8 54.5 201.3 53.8C170.5 48.3 128.4 40.8 108.2 53.1C89.4004 64.6 79.6004 98.5 74.7004 124.8C74.7004 125.1 74.6004 125.3 74.6004 125.6L73.4004 125.4C73.4004 125.1 73.5004 124.9 73.5004 124.6C78.4004 98 88.3004 63.8 107.5 52.1C128.1 39.5 170.5 47.1 201.5 52.6C205 53.2 208.3 53.8 211.4 54.3C214.4 54.8 217.7 57.6 221.1 62.6C233.2 80.2 244.4 121.8 242.9 129.2C242.9 129.5 242.8 129.8 242.7 130.2Z" fill="black"/>
<path d="M201.199 155.4C201.499 158.5 205.099 162.4 205.099 162.4C205.099 162.4 199.899 164.5 201.099 168.9C202.299 173.3 198.399 173.8 198.399 173.8C198.399 174.2 197.799 176.1 197.599 176.4L195.899 178.8C192.499 178.8 195.899 172.4 198.699 165.1C201.599 157.5 197.999 150.8 196.199 144.9C197.799 144.5 201.899 140.6 201.899 140.6C202.599 140.8 204.199 140.9 204.299 141.8L205.199 149.6C205.099 149.6 200.899 152.3 201.199 155.4Z" fill="#66082E"/>
<path d="M199.8 155.5C200.1 158.6 203.7 162.5 203.7 162.5C203.7 162.5 198.5 164.6 199.7 169C200.9 173.4 197.9 175.3 197.9 175.3C197.9 175.7 197.8 176.1 197.6 176.4L197.1 177.4L188.2 188C188 188.3 187.7 188.5 187.4 188.6L180 190.8C179.6 190.9 175.1 191.1 174.3 190.9L174.2 190.8L171 187.3L171.7 182.5L171.3 158.7L169 158L181.9 146.8C183.7 145.2 185.9 144.2 188.3 143.9C192 143.4 194 142.6 197.2 141.8C198.8 141.4 203.1 140 203.1 140C203.8 140.2 204.3 141 204.4 141.9L203.8 149.8C203.7 149.7 199.5 152.5 199.8 155.5Z" fill="#5A5EAF"/>
<path d="M176.1 191.6C175.2 191.6 174.4 191.6 174.1 191.5C174 191.5 173.9 191.4 173.9 191.4L173.7 191.3L173.6 191L172.1 186.8L173.2 186.4L174.7 190.4C175.7 190.5 179.4 190.4 179.9 190.3L187.3 188.1C187.5 188 187.7 187.9 187.8 187.7L197.2 176.2C197.3 176 197.4 175.7 197.4 175.4V175.1L197.7 174.9C197.8 174.8 200.3 173.1 199.3 169.2C198.8 167.2 199.3 165.3 201 163.7C201.7 163.1 202.4 162.6 202.9 162.3C201.9 161.1 199.6 158.1 199.3 155.6C199 152.6 202.3 150.1 203.2 149.4L203.8 141.8C203.8 141.2 203.5 140.8 203.1 140.6C201.7 141 193.5 143.6 188.4 144.4C186.1 144.7 184.1 145.7 182.3 147.2L168.6 159L167.8 158.1L181.4 146.3C183.3 144.7 185.6 143.6 188.1 143.3C193.5 142.5 202.7 139.5 202.8 139.5L203 139.4H203.2C204.2 139.7 204.9 140.7 204.9 141.8L204.3 150L204.1 150.2C204.1 150.2 200.2 152.8 200.4 155.4C200.7 158.2 204.1 162 204.2 162L204.8 162.6L204 162.9C204 162.9 202.8 163.4 201.7 164.4C200.4 165.7 199.9 167.1 200.3 168.7C201.4 172.6 199.3 174.8 198.5 175.4C198.5 175.8 198.4 176.2 198.2 176.5L198.1 176.6L188.7 188.2C188.4 188.6 188 188.8 187.6 189L180.2 191.2C179.8 191.5 177.7 191.6 176.1 191.6Z" fill="black"/>
<path d="M197.1 152.1C197.1 152.1 196.8 163.3 195.9 165.1L189.3 178.9C189 179.4 188.6 179.9 188.1 180.1L182.5 182.9C182.4 183 182.2 183 182.1 183.1L176.2 185L179.7 175.2C180.2 173.6 179.4 172 177.8 171.5L172.5 169.9L184.8 154.1C185.6 153.1 186.6 152.3 187.8 151.9L195.6 150.7C196.4 150.4 197.1 151.1 197.1 152.1Z" fill="#373C6D"/>
<path d="M176.4 185.5L175.7 184.7L179.2 174.9C179.4 174.3 179.4 173.7 179.1 173.1C178.8 172.5 178.3 172.1 177.7 171.9L172.4 170.3L172.1 169.4L184.4 153.6C185.2 152.5 186.3 151.7 187.6 151.2H187.7L195.5 150C196 149.9 196.5 150 196.9 150.4C197.4 150.8 197.7 151.5 197.6 152.2C197.6 153.4 197.3 163.5 196.4 165.4L189.8 179.2C189.5 179.8 189 180.4 188.3 180.7L182.7 183.5C182.5 183.6 182.4 183.6 182.2 183.7L176.4 185.5ZM173.5 169.5L178 170.8C178.9 171.1 179.7 171.7 180.1 172.5C180.5 173.3 180.6 174.3 180.3 175.2L177.2 183.9L182 182.4C182.1 182.4 182.2 182.3 182.3 182.3L187.9 179.5C188.3 179.3 188.6 179 188.8 178.6L195.4 164.8C196 163.6 196.4 156.5 196.5 152.1C196.5 151.8 196.4 151.4 196.2 151.3C196.1 151.2 196 151.1 195.8 151.2L188 152.4C186.9 152.8 186 153.5 185.3 154.4L173.5 169.5Z" fill="black"/>
<path d="M194.8 134.5C195 134.5 195.2 134.6 195.3 134.7L194.8 134.5Z" fill="#66082E"/>
<path d="M205.301 23.7999C192.301 19.0999 178.301 16.5999 163.801 16.5999C96.001 16.5999 41.001 71.5998 41.001 139.4C41.001 204 90.901 256.9 154.201 261.8C155.201 261.9 164.001 258.9 176.001 254.7L178.601 246L193.601 217L190.301 202.6L191.601 196L213.601 174.7L194.901 197.7L197.001 214.4L184.701 243.8L190.601 249.5C203.601 244.8 217.801 239.7 228.801 235.6C240.101 231.5 248.201 228.5 248.201 228.5C271.801 206.1 286.501 174.5 286.501 139.4C286.601 86.0999 252.701 40.7999 205.301 23.7999ZM151.801 166.5C151.801 166.5 151.601 167.3 151.501 167.7C151.101 169.6 150.801 171.5 150.401 173.4C150.301 173.7 150.201 174.1 150.101 174.4C149.501 176 148.501 177.6 147.301 179.1C147.201 179.4 147.101 179.6 147.001 179.8C146.901 180.2 146.801 180.4 146.801 180.4C146.801 180.4 145.401 180.2 143.301 179.8C142.801 179.7 142.201 179.6 141.601 179.5C141.001 179.3 140.301 179.1 139.601 179C139.301 178.9 138.901 178.9 138.601 178.8C135.101 178.9 131.801 177.8 128.601 177.2C128.101 177.2 127.501 177.3 127.001 177.4C126.501 177.4 126.001 177.5 125.601 177.7C122.601 178.7 121.401 182.4 120.101 185.4C119.901 185.8 119.801 186.2 119.601 186.7C116.701 194.8 113.001 204.8 113.001 204.8L92.401 198.5C92.401 198.5 94.801 191.7 97.001 185.3C97.101 184.9 97.301 184.5 97.401 184C97.701 183 98.001 182 98.401 181.1C99.001 179.1 99.701 177.2 100.501 175.4C98.901 175.4 97.201 175.2 95.501 175C94.701 174.9 93.901 174.6 93.101 174.2C92.701 174 92.401 173.8 92.101 173.6C91.401 173.1 90.801 172.4 90.201 171.5C89.801 171.3 89.301 171.1 88.801 171.1C86.901 170.8 84.801 171 82.701 171.6C82.301 171.7 81.901 171.8 81.501 171.8C81.101 171.8 80.701 171.7 80.401 171.5C74.601 168 78.801 160.4 81.201 155.9C81.401 155.5 81.501 155 81.601 154.6C82.301 152.4 82.701 150.1 84.301 148.3C85.501 150.2 87.801 151.2 90.001 151.1C90.501 151.1 90.901 151.1 91.401 151C91.901 150.9 92.301 150.8 92.801 150.6C93.301 150.5 93.801 150.3 94.301 150.2C94.801 150.2 95.301 150.2 95.801 150.2C99.901 151 104.301 151.7 107.101 152.3C107.601 152.4 108.001 152.5 108.401 152.5C108.801 152.4 109.201 152.3 109.501 152C109.801 151.8 110.101 151.5 110.401 151.2C111.501 149.8 112.501 148.4 113.301 146.8C113.601 146.3 113.801 145.8 114.001 145.2C114.801 143.8 115.401 142.4 115.901 140.9C116.101 140.4 116.201 139.9 116.401 139.4C116.701 139 116.901 138.6 117.101 138.1C117.501 137.3 117.801 136.3 118.101 135.2C118.201 134.9 118.301 134.7 118.301 134.4C118.401 134.1 118.501 133.9 118.501 133.6C118.601 133 118.701 132.4 118.701 131.8C118.701 131.5 118.701 131.2 118.701 130.8C118.601 128.7 118.201 126.8 118.601 124.8C118.801 123.8 118.801 121.9 120.201 122.7C122.301 123.7 123.901 125.8 126.101 127C126.401 127.1 126.601 127.2 126.901 127.3C127.201 127.4 127.401 127.5 127.701 127.5C128.001 127.6 128.401 127.6 128.701 127.7C129.801 127.9 130.901 128 131.901 128.2C132.401 128.3 132.901 128.4 133.401 128.4C135.401 128.8 137.601 127.2 138.601 128.8C139.401 130.2 137.801 132.1 137.001 133.8C136.901 134.1 136.801 134.4 136.601 134.6C136.501 134.9 136.401 135.1 136.301 135.3C136.201 135.6 136.101 136 135.901 136.4C135.201 138.4 134.501 140.6 133.701 142.8C133.601 143.2 133.501 143.5 133.301 143.9C131.901 147.6 130.401 151.5 130.701 155.2C130.901 155.8 133.401 156.6 135.001 156.8C135.401 156.9 135.801 156.9 136.101 157C138.601 157.4 141.401 157.9 144.001 158.3C144.401 158.4 144.701 158.4 145.101 158.5C145.601 158.5 146.001 158.6 146.501 158.8C146.901 158.9 147.801 159.3 147.801 159.3L156.401 155.2L173.901 162.8L156.001 158.3L151.801 166.5Z" fill="#FFAB17" stroke="#070707" stroke-width="1.1661" stroke-miterlimit="10"/>
<path d="M56.7002 239.3C62.2002 239 66.8002 237.9 66.8002 237.9L67.8002 233.2C67.8002 233.2 75.2002 226.9 78.4002 224C79.2002 223.2 82.4002 222.8 85.7002 222.6L99.9002 218.1L87.4002 220C85.8002 219.4 84.5002 219 84.5002 219C89.8002 215.2 107.4 201.9 107.4 201.9C107.4 201.9 92.3002 209.6 83.6002 216.8C82.3002 217.9 72.9002 222.2 72.9002 222.2L65.3002 235.7L56.7002 239.3Z" fill="#D64422"/>
<path d="M93.3008 194.8C77.3008 196.4 72.2008 188.8 62.1008 194C55.6008 197.4 53.7008 205.3 50.1008 220.1C47.5008 231.1 44.0008 246.6 33.2008 259.7C23.5008 271.4 33.0008 288 38.0008 280.2C48.9008 263 89.1008 241.5 105.401 229.1C88.2008 243.8 55.3008 261 43.9008 276.3C44.9008 276.3 45.9008 276.6 46.7008 277.2C47.1008 276 48.2008 275.1 49.4008 274.8C49.6008 274.7 49.9008 274.6 50.2008 274.5C50.5008 274.5 50.9008 274.4 51.2008 274.4C51.7008 274.4 52.2008 274.5 52.6008 274.7C53.1008 274.8 53.5008 275.1 53.8008 275.5C53.9008 275.6 53.9008 275.6 54.0008 275.7C55.3008 275.2 56.8008 275.4 57.9008 276.5C58.9008 277.4 59.2008 279.1 58.7008 280.5C58.7008 280.5 58.7008 280.5 58.8008 280.5C59.2008 280.5 59.7008 280.6 60.1008 280.8C60.2008 280.8 60.3008 280.9 60.4008 280.9C72.4008 269.7 76.9008 272.4 111.401 263.2C134.401 257 136.501 232 139.201 221.9C142.801 208.1 135.101 190.7 93.3008 194.8Z" fill="#ED7601"/>
<path d="M35.0006 282.8C34.9006 282.8 34.8006 282.8 34.7006 282.8C32.8006 282.6 30.9006 280.8 29.7006 277.9C27.8006 273.3 27.4006 265.8 32.7006 259.4C43.1006 246.8 46.7005 231.8 49.3005 220.8L49.5006 220C52.9006 205.7 55.0005 197.1 61.8005 193.5C67.4005 190.5 71.6005 191.5 76.8005 192.7C81.1005 193.7 86.0006 194.9 93.2006 194.2L93.3005 194.8L93.2006 194.2C104.401 193.1 113.901 193.5 121.401 195.4C128.001 197.1 133.001 199.9 136.201 203.7C140.301 208.6 141.601 215.1 139.801 222C139.401 223.3 139.101 224.9 138.701 226.7C136.101 238.5 131.901 258.3 111.601 263.7C101.201 266.5 93.6006 268.2 87.5006 269.5C73.8006 272.5 69.1005 273.6 60.9005 281.3L60.6006 281.6L60.2006 281.4C60.1006 281.4 60.0005 281.3 59.9005 281.3H59.8005C59.5005 281.1 59.2005 281.1 58.8005 281H58.7006H58.6006C58.6006 281 58.6006 281 58.5006 281L57.8005 280.9L58.0006 280.3C58.4006 279.1 58.1005 277.7 57.3005 277C56.3005 276.1 55.1006 275.9 54.0006 276.3L53.6006 276.5L53.3005 276.2C53.2005 276.1 53.2006 276.1 53.1006 276C52.8006 275.7 52.5006 275.5 52.2006 275.4H52.1006C51.8006 275.2 51.4006 275.1 51.0006 275.1L50.1006 275.2C49.9006 275.3 49.7006 275.4 49.5006 275.5H49.4005H49.3005C48.3005 275.7 47.4006 276.5 47.0006 277.5L46.7006 278.2L46.1006 277.7C45.4006 277.2 44.6006 276.9 43.7006 276.9L42.5006 277L43.2006 276C49.7006 267.3 63.1006 258 76.6006 248.9C61.0006 259.1 44.5006 270.7 38.2006 280.6C37.3006 282.4 36.0006 282.8 35.0006 282.8ZM69.3005 192.7C67.1005 192.7 64.9005 193.2 62.3005 194.5C59.4005 196 57.2006 198.7 55.5006 203C53.8006 207.1 52.5006 212.2 50.6006 220.3L50.4005 221.1C47.8005 232.2 44.2006 247.3 33.6006 260.1C28.6006 266.1 29.0006 273.2 30.7006 277.5C31.7006 280 33.3006 281.6 34.7006 281.7C35.9006 281.8 36.8005 280.8 37.3005 280C45.0005 267.9 67.2006 253.6 85.0006 242.1C92.7006 237.2 99.9005 232.5 104.801 228.7L105.501 229.6C98.8006 235.4 89.8005 241.4 80.3005 247.7C66.3005 257.1 51.9006 266.8 44.7006 275.8C45.2006 275.9 45.7006 276.1 46.1006 276.3C46.7006 275.3 47.7005 274.5 48.8005 274.2C49.1005 274.1 49.4006 273.9 49.6006 273.9H49.7006L50.7006 273.8C51.3006 273.8 51.9005 273.9 52.4005 274.2C52.9005 274.4 53.4006 274.7 53.7006 275.1C55.2006 274.7 56.7005 275 57.9005 276.1C58.9005 277 59.4006 278.6 59.1006 280C59.4006 280.1 59.6005 280.1 59.9005 280.3C68.2005 272.6 73.0005 271.6 86.8005 268.5C92.9005 267.2 100.401 265.5 110.901 262.7C130.501 257.5 134.701 238.1 137.201 226.6C137.601 224.8 137.901 223.2 138.301 221.8C140.001 215.3 138.901 209.1 135.001 204.5C126.501 194.4 107.501 194 93.0005 195.4C85.6005 196.1 80.4006 194.9 76.2006 193.9C74.0006 193.3 71.7005 192.7 69.3005 192.7Z" fill="black"/>
<path d="M126.301 200.8C130.301 206.8 139.801 214.4 130.601 230.5C121.401 246.6 111.801 252.1 93.2008 256.8C74.3008 261.4 63.9008 269.7 56.8008 275.2C57.0008 275.3 57.3008 275.3 57.5008 275.5C58.0008 275.6 58.4008 275.9 58.7008 276.3C59.1008 276.6 59.3008 277 59.5008 277.5C59.6008 277.8 59.7008 278 59.8008 278.3C59.9008 278.6 59.9008 278.9 59.9008 279.3V279.4C71.6008 268.4 75.7008 271.1 109.001 262.2C131.001 256.3 133.001 232.3 135.601 222.7C135.701 222.4 135.701 222.1 135.801 221.8C135.601 221.6 141.001 208.1 126.301 200.8Z" fill="#D64422"/>
<path d="M35.7008 278.4C29.3008 275.6 29.3008 269.3 29.3008 269.3C33.8008 278.7 41.2008 266.8 45.9008 263.3C57.8008 254.6 88.3008 239.8 104.201 220.5C115.601 206.6 116.701 217.6 116.701 217.6L75.2008 248.6L42.0008 272.2L35.7008 278.4Z" fill="#D64422"/>
<path d="M49.9003 247.3C48.4003 249.6 43.8003 248.7 45.8003 242.2C47.9003 235.7 56.4003 234.5 56.1003 239C55.9003 243.5 51.4003 245 49.9003 247.3Z" fill="#D64422"/>
<path d="M47.2005 241.8C44.2005 250.9 48.5005 249.5 53.2005 244.1C57.9005 238.7 50.2005 232.7 47.2005 241.8Z" fill="black"/>
<path d="M56.7002 239.3C62.2002 239 66.8002 237.9 66.8002 237.9L67.8002 233.2C67.8002 233.2 75.2002 226.9 78.4002 224C79.2002 223.2 82.4002 222.8 85.7002 222.6L99.9002 218.1L87.4002 220C85.8002 219.4 84.5002 219 84.5002 219C89.8002 215.2 107.4 201.9 107.4 201.9C107.4 201.9 92.3002 209.6 83.6002 216.8C82.3002 217.9 72.9002 222.2 72.9002 222.2L65.3002 235.7L56.7002 239.3Z" fill="#D64422"/>
<path d="M186.1 321C186.3 320.3 186.6 319.6 186.8 318.9C187.4 317 188.1 315.1 188.8 313.2C190.7 307.9 192.8 302.7 195.2 297.8C196.3 295.6 197.4 293.4 198.7 291.3C199.5 289.8 200.4 288.4 201.3 287C202.1 285.8 202.9 284.7 203.7 283.6C204.5 282.5 205.3 281.5 206.1 280.5C207 279.5 207.9 278.5 208.8 277.5C209.2 277.1 209.5 276.8 209.9 276.4C210.7 275.6 211.5 274.8 212.3 274.1C213.9 272.7 215.5 271.5 217.1 270.4C220.7 268 224.4 266.4 227.9 265.3C233.9 263.5 239.6 263.3 244.5 263.8C246.8 264 248.3 264.8 250.1 265.5C251.4 266 252.5 266.5 253.5 267C254.7 267.6 255.6 268.1 256.4 268.6C257.1 269 257.6 269.4 257.9 269.7C257.5 269.3 257.1 268.9 256.8 268.6C256.2 268 255.7 267.5 255.1 267C254.5 266.5 254 266 253.4 265.5C252.7 264.9 252 264.3 251.3 263.8C250.6 263.2 249.9 262.7 249.2 262.2C248.4 261.6 247.6 261 246.8 260.4C245.9 259.8 245.1 259.1 244.3 258.4C243.5 257.8 242.8 257.1 242.1 256.3C241.5 255.7 240.8 255 240.2 254.2C232.6 251.6 222.3 253.2 211 260.7C209.6 261.6 208.1 262.7 206.6 263.9C205.6 264.7 204.5 265.6 203.5 266.5C203 266.9 202.5 267.4 202 267.9C201.7 268.1 201.5 268.4 201.2 268.6C200.4 269.3 199.6 270 198.9 270.7C198.2 271.3 197.6 271.8 197 272.3C196.4 272.8 195.9 273.2 195.3 273.7C194.7 274.2 194.1 274.6 193.5 275C193 275.4 192.5 275.7 192 276.1C191.4 276.5 190.9 276.8 190.4 277.1C189.8 277.4 189.3 277.7 188.8 278C188.2 278.3 187.7 278.6 187.2 278.8C186.6 279.1 186.1 279.3 185.5 279.4C184.9 279.6 184.4 279.7 183.9 279.8C183.3 279.9 182.8 280 182.3 280C181.8 280 181.3 279.9 180.8 279.8C180.3 279.7 179.8 279.5 179.4 279.3C178.9 279.1 176.8 276.3 176.8 276.3C175.3 278.9 169.4 287 168.5 288.8C168.5 288.8 165.7 294.7 164.3 297.7C163.6 299.3 162.9 300.8 162.2 302.4C161.7 303.6 161.1 304.9 160.6 306.1C160.2 307.1 159.7 308.1 159.3 309.1C159 309.8 158.7 310.6 158.3 311.3C158.2 311.5 158.1 311.6 158.1 311.8C157.8 312.6 157.4 313.3 157.1 314.1C156.8 314.9 156.4 315.6 156.1 316.4C155.8 317.1 155.5 317.8 155.2 318.5C154.9 319.1 154.7 319.7 154.4 320.4C154.3 320.7 154.1 321 154 321.3H186.1V321Z" fill="#FFAB17"/>
<path d="M154.7 321C154.8 320.8 154.9 320.6 155 320.4L155.3 319.7C155.5 319.3 155.6 319 155.8 318.6C156 318.2 156.1 317.8 156.3 317.4L157.1 315.5C157.3 315.1 157.5 314.6 157.7 314.2L158.7 311.8C158.7 311.7 158.8 311.6 158.8 311.5V311.4C159.1 310.7 159.4 309.9 159.8 309.2L161.1 306.2C161.6 305 162.2 303.8 162.7 302.5C163.4 300.8 164.1 299.3 164.8 297.8C165.9 295.4 167.9 291.1 168.7 289.5L168.9 289C168.9 288.9 169 288.9 169 288.8C169.4 287.9 171.3 285.2 173.1 282.6C174.5 280.6 175.9 278.5 176.8 277.1C177.5 278 178.6 279.4 179.1 279.6C179.6 279.8 180.1 280 180.7 280.1C181.2 280.2 181.7 280.3 182.3 280.3C182.9 280.3 183.4 280.2 184.1 280.1C184.6 280 185.2 279.9 185.8 279.7C186.3 279.5 186.8 279.3 187.4 279.1H187.5C188 278.9 188.6 278.6 189.2 278.3C189.8 278 190.3 277.7 190.8 277.4C191.3 277.1 191.9 276.7 192.4 276.4C193 276 193.5 275.7 194 275.3C194.5 274.9 195.1 274.5 195.6 274.1L195.8 274C196.4 273.6 196.9 273.1 197.5 272.6C198.1 272.1 198.8 271.5 199.4 271C200.1 270.4 200.9 269.7 201.7 268.9L202.1 268.6C202.2 268.5 202.4 268.3 202.5 268.2C203 267.7 203.5 267.3 204 266.9C205 266 206.1 265.1 207.1 264.3C208.5 263.2 210 262.1 211.4 261.1C221.8 254.3 231.9 252 240 254.6C240.6 255.3 241.2 256 241.9 256.7C242.6 257.4 243.4 258.1 244.2 258.8C245 259.5 245.9 260.2 246.7 260.8C247 261.1 247.4 261.3 247.7 261.6C248.1 261.9 248.6 262.3 249.1 262.6C249.8 263.2 250.5 263.7 251.2 264.2C251.9 264.8 252.6 265.3 253.3 265.9C253.5 266.1 253.7 266.3 253.9 266.4C252.8 265.9 251.7 265.4 250.5 265C250.2 264.9 249.9 264.8 249.5 264.6C248.1 264 246.7 263.5 244.7 263.3C238.9 262.7 233.2 263.2 227.9 264.8C224.1 266 220.4 267.7 216.9 270C215.2 271.1 213.6 272.4 212 273.7C211.2 274.4 210.4 275.2 209.5 276C209.1 276.4 208.7 276.8 208.4 277.1C207.5 278.1 206.6 279.1 205.7 280.1C204.9 281.1 204 282.1 203.2 283.2C202.4 284.3 201.6 285.5 200.8 286.6C199.9 288 199 289.4 198.1 290.9C196.9 292.9 195.7 295.2 194.6 297.5C192.4 302 190.3 307.1 188.1 313C187.4 314.8 186.8 316.7 186.1 318.7C185.9 319.4 185.6 320.2 185.3 320.9H186.5C186.7 320.3 186.9 319.6 187.1 319C187.8 317 188.4 315.1 189.1 313.3C191.2 307.4 193.3 302.4 195.5 297.9C196.6 295.6 197.8 293.4 199 291.4C199.9 289.9 200.7 288.5 201.6 287.2C202.4 286 203.2 284.9 204 283.8C204.8 282.7 205.6 281.7 206.4 280.7C207.3 279.7 208.2 278.7 209.1 277.7C209.4 277.3 209.8 277 210.2 276.6C211 275.8 211.8 275.1 212.6 274.4C214.1 273.1 215.7 271.8 217.4 270.8C220.7 268.6 224.3 266.9 228.1 265.8C233.3 264.2 238.8 263.7 244.5 264.3C246.3 264.5 247.6 265 248.9 265.5C249.2 265.6 249.5 265.8 249.9 265.9C251.1 266.3 252.2 266.8 253.3 267.3C254.3 267.8 255.3 268.3 256.1 268.8C256.7 269.2 257.2 269.6 257.6 269.8L258.4 269C258 268.6 257.6 268.2 257.3 267.9C256.7 267.3 256.1 266.8 255.6 266.3C255.1 265.8 254.5 265.3 253.9 264.8C253.2 264.2 252.6 263.7 251.8 263.1C251.1 262.5 250.4 262 249.7 261.4C249.2 261 248.8 260.7 248.3 260.4C247.9 260.1 247.6 259.9 247.3 259.6C246.5 259 245.7 258.4 244.8 257.7C244 257 243.3 256.4 242.6 255.7C241.9 255 241.3 254.4 240.7 253.6L240.6 253.4L240.4 253.3C232 250.4 221.4 252.8 210.7 259.8C209.2 260.8 207.7 261.8 206.3 263C205.3 263.8 204.2 264.7 203.2 265.6C202.7 266 202.2 266.5 201.7 267C201.6 267.1 201.4 267.2 201.3 267.4L200.9 267.7C200.1 268.5 199.3 269.1 198.6 269.8C198 270.4 197.3 270.9 196.7 271.4C196.2 271.8 195.7 272.2 195.2 272.6L195 273C194.4 273.4 193.9 273.9 193.3 274.3C192.8 274.7 192.3 275 191.8 275.4C191.3 275.8 190.7 276.1 190.2 276.4C189.7 276.7 189.2 277 188.6 277.3C188.1 277.6 187.6 277.8 187.1 278H187C186.4 278.2 185.9 278.4 185.4 278.6C184.9 278.8 184.4 278.9 183.9 279C183.4 279.1 182.9 279.1 182.4 279.1C181.9 279.1 181.5 279.1 181 279C180.5 278.9 180.1 278.8 179.7 278.6C179.3 278.4 177.8 276.4 177.3 275.8L176.8 275L176.3 275.9C175.6 277.1 173.9 279.6 172.2 282.1C170.3 284.9 168.5 287.5 168 288.5L167.8 288.9C167.8 289 167.7 289.1 167.7 289.2C166.9 290.8 164.9 295.1 163.8 297.5C163.1 299 162.4 300.5 161.7 302.2C161.1 303.4 160.6 304.7 160.1 305.9L158.7 309C158.4 309.7 158.1 310.4 157.8 311.1V311.2C157.7 311.4 157.7 311.5 157.6 311.7L156.6 314.1C156.4 314.5 156.2 314.9 156.1 315.3L155.3 317.2C155.1 317.6 155 318 154.8 318.3C154.6 318.7 154.5 319.1 154.3 319.4L154 320.1C153.9 320.3 153.8 320.6 153.7 320.8C153.6 320.9 153.6 321.1 153.5 321.2H154.7V321Z" fill="#070707"/>
<path d="M161.4 321C163.7 318.9 166.4 316.9 169.1 315.4C180.3 309.2 190.2 300.4 196.5 289.3C213.9 258.8 231.6 258.6 245.8 260.5L241 257.3C208.5 247.1 183.2 300.6 165.2 297.7C165.2 297.8 159.4 310.7 154.8 320.9H161.4V321Z" fill="#ED7601"/>
<g opacity="0.35">
<path opacity="0.35" d="M165.4 32.5999C159.6 29.0999 153.5 29.1999 147.8 30.2999C134.2 32.7999 122.3 39.2999 108.6 40.6999C106.3 41.4999 104 42.3999 101.8 43.4999C97.4998 45.6999 93.4998 48.3999 89.7998 51.4999C87.5998 53.3999 85.5998 55.4999 83.6998 57.6999C82.3998 59.1999 81.1998 60.6999 79.9998 62.2999C78.7998 63.8999 77.6998 65.4999 76.5998 67.1999C75.2998 69.8999 73.8998 72.1999 72.1998 74.6999C63.5998 86.4999 51.5998 97.5 54.8998 114.8C70.6998 110.5 79.5998 96.2 89.3998 83.2999C90.9998 81.0999 92.6998 78.9999 94.3998 76.9999C95.9998 74.7999 97.7998 72.5999 99.7998 70.7999C101.2 69.3999 102.7 68.0999 104.3 66.9999C105.9 65.8999 107.6 64.7999 109.4 63.7999C124 52.9999 140.5 45.3999 160.5 44.1999C163 43.7999 165.2 42.2999 166.2 39.9999C167.4 37.3999 167.1 34.6999 165.4 32.5999Z" fill="white"/>
</g>
<path d="M284.501 140.6C284.501 175 269.801 206.1 246.201 228.1C246.201 228.1 238.201 231 226.801 235.1C226.801 233.6 227.301 232 228.101 230.4C250.401 197.5 254.401 166.7 249.201 137.2C249.301 133.8 249.201 130.5 248.601 127.3C248.101 124.1 247.201 120.9 245.801 117.9C244.101 113.7 241.701 109.7 238.801 105.9C236.401 102 233.801 98.2001 231.101 94.4001C215.901 73.2001 197.201 52.6 203.201 27.3C250.601 43.8 284.501 88.3001 284.501 140.6Z" fill="#EF9A11"/>
<path d="M134 153.2C139.5 152.9 144.1 151.8 144.1 151.8L145.1 147.1C145.1 147.1 152.5 140.8 155.7 137.9C156.5 137.1 159.7 136.7 163 136.5L177.2 132L164.7 133.9C163.1 133.3 161.8 132.9 161.8 132.9C167.1 129.1 184.7 115.8 184.7 115.8C184.7 115.8 169.6 123.5 160.9 130.7C159.6 131.8 150.2 136.1 150.2 136.1L142.6 149.6L134 153.2Z" fill="#EF9A11"/>
<path d="M54.7002 176.5C65.6002 171.8 73.9002 165.9 73.9002 165.9L72.5002 155.7C72.5002 155.7 82.7002 137.3 86.8002 129C87.9002 126.8 94.0002 123.6 100.4 120.7L125.5 100.9L102 114.2C98.3002 114.3 95.4002 114.3 95.4002 114.3C103.1 102.5 128.5 62.3999 128.5 62.3999C128.5 62.3999 104 89.4999 92.0002 110.5C90.2002 113.7 74.7002 129.6 74.7002 129.6L69.5002 162.7L54.7002 176.5Z" fill="#EF9A11"/>
<path d="M220 306.4C221.2 308.1 223.2 308.8 225.2 308.2C225.9 308 226.2 308.2 226.1 309C225.5 313.8 227.1 317.7 230.8 320.8C230.9 320.9 231 320.9 231 321H240.8C244.3 320.1 247.5 318.4 250.5 315.8C250.9 315.4 251.2 314.9 251.4 314.4C252.3 311.3 252 308.3 251 305.2C250.1 302.7 248.6 300.6 246.4 299C245.5 298.4 245.4 298.4 244.5 299C242.9 300.3 241.7 301.9 241 303.8C240.9 304.1 240.7 304.3 240.3 304.4C239.2 304.6 238.1 304.8 237 305.1C237 305 237 304.8 237.1 304.7C238.4 299.8 234.3 295.1 229.5 295.7C229.4 295.7 229.4 295.7 229.3 295.7C228.8 295.8 228.3 296 227.8 296.1L227.7 296.2C225.3 297.3 223.9 299.2 223.4 301.8C223.4 302 223.2 302.2 223 302.2C222.1 302.5 221.1 302.8 220.1 303C219.4 303.1 219 303.4 219.1 304.2C219.2 304.7 219.3 305.1 219.5 305.6C219.6 305.8 219.8 306.1 220 306.4Z" fill="#333A7F"/>
<path d="M198.1 321L197.3 319.6C197.3 319.6 200.5 312.5 201.7 309.3C202 308.5 204.7 306.7 207.6 304.9L218 295.5L207.8 302.7C206 303.2 204.5 303.6 204.5 303.6C207.1 298.9 215.6 283 215.6 283C215.6 283 206.3 294.7 202.4 302.9C201.8 304.1 195.8 311.1 195.8 311.1L196.5 321.1H198.1V321Z" fill="#6D0635"/>
<path d="M248.501 277.7L256.601 268C257.601 266.8 259.401 266.6 260.601 267.6C261.801 268.6 262.001 270.4 261.001 271.6L252.901 281.3C251.901 282.5 250.601 282 249.401 281C248.201 280.1 247.501 278.9 248.501 277.7Z" fill="#444444"/>
<path d="M251.501 282.6C250.801 282.6 250.001 282.3 249.001 281.5C248.201 280.9 247.801 280.3 247.601 279.6C247.301 278.8 247.501 278 248.101 277.3L256.201 267.6C257.401 266.1 259.601 266 261.001 267.2C262.501 268.4 262.601 270.6 261.401 272L253.301 281.7C252.901 282.2 252.301 282.6 251.501 282.6ZM248.501 277.7L248.901 278.1C248.501 278.6 248.501 279 248.601 279.3C248.701 279.7 249.101 280.2 249.701 280.7C251.401 282.1 252.101 281.4 252.401 281L260.501 271.3C261.301 270.3 261.201 268.9 260.201 268.1C259.201 267.3 257.801 267.4 257.001 268.4L248.901 278.1L248.501 277.7Z" fill="black"/>
<path d="M254.401 279.5C252.201 279.5 249.101 277.3 249.101 277.3L254.401 279.5Z" fill="#444444"/>
<path d="M254.401 280.1C252.001 280.1 248.901 277.9 248.801 277.8L249.501 276.9C249.501 276.9 252.501 279 254.501 279L254.401 280.1Z" fill="black"/>
<path d="M253.3 280.8C251.1 280.8 248 278.6 248 278.6L253.3 280.8Z" fill="#444444"/>
<path d="M253.3 281.4C250.9 281.4 247.8 279.2 247.7 279.1L248.4 278.2C248.4 278.2 251.4 280.3 253.4 280.3L253.3 281.4Z" fill="black"/>
<path d="M255.7 278.2C253.5 278.2 250.4 276 250.4 276L255.7 278.2Z" fill="#444444"/>
<path d="M255.701 278.8C253.301 278.8 250.201 276.6 250.101 276.5L250.801 275.6C250.801 275.6 253.801 277.7 255.801 277.7L255.701 278.8Z" fill="black"/>
<path d="M261.101 279.4L263.201 277.4L253.101 261.8L251.101 263.8L247.801 270.5L252.801 278.3L261.101 279.4Z" fill="#444444"/>
<path d="M261.1 280L252.8 278.9L252.4 278.6L247.4 270.8V270.2L250.7 263.5L250.8 263.3L252.8 261.3L253.7 261.4L263.7 277L263.6 277.7L261.6 279.7L261.1 280ZM253.2 277.7L261 278.8L262.5 277.3L253.1 262.7L251.7 264.1L248.6 270.4L253.2 277.7Z" fill="black"/>
<path d="M263.201 277.4L266.501 270.8L261.501 263L253.101 261.8L249.801 268.5L254.801 276.3L263.201 277.4Z" fill="#A3A3A3"/>
<path d="M263.1 278L254.8 276.9L254.4 276.6L249.4 268.8V268.2L252.7 261.5L253.3 261.2L261.6 262.3L262 262.6L267 270.4V271L263.7 277.7L263.1 278ZM255.2 275.7L262.8 276.8L265.8 270.8L261.1 263.5L253.5 262.4L250.5 268.4L255.2 275.7Z" fill="black"/>
<path d="M262.2 313.6L274.9 313.7C276.5 313.7 277.7 315 277.7 316.6C277.7 318.2 276.4 319.4 274.8 319.4L262.1 319.3C260.5 319.3 260.1 318 260.1 316.4C260.1 314.9 260.6 313.6 262.2 313.6Z" fill="#444444"/>
<path d="M274.8 320L262.1 319.9C261.2 319.9 260.4 319.5 260 318.8C259.7 318.2 259.5 317.5 259.5 316.5C259.5 315.5 259.7 314.8 260 314.2C260.4 313.5 261.2 313.1 262.1 313.1L274.8 313.2C276.7 313.2 278.2 314.8 278.2 316.7C278.2 317.6 277.8 318.5 277.2 319.1C276.5 319.7 275.7 320 274.8 320ZM262.1 314.2C261.4 314.2 261.2 314.5 261 314.7C260.8 315.1 260.6 315.6 260.6 316.4C260.6 317.2 260.7 317.7 260.9 318.1C261 318.3 261.3 318.7 262 318.7L274.7 318.8C275.3 318.8 275.9 318.6 276.3 318.2C276.7 317.8 277 317.2 277 316.6C277 315.4 276 314.3 274.8 314.3L262.1 314.2Z" fill="black"/>
<path d="M264.4 319.3C263 317.6 262.8 313.8 262.8 313.8L264.4 319.3Z" fill="#444444"/>
<path d="M264 319.7C262.5 317.9 262.3 314 262.2 313.8L263.4 313.7C263.4 313.7 263.6 317.3 264.9 318.9L264 319.7Z" fill="black"/>
<path d="M262.7 319.3C261.3 317.6 261.1 313.8 261.1 313.8L262.7 319.3Z" fill="#444444"/>
<path d="M262.3 319.7C260.8 317.9 260.5 314 260.5 313.8L261.7 313.7C261.7 313.7 261.9 317.3 263.2 318.9L262.3 319.7Z" fill="black"/>
<path d="M266.3 319.5C264.9 317.8 264.7 314 264.7 314L266.3 319.5Z" fill="#444444"/>
<path d="M265.8 319.9C264.3 318.1 264 314.2 264 314L265.2 313.9C265.2 313.9 265.4 317.5 266.7 319.1L265.8 319.9Z" fill="black"/>
<path d="M272.8 321L277.4 307.2L274.5 306.9L267.3 308.5L264.4 317.3L266.7 321H272.8Z" fill="#444444"/>
<path d="M266 321H267.3L265 317.2L267.7 309L274.6 307.4L276.6 307.7L272.2 321H273.5L277.9 307.4L277.4 306.6L274.6 306.3H274.4L267.2 307.9L266.7 308.3L263.9 317.1V317.6L266 321Z" fill="black"/>
<path d="M279.6 321L281.7 314.3L277.4 307.2L270.1 308.8L267.2 317.6L269.3 321H279.6Z" fill="#A3A3A3"/>
<path d="M268.6 321H270L267.9 317.5L270.6 309.3L277.1 307.8L281.1 314.4L278.9 321H280.2L282.3 314.5L282.2 314L277.9 306.9L277.2 306.6L270 308.2L269.6 308.6L266.7 317.4V317.9L268.6 321Z" fill="black"/>
<path d="M204.1 125L201.6 126.2L200.6 134.9L193.1 130.3L191.1 131.3V131.4C191.1 131.6 191.1 131.7 191 131.8L190.9 131.9C191 132 191.1 132.1 191.1 132.2C191.2 132.3 191.2 132.5 191.2 132.7C191.3 132.7 191.4 132.8 191.5 132.9L191.6 133C191.7 133.1 191.8 133.2 191.8 133.4C191.8 133.5 191.9 133.5 191.9 133.6C191.9 133.6 191.9 133.7 192 133.7C192.1 133.8 192.2 133.9 192.2 134C192.3 134.3 192.4 134.6 192.5 134.9C192.5 135.1 192.5 135.2 192.4 135.3L193.6 137.9C193.7 137.9 193.8 138 193.9 138C194.1 138 194.2 138.1 194.3 138.2C194.5 138.2 194.6 138.2 194.7 138.3C194.8 138.3 194.8 138.4 194.9 138.4C195 138.5 195 138.6 195.1 138.7C195.2 138.8 195.3 138.9 195.3 139.1C195.3 139.2 195.3 139.2 195.3 139.3C195.3 139.4 195.3 139.5 195.2 139.6C195.2 139.7 195.1 139.7 195.1 139.8V139.9L196.2 139.4L192.8 132.4L200.6 137.3L201.6 136.8C201.6 136.8 201.6 136.7 201.7 136.7L201.8 136.5C201.9 136.4 202 136.4 202 136.3L203 127.4L204.2 129.8L204.3 129.7C204.4 129.6 204.5 129.5 204.7 129.5C204.8 129.5 204.8 129.5 204.9 129.5C205 129.5 205.1 129.5 205.2 129.6C205.3 129.6 205.3 129.7 205.4 129.7C205.5 129.5 205.6 129.3 205.9 129.2L204.1 125Z" fill="#D64422"/>
<path d="M207.101 131.3H207.001C206.901 131.3 206.901 131.3 206.901 131.3V131.4C207.201 131.7 207.201 132.3 206.801 132.6V132.7C206.801 132.7 206.801 132.7 206.801 132.8C206.901 132.9 206.901 133 206.901 133.1V133.3C206.901 133.5 206.801 133.7 206.701 133.9L206.601 134L206.701 134.2L208.301 133.4L207.101 131.3Z" fill="#D64422"/>
<path d="M212.4 121L210.4 122L210.3 123C210.4 123.1 210.4 123.2 210.5 123.3V123.4C210.6 123.5 210.6 123.7 210.6 123.8V124C210.6 124.1 210.5 124.2 210.4 124.3C210.5 124.4 210.5 124.6 210.5 124.7C210.5 124.9 210.5 125.1 210.5 125.3C210.5 125.4 210.5 125.5 210.5 125.6C210.5 125.6 210.5 125.6 210.5 125.7C210.6 126.1 210.4 126.5 210 126.7C210 126.9 210 127 210 127.2L210.1 127.3C210.2 127.4 210.2 127.5 210.3 127.6C210.3 127.7 210.4 127.7 210.4 127.8C210.5 127.8 210.5 127.9 210.6 127.9C210.7 128 210.7 128.1 210.8 128.2C210.9 128.3 210.9 128.4 210.9 128.5V128.6C210.9 128.8 210.9 128.9 210.8 129L210.7 129.2L210.6 129.3C210.6 129.8 210.6 130.2 210.7 130.7C210.7 131 210.6 131.2 210.3 131.4L210.2 131.5C210.2 131.9 209.9 132.3 209.5 132.3L209.4 132.9L211.2 132L211.4 129.7L217.7 126.7L219.7 128L221.5 127.1L212.4 121ZM211.6 127.9L212.1 122.7L216.4 125.6L211.6 127.9Z" fill="#D64422"/>
<path d="M224.101 124.9C224.101 125 224.001 125.1 223.901 125.1C223.801 125.2 223.801 125.2 223.701 125.3C223.701 125.4 223.701 125.5 223.601 125.6C223.701 125.7 223.701 125.9 223.701 126L224.401 125.7L224.101 124.9Z" fill="#D64422"/>
<path d="M220.7 121.5C220.7 121.4 220.8 121.4 220.8 121.3C220.9 121.2 220.9 121.2 221 121.2C221 121.1 221.1 121 221.2 120.9C220.9 120.9 220.6 120.6 220.5 120.3C220.5 120.3 220.5 120.3 220.5 120.2C220.4 120.3 220.2 120.3 220 120.2L220.7 121.6C220.6 121.6 220.6 121.5 220.7 121.5Z" fill="#D64422"/>
<path d="M223.401 121.5C223.201 121.3 223.201 121.2 223.101 121.1L222.601 121.3C222.601 121.3 222.701 121.3 222.701 121.4C222.801 121.5 222.901 121.6 222.901 121.8C222.901 121.9 222.901 121.9 222.901 122V122.1C223.001 121.9 223.201 121.6 223.401 121.5Z" fill="#D64422"/>
<path d="M231.601 119.5C231.201 118.6 230.501 118.3 229.501 118.6C230.201 117.8 230.401 116.9 229.901 115.7C229.001 113.9 227.301 113.8 225.301 114.8L218.801 117.9L218.901 118C218.901 118 219.001 117.9 219.101 117.9C219.301 117.8 219.501 117.8 219.801 117.8C220.001 117.9 220.201 118 220.301 118.2C220.201 118 220.301 118.2 220.401 118.3C220.401 118.4 220.501 118.4 220.501 118.5C220.601 118.6 220.601 118.7 220.701 118.8C220.801 118.7 220.901 118.7 221.001 118.7C221.101 118.7 221.101 118.7 221.201 118.7L225.701 116.5C226.601 116.1 227.801 115.5 228.501 116.9C229.201 118.4 228.001 118.9 227.101 119.4L224.801 120.5L224.901 120.6C225.001 120.7 225.101 120.8 225.101 121C225.101 121.1 225.101 121.1 225.101 121.2C225.101 121.4 225.101 121.5 225.001 121.6C225.001 121.7 225.101 121.7 225.101 121.8C225.101 121.9 225.101 121.9 225.101 122L228.601 120.3C229.601 119.8 229.901 119.9 230.301 120.8L231.201 122.6L232.801 121.8L231.601 119.5Z" fill="#D64422"/>
<path d="M232.8 115.2C232.7 115.3 232.6 115.3 232.5 115.3C232.4 115.3 232.3 115.3 232.2 115.2C232.1 115.2 232.1 115.1 232 115.1L232.6 116.4V116.2C232.6 116.1 232.6 116 232.7 115.9V115.7C232.7 115.5 232.8 115.3 232.8 115.2C232.9 115.2 232.9 115.2 232.8 115.2Z" fill="#D64422"/>
<path d="M232.101 112.5C231.901 112.2 231.901 111.9 232.001 111.6L230.601 112.3L231.401 114C231.501 113.7 231.701 113.4 232.101 113.3C232.001 113 232.001 112.7 232.101 112.5Z" fill="#D64422"/>
<path d="M238.001 113.4L241.201 107.2L238.701 108.4L234.601 116.4L234.401 116C234.401 116.1 234.401 116.2 234.301 116.3V116.5C234.301 116.7 234.201 116.9 234.101 117.1C233.901 117.3 233.701 117.3 233.501 117.3C233.401 117.3 233.301 117.3 233.201 117.2C233.201 117.2 233.101 117.2 233.101 117.1L234.801 120.6L236.401 119.8L235.601 118.2L237.301 114.8L243.101 116.6L245.301 115.5L238.001 113.4Z" fill="#D64422"/>
<path d="M254.701 100.7L253.801 101.1C253.901 101.1 253.901 101.2 254.001 101.2L254.101 101.3C254.301 101.4 254.401 101.6 254.501 101.8V101.9H254.601C254.801 102 255.001 102.1 255.101 102.3C255.101 102.4 255.201 102.4 255.201 102.5C255.401 102.7 255.401 102.9 255.401 103.1C255.401 103.3 255.301 103.5 255.201 103.6C255.201 103.7 255.301 103.8 255.301 103.9C255.301 104 255.301 104 255.301 104.1C255.501 104.2 255.601 104.4 255.701 104.6C255.901 104.7 256.001 104.9 256.101 105.1C256.101 105.2 256.201 105.4 256.201 105.6C256.201 105.7 256.301 105.8 256.301 105.9C256.301 106 256.301 106 256.301 106.1C256.301 106.1 256.301 106.1 256.301 106.2H256.401C256.501 106.2 256.601 106.3 256.701 106.4C256.801 106.5 256.901 106.6 256.901 106.8C256.901 106.9 256.901 106.9 256.901 107C256.901 107.1 256.901 107.2 256.801 107.3C256.801 107.4 256.701 107.5 256.601 107.6C256.501 107.7 256.401 107.7 256.401 107.8C256.701 108 256.901 108.4 256.801 108.8L257.201 109.6L258.801 108.8L254.701 100.7Z" fill="#D64422"/>
<g opacity="0.35">
<path opacity="0.35" d="M186.28 37.9937C186.445 34.5737 182.689 31.6131 177.89 31.3811C173.091 31.1491 169.066 33.7336 168.901 37.1536C168.736 40.5737 172.492 43.5343 177.291 43.7662C182.09 43.9982 186.115 41.4138 186.28 37.9937Z" fill="white"/>
</g>
</svg>
