<svg width="128" height="195" viewBox="0 0 128 195" fill="none" xmlns="http://www.w3.org/2000/svg">
<path d="M127.008 62.3326L63.9932 0.0336914L0.978483 62.3326L63.9932 124.631L127.008 62.3326Z" fill="#FF00CF"/>
<path d="M51.2405 49.8013C53.1677 53.9404 53.6329 57.8825 52.2374 62.4815C52.9019 62.0216 53.3006 61.7588 53.5665 61.496C56.9557 58.6052 58.75 54.7945 59.0823 50.4583C59.2817 47.896 59.1487 45.3993 59.2152 42.837C59.2817 41.0631 59.2817 39.2891 59.5475 37.5809C60.4114 31.9964 63.9336 28.5799 69.1836 26.7403C69.3829 26.6746 69.5823 26.6746 69.7817 26.6089C69.8481 26.7403 69.9146 26.8717 69.9146 26.8717C67.6551 31.5364 67.9874 36.2669 70.2468 40.7346C72.0411 44.2824 74.2342 47.6332 76.4937 50.8525C79.8829 55.583 83.3386 60.2477 85.1994 65.7666C85.9968 68.1318 86.6614 70.6941 86.9272 73.1908C87.5918 78.7753 85.7975 83.7029 81.943 87.7764C80.4146 89.3532 78.6203 90.7329 76.6266 92.3754C77.2247 90.0759 77.7563 88.2363 78.0886 86.3966C78.8861 81.929 78.1551 77.7241 75.5633 73.9135C74.9652 73.0594 74.4336 72.2053 73.8355 71.3511C71.5095 67.869 69.5823 64.3212 70.5791 59.8535C69.0506 61.3646 68.0538 63.2699 68.1203 65.3724C68.1867 67.4748 68.519 69.5772 69.1171 71.5483C69.8481 74.1763 71.0443 76.7386 71.7753 79.3666C73.1044 84.2285 71.443 88.4334 67.4557 90.9957C67.057 91.2585 66.6582 91.4556 66.1266 91.587C67.5886 89.1561 68.3861 86.6594 68.1203 83.9C67.8544 81.2063 67.1234 78.7096 64.9304 76.7386C65.0633 77.3956 65.2627 77.9869 65.2627 78.6439C65.2627 79.8923 65.3291 81.272 64.9968 82.4546C64.1994 84.7541 61.6741 85.0826 60.1456 83.243C58.9494 81.8633 58.6836 80.2865 58.8829 78.5125C59.0158 77.527 59.2152 76.6072 59.0823 75.3589C58.2848 75.9502 57.3544 76.4101 56.6234 77.1328C53.8987 79.6952 52.9019 83.0459 53.1013 86.6594C53.2342 88.6962 53.5665 90.7329 54.0981 92.6382C54.6298 94.5435 55.6266 96.3832 56.3576 98.2885C56.2912 98.2885 56.1582 98.2885 56.0253 98.2228C44.6614 93.8208 38.0158 81.7319 41.8038 69.9714C42.5348 67.8033 43.7975 65.7666 44.9272 63.7299C46.1234 61.6274 47.5855 59.6564 48.7817 57.554C49.4462 56.4371 49.9779 55.123 50.3766 53.8747C50.8418 52.5607 50.9747 51.2467 51.2405 49.8013Z" fill="white"/>
<path d="M49.9114 137.972C49.9114 139.351 49.6456 140.6 49.114 141.585C48.5823 142.571 47.8513 143.359 46.9209 143.885C45.9906 144.41 44.9937 144.673 43.7975 144.673C42.6678 144.673 41.6045 144.41 40.6741 143.885C39.7437 143.359 39.0127 142.571 38.4811 141.585C37.9494 140.6 37.6836 139.417 37.6836 137.972C37.6836 136.592 37.9494 135.344 38.4811 134.358C39.0127 133.373 39.7437 132.584 40.6741 132.059C41.6045 131.533 42.6013 131.27 43.7975 131.27C44.9273 131.27 45.9906 131.533 46.9209 132.059C47.8513 132.584 48.5823 133.373 49.114 134.358C49.6456 135.344 49.9114 136.592 49.9114 137.972ZM47.519 137.972C47.519 136.986 47.3861 136.132 47.0539 135.475C46.7216 134.818 46.3228 134.292 45.7912 133.898C45.2595 133.504 44.595 133.373 43.864 133.373C43.133 133.373 42.5349 133.57 41.9368 133.898C41.4051 134.227 40.9399 134.752 40.6741 135.475C40.3418 136.132 40.2089 136.986 40.2089 137.972C40.2089 138.957 40.3418 139.811 40.6741 140.468C41.0064 141.125 41.4051 141.651 41.9368 142.045C42.4684 142.374 43.133 142.571 43.864 142.571C44.595 142.571 45.1931 142.374 45.7912 142.045C46.3228 141.717 46.788 141.191 47.0539 140.468C47.3197 139.811 47.519 138.957 47.519 137.972Z" fill="white"/>
<path d="M63.136 131.467V144.542H61.0095L54.7626 135.672H54.6297V144.542H52.2373V131.533H54.3639L60.5443 140.403H60.6772V131.533H63.136V131.467Z" fill="white"/>
<path d="M65.7939 144.542V131.533H68.1864V142.571H73.968V144.542H65.7939Z" fill="white"/>
<path d="M73.9678 131.467H76.6925L79.9488 137.249H80.0817L83.338 131.467H86.0627L81.2779 139.614V144.476H78.7526V139.614L73.9678 131.467Z" fill="white"/>
<path d="M33.5632 150.98V176.144H29.7088V154.791H29.5758L23.4619 158.733V155.12L29.8417 150.98H33.5632Z" fill="white"/>
<path d="M49.5128 176.604C47.5191 176.604 45.8577 176.078 44.4622 175.093C43.0666 174.107 42.0033 172.596 41.2723 170.625C40.5413 168.654 40.209 166.355 40.209 163.595C40.209 160.836 40.6077 158.536 41.3387 156.631C42.0697 154.726 43.133 153.214 44.5286 152.229C45.9242 151.243 47.5856 150.718 49.5792 150.718C51.5065 150.718 53.1678 151.243 54.5634 152.229C55.959 153.28 57.0223 154.726 57.7533 156.631C58.4843 158.536 58.883 160.901 58.883 163.595C58.883 166.355 58.4843 168.654 57.7533 170.625C57.0223 172.596 55.959 174.042 54.5634 175.093C53.1678 176.078 51.5065 176.604 49.5128 176.604ZM49.5128 173.319C51.2406 173.319 52.5697 172.465 53.5666 170.822C54.5634 169.18 55.0286 166.749 55.0286 163.595C55.0286 161.493 54.8292 159.719 54.3641 158.273C53.8989 156.828 53.3008 155.711 52.4368 154.988C51.6394 154.266 50.6425 153.871 49.5128 153.871C47.7849 153.871 46.4558 154.726 45.459 156.368C44.4622 158.011 43.997 160.441 43.997 163.595C43.997 165.698 44.1963 167.471 44.6615 168.917C45.1267 170.362 45.7248 171.479 46.5887 172.202C47.4527 172.925 48.383 173.319 49.5128 173.319Z" fill="white"/>
<path d="M72.3732 176.604C70.3795 176.604 68.7181 176.078 67.3226 175.093C65.927 174.107 64.8637 172.596 64.1327 170.625C63.4017 168.654 63.0029 166.355 63.0029 163.595C63.0029 160.836 63.4017 158.536 64.1327 156.631C64.8637 154.726 65.927 153.214 67.3226 152.229C68.7181 151.243 70.3795 150.718 72.3732 150.718C74.3004 150.718 75.9618 151.243 77.3574 152.229C78.7529 153.28 79.8162 154.726 80.5472 156.631C81.2782 158.536 81.677 160.901 81.677 163.595C81.677 166.355 81.2782 168.654 80.5472 170.625C79.8162 172.596 78.7529 174.042 77.3574 175.093C75.9618 176.078 74.3004 176.604 72.3732 176.604ZM72.3732 173.319C74.101 173.319 75.4301 172.465 76.427 170.822C77.4238 169.18 77.889 166.749 77.889 163.595C77.889 161.493 77.6896 159.719 77.2245 158.273C76.7593 156.828 76.1612 155.711 75.2972 154.988C74.4998 154.266 73.5029 153.871 72.3732 153.871C70.6453 153.871 69.3162 154.726 68.3194 156.368C67.3226 158.011 66.8574 160.441 66.8574 163.595C66.8574 165.698 67.0567 167.471 67.5219 168.917C67.9871 170.362 68.5852 171.479 69.4491 172.202C70.3131 172.925 71.177 173.319 72.3732 173.319Z" fill="white"/>
<path d="M95.1681 176.604C93.1744 176.604 91.513 176.078 90.1175 175.093C88.7219 174.107 87.6586 172.596 86.9276 170.625C86.1966 168.654 85.7979 166.355 85.7979 163.595C85.7979 160.836 86.1966 158.536 86.9276 156.631C87.6586 154.726 88.7219 153.214 90.1175 152.229C91.513 151.243 93.1744 150.718 95.1681 150.718C97.0953 150.718 98.7567 151.243 100.152 152.229C101.548 153.28 102.611 154.726 103.342 156.631C104.073 158.536 104.472 160.901 104.472 163.595C104.472 166.355 104.073 168.654 103.342 170.625C102.611 172.596 101.548 174.042 100.152 175.093C98.8232 176.078 97.1618 176.604 95.1681 176.604ZM95.1681 173.319C96.8959 173.319 98.2251 172.465 99.2219 170.822C100.219 169.18 100.684 166.749 100.684 163.595C100.684 161.493 100.485 159.719 100.019 158.273C99.5542 156.828 98.9561 155.711 98.0922 154.988C97.2947 154.266 96.2978 153.871 95.1681 153.871C93.4403 153.871 92.1111 154.726 91.1143 156.368C90.1175 158.011 89.6523 160.441 89.6523 163.595C89.6523 165.698 89.8516 167.471 90.3168 168.917C90.782 170.362 91.3801 171.479 92.2441 172.202C93.108 172.925 94.0384 173.319 95.1681 173.319Z" fill="white"/>
<path d="M53.6331 181.729V194.737H51.5065L45.2597 185.933H45.1268V194.803H42.7344V181.794H44.861L51.0413 190.664H51.1743V181.794H53.6331V181.729Z" fill="white"/>
<path d="M56.3574 194.803V181.794H64.7973V183.765H58.7498V187.313H64.1992V189.284H58.7498V194.803H56.3574Z" fill="white"/>
<path d="M66.459 183.765V181.794H76.959V183.765H72.9052V194.803H70.5128V183.765H66.459Z" fill="white"/>
<path d="M85.5316 187.576L83.405 187.773C83.3385 187.576 83.2721 187.379 83.0727 187.182C82.9398 186.985 82.7404 186.853 82.4746 186.722C82.2088 186.59 81.943 186.525 81.5442 186.525C81.079 186.525 80.6803 186.656 80.348 186.853C80.0158 187.05 79.8828 187.313 79.8828 187.642C79.8828 187.904 80.0157 188.167 80.2151 188.364C80.4145 188.561 80.8132 188.693 81.2784 188.824L82.9398 189.153C83.8702 189.35 84.6012 189.678 84.9999 190.072C85.4651 190.532 85.6645 191.058 85.6645 191.781C85.6645 192.372 85.4651 192.963 85.1328 193.423C84.8006 193.883 84.2689 194.277 83.6708 194.54C83.0063 194.803 82.2752 194.934 81.4778 194.934C80.2816 194.934 79.2847 194.672 78.5537 194.212C77.8227 193.686 77.3575 193.029 77.2246 192.109L79.4841 191.912C79.617 192.372 79.8164 192.701 80.1487 192.898C80.4809 193.095 80.9461 193.226 81.4778 193.226C82.0094 193.226 82.4746 193.095 82.8069 192.898C83.1392 192.701 83.3385 192.372 83.3385 192.044C83.3385 191.781 83.2056 191.518 83.0063 191.321C82.8069 191.124 82.4746 190.992 82.0094 190.927L80.348 190.598C79.4177 190.401 78.6866 190.072 78.2214 189.613C77.7563 189.153 77.5569 188.561 77.5569 187.839C77.5569 187.247 77.6898 186.722 78.0885 186.262C78.4208 185.802 78.886 185.473 79.4841 185.211C80.0822 184.948 80.8132 184.816 81.5442 184.816C82.674 184.816 83.6044 185.079 84.2689 185.539C84.9335 186.13 85.3322 186.787 85.5316 187.576Z" fill="white"/>
</svg>
