<svg width="240" height="127" viewBox="0 0 240 127" fill="none" xmlns="http://www.w3.org/2000/svg">
<path d="M74.3619 0.181818H79.1986L85.6759 15.9915H85.9316L92.4088 0.181818H97.2455V22H93.4529V7.01065H93.2504L87.2206 21.9361H84.3868L78.357 6.97869H78.1546V22H74.3619V0.181818ZM104.351 22H100.133L107.814 0.181818H112.693L120.385 22H116.166L110.339 4.65625H110.168L104.351 22ZM104.49 13.4453H115.995V16.62H104.49V13.4453ZM130.652 22H123.258V0.181818H130.801C132.967 0.181818 134.828 0.618608 136.383 1.49219C137.946 2.35866 139.146 3.60511 139.984 5.23153C140.822 6.85795 141.241 8.80398 141.241 11.0696C141.241 13.3423 140.819 15.2955 139.974 16.929C139.136 18.5625 137.925 19.8161 136.341 20.6896C134.764 21.5632 132.868 22 130.652 22ZM127.211 18.5803H130.46C131.98 18.5803 133.248 18.3033 134.263 17.7493C135.279 17.1882 136.043 16.3537 136.554 15.2457C137.065 14.1307 137.321 12.7386 137.321 11.0696C137.321 9.40057 137.065 8.01562 136.554 6.91477C136.043 5.80682 135.286 4.9794 134.285 4.43253C133.29 3.87855 132.055 3.60156 130.577 3.60156H127.211V18.5803ZM144.997 22V0.181818H159.187V3.49503H148.949V9.41832H158.452V12.7315H148.949V18.6868H159.272V22H144.997ZM170.661 22V0.181818H179.013C180.59 0.181818 181.9 0.430397 182.944 0.927556C183.995 1.41761 184.78 2.08878 185.299 2.94105C185.824 3.79332 186.087 4.75923 186.087 5.83878C186.087 6.72656 185.916 7.48651 185.576 8.11861C185.235 8.74361 184.777 9.25142 184.201 9.64204C183.626 10.0327 182.983 10.3132 182.273 10.4837V10.6967C183.047 10.7393 183.789 10.9773 184.5 11.4105C185.217 11.8366 185.803 12.4403 186.257 13.2216C186.712 14.0028 186.939 14.9474 186.939 16.0554C186.939 17.1847 186.666 18.2003 186.119 19.1023C185.572 19.9972 184.748 20.7038 183.647 21.2223C182.546 21.7408 181.161 22 179.492 22H170.661ZM174.613 18.6974H178.864C180.299 18.6974 181.332 18.424 181.964 17.8771C182.603 17.3232 182.923 16.6129 182.923 15.7464C182.923 15.1001 182.763 14.5178 182.443 13.9993C182.124 13.4737 181.669 13.0618 181.08 12.7635C180.49 12.4581 179.787 12.3054 178.97 12.3054H174.613V18.6974ZM174.613 9.46094H178.523C179.205 9.46094 179.819 9.33665 180.366 9.08807C180.913 8.83239 181.343 8.47372 181.655 8.01207C181.975 7.54332 182.134 6.98935 182.134 6.35014C182.134 5.50497 181.836 4.80895 181.24 4.26207C180.65 3.7152 179.773 3.44176 178.608 3.44176H174.613V9.46094ZM188.886 0.181818H193.35L198.687 9.83381H198.9L204.238 0.181818H208.701L200.765 13.8608V22H196.823V13.8608L188.886 0.181818Z" fill="white"/>
<g clip-path="url(#clip0_430_960)">
<path d="M74.7178 100.74H82.1803C82.8253 100.74 83.2859 100.74 83.7466 100.831C84.2072 100.923 84.4836 100.923 84.76 101.105C85.0364 101.196 85.2207 101.378 85.4049 101.47C85.5892 101.561 85.6813 101.834 85.7734 102.017C85.8656 102.199 85.8656 102.473 85.8656 102.746C85.8656 103.02 85.8656 103.293 85.8656 103.658C85.8656 104.023 85.8656 104.296 85.8656 104.57C85.8656 104.843 85.7734 105.117 85.6813 105.299C85.5892 105.573 85.497 105.755 85.3128 105.937C85.1285 106.12 84.8521 106.211 84.5757 106.393C84.2072 106.485 83.8387 106.576 83.2859 106.667C82.7331 106.758 82.0882 106.758 81.3512 106.758H76.0076V110.679H74.8099V100.74H74.7178ZM76.0076 105.664H81.3512C81.904 105.664 82.3646 105.664 82.7331 105.664C83.1017 105.664 83.378 105.573 83.6544 105.573C83.9308 105.482 84.1151 105.482 84.2072 105.39C84.2994 105.299 84.4836 105.208 84.4836 105.026C84.4836 104.843 84.5757 104.661 84.5757 104.479C84.5757 104.296 84.5757 104.023 84.5757 103.749C84.5757 103.476 84.5757 103.202 84.5757 103.02C84.5757 102.837 84.4836 102.655 84.4836 102.473C84.3915 102.29 84.2994 102.199 84.2072 102.108C84.1151 102.017 83.8387 101.926 83.6544 101.926C83.378 101.926 83.1017 101.834 82.7331 101.834C82.3646 101.834 81.904 101.834 81.3512 101.834H76.0076V105.664Z" fill="white"/>
<path d="M87.2471 100.74H88.4448V110.588H87.2471V100.74Z" fill="white"/>
<path d="M100.883 103.84C100.883 103.293 100.791 102.929 100.699 102.655C100.606 102.382 100.422 102.108 100.146 102.017C99.8693 101.834 99.593 101.743 99.1323 101.743C98.6716 101.743 98.211 101.652 97.5661 101.652H94.71C94.1573 101.652 93.6966 101.652 93.3281 101.743C92.9596 101.743 92.6832 101.834 92.4068 101.926C92.1304 102.017 91.9461 102.199 91.854 102.382C91.7619 102.564 91.6697 102.837 91.5776 103.111C91.4855 103.385 91.4855 103.749 91.4855 104.205C91.4855 104.661 91.4855 105.208 91.4855 105.755C91.4855 106.302 91.4855 106.941 91.4855 107.305C91.4855 107.761 91.5776 108.126 91.5776 108.399C91.5776 108.673 91.7619 108.946 91.854 109.129C91.9461 109.311 92.1304 109.494 92.4068 109.585C92.6832 109.676 92.9596 109.767 93.3281 109.767C93.6966 109.767 94.1573 109.858 94.71 109.858H97.5661C98.0267 109.858 98.4874 109.858 98.8559 109.858C99.2244 109.858 99.5008 109.767 99.7772 109.676C100.054 109.585 100.238 109.494 100.33 109.402C100.422 109.311 100.606 109.129 100.699 108.946C100.791 108.764 100.883 108.582 100.883 108.308C100.883 108.035 100.883 107.761 100.883 107.396H102.08C102.08 107.761 102.08 108.217 101.988 108.491C101.896 108.855 101.804 109.129 101.712 109.402C101.62 109.676 101.436 109.858 101.159 110.041C100.975 110.223 100.699 110.405 100.33 110.497C99.9615 110.588 99.593 110.679 99.1323 110.77C98.6716 110.861 98.1189 110.861 97.474 110.861H94.6179C93.8809 110.861 93.2359 110.77 92.6832 110.679C92.1304 110.588 91.7619 110.405 91.3933 110.223C91.0248 110.041 90.8406 109.767 90.6563 109.494C90.472 109.22 90.3799 108.855 90.2878 108.491C90.1956 108.126 90.1956 107.67 90.1035 107.214C90.1035 106.758 90.1035 106.211 90.1035 105.664C90.1035 105.117 90.1035 104.57 90.1035 104.114C90.1035 103.658 90.1956 103.202 90.2878 102.837C90.3799 102.473 90.472 102.108 90.6563 101.834C90.8406 101.561 91.1169 101.287 91.3933 101.105C91.6697 100.923 92.1304 100.74 92.6832 100.649C93.2359 100.558 93.8809 100.467 94.6179 100.467H97.474C98.1189 100.467 98.6716 100.467 99.1323 100.558C99.593 100.649 99.9615 100.74 100.33 100.832C100.699 100.923 100.975 101.105 101.159 101.287C101.343 101.47 101.528 101.652 101.712 101.926C101.896 102.199 101.896 102.473 101.988 102.746C102.08 103.02 102.08 103.385 102.08 103.749H100.883V103.84Z" fill="white"/>
<path d="M114.426 100.74V101.743H109.451V110.496H108.253V101.743H103.278V100.74H114.426Z" fill="white"/>
<path d="M127.785 100.74V105.664C127.785 106.211 127.785 106.758 127.785 107.214C127.785 107.67 127.692 108.126 127.6 108.49C127.508 108.855 127.416 109.22 127.232 109.493C127.048 109.767 126.771 110.041 126.495 110.223C126.126 110.405 125.758 110.588 125.205 110.679C124.652 110.77 124.007 110.861 123.27 110.861H120.322C119.585 110.861 118.94 110.77 118.387 110.679C117.834 110.588 117.466 110.405 117.097 110.223C116.729 110.041 116.545 109.767 116.36 109.493C116.176 109.22 116.084 108.855 115.992 108.49C115.9 108.126 115.9 107.67 115.808 107.214C115.808 106.758 115.808 106.211 115.808 105.664V100.74H117.005V105.664C117.005 106.302 117.005 106.849 117.005 107.214C117.005 107.67 117.005 108.035 117.097 108.308C117.19 108.582 117.282 108.855 117.374 109.038C117.466 109.22 117.65 109.402 117.927 109.493C118.203 109.585 118.479 109.676 118.848 109.676C119.216 109.676 119.677 109.767 120.23 109.767H123.178C123.731 109.767 124.191 109.767 124.56 109.676C124.929 109.676 125.205 109.585 125.481 109.493C125.758 109.402 125.942 109.22 126.034 109.038C126.126 108.855 126.311 108.582 126.311 108.308C126.403 108.035 126.403 107.67 126.403 107.214C126.403 106.758 126.403 106.211 126.403 105.664V100.74H127.785Z" fill="white"/>
<path d="M140.868 110.588H139.67V108.764C139.67 108.49 139.67 108.217 139.67 108.035C139.67 107.852 139.578 107.67 139.578 107.488C139.486 107.305 139.393 107.214 139.301 107.123C139.209 107.032 138.933 106.94 138.749 106.94C138.472 106.849 138.196 106.849 137.827 106.849C137.459 106.849 136.998 106.849 136.445 106.849H130.917V110.77H129.72V100.74H136.722C137.459 100.74 138.104 100.74 138.656 100.831C139.209 100.923 139.578 100.923 139.946 101.105C140.315 101.196 140.499 101.378 140.683 101.47C140.868 101.561 140.96 101.834 141.052 102.017C141.144 102.199 141.144 102.473 141.236 102.746C141.236 103.02 141.236 103.293 141.236 103.658C141.236 104.023 141.236 104.387 141.144 104.752C141.052 105.117 140.96 105.299 140.868 105.573C140.775 105.755 140.591 105.937 140.315 106.12C140.13 106.211 139.762 106.302 139.486 106.393C139.854 106.485 140.13 106.576 140.315 106.667C140.499 106.758 140.683 106.94 140.775 107.123C140.868 107.305 140.96 107.579 140.96 107.852C140.96 108.126 141.052 108.49 141.052 108.855V110.588H140.868ZM130.733 105.664H136.537C137.09 105.664 137.551 105.664 137.919 105.664C138.288 105.664 138.564 105.573 138.841 105.573C139.117 105.482 139.301 105.482 139.393 105.39C139.486 105.299 139.67 105.208 139.67 105.026C139.762 104.843 139.762 104.661 139.762 104.479C139.762 104.296 139.762 104.023 139.762 103.749C139.762 103.476 139.762 103.202 139.762 103.02C139.762 102.837 139.67 102.655 139.67 102.473C139.578 102.29 139.486 102.199 139.393 102.108C139.301 102.017 139.025 101.926 138.841 101.926C138.564 101.926 138.288 101.834 137.919 101.834C137.551 101.834 137.09 101.834 136.537 101.834H130.733V105.664Z" fill="white"/>
<path d="M142.71 110.588V100.74H152.66V101.743H144V105.026H152.292V106.029H144V109.493H152.66V110.496H142.71V110.588Z" fill="white"/>
<path d="M176 110.588V100.74H185.95V101.743H177.29V105.026H185.582V106.029H177.29V109.493H185.95V110.496H176V110.588Z" fill="white"/>
<path d="M169.726 105.026C170.37 105.026 171.015 105.026 171.476 105.117C171.937 105.208 172.397 105.299 172.674 105.39C173.042 105.482 173.319 105.664 173.503 105.755C173.687 105.846 173.871 106.12 173.964 106.302C174.056 106.485 174.148 106.758 174.148 107.032C174.148 107.305 174.24 107.579 174.24 107.852C174.24 108.126 174.24 108.399 174.148 108.673C174.056 108.946 173.964 109.129 173.871 109.402C173.779 109.676 173.503 109.767 173.319 109.949C173.042 110.132 172.766 110.223 172.397 110.405C172.029 110.496 171.568 110.588 171.107 110.679C170.555 110.77 170.002 110.77 169.265 110.77H167.607C166.962 110.77 166.409 110.77 165.948 110.679C165.488 110.588 165.119 110.588 164.75 110.496C164.382 110.405 164.106 110.314 163.921 110.132C163.737 109.949 163.553 109.767 163.369 109.585C163.276 109.402 163.184 109.129 163.092 108.946C163 108.764 163 108.399 163 108.126H164.198C164.198 108.49 164.29 108.855 164.382 109.038C164.474 109.22 164.658 109.402 164.935 109.493C165.211 109.585 165.488 109.676 165.948 109.676C166.409 109.676 166.869 109.676 167.514 109.676H169.173C169.91 109.676 170.463 109.676 171.015 109.585C171.476 109.493 171.845 109.402 172.121 109.22C172.397 109.038 172.582 108.855 172.766 108.673C172.858 108.399 172.95 108.126 172.95 107.761C172.95 107.396 172.95 107.123 172.858 106.849C172.766 106.576 172.582 106.393 172.397 106.302C172.121 106.12 171.845 106.029 171.384 106.029C170.923 105.937 170.37 105.937 169.726 105.937H167.975C167.238 105.937 166.593 105.937 166.04 105.846C165.488 105.755 165.027 105.755 164.658 105.573C164.29 105.39 164.013 105.299 163.737 105.208C163.461 105.117 163.369 104.843 163.276 104.661C163.184 104.479 163.092 104.205 163.092 104.023C163.092 103.84 163 103.476 163 103.202C163 102.929 163 102.655 163.092 102.381C163.184 102.108 163.276 101.926 163.369 101.652C163.553 101.47 163.737 101.287 164.013 101.105C164.29 100.923 164.566 100.831 165.027 100.74C165.488 100.649 165.948 100.558 166.501 100.467C167.054 100.375 167.699 100.375 168.436 100.375H169.633C170.278 100.375 170.831 100.375 171.292 100.467C171.752 100.467 172.121 100.558 172.489 100.649C172.858 100.74 173.134 100.831 173.319 101.014C173.503 101.196 173.687 101.287 173.871 101.561C173.964 101.743 174.056 102.017 174.148 102.199C174.24 102.381 174.24 102.746 174.24 103.02H173.042C173.042 102.655 172.95 102.29 172.858 102.108C172.766 101.926 172.582 101.743 172.305 101.652C172.029 101.561 171.752 101.47 171.292 101.47C170.831 101.47 170.37 101.47 169.726 101.47H168.436C167.607 101.47 166.962 101.47 166.409 101.561C165.856 101.652 165.488 101.743 165.119 101.834C164.75 101.926 164.566 102.199 164.474 102.381C164.382 102.655 164.29 102.929 164.29 103.202C164.29 103.384 164.29 103.567 164.29 103.749C164.29 103.931 164.382 104.023 164.474 104.205C164.566 104.387 164.658 104.479 164.843 104.479C165.027 104.57 165.211 104.661 165.488 104.661C165.764 104.752 166.132 104.752 166.501 104.752C166.869 104.752 167.33 104.752 167.883 104.752H169.726V105.026Z" fill="white"/>
<path d="M188.314 110.588V100.74H189.512V109.493H197.343V110.496H188.314V110.588Z" fill="white"/>
<path d="M199.094 110.588V100.74H200.291V109.493H208.123V110.496H199.094V110.588Z" fill="white"/>
<path d="M209.781 100.74H210.979V110.588H209.781V100.74Z" fill="white"/>
<path d="M214.48 110.588H213.282V100.74H215.493L224.614 109.311V100.74H225.812V110.588H224.154L214.572 101.834V110.588H214.48Z" fill="white"/>
<path d="M238.802 103.84C238.802 103.293 238.71 102.929 238.618 102.655C238.526 102.382 238.341 102.108 238.065 102.017C237.789 101.834 237.512 101.743 237.052 101.743C236.591 101.743 236.13 101.652 235.485 101.652H232.169C231.616 101.652 231.155 101.652 230.787 101.743C230.418 101.743 230.142 101.834 229.865 101.926C229.589 102.017 229.405 102.199 229.313 102.382C229.221 102.564 229.128 102.837 229.036 103.111C228.944 103.385 228.944 103.749 228.944 104.205C228.944 104.661 228.944 105.208 228.944 105.755C228.944 106.302 228.944 106.941 228.944 107.305C228.944 107.761 229.036 108.126 229.036 108.399C229.036 108.673 229.221 108.946 229.313 109.129C229.405 109.311 229.589 109.494 229.865 109.585C230.142 109.676 230.418 109.767 230.787 109.767C231.155 109.767 231.616 109.858 232.169 109.858H235.485C235.946 109.858 236.407 109.858 236.775 109.858C237.144 109.858 237.42 109.767 237.697 109.676C237.973 109.585 238.157 109.494 238.249 109.402C238.434 109.311 238.526 109.129 238.618 108.946C238.71 108.764 238.802 108.582 238.802 108.308C238.802 108.035 238.802 107.761 238.802 107.396V106.758H233.827V105.755H240V107.396C240 107.761 240 108.217 239.908 108.491C239.816 108.855 239.723 109.129 239.631 109.402C239.539 109.676 239.355 109.858 239.078 110.041C238.894 110.223 238.618 110.405 238.249 110.497C237.881 110.588 237.512 110.679 237.052 110.77C236.591 110.861 236.038 110.861 235.393 110.861H232.169C231.432 110.861 230.787 110.77 230.234 110.679C229.681 110.588 229.313 110.405 228.944 110.223C228.576 110.041 228.391 109.767 228.207 109.494C228.023 109.22 227.931 108.855 227.839 108.491C227.746 108.126 227.746 107.67 227.654 107.214C227.654 106.758 227.654 106.211 227.654 105.664C227.654 105.117 227.654 104.57 227.654 104.114C227.654 103.658 227.746 103.202 227.839 102.837C227.931 102.473 228.023 102.108 228.207 101.834C228.391 101.561 228.668 101.287 228.944 101.105C229.221 100.923 229.681 100.74 230.234 100.649C230.787 100.558 231.432 100.467 232.169 100.467H235.485C236.13 100.467 236.683 100.467 237.144 100.558C237.604 100.649 237.973 100.74 238.341 100.832C238.71 100.923 238.986 101.105 239.171 101.287C239.355 101.47 239.539 101.652 239.723 101.926C239.908 102.199 239.908 102.473 240 102.746C240.092 103.02 240.092 103.385 240.092 103.749H238.802V103.84Z" fill="white"/>
<path d="M85.0361 120.07C85.0361 119.523 84.944 119.158 84.8518 118.885C84.7597 118.611 84.5754 118.338 84.2991 118.247C84.0227 118.064 83.7463 117.973 83.2856 117.973C82.825 117.973 82.3643 117.882 81.7194 117.882H78.8634C78.3106 117.882 77.8499 117.882 77.4814 117.973C77.1129 117.973 76.8365 118.064 76.5601 118.155C76.2837 118.247 76.0994 118.429 76.0073 118.611C75.9152 118.794 75.8231 119.067 75.7309 119.341C75.6388 119.614 75.6388 119.979 75.6388 120.435C75.6388 120.891 75.6388 121.438 75.6388 121.985C75.6388 122.532 75.6388 123.17 75.6388 123.535C75.6388 123.991 75.7309 124.356 75.7309 124.629C75.7309 124.903 75.9152 125.176 76.0073 125.359C76.0994 125.541 76.2837 125.723 76.5601 125.814C76.8365 125.906 77.1129 125.997 77.4814 125.997C77.8499 125.997 78.3106 126.088 78.8634 126.088H81.7194C82.18 126.088 82.6407 126.088 83.0092 126.088C83.3777 126.088 83.6541 125.997 83.9305 125.906C84.2069 125.814 84.3912 125.723 84.4833 125.632C84.5754 125.541 84.7597 125.359 84.8518 125.176C84.944 124.994 85.0361 124.811 85.0361 124.538C85.0361 124.264 85.0361 123.991 85.0361 123.626H86.2338C86.2338 123.991 86.2338 124.447 86.1417 124.72C86.0495 125.085 85.9574 125.359 85.8653 125.632C85.7731 125.906 85.5889 126.088 85.3125 126.27C85.1282 126.453 84.8518 126.635 84.4833 126.726C84.1148 126.817 83.7463 126.909 83.2856 127C82.825 127.091 82.2722 127.091 81.6273 127.091H78.7712C78.0342 127.091 77.3893 127 76.8365 126.909C76.2837 126.817 75.9152 126.635 75.5467 126.453C75.1781 126.27 74.9939 125.997 74.8096 125.723C74.6254 125.45 74.5332 125.085 74.4411 124.72C74.349 124.356 74.349 123.9 74.2568 123.444C74.2568 122.988 74.2568 122.441 74.2568 121.894C74.2568 121.347 74.2568 120.8 74.2568 120.344C74.2568 119.888 74.349 119.432 74.4411 119.067C74.5332 118.702 74.6254 118.338 74.8096 118.064C74.9939 117.791 75.2703 117.517 75.5467 117.335C75.8231 117.152 76.2837 116.97 76.8365 116.879C77.3893 116.788 78.0342 116.697 78.7712 116.697H81.6273C82.2722 116.697 82.825 116.697 83.2856 116.788C83.7463 116.879 84.1148 116.97 84.4833 117.061C84.8518 117.152 85.1282 117.335 85.3125 117.517C85.4967 117.7 85.681 117.882 85.8653 118.155C86.0495 118.429 86.0495 118.702 86.1417 118.976C86.2338 119.25 86.2338 119.614 86.2338 119.979H85.0361V120.07Z" fill="white"/>
<path d="M95.908 116.788C96.645 116.788 97.2899 116.879 97.8427 116.97C98.3955 117.061 98.764 117.244 99.1325 117.426C99.501 117.608 99.6853 117.882 99.8696 118.156C100.054 118.429 100.146 118.794 100.238 119.159C100.33 119.523 100.33 119.979 100.422 120.435C100.422 120.891 100.422 121.438 100.422 121.985C100.422 122.532 100.422 123.079 100.422 123.535C100.422 123.991 100.33 124.447 100.238 124.812C100.146 125.176 100.054 125.541 99.8696 125.815C99.6853 126.088 99.4089 126.362 99.1325 126.544C98.764 126.726 98.3955 126.909 97.8427 127C97.2899 127.091 96.645 127.182 95.908 127.182H92.1306C91.3936 127.182 90.7486 127.091 90.1959 127C89.6431 126.909 89.2746 126.726 88.906 126.544C88.5375 126.362 88.3533 126.088 88.169 125.815C87.9847 125.541 87.8926 125.176 87.8005 124.812C87.7083 124.447 87.7083 123.991 87.6162 123.535C87.6162 123.079 87.6162 122.532 87.6162 121.985C87.6162 121.438 87.6162 120.891 87.6162 120.435C87.6162 119.979 87.7083 119.523 87.8005 119.159C87.8926 118.794 87.9847 118.429 88.169 118.156C88.3533 117.882 88.6296 117.608 88.906 117.426C89.1824 117.244 89.6431 117.061 90.1959 116.97C90.7486 116.879 91.3936 116.788 92.1306 116.788H95.908ZM95.908 125.997C96.4607 125.997 96.9214 125.997 97.2899 125.906C97.6584 125.906 97.9348 125.815 98.2112 125.723C98.4876 125.632 98.6719 125.45 98.764 125.268C98.8561 125.085 98.9483 124.812 99.0404 124.538C99.1325 124.265 99.1325 123.9 99.1325 123.444C99.1325 122.988 99.1325 122.441 99.1325 121.894C99.1325 121.347 99.1325 120.709 99.1325 120.344C99.1325 119.888 99.0404 119.523 99.0404 119.25C98.9483 118.976 98.8561 118.703 98.764 118.52C98.6719 118.338 98.4876 118.156 98.2112 118.064C97.9348 117.973 97.6584 117.882 97.2899 117.882C96.9214 117.882 96.4607 117.791 95.908 117.791H92.1306C91.5778 117.791 91.1172 117.791 90.7486 117.882C90.3801 117.882 90.1037 117.973 89.8273 118.064C89.551 118.156 89.3667 118.338 89.2746 118.52C89.1824 118.703 89.0903 118.976 88.9982 119.25C88.906 119.523 88.906 119.888 88.906 120.344C88.906 120.8 88.906 121.347 88.906 121.894C88.906 122.441 88.906 123.079 88.906 123.444C88.906 123.9 88.9982 124.265 88.9982 124.538C88.9982 124.812 89.1824 125.085 89.2746 125.268C89.3667 125.45 89.551 125.632 89.8273 125.723C90.1037 125.815 90.3801 125.906 90.7486 125.906C91.1172 125.906 91.5778 125.997 92.1306 125.997H95.908Z" fill="white"/>
<path d="M103.371 117.791V126.818H102.173V116.97H104.2L110.004 125.541L115.808 116.97H117.835V126.818H116.637V117.973L110.741 126.818H109.451L103.371 117.791Z" fill="white"/>
<path d="M119.585 116.97H127.048C127.692 116.97 128.153 116.97 128.614 117.061C129.074 117.153 129.351 117.153 129.627 117.335C129.904 117.426 130.088 117.608 130.272 117.7C130.456 117.791 130.548 118.064 130.641 118.247C130.733 118.429 130.733 118.703 130.733 118.976C130.733 119.25 130.733 119.523 130.733 119.888C130.733 120.253 130.733 120.526 130.733 120.8C130.733 121.073 130.641 121.347 130.548 121.529C130.456 121.803 130.364 121.985 130.18 122.167C129.996 122.35 129.719 122.441 129.443 122.623C129.074 122.715 128.706 122.806 128.153 122.897C127.6 122.988 126.955 122.988 126.218 122.988H120.875V126.909H119.677V116.97H119.585ZM120.875 121.894H126.218C126.771 121.894 127.232 121.894 127.6 121.894C127.969 121.894 128.245 121.803 128.522 121.803C128.798 121.712 128.982 121.712 129.074 121.62C129.167 121.529 129.351 121.438 129.351 121.256C129.351 121.073 129.443 120.891 129.443 120.709C129.443 120.526 129.443 120.253 129.443 119.979C129.443 119.706 129.443 119.432 129.443 119.25C129.443 119.067 129.351 118.885 129.351 118.703C129.259 118.52 129.167 118.429 129.074 118.338C128.982 118.247 128.706 118.156 128.522 118.156C128.245 118.156 127.969 118.064 127.6 118.064C127.232 118.064 126.771 118.064 126.218 118.064H120.875V121.894Z" fill="white"/>
<path d="M140.683 124.538H132.944L131.654 126.818H130.18L135.8 116.97H137.55L143.17 126.818H141.88L140.683 124.538ZM140.13 123.535L136.813 117.791L133.496 123.535H140.13Z" fill="white"/>
<path d="M145.934 126.818H144.736V116.97H146.947L156.068 125.541V116.97H157.266V126.818H155.608L146.026 118.064V126.818H145.934Z" fill="white"/>
<path d="M158.74 116.97H160.399L164.913 121.803L169.427 116.97H171.086L165.466 122.715V126.818H164.268V122.715L158.74 116.97Z" fill="white"/>
<path d="M117.098 54.6037C116.821 53.6007 116.269 52.7801 115.624 52.0507C114.887 51.3212 113.965 50.683 112.768 50.2271C111.662 49.7712 110.28 49.4976 108.622 49.3153C107.056 49.1329 105.121 49.0417 102.91 49.0417H74.7178V87.8842H82.3646V73.2955H99.8694C102.633 73.2955 104.937 73.2043 106.871 72.9307C108.806 72.7484 110.464 72.3837 111.754 71.9278C113.228 71.4719 114.334 70.8336 115.163 70.013C115.992 69.1924 116.637 68.2806 117.006 67.2776C117.374 66.3658 117.558 65.2717 117.651 64.0863C117.743 63.0834 117.743 61.898 117.743 60.7127C117.743 59.5274 117.743 58.5244 117.651 57.5214C117.558 56.5185 117.374 55.5155 117.098 54.6037ZM99.8694 66.457H82.3646V55.789H99.8694C101.804 55.789 103.462 55.789 104.752 55.8802C106.042 55.8802 107.056 56.0626 107.793 56.1537C108.714 56.3361 109.082 56.5185 109.267 56.6096C109.451 56.7008 109.635 56.8832 109.727 57.0655C109.912 57.3391 109.912 57.795 110.004 58.2509C110.004 58.9803 110.096 59.8009 110.096 60.7127C110.096 61.7157 110.096 62.6275 110.004 63.3569C110.004 63.904 109.912 64.4511 109.727 64.8158C109.635 65.0893 109.451 65.2717 109.267 65.454C109.082 65.6364 108.622 65.8188 107.885 66.0011C107.056 66.1835 106.042 66.2747 104.844 66.3658C103.37 66.457 101.804 66.457 99.8694 66.457Z" fill="white"/>
<path d="M172.377 53.0535C171.824 52.1417 170.995 51.4122 169.981 50.774C169.06 50.2269 167.954 49.6798 166.572 49.3151C165.283 48.9504 163.716 48.6768 161.966 48.4945C160.308 48.3121 158.281 48.2209 155.977 48.2209H151.555C148.791 48.2209 146.396 48.3121 144.369 48.4945C142.25 48.6768 140.5 49.0416 139.025 49.4063C137.459 49.8622 136.169 50.4093 135.064 51.0475C133.958 51.7769 133.129 52.5064 132.484 53.4182C131.839 54.33 131.379 55.3329 131.194 56.4271C131.01 57.4301 130.918 58.5242 130.918 59.7095C130.918 60.8037 131.01 61.8067 131.102 62.7185C131.286 63.8126 131.563 64.8156 132.116 65.6362C132.668 66.548 133.405 67.3686 134.327 68.0069C135.248 68.6451 136.446 69.1922 137.92 69.6481C139.302 70.0128 141.052 70.3775 143.079 70.5599C145.014 70.7423 147.409 70.8334 150.173 70.8334H156.254C158.649 70.8334 160.584 70.9246 161.966 71.107C163.256 71.2893 164.269 71.5629 164.914 71.9276C165.375 72.2011 165.743 72.5658 165.928 73.0217C166.112 73.66 166.296 74.5718 166.296 75.5748C166.296 76.5777 166.112 77.3983 165.835 78.0366C165.559 78.5837 165.098 79.0396 164.361 79.4043C163.532 79.8602 162.334 80.2249 160.86 80.4073C159.202 80.6808 157.175 80.772 154.688 80.772H148.791C146.672 80.772 144.83 80.6808 143.356 80.5896C142.066 80.4984 141.052 80.3161 140.223 79.9514C139.67 79.6778 139.302 79.4043 139.025 78.9484C138.841 78.5837 138.565 77.8542 138.565 76.3954V74.8453H130.918V76.3954C130.918 77.5807 131.01 78.6749 131.194 79.6778C131.379 80.772 131.839 81.775 132.392 82.6867C132.945 83.5985 133.774 84.328 134.695 84.9662C135.617 85.6045 136.722 86.0604 138.104 86.5163C139.394 86.881 140.96 87.1545 142.619 87.3369C144.277 87.5193 146.304 87.6104 148.607 87.6104H154.503C156.991 87.6104 159.202 87.5193 161.137 87.2457C163.072 86.9722 164.73 86.6986 166.112 86.2427C167.586 85.7868 168.784 85.1486 169.797 84.5103C170.81 83.7809 171.64 82.9603 172.192 82.0485C172.745 81.1367 173.206 80.0425 173.39 78.9484C173.574 77.9454 173.667 76.8513 173.667 75.6659C173.667 74.5718 173.574 73.4776 173.482 72.4747C173.39 71.3805 173.022 70.3775 172.561 69.4657C172.1 68.5539 171.363 67.7333 170.534 67.0039C169.705 66.2745 168.507 65.7274 167.217 65.2715C165.928 64.8156 164.361 64.5421 162.519 64.3597C160.768 64.1773 158.557 64.0862 156.07 64.0862H150.173C148.238 64.0862 146.58 64.0862 145.198 63.995C143.816 63.9038 142.711 63.8126 141.789 63.6303C140.96 63.4479 140.315 63.2655 139.855 62.992C139.486 62.8096 139.21 62.6273 139.025 62.3538C138.841 62.0802 138.749 61.8067 138.657 61.442C138.565 60.9861 138.565 60.3478 138.565 59.7095C138.565 58.7066 138.749 57.9771 139.025 57.3389C139.302 56.883 139.762 56.4271 140.592 56.0624C141.513 55.6065 142.895 55.3329 144.645 55.1506C146.488 54.9682 148.883 54.877 151.739 54.877H156.162C158.281 54.877 160.123 54.9682 161.597 55.0594C162.887 55.1506 163.993 55.3329 164.73 55.6977C165.283 55.9712 165.651 56.2447 165.928 56.7006C166.112 57.0653 166.388 57.7948 166.388 59.1625V60.7125H174.035V59.1625C174.035 57.9771 173.943 56.883 173.759 55.88C173.298 54.9682 172.929 53.9652 172.377 53.0535Z" fill="white"/>
<path d="M238.803 63.0832V61.5331C238.803 60.0743 238.71 58.7978 238.526 57.6124C238.342 56.3359 237.973 55.2418 237.421 54.1476C236.868 53.1446 236.131 52.1417 235.117 51.4122C234.196 50.6828 232.998 50.0445 231.708 49.5886C230.419 49.1327 228.852 48.768 227.102 48.5857C225.351 48.4033 223.417 48.2209 221.113 48.2209H210.795C208.031 48.2209 205.636 48.4033 203.701 48.768C201.674 49.1327 200.016 49.6798 198.634 50.4093C197.252 51.2299 196.054 52.2328 195.317 53.4182C194.58 54.6035 194.027 55.9712 193.659 57.4301C193.382 58.8889 193.198 60.5302 193.106 62.2626C193.106 63.995 193.014 65.9097 193.014 67.9157C193.014 70.0128 193.014 71.9276 193.106 73.5688C193.198 75.3924 193.382 77.0336 193.659 78.4013C194.027 79.9514 194.58 81.3191 195.317 82.4132C196.146 83.5985 197.252 84.6015 198.634 85.4221C200.016 86.1516 201.674 86.6986 203.701 87.0634C205.636 87.4281 208.031 87.6104 210.795 87.6104H221.113C223.417 87.6104 225.351 87.5193 227.102 87.2457C228.852 87.0634 230.419 86.6986 231.708 86.2427C233.09 85.7868 234.288 85.0574 235.209 84.328C236.131 83.5074 236.868 82.5956 237.421 81.5014C237.973 80.4073 238.342 79.2219 238.526 77.8542C238.71 76.5777 238.803 75.21 238.803 73.66V72.1099H231.156V73.66C231.156 74.8453 231.064 75.8483 230.971 76.6689C230.879 77.3983 230.695 78.0366 230.511 78.4925C230.327 78.9484 230.05 79.2219 229.682 79.4955C229.313 79.769 228.76 80.0425 228.115 80.2249C227.378 80.4073 226.365 80.5896 225.259 80.6808C224.062 80.772 222.588 80.772 220.929 80.772H210.611C208.676 80.772 207.11 80.6808 205.82 80.5896C204.622 80.4984 203.701 80.3161 202.964 80.0425C202.411 79.769 201.95 79.4955 201.674 79.1308C201.305 78.6749 201.121 78.0366 200.937 77.1248C200.753 76.1218 200.661 74.9365 200.568 73.3865C200.568 71.8364 200.476 69.9216 200.476 67.8245C200.476 65.6362 200.476 63.8126 200.476 62.2626C200.476 60.8037 200.661 59.5272 200.845 58.6154C201.029 57.7948 201.305 57.0653 201.582 56.6095C201.858 56.2447 202.319 55.88 202.872 55.6977C203.609 55.4241 204.53 55.2418 205.728 55.1506C207.018 55.0594 208.676 54.9682 210.518 54.9682H220.837C222.956 54.9682 224.799 55.0594 226.181 55.1506C227.47 55.2418 228.392 55.5153 229.129 55.9712C229.774 56.3359 230.142 56.883 230.419 57.6124C230.787 58.5242 230.879 59.8007 230.879 61.3508V62.9008H238.803V63.0832Z" fill="white"/>
<path d="M117.668 79.522L117.668 87.0898L124.578 87.0898L124.578 79.522L117.668 79.522Z" fill="white"/>
<path d="M180.209 79.5073L180.209 87.0752L187.119 87.0752L187.119 79.5073L180.209 79.5073Z" fill="white"/>
<path d="M39.7082 66.3657L33.4434 60.1655L43.0249 50.6829L33.4434 41.2002L39.7082 35L49.2898 44.4827L58.7793 35L65.0441 41.2002L55.5547 50.6829L65.1363 60.1655L58.8714 66.3657L49.1977 56.8831L39.7082 66.3657ZM49.1977 54.4212L58.7793 63.9039L62.5566 60.1655L53.0672 50.6829L62.6487 41.2002L58.8714 37.4618L49.1977 46.9445L39.7082 37.4618L35.9309 41.2002L45.5125 50.6829L35.8388 60.1655L39.6161 63.9039L49.1977 54.4212Z" fill="#03F3FF"/>
<path d="M26.1651 99.1904H0V71.7454H26.1651V99.1904ZM2.57965 96.6373H23.5854V74.2984H2.57965V96.6373Z" fill="#FF7653"/>
<path d="M48.369 52.1416V84.328H15.8469V52.1416H48.369ZM51.225 49.4062H13.083V87.1545H51.225V49.4062Z" fill="white"/>
</g>
<defs>
<clipPath id="clip0_430_960">
<rect width="240" height="92" fill="white" transform="translate(0 35)"/>
</clipPath>
</defs>
</svg>
