<svg width="47" height="39" viewBox="0 0 47 39" fill="none" xmlns="http://www.w3.org/2000/svg">
<path d="M46.4993 19.0537C46.4993 16.1481 44.1446 13.7935 41.2283 13.7827C39.9106 13.7827 38.6252 14.2795 37.6639 15.176C34.1859 12.9078 29.5306 11.4496 24.3784 11.2552L27.2191 2.5818L34.6828 4.3424C34.6828 6.72947 36.627 8.67369 39.0141 8.67369C41.4119 8.67369 43.3454 6.72947 43.3454 4.3424C43.3454 1.95533 41.4011 0.0111084 39.0141 0.0111084C37.2751 0.0111084 35.7089 1.04803 35.0284 2.64661L26.8519 0.713188H26.8303L26.0634 0.529567L22.553 11.2444C17.2064 11.3416 12.3566 12.7998 8.749 15.1112C7.78769 14.2579 6.55635 13.7935 5.2602 13.7935C2.35467 13.7935 0 16.1481 0 19.0537C0 20.8791 0.950509 22.5749 2.50589 23.5362C2.41948 24.0546 2.37627 24.5731 2.37627 25.1024C2.37627 32.7496 11.6977 38.9711 23.1578 38.9711C34.618 38.9711 43.9394 32.7496 43.9394 25.1024C43.9394 24.6055 43.8962 24.1194 43.8206 23.6442C45.484 22.7153 46.5101 20.9547 46.4993 19.0537ZM39.0249 1.7393C40.4614 1.7393 41.6172 2.90584 41.6172 4.3424C41.6172 5.77896 40.4506 6.93469 39.0249 6.93469C37.5991 6.93469 36.4326 5.76816 36.4326 4.3424C36.4218 2.90584 37.5883 1.7393 39.0249 1.7393ZM7.28003 16.1589C5.2602 17.7575 3.75883 19.6585 2.98114 21.7432C2.20345 21.0843 1.739 20.1014 1.739 19.0537C1.739 17.1094 3.31598 15.5325 5.2602 15.5217C5.98388 15.5325 6.68596 15.7485 7.28003 16.1589ZM16.2559 25.7828C14.4845 25.7828 13.0047 24.3463 13.0047 22.5749C13.0047 20.8035 14.4953 19.3237 16.2559 19.3237C18.0273 19.3237 19.4638 20.8035 19.4638 22.5749C19.4638 24.3463 18.0273 25.7828 16.2559 25.7828ZM15.759 30.4706C16.0938 30.1357 16.6447 30.1357 16.9903 30.4706C17.2172 30.6974 17.4764 30.9026 17.7572 31.0862C18.9994 31.8963 20.814 32.2852 23.2551 32.2852C25.6961 32.2852 27.4999 31.8963 28.7529 31.0862C29.0337 30.9026 29.2929 30.6974 29.5198 30.4706C29.6278 30.3626 29.7574 30.2869 29.8978 30.2545C30.1894 30.1681 30.5135 30.2437 30.7511 30.4706C31.086 30.8162 31.086 31.3563 30.7511 31.7019C30.7295 31.7235 30.7079 31.7451 30.6863 31.7559C29.9086 32.512 28.9257 33.0737 27.716 33.4409C26.4738 33.8298 24.9941 34.0134 23.2551 34.0134C19.7771 34.0134 17.3252 33.2573 15.759 31.6911C15.4134 31.3671 15.4134 30.8162 15.759 30.4706ZM30.2867 25.7828C30.2543 25.7828 30.2219 25.7828 30.2003 25.7828C28.4721 25.7396 27.0355 24.3247 27.0355 22.5857C27.0355 20.8143 28.5261 19.3345 30.2867 19.3345C32.0581 19.3345 33.4946 20.8143 33.4946 22.5857C33.4946 22.7153 33.4838 22.8449 33.473 22.9745C33.2786 24.5515 31.9284 25.7828 30.2867 25.7828ZM43.367 21.8728C42.9781 20.7927 42.4057 19.7558 41.6604 18.7944C40.9583 17.8763 40.105 17.023 39.1221 16.2346C39.7377 15.7809 40.4722 15.5325 41.2391 15.5325C43.0429 15.5325 44.5335 16.8934 44.7387 18.6432C44.7495 18.7836 44.7603 18.9133 44.7603 19.0537C44.7603 20.1662 44.2419 21.2031 43.367 21.8728Z" fill="#0055FF"/>
</svg>
