<svg width="339" height="321" viewBox="0 0 339 321" fill="none" xmlns="http://www.w3.org/2000/svg">
<path d="M86.599 204.472L74.7197 216.351L86.599 228.23L98.4783 216.351L86.599 204.472Z" fill="#ED7601"/>
<path d="M113.982 172.398L97.3652 189.015L113.982 205.632L130.599 189.015L113.982 172.398Z" fill="#ED7601"/>
<path d="M141.295 140.254L119.94 161.609L141.295 182.963L162.649 161.609L141.295 140.254Z" fill="#ED7601"/>
<path d="M196.133 85.512L174.778 106.866L196.133 128.221L217.487 106.866L196.133 85.512Z" fill="#ED7601"/>
<path d="M223.445 62.8431L206.828 79.46L223.445 96.0768L240.062 79.46L223.445 62.8431Z" fill="#ED7601"/>
<path d="M250.899 40.1737L239.02 52.053L250.899 63.9323L262.778 52.053L250.899 40.1737Z" fill="#ED7601"/>
<path d="M168.678 110.585L144.99 134.273L168.678 157.961L192.366 134.273L168.678 110.585Z" fill="#ED7601"/>
<path d="M59.1919 179.495L49.7168 188.97L59.1919 198.445L68.6671 188.97L59.1919 179.495Z" fill="#ED7601"/>
<path d="M86.575 147.421L72.3623 161.634L86.575 175.846L100.788 161.634L86.575 147.421Z" fill="#ED7601"/>
<path d="M141.299 85.5L119.999 106.8L141.299 128.2L162.599 106.8L141.299 85.5Z" fill="#ED7601"/>
<path d="M113.888 115.277L94.9375 134.227L113.888 153.178L132.838 134.227L113.888 115.277Z" fill="#ED7601"/>
<path d="M168.725 60.5346L149.774 79.4849L168.725 98.4351L187.675 79.4849L168.725 60.5346Z" fill="#ED7601"/>
<path d="M196.038 37.8657L181.825 52.0784L196.038 66.2911L210.251 52.0784L196.038 37.8657Z" fill="#ED7601"/>
<path d="M223.492 15.1967L214.017 24.6719L223.492 34.147L232.967 24.6719L223.492 15.1967Z" fill="#ED7601"/>
<path d="M31.7862 154.513L24.6445 161.655L31.7862 168.797L38.9279 161.655L31.7862 154.513Z" fill="#ED7601"/>
<path d="M59.1693 122.299L47.29 134.178L59.1693 146.057L71.0486 134.178L59.1693 122.299Z" fill="#ED7601"/>
<path d="M113.936 62.8187L97.3193 79.4355L113.936 96.0524L130.553 79.4355L113.936 62.8187Z" fill="#ED7601"/>
<path d="M86.5526 92.6293L72.3398 106.842L86.5526 121.055L100.765 106.842L86.5526 92.6293Z" fill="#ED7601"/>
<path d="M141.319 37.8161L127.106 52.0288L141.319 66.2415L155.532 52.0288L141.319 37.8161Z" fill="#ED7601"/>
<path d="M168.703 12.8141L156.823 24.6934L168.703 36.5726L180.582 24.6934L168.703 12.8141Z" fill="#ED7601"/>
<path d="M191.699 0L196.099 4.4L200.499 0H191.699Z" fill="#ED7601"/>
<path d="M5.72585 128.112L0.988281 132.85L5.72585 137.587L10.4634 132.85L5.72585 128.112Z" fill="#ED7601"/>
<path d="M31.7628 99.7235L24.6211 106.865L31.7628 114.007L38.9045 106.865L31.7628 99.7235Z" fill="#ED7601"/>
<path d="M86.6 40.173L74.7207 52.0522L86.6 63.9315L98.4793 52.0522L86.6 40.173Z" fill="#ED7601"/>
<path d="M59.2164 69.9836L49.7412 79.4587L59.2163 88.9339L68.6915 79.4587L59.2164 69.9836Z" fill="#ED7601"/>
<path d="M113.913 15.2412L104.438 24.7163L113.913 34.1914L123.388 24.7163L113.913 15.2412Z" fill="#ED7601"/>
<path d="M145.699 0L141.299 4.4L136.899 0H145.699Z" fill="#ED7601"/>
<path d="M113.935 234.33L104.46 243.805L113.935 253.28L123.41 243.805L113.935 234.33Z" fill="#ED7601"/>
<path d="M141.318 202.115L127.105 216.328L141.318 230.541L155.531 216.328L141.318 202.115Z" fill="#ED7601"/>
<path d="M196.085 140.231L174.73 161.585L196.085 182.94L217.439 161.585L196.085 140.231Z" fill="#ED7601"/>
<path d="M168.701 170.042L149.751 188.992L168.701 207.942L187.652 188.992L168.701 170.042Z" fill="#ED7601"/>
<path d="M223.468 115.229L204.518 134.179L223.468 153.129L242.418 134.179L223.468 115.229Z" fill="#ED7601"/>
<path d="M250.851 92.6303L236.639 106.843L250.851 121.056L265.064 106.843L250.851 92.6303Z" fill="#ED7601"/>
<path d="M278.235 70.0322L268.76 79.5073L278.235 88.9825L287.71 79.5073L278.235 70.0322Z" fill="#ED7601"/>
<path d="M141.342 263.976L134.2 271.118L141.342 278.259L148.484 271.118L141.342 263.976Z" fill="#ED7601"/>
<path d="M168.725 231.903L156.846 243.782L168.725 255.662L180.604 243.782L168.725 231.903Z" fill="#ED7601"/>
<path d="M223.491 172.423L206.874 189.04L223.491 205.656L240.108 189.04L223.491 172.423Z" fill="#ED7601"/>
<path d="M196.037 202.163L181.824 216.375L196.037 230.588L210.25 216.375L196.037 202.163Z" fill="#ED7601"/>
<path d="M250.875 147.42L236.662 161.633L250.875 175.846L265.088 161.633L250.875 147.42Z" fill="#ED7601"/>
<path d="M278.187 122.347L266.308 134.227L278.187 146.106L290.066 134.227L278.187 122.347Z" fill="#ED7601"/>
<path d="M305.642 99.6781L298.5 106.82L305.642 113.962L312.783 106.82L305.642 99.6781Z" fill="#ED7601"/>
<path d="M171.083 293.509L166.346 298.246L171.083 302.984L175.821 298.246L171.083 293.509Z" fill="#ED7601"/>
<path d="M197.12 264.978L189.979 272.12L197.12 279.262L204.262 272.12L197.12 264.978Z" fill="#ED7601"/>
<path d="M251.6 205.3L251.1 204.8L239.3 216.6L239.8 217.1L251.1 228.5L251.6 229L263.5 217.1L262.9 216.6L251.6 205.3Z" fill="#ED7601"/>
<path d="M224.503 235.309L215.028 244.784L224.503 254.259L233.979 244.784L224.503 235.309Z" fill="#ED7601"/>
<path d="M279.2 180.567L269.725 190.042L279.2 199.517L288.675 190.042L279.2 180.567Z" fill="#ED7601"/>
<path d="M306.653 155.494L299.512 162.635L306.653 169.777L313.795 162.635L306.653 155.494Z" fill="#ED7601"/>
<path d="M334.037 130.491L329.3 135.229L334.037 139.967L338.775 135.229L334.037 130.491Z" fill="#ED7601"/>
<path d="M218.7 169C215.8 182.8 217.9 197.5 224.8 210.1L229 221L241 241C226.4 250.4 201.1 264 183.4 269.8C181.5 263.6 168 223.1 148.5 222.9C148.4 222.9 148.4 222.9 148.3 222.9C135.8 229.1 120.6 234.7 116.2 236.2C115.6 236.4 115.2 236.6 115 236.6C114.8 236.7 114.5 236.7 114.2 236.7C110.3 236.2 103.9 225.3 100.8 219.4C99.5996 217.2 98.8996 215.7 98.8996 215.7L95.3996 212.4C94.2996 211.4 93.7996 209.9 93.8996 208.4L94.0996 206.8C92.0996 206.6 90.7996 206.4 90.8996 206C90.9996 205.6 91.0996 205.1 91.1996 204.5C91.5996 203.1 92.0996 201.3 92.3996 199.8C92.6996 198.2 92.8996 196.8 92.6996 196.1C92.0996 194.4 89.3996 192.4 88.0996 191.4C85.6996 189.6 81.8996 186.7 81.0996 185.7C80.6996 185.2 80.5996 184.5 80.6996 183.9C80.8996 182.6 81.6996 181.3 81.6996 181.3C81.6996 181.3 94.8996 162.4 94.2996 154.6C93.8996 150 76.4996 138.1 80.9996 113.8C81.6996 110.1 82.3996 106.5 83.1996 102.9C88.9996 77.1001 98.4996 53.9001 113.2 44.9001C134.9 31.7001 181.9 42.0001 211.9 47.1001C226.4 49.6001 243.2 109.5 241.5 117.9C241.1 119.8 236.8 128.3 231.7 138.4C228.8 144.1 225.8 150.3 223 156.2C222.9 156.5 222.7 156.8 222.6 157.2C220.8 160.9 219.5 164.9 218.7 169Z" fill="#0055FF"/>
<path d="M163.699 215.1L148.999 223.1C148.999 223.1 159.699 222.3 169.599 238.8C174.099 234.6 174.099 220 174.099 220L171.899 184.4C172.499 193.7 163.699 215.1 163.699 215.1Z" fill="#0029BC"/>
<path d="M172.399 184.5C172.299 185.7 172.199 186.9 172.099 188C171.999 189.2 171.799 190.3 171.699 191.5C171.599 192.7 171.399 193.8 171.199 195C170.999 196.2 170.799 197.3 170.599 198.5C170.199 200.8 169.699 203.2 169.099 205.5C168.499 207.8 167.799 210.1 166.799 212.4C166.499 213 166.299 213.5 165.899 214.1C165.599 214.7 165.199 215.2 164.699 215.8L164.499 216L164.399 216.1L164.299 216.2C164.199 216.3 164.099 216.3 164.099 216.4L163.799 216.6H163.699C163.699 216.6 163.699 216.6 163.599 216.6L163.499 216.7L163.299 216.8C163.199 216.9 162.999 217 162.899 217C162.399 217.3 161.799 217.6 161.299 217.8C159.199 218.9 156.999 219.9 154.899 220.9C152.799 221.9 150.599 222.9 148.599 223.9C147.499 224.4 146.499 224.9 145.399 225.4C144.299 225.9 143.299 226.4 142.199 226.9C141.099 227.4 139.999 227.9 138.999 228.3L137.399 229L135.799 229.7C134.699 230.2 133.599 230.6 132.499 231.1C131.399 231.5 130.299 232 129.199 232.4C126.999 233.3 124.799 234.1 122.599 234.9C120.399 235.7 118.199 236.5 115.899 237.3L115.499 237.4L115.099 237.5C114.999 237.5 114.899 237.6 114.799 237.6C114.699 237.6 114.499 237.6 114.399 237.7C114.299 237.7 114.199 237.7 113.999 237.7C113.899 237.7 113.799 237.7 113.699 237.7C113.199 237.6 112.899 237.5 112.499 237.3C112.099 237.1 111.899 237 111.599 236.8C110.999 236.4 110.499 236 110.099 235.5C109.599 235.1 109.199 234.6 108.799 234.1C107.199 232.2 105.899 230.3 104.599 228.2C103.299 226.2 102.099 224.1 100.999 222C99.8994 219.9 98.7994 217.8 97.7994 215.7L97.9994 215.9L95.9994 214L94.9994 213L94.4994 212.5C94.2994 212.3 94.0994 212.1 93.9994 211.9C93.2994 211 92.8994 210 92.8994 208.9C92.8994 208.6 92.8994 208.4 92.8994 208.1V207.9V207.7V207.4L93.0994 206L94.7994 206.2L94.5994 207.6V207.9V208.1V208.2C94.5994 208.4 94.5994 208.6 94.5994 208.8C94.5994 209.6 94.8994 210.3 95.3994 210.9C95.4994 211.1 95.5994 211.2 95.7994 211.3L96.2994 211.8L97.2994 212.8L99.2994 214.7L99.3994 214.8L99.4994 214.9C100.599 217 101.799 219 102.899 221C104.099 223 105.299 225 106.599 226.9C107.899 228.8 109.299 230.7 110.799 232.4C111.599 233.2 112.399 234 113.199 234.5C113.599 234.8 113.999 234.9 114.299 235H114.399H114.499C114.499 235 114.499 235 114.599 235C114.599 235 114.599 235 114.699 235L115.099 234.9L115.499 234.8C116.599 234.4 117.699 234 118.799 233.6L122.099 232.4C124.299 231.6 126.499 230.7 128.599 229.8C132.899 228 137.299 226.2 141.499 224.3C142.599 223.8 143.599 223.3 144.699 222.8L147.799 221.3C149.999 220.3 152.099 219.3 154.199 218.3C156.299 217.3 158.399 216.3 160.499 215.3C160.999 215 161.499 214.8 161.999 214.5C162.099 214.4 162.199 214.4 162.399 214.3L162.599 214.2L162.699 214.1C162.799 214 162.999 213.9 163.099 213.8C163.399 213.5 163.699 213.1 163.999 212.6C164.299 212.2 164.499 211.7 164.799 211.2C165.299 210.2 165.699 209.1 166.099 208.1C166.499 207 166.799 205.9 167.199 204.8C167.899 202.6 168.499 200.3 168.999 198.1C170.099 193.6 171.099 189 171.999 184.4L172.399 184.5Z" fill="black"/>
<path d="M92.399 188.6C92.299 188.6 86.299 184.2 80.399 185.5L79.999 183.9C86.599 182.4 93.099 187 93.399 187.2L92.399 188.6Z" fill="black"/>
<path d="M240.499 241.5C238.899 239.2 237.399 236.9 235.899 234.6C234.399 232.3 232.999 229.9 231.599 227.5C228.799 222.7 226.299 217.7 224.099 212.5C221.899 207.4 220.099 202.1 218.799 196.6C217.499 191.1 216.699 185.5 216.599 179.9C216.499 174.3 217.199 168.6 218.799 163.1C219.199 161.7 219.599 160.4 220.199 159.1C220.699 157.8 221.299 156.5 221.899 155.2C223.099 152.7 224.299 150.2 225.499 147.7C227.899 142.7 230.399 137.8 232.899 132.8C234.099 130.3 235.399 127.9 236.599 125.4C237.199 124.2 237.799 122.9 238.399 121.7C238.699 121.1 238.999 120.5 239.299 119.8C239.399 119.5 239.599 119.2 239.699 118.9C239.799 118.6 239.899 118.3 239.999 118C239.999 117.9 240.099 117.7 240.099 117.6C240.099 117.5 240.099 117.4 240.199 117.2C240.199 116.9 240.199 116.6 240.199 116.3C240.199 115.7 240.199 115 240.099 114.3C239.999 113 239.799 111.6 239.499 110.3C238.999 107.6 238.499 104.9 237.799 102.3C236.499 97 234.999 91.7 233.299 86.4C231.599 81.2 229.699 76 227.599 70.9C226.499 68.4 225.399 65.9 224.199 63.4C222.999 61 221.699 58.6 220.199 56.3C219.499 55.2 218.699 54.1 217.799 53C216.999 52 216.099 51 215.099 50.2C214.099 49.4 213.099 48.7 211.999 48.4C211.899 48.4 211.699 48.3 211.599 48.3C211.499 48.3 211.299 48.2 211.099 48.2L210.099 48L208.099 47.6C202.599 46.6 197.199 45.6 191.699 44.7C186.299 43.8 180.799 42.9 175.299 42.1C169.799 41.3 164.399 40.6 158.899 40.2C153.399 39.7 147.899 39.4 142.399 39.5C139.699 39.5 136.899 39.7 134.199 39.9C131.499 40.1 128.799 40.5 126.099 41.1C123.399 41.7 120.799 42.4 118.299 43.4C115.799 44.4 113.399 45.7 111.299 47.2C109.099 48.8 107.199 50.7 105.399 52.7C103.599 54.7 101.999 56.9 100.499 59.2C98.9994 61.5 97.6994 63.9 96.3994 66.3C95.1994 68.7 93.9994 71.2 92.8994 73.8C90.7994 78.9 88.9994 84.1 87.3994 89.4C85.7994 94.7 84.4994 100 83.2994 105.4C82.6994 108.1 82.1994 110.8 81.6994 113.5C81.1994 116.2 80.8994 118.9 80.8994 121.6C80.8994 124.3 81.1994 127 81.7994 129.6C82.3994 132.2 83.1994 134.8 84.3994 137.3C85.4994 139.8 86.8994 142.1 88.3994 144.4C89.1994 145.5 89.9994 146.7 90.7994 147.8C91.5994 148.9 92.4994 150 93.2994 151.2C93.6994 151.8 94.0994 152.4 94.3994 153.1C94.5994 153.5 94.6994 153.8 94.7994 154.3V154.5C94.7994 154.6 94.7994 154.6 94.7994 154.6V154.9C94.7994 155.1 94.7994 155.3 94.7994 155.5C94.6994 157 94.2994 158.4 93.8994 159.7C93.4994 161 92.8994 162.3 92.3994 163.6C91.7994 164.9 91.1994 166.1 90.5994 167.4C89.2994 169.9 87.8994 172.3 86.4994 174.6C85.7994 175.8 84.9994 177 84.2994 178.1C83.8994 178.7 83.4994 179.3 83.0994 179.8L81.8994 181.5C81.5994 182.1 81.2994 182.7 81.0994 183.3C80.8994 183.9 80.8994 184.5 81.0994 185C81.0994 185.1 81.1994 185.2 81.2994 185.3L81.3994 185.5L81.5994 185.7C81.7994 185.9 82.0994 186.2 82.2994 186.4C82.7994 186.8 83.2994 187.3 83.8994 187.7C84.9994 188.6 86.0994 189.4 87.1994 190.2C88.2994 191 89.3994 191.8 90.4994 192.8C90.9994 193.3 91.5994 193.8 91.9994 194.3C92.1994 194.6 92.4994 194.9 92.6994 195.2C92.7994 195.4 92.8994 195.5 92.9994 195.7C92.9994 195.8 93.0994 195.9 93.0994 196C93.0994 196.1 93.0994 196.2 93.1994 196.3C93.1994 196.7 93.1994 197.1 93.1994 197.4C93.1994 197.8 93.0994 198.1 93.0994 198.5C92.9994 199.2 92.7994 199.9 92.6994 200.6C92.3994 202 91.9994 203.3 91.6994 204.6C91.5994 204.9 91.4994 205.3 91.4994 205.6V205.8C91.4994 205.8 91.4994 205.9 91.4994 205.8C91.4994 205.7 91.3994 205.6 91.3994 205.6C91.3994 205.6 91.4994 205.6 91.5994 205.7C91.8994 205.8 92.1994 205.8 92.4994 205.9C92.7994 205.9 93.1994 206 93.4994 206C93.7994 206 94.1994 206.1 94.4994 206.1C94.7994 206.1 95.0994 206.1 95.4994 206.1C96.1994 206 96.7994 205.9 97.4994 205.8C98.7994 205.5 100.099 205.1 101.399 204.7C103.999 203.8 106.599 202.8 109.199 201.9C111.799 201 114.499 200.1 117.299 199.5C118.699 199.2 120.099 199 121.599 198.9C123.099 198.8 124.599 198.8 126.099 199.1L125.399 202.4C124.199 202 122.899 201.8 121.699 201.8C120.399 201.7 119.099 201.8 117.699 201.9C114.999 202.2 112.399 202.8 109.699 203.6C107.099 204.3 104.399 205.2 101.699 206C100.399 206.4 98.9994 206.8 97.5994 207C96.8994 207.1 96.1994 207.2 95.4994 207.3C95.0994 207.3 94.7994 207.3 94.3994 207.3C93.9994 207.3 93.6994 207.2 93.2994 207.2C92.8994 207.2 92.5994 207.1 92.1994 207C91.7994 206.9 91.4994 206.9 91.0994 206.7C90.9994 206.7 90.8994 206.6 90.7994 206.6C90.6994 206.6 90.6994 206.5 90.5994 206.5C90.4994 206.5 90.4994 206.4 90.3994 206.3C90.2994 206.2 90.1994 206.1 90.1994 205.9C90.1994 205.6 90.1994 205.7 90.1994 205.6L90.2994 205.3C90.3994 205 90.4994 204.6 90.4994 204.3C90.7994 202.9 91.1994 201.6 91.5994 200.3C91.7994 199.6 91.8994 199 91.9994 198.3C92.0994 198 92.0994 197.6 92.0994 197.3C92.0994 197 92.0994 196.7 92.0994 196.4C92.0994 196.3 92.0994 196.3 92.0994 196.2C92.0994 196.1 92.0994 196.1 91.9994 196C91.8994 195.9 91.8994 195.7 91.7994 195.6C91.5994 195.3 91.4994 195.1 91.1994 194.8C90.7994 194.3 90.2994 193.8 89.7994 193.4C88.7994 192.5 87.6994 191.7 86.4994 190.9C85.3994 190.1 84.2994 189.2 83.1994 188.4C82.6994 188 82.0994 187.5 81.5994 187.1C81.2994 186.9 81.0994 186.6 80.7994 186.4L80.5994 186.2L80.3994 186C80.2994 185.8 80.0994 185.6 80.0994 185.4C79.8994 185 79.8994 184.6 79.8994 184.2C79.8994 183.8 79.9994 183.4 80.0994 183.1C80.2994 182.4 80.5994 181.7 80.8994 181.1L82.0994 179.3C82.4994 178.7 82.8994 178.1 83.1994 177.6C83.8994 176.4 84.6994 175.3 85.3994 174.1C86.7994 171.7 88.1994 169.3 89.3994 166.9C89.9994 165.7 90.5994 164.4 91.0994 163.2C91.5994 161.9 92.0994 160.7 92.4994 159.4C92.8994 158.1 93.1994 156.8 93.2994 155.5C93.2994 155.3 93.2994 155.2 93.2994 155V154.8V154.7V154.6C93.2994 154.4 93.1994 154.1 92.9994 153.8C92.6994 153.2 92.3994 152.7 91.9994 152.1C91.1994 151 90.3994 149.9 89.4994 148.8C88.6994 147.7 87.7994 146.6 86.9994 145.4C85.3994 143.1 83.8994 140.7 82.6994 138.1C82.0994 136.8 81.5994 135.5 81.0994 134.2C80.5994 132.9 80.1994 131.5 79.8994 130.1C79.2994 127.3 78.8994 124.5 78.8994 121.7C78.8994 118.9 79.1994 116 79.6994 113.3C80.1994 110.6 80.6994 107.8 81.2994 105.1C82.4994 99.7 83.7994 94.3 85.3994 88.9C86.9994 83.6 88.7994 78.3 90.8994 73.1C91.9994 70.5 93.0994 68 94.3994 65.5C95.6994 63 96.9994 60.6 98.5994 58.2C100.099 55.8 101.799 53.6 103.699 51.4C105.599 49.3 107.599 47.3 109.899 45.6C112.199 43.9 114.799 42.5 117.399 41.5C119.999 40.4 122.799 39.7 125.499 39.1C128.299 38.5 130.999 38.1 133.799 37.9C136.599 37.6 139.399 37.5 142.199 37.4C147.799 37.3 153.399 37.6 158.899 38C169.999 38.9 180.999 40.6 191.899 42.5C197.399 43.4 202.799 44.4 208.299 45.4L210.299 45.8L211.299 46C211.499 46 211.599 46.1 211.799 46.1C211.999 46.1 212.199 46.2 212.399 46.2C213.199 46.4 213.899 46.8 214.599 47.2C215.299 47.6 215.899 48.1 216.399 48.5C217.499 49.5 218.499 50.5 219.399 51.7C220.299 52.8 221.099 54 221.899 55.2C223.499 57.6 224.799 60 226.099 62.5C227.399 65 228.499 67.6 229.599 70.1C231.799 75.2 233.699 80.5 235.399 85.8C237.099 91.1 238.699 96.5 239.999 101.9C240.699 104.6 241.199 107.3 241.699 110.1C241.899 111.5 242.099 112.9 242.299 114.3C242.399 115 242.399 115.7 242.399 116.5C242.399 116.9 242.399 117.3 242.399 117.7C242.399 117.9 242.299 118.1 242.299 118.3C242.199 118.6 242.199 118.8 242.099 118.9C241.999 119.3 241.799 119.6 241.699 120C241.599 120.3 241.399 120.7 241.299 121C240.999 121.6 240.699 122.3 240.399 122.9C239.799 124.2 239.199 125.4 238.599 126.7C237.399 129.2 236.099 131.7 234.899 134.1C232.399 139 229.899 144 227.499 149C226.299 151.5 225.099 154 223.899 156.5C223.299 157.8 222.799 159 222.299 160.2C221.799 161.5 221.399 162.7 220.999 164C219.499 169.2 218.799 174.6 218.799 180.1C218.799 185.5 219.599 191 220.799 196.3C221.999 201.6 223.799 206.8 225.899 211.9C227.999 217 230.399 221.9 233.099 226.7C234.399 229.1 235.799 231.5 237.299 233.8C238.699 236.1 240.199 238.5 241.799 240.8L240.499 241.5Z" fill="black"/>
<path d="M179.399 261.6C179.399 261.5 177.299 253.1 172.299 244.2C169.399 239 166.099 234.7 162.499 231.4C157.999 227.3 153.099 224.7 147.699 223.7L147.999 222.1C153.599 223.2 158.899 225.9 163.599 230.2C167.299 233.6 170.699 238.1 173.699 243.4C178.799 252.5 180.899 261.1 180.899 261.2L179.399 261.6Z" fill="black"/>
<path d="M127.7 139.9L102.6 140.8L90.1996 143.5L86.0996 135.7L102.9 134.2L122.8 133.6L127.7 139.9Z" fill="black"/>
<path d="M260.799 258.8C260.799 258.8 260.699 258.7 260.499 258.5L261.699 257.3C261.899 257.5 262.099 257.7 262.099 257.7L260.799 258.8Z" fill="black"/>
<path d="M103.899 147.5L109.199 148.7L121.399 153C121.399 153 107.899 160.3 104.999 159L103.899 147.5Z" fill="white"/>
<path d="M103 158.4C104.6 158.5 106.2 158.5 107.9 158.2C108.7 158.1 109.5 157.9 110.3 157.7C111.1 157.5 111.9 157.2 112.6 157C114.1 156.4 115.6 155.7 117 154.9C117.7 154.5 118.4 154 119.1 153.6C119.4 153.4 119.8 153.1 120.1 152.9C120.3 152.8 120.4 152.6 120.6 152.5C120.8 152.4 120.9 152.2 121 152.1L122.1 153.3C121.9 153.5 121.8 153.6 121.6 153.7C121.4 153.8 121.3 154 121.1 154.1C120.8 154.4 120.4 154.6 120.1 154.9C119.4 155.4 118.7 155.9 117.9 156.3C116.4 157.2 114.8 158 113.2 158.6C112.4 158.9 111.6 159.2 110.7 159.4C109.9 159.6 109 159.8 108.1 160C106.4 160.3 104.6 160.4 102.8 160.3L103 158.4Z" fill="black"/>
<path d="M104.499 160.3C103.699 157.2 102.899 150.5 103.099 147.4L104.799 147.5C104.599 150.4 105.399 156.9 106.199 159.9L104.499 160.3Z" fill="black"/>
<path d="M102.499 139C102.199 139.6 101.999 140.2 101.799 140.9C101.599 141.5 101.499 142.2 101.399 142.9C101.299 143.6 101.299 144.2 101.299 144.9C101.299 145.2 101.299 145.6 101.299 145.9C101.299 146.1 101.299 146.2 101.299 146.4C101.299 146.6 101.299 146.7 101.399 146.9L100.699 146.2C102.599 146.4 104.399 146.8 106.199 147.2C107.999 147.6 109.799 148.1 111.599 148.6C113.399 149.1 115.199 149.6 116.899 150.2C118.699 150.8 120.399 151.3 122.199 151.9H122.099L127.799 152.6L127.699 153.5L121.999 152.9H121.899C120.199 152.3 118.399 151.8 116.599 151.3C114.799 150.8 113.099 150.3 111.299 149.9C109.499 149.5 107.699 149 105.899 148.7C104.099 148.3 102.299 148 100.499 147.9L99.8992 147.8L99.7992 147.2C99.7992 147 99.6992 146.8 99.6992 146.6C99.6992 146.4 99.6992 146.2 99.6992 146C99.6992 145.6 99.6992 145.3 99.6992 144.9C99.6992 144.2 99.6992 143.4 99.7992 142.7C99.8992 142 99.9992 141.2 100.199 140.5C100.399 139.8 100.599 139.1 100.999 138.4L102.499 139Z" fill="black"/>
<path d="M190.599 211.2C191.399 210.9 192.299 210.6 193.099 210.3C193.299 210.2 193.399 210 193.399 209.9C193.599 207.5 194.699 205.7 196.699 204.6L196.799 204.5C197.199 204.3 197.699 204.2 198.099 204C198.199 204 198.199 204 198.299 204C202.599 203.1 206.599 206.9 205.799 211.4C205.799 211.5 205.799 211.7 205.799 211.8C206.799 211.5 207.799 211.2 208.699 210.9C208.999 210.8 209.199 210.7 209.199 210.3C209.599 208.5 210.599 207 211.899 205.7C212.599 205 212.699 205 213.599 205.5C215.699 206.7 217.199 208.4 218.299 210.6C219.499 213.2 219.999 215.9 219.499 218.7C219.399 219.2 219.199 219.7 218.799 220.1C214.499 224.7 209.199 226.8 202.899 226.6C202.499 226.6 201.999 226.4 201.599 226.2C197.999 223.8 196.299 220.4 196.399 216.1C196.399 215.4 196.199 215.2 195.499 215.5C193.699 216.2 191.899 215.7 190.699 214.3C190.499 214.1 190.299 213.8 190.099 213.5C189.999 213.1 189.799 212.7 189.699 212.3C189.699 211.7 189.999 211.4 190.599 211.2Z" fill="#0029BC"/>
<path d="M88.9988 24.8C46.0988 67.2001 82.3988 102.8 82.3988 102.8C82.3988 102.8 92.8988 100 98.2988 93.1C95.5988 84.7 120.799 52.1 168.899 91.3C176.299 97.3 147.999 138.6 147.999 138.6L155.399 143.4C155.399 143.4 163.699 138.3 177.399 131.8C180.899 130.2 195.799 127.9 202.499 136.3C206.599 141.4 197.199 151.9 192.999 169C192.999 169 213.399 142.9 217.599 179.4C233.699 175.1 241.999 146.2 253.899 153.9C259.899 143.3 255.799 106.4 269.699 95.9C267.499 82.2001 238.799 62.7001 246.099 52.9001C237.599 45.5 203.999 33.1 208.199 21.5C198.699 19.6 161.399 26.3 154.799 7.80005C146.499 8.70005 103.599 41.7001 88.9988 24.8Z" fill="#FFD645"/>
<path d="M203.199 136.4V137.2V137.4C203.899 138.9 203.699 140.9 202.999 143.3L202.899 145.1V145.2C204.199 141.5 204.699 138.5 203.199 136.4ZM191.499 130.2C190.299 130 189.199 129.9 188.099 129.9L188.699 130.5C188.899 130.5 189.199 130.5 189.499 130.6C190.999 130.7 192.499 130.9 193.899 131.3C194.999 131.6 195.999 131.9 196.999 132.4L197.999 132.3C197.099 131.8 196.099 131.5 195.199 131.2C193.899 130.6 192.699 130.4 191.499 130.2ZM257.299 75.7C252.099 69.6 247.099 63.7001 245.799 58.9001C245.199 56.8001 245.399 54.9 246.499 53.3L246.399 52.5C245.199 51.5 243.599 50.4001 241.699 49.2001C239.299 47.7001 236.399 46.1001 233.299 44.4001C221.099 37.7001 205.999 29.3 208.699 21.7L208.299 21C205.899 20.5 201.999 20.6 196.999 20.7C190.599 20.8 182.899 20.9 175.799 19.9C171.799 19.3 167.899 18.4 164.599 16.9C160.299 15 156.899 12 155.399 7.70005L154.799 7.30005C152.299 7.50005 147.199 10.3 140.799 13.8C135.199 16.8 128.699 20.4 122.099 23.3C118.999 24.7 115.799 25.9 112.699 26.9C111.099 27.4 109.499 27.8 107.999 28.1C105.399 28.7 102.999 29 100.799 29C95.799 29 91.999 27.5 89.399 24.4H88.599C74.599 38.3 67.499 52.9001 67.499 67.9001C67.499 78.8 71.499 87.9 74.799 93.5C76.399 96.2 77.899 98.4 79.199 100C80.299 101.5 81.299 102.5 81.699 102.9C81.899 103.1 81.999 103.2 81.999 103.2L82.499 103.3C82.499 103.3 82.699 103.2 82.999 103.2C83.199 103.1 83.399 103.1 83.699 103C85.499 102.4 89.199 101 92.699 98.7C94.899 97.3 96.999 95.5 98.699 93.4L98.799 92.9C98.199 91.1 99.199 87.6 101.899 84C103.399 82 105.399 80 107.999 78.2C111.399 75.9 116.799 73.4 123.999 73C126.299 72.9 128.699 73 131.399 73.3C137.199 74.1001 143.399 76.1001 149.699 79.3C155.699 82.4 161.999 86.5 168.399 91.7C169.499 92.6 169.699 94.7001 168.999 97.9C167.999 102.3 165.099 108.8 160.599 116.9C159.899 118.1 159.299 119.2 158.599 120.4C154.199 128 149.599 134.8 147.999 137.3C147.599 137.9 147.299 138.3 147.299 138.3L147.499 139.1L153.999 143.3L154.899 143.9H155.499C155.599 143.8 163.899 138.7 177.499 132.4C178.999 131.7 182.799 130.8 187.199 130.9C187.699 130.9 188.099 130.9 188.599 131C188.799 131 188.899 131 189.099 131C190.099 131.1 191.099 131.2 192.099 131.4C193.299 131.6 194.499 131.9 195.699 132.4C197.999 133.3 200.299 134.7 201.999 136.8C203.499 138.7 202.899 141.7 201.299 145.6C200.699 147.1 199.999 148.8 199.099 150.6C196.999 155.2 194.499 160.9 192.699 167.5C192.599 168 192.399 168.5 192.299 169L192.799 169.2L193.299 169.4C193.299 169.4 194.699 167.6 196.799 165.6C199.799 162.8 204.299 159.6 208.299 160.8C210.299 161.4 211.899 162.9 213.299 165.4C214.599 167.9 215.599 171.2 216.399 175.5C216.599 176.5 216.699 177.6 216.899 178.7C216.899 178.9 216.999 179.2 216.999 179.5L217.299 179.7L217.699 180C218.099 179.9 218.399 179.8 218.799 179.7C221.499 178.8 223.999 177.2 226.299 175.2C229.999 172.1 233.199 168.1 236.199 164.4C236.699 163.8 237.199 163.2 237.699 162.6C240.199 159.5 242.699 156.7 245.099 155C248.199 152.8 250.899 152.6 253.599 154.4L254.399 154.2C254.799 153.5 255.099 152.7 255.399 151.9C256.999 147.5 257.699 140.8 258.499 133.3C259.299 125.3 260.199 116.6 262.299 109.5C262.699 108.1 263.199 106.7 263.699 105.5C265.199 101.7 267.299 98.5 269.999 96.5L270.199 96C269.299 89.8 263.199 82.6 257.299 75.7ZM262.899 104.7C261.999 106.7 261.399 108.9 260.799 111.2C258.999 118 258.199 125.9 257.399 133.3C256.699 140.2 255.999 146.8 254.599 151.2C254.299 152 254.099 152.7 253.699 153.4C250.699 151.7 247.699 152 244.499 154.3C241.999 156.1 239.499 158.9 236.999 162C236.499 162.6 235.999 163.2 235.499 163.9C232.499 167.6 229.299 171.6 225.699 174.6C223.599 176.4 221.399 177.8 218.999 178.7C218.799 178.8 218.499 178.9 218.299 178.9C218.299 178.6 218.199 178.2 218.199 177.9C218.099 177.1 217.999 176.4 217.899 175.7C217.699 174.3 217.399 173.1 217.099 171.9C216.399 169.1 215.499 166.7 214.499 164.8C212.999 162.1 211.199 160.5 208.999 159.9C208.299 159.7 207.699 159.6 206.999 159.6C204.599 159.6 202.199 160.7 200.099 162.1C198.699 163 197.499 164.1 196.399 165.1C195.599 165.8 194.999 166.5 194.399 167.1C194.599 166.4 194.799 165.7 194.999 165C196.699 159.7 198.699 155.1 200.499 151.2C201.199 149.6 201.899 148 202.499 146.6C202.699 146.1 202.899 145.7 202.999 145.3C204.399 141.6 204.899 138.7 203.399 136.5C203.399 136.4 203.299 136.3 203.199 136.3C201.799 134.6 200.099 133.3 198.199 132.3C197.299 131.8 196.299 131.5 195.399 131.2C194.199 130.8 192.899 130.5 191.699 130.3C190.499 130.1 189.399 130 188.299 130C183.499 129.8 179.299 130.7 177.399 131.6C165.199 137.3 157.199 142 155.599 143L150.599 139.7L148.999 138.7C149.099 138.6 149.099 138.5 149.199 138.4C150.999 135.8 156.799 127 161.899 117.8C167.199 108.3 170.099 101.4 170.699 96.8C171.099 94.1001 170.699 92.2 169.399 91.2C162.999 86 156.799 81.9 150.799 78.8C144.199 75.5 137.899 73.4 131.799 72.6C128.699 72.2 125.799 72.1001 123.199 72.3C116.199 72.9 110.999 75.3 107.599 77.7C104.999 79.5 102.899 81.5 101.299 83.6C98.499 87.2 97.299 90.9 97.799 93.3C96.199 95.3 94.099 96.9 91.999 98.3C88.999 100.2 85.899 101.4 84.099 102.1C83.799 102.2 83.599 102.3 83.399 102.3C83.099 102.4 82.799 102.5 82.699 102.5C82.599 102.4 82.399 102.2 82.099 101.9C81.599 101.4 80.899 100.5 80.099 99.5C78.899 97.9 77.399 95.8 75.899 93.2C72.699 87.7 68.799 78.8 68.799 68.1C68.799 53.6 75.599 39.4 89.199 25.8C93.899 30.8 101.099 31.2 109.199 29.3C113.699 28.3 118.499 26.5 123.199 24.4C129.699 21.5 136.099 18 141.599 15C147.299 11.9 152.299 9.20005 154.799 8.70005C156.499 13 159.799 16 164.099 18C167.999 19.8 172.599 20.9 177.399 21.4C184.199 22.2 191.399 22.1 197.399 22C201.699 21.9 205.499 21.9 207.899 22.2C206.899 25.9 209.299 29.8 214.899 34.3C219.899 38.3 226.999 42.2 233.199 45.6C236.099 47.2 238.999 48.8 241.299 50.2001C243.099 51.3 244.599 52.3 245.699 53.2001C244.799 54.5 244.599 56 244.699 57.6C245.299 63 250.899 69.6 256.699 76.5C262.399 83.2 268.199 90.1 269.299 95.9C266.399 97.9 264.399 101 262.899 104.7Z" fill="black"/>
<path d="M170.199 145.9L183.199 134.6C184.899 133.1 186.999 132.1 189.299 131.8C194.599 131 203.799 129.8 203.799 129.8C204.499 130 204.899 130.6 204.899 131.3L203.599 154.4C203.599 154.7 203.499 155 203.299 155.3L189.299 174C189.099 174.3 188.799 174.5 188.499 174.6L181.399 176.7C180.999 176.8 176.199 177 175.799 176.8L174.299 172.7L170.199 145.9Z" fill="#0055FF"/>
<path d="M169.699 145.2L176.899 138.7L180.499 135.5L182.299 133.9L182.499 133.7L182.699 133.5C182.899 133.4 182.999 133.2 183.199 133.1C183.599 132.8 183.899 132.6 184.299 132.3C185.099 131.8 185.899 131.4 186.699 131.1C187.099 130.9 187.499 130.8 187.999 130.7C188.199 130.6 188.399 130.6 188.699 130.5L188.999 130.4H189.199H189.299L194.099 129.7L203.699 128.2H203.999L204.299 128.3C204.899 128.5 205.499 128.9 205.899 129.4C206.299 129.9 206.499 130.6 206.499 131.3V131.4V131.5V131.6V131.7V131.9V132.4L206.399 133.4L206.099 137.4L205.599 145.3L205.099 153.2L204.999 154.2V154.8C204.999 155.1 204.899 155.4 204.799 155.7C204.699 156 204.499 156.3 204.399 156.3L204.099 156.7L203.499 157.5L201.099 160.6L191.499 173.2L190.299 174.8C190.099 175 189.899 175.2 189.699 175.3C189.599 175.4 189.499 175.4 189.299 175.5C189.199 175.5 189.199 175.6 189.099 175.6H188.999H188.899L187.899 175.9L184.099 177L182.199 177.5L181.999 177.6H181.899H181.799H181.699C181.499 177.6 181.299 177.6 181.099 177.7C180.799 177.7 180.399 177.7 180.099 177.7C179.399 177.7 178.799 177.7 178.099 177.7C177.799 177.7 177.399 177.7 177.099 177.7C176.899 177.7 176.799 177.7 176.599 177.7C176.499 177.7 176.399 177.7 176.299 177.7C176.199 177.7 176.199 177.7 176.099 177.7H175.999H175.899C175.899 177.7 175.799 177.7 175.799 177.6L175.599 177.5L175.499 177.2L173.999 173.1L175.599 172.5L177.099 176.6L176.799 176.2H176.699H176.799C176.899 176.2 176.899 176.2 176.999 176.2C177.099 176.2 177.299 176.2 177.499 176.2C177.799 176.2 178.099 176.2 178.499 176.2C179.099 176.2 179.799 176.2 180.399 176.1C180.699 176.1 180.999 176.1 181.399 176C181.599 176 181.699 176 181.799 176H181.899L182.099 175.9L183.999 175.3L187.799 174.1L188.699 173.8H188.799H188.899L188.999 173.7L190.099 172.1L199.399 159.3L201.699 156.1L202.299 155.3C202.499 155.1 202.799 154.7 202.699 154.7V154.6V154.4V154.2V153.2L202.999 145.3L203.299 137.4L203.499 133.4L203.599 131.5L204.299 131.6L194.699 132.7L189.899 133.2H189.799H189.699H189.399C189.199 133.2 188.999 133.3 188.899 133.3C188.499 133.4 188.199 133.5 187.899 133.6C187.199 133.8 186.599 134.1 185.899 134.5C185.599 134.7 185.299 134.9 184.999 135.1C184.899 135.2 184.699 135.3 184.599 135.4L184.399 135.6L184.199 135.8L182.299 137.3L178.599 140.4L171.199 146.6L169.699 145.2Z" fill="black"/>
<path d="M175.899 154.1L188.299 136.5H199.099L195.699 153L180.899 169.2L179.499 162.6L183.799 158.5L183.199 155.5L175.899 154.1Z" fill="#0029BC"/>
<path d="M275.7 319.2H152.2C158.2 307.6 173.4 274 180.2 261.5C184.7 260.7 185.1 266 202 256.8C211.9 251.4 220.5 248.4 227.5 245.8C232.7 243.9 237.1 242.2 240.5 240.1L241.1 241.1C241.1 241.1 243.1 242.1 246.1 244.2C247.4 245.1 248.9 246.2 250.5 247.5C258 253.5 267.6 263.6 270.6 277.7C275.8 301.6 275.7 319.2 275.7 319.2Z" fill="white"/>
<path d="M271.3 277.4C269.6 269.7 266.1 263.2 261.9 257.8C261.8 257.7 261.7 257.5 261.6 257.4C258.2 253.1 254.4 249.5 251 246.8C249.5 245.6 248 244.5 246.5 243.5C244.1 241.9 242.3 240.9 241.7 240.5C241.7 240.5 241.6 240.5 241.6 240.4L241.1 239.5L240.3 239.3C240.3 239.3 240.2 239.3 240.2 239.4C240 239.5 239.7 239.7 239.5 239.8C237.5 241 235.2 242 232.5 243.1C230.9 243.7 229.2 244.4 227.4 245L226.2 245.4C223.9 246.3 221.4 247.2 218.7 248.2C213.6 250.2 207.9 252.6 201.8 256C189.8 262.5 186.2 261.6 183.6 260.9C182.7 260.7 181.9 260.5 180.9 260.5C180.7 260.5 180.5 260.5 180.2 260.6H180.1L179.7 260.9C179.6 261 179.5 261.2 179.5 261.3C177.7 264.6 175.5 269.1 173 274.2C173 274.2 173 274.3 172.9 274.4C170 280.5 166.7 287.4 163.5 294.2C162.8 295.7 162.1 297.2 161.4 298.7C157.5 306.9 154 314.3 151.8 318.6L152 319L152.3 319.5H275.8L276.4 318.9C276.3 313.1 275.3 296.5 271.3 277.4ZM153.1 318.6C155.8 313.3 160 304.4 164.5 295C170.5 282.2 176.8 269.1 180.6 262C180.6 262 180.6 262 180.7 262C181.7 261.9 182.4 262.1 183.3 262.3C184.7 262.7 186.4 263.1 189.3 262.6C192.6 262 196.8 260.3 202.3 257.3C204.7 256 207.1 254.8 209.4 253.7C213 252 216.4 250.6 219.6 249.4C222.1 248.4 224.5 247.6 226.6 246.8L227.8 246.4C229.8 245.7 231.7 245 233.4 244.3C235.9 243.3 238.2 242.3 240.2 241.1C240.3 241 240.4 241 240.5 240.9L240.8 241.4L241 241.6C241 241.6 242.4 242.3 244.5 243.7C245 244 245.4 244.3 246 244.6C247.5 245.6 249 246.7 250.4 247.8C253.7 250.5 257.5 254 260.9 258.3C261 258.4 261.1 258.5 261.2 258.7C265.3 263.9 268.8 270.3 270.4 277.8C274.3 296.2 275.4 312.3 275.4 318.7H153.1V318.6Z" fill="black"/>
<path d="M151.699 319.8C158.999 305.2 169.699 279 180.199 261.5C191.499 265.3 199.799 256.6 213.399 251.3C207.399 253.9 193.899 266.1 186.799 284.7C185.399 288.4 191.099 287.7 198.899 280.8C188.299 298.8 182.999 319.8 182.999 319.8H151.699Z" fill="#E2E2E2"/>
<path d="M208 281.7C208.4 283.1 208.8 284.6 209.1 286C209.4 287.5 209.6 288.9 209.7 290.4C210 293.3 209.9 296.3 209.8 299.2C209.7 300.7 209.6 302.1 209.4 303.6C209.2 305.1 209 306.5 208.7 308C208.4 309.4 208.1 310.9 207.8 312.3C207.6 313 207.5 313.7 207.3 314.4C207.1 315.1 206.9 315.8 206.7 316.5L204.6 315.8C204.8 315.2 205 314.5 205.2 313.8C205.4 313.1 205.6 312.4 205.8 311.7C206.2 310.3 206.5 308.9 206.8 307.5C207.1 306.1 207.4 304.7 207.6 303.3C207.8 301.9 208 300.5 208.1 299C208.4 296.1 208.4 293.3 208.3 290.4C208.2 289 208.1 287.6 207.8 286.1C207.6 284.7 207.2 283.3 206.9 281.9L208 281.7Z" fill="black"/>
<path d="M275.7 319.2H246.3C249.4 316.3 255.6 309 235 311.2C232.9 306 260 297 260 297C260 297 249.9 294.3 234.2 301.7C250.8 283.2 232.8 276.4 237.1 267.6C246.3 261.1 217.9 253.7 245.1 243.5C245.1 243.5 250.7 247.6 250.6 247.5C258.1 253.5 267.7 263.6 270.7 277.7C275.8 301.6 275.7 319.2 275.7 319.2Z" fill="#E2E2E2"/>
<path d="M240.1 240.9C238.1 242.1 235.9 243.1 233.3 244.1L233.5 244.3C236 243.3 238.2 242.3 240.2 241.1C240.2 241.1 240.1 241 240.1 240.9ZM271.5 277.4C269.8 269.6 266.2 263.1 262 257.7C261.9 257.6 261.8 257.5 261.7 257.4C258.2 253 254.4 249.5 251 246.8C249.6 245.6 248 244.5 246.5 243.5C244 241.8 242.3 240.8 241.6 240.5L241.2 239.7H241.1L240.1 239.4C240.1 239.4 240 239.4 240 239.5C239.8 239.6 239.5 239.8 239.3 239.9C237.3 241.1 234.9 242.1 232.2 243.2C230.7 243.8 229 244.4 227.2 245.1L226 245.5C223.6 246.4 221.1 247.3 218.4 248.4C213.4 250.4 207.7 252.8 201.5 256.1C189.6 262.6 186.1 261.7 183.6 261C182.7 260.8 181.8 260.5 180.8 260.6C180.6 260.6 180.3 260.6 180.1 260.7C180.1 260.7 180.1 260.7 180 260.7L179.4 261.1C179.3 261.2 179.3 261.3 179.2 261.4C175.4 268.5 169.2 281.7 163.1 294.5C158.4 304.4 154 313.8 151.3 318.9L151.7 319.5L151.9 319.9L152.1 320.1H275.6L276.4 319.3C276.6 313.1 275.6 296.5 271.5 277.4ZM180.8 262.2C181.7 262.1 182.4 262.3 183.3 262.5C186.9 263.4 190.9 263.7 202.5 257.4C204.5 256.3 206.5 255.3 208.4 254.4C212.5 252.4 216.4 250.8 219.9 249.5C222.4 248.5 224.7 247.7 226.8 246.9L228 246.5C230 245.7 231.9 245 233.7 244.3C236.2 243.3 238.4 242.3 240.4 241.1L240.5 241.4L240.6 241.5L240.9 241.8C240.9 241.8 242.2 242.5 244.2 243.8C244.7 244.1 245.2 244.5 245.8 244.9C247.3 245.9 248.8 247 250.2 248.1C253.5 250.8 257.3 254.2 260.7 258.5C264.8 263.7 268.4 270.2 270.1 277.8C274 295.9 275 311.8 275.1 318.4H153.6C156.3 313.1 160.4 304.4 164.8 295.2C170.8 282.4 177 269.3 180.8 262.2Z" fill="black"/>
<path d="M84.7991 198.9C87.6991 200.7 93.5991 193.9 103.999 197.1C103.099 193.6 84.4991 193.2 84.4991 193.2C84.4991 193.2 82.2991 195.5 84.7991 198.9Z" fill="#0029BC"/>
<path d="M87.4994 181.5C89.9994 184.5 85.1994 185.3 83.5994 182.4C82.5994 180.7 80.7994 178.2 80.4994 177.4C80.3994 177 80.4994 176.6 80.5994 176.2L85.0994 179C85.1994 178.9 85.0994 178.5 87.4994 181.5Z" fill="#062784"/>
<path d="M91.7991 164.1C99.1991 164 99.9991 170 109.799 173.8C135.599 183.9 134.899 196.4 128.699 203.4C124.099 208.5 115.399 222.6 100.099 219.3C76.6991 214.3 75.1991 211.4 64.2991 214.6C56.8991 216.8 49.8991 211 54.6991 207.9C66.2991 200.4 107.699 202.6 119.199 195.8C113.599 200.1 65.8991 199.2 51.9991 207.4C46.7991 210.5 46.1991 197.9 55.2991 194C65.4991 189.6 72.1991 181.5 76.9991 175.8C83.4991 168.2 86.9991 164.2 91.7991 164.1Z" fill="#ED7601"/>
<path d="M132.699 192.1C132.399 190.9 131.999 189.8 131.499 188.8C130.399 186.7 128.899 184.9 127.299 183.3C126.199 182.2 124.999 181.3 123.699 180.4C123.299 180.1 122.999 179.9 122.599 179.6C122.499 179.5 122.299 179.4 122.199 179.3C122.099 179.2 121.999 179.1 121.799 179.1C121.699 179 121.599 179 121.499 178.9C121.099 178.7 120.699 178.4 120.299 178.2C119.899 178 119.499 177.7 119.099 177.5C117.999 176.9 116.899 176.3 115.799 175.8C114.799 175.3 113.799 174.8 112.699 174.4C112.499 174.3 112.299 174.3 112.099 174.2C111.799 174.1 111.399 173.9 111.099 173.8L109.499 173.2C107.499 172.4 105.499 171.3 103.699 169.9C102.799 169.2 101.999 168.5 101.099 167.8C100.199 167.1 99.3994 166.3 98.3994 165.6C98.0994 165.4 97.6994 165.1 97.3994 164.9C96.6994 164.5 95.9994 164.2 95.2994 164C94.9994 163.9 94.6994 163.8 94.3994 163.8C94.0994 163.7 93.7994 163.7 93.4994 163.6C92.9994 163.5 92.4994 163.5 91.9994 163.5C91.8994 163.5 91.7994 163.5 91.6994 163.5C91.2994 163.5 90.9994 163.5 90.5994 163.6C90.1994 163.7 89.7994 163.7 89.3994 163.8C88.6994 164 87.8994 164.3 87.2994 164.7C85.9994 165.4 84.7994 166.3 83.6994 167.3C82.6994 168.2 81.6994 169.2 80.7994 170.3L80.6994 170.4C79.6994 171.5 78.7994 172.5 77.8994 173.6C75.9994 175.7 74.1994 177.9 72.2994 180C70.3994 182.1 68.3994 184.1 66.2994 185.9C66.0994 186.1 65.9994 186.2 65.7994 186.3C63.7994 188 61.6994 189.5 59.5994 190.8C58.3994 191.5 57.1994 192.2 55.8994 192.7C55.5994 192.8 55.2994 193 54.8994 193.1L54.3994 193.3C54.2994 193.3 54.1994 193.4 54.0994 193.5C53.9994 193.5 53.9994 193.6 53.8994 193.6C53.3994 193.9 52.8994 194.2 52.3994 194.5C52.2994 194.6 52.0994 194.7 51.8994 194.8C51.3994 195.1 50.9994 195.5 50.5994 195.9C50.3994 196.1 50.1994 196.3 49.9994 196.6C49.8994 196.7 49.7994 196.9 49.6994 197C49.4994 197.2 49.3994 197.4 49.1994 197.6C49.0994 197.7 49.0994 197.8 48.9994 197.9C48.8994 198 48.8994 198.1 48.7994 198.1C48.7994 198.2 48.6994 198.2 48.6994 198.3C47.8994 199.5 47.3994 200.9 47.0994 202.4C46.8994 203.2 46.8994 203.9 46.8994 204.8C46.8994 205.6 47.0994 206.4 47.4994 207.3C47.6994 207.7 47.9994 208.1 48.4994 208.5C48.6994 208.7 48.9994 208.8 49.2994 208.9C49.5994 209 49.7994 209 50.0994 209.1C50.5994 209.1 51.0994 209 51.5994 208.8C51.7994 208.7 51.9994 208.6 52.1994 208.5L52.3994 208.4L52.5994 208.3C52.4994 208.5 52.3994 208.6 52.2994 208.8C52.0994 209.1 51.8994 209.5 51.8994 209.9C51.7994 210.3 51.7994 210.7 51.8994 211.1C52.0994 211.9 52.3994 212.6 52.8994 213.1C53.7994 214.2 54.8994 214.9 55.9994 215.4C58.2994 216.4 60.7994 216.6 63.1994 216.1C63.7994 216 64.3994 215.8 64.8994 215.6C65.1994 215.5 65.3994 215.4 65.6994 215.4C65.9994 215.3 66.1994 215.2 66.4994 215.2C67.5994 214.9 68.5994 214.7 69.6994 214.6C70.7994 214.5 71.7994 214.4 72.8994 214.5C73.8994 214.5 74.9994 214.7 76.0994 214.9H76.1994C78.3994 215.3 80.5994 215.8 82.6994 216.4C84.8994 217 87.0994 217.5 89.2994 218.1C91.2994 218.6 93.2994 219 95.2994 219.5C95.4994 219.6 95.6994 219.6 95.8994 219.6C96.9994 219.8 98.0994 220.1 99.1994 220.3L99.4994 220.4H99.6994L100.099 220.5C100.399 220.6 100.699 220.6 100.999 220.6C100.999 220.6 101.099 220.6 101.199 220.6C101.399 220.6 101.699 220.7 101.899 220.7C101.899 220.7 101.899 220.7 101.999 220.7C102.299 220.7 102.499 220.8 102.799 220.8C105.099 221 107.499 220.8 109.799 220.1C112.099 219.5 114.199 218.5 116.099 217.2C118.099 215.9 119.799 214.4 121.499 212.8C123.099 211.2 124.599 209.5 126.099 207.7L128.199 205.1L128.699 204.5L129.299 203.9C129.699 203.5 129.999 203 130.399 202.5C131.699 200.6 132.599 198.3 132.799 195.9C132.999 194.5 132.899 193.3 132.699 192.1ZM52.4994 197C52.4994 196.9 52.5994 196.9 52.5994 196.9C52.6994 196.8 52.8994 196.6 52.9994 196.5C53.0994 196.4 53.1994 196.4 53.1994 196.3C53.6994 195.9 54.2994 195.5 54.7994 195.2C54.9994 195.1 55.0994 195 55.1994 195L55.4994 194.9L55.6994 194.8C55.9994 194.6 56.3994 194.5 56.6994 194.3C57.9994 193.7 59.2994 193 60.4994 192.2C62.7994 190.8 64.9994 189.2 66.9994 187.4C67.0994 187.3 67.2994 187.2 67.3994 187C69.5994 185.1 71.5994 183 73.4994 180.9C75.3994 178.8 77.1994 176.6 78.9994 174.4C79.8994 173.3 80.7994 172.2 81.7994 171.2C82.6994 170.2 83.6994 169.2 84.6994 168.2C85.6994 167.2 86.7994 166.4 87.8994 165.7C88.4994 165.4 89.0994 165.1 89.6994 164.9C89.6994 164.9 89.7994 164.9 89.8994 164.9C90.2994 164.8 90.6994 164.7 90.9994 164.7C91.0994 164.7 91.1994 164.7 91.2994 164.7C91.3994 164.7 91.4994 164.7 91.6994 164.7C92.1994 164.7 92.7994 164.7 93.2994 164.8C93.5994 164.8 93.7994 164.9 94.0994 164.9C94.3994 165 94.5994 165 94.8994 165.1C95.3994 165.3 95.9994 165.5 96.4994 165.8C96.8994 166 97.2994 166.3 97.7994 166.6C98.6994 167.2 99.4994 168 100.399 168.7C101.299 169.4 102.199 170.1 103.099 170.8C103.999 171.5 104.999 172.1 105.999 172.7C106.999 173.3 107.999 173.8 109.099 174.2L110.699 174.8C110.899 174.9 111.099 175 111.299 175C111.599 175.1 111.899 175.3 112.199 175.4C113.199 175.8 114.299 176.3 115.299 176.8C117.299 177.8 119.299 178.8 121.199 180C121.399 180.1 121.599 180.3 121.799 180.4C121.999 180.5 122.199 180.7 122.499 180.8C122.599 180.9 122.799 181 122.899 181.1C124.199 182 125.399 183 126.499 184C127.799 185.2 128.999 186.6 129.899 188.2C129.999 188.4 130.099 188.5 130.199 188.7C130.299 188.8 130.299 188.9 130.399 189.1C130.399 189.2 130.399 189.2 130.499 189.3C130.999 190.3 131.299 191.3 131.599 192.3C131.799 193.4 131.899 194.4 131.799 195.5C131.599 197.6 130.799 199.7 129.499 201.5C129.199 201.9 128.899 202.4 128.499 202.8L127.899 203.4L127.299 204.1L125.099 206.7C123.699 208.4 122.199 210.1 120.599 211.6C118.999 213.2 117.299 214.6 115.399 215.7C113.499 216.9 111.499 217.8 109.399 218.3C107.299 218.9 105.099 219.1 102.899 218.9C102.599 218.9 102.399 218.8 102.099 218.8C101.799 218.8 101.599 218.7 101.299 218.7C101.199 218.7 101.099 218.7 100.999 218.6C100.799 218.6 100.699 218.5 100.499 218.5L100.199 218.4H100.099L99.6994 218.3C99.3994 218.2 98.9994 218.1 98.6994 218.1C98.0994 218 97.4994 217.8 96.7994 217.7C96.6994 217.7 96.4994 217.6 96.3994 217.6C94.1994 217.1 91.9994 216.6 89.7994 216C87.5994 215.5 85.3994 214.9 83.2994 214.3C81.4994 213.8 79.6994 213.3 77.7994 212.9C77.3994 212.8 76.9994 212.7 76.5994 212.7C75.4994 212.5 74.2994 212.3 73.0994 212.3C71.8994 212.2 70.6994 212.3 69.5994 212.4C68.3994 212.5 67.2994 212.8 66.1994 213C65.8994 213.1 65.5994 213.1 65.3994 213.2C65.0994 213.3 64.7994 213.4 64.5994 213.4C63.9994 213.6 63.5994 213.7 62.9994 213.8C60.9994 214.2 58.7994 214 56.9994 213.1C56.0994 212.7 55.1994 212.1 54.6994 211.4C54.3994 211.1 54.2994 210.7 54.1994 210.4C54.1994 210.2 54.1994 210.1 54.1994 209.9C54.1994 209.8 54.2994 209.6 54.3994 209.5C54.5994 209.2 54.8994 208.9 55.2994 208.7C55.6994 208.4 56.1994 208.2 56.6994 207.9C57.6994 207.4 58.6994 207.1 59.6994 206.7C61.7994 206 63.8994 205.5 66.0994 205.1C70.4994 204.3 74.9994 203.8 79.3994 203.3C83.1994 202.9 86.8994 202.6 90.6994 202.3C90.9994 202.3 91.2994 202.2 91.5994 202.2C91.6994 202.2 91.6994 202.2 91.7994 202.2C92.1994 202.2 92.4994 202.1 92.8994 202.1C97.3994 201.7 101.899 201.3 106.399 200.6C107.199 200.5 107.999 200.4 108.799 200.2C110.299 200 111.699 199.7 113.099 199.3C114.199 199 115.399 198.7 116.499 198.3C117.199 198.1 117.799 197.8 118.499 197.5C118.999 197.3 119.399 197.1 119.899 196.8L119.099 195.6L118.299 194.4C118.199 194.5 117.999 194.6 117.699 194.7C117.599 194.8 117.399 194.8 117.299 194.9C117.199 195 116.999 195 116.899 195.1C116.299 195.3 115.599 195.5 114.999 195.6C113.699 195.9 112.299 196.1 110.899 196.3C109.199 196.5 107.399 196.8 105.699 197C104.599 197.1 103.599 197.2 102.499 197.3C99.6994 197.6 96.8994 197.8 94.0994 198.1C93.6994 198.1 93.2994 198.2 92.7994 198.2H92.6994C92.3994 198.2 92.0994 198.2 91.7994 198.3C90.2994 198.4 88.8994 198.6 87.3994 198.7C86.7994 198.8 86.2994 198.8 85.6994 198.9C85.6994 198.9 85.5994 198.9 85.4994 198.9C81.5994 199.3 77.5994 199.8 73.6994 200.3C71.9994 200.5 70.2994 200.8 68.5994 201.1C65.7994 201.6 62.9994 202.2 60.1994 202.9C58.7994 203.3 57.3994 203.7 55.9994 204.2C54.5994 204.7 53.2994 205.3 51.9994 206L51.7994 206.1L51.5994 206.2C51.4994 206.3 51.3994 206.3 51.2994 206.4C51.0994 206.5 50.7994 206.5 50.6994 206.5C50.4994 206.5 50.3994 206.5 50.2994 206.4C50.1994 206.3 49.9994 206.2 49.8994 206C49.6994 205.6 49.4994 205 49.4994 204.4C49.4994 203.8 49.4994 203.2 49.5994 202.5C49.5994 202.4 49.5994 202.3 49.6994 202.2C49.8994 201.1 50.2994 200.1 50.8994 199.2C50.8994 199.1 50.9994 199 50.9994 199C51.1994 198.7 51.2994 198.4 51.4994 198.2C51.5994 197.9 51.9994 197.4 52.4994 197Z" fill="black"/>
<path d="M129.1 203C129 203.2 128.8 203.3 128.7 203.5C124.1 208.6 115.4 222.7 100.1 219.4C76.6995 214.4 75.1995 211.5 64.2995 214.7C62.8995 215.1 61.3995 215.3 60.0995 215.2C54.5995 214.8 50.7995 210.5 54.6995 208C65.9995 200.7 105 202.5 117.9 196.5C108.7 200.1 65.0995 199.7 51.8995 207.5C46.6995 210.6 46.0995 198 55.1995 194.1C65.3995 189.7 72.0995 181.6 76.8995 175.9C83.3995 168.2 86.8995 164.2 91.6995 164.1C99.0995 164 99.8995 170 109.7 173.8C135 183.7 135 195.9 129.1 203Z" fill="#ED7601"/>
<path d="M117.799 196.1L117.599 195.7L117.799 196.1L117.899 196.5L117.799 196.1ZM132.299 191.4C131.999 190.4 131.599 189.4 131.099 188.4C130.599 187.5 129.999 186.6 129.299 185.8C127.999 184.1 126.499 182.7 124.799 181.4C124.399 181.1 123.999 180.8 123.599 180.5C123.199 180.2 122.899 180 122.499 179.7C122.399 179.6 122.199 179.5 122.099 179.4C121.899 179.3 121.699 179.1 121.399 179C120.999 178.8 120.599 178.5 120.199 178.3C119.799 178 119.399 177.8 118.899 177.5C117.299 176.6 115.699 175.8 114.099 175.1C113.399 174.8 112.799 174.5 112.099 174.2C111.799 174.1 111.599 174 111.299 173.9L109.899 173.3L109.199 173L108.499 172.7C106.699 171.9 104.999 170.8 103.399 169.6C102.599 169 101.799 168.3 100.999 167.7C100.199 167 99.3992 166.4 98.5992 165.7C98.1992 165.4 97.8992 165.2 97.4992 165C97.3992 164.9 97.2992 164.9 97.2992 164.9C96.7992 164.6 96.2992 164.4 95.7992 164.2C94.7992 163.8 93.6992 163.6 92.5992 163.6C92.4992 163.6 92.2992 163.6 92.1992 163.6H91.7992L90.9992 163.7H90.8992C90.6992 163.7 90.3992 163.8 90.1992 163.8C90.0992 163.8 89.8992 163.9 89.7992 163.9L89.3992 164C88.2992 164.3 87.2992 164.8 86.3992 165.4C84.5992 166.6 83.0992 168.1 81.6992 169.6C81.4992 169.8 81.1992 170.1 80.9992 170.3C78.3992 173.1 75.9992 176 73.4992 178.9C71.0992 181.6 68.5992 184.1 65.9992 186.4C65.5992 186.7 65.1992 187 64.7992 187.4C63.1992 188.6 61.5992 189.8 59.7992 190.8L58.4992 191.6L57.1992 192.3C56.7992 192.5 56.2992 192.7 55.8992 193L54.4992 193.6C54.4992 193.6 54.3992 193.7 54.2992 193.7C53.6992 194 53.1992 194.3 52.5992 194.7C52.4992 194.8 52.2992 194.9 52.0992 195C52.0992 195 52.0992 195 51.9992 195.1C51.5992 195.4 51.0992 195.8 50.7992 196.2C50.5992 196.4 50.3992 196.6 50.1992 196.9C50.0992 197 49.9992 197.2 49.8992 197.3C49.6992 197.5 49.5992 197.7 49.3992 197.9C49.1992 198.1 49.0992 198.4 48.9992 198.6C48.5992 199.3 48.1992 200.1 47.8992 200.9C47.4992 202 47.2992 203.1 47.1992 204.2C47.1992 204.8 47.1992 205.4 47.2992 205.9C47.3992 206.5 47.5992 207.1 47.8992 207.7C48.0992 208 48.2992 208.3 48.5992 208.5C48.8992 208.7 49.1992 208.9 49.5992 209C49.9992 209.1 50.3992 209.1 50.6992 209.1C50.9992 209.1 51.3992 208.9 51.6992 208.8C51.8992 208.7 51.9992 208.7 52.0992 208.6L52.2992 208.5L52.4992 208.4L52.9992 208L53.1992 207.9C53.5992 207.7 54.0992 207.5 54.4992 207.3C54.6992 207.2 54.8992 207.1 55.1992 207L55.5992 206.8C55.3992 206.9 55.0992 207 54.8992 207.2C54.6992 207.3 54.5992 207.4 54.3992 207.5C53.9992 207.7 53.6992 208 53.3992 208.4C53.0992 208.7 52.7992 209.2 52.6992 209.6C52.4992 210.1 52.4992 210.6 52.5992 211.1C52.6992 211.6 52.8992 212 53.1992 212.4C53.6992 213.2 54.3992 213.7 55.0992 214.2C55.4992 214.4 55.7992 214.6 56.1992 214.8C56.5992 215 56.9992 215.1 57.3992 215.3C58.1992 215.6 58.9992 215.7 59.7992 215.8C60.5992 215.9 61.4992 215.9 62.2992 215.8C62.6992 215.8 63.0992 215.7 63.4992 215.6C63.6992 215.5 63.8992 215.5 64.0992 215.4L64.6992 215.2L65.7992 214.9C65.9992 214.9 66.1992 214.8 66.3992 214.7L66.9992 214.6C67.3992 214.5 67.7992 214.4 68.0992 214.3L69.2992 214.1C70.7992 213.9 72.3992 213.8 73.9992 213.9C74.1992 213.9 74.3992 213.9 74.5992 214L75.1992 214.1L75.7992 214.2L76.3992 214.3L76.7992 214.4L77.4992 214.5L78.6992 214.7C80.1992 215 81.7992 215.4 83.2992 215.8L87.8992 217C88.6992 217.2 89.4992 217.4 90.1992 217.6C90.9992 217.8 91.6992 218 92.4992 218.2C93.5992 218.4 94.6992 218.7 95.7992 219C96.1992 219.1 96.6992 219.2 97.0992 219.3L99.2992 219.8H99.3992C99.7992 219.9 100.199 220 100.599 220L101.199 220.1C101.399 220.1 101.499 220.1 101.699 220.2H101.799C103.399 220.4 104.999 220.4 106.599 220.2C108.199 220 109.799 219.6 111.299 219.1C112.799 218.5 114.299 217.8 115.599 216.9C118.299 215.2 120.699 213 122.899 210.6C123.999 209.4 124.999 208.2 125.999 207L127.499 205.2C127.799 204.9 127.999 204.6 128.299 204.3L129.099 203.4C130.499 201.8 131.499 199.9 132.099 197.8C132.899 195.6 132.899 193.4 132.299 191.4ZM127.199 204.5L125.699 206.3C124.699 207.5 123.699 208.8 122.599 209.9C120.499 212.2 118.099 214.4 115.499 216.1C112.799 217.8 109.799 218.9 106.699 219.3C105.099 219.5 103.599 219.5 101.999 219.3C101.799 219.3 101.599 219.3 101.399 219.2H101.299L100.799 219.1C100.699 219.1 100.599 219.1 100.499 219C100.199 219 99.8992 218.9 99.5992 218.8L98.8992 218.6L97.2992 218.2C96.9992 218.1 96.6992 218.1 96.3992 218C95.0992 217.7 93.8992 217.4 92.5992 217.1C91.7992 216.9 91.0992 216.7 90.2992 216.5C89.4992 216.3 88.7992 216.1 87.9992 215.9L83.3992 214.7C81.8992 214.3 80.2992 213.9 78.7992 213.5L77.5992 213.2H77.4992L76.4992 213L75.8992 212.9L75.2992 212.8L74.6992 212.7C74.4992 212.7 74.2992 212.7 74.0992 212.6C72.4992 212.4 70.7992 212.5 69.1992 212.7L67.9992 212.9C67.5992 213 67.1992 213.1 66.7992 213.2L66.1992 213.3C65.9992 213.4 65.7992 213.4 65.5992 213.5L64.3992 213.8L63.7992 214C63.5992 214 63.3992 214.1 63.1992 214.1C62.7992 214.2 62.3992 214.2 62.0992 214.3C61.2992 214.4 60.5992 214.4 59.7992 214.3C58.9992 214.2 58.2992 214.1 57.5992 213.8C57.1992 213.7 56.8992 213.5 56.5992 213.4C56.2992 213.2 55.8992 213.1 55.5992 212.8C54.9992 212.4 54.3992 211.9 53.9992 211.3C53.5992 210.7 53.4992 210.1 53.5992 209.5C53.5992 209.4 53.6992 209.3 53.6992 209.2C53.7992 209 53.8992 208.8 54.0992 208.7C54.2992 208.5 54.5992 208.2 54.8992 208C55.4992 207.6 56.1992 207.2 56.8992 206.9C58.2992 206.3 59.7992 205.8 61.2992 205.4C62.7992 205 64.3992 204.7 65.8992 204.4C67.4992 204.1 68.9992 203.9 70.5992 203.6C73.6992 203.1 76.8992 202.8 80.0992 202.5C83.5992 202.2 87.0992 201.9 90.5992 201.5C90.8992 201.5 91.1992 201.4 91.4992 201.4C91.4992 201.4 91.5992 201.4 91.6992 201.4C94.1992 201.2 96.6992 200.9 99.1992 200.7C102.199 200.4 105.199 200 108.099 199.5C108.299 199.5 108.499 199.4 108.699 199.4C109.599 199.2 110.599 199.1 111.499 198.9C112.199 198.8 112.799 198.6 113.499 198.4C114.999 198 116.599 197.5 118.099 196.8C118.099 196.8 118.099 196.8 118.199 196.8L117.899 196L117.699 195.6L117.499 195.2C117.099 195.3 116.599 195.5 116.199 195.6C115.999 195.7 115.699 195.7 115.499 195.8L114.799 196C114.299 196.1 113.799 196.2 113.299 196.3C112.799 196.4 112.299 196.5 111.799 196.5C109.899 196.8 107.999 197 105.999 197.2C105.899 197.2 105.799 197.2 105.699 197.2C101.599 197.6 97.4992 198 93.4992 198.3C93.1992 198.3 92.8992 198.3 92.5992 198.4H92.4992C92.1992 198.4 91.8992 198.5 91.5992 198.5C90.0992 198.6 88.5992 198.8 87.1992 198.9C84.4992 199.1 81.7992 199.4 79.0992 199.7C75.6992 200.1 72.2992 200.5 68.9992 201.1C66.9992 201.4 64.8992 201.8 62.8992 202.3C62.3992 202.4 61.8992 202.5 61.3992 202.6L59.8992 203L58.3992 203.4L57.9992 203.5L57.5992 203.6L56.8992 203.8C56.6992 203.9 56.3992 204 56.0992 204L55.2992 204.3L54.5992 204.6C54.3992 204.7 54.0992 204.8 53.8992 204.9C53.3992 205.1 52.8992 205.3 52.3992 205.6L51.6992 206L51.3992 206.2C51.2992 206.3 51.1992 206.3 51.0992 206.3C50.7992 206.5 50.3992 206.5 50.1992 206.4C50.0992 206.4 49.9992 206.3 49.8992 206.2C49.7992 206.1 49.6992 206 49.5992 205.9C49.3992 205.6 49.2992 205.2 49.1992 204.8C49.0992 204.4 49.0992 203.9 49.0992 203.5C49.0992 203 49.1992 202.4 49.2992 201.9C49.3992 201.5 49.4992 201.1 49.5992 200.7C49.8992 199.8 50.2992 199 50.8992 198.2C50.9992 198.1 51.0992 198 51.1992 197.8C51.5992 197.3 51.9992 196.8 52.3992 196.4C52.3992 196.3 52.4992 196.3 52.4992 196.3C52.5992 196.2 52.7992 196.1 52.8992 195.9C53.5992 195.3 54.2992 194.9 55.0992 194.5L55.4992 194.3L56.4992 193.9C56.9992 193.7 57.4992 193.5 57.8992 193.2L59.2992 192.5L60.6992 191.7C62.4992 190.6 64.1992 189.4 65.7992 188.1C66.1992 187.7 66.6992 187.4 67.0992 187C69.7992 184.6 72.2992 182 74.5992 179.3C75.9992 177.7 77.2992 176.1 78.5992 174.6C79.6992 173.3 80.7992 172 81.8992 170.8C82.0992 170.5 82.3992 170.3 82.5992 170C83.9992 168.5 85.3992 167.1 86.9992 166C87.7992 165.5 88.6992 165 89.4992 164.7L89.7992 164.6C89.8992 164.6 89.9992 164.5 90.0992 164.5C90.2992 164.5 90.5992 164.4 90.7992 164.4H90.8992H91.1992H91.4992C91.6992 164.4 91.9992 164.4 92.1992 164.4C93.1992 164.4 94.0992 164.6 94.9992 164.9C95.3992 165 95.7992 165.2 96.1992 165.4C96.1992 165.4 96.2992 165.4 96.2992 165.5C96.6992 165.7 97.0992 166 97.4992 166.3C98.2992 166.9 99.0992 167.5 99.8992 168.2C100.699 168.9 101.499 169.5 102.299 170.2C103.999 171.5 105.799 172.5 107.699 173.4L108.399 173.7L109.099 174L110.499 174.6C110.599 174.7 110.699 174.7 110.799 174.7C111.599 175 112.499 175.4 113.299 175.7C115.299 176.6 117.299 177.6 119.199 178.7C119.399 178.8 119.499 178.9 119.699 179C120.299 179.3 120.799 179.7 121.399 180.1C121.599 180.2 121.899 180.4 122.099 180.6C122.199 180.7 122.399 180.8 122.499 180.9C122.999 181.2 123.399 181.6 123.899 181.9C125.499 183.1 126.999 184.5 128.199 186.1C128.799 186.8 129.199 187.5 129.699 188.3C129.799 188.4 129.799 188.5 129.899 188.6C129.899 188.7 129.999 188.8 129.999 188.8C130.399 189.6 130.799 190.4 130.999 191.3C131.499 193.2 131.599 195.2 131.099 197.2C130.599 199.1 129.599 200.9 128.399 202.4L127.599 203.3C127.799 203.9 127.499 204.2 127.199 204.5Z" fill="black"/>
<path d="M129.099 203C128.999 203.2 128.799 203.3 128.699 203.5C124.099 208.6 115.399 222.7 100.099 219.4C76.6991 214.4 75.1991 211.5 64.2991 214.7C62.8991 215.1 65.1991 215.6 60.0991 215.2C54.9991 214.8 52.5991 210.3 53.4991 209.1C57.8991 216.9 67.7991 205.5 92.0991 211.3C104.999 214.2 112.599 213.8 123.199 206.8C133.799 199.8 130.399 192.2 129.799 187.3C136.599 196.4 129.099 203 129.099 203Z" fill="#D64422"/>
<path d="M50.0996 207.9C47.0996 204.2 48.9996 200.3 48.9996 200.3C48.8996 207.5 57.0996 202.5 61.0996 201.8C71.1996 200.2 94.6996 200.6 110.5 193.7C121.9 188.7 119.1 195.8 119.1 195.8L83.7996 202L55.9996 206.1L50.0996 207.9Z" fill="#D64422"/>
<path d="M132.699 192.1C132.399 190.9 131.999 189.8 131.499 188.8C130.399 186.7 128.899 184.9 127.299 183.3C126.199 182.2 124.999 181.3 123.699 180.4C123.299 180.1 122.999 179.9 122.599 179.6C122.499 179.5 122.299 179.4 122.199 179.3C122.099 179.2 121.999 179.1 121.799 179.1C121.699 179 121.599 179 121.499 178.9C121.099 178.7 120.699 178.4 120.299 178.2C119.899 178 119.499 177.7 119.099 177.5C117.999 176.9 116.899 176.3 115.799 175.8C114.799 175.3 113.799 174.8 112.699 174.4C112.499 174.3 112.299 174.3 112.099 174.2C111.799 174.1 111.399 173.9 111.099 173.8L109.499 173.2C107.499 172.4 105.499 171.3 103.699 169.9C102.799 169.2 101.999 168.5 101.099 167.8C100.199 167.1 99.3994 166.3 98.3994 165.6C98.0994 165.4 97.6994 165.1 97.3994 164.9C96.6994 164.5 95.9994 164.2 95.2994 164C94.9994 163.9 94.6994 163.8 94.3994 163.8C94.0994 163.7 93.7994 163.7 93.4994 163.6C92.9994 163.5 92.4994 163.5 91.9994 163.5C91.8994 163.5 91.7994 163.5 91.6994 163.5C91.2994 163.5 90.9994 163.5 90.5994 163.6C90.1994 163.7 89.7994 163.7 89.3994 163.8C88.6994 164 87.8994 164.3 87.2994 164.7C85.9994 165.4 84.7994 166.3 83.6994 167.3C82.6994 168.2 81.6994 169.2 80.7994 170.3L80.6994 170.4C79.6994 171.5 78.7994 172.5 77.8994 173.6C75.9994 175.7 74.1994 177.9 72.2994 180C70.3994 182.1 68.3994 184.1 66.2994 185.9C66.0994 186.1 65.9994 186.2 65.7994 186.3C63.7994 188 61.6994 189.5 59.5994 190.8C58.3994 191.5 57.1994 192.2 55.8994 192.7C55.5994 192.8 55.2994 193 54.8994 193.1L54.3994 193.3C54.2994 193.3 54.1994 193.4 54.0994 193.5C53.9994 193.5 53.9994 193.6 53.8994 193.6C53.3994 193.9 52.8994 194.2 52.3994 194.5C52.2994 194.6 52.0994 194.7 51.8994 194.8C51.3994 195.1 50.9994 195.5 50.5994 195.9C50.3994 196.1 50.1994 196.3 49.9994 196.6C49.8994 196.7 49.7994 196.9 49.6994 197C49.4994 197.2 49.3994 197.4 49.1994 197.6C49.0994 197.7 49.0994 197.8 48.9994 197.9C48.8994 198 48.8994 198.1 48.7994 198.1C48.7994 198.2 48.6994 198.2 48.6994 198.3C47.8994 199.5 47.3994 200.9 47.0994 202.4C46.8994 203.2 46.8994 203.9 46.8994 204.8C46.8994 205.6 47.0994 206.4 47.4994 207.3C47.6994 207.7 47.9994 208.1 48.4994 208.5C48.6994 208.7 48.9994 208.8 49.2994 208.9C49.5994 209 49.7994 209 50.0994 209.1C50.5994 209.1 51.0994 209 51.5994 208.8C51.7994 208.7 51.9994 208.6 52.1994 208.5L52.3994 208.4L52.5994 208.3C52.4994 208.5 52.3994 208.6 52.2994 208.8C52.0994 209.1 51.8994 209.5 51.8994 209.9C51.7994 210.3 51.7994 210.7 51.8994 211.1C52.0994 211.9 52.3994 212.6 52.8994 213.1C53.7994 214.2 54.8994 214.9 55.9994 215.4C58.2994 216.4 60.7994 216.6 63.1994 216.1C63.7994 216 64.3994 215.8 64.8994 215.6C65.1994 215.5 65.3994 215.4 65.6994 215.4C65.9994 215.3 66.1994 215.2 66.4994 215.2C67.5994 214.9 68.5994 214.7 69.6994 214.6C70.7994 214.5 71.7994 214.4 72.8994 214.5C73.8994 214.5 74.9994 214.7 76.0994 214.9H76.1994C78.3994 215.3 80.5994 215.8 82.6994 216.4C84.8994 217 87.0994 217.5 89.2994 218.1C91.2994 218.6 93.2994 219 95.2994 219.5C95.4994 219.6 95.6994 219.6 95.8994 219.6C96.9994 219.8 98.0994 220.1 99.1994 220.3L99.4994 220.4H99.6994L100.099 220.5C100.399 220.6 100.699 220.6 100.999 220.6C100.999 220.6 101.099 220.6 101.199 220.6C101.399 220.6 101.699 220.7 101.899 220.7C101.899 220.7 101.899 220.7 101.999 220.7C102.299 220.7 102.499 220.8 102.799 220.8C105.099 221 107.499 220.8 109.799 220.1C112.099 219.5 114.199 218.5 116.099 217.2C118.099 215.9 119.799 214.4 121.499 212.8C123.099 211.2 124.599 209.5 126.099 207.7L128.199 205.1L128.699 204.5L129.299 203.9C129.699 203.5 129.999 203 130.399 202.5C131.699 200.6 132.599 198.3 132.799 195.9C132.999 194.5 132.899 193.3 132.699 192.1ZM52.4994 197C52.4994 196.9 52.5994 196.9 52.5994 196.9C52.6994 196.8 52.8994 196.6 52.9994 196.5C53.0994 196.4 53.1994 196.4 53.1994 196.3C53.6994 195.9 54.2994 195.5 54.7994 195.2C54.9994 195.1 55.0994 195 55.1994 195L55.4994 194.9L55.6994 194.8C55.9994 194.6 56.3994 194.5 56.6994 194.3C57.9994 193.7 59.2994 193 60.4994 192.2C62.7994 190.8 64.9994 189.2 66.9994 187.4C67.0994 187.3 67.2994 187.2 67.3994 187C69.5994 185.1 71.5994 183 73.4994 180.9C75.3994 178.8 77.1994 176.6 78.9994 174.4C79.8994 173.3 80.7994 172.2 81.7994 171.2C82.6994 170.2 83.6994 169.2 84.6994 168.2C85.6994 167.2 86.7994 166.4 87.8994 165.7C88.4994 165.4 89.0994 165.1 89.6994 164.9C89.6994 164.9 89.7994 164.9 89.8994 164.9C90.2994 164.8 90.6994 164.7 90.9994 164.7C91.0994 164.7 91.1994 164.7 91.2994 164.7C91.3994 164.7 91.4994 164.7 91.6994 164.7C92.1994 164.7 92.7994 164.7 93.2994 164.8C93.5994 164.8 93.7994 164.9 94.0994 164.9C94.3994 165 94.5994 165 94.8994 165.1C95.3994 165.3 95.9994 165.5 96.4994 165.8C96.8994 166 97.2994 166.3 97.7994 166.6C98.6994 167.2 99.4994 168 100.399 168.7C101.299 169.4 102.199 170.1 103.099 170.8C103.999 171.5 104.999 172.1 105.999 172.7C106.999 173.3 107.999 173.8 109.099 174.2L110.699 174.8C110.899 174.9 111.099 175 111.299 175C111.599 175.1 111.899 175.3 112.199 175.4C113.199 175.8 114.299 176.3 115.299 176.8C117.299 177.8 119.299 178.8 121.199 180C121.399 180.1 121.599 180.3 121.799 180.4C121.999 180.5 122.199 180.7 122.499 180.8C122.599 180.9 122.799 181 122.899 181.1C124.199 182 125.399 183 126.499 184C127.799 185.2 128.999 186.6 129.899 188.2C129.999 188.4 130.099 188.5 130.199 188.7C130.299 188.8 130.299 188.9 130.399 189.1C130.399 189.2 130.399 189.2 130.499 189.3C130.999 190.3 131.299 191.3 131.599 192.3C131.799 193.4 131.899 194.4 131.799 195.5C131.599 197.6 130.799 199.7 129.499 201.5C129.199 201.9 128.899 202.4 128.499 202.8L127.899 203.4L127.299 204.1L125.099 206.7C123.699 208.4 122.199 210.1 120.599 211.6C118.999 213.2 117.299 214.6 115.399 215.7C113.499 216.9 111.499 217.8 109.399 218.3C107.299 218.9 105.099 219.1 102.899 218.9C102.599 218.9 102.399 218.8 102.099 218.8C101.799 218.8 101.599 218.7 101.299 218.7C101.199 218.7 101.099 218.7 100.999 218.6C100.799 218.6 100.699 218.5 100.499 218.5L100.199 218.4H100.099L99.6994 218.3C99.3994 218.2 98.9994 218.1 98.6994 218.1C98.0994 218 97.4994 217.8 96.7994 217.7C96.6994 217.7 96.4994 217.6 96.3994 217.6C94.1994 217.1 91.9994 216.6 89.7994 216C87.5994 215.5 85.3994 214.9 83.2994 214.3C81.4994 213.8 79.6994 213.3 77.7994 212.9C77.3994 212.8 76.9994 212.7 76.5994 212.7C75.4994 212.5 74.2994 212.3 73.0994 212.3C71.8994 212.2 70.6994 212.3 69.5994 212.4C68.3994 212.5 67.2994 212.8 66.1994 213C65.8994 213.1 65.5994 213.1 65.3994 213.2C65.0994 213.3 64.7994 213.4 64.5994 213.4C63.9994 213.6 63.5994 213.7 62.9994 213.8C60.9994 214.2 58.7994 214 56.9994 213.1C56.0994 212.7 55.1994 212.1 54.6994 211.4C54.3994 211.1 54.2994 210.7 54.1994 210.4C54.1994 210.2 54.1994 210.1 54.1994 209.9C54.1994 209.8 54.2994 209.6 54.3994 209.5C54.5994 209.2 54.8994 208.9 55.2994 208.7C55.6994 208.4 56.1994 208.2 56.6994 207.9C57.6994 207.4 58.6994 207.1 59.6994 206.7C61.7994 206 63.8994 205.5 66.0994 205.1C70.4994 204.3 74.9994 203.8 79.3994 203.3C83.1994 202.9 86.8994 202.6 90.6994 202.3C90.9994 202.3 91.2994 202.2 91.5994 202.2C91.6994 202.2 91.6994 202.2 91.7994 202.2C92.1994 202.2 92.4994 202.1 92.8994 202.1C97.3994 201.7 101.899 201.3 106.399 200.6C107.199 200.5 107.999 200.4 108.799 200.2C110.299 200 111.699 199.7 113.099 199.3C114.199 199 115.399 198.7 116.499 198.3C117.199 198.1 117.799 197.8 118.499 197.5C118.999 197.3 119.399 197.1 119.899 196.8L119.099 195.6L118.299 194.4C118.199 194.5 117.999 194.6 117.699 194.7C117.599 194.8 117.399 194.8 117.299 194.9C117.199 195 116.999 195 116.899 195.1C116.299 195.3 115.599 195.5 114.999 195.6C113.699 195.9 112.299 196.1 110.899 196.3C109.199 196.5 107.399 196.8 105.699 197C104.599 197.1 103.599 197.2 102.499 197.3C99.6994 197.6 96.8994 197.8 94.0994 198.1C93.6994 198.1 93.2994 198.2 92.7994 198.2H92.6994C92.3994 198.2 92.0994 198.2 91.7994 198.3C90.2994 198.4 88.8994 198.6 87.3994 198.7C86.7994 198.8 86.2994 198.8 85.6994 198.9C85.6994 198.9 85.5994 198.9 85.4994 198.9C81.5994 199.3 77.5994 199.8 73.6994 200.3C71.9994 200.5 70.2994 200.8 68.5994 201.1C65.7994 201.6 62.9994 202.2 60.1994 202.9C58.7994 203.3 57.3994 203.7 55.9994 204.2C54.5994 204.7 53.2994 205.3 51.9994 206L51.7994 206.1L51.5994 206.2C51.4994 206.3 51.3994 206.3 51.2994 206.4C51.0994 206.5 50.7994 206.5 50.6994 206.5C50.4994 206.5 50.3994 206.5 50.2994 206.4C50.1994 206.3 49.9994 206.2 49.8994 206C49.6994 205.6 49.4994 205 49.4994 204.4C49.4994 203.8 49.4994 203.2 49.5994 202.5C49.5994 202.4 49.5994 202.3 49.6994 202.2C49.8994 201.1 50.2994 200.1 50.8994 199.2C50.8994 199.1 50.9994 199 50.9994 199C51.1994 198.7 51.2994 198.4 51.4994 198.2C51.5994 197.9 51.9994 197.4 52.4994 197Z" fill="black"/>
<path d="M68.6999 191.7C67.0999 192.6 64.6999 190.7 67.7999 187.5C70.8999 184.3 76.2999 186.1 74.7999 188.7C73.3999 191.3 70.2999 190.8 68.6999 191.7Z" fill="#D64422"/>
<path d="M68.7996 187.7C64.2996 192.1 67.2996 192.6 71.6996 190.8C75.9996 189.1 73.2996 183.3 68.7996 187.7Z" fill="black"/>
</svg>
