<svg width="300" height="500" viewBox="0 0 300 500" fill="none" xmlns="http://www.w3.org/2000/svg">
<path opacity="0.23" d="M264.1 148.9C263.9 147.3 263.7 145.7 263.6 144.1C263.4 142.7 263.3 141.4 263 140C261.7 131.9 258.7 124.1 253.9 116.8C249.7 110.4 244 104.5 236.7 99.2001C231.7 95.3001 226.4 92.3001 220.9 89.6001C219.6 88.9001 218.3 88.3001 216.9 87.6001C207.4 83.1001 195.5 80.6001 190.2 71.6001C172.8 42.4001 145.4 -13.4999 111.1 18.8001C97.4004 31.8001 83.1004 43.3001 68.7004 54.8001C62.7004 59.6001 56.6004 64.4001 50.6004 69.4001C47.6004 72.1001 44.9004 75.1001 42.6004 78.3001C41.8004 79.4001 41.1004 80.5001 40.4004 81.7001C37.1004 87.2001 35.0004 93.4001 34.5004 99.9001C33.3004 110.2 33.8004 120.8 33.4004 131.4C33.3004 138.2 32.2004 145.4 28.8004 151.9C24.9004 161.4 17.6004 165.2 9.00039 166.2C6.40039 166.5 3.70039 166.5 1.00039 166.4V249.6C4.80039 252.3 8.60039 254.9 12.2004 257.5C19.3004 263.2 25.1004 269.8 26.7004 279.4C28.5004 290.2 20.7004 298.8 12.6004 305.4C11.1004 307 10.8004 309.2 10.4004 310.9C10.5004 314 10.7004 317.6 9.10039 320.2C6.50039 323.7 3.70039 327.5 0.900391 331.4V377.6C8.70039 384.8 15.9004 392.6 23.4004 400.2C34.2004 411.2 45.5004 421.6 59.4004 428.8C59.8004 429 60.3004 429.3 60.7004 429.5C67.4004 432.7 74.4004 435.1 81.9004 436.4C89.4004 437.7 97.4004 438 106 436.9C107.4 436.4 104.3 445.3 109 445.2C124.4 444.3 138.3 444 152.5 448.4C165.9 451.5 177.6 455.1 177.6 455.1C182.1 461.4 191.8 465.7 191.8 465.7C192.9 469.5 190.2 478.9 193.6 484.4C197 490 200.4 486 204.6 495C205.5 496.9 205.7 498.4 205.5 499.7H220.6C222.4 495.6 225.2 490.9 224.8 485.2C221.7 472.6 206 474.6 198.6 466.1C194.4 460.5 197.3 453.3 195.3 446.7C190.4 434.7 180.6 431.1 169.6 430.1C156.2 428.6 142.2 433.2 129.4 426.8C123.7 423.9 118.8 419.8 113.5 416.4C108.2 413 102.6 410.4 95.3004 410.3C89.5004 410.3 85.2004 405.6 84.3004 400.2C83.8004 395.9 84.2004 391.6 85.5004 387.8C86.8004 384.1 89.1004 380.9 92.3004 379C93.5004 378.3 94.6004 377.6 95.8004 377C136.4 353.3 176.8 331.3 195.6 286.4C201.8 271.6 205.6 257.7 214.1 243.7C218.5 237 220.3 229.8 222.4 222.6C222.9 221 223.4 219.4 223.9 217.8C224.7 215.3 224.6 211.9 227 210.1C247.2 195 245.4 155.2 246.9 152.4C251.8 173.1 243.4 193.4 237 205.4C233.9 211.3 231.2 215.2 230.8 216.1C232 215.1 233.1 214 234.3 213C238.8 208.7 243 204 246.6 198.9C247.5 197.6 248.4 196.3 249.4 195.2C261.4 189.9 264.8 179.7 265.1 168.5C265.7 162.4 264.9 155.4 264.1 148.9ZM136.9 344.6C126.6 351.7 115.7 359.8 103.5 361C100.8 361.3 98.1004 361.2 95.3004 360.7C93.1004 360.4 91.8004 356.7 92.3004 353.9C87.4004 348.7 81.1004 341.5 94.5004 340.5C94.9004 340.1 95.5004 340.3 96.0004 340.4C96.4004 340.5 96.7004 340.5 96.8004 340.2C105.1 325.7 112.9 308.3 130.1 303.7C140.1 301.1 150.9 309.2 149.4 319.7C150.4 318.3 150.2 316.3 152.1 315.6C151.6 327.3 146.7 338.5 136.9 344.6ZM178 294.8C171.9 299.6 164.4 303.4 156.3 302.6C156.1 302.1 155.8 301.2 155.6 300.9C153.8 297 151.3 291.7 150.9 285C148.2 273.2 161.6 266.8 171.1 262.8C179.9 259.7 206 259 178 294.8ZM298.6 425.4C297.1 420.3 293.8 415.4 290 410.6C284 403.4 276.9 396.4 273.5 387.7C271.5 382.2 269.5 376.6 267.4 371.1C264.2 365.1 261.5 357.6 258.7 349.9C255.6 339.5 251.2 328.7 244.6 319.6C237.2 310.1 227.3 304.3 216.9 298.7C214.4 297.5 218.3 292.5 219 288.5C219.9 285.1 216.9 278.3 214.6 280.7C206.6 288.8 202.6 299.5 201.7 310.8C200.9 322.1 203.3 333.8 208.4 344C211.7 350.9 216.4 357.4 222.3 363C223.3 364.2 222 367.8 222 370.9C222.2 371.4 221.9 373.5 223.6 372.4C236 364.8 243.6 378.7 247.6 388C251.4 395.4 254 403.6 255 411.9C256.4 420.6 248.1 424 242.7 429.2C242.3 429.8 242.1 430.9 241.8 431.9C240.1 442.3 248.8 450 255.5 457.5C258.8 461.3 263.8 456.2 266.8 458.5C275.6 466.6 263.5 477.8 255.4 481C247.4 484.6 251.2 486.8 250.5 492.9C249.9 498.3 246.3 494.9 240.8 500H267.4C266.3 496 264.8 491.8 266.7 486.8C267.4 484 270 484.4 271.7 483C279.9 476.7 282 465.7 283.8 455.7C285.3 448.8 293.4 446.6 296.2 441.4C299.8 435.8 300.1 430.5 298.6 425.4Z" fill="#7000FF"/>
<path opacity="0.23" d="M229.1 128.7C227.1 126.3 226.8 122.8 226.5 119.8C225.8 118.2 225.3 116.1 223.6 114.8C215.3 109.9 206.9 103.2 206.2 93.3C206.1 92.8 206.1 92.2 206.1 91.6C206.3 82.1 211 74.8 217 68.2C236.5 49.1 261.3 30.1 263.8 0.5H27.2998C14.4998 0.5 3.7998 9.9 1.8998 22.2C6.2998 24.9 9.3998 28.7 8.9998 34.4C9.4998 40.7 7.9998 45.9 6.89981 49.7C6.79981 50 6.5998 50.9 6.4998 51.3C4.8998 51.8 3.2998 52 1.7998 52V54.1C3.9998 55.6 4.3998 58.6 5.3998 60.8C9.4998 68.9 12.2998 77.3 18.6998 84.5C18.8998 84.7 19.0998 84.9 19.1998 85.2C29.1998 97.4 34.7998 110.1 42.7998 123.3C68.2998 165.3 112.4 180.5 156.5 198.2C163.3 201 167.1 209.2 167.3 217.6C167.2 223 163.7 228.2 158.1 229C151.1 230.1 146 233.5 141.3 237.5C136.7 241.5 132.5 246.3 127.4 249.9C116 257.9 101.7 255.5 88.8998 258.9C78.2998 261.5 69.3998 266.4 66.3998 278.8C65.4998 285.5 69.3998 292 66.0998 298.1C60.1998 307.4 44.6998 307.8 43.4998 320.4C44.2998 329.5 52.5998 334.7 51.9998 340.3C51.3998 345.9 42.2998 353.7 42.2998 353.7C42.2998 353.7 41.3998 347.5 33.1998 339.4C24.9998 331.3 21.2998 337.3 19.6998 331.3C18.0998 325.4 21.5998 322.8 13.2998 320.4C9.6998 319.6 5.1998 317.5 1.7998 314.6V326.2C2.3998 326.5 2.7998 327 3.1998 327.8C7.4998 335.5 2.1998 342.5 4.9998 348.4C7.7998 354.2 9.9998 355.8 8.7998 362.8C7.4998 369.9 6.6998 374.7 12.2998 380.6C17.9998 386.5 25.1998 383.9 24.1998 394C23.4998 400.8 10.5998 404.1 1.7998 409.5V433C4.6998 435.2 6.9998 436.5 5.4998 437.6C4.9998 438 3.6998 438.9 1.7998 440.1V455C8.6998 459.9 16.7998 468.2 7.9998 492.4C12.1998 491.9 48.6998 449 23.1998 446.7C26.9998 446.7 33.1998 446.3 39.0998 444.5C49.6998 441.3 58.7998 433.6 49.3998 415.6C44.7998 407.2 39.9998 400.5 49.0998 395.6C58.1998 390.7 61.8998 392.9 61.8998 397C61.8998 400.5 62.0998 403.6 66.2998 402.3C66.9998 402.1 67.8998 401.7 68.8998 401.2C72.5998 399.2 75.4998 395.1 76.8998 391.1C77.9998 387.9 78.1998 384.8 77.0998 383.1C77.0998 383.1 82.8998 381.4 84.4998 374.2C85.0998 371.4 85.0998 367.8 83.7998 363.2C81.3998 354.7 78.7998 353.7 76.7998 354.6C76.6998 354.7 76.4998 354.8 76.3998 354.8C76.1998 354.9 76.0998 355 75.9998 355.1C75.7998 355.2 75.6998 355.4 75.4998 355.5C75.4998 355.5 75.4998 355.4 75.5998 355.4C75.9998 354.7 76.3998 353.8 76.7998 352.9C76.7998 352.9 76.7998 352.9 76.7998 352.8C77.0998 352 77.2998 351.2 77.4998 350.4C77.5998 349.8 77.6998 349.2 77.6998 348.6C77.6998 348.1 77.6998 347.7 77.6998 347.2C77.5998 345.8 77.2998 344.4 76.4998 343C72.6998 335.6 61.8998 336.2 64.6998 326.9C67.4998 317.6 71.2998 321 73.7998 315C76.2998 309.1 72.3998 300.4 72.8998 296.5C72.8998 296.5 81.6998 290.9 85.0998 284.2C85.0998 284.2 95.8998 279 108.5 274.1C121.6 267.8 135.2 266.1 150.2 264.7C154.7 264.2 150.5 255.9 151.9 256.2C160.4 256 168.1 254.6 175.2 252.2C182.3 249.8 188.8 246.4 194.8 242.4C199.6 239 203.9 235.3 208 231.2C213.5 225.7 218.4 219.7 223.1 213.5C232.4 201.2 240.9 188 251.1 176.5C251.5 176.1 251.9 175.6 252.3 175.2C252.7 174.8 253 174.4 253.3 174.1C255.5 167.4 254.1 160.8 250.9 154.5C245.8 145 236.5 136.1 229.1 128.7ZM70.5998 96.4C56.5998 101.1 42.6998 93.6 29.9998 87.3C26.7998 85.9 23.9998 83.9 21.5998 81.5C16.6998 76.6 13.4998 69.9 12.0998 62.7C13.8998 63.1 13.9998 64.9 15.1998 66.1C12.3998 56.7 21.1998 47.7 30.7998 48.7C37.7998 49.5 43.5998 52.7 48.5998 57.1C55.3998 62.9 60.8998 70.8 66.3998 77.8C66.7998 78.3 67.8998 77.2 68.5998 77.7C81.0998 76.8 76.2998 84.3 72.3998 89.7C73.2998 92.3 72.5998 95.9 70.5998 96.4Z" fill="#7000FF"/>
</svg>
