<svg width="305" height="443" viewBox="0 0 305 443" fill="none" xmlns="http://www.w3.org/2000/svg">
<path d="M293.9 395.2C287.4 364.7 256.3 348.7 256.3 348.7L234.9 309.4C223.6 288.6 222.4 263.6 232.1 241.9C232.3 241.5 232.5 241.1 232.7 240.7C242.3 219.9 255.4 195.8 256.2 192L51.9999 186.7C46.2999 217.6 68.8999 237.1 68.8999 237.1C69.2999 237.5 69.1999 238.1 69.4998 238.6C80.5998 255.3 66.0999 289.3 66.8999 291.4C67.6999 293.6 65.1998 300.7 64.5998 304C64.3998 305 67.8999 305.3 67.8999 305.3C74.1999 299.9 151.1 295.2 151.1 295.2C170.5 312.7 154.9 332.4 154.9 332.4C168.1 340.2 178.9 374.7 178.9 374.7C170 392.5 153.6 420.1 142.9 440.8H300C299.9 440.7 300.4 425.7 293.9 395.2Z" fill="#5A5EAF"/>
<path d="M142.9 262.6C149.2 259.9 152.6 257.9 152.6 255.4C152.6 252.9 152.8 247.4 153 247.3C153.2 247.2 165.2 229.8 165.2 229.8C165.2 229.8 153.7 240.8 150.4 246.6C149.9 247.5 148.4 248.9 148.2 249.9C146.7 257.8 148 254.1 146.7 256.9C145.4 259.6 142.9 262.6 142.9 262.6Z" fill="#4F528E"/>
<path d="M107.4 282.7C114.2 279.9 119.5 276.4 119.5 276.4L118.9 269.9C118.9 269.9 125.6 258.5 128.4 253.3C129.1 251.9 133 250 137 248.3L153 236.3L138.2 244.3C135.9 244.3 134.1 244.3 134.1 244.3C139.1 237 155.7 212.1 155.7 212.1C155.7 212.1 139.9 228.8 132 241.8C130.8 243.8 120.9 253.5 120.9 253.5L117 274.4L107.4 282.7Z" fill="#6D0635"/>
<path d="M299.9 440.4C299.9 440.4 300.4 425.7 293.9 395.2C287.4 364.7 256.3 348.7 256.3 348.7L234.9 309.4C223.6 288.6 222.4 263.6 232.1 241.9C232.3 241.5 232.5 241.1 232.7 240.7C242.3 219.9 255.4 195.8 256.2 192" stroke="black" stroke-width="1.4152" stroke-miterlimit="10"/>
<path d="M52.0002 186.7C46.3002 217.6 68.4002 232.8 68.9002 238.6" stroke="black" stroke-width="1.4152" stroke-miterlimit="10"/>
<path d="M154.7 332.4C170.8 345.8 178.7 374.7 178.7 374.7C169.8 392.5 153.4 419.7 142.7 440.4" stroke="black" stroke-width="1.4152" stroke-miterlimit="10"/>
<path d="M294.3 392C294.2 391.7 294.2 391.4 294.1 391.1C294 390.5 293.8 389.9 293.7 389.3C290 372.2 278.7 359.7 269.4 352C269.3 351.9 269.1 351.8 269 351.7C267.8 351.4 266.8 351.2 266.3 349.9C266.3 350.1 266.1 350.1 266.1 350.4C265.4 349.7 264.6 348.9 263.9 348.2C264.1 348.2 264.4 348.2 264.3 348.7C263.8 348.3 263.6 348.2 263.3 348C262.5 347.5 262 346.7 261.4 346.1C261.1 345.8 260.9 345.7 260.9 345.8C260.8 346 261 346.3 261.1 346.5C261.2 346.8 261.3 347 261 346.9C260.7 346.9 260.4 346.8 260.1 346.7C259.5 346.5 259 346.1 258.3 346C258.1 346 258 346.1 257.9 346.1C257.8 346.2 257.7 346.2 257.6 346.2C257.5 346.2 257.4 346.1 257.2 346C256.7 345.5 257.2 344.5 256.8 344.1C256.8 343.9 256.7 343.8 256.7 343.6C256.7 343.4 256.6 343.3 256.5 343.1C256.4 343.1 256.4 343 256.3 343C255.9 342.7 255.9 342.2 255.8 342C255.7 341.8 255.7 341.6 255.6 341.4C254.9 339.6 254.3 337.9 254 336C254 335.9 253.9 335.8 253.9 335.7C253.2 335.2 253.7 332.7 252.2 333.7C252 331.5 252 329.2 251.2 327.2C251.1 327 251.1 326.9 251 326.7C250.5 325.2 250 323.6 249.5 322C249.3 321.4 249.1 320.8 248.9 320.2C248.9 320.1 248.8 319.9 248.8 319.8C248.6 319.5 248.5 319.3 248.4 319C248.1 318.2 248 317.3 247.7 316.5C247.7 316.4 247.6 316.2 247.6 316.1C247.4 315.4 247.2 314.7 246.9 314C246.8 313.7 246.7 313.5 246.7 313.3C245.9 311.8 245.9 310.3 245.3 308.8C245.2 308.5 245.1 308.2 245 308C244.7 307.2 244.2 306.6 244.2 305.5C244.1 305.2 244 304.9 243.9 304.5C243.6 303.5 243.4 302.6 243 301.7C242.9 301.5 242.9 301.3 242.8 301.2C242.1 299.3 241.2 297.5 240.9 295.5C240.9 295.3 240.8 295.1 240.8 295C240.8 294.8 240.7 294.6 240.7 294.4C240.5 294.6 240.5 294.9 240.2 295.1C240 295.3 239.7 295.4 239.4 295.5C238.9 295.7 238.3 295.8 237.8 296.1C237.7 296.2 237.5 296.3 237.4 296.4C236.8 296.9 236.2 297.4 235.6 297.8C235.4 298 235.3 298.3 235.1 298.5C234.9 298.7 234.6 298.8 234.1 298.8C233.8 298.9 233.5 299 233.2 299.2C232.4 299.8 231.6 300.3 230.9 300.9C230.8 301 230.7 301 230.6 301.1C230.3 301.3 230.1 301.5 229.8 301.7C229.6 301.8 229.4 302 229.3 302.1C227.3 302.3 227 304.8 225.1 305C225 305.1 224.8 305.2 224.7 305.3C224.6 305.4 224.4 305.5 224.3 305.6C224.2 305.7 224 305.8 223.9 305.9C222.8 306.9 221.8 307.9 220.6 308.5C220.5 308.6 220.4 308.7 220.3 308.8C219.7 309.2 219 309.5 218.3 309.8C218.1 309.9 218 310 217.8 310.1C216.6 311.3 214.8 312.3 213.3 313.2C213.2 313.3 213.1 313.4 213 313.5C212.6 314 212.3 314.6 211.6 314.8C211.4 314.9 211.1 315.1 210.8 315.3C210.2 315.6 209.6 315.8 209.1 316.1C209 316.2 208.9 316.2 208.8 316.3C207.8 317.5 206.6 318 205.4 318.7C205.3 318.8 205.2 318.8 205.1 318.9C204.9 319 204.7 319.1 204.6 319.3C204.4 319.5 204.3 319.6 204.2 319.8C203.6 320.8 202.1 321.1 201.1 321.8C201 321.9 200.9 322 200.7 322.1C200.6 322.2 200.5 322.3 200.4 322.4C199.3 323.6 197.6 323.9 196.5 324.9C196.3 325 196.1 325.1 196.1 325.2C196.2 325 196.4 325 196.6 325C196.5 325.1 196.3 325.2 196.2 325.3C195.1 326.1 194 326.6 193 327.3C192.9 327.4 192.7 327.5 192.6 327.5C192.5 327.6 192.3 327.7 192.3 327.6C192.5 327.6 192.8 327.6 192.8 327.3C190.3 328.3 189.6 331 187.2 332.5C187.1 332.6 187 332.8 186.9 332.9C186.7 333.3 186.6 333.8 186.7 334.2C186.7 334.3 186.8 334.5 186.8 334.6C186.8 334.8 186.9 334.9 186.9 335.1C186.9 335.4 186.8 335.6 186.6 335.8C185.1 336.3 185.4 337.3 185 338.2C184.9 338.3 184.8 338.4 184.7 338.5C184.3 338.9 183.6 339.2 182.8 339.2C182.7 339.3 182.6 339.5 182.5 339.6C182.1 340.8 182 342 182.6 343.2C182.5 343.3 182.5 343.4 182.3 343.5C182.2 343.3 182.1 343 182 342.8C181.8 342 181.5 341.3 181 340.5C181 340.6 181 340.8 181 341C181 341.2 180.9 341.4 180.8 341.5C180.3 341.7 179.8 341 179.5 340.7C179.4 340.6 179.3 340.5 179.3 340.4C179.2 340.3 179.1 340.1 179.1 340C179 339.9 179 339.8 178.9 339.7C178.6 339.4 178.3 339 177.9 338.8C177.7 338.7 177.5 338.6 177.2 338.5C175.7 338.6 175 339.9 173.8 340.5C173.6 340.7 173.3 340.9 173.1 341.1C172.8 341.3 172.6 341.4 172.3 341.4C172.2 341.4 172.1 341.5 172 341.6C170.6 342.2 169.8 343.9 168.4 344.3C168.3 344.4 168.1 344.4 168 344.5C167.6 344.7 167.2 344.9 166.7 345C166.5 345.1 166.4 345.2 166.2 345.3C166 345.4 165.9 345.5 165.8 345.6C165.1 346.9 163.9 347.4 162.6 347.7C162.5 347.8 162.3 347.9 162.2 348.1C161.4 349 160.8 350 159.4 349.8C159.2 349.9 159 350 158.9 350.1C157.9 350.8 156.9 351.5 155.9 352.1C155.8 352.2 155.7 352.3 155.5 352.4C155.4 352.5 155.3 352.6 155.2 352.7C155.1 352.8 155 352.9 155 353C154.9 353.2 154.6 353.2 154.6 353.8C154.6 353.8 154.7 353.9 154.8 354C154.9 354.1 155.1 354.2 155.2 354.3C155.4 354.4 155.5 354.5 155.7 354.6C156.8 355.3 157.8 355.8 158.7 356.5C158.8 356.6 158.9 356.6 159 356.7C159.4 356.9 159.8 357.2 160.1 357.6C160.5 357.9 160.9 358.1 161.3 358.4C168.8 363.2 178.8 369.5 178.8 369.5C178.7 369.8 178.5 370.1 178.4 370.3C176.7 373.6 174.8 377.4 172.6 381.6C169.8 387.1 166.6 393.1 163.4 399.3C163.2 399.8 162.9 400.2 162.7 400.7C155.3 414.8 147 430.1 141.2 441.3L298.6 440.9C298.5 440.3 300.2 421.1 294.3 392Z" fill="black" stroke="black" stroke-width="1.4152" stroke-miterlimit="10" stroke-linejoin="bevel"/>
<path d="M213.6 394.7C214.7 398.5 215.3 402.3 215.6 406.2C215.8 410.1 215.6 414 215.3 417.9C214.9 421.8 214.2 425.6 213.4 429.4C212.6 433.2 211.6 437 210.3 440.7L209 440.2C210.3 436.6 211.3 432.9 212.2 429.1C213.1 425.3 213.7 421.6 214.2 417.7C214.6 413.9 214.8 410 214.7 406.2C214.5 402.4 214 398.6 212.9 394.9L213.6 394.7Z" fill="black"/>
<path d="M256.2 342.9C256.1 342.4 255.7 341.9 255.3 341.5C254.9 341.1 254.4 340.8 253.9 340.6L253.5 340.3L253.1 340.2C252.7 340.2 252.4 340 252.1 339.9C251.8 339.8 251.5 339.8 251.2 339.9H251.1C248.3 339.7 245.4 340.3 242.7 340.9C239.9 341.6 237.2 342.5 234.5 343.5C229.1 345.5 223.9 347.7 218.7 350.2C213.5 352.6 208.4 355.2 203.2 357.8L187.9 365.7C192.8 362.6 197.7 359.7 202.7 356.9C207.7 354.1 212.8 351.4 218.1 349C223.3 346.5 228.6 344.3 234.1 342.4C236.8 341.5 239.6 340.7 242.5 340.1C245.3 339.5 248.3 339.1 251.2 339.5H251.1C251.5 339.4 251.9 339.5 252.3 339.6C252.6 339.7 252.9 339.9 253.2 339.9L253.6 340.1L254 340.4C254.5 340.7 255 341 255.4 341.4C255.8 341.8 256.1 342.3 256.2 342.9Z" fill="black"/>
<path d="M299.8 440.7H142.7C142.7 440.6 142.8 440.5 142.8 440.4C142.8 440.4 142.8 440.3 142.9 440.3C148.7 429.1 156.1 414.2 163.1 400.2C163.3 399.7 163.6 399.2 163.8 398.7C166.9 392.5 169.9 386.4 172.6 381C174.7 376.8 176.6 373 178.2 369.6C178.3 369.3 178.5 369 178.6 368.8C178.6 368.8 168.5 362.5 161.1 357.7C160.7 357.4 160.3 357.2 159.9 356.9C159.6 356.5 159.2 356.2 158.8 356C158.7 355.9 158.6 355.9 158.5 355.8C157.6 355.1 156.6 354.6 155.5 353.9C155.3 353.8 155.2 353.7 155 353.6C154.8 353.5 154.7 353.4 154.6 353.3C154.5 353.2 154.4 353.1 154.4 353.1C154.4 352.5 154.6 352.5 154.8 352.3C154.8 352.2 154.9 352.1 155 352C155.1 351.9 155.2 351.8 155.3 351.7C155.4 351.6 155.5 351.5 155.7 351.4C156.7 350.8 157.8 350.1 158.7 349.4C158.9 349.3 159 349.2 159.2 349.1C160.5 349.4 161.2 348.4 162 347.4C162.1 347.3 162.3 347.1 162.4 347C163.6 346.7 164.9 346.2 165.6 344.9C165.7 344.8 165.9 344.7 166 344.6C166.2 344.5 166.3 344.4 166.5 344.3C167 344.2 167.5 344 167.9 343.8C168 343.7 168.2 343.7 168.3 343.6C169.9 343.2 170.4 341.5 171.8 340.9C171.9 340.8 172 340.8 172.1 340.7C172.7 340.6 173.1 340.2 173.6 339.8C173.8 339.6 174 339.4 174.3 339.2C175.3 339 175.8 338 176.8 338C177 338 177.1 338.1 177.3 338.2C177.7 338.6 178 339 178.3 339.4C178.4 339.5 178.5 339.6 178.6 339.8C178.7 340 178.9 340.1 179 340.2C179.1 340.3 179.3 340.3 179.4 340.2C179.8 340.2 180.2 340.2 180.6 340.3C181 340.4 181.2 340.6 181.4 340.8C181.6 341.3 181.9 342 182.2 342.6C182.3 342.9 182.3 343.3 182.3 343.6C182.3 343.7 182.3 343.8 182.3 344C182.4 343.8 182.6 343.5 182.6 343.2C181.7 341.8 181.9 340.3 182.5 338.9C182.6 338.8 182.7 338.7 182.9 338.6C183.6 338.4 184.3 338.1 184.7 337.7C184.8 337.6 184.9 337.5 185 337.4C185.3 336.7 185.6 336.2 185.3 335.4C185.8 335.4 186.5 335.6 186.8 335.2C186.9 335 186.9 334.9 186.9 334.7C186.9 334.5 186.9 334.4 186.9 334.2C186.9 334.1 186.9 333.9 186.9 333.8C186.7 333.3 186.8 332.9 186.9 332.5C187 332.4 187 332.2 187.1 332.1C189.2 330.5 190.5 328 192.7 326.5C192.5 326.7 192.5 326.7 192.2 327C192.3 326.9 192.4 326.9 192.6 326.8C192.7 326.7 192.9 326.6 193 326.5C193.9 325.9 195.1 325.4 196 324.7C196.1 324.6 196.2 324.5 196.4 324.3C196.3 324.4 196.2 324.4 196.1 324.5C196.2 324.4 196.3 324.4 196.4 324.3C197.5 323.2 199 322.7 200.2 321.8C200.3 321.7 200.4 321.7 200.6 321.5C200.7 321.4 200.9 321.3 201 321.3C202.2 320.8 203.5 320.3 204.2 319.2C204.3 319.1 204.4 319 204.6 318.8C204.7 318.7 204.8 318.7 204.9 318.6C205 318.5 205.1 318.5 205.2 318.4C206.6 317.8 207.8 317.1 208.9 315.8C209 315.7 209.1 315.7 209.2 315.6C209.8 315.4 210.3 315.1 210.8 314.7C211.1 314.5 211.3 314.3 211.5 314.2C212 313.9 212.5 313.6 213 313.2C213.1 313.1 213.2 313 213.4 312.9C214.8 311.6 216.5 310.9 217.8 309.6C218 309.5 218.1 309.4 218.3 309.3C218.9 309 219.6 308.8 220.2 308.3C220.3 308.2 220.4 308.1 220.6 308C221.5 307.1 222.8 306.3 223.9 305.4C224 305.3 224.2 305.2 224.3 305.1C224.4 305 224.6 304.9 224.7 304.8C224.8 304.7 225 304.6 225.1 304.5C227.1 304.3 227.3 301.8 229.3 301.6C229.5 301.5 229.7 301.3 229.8 301.2C230.1 301 230.3 300.8 230.6 300.6C230.7 300.6 230.8 300.5 230.9 300.4C231.7 299.8 232.4 299.2 233.2 298.7C233.5 298.5 233.7 298.3 234.1 298.3C234.5 298.4 234.8 298.2 235.1 298C235.3 297.8 235.5 297.5 235.6 297.3C236.3 296.9 236.8 296.4 237.4 295.9C237.5 295.8 237.7 295.7 237.8 295.6C238.3 295.4 238.9 295.3 239.4 295.1C239.7 295 239.9 294.9 240.1 294.7C240.4 294.5 240.4 294.2 240.6 294C240.6 294.2 240.7 294.4 240.7 294.6C240.7 294.8 240.8 295 240.8 295.1C241.2 297.1 242 298.9 242.7 300.8C242.8 301 242.8 301.2 242.9 301.3C243.3 302.2 243.6 303.1 243.8 304.1C243.9 304.4 244 304.7 244.1 305.1C244.1 306.1 244.5 306.8 244.9 307.6C245 307.9 245.1 308.1 245.2 308.4C245.9 310 245.9 311.5 246.6 312.9C246.7 313.1 246.8 313.4 246.8 313.6C247 314.3 247.2 315 247.5 315.7C247.5 315.8 247.6 316 247.6 316.1C247.9 316.9 248 317.8 248.3 318.6C248.4 318.9 248.5 319.2 248.7 319.4C248.7 319.5 248.8 319.7 248.8 319.8C249 320.4 249.2 321 249.4 321.6C249.9 323.2 250.4 324.8 250.9 326.3C251 326.5 251 326.6 251.1 326.8C251.8 328.8 251.6 331.3 252.3 333.3C252.3 333.5 252.5 332.6 252.8 332.8C253.5 333.5 253 334.5 253.7 335.3C253.7 335.4 253.8 335.5 253.8 335.6C254.2 337.4 254.8 339.1 255.4 341C255.5 341.2 255.5 341.4 255.6 341.6C255.7 341.9 255.7 342.4 256.1 342.6C256.1 342.6 256.2 342.7 256.3 342.7C256.4 342.8 256.4 342.9 256.5 343.1C256.5 343.2 256.6 343.4 256.6 343.5C256.5 344.4 256.5 345.3 257.3 345.6C257.4 345.6 257.5 345.6 257.6 345.6C257.7 345.6 257.8 345.6 258 345.6C258.8 345.8 259.4 346.6 260.2 346.8C260.5 346.8 260.7 346.8 261.1 346.7C260.9 346.5 260.8 346.3 260.8 346.1C260.8 345.9 260.7 345.7 260.7 345.5C260.7 345.4 260.9 345.5 261.2 345.8C261.8 346.5 262.4 347.2 263 347.6C263.2 347.7 263.5 347.9 263.7 347.9C264.2 348.1 264.4 348.4 264.7 348.9C264.5 348.4 264 348.2 263.7 347.7C264.4 348.7 265.2 349.4 265.9 350.2C265.9 350 266.1 350 266.1 349.7C266.6 350.7 267.3 350.9 268.4 351.2C268.5 351.3 268.7 351.4 268.8 351.5C278.2 359.2 289.8 371.8 293.5 389.2C293.6 389.8 293.8 390.4 293.9 391C294 391.3 294 391.6 294.1 391.9C300.3 421.1 299.8 440.7 299.8 440.7Z" stroke="black" stroke-width="1.4152" stroke-miterlimit="10" stroke-linejoin="bevel"/>
<path d="M162.3 371L158.7 374.6L154.3 379L146.3 371C146.3 371 148.5 368.8 150.6 366.7C150.7 366.6 150.8 366.5 150.9 366.4C151.7 365.2 153.4 364.4 152.9 362.7C153.9 363.4 155.1 363.9 156 364.7C156.2 364.9 156.3 365 156.5 365.2C158.9 367.6 162.3 371 162.3 371Z" fill="black"/>
<path d="M155.8 362.9C155.8 362.9 155.7 362.9 155.5 362.9C155.2 362.9 155.1 362.9 155 362.9C154.3 362.9 153.1 363.2 152.8 362.7C152.3 362.2 152.6 361.2 152.6 360.1C152.6 359.8 152.6 359.6 152.6 359.3C152.6 356.8 152.6 354 152.6 354C152.6 354 152.8 354 153.1 354C153.3 354 153.8 354 154 354.2C154.1 354.2 154.3 354.3 154.4 354.3C154.7 354.3 155 354.4 155.2 354.4C155.3 354.4 155.5 354.4 155.6 354.4C155.8 354.3 156 354.3 156.1 354.3C156.3 354.3 156.5 354.3 156.7 354.3C156.6 354.4 156.4 354.5 156.3 354.7C156.2 354.9 156.1 355 156 355.3C155.9 355.5 155.9 355.6 155.8 355.8C155.7 356.3 155.6 356.8 155.6 357.3C155.6 357.4 155.6 357.6 155.6 357.7C155.8 360.1 155.8 362.9 155.8 362.9Z" fill="black"/>
<path d="M154.2 379L146.2 371L147.6 369.6L158.6 374.6L154.2 379Z" fill="#606060"/>
<path d="M200.1 399.8C201.2 399.8 202.4 400.2 203.3 400.9C202.8 400.9 202.3 400.9 201.9 401.1C201.5 401.3 201 401.4 200.7 401.9C199.8 402.8 198.3 403.5 197.2 404.6C196.8 405 196.5 405.4 196.3 405.9C192.6 406.6 189.2 404.5 186.9 408.1C186.4 408.3 185.9 408.6 185.2 408.8C181.8 408.9 178 404.8 176.7 407.8C175.8 409.8 177.1 411.3 178.5 412.9C179.2 413.7 180 414.6 180.4 415.6C178.3 421.6 173.1 414.5 169.4 417.6C170.9 419.6 174.4 420.9 175.2 423.7C175.2 424.7 175 425.9 174 427.3C171.5 429.3 169.3 430 167.1 430.8C167.6 432.8 169.1 434.7 169.6 436.7C169.3 437.6 168.8 438.2 167.9 438.7C166.4 439.1 164.9 439.2 163.5 439.3C162 439.3 160.6 439.3 159 439.2C157.9 440.1 156.9 439.3 156 438.9C155.5 438.7 155.1 438.6 154.7 438.9C154.2 439 153.7 439.4 153 439.9C152.9 440 152.7 440.1 152.5 440.3C152.3 440.5 152.1 440.6 151.8 440.9C150.4 441 149 440.4 147.5 440.3C147.4 440.3 147.2 440.3 147.1 440.3C146.3 440.1 145.5 440 144.6 440H144.5C144.5 440 144.5 439.9 144.6 439.9H143C148.8 428.7 156.7 413.8 164.1 399.6C164.3 399.6 164.5 399.7 164.7 399.7C168.1 400.5 171.6 401.1 175.2 401.2C175.6 401.2 176 401.2 176.4 401.2C181.2 401 185.4 403.3 189.9 402.6C190.4 402.3 190.8 402.1 191.3 401.9C193.7 401.1 196.1 401.4 198.4 400C199 399.8 199.5 399.8 200.1 399.8Z" fill="#161616"/>
<path d="M298.7 440.7H235.5C235.6 440.6 235.7 440.4 235.8 440.3C235.9 440.2 236.1 440 236.2 439.9C236.4 439.5 236.6 439.2 236.6 438.9C236.9 437.6 237.9 437.3 238.9 437.1C239.9 436.8 240.9 436.6 241.5 435.5C242.2 434.9 243 434.3 243.9 433.8C244.3 433.5 244.7 433.2 245.1 432.9C247.8 430.7 250.8 429.4 253.8 427.4C254.6 427.2 255.3 426.9 256 426.6C256.9 426.4 257.8 426.1 258.6 425.7C259.5 425.4 260.3 425 261.2 424.6C262.1 424.3 262.9 423.9 263.8 423.5C264.7 423.1 265.5 422.6 266.4 422.1C273.2 418.6 280.9 419.7 288.3 418C289.2 417.9 290.1 417.7 291.1 417.5C292.4 417.5 293.2 417 293.2 415.3C292.3 415.6 291.4 415.9 290.5 416.1C289.6 416.3 288.7 416.5 287.8 416.7C277.9 418 268.1 418.5 258.9 422.3C258.5 422.5 258.1 422.6 257.8 422.8C253.5 425 248.7 424.6 244.9 427.1C244.6 427.6 244.3 427.9 243.9 428.3C242.1 430 239.7 430.7 238.2 433C237.8 433.4 237.3 433.7 236.8 433.9C235.8 434.3 234.6 434.4 233.5 434.2C233.9 434 234.4 433.8 234.7 433.5C235.1 433.2 235.3 432.8 235.5 432.3C235.9 431.1 237 429.9 237.5 428.3C237.7 427.8 237.8 427.3 237.8 426.7C240.9 424.6 244.8 425 245.4 420.8C245.7 420.4 246.1 419.9 246.6 419.5C249.7 418 254.8 420.1 254.8 416.9C254.8 414.7 253 413.9 251 413C250 412.5 249 412.1 248.1 411.4C247.5 405 255.2 409.3 257.3 405C255.1 403.8 251.4 404.1 249.5 401.9C249.1 401 248.8 399.8 249.1 398.1C250.5 395.3 252.2 393.6 253.9 392C252.6 390.4 250.5 389.3 249.2 387.7C249.1 386.8 249.3 386 249.9 385.1C251.1 384.1 252.4 383.4 253.7 382.7C255 382.1 256.3 381.5 257.8 380.9C258.4 379.6 259.7 380 260.7 379.9C261.2 379.9 261.6 379.8 261.9 379.3C262.5 378.8 262.9 377.9 263.6 376.4C265 375.6 266.7 375.6 268.1 374.9C268.9 374.7 269.7 374.5 270.5 374.1C271.3 373.7 272 373.2 272.6 372.4C270 371.3 267.1 371.3 264.1 370.8C263.4 370.7 262.6 370.5 261.9 370.3C260.5 369.8 259.2 369 258 367.6C258.9 367.1 259.3 366.5 260 366.7C260.9 366.4 261.8 366.2 262.7 365.9C261.4 363.7 259.3 365.4 257.4 364.6C256.6 364.6 255.7 364.6 254.9 364.5C250.8 364.3 246.7 363.9 242.8 361.4C242.5 360.6 242.2 359.9 242 359.2C241.8 358.2 241.8 357.4 242 356.6C243.4 352.3 247.2 351.3 249.4 348C246.8 346.4 243.9 346.4 240.9 345.3C240.3 345 239.7 344.6 239.1 344C239.1 343.1 239.3 342.3 239.6 341.6C240.9 338.9 244.2 338 244.2 335C244.2 333.4 240.8 332.3 242.3 329C242.4 328.4 242.8 327.6 243.1 326.7C244.8 321.1 238.2 316.9 234.1 312C233.4 311.2 232.8 310.4 232.2 309.5C231.4 308.8 230.7 308.3 230 307.9C229.3 306.8 227.6 307.9 226.8 306.8C226.4 305.8 226.6 304.8 227 304C227.1 303.9 227.2 303.9 227.3 303.8C232.2 300.4 236.4 297.5 239.8 295.3C239.9 295.2 240.1 295.1 240.2 295L255.2 342.5C255.4 342.9 255.4 343.3 255.4 343.3C255.4 343.3 286 359.1 292.4 389.3C292.5 389.9 292.7 390.5 292.8 391.1C299.2 420.9 298.7 440.7 298.7 440.7Z" fill="#161616"/>
<path d="M92 165.3C92 165.3 125 118 140.1 112C95.8 110.7 88.5 163.4 88.5 163.4" fill="#4F528E"/>
<path opacity="0.43" d="M226.7 308.8C228.1 313.3 227.4 314.6 227.4 314.6L229.4 320.1L227.5 323.7L226 326C226 326 224.1 327.2 225.2 329C226.3 330.8 226.3 330.8 226.3 330.8C226.3 330.8 227.2 329.2 226 332.3C224.8 335.5 225.7 329.4 224.9 334.6C224 339.8 224.8 335.5 224.8 335.5C224.8 335.5 224.8 332.8 224.5 339.1C224.2 345.5 225.3 335.9 223.8 342.7C222.3 349.5 224.1 345.4 224.1 345.4L223.2 348L217.9 349.4C217.9 349.4 219.2 350.4 222.2 352.8C225.3 355.2 212 354 212 354C212 354 216.1 358.3 225.2 355.2L222.3 360.7L232 359.1L240.6 364.7L245.1 365.1V366.6H249L246.8 361.3L240.9 358L237.2 356.3L235.9 358.7L228.8 353.4L224.8 351.4L223.6 350.6C223.6 350.6 224.3 349.3 225.2 346.7C226.2 344.1 225.9 345.7 226.2 344.1C226.5 342.6 225.7 348.2 226.5 342.6C227.4 337 224.4 344.2 227.3 338.6C230.2 333 226.2 339.3 228.3 335.1C230.4 330.9 230.4 330.9 230.4 330.9C230.4 330.9 230.2 332 230 329C229.8 326 229.8 326.9 229.8 326.9V326.1L231.3 322.6L231.6 319.3L230.8 316.6C230.8 316.6 229.9 319.2 229.5 314.5C229.1 309.8 229.4 312.3 229.1 309.8C228.8 307.3 229.2 308.7 228.8 307.3C228.4 305.9 227.8 307.4 228.4 305.9C228.9 304.7 230.1 302.5 230.1 302.5L227.2 304.8" fill="white"/>
<path opacity="0.43" d="M264.7 437.2C264.6 438.1 264.5 439.3 264.4 440.9H272.4C277.7 433.4 271.2 440.5 273 437.4C273.3 437 273.7 436.3 274.3 435.4C275.4 434.5 275.4 432.5 276.9 431.7C277 431.5 277.2 431.3 277.3 431.1C277.5 430.9 277.6 430.7 277.7 430.5C278.6 430 279.2 428.6 279.1 427.4C279.1 427.2 279 426.9 279 426.7C278.8 426.3 278.7 426 278.7 425.6C278.7 425.2 278.6 424.8 278.6 424.4C278.6 423.9 278.5 423.5 278.5 423.2C278.4 422.2 278.3 421.6 278.2 421.1C278.1 420.7 278.1 420.5 278.1 420.4C278 420.2 278 420.6 278 420.6C278 420.6 278 420.2 278 419.8C278 419.4 278 419 278 419L282 412.6L282.9 406.5L282.7 406.1C282.1 404.6 280.7 403.5 279.2 402.8C278.6 402.5 277.9 401.3 277.4 397.7C276.3 389.1 277.1 393.7 276.3 389.1C275.5 384.5 276.6 387.1 275.4 384.5C274.3 381.9 277.4 383.9 274.3 381.9C271.2 379.9 274.2 378.5 274.5 373.3C274.9 368.1 272 372.7 271.1 379.9C270.2 387.1 270.2 387.1 270.2 387.1C274 395.3 272 397.7 272 397.7L277.1 407.7L272.2 414.3C272.2 414.3 270.9 415.7 269.7 416.8C269.5 417 269.4 417.2 269.2 417.4C268.5 419.2 266.8 419.4 265.6 420.5C265.6 420.8 265.6 421.1 265.6 421.4C265.6 422.3 265.7 423.3 266 424.3C265.7 424.6 265.9 424.7 266.2 424.8C266.5 424.9 266.8 425.1 266.6 425.5C266.2 426.2 266.2 426.7 266.6 427C267.3 427.6 268.9 427.4 269.6 428.3C269.4 428.7 269.2 429 268.9 429.4C268.6 429.7 268.3 430 267.9 430.4C267.6 430.6 267.3 430.9 267 431.2C266.8 431.4 266.6 431.6 266.2 431.6C264.9 431.4 264.4 432.1 263.7 432.9C263.9 432.2 264.2 431.7 265 431.8C265.3 431.8 265.4 431.6 265.6 431.5C265.8 431.3 266 431.1 266.2 430.9C266.3 430.7 266.4 430.5 266.4 430.3C266.3 430.5 266.1 430.8 265.9 431C265.4 431.4 265.2 431.5 265 431.7C264.6 431.7 263.8 431.7 263.6 432.2C263.1 433.2 264.3 433.7 265.1 433.9C265.1 434.4 266.3 434.9 264.9 435.2C264.9 435.4 264.9 435.6 264.8 435.8C264.7 436 264.7 436.3 264.7 436.6C264 440 264.4 438.6 264.7 437.2Z" fill="white"/>
<path d="M82.4004 258.9C85.2004 258 88.1004 256.9 89.5004 254.3C91.6004 250 91.6004 245.201 94.3004 241.101C94.7004 240.501 95.2004 239.801 95.6004 239.101C97.9004 235.601 100.5 231.8 100.5 231.8C100.5 231.8 92.7004 229.101 89.9004 233.701C89.7004 234.001 88.4004 233.501 87.1004 233.001C85.8004 232.501 84.6004 232 84.5004 232.4C82.4004 239.8 85.6004 247.201 85.9004 254.701C85.9004 255.401 84.7004 256.001 84.1004 256.701C83.3004 257.801 82.4004 258.9 82.4004 258.9Z" fill="#4F528E"/>
<path d="M89.9998 252.3C90.3998 251.7 97.8998 240 108.1 243C115.7 245.2 116.8 238.4 118.5 231.3C119.1 228.9 140.5 223.2 140.5 223.2L116.4 226.9C106.2 234.9 94.8998 243.8 93.9998 244.2C92.6998 244.8 91.4998 243.2 91.3998 243.6C89.1998 251.1 87.2998 256.4 89.9998 252.3Z" fill="#4F528E"/>
<path d="M114.4 228.401C113.8 231.801 94.5002 241.301 94.2002 243.501L91.9002 244.601L91.3002 245.001L86.7002 231.801C86.7002 231.701 105.8 227.701 114.4 228.401Z" fill="#6D0635"/>
<path d="M96.7 257L90.5 246.1L116.9 227.6" stroke="black" stroke-width="1.4152" stroke-miterlimit="10"/>
<path d="M86.7002 231.7C87.1002 235.7 89.7002 241.5 91.3002 244.9" stroke="black" stroke-width="1.4152" stroke-miterlimit="10"/>
<path d="M81.5002 222.3C80.6002 230.4 83.9002 233 83.9002 233C83.9002 233 90.3003 228.4 116.8 227.6" stroke="black" stroke-width="1.4152" stroke-miterlimit="10"/>
<path d="M52.8003 272.6C52.8003 272.6 50.5003 276.3 52.1003 278.3C53.2003 279.6 58.0003 283.3 61.0003 285.5C61.5003 285.8 67.7003 290.9 68.4003 291.4C68.4003 291.4 90.0003 261.1 69.5003 238.6C69.8003 239.5 68.9003 240.2 68.9003 240.9C65.4003 257 52.8003 272.6 52.8003 272.6Z" fill="#5A5EAF"/>
<path d="M55.2998 269.8C58.7998 265.9 64.8998 262.4 67.2998 262.6C67.4998 261.8 63.4998 260.8 63.7998 259.9C63.9998 259.2 67.1998 257.6 67.2998 256.9C67.4998 256.3 72.3998 253.7 74.0998 252.4C74.1998 252.1 74.2998 251.9 74.4998 251.6C73.1998 251.2 65.9998 253 65.6998 252.3C61.3998 258.3 56.3998 266 55.2998 269.8Z" fill="#6D0635"/>
<path d="M67.7006 281.2C70.1006 285.4 70.3006 294.4 66.9006 291.4C63.5006 288.4 51.6006 277.1 51.6006 277.1C51.6006 277.1 66.3006 278.7 67.7006 281.2Z" fill="#4F528E"/>
<path d="M51.6006 277.1C59.7006 275.2 67.7006 281.2 67.7006 281.2" stroke="black" stroke-width="1.4152" stroke-miterlimit="10"/>
<path d="M68.9003 238.6C69.7003 248.5 52.8003 272.5 52.8003 272.5C52.8003 272.5 50.5003 276.2 52.1003 278.2C53.2003 279.5 58.0003 283.2 61.0003 285.4C62.7003 286.6 66.1003 289.2 66.9003 291.3C67.7003 293.5 65.2003 300.6 64.6003 303.9" stroke="black" stroke-width="1.4152" stroke-miterlimit="10"/>
<path d="M255.901 193L51.8008 187.7C51.9008 187.4 51.9008 187.1 52.0008 186.7C59.0008 148.6 71.7008 112.1 92.9008 99.2003C120.501 82.4003 180.201 95.5003 218.501 102C236.901 105.2 258.301 181.3 256.201 192C256.101 192.3 256.001 192.6 255.901 193Z" fill="#5A5EAF"/>
<path d="M136.101 198.8C145.401 194.9 145.501 193.9 145.801 189.9C146.101 185.9 152.201 174.9 152.401 174.7C152.601 174.5 168.901 149.7 168.901 149.7C168.901 149.7 158.201 161.3 152.801 170.3C152.001 171.7 145.601 176.7 145.201 178.4C142.101 191.2 144.501 185.3 142.301 189.7C140.101 194.2 136.101 198.8 136.101 198.8Z" fill="#4F528E"/>
<path d="M89.8011 153.9L73.8011 154.4L71.9011 156.6L69.0011 157.7L67.6011 159.9C72.7011 162.4 61.7011 171.1 63.6011 171.1C67.3011 171.1 73.9011 168.1 73.9011 168.1C73.9011 168.1 74.4011 163.5 75.9011 159.5C76.8011 157 93.5011 155.8 93.5011 155.8L89.8011 153.9Z" fill="#4F528E"/>
<path d="M51.8008 187.7C51.9008 187.4 51.9008 187.1 52.0008 186.7C59.0008 148.6 71.7008 112.1 92.9008 99.2003C120.501 82.4003 180.201 95.5003 218.501 102C236.901 105.2 258.301 181.3 256.201 192C256.201 192.2 256.001 192.6 255.901 193" stroke="black" stroke-width="1.4152" stroke-miterlimit="10"/>
<path d="M166.101 280.3C177.101 320.5 166.101 343 166.101 343C166.101 343 167.601 344.2 157.701 334.2C146.001 322.4 137.801 325.6 137.801 325.6L149.401 310.3L166.101 280.3Z" fill="#4F528E"/>
<path d="M66.2008 323.1C61.8008 333.1 59.3008 347.1 59.3008 347.1L74.0008 344.701L79.1008 350L81.9008 347.201L84.4008 350L85.7008 352.5L100.401 341.3L109.001 324.5L99.0008 311.201L85.0008 300.5C85.0008 300.5 73.7008 306.1 66.2008 323.1Z" fill="#5A5EAF" stroke="black" stroke-width="1.5153" stroke-miterlimit="10" stroke-linejoin="bevel"/>
<path d="M93.9008 341.8C94.8008 335.7 95.7008 330.3 96.5008 328.1C96.9008 327.2 96.6008 323 96.2008 318.3L75.1008 307.3C73.1008 313 72.0008 317.1 70.5008 321.1C68.2008 327.3 67.0008 330.5 66.1008 333.8L66.2008 333.9C66.3008 335.5 69.6008 328.5 71.9008 323.8C73.0008 321.4 73.9008 319.6 74.0008 319.7C73.7008 320.4 73.1008 322.7 72.4008 325C71.9008 326.9 71.4008 328.7 71.2008 329.3C71.2008 328.1 68.5008 332.7 68.1008 333.9C67.1008 337.1 68.4008 335.6 68.0008 336.5C66.7008 339.7 65.4008 342.4 64.0008 345.4C64.0008 345.5 63.9008 345.6 63.9008 345.6C63.3008 349.9 62.9008 353.8 62.8008 357.2C64.2008 356.1 65.2008 355.6 64.8008 357.7C64.3008 359.9 63.7008 362.2 63.2008 364.6C63.1008 364.9 63.1008 365.1 63.0008 365.4C63.1008 366.8 63.2008 368.1 63.4008 369.3C63.7008 372.2 64.2008 374.8 64.7008 377.1L66.8008 372C66.8008 372 67.9008 369.3 69.0008 366.3C69.9008 364 71.8008 369.8 72.3008 368.2C72.5008 367.6 70.7008 350.5 76.1008 357.2C76.4008 357.6 76.8008 358.1 77.2008 358.7C76.7008 360 76.4008 361.6 76.3008 363.5C76.1008 370 82.1008 366.5 84.4008 372.5C85.2008 374.6 87.3008 373.7 87.3008 373.7L98.8008 383.9C98.8008 383.9 95.0008 372.8 95.3008 371.5C96.0008 368.9 90.1008 367.7 91.1008 365.6C91.2008 362.8 92.5008 351.4 93.9008 341.8Z" fill="#3F021E" stroke="#070707" stroke-width="1.4152" stroke-miterlimit="10"/>
<path d="M93.901 341.7C94.801 335.7 95.701 330.3 96.501 328C96.901 327.1 96.601 322.9 96.201 318.2L89.301 314.6C88.901 315 88.501 315.3 88.101 315.7C85.401 323.7 83.101 332.8 80.901 342.5V342.6C79.301 349.3 75.201 368.1 73.501 375.2L76.801 376L80.201 371.5C80.201 371.5 81.401 374.9 81.901 376.4C85.701 363.8 88.701 357.3 93.901 341.7C93.901 341.8 93.901 341.8 93.901 341.7Z" fill="#F2DFC0"/>
<path d="M93.901 341.7C94.801 335.7 95.701 330.3 96.501 328C96.901 327.1 96.601 322.9 96.201 318.2L89.301 314.6C88.901 315 88.501 315.3 88.101 315.7C85.401 323.7 83.101 332.8 80.901 342.5V342.6C79.301 349.3 75.201 368.1 73.501 375.2L76.801 376L80.201 371.5C80.201 371.5 81.401 374.9 81.901 376.4C85.701 363.8 88.701 357.3 93.901 341.7ZM93.901 341.7C93.901 341.8 93.901 341.8 93.901 341.7Z" stroke="#070707" stroke-width="1.4152" stroke-miterlimit="10"/>
<path d="M75.9009 357.2C77.5009 352.5 79.2009 347.6 80.9009 342.7C80.9009 342.6 80.9009 342.6 81.0009 342.5C84.1009 333.5 87.4009 324.4 90.8009 315.4L80.6009 310.1C74.1009 329.1 65.5009 358.6 72.2009 368.2C72.1009 368.2 70.5009 350.5 75.9009 357.2Z" fill="#F2DFC0" stroke="#070707" stroke-width="1.4152" stroke-miterlimit="10"/>
<path d="M101.801 343.8C102.301 340.7 99.901 336.5 102.101 333.9C101.101 333.6 99.701 331.2 100.601 329.1C99.601 327.5 98.201 324 97.201 318.8L95.401 317.9C95.101 327.6 94.501 340.3 94.001 340.6C94.501 345.2 94.301 350.8 93.501 355.7C96.601 346.2 99.001 346.3 101.801 343.8Z" fill="#7C031D" stroke="#070707" stroke-width="1.4152" stroke-miterlimit="10"/>
<path d="M93.5004 355.6C92.7004 358.1 91.8004 361.4 90.9004 365.5C92.0004 363.1 92.9004 359.5 93.5004 355.6Z" fill="#7C031D" stroke="#070707" stroke-width="1.4152" stroke-miterlimit="10"/>
<path d="M72.2004 305.8C72.4004 309.9 71.9004 316.2 69.9004 324.4C70.2004 323.5 72.8004 314.8 75.1004 307.3L72.2004 305.8Z" fill="#7C031D" stroke="#070707" stroke-width="1.4152" stroke-miterlimit="10" stroke-linejoin="bevel"/>
<path d="M80.1012 309.9L79.7012 309.7C78.9012 311.5 78.0012 313.5 77.2012 315.5C78.1012 314.1 79.1012 312.3 80.1012 309.9Z" fill="#7C031D" stroke="#070707" stroke-width="1.4152" stroke-miterlimit="10" stroke-linejoin="bevel"/>
<path d="M79.7012 314.3C75.9012 320.5 71.5012 319.8 68.6012 321.7C67.6012 324.7 69.3012 329.2 66.7012 331.4C67.7012 331.9 68.7012 334.4 67.4012 336.4C68.6012 339.3 69.8012 347 68.7012 358.9C69.0012 357.2 73.6012 333.3 73.9012 331.8C73.2012 330.6 77.2012 320.7 79.7012 314.3Z" fill="#7C031D" stroke="#070707" stroke-width="1.4152" stroke-miterlimit="10" stroke-linejoin="bevel"/>
<path d="M76.501 321.9C79.501 321.8 79.401 325.7 79.201 327C78.401 331 82.101 329.4 80.801 327.1C79.801 325.3 80.101 322.4 81.201 321.9C82.401 321.4 83.001 323.3 83.001 326.1C83.101 329.6 81.801 335.8 83.901 336C86.001 336.2 85.501 331.1 84.201 327.9C82.901 324.7 87.401 317.4 87.401 317.4L76.501 321.9Z" fill="#7C031D"/>
<path d="M139.101 398.6C142.001 404 147.001 413.5 147.701 415.8C147.901 416.8 150.301 418.8 153.401 422.5L156.201 420.6C156.301 420.1 156.401 419.5 156.501 419C153.901 410.9 149.801 405.3 145.901 396.2C143.601 399.3 146.501 393.1 146.501 393C143.801 386.7 140.901 380.1 138.001 373.4C134.301 368 127.101 361.9 121.701 358.3C126.201 370.7 131.501 385.8 136.401 401.4C136.501 401.3 135.601 396.7 139.101 398.6Z" fill="#F2DFC0" stroke="#070707" stroke-width="1.4152" stroke-miterlimit="10"/>
<path d="M142.501 403.8C147.501 405.4 145.101 412.1 144.701 413.3C143.401 417.2 148.701 416.4 147.101 413.9C145.701 411.9 146.101 409 147.701 409C149.201 409 149.901 411 150.001 413.5C150.101 416.6 148.501 422.2 151.101 422.4C153.401 422.5 152.801 418.3 151.401 415.4C149.901 412.3 148.801 403.8 148.801 403.8H142.501Z" fill="#7C031D"/>
<path d="M154.401 407.5C153.401 409.9 152.101 410.3 149.801 409C149.001 406.8 146.901 405.6 146.201 405.8C145.601 402.6 135.701 392.4 134.001 389.6C136.001 387.8 137.201 387 146.601 390C143.401 392.7 145.301 391.9 147.701 396.6C147.601 397.4 147.501 399.9 149.301 400.7C150.201 402 153.401 406.1 154.401 407.5Z" fill="#7C031D" stroke="#070707" stroke-width="1.1319" stroke-miterlimit="10" stroke-linejoin="bevel"/>
<path d="M73.8008 310.3C80.2008 313.6 76.9008 323.3 79.1008 326.1C82.2008 326.8 88.1008 317.1 90.6008 319.6C91.0008 318.6 93.5008 317.4 95.5008 318.5C98.3008 317.1 105.901 315.2 117.801 315.5C116.101 315.3 90.0008 313.3 88.5008 313C87.3008 313.8 80.4008 312.3 73.8008 310.3Z" fill="#7C031D" stroke="#070707" stroke-width="1.4152" stroke-miterlimit="10" stroke-linejoin="bevel"/>
<path d="M101.802 350C99.7016 352 99.8016 355 96.2016 349.3C92.4016 343.1 96.1016 340.4 97.0016 342.2C99.2016 346.1 103.902 344 103.402 346.9C103.002 349.8 101.802 350 101.802 350Z" fill="#A59E81"/>
<path d="M141.102 298.2C137.602 298.6 137.602 296.3 136.102 304.8C135.002 311.3 131.902 315.7 128.402 315.7C126.902 315.7 126.002 319 124.602 320.4C118.402 326.6 117.202 329.5 116.502 333.1C115.702 336.7 112.902 339 112.902 339C112.902 339 105.402 344.4 99.5019 347.9C93.5019 351.4 110.702 349.7 110.702 349.7L133.902 326L140.602 314.8L142.202 307.8L143.102 299.9L141.102 298.2Z" fill="#A88279"/>
<path d="M139.502 299.6C137.102 296.7 138.602 300.2 137.202 308.7C135.802 317.1 133.102 318.6 126.802 324.8C120.602 331 120.302 326.4 119.602 330C118.802 333.6 113.502 336.5 111.602 339.5C109.702 342.5 109.302 347.2 103.402 350.7C97.4019 354.2 100.102 357.6 100.102 357.6L110.302 347.2C110.302 347.2 134.002 321.5 135.802 318C137.602 314.5 142.002 302.6 139.502 299.6Z" fill="#991F3F"/>
<path d="M129.901 298C135.501 299.2 136.801 305.8 137.001 307.9C138.101 308.3 135.901 297.3 136.501 297.4C139.701 297.8 137.101 296.7 137.101 296.7" fill="#991F3F"/>
<path d="M173.601 279C171.401 283.2 168.501 305.1 177.401 310C174.801 319.6 126.001 363.7 122.801 366.4C119.601 369.1 115.001 368 115.001 368L100.601 358.9C100.601 358.9 98.3013 359.4 103.301 353.1C108.301 346.8 142.101 318.2 137.201 296.6C144.501 284.3 175.801 274.8 173.601 279Z" fill="#5A5EAF"/>
<path d="M173.601 279C173.601 279 181.701 298.1 177.401 310C176.101 313.6 157.701 333 154.701 336.3C141.001 351.2 122.601 366.601 121.301 367.701C116.101 371.801 100.501 359 100.501 359" stroke="black" stroke-width="1.4152" stroke-miterlimit="10"/>
<path d="M107.002 339.8C108.202 341.7 108.002 344.4 111.702 340.7C115.402 337 113.502 338.3 112.802 336.8C112.002 335 106.802 335.2 106.402 337.3C106.102 339.3 107.002 339.8 107.002 339.8Z" fill="#D3CAA3"/>
<path d="M116.402 332.9C114.702 331.4 114.102 328.8 111.602 333.4C109.202 338 110.602 336.2 111.702 337.5C113.002 339 117.902 337.3 117.602 335.1C117.402 333 116.402 332.9 116.402 332.9Z" fill="#D3CAA3"/>
<path d="M122.502 324C120.802 322.5 120.202 319.9 117.702 324.5C115.202 329.1 116.702 327.3 117.802 328.6C119.102 330.1 124.002 328.4 123.702 326.2C123.502 324.2 122.502 324 122.502 324Z" fill="#D3CAA3"/>
<path d="M127.202 319.4C125.502 317.9 124.902 315.3 122.402 319.9C119.902 324.5 121.402 322.7 122.502 324C123.802 325.5 128.702 323.8 128.402 321.6C128.202 319.6 127.202 319.4 127.202 319.4Z" fill="#D3CAA3"/>
<path d="M102.401 345.8C100.801 344.9 99.5012 350.5 96.8012 351.6C96.2012 351.9 96.4012 354.7 97.5012 354.3C101.201 353.3 106.001 347.9 102.401 345.8Z" fill="#8C1137"/>
<path d="M108.001 341.1C106.601 339.9 104.301 345.1 101.401 345.7C100.701 345.8 100.401 348.6 101.601 348.5C105.501 348.2 111.201 343.9 108.001 341.1Z" fill="#8C1137"/>
<path d="M101.001 350.3C99.1012 352.6 99.7012 355.6 95.4012 350.4C90.8012 344.8 94.5012 341.8 95.7012 343.4C98.4012 347 102.301 344.1 102.301 347C102.201 350 101.001 350.3 101.001 350.3Z" fill="#D3CAA3"/>
<path d="M101.001 344.2C102.301 346.3 102.201 349.3 106.301 345.2C110.401 341.1 108.301 342.6 107.501 340.8C106.601 338.8 100.801 339.1 100.401 341.4C100.001 343.7 101.001 344.2 101.001 344.2Z" fill="#D3CAA3"/>
<path d="M105.401 356.7C114.701 355.8 116.201 353.7 117.601 350.1C119.001 346.5 126.401 339.7 126.701 339.6C127.001 339.5 139.101 326.9 139.101 326.9C139.101 326.9 131.201 330.7 123.901 337.3C122.801 338.3 120.101 339.6 119.301 341C113.001 351.6 116.701 347 113.501 350.3C110.301 353.7 105.401 356.7 105.401 356.7Z" fill="#4F528E"/>
<path d="M166.901 279.5C161.901 284.2 159.301 287.2 160.101 289.5C160.901 291.8 162.601 297.1 162.401 297.3C162.301 297.5 156.701 317.8 156.701 317.8C156.701 317.8 163.901 303.6 165.101 297.1C165.301 296.1 166.201 294.3 166.101 293.3C164.901 285.3 164.801 289.201 165.201 286.201C165.501 283.101 166.901 279.5 166.901 279.5Z" fill="#4F528E"/>
<path d="M121.201 359.6C119.401 365.8 124.201 389.7 127.501 391.7C130.801 393.7 133.201 400.9 134.601 404.8C136.001 408.7 139.801 412.6 140.401 415.4C141.001 418.2 140.801 421.5 138.201 422C135.601 422.5 127.701 420.7 125.801 416.2C124.001 411.6 115.401 399.5 113.801 396.1C112.201 392.7 110.601 387.1 110.601 387.1L105.101 369.8C105.101 369.8 103.901 375.6 104.601 378.5C105.301 381.4 106.701 390.1 107.201 390.9C107.701 391.7 119.301 402.9 117.301 406.7C115.301 410.5 110.301 408.8 109.601 408C109.001 407.2 103.501 405.8 101.201 403.2C98.8009 400.6 99.0009 401.5 97.1009 397.9C95.1009 394.3 94.1009 394.5 93.0009 389.9C90.6009 379.7 90.0009 376.9 90.1009 364C90.2009 351.1 86.7009 339.9 88.2009 333.3C89.7009 326.7 84.2009 317 77.2009 309.3C70.2009 301.6 77.4009 315.7 77.2009 309.3C77.0009 302.9 91.8009 293.6 91.8009 293.6L103.501 296.4L110.401 297.4L125.401 314.8L129.501 340.3L121.201 359.6Z" fill="#5A5EAF" stroke="black" stroke-width="1.5153" stroke-miterlimit="10" stroke-linejoin="bevel"/>
<path d="M112.901 298.7C119.401 308.5 111.701 292.8 124.101 301.9C136.501 311 156.001 325.4 158.201 329.3C160.401 333.2 165.801 346.4 169.901 348.8C174.001 351.2 173.801 352.3 175.501 356.4C177.301 360.6 184.501 364.1 184.501 366.8C184.501 369.5 185.501 374 178.301 371.3C171.101 368.7 167.901 367.6 163.501 362.7C159.101 357.8 154.901 351.7 154.901 351.7C154.901 351.7 158.701 366.1 161.601 369.6C164.501 373.1 162.801 377.7 168.701 387.2C174.601 396.7 174.201 400.5 174.801 402.7C175.401 404.9 177.101 406.3 176.401 411.2C175.701 416.1 174.801 418.2 169.801 417.5C164.801 416.9 157.601 401.2 153.201 393C148.801 384.8 149.001 383.1 146.401 378.8C143.801 374.5 142.001 371.2 141.401 369.7C140.801 368.2 137.701 362.5 137.701 362.5C137.701 362.5 142.301 378 144.001 382.5C145.701 387 148.101 392.1 148.101 392.1L148.701 397.7L145.201 399.1L144.501 405L142.001 404.9C142.001 404.9 139.401 407.8 138.501 406.4C135.701 402.2 132.901 397.5 130.801 393.5C128.701 389.6 123.201 371.2 119.401 365.6" fill="#5A5EAF"/>
<path d="M112.901 298.7C119.401 308.5 111.701 292.8 124.101 301.9C136.501 311 156.001 325.4 158.201 329.3C160.401 333.2 165.801 346.4 169.901 348.8C174.001 351.2 173.801 352.3 175.501 356.4C177.301 360.6 184.501 364.1 184.501 366.8C184.501 369.5 185.501 374 178.301 371.3C171.101 368.7 167.901 367.6 163.501 362.7C159.101 357.8 154.901 351.7 154.901 351.7C154.901 351.7 158.701 366.1 161.601 369.6C164.501 373.1 162.801 377.7 168.701 387.2C174.601 396.7 174.201 400.5 174.801 402.7C175.401 404.9 177.101 406.3 176.401 411.2C175.701 416.1 174.801 418.2 169.801 417.5C164.801 416.9 157.601 401.2 153.201 393C148.801 384.8 149.001 383.1 146.401 378.8C143.801 374.5 142.001 371.2 141.401 369.7C140.801 368.2 137.701 362.5 137.701 362.5C137.701 362.5 142.301 378 144.001 382.5C145.701 387 148.101 392.1 148.101 392.1L148.701 397.7L145.201 399.1L144.501 405L142.001 404.9C142.001 404.9 139.401 407.8 138.501 406.4C135.701 402.2 132.901 397.5 130.801 393.5C128.701 389.6 123.201 371.2 119.401 365.6" stroke="black" stroke-width="1.5153" stroke-miterlimit="10" stroke-linejoin="bevel"/>
<path d="M81.6012 316.7C85.7012 319.3 88.7012 309.2 88.7012 309.2C88.7012 309.2 91.2012 303.3 95.5012 308.7C102.101 316.9 105.501 302 103.701 305C102.101 307.6 112.801 305.7 112.801 305.7C112.801 305.7 116.601 306.6 118.601 306.5C120.701 306.3 123.301 306.2 123.901 305C125.801 301.8 121.901 301.9 121.601 302.3L119.101 303C119.101 303 124.301 299 113.801 300.8C103.401 302.6 115.401 298.1 101.101 301.8C86.8012 305.5 87.0012 298.5 82.3012 303.5C77.6012 308.5 86.8012 306.2 85.2012 309.9C83.6012 313.6 84.8012 310.8 84.8012 310.8L83.6012 313.7L81.6012 316.7Z" fill="#7C031D"/>
<path d="M76.3004 304.4C74.5004 306.3 72.4004 305.8 74.2004 312.5C76.0004 319.2 75.5004 315.8 77.0004 314.7C78.6004 313.5 80.0004 304.5 78.4004 303.7C76.9004 302.8 76.3004 304.4 76.3004 304.4Z" fill="#A59E81"/>
<path d="M125.801 296.4C125.801 296.4 83.201 292.1 75.101 297.8C66.901 303.6 69.401 304.4 69.401 304.4L68.501 304.1C71.001 306.6 69.501 309.1 77.001 305C84.501 300.9 87.101 301.6 95.801 302.6C104.501 303.6 107.501 302.7 110.801 301.1C114.101 299.5 117.901 301.6 117.901 301.6C117.901 301.6 130.201 299.5 136.601 302L136.901 299.1L125.801 296.4Z" fill="#A88279"/>
<path d="M137.1 296.7L129.4 296.6L132.5 290C132.5 290 134 281.8 128.8 283.5C126.6 284.3 120.4 296 115.6 295.9C106.5 295.8 86.2004 292.4 83.1004 293C80.6004 293.5 71.4004 299 71.7004 300.3C70.4004 302.2 68.0004 304.1 68.6004 306C70.4004 311.4 72.2004 305.9 74.7004 303.3C78.5004 299.4 84.4004 301.7 84.6004 300.6C85.2004 297.5 92.1005 298.9 93.9005 300.9C95.3005 302.6 96.7005 300.4 98.0005 299.6C101.1 297.5 101.6 299.1 102.9 299.6C104.5 300.3 105.7 298 107.1 297.3C110.4 295.7 113 300.9 114.9 300.8C118.1 300.7 131.1 299.7 136.7 300.9" fill="#991F3F"/>
<path d="M131.701 291C131.101 291.1 131.001 287 130.401 287C129.901 287.1 128.501 289.9 128.001 290C127.501 290.1 124.301 296.4 123.801 296.4C123.001 296.5 125.901 287.5 125.101 287.5C128.201 282 133.301 281.6 131.701 291Z" fill="#6D0635"/>
<path d="M64.6007 304C64.3007 305.1 67.5007 307.4 69.3007 303.4C70.3007 301.1 72.6007 299.9 74.4007 298.7C75.4007 298.1 79.7007 294.1 80.2007 293.9C89.3007 290.7 100.201 295.3 115.601 296C116.101 296 121.401 293.5 123.601 290C124.101 289.2 124.601 288.4 125.001 287.6C128.201 282 132.401 282.8 132.101 286.8C132.001 288.1 131.901 289.5 131.701 291C131.201 294.5 129.001 295.9 129.001 295.9C129.001 295.9 137.301 296.6 142.101 295.9" stroke="black" stroke-width="1.4152" stroke-miterlimit="10"/>
<path d="M112.5 300.8C112.6 302 118.9 299.5 120.8 300.2C121.2 300.4 121.4 298.2 120.6 298.1C117.6 297.6 112.4 299.5 112.5 300.8Z" fill="#8C1137"/>
<path d="M102.701 300.4C101.901 301.3 111.601 299.8 113.201 301C113.601 301.3 113.501 299.3 112.901 298.8C110.201 296.5 106.901 295.6 102.701 300.4Z" fill="#8C1137"/>
<path d="M105.5 300.4C104.8 303.2 102.2 305.4 108.9 305.5C115.6 305.6 112.6 305.1 113.5 303C114.5 300.7 109.7 296.2 107.4 297.6C105.1 299.2 105.5 300.4 105.5 300.4Z" fill="#D3CAA3"/>
<path d="M96.2003 301.9C95.8003 302.6 92.6003 302.6 92.2003 302.3C89.8003 300.5 84.5003 302.3 84.4003 300.5C84.2003 298.6 86.0003 297.3 86.0003 297.3L84.5003 295.1L86.9003 296.7C86.9003 296.7 94.8003 298.9 96.2003 300.8C96.5003 301.3 96.4003 301.6 96.2003 301.9Z" fill="#8C1137"/>
<path d="M75.5009 303.7C76.2009 305.4 81.0009 302.4 83.9009 303.1C84.5009 303.3 86.1009 300.9 84.9009 300.5C83.6009 300 82.2009 299.1 80.6009 299.2C80.4009 299.2 78.5009 298.3 78.5009 298.3L77.9009 297L77.6009 298.6C77.6009 298.6 77.6009 300 77.4009 300.1C75.2009 300.6 74.7009 301.8 75.5009 303.7Z" fill="#8C1137"/>
<path d="M71.401 309.6C73.101 310.1 73.901 306.9 76.301 306C76.801 305.8 77.401 302.2 76.301 302.5C72.901 303.4 67.401 308.4 71.401 309.6Z" fill="#8C1137"/>
<path d="M84.2004 315.5C84.5004 316.5 84.2005 316 83.9005 316.7C83.7005 317.4 82.2005 318.5 79.9005 316.2C76.6005 313 76.0004 307.4 76.2004 304.7C76.4004 302.1 78.8004 303.2 80.1004 302.5C80.1004 302.5 80.7004 301.4 83.6004 301.9C83.9004 302 84.2005 302.1 84.4005 302.5C86.0005 304.9 83.7004 313.8 84.2004 315.5Z" fill="#D3CAA3"/>
<path d="M79.7004 314.3C77.9004 312.4 76.9004 307.3 76.9004 305.5C76.9004 303.8 78.1004 303.8 78.8004 304C79.5004 304.1 77.6004 304.9 79.1004 305.1C79.3004 305.1 79.0004 305.7 78.9004 305.8C76.5004 308.2 81.0004 315.7 79.7004 314.3Z" fill="#F2EBCE"/>
<path d="M73.7012 306.1C71.9012 308 70.4012 307.4 71.6012 314.2C72.5012 319.1 72.9012 317.5 74.4012 316.4C76.0012 315.2 77.4012 306.2 75.8012 305.4C74.2012 304.6 73.7012 306.1 73.7012 306.1Z" fill="#D3CAA3"/>
<path d="M85.9004 303.4C86.2004 305.3 86.5004 309.2 87.1004 307.6C87.3004 307 88.1004 307.8 88.1004 306.8C88.1004 305.8 88.9004 306.9 89.4004 306.9C89.9004 306.9 90.4004 306.9 91.1004 306.6C97.2004 304 94.3004 304.7 94.3004 302.5C94.2004 300 88.0004 297.8 86.5004 300.1C85.1004 302.4 85.9004 303.4 85.9004 303.4Z" fill="#D3CAA3"/>
<path d="M96.6004 301.6C97.4004 303.7 98.4004 300.7 101.2 301.9C101.8 302.2 104.3 300.2 103.2 299.4C102.8 299.1 102.4 298.6 102 298.3L100 297L100.2 295.5L99.3004 297.7L99.5004 298.5C99.5004 298.4 96.0004 300.2 96.6004 301.6Z" fill="#8C1137"/>
<path d="M102.401 307.2C102.601 306.5 102.601 305.7 102.301 305.1C100.801 302 102.601 298.5 99.9007 299.1C98.1007 299.5 99.3007 301.5 95.6007 304.4C94.5007 305.2 96.8007 307.5 97.8007 308.5C98.1007 308.8 98.5007 309 98.9007 309.1C100.301 309.6 101.901 308.8 102.401 307.3V307.2Z" fill="#D3CAA3"/>
<path d="M87.1006 311.5C87.4006 312.5 84.3006 316 84.0006 316.7C83.7006 315.8 84.1006 315.9 83.9006 313.7C83.1006 304.4 82.8006 300.6 84.4006 302.6C86.0006 304.6 86.5006 309.8 87.1006 311.5Z" fill="#A59E81"/>
<path d="M73.5004 316.5C71.7004 314.6 71.5004 311.7 71.4004 310C71.4004 308.3 72.6004 308.3 73.3004 308.5C74.0004 308.6 72.1004 309.4 73.6004 309.6C73.8004 309.6 73.5004 310.2 73.4004 310.3C71.0004 312.6 74.8004 317.9 73.5004 316.5Z" fill="#F2EBCE"/>
<path d="M120.9 302.4C120.8 300.3 122.1 298.1 117.4 299.6C112.7 301.1 114.9 300.7 114.7 302.4C114.5 304.2 118.9 306.4 120.2 304.8C121.4 303.2 120.9 302.4 120.9 302.4Z" fill="#D3CAA3"/>
<path d="M144.201 366.5C149.901 368.9 148.201 374 147.701 375.9C146.301 381.7 152.301 380.5 150.401 376.8C148.901 373.7 148.301 374.4 150.101 374.4C151.801 374.4 151.701 371.8 151.801 375.6C151.901 380.3 150.301 388.2 153.301 388.5C155.901 388.7 155.001 382.9 153.401 378.5C151.701 373.8 152.701 363.3 152.701 363.3L144.201 366.5Z" fill="#7C031D"/>
<path d="M156.901 378.701C156.401 379.101 156.501 379.501 156.101 379.701C155.101 380.301 153.601 380.9 152.701 380.8C152.001 380.7 151.301 380 150.401 379.5C150.401 377.5 148.501 376.2 147.501 376.4C148.401 373.6 141.001 363.8 140.301 361.3C141.301 360.9 142.201 360.6 143.301 360.4C144.301 360.2 145.301 360.2 146.701 360.4C148.801 360.7 151.601 361.4 155.901 362.9C150.601 364.9 153.401 364.401 154.001 368.601C153.501 369.3 152.101 371.4 153.901 372.3C154.401 373.5 156.401 377.401 156.901 378.701Z" fill="#7C031D" stroke="#070707" stroke-width="1.1319" stroke-miterlimit="10" stroke-linejoin="bevel"/>
<path d="M155.601 379.601C154.601 380.201 153.601 380.5 152.701 380.4C152.201 379.1 150.301 375.5 149.201 373.4C148.001 372.8 145.301 365.9 143.301 360.4C144.301 360.2 145.301 360.2 146.701 360.4C147.501 361.2 148.201 362 148.701 362.8C149.901 365.6 151.101 368.401 152.301 371.101C152.301 371 154.601 377.301 155.601 379.601Z" fill="#F2DFC0" stroke="#070707" stroke-width="1.4152" stroke-miterlimit="10"/>
<path d="M121.901 337.4L121.401 338L115.701 333.5L116.301 332.7L121.501 334.7L117.301 331.4L117.701 330.8L123.401 335.3L122.901 336L117.101 333.8L121.901 337.4Z" fill="#323768"/>
<path d="M119.701 331.201C119.301 330.801 119.001 330.5 118.901 330C118.801 329.6 118.901 329.101 119.301 328.701C119.701 328.301 120.001 328 120.501 328C120.901 328 121.401 328.2 121.801 328.5L124.801 330.9C125.201 331.2 125.501 331.6 125.601 332.1C125.701 332.5 125.601 333 125.201 333.4C124.801 333.8 124.501 334.1 124.001 334.1C123.601 334.1 123.101 333.9 122.701 333.6L119.701 331.201ZM123.201 332.9C123.501 333.1 123.701 333.201 123.901 333.201C124.101 333.201 124.301 333.1 124.501 332.9C124.701 332.7 124.801 332.401 124.701 332.201C124.601 332.001 124.501 331.8 124.201 331.6L121.201 329.201C120.901 329.001 120.701 328.9 120.501 328.9C120.301 328.9 120.101 329.001 119.901 329.201C119.701 329.401 119.701 329.7 119.701 329.9C119.801 330.1 119.901 330.3 120.201 330.6L123.201 332.9Z" fill="#323768"/>
<path d="M127.202 330.6L122.002 326.5L121.202 327.6L120.602 327.1L122.802 324.4L123.402 324.9L122.602 326L127.802 330.1L127.202 330.6Z" fill="#323768"/>
<path d="M133.501 326.6L124.101 319.1L123.501 319.2L109.801 336.3C109.801 336.5 109.701 336.6 109.501 336.7C109.501 336.8 109.401 336.8 109.301 336.8C109.301 336.8 109.301 336.8 109.301 336.9C109.301 337.1 109.301 337.2 109.201 337.3C109.201 337.3 109.201 337.3 109.201 337.4C109.201 337.7 109.101 337.9 108.901 338.1C108.901 338.2 108.901 338.2 108.801 338.3C108.801 338.4 108.701 338.5 108.601 338.6C108.601 338.7 108.501 338.8 108.501 338.8C108.401 338.9 108.301 339 108.101 339.1L108.201 339.3L122.101 340.4L122.501 340.3L133.701 327.3L133.501 326.6ZM124.901 336C124.901 336.1 124.901 336.1 124.901 336.2C124.901 336.2 124.901 336.2 124.901 336.3C124.901 336.3 124.901 336.3 124.901 336.4C124.901 336.5 124.901 336.6 124.801 336.7C124.801 336.8 124.701 336.9 124.601 336.9L124.501 337V337.1L124.401 337.2C124.401 337.4 124.301 337.6 124.101 337.7C124.101 337.7 124.001 337.8 123.901 337.8C123.901 337.8 123.901 337.8 123.901 337.9C123.701 338.1 123.501 338.4 123.301 338.6C123.201 338.7 123.101 338.8 122.901 338.8L122.801 338.9C122.701 339 122.601 339 122.501 339C122.401 339.1 122.401 339.1 122.301 339.1C122.201 339.2 122.201 339.2 122.101 339.3H122.001H121.901H121.801L109.201 338.3L110.101 337.2C110.101 337.1 110.101 337 110.201 336.9C110.201 336.8 110.301 336.7 110.401 336.7L110.501 336.6C110.501 336.5 110.601 336.4 110.701 336.4L110.801 336.3C110.901 336.3 110.901 336.2 111.001 336.2C111.001 336.2 111.001 336.1 111.101 336.1C111.201 336 111.201 336 111.301 335.9C111.401 335.8 111.401 335.8 111.501 335.8L124.201 320L132.901 327L124.901 336Z" fill="#323768"/>
<path d="M102.001 320.7C102.601 320.7 103.001 320.9 103.201 321.2C103.401 321.5 103.501 322 103.501 322.5L103.401 323.4C103.401 324 103.201 324.4 102.901 324.7C102.601 325 102.201 325.1 101.601 325.1H100.901L100.701 328H99.9014L100.301 320.7H102.001ZM101.701 324.4C102.001 324.4 102.201 324.4 102.401 324.2C102.601 324.1 102.601 323.8 102.701 323.5L102.801 322.5C102.801 322.2 102.801 321.9 102.701 321.7C102.601 321.5 102.401 321.4 102.101 321.4H101.301L101.101 324.4H101.701Z" fill="#323768"/>
<path d="M104.702 326.4C104.702 326.7 104.702 327 104.902 327.2C105.002 327.4 105.202 327.5 105.502 327.5C105.802 327.5 106.002 327.4 106.202 327.3C106.302 327.1 106.402 326.9 106.402 326.5L106.702 320.9H107.502L107.202 326.4C107.202 327 107.002 327.4 106.702 327.7C106.402 328 106.002 328.2 105.402 328.1C104.802 328.1 104.402 327.9 104.202 327.5C104.002 327.1 103.802 326.7 103.902 326.1L104.202 320.6H105.002L104.702 326.4Z" fill="#323768"/>
<path d="M108.601 328.4H107.901L108.301 321.1L109.301 321.2L110.701 326.6L111.001 321.3H111.701L111.301 328.6H110.501L109.001 322.6L108.601 328.4Z" fill="#323768"/>
<path d="M113.601 325.5L113.101 326.2L113.001 328.7H112.201L112.601 321.4H113.401L113.201 324.9L115.301 321.5H116.101L114.101 324.7L115.801 328.8H115.001L113.601 325.5Z" fill="#323768"/>
<path d="M114.401 331.4L95.901 330.3L95.501 329.7L98.201 324.1L96.201 317.8L96.601 317.3L123.901 319L124.201 319.7L114.701 331.4H114.401ZM96.601 329.5L114.301 330.5L123.101 319.6L97.301 318L99.201 323.9V324.2L96.601 329.5Z" fill="#323768"/>
<path d="M116.201 342.7C116.001 342.4 115.501 342.2 115.001 342.1L113.601 342C113.601 342.1 113.601 342.2 113.501 342.3C113.501 342.4 113.501 342.4 113.501 342.5V342.6C113.501 342.7 113.501 342.8 113.401 342.9C113.401 343 113.401 343.1 113.301 343.2C113.301 343.2 113.301 343.3 113.201 343.3C113.201 343.4 113.201 343.4 113.201 343.5C113.201 343.7 113.101 343.9 113.001 344.1L112.601 348.8C112.801 348.9 113.001 349.1 113.001 349.3L114.201 349.4C114.801 349.4 115.201 349.3 115.501 349C115.801 348.7 116.001 348.3 116.001 347.7L116.301 344C116.501 343.5 116.401 343 116.201 342.7ZM115.701 343.9L115.401 347.7C115.401 348 115.301 348.3 115.101 348.5C114.901 348.7 114.701 348.7 114.401 348.7L113.501 348.6L113.901 342.8L114.801 342.9C115.101 342.9 115.301 343 115.401 343.2C115.601 343.3 115.701 343.6 115.701 343.9Z" fill="#323768"/>
<path d="M119.7 345.7L119.6 346.4L117.8 346.3L117.6 348.9L119.8 349.1L119.7 349.8L116.7 349.6L117.3 342.3L120.3 342.5L120.2 343.2L118 343L117.8 345.5L119.7 345.7Z" fill="#323768"/>
<path d="M121.501 348.5L121.101 349.9L120.301 349.8L122.301 342.6L123.501 342.7L124.301 350.1L123.501 350L123.301 348.5H121.501ZM121.701 347.8L123.301 347.9L122.801 343.6L121.701 347.8Z" fill="#323768"/>
<path d="M127.2 343C127.8 343 128.2 343.2 128.4 343.6C128.6 343.9 128.7 344.4 128.7 345L128.4 348.7C128.4 349.3 128.2 349.7 127.9 350C127.6 350.3 127.2 350.4 126.6 350.4L124.9 350.3L125.5 343H127.2ZM126.7 349.6C127 349.6 127.2 349.6 127.4 349.4C127.6 349.2 127.6 349 127.7 348.6L128 344.8C128 344.5 128 344.2 127.8 344C127.7 343.8 127.5 343.7 127.2 343.7L126.3 343.6L125.9 349.4L126.7 349.6Z" fill="#323768"/>
<path d="M129.149 349.552L129.073 350.549L129.871 350.61L129.947 349.613L129.149 349.552Z" fill="#323768"/>
<path d="M130.1 347.2V347.1C130.1 347 130.1 347 130.1 346.9V346.8C130.1 346.7 130.1 346.7 130.1 346.6C130.1 346.5 130.1 346.4 130.1 346.3C130.1 346.2 130.1 346.1 130.1 346C130.1 345.9 130.1 345.8 130.1 345.6V345.5C130.1 345.4 130.1 345.4 130.1 345.3C130.1 345 130.2 344.7 130.4 344.6C130.4 344.6 130.4 344.6 130.5 344.5V344.4V344.3C130.5 344.2 130.4 344.2 130.4 344.1C130.4 344 130.4 343.9 130.3 343.9C130.3 343.9 130.3 343.9 130.3 343.8L130.2 343.7C130.1 343.7 130.1 343.6 130 343.5L129.9 343.4H129.8L129.5 346.8L129.4 349.1H130L130.2 347.6C130.1 347.4 130.1 347.3 130.1 347.2Z" fill="#323768"/>
<path d="M137.901 341.5C137.701 341.4 137.601 341.3 137.501 341.1C137.401 341.1 137.201 341 137.101 341H137.001C136.901 341 136.801 341 136.701 341H136.601C136.501 341 136.501 341 136.401 341C136.301 341 136.201 341 136.101 340.9H136.001C135.901 340.9 135.801 340.9 135.801 340.9H135.701C135.601 340.9 135.501 340.9 135.401 340.8H135.301H135.201H135.101C135.001 340.8 134.901 340.8 134.901 340.8H134.801C134.701 340.8 134.601 340.8 134.501 340.7C134.501 340.7 134.501 340.7 134.401 340.7C134.301 340.7 134.201 340.7 134.201 340.7C134.101 340.7 134.101 340.7 134.001 340.6L133.901 340.5L122.001 339.6H121.901L108.901 338.6L108.801 338.7C108.801 338.8 108.701 338.8 108.701 338.9C108.601 339.1 108.401 339.2 108.101 339.2C108.101 339.2 108.101 339.2 108.001 339.2L107.101 351.2L107.301 351.4C107.401 351.3 107.501 351.3 107.701 351.3C107.901 351.3 108.001 351.3 108.101 351.4C108.101 351.4 108.101 351.4 108.201 351.4H108.401H108.501C108.601 351.4 108.601 351.4 108.701 351.4C108.901 351.4 109.101 351.5 109.201 351.6H109.401C109.501 351.6 109.601 351.6 109.701 351.7C109.801 351.7 109.901 351.6 110.001 351.6C110.101 351.6 110.301 351.6 110.401 351.7C110.501 351.7 110.501 351.7 110.601 351.8C110.701 351.8 110.801 351.8 110.901 351.8C111.101 351.8 111.301 351.9 111.401 352L137.101 354L137.501 353.4L134.401 347.2L137.901 341.5C138.001 341.5 137.901 341.5 137.901 341.5ZM133.301 346.6V347L136.201 352.8L107.801 350.6L108.701 339.2L137.101 341.4L133.301 346.6Z" fill="#323768"/>
<path d="M136.301 310.9C137.801 306.2 138.101 301.5 136.401 296.7" stroke="black" stroke-width="1.4152" stroke-miterlimit="10"/>
<path d="M152 325.201C151.7 325.701 151.9 326.1 151.6 326.5C150.9 327.5 149.7 328.5 148.8 328.8C148.1 329 147.2 328.6 146.2 328.5C145.5 326.7 143.2 326.201 142.3 326.701C142.1 323.701 131.5 317.6 129.9 315.5C130.7 314.7 131.4 314.1 132.3 313.5C133.1 313 134.1 312.601 135.5 312.201C137.5 311.701 140.4 311.3 144.9 311C140.7 314.9 143.1 313.4 145.3 317C145.1 317.9 144.6 320.3 146.6 320.4C147.7 321.5 151 324.201 152 325.201Z" fill="#7C031D" stroke="#070707" stroke-width="1.1319" stroke-miterlimit="10" stroke-linejoin="bevel"/>
<path d="M151.2 326.6C150.5 327.6 149.7 328.2 148.8 328.4C147.9 327.4 144.7 324.8 142.8 323.3C141.5 323.2 136.4 318.3 132.4 314C133.2 313.5 134.6 312.7 135.9 312.4C136.9 312.8 137.5 313.1 138.3 313.6C140.5 315.7 142.7 317.8 144.8 319.9C144.8 319.9 149.3 324.8 151.2 326.6Z" fill="#F2DFC0" stroke="#070707" stroke-width="1.4152" stroke-miterlimit="10"/>
<path d="M125.501 207.4L81.9006 223.5L73.0006 230.7L68.6006 223.3L73.0006 218.5L75.5006 220.5L72.9006 212.6L81.1006 212.7L120.701 204.6L125.501 207.4Z" fill="#A3DBF3" stroke="#070707" stroke-width="1.4152" stroke-miterlimit="10"/>
<path d="M200.1 29.7003C199.7 29.6003 199.4 29.5003 199 29.4003C199.5 29.4003 200 28.4003 200.5 29.2003C200.5 29.3003 200.4 29.6003 200.1 29.7003Z" fill="#A3DBF3" stroke="#070707" stroke-width="1.4152" stroke-miterlimit="10"/>
<path d="M300.5 183.6C302.6 183.9 303.6 181.7 304 179.9C304.1 179.5 304.1 179.3 303.9 179.1C303.7 178.9 303.6 178.7 303.5 178.5C303.4 178.3 303.4 178.1 303.3 177.8C303.4 177.6 303.4 177.3 303.4 177.1C303.4 176.9 303.4 176.6 303.3 176.4C301 174.9 298.3 176.1 296 175.7C295.7 175.6 295.5 175.6 295.2 175.5C295.2 175.3 295.2 174.8 295.2 174.5C294.5 174.2 293.5 174.2 293.5 173.7C293.4 173.3 293.6 173 294 172.8C294.2 172.7 294.5 172.6 294.8 172.5C294.9 172.5 294.9 172.4 295 172.4C295.4 172.1 295.9 171.9 296.3 171.7C297.2 171.3 298.2 171 299.1 170.9C299.4 170.8 299.7 170.7 300 170.5C300.2 170.4 300.4 170.3 300.7 170.2C301.5 169.7 301.9 169.3 302.2 168.6C302.3 168.4 302.4 168.2 302.4 168C302.4 167.8 302.4 167.7 302.5 167.5C302.5 167.2 302.6 166.9 302.6 166.7C302.4 166.4 302.2 166.1 302.2 165.9C302.1 165.6 302.1 165.4 302.2 165.2C302.4 164.2 303.5 163.2 303 162C302.8 161.6 302.4 161.3 302.1 160.9C301.1 159.9 299.8 159 300 157.5C300 157.2 300 156.9 300.1 156.6C300.1 156.4 300 156.2 300 156C299.5 155.6 299.2 155.1 299.1 154.7C299 154.2 299 153.8 299 153.3C298.9 152.9 298.9 152.5 299 152.1C299 151.9 299.1 151.7 299.1 151.5C299.2 151 299.3 150.5 299.3 150.1C299.3 149.9 299.3 149.6 299.3 149.4C300 146.1 297.5 143.1 299.4 140.2C299.5 139.8 299.5 139.5 299.4 139.2C299.4 138.9 299.3 138.6 299.2 138.3C299.2 138.1 299.1 137.9 299.1 137.7C299.1 137.5 299 137.3 299 137.1C298.9 136.6 298.8 136.1 298.7 135.7C298.6 135.2 298.5 134.7 298.5 134.3C298.4 133.8 298.2 133.4 298.1 132.9C297.5 130.6 296.8 128.3 296.2 126C296.1 125.5 295.9 125 295.8 124.5C295.4 122.9 294.2 121.9 293.4 120.7C292.2 117.5 295.4 115.2 293.4 112.1C293 112.7 290.6 111.8 290.4 112.4C290.2 113 289.8 113.6 289.2 113.9C288.5 111.9 288.2 109.9 287.7 107.9C287.6 107.2 287.4 106.6 287.3 106C287 104.8 286.8 103.5 286.4 102.2C286.2 101.8 286 101.5 285.9 101.3C285.6 100.8 285.3 100.5 285 100.2C284 99.1002 283.8 97.3002 282.5 96.1002C282.3 95.9002 282.2 95.6002 282.1 95.3002C281.8 94.1002 281.8 92.5002 280.8 91.4002C280.6 91.2002 280.4 91.0002 280.2 90.8002C279.9 91.1002 279.6 91.2002 279.4 91.6002C279.2 92.1002 278.5 93.1002 278.2 92.6002C277 90.9002 277.2 88.6002 276.5 86.9002C276.2 86.2002 275.9 85.8002 275.7 85.4002C274.4 83.2002 274.3 80.2002 272.4 78.1002C272.2 77.8002 271.9 77.5002 271.7 77.2002C271.2 78.0002 270.7 78.8002 270.2 79.5002C268.2 77.3002 269.2 73.5002 266.7 71.6002C266.2 71.6002 265.7 71.6002 265.2 72.0002C264.7 73.0002 263.5 73.0002 262.4 72.4002C262.1 72.4002 261.8 72.4002 261.4 72.4002C260.8 72.7002 260.3 73.2002 260 72.9002C257.8 71.2002 260 67.7002 259.5 64.9002C259.3 64.9002 259 65.1002 258.8 65.3002C258.4 65.7002 258 66.0002 257.5 65.9002C257.2 65.8002 256.9 65.7002 256.6 65.5002C256.3 65.3002 256 65.1002 255.7 64.9002C254.5 65.9002 254 67.6002 253.3 68.9002C252.1 67.9002 252.1 66.2002 251.3 64.8002C251.1 64.3002 250.9 63.9002 250.8 63.4002C249.9 60.6002 249.6 57.1002 247.6 56.2002C247 56.5002 246.6 56.4002 246.3 56.2002C245.4 55.6002 245.5 53.4002 244.5 52.6002C244.2 52.3002 243.9 52.1002 243.7 52.1002C242.6 52.0002 242 51.2002 241.4 49.7002C241 49.2002 240.7 48.9002 240.4 48.6002C239.8 48.1002 239.2 47.3002 238.6 46.8002C238.3 46.7002 238 46.6002 237.7 46.6002C237.4 46.6002 237.1 46.6002 236.8 46.6002C236.6 46.7002 236.3 46.7002 236 46.7002C235.8 46.9002 235.6 47.0002 235.4 47.3002C235.2 47.5002 235 47.8002 234.7 48.1002C233.2 49.7002 234 52.7002 231.7 53.2002C231.2 51.0002 231.2 48.7002 231.6 46.6002C231.4 45.4002 231.2 45.7002 231.1 46.0002C230.9 46.3002 230.8 46.7002 230.4 46.7002C229.5 46.6002 229.2 46.0002 228.9 45.2002C228.6 44.5002 228.4 43.7002 228 43.2002C227.7 42.9002 227.4 42.8002 227.2 42.7002C226.7 42.6002 226.3 42.6002 226 42.3002C225 41.3002 223.8 41.1002 222.9 39.9002C222.5 39.5002 222.3 39.2002 222.1 38.9002C221.7 38.2002 221.3 37.5002 220.9 36.8002C220.5 36.2002 220.2 35.8002 219.8 35.5002C219.5 35.4002 219.2 35.2002 218.9 35.1002C218.6 35.0002 218.3 34.8002 218 34.7002C217.7 34.7002 217.4 34.7002 217 34.8002C215.6 36.1002 214.7 40.4002 213.2 37.4002C212.9 36.9002 212.6 36.4002 212.4 35.8002C212.1 35.3002 211.9 34.8002 211.6 34.4002C210.5 32.7002 209 31.7002 207.3 30.9002C207 30.7002 206.6 30.6002 206.3 30.5002C204.2 31.9002 202 30.5002 199.9 29.7002C199.8 29.7002 199.7 29.7002 199.6 29.7002C199.2 29.7002 198.8 29.6002 198.4 29.5002C197.8 29.3002 197.3 29.0002 196.9 28.6002C196.1 28.0002 195.2 27.7002 194.5 27.3002C193.8 26.9002 193.2 26.4002 193 25.4002C191.4 25.0002 189.6 25.7002 188.1 25.0002C187.1 24.8002 188.6 24.3002 188.7 23.6002C188.3 23.5002 188 23.3002 187.6 23.2002C187.2 23.1002 186.7 23.1002 186 23.6002C185.1 24.3002 184.8 25.5002 183.8 26.3002C183.3 25.3002 183.3 24.1002 182.6 23.4002C182.3 22.9002 182 22.6002 181.6 22.4002C181.2 22.3002 180.9 22.2002 180.4 22.1002C180.1 22.0002 179.8 21.9002 179.5 21.9002C179.2 21.8002 178.9 21.7002 178.6 21.5002C178.3 21.3002 178 21.1002 177.7 20.9002C177.4 20.7002 177.1 20.4002 176.7 20.1002C176.4 20.0002 176.1 19.9002 175.8 19.9002C175.5 19.9002 175.1 19.8002 174.8 19.9002C174 19.8002 173.2 20.3002 172.5 20.8002C172 19.8002 171.3 18.6002 169.6 19.0002C169.2 19.1002 169 19.1002 168.5 19.3002C167.3 20.3002 166.8 22.8002 165 21.8002C164.1 21.3002 163.6 20.4002 163.1 19.5002C162.9 19.3002 162.7 19.1002 162.4 19.1002C161.6 19.1002 160.8 19.5002 160.1 20.0002C159.6 18.5002 158.1 18.5002 157.1 19.5002C156.9 19.9002 156.4 20.3002 156 20.5002C155.5 20.7002 155 20.6002 154.7 20.0002C154.2 18.8002 154 16.8002 152.3 17.3002C151.8 17.3002 151.4 17.2002 151 17.2002C150.5 17.2002 150.1 17.2002 149.6 17.2002C149.2 17.2002 148.7 17.1002 148.2 17.0002C147.7 16.9002 147.3 16.6002 146.7 16.6002C145.9 17.3002 145.2 18.3002 144.2 18.8002C143.5 17.3002 143.5 14.6002 140.9 15.7002C140.6 15.9002 140.3 16.0002 140 16.3002C139.5 16.8002 139 17.6002 138.5 17.1002C137.5 16.6002 137.8 14.9002 136.3 15.0002C135.8 15.1002 135.4 15.2002 134.9 15.3002C134.4 15.4002 133.9 15.5002 133.4 15.6002C133.1 15.7002 132.7 15.8002 132.3 16.0002C131.5 16.4002 130.7 16.9002 130 17.4002C129.8 16.4002 129 15.9002 128.5 15.1002C128 14.7002 127.4 14.7002 127 14.7002C126.7 14.7002 126.4 14.7002 126.1 14.8002C124.8 15.4002 124.8 16.9002 123.8 17.7002C123.6 17.2002 122.6 17.2002 122.4 16.2002C122 15.8002 121.7 15.6002 121.3 15.5002C120.3 16.2002 119.4 16.9002 118.2 15.2002C118.2 15.2002 117.5 15.7002 116.9 16.0002C116.5 16.4002 116.1 16.8002 115.7 17.2002C115 16.0002 114.2 14.7002 112.4 15.2002C112 15.2002 111.5 15.2002 111.2 15.4002C110 17.1002 109.5 18.9002 107.1 17.2002C106.9 17.4002 106.8 17.7002 106.7 18.0002C106.3 18.9002 106 19.8002 105.5 20.2002C104.8 20.7002 105 19.2002 104.4 18.8002C103.8 17.7002 103.4 17.3002 103 17.0002C100.7 19.0002 103.1 23.1002 101.7 25.7002C101 24.0002 100.2 22.2002 99.3004 20.4002C99.1004 20.0002 98.9004 19.6002 98.7004 19.3002C98.3004 18.6002 97.9004 17.9002 97.3004 17.4002C96.9004 17.5002 96.4004 17.6002 96.1004 18.3002C95.4004 20.5002 95.9004 23.0002 95.2004 25.2002C93.9004 23.9002 93.8004 21.5002 92.9004 19.9002C92.7004 19.5002 92.4004 19.1002 92.1004 18.8002C91.9004 18.3002 91.1004 18.0002 90.9004 18.0002C90.7004 18.2002 90.5004 18.5002 90.4004 18.8002C90.3004 19.1002 90.3004 19.4002 90.3004 19.8002C90.7004 21.3002 90.2004 23.0002 90.0004 24.5002C89.6004 24.4002 89.3004 24.2002 89.1004 24.0002C88.9004 23.8002 88.7004 23.5002 88.6004 23.2002C88.5004 23.5002 88.4004 23.8002 88.2004 24.0002C88.1004 24.3002 87.9004 24.5002 87.8004 24.8002C87.6004 24.6002 87.3004 24.4002 87.1004 24.2002C86.9004 24.0002 86.7004 23.8002 86.5004 23.6002C86.2004 23.5002 86.0004 23.4002 85.6004 23.3002C84.3004 23.6002 83.1004 23.6002 81.9004 23.5002C81.3004 23.4002 80.7004 23.4002 80.1004 23.3002C78.9004 23.2002 78.0004 23.0002 76.6004 22.8002C76.0004 22.8002 75.4004 22.8002 74.8004 22.8002C74.5004 22.8002 74.2004 22.7002 74.0004 22.8002C73.8004 22.8002 73.5004 22.8002 73.2004 22.7002C71.6004 22.5002 70.0004 21.8002 68.3004 21.9002C68.0004 21.9002 67.7004 21.8002 67.5004 21.8002C67.2004 21.8002 66.9004 21.7002 66.7004 21.7002C67.2004 23.6002 69.0004 23.6002 70.2004 24.6002C66.5004 26.6002 62.0004 24.6002 58.0004 24.6002C57.7004 24.6002 57.4004 24.5002 57.1004 24.5002C56.8004 24.5002 56.5004 24.5002 56.2004 24.5002C56.2004 24.5002 56.3004 24.6002 56.4004 24.9002C56.9004 25.6002 58.0004 27.3002 59.5004 29.7002C59.7004 30.1002 60.0004 30.4002 60.2004 30.8002C60.3004 31.0002 60.4004 31.2002 60.6004 31.4002C60.7004 31.6002 60.9004 31.8002 61.0004 32.0002C61.1004 32.2002 61.3004 32.4002 61.4004 32.6002C62.0004 33.7002 63.0004 34.7002 63.5004 36.0002C63.6004 36.2002 63.8004 36.5002 63.9004 36.8002C64.2004 37.8002 65.2004 38.3002 65.6004 39.3002C65.7004 39.5002 65.9004 39.7002 66.0004 40.0002C66.1004 40.2002 66.3004 40.5002 66.4004 40.8002C66.2004 42.1002 67.5004 42.8002 68.3004 43.5002C68.4004 43.7002 68.5004 43.9002 68.7004 44.1002C69.3004 45.1002 70.0004 45.9002 70.5004 47.0002C70.6004 47.2002 70.7004 47.4002 70.9004 47.6002C71.7004 48.8002 72.5004 50.1002 73.3004 51.3002C73.6004 51.7002 73.8004 52.1002 74.1004 52.5002C74.2004 52.7002 74.4004 52.9002 74.5004 53.1002C74.6004 53.3002 74.8004 53.5002 74.9004 53.7002C75.1004 54.1002 75.3004 54.3002 75.7004 54.9002C75.8004 55.1002 76.0004 55.3002 76.1004 55.5002C76.2004 55.7002 76.4004 55.9002 76.5004 56.2002C76.6004 56.5002 76.7004 56.7002 76.9004 56.9002C77.0004 57.1002 77.2004 57.4002 77.3004 57.6002C78.7004 58.9002 79.5004 60.8002 80.5004 62.5002C80.7004 62.8002 80.8004 63.1002 81.0004 63.4002C81.8004 64.8002 82.9004 65.8002 84.0004 66.8002C84.2004 67.0002 84.5004 67.2002 84.7004 67.4002C86.1004 69.3002 88.1004 70.5002 89.8004 72.3002C88.8004 72.5002 88.1004 71.3002 87.1004 71.3002C87.4004 71.5002 87.6004 71.7002 87.8004 72.0002C86.6004 71.0002 85.3004 69.8002 84.0004 68.8002C83.6004 68.4002 83.4004 68.2002 83.2004 68.0002C81.4004 66.7002 79.5004 65.7002 77.9004 64.1002C77.7004 63.4002 77.4004 62.9002 77.1004 62.4002C76.1004 60.9002 74.4004 59.7002 73.0004 58.7002C72.7004 58.4002 72.4004 58.1002 72.2004 57.7002C72.0004 57.3002 71.8004 56.9002 71.6004 56.4002C71.1004 55.9002 70.6004 55.6002 70.1004 55.3002C69.1004 54.7002 68.2004 54.0002 67.6004 52.8002C67.3004 52.3002 67.0004 51.8002 66.7004 51.3002C66.4004 50.8002 66.0004 50.4002 65.5004 50.1002C65.3004 49.9002 65.1004 49.7002 65.0004 49.6002C64.6004 49.4002 64.3004 49.1002 64.1004 48.7002C64.0004 48.5002 63.9004 48.3002 63.8004 48.2002C63.7004 48.0002 63.6004 47.9002 63.5004 47.8002C59.5004 46.5002 57.3004 42.8002 55.2004 39.4002C55.0004 39.2002 54.8004 39.0002 54.7004 38.8002C54.5004 38.6002 54.3004 38.4002 54.1004 38.2002C53.9004 38.0002 53.7004 37.8002 53.6004 37.6002C53.4004 37.3002 53.1004 37.1002 52.9004 36.9002C52.5004 36.3002 52.2004 36.0002 52.3004 36.0002C50.2004 35.9002 48.0004 36.6002 46.0004 36.0002C44.9004 36.0002 44.1004 36.2002 43.4004 36.3002C43.1004 36.4002 42.7004 36.4002 42.4004 36.5002C41.9004 36.9002 41.4004 37.2002 40.8004 37.5002C40.5004 37.6002 40.2004 37.8002 40.0004 37.9002C39.0004 38.4002 38.0004 38.6002 36.9004 38.7002C36.4004 38.8002 35.8004 38.8002 35.2004 38.8002C34.5004 38.7002 33.9004 38.9002 33.5004 39.2002C33.0004 39.5002 32.6004 40.0002 32.3004 40.4002C31.9004 40.8002 31.9004 42.0002 30.8004 41.5002C30.8004 41.5002 30.8004 41.6002 30.1004 41.4002C29.9004 41.3002 29.7004 41.3002 29.4004 41.3002C30.6004 42.3002 30.4004 43.8002 30.3004 45.0002C30.4004 45.4002 30.6004 45.7002 30.8004 46.0002C30.9004 46.3002 31.0004 46.5002 31.1004 46.8002C31.3004 47.2002 31.4004 47.6002 31.6004 48.1002C31.8004 48.5002 32.0004 49.0002 32.2004 49.4002C32.3004 49.7002 32.4004 50.0002 32.6004 50.2002C33.0004 50.4002 33.1004 50.6002 33.3004 51.0002C35.6004 51.9002 37.8004 53.6002 40.0004 54.1002C40.6004 54.2002 41.1004 54.2002 41.7004 54.1002C41.5004 54.2002 41.2004 54.3002 40.9004 54.4002C40.2004 54.8002 39.2004 54.3002 38.4004 54.8002C38.2004 54.8002 38.0004 54.8002 37.8004 54.9002C36.9004 55.0002 35.9004 55.2002 35.1004 55.8002C35.0004 56.2002 35.1004 56.5002 35.2004 56.7002C35.4004 57.3002 35.7004 57.8002 36.3004 58.5002C37.4004 59.6002 38.9004 60.1002 39.4004 61.4002C39.9004 62.7002 37.9004 61.4002 37.8004 62.5002C37.9004 62.8002 38.0004 63.0002 38.1004 63.3002C38.2004 63.6002 38.3004 63.8002 38.4004 64.1002C38.6004 64.1002 38.8004 64.2002 39.1004 64.0002C40.1004 64.0002 40.0004 64.8002 39.8004 65.7002C39.8004 66.0002 39.7004 66.3002 39.7004 66.6002C39.5004 70.1002 43.6004 69.2002 45.3004 71.2002C45.5004 71.4002 45.7004 71.7002 45.8004 72.0002C45.1004 72.5002 43.8004 72.5002 43.8004 73.5002C43.8004 74.5002 45.4004 74.5002 45.9004 75.2002C46.0004 75.3002 46.1004 75.5002 46.1004 75.7002C46.6004 76.5002 47.6004 76.9002 48.2004 77.3002C48.5004 77.5002 48.7004 77.7002 48.8004 77.9002C49.0004 78.9002 49.2004 79.6002 49.2004 80.4002C49.2004 80.6002 49.1004 80.8002 49.0004 80.9002C48.9004 81.0002 48.7004 81.1002 48.5004 81.2002C47.9004 81.1002 47.7004 81.6002 47.7004 81.9002C48.7004 82.9002 50.7004 83.1002 50.9004 84.1002C51.1004 85.3002 48.4004 84.6002 47.8004 86.0002C47.8004 86.2002 47.9004 86.5002 48.0004 86.8002C48.2004 87.2002 48.3004 87.5002 48.5004 87.9002C48.6004 88.1002 48.7004 88.3002 48.7004 88.4002C50.6004 89.9002 53.1004 89.1002 55.1004 90.6002C54.5004 91.2002 53.9004 91.4002 53.2004 91.6002C53.0004 91.7002 52.8004 91.7002 52.5004 91.7002C52.0004 91.5002 52.0004 92.0002 51.5004 92.0002C51.6004 92.2002 51.9004 92.5002 52.2004 92.9002C52.9004 93.5002 52.9004 93.9002 52.6004 94.3002C52.4004 94.5002 52.2004 94.6002 52.1004 94.8002C52.0004 96.4002 53.7004 96.5002 54.9004 97.0002C55.1004 97.1002 55.3004 97.2002 55.5004 97.3002C55.0004 98.8002 56.5004 99.0002 57.5004 99.2002C58.0004 99.3002 58.4004 99.5002 58.3004 99.8002C58.1004 100 58.3004 100.8 57.6004 100.8C58.3004 101.5 59.3004 101.8 60.1004 102.5C59.8004 102.9 59.3004 103.1 59.0004 103.3C58.6004 103.5 58.4004 103.5 58.1004 103.7C57.9004 105.4 59.2004 106.8 59.9004 108.1C60.0004 108.3 60.1004 108.5 60.1004 108.7C60.3004 109.9 57.9004 110.2 58.7004 111.8C58.8004 112.2 59.0004 112.5 59.1004 112.9C64.0004 124.4 67.5004 132.6 67.5004 132.6C83.7004 108.8 124.2 95.7002 171.2 112.5C187.3 118.3 207.1 128.8 222.4 140.6C223.8 141.7 225.1 142.7 226.3 143.8C233.3 149.6 239 155.7 242.6 161.6C243.4 162.9 244.1 164.2 244.7 165.5C245 166.1 245.2 166.8 245.5 167.4C247.5 172.9 247.5 180.6 246.5 189C246.3 190.7 246.1 192.3 245.8 194C245.7 194.8 245.6 195.5 245.4 196.3C244.8 199.8 244 203.3 243.2 206.7C238.9 224.8 232.6 241.1 232.6 241.1C232.6 241.1 235.4 242.3 239.6 244.2C241 244.8 242.6 245.5 244.3 246.1C246.9 246.2 249.4 246.5 251.4 248.2C252.3 248.5 253.1 248.9 254 249.2C254.9 249.6 255.8 250 256.7 250.3C257.5 250.4 258.4 250.6 259.1 251C259.8 251.4 260.4 252.1 260.9 253.1C261.3 253.2 261.8 253.3 262.2 253.4C264.4 253.8 266.4 254.9 268.2 256.5C268.6 256.7 269 256.8 269.3 257C271.2 257.8 272.9 258.6 274.5 259.3C275.6 259.8 276.6 260.2 277.7 260.7C279.8 261.6 282.6 264.3 283.9 261.2C284.4 260.4 284.6 259.4 284.8 258.4C285.1 256.8 285.3 255.1 286 253.8C286.1 253.6 286.2 253.4 286.4 253.2C286.4 253 286.5 252.7 286.5 252.5C286.3 252.3 286.2 252 286 251.8C285.2 251.2 284.4 251.1 283.5 251C283.2 251 282.9 250.9 282.6 250.9C282.3 250.9 282.1 250.9 281.8 250.9C281.5 250.9 281.2 250.9 280.9 250.9C278.7 250.6 276.4 250.6 274.4 249.6C276 249.1 277.6 248.9 279.2 248.8C279.5 248.8 279.8 248.8 280.2 248.7C283.5 248.6 285.7 245.6 289 245.9C289.3 245.9 289.6 245.7 289.9 245.5C290 245.4 290.2 245.2 290.3 245.1C290.9 244.3 291.8 243.4 292.4 242.4C292.5 242.2 292.7 241.9 292.7 241.7C292.9 240.2 291.4 240 290.7 239.3C290.9 239.2 291.1 239 291.3 238.9C291.5 238.8 291.7 238.6 291.9 238.4C292 237.6 292.1 236.9 292.4 236.2C292.5 236 292.6 235.8 292.7 235.6C293 234.3 294.5 234.5 295.3 233.8C295.1 233.6 295 233.5 294.9 233.4C294.8 233.3 294.7 233.1 294.6 233C294.3 232.6 294.3 232.3 294.4 231.9C294.5 231.6 294.7 231.2 294.8 230.9C295.5 230.1 295 229.4 294.3 228.9C294.5 228.8 294.7 228.7 294.9 228.6C295.5 228 295.8 227.3 296 226.5C296.1 226.2 296.1 226 296.1 225.7C296 225.5 295.9 225.3 295.8 225.1C295.7 224.9 295.6 224.8 295.6 224.6C295.5 224.4 295.4 224.2 295.4 224C295.2 223.7 295.1 223.5 295.1 223.2C295 222.9 295 222.7 295 222.4C295 222.1 295 221.8 294.8 221.5C294.3 221.1 294 220.7 293.9 220.4C293.8 220.1 293.9 219.8 294 219.6C294.2 219.1 294.6 218.8 295 218.6C295.4 218.4 295.9 218.2 296 217.8C295.3 218.3 294.3 217.8 293.6 218.2C293.3 218.2 293.1 218.3 292.8 218.3C291.7 218.4 290.7 218.3 289.6 218.1C289.8 218 290.1 217.9 290.3 217.7C292.1 216.9 293.8 216.1 295.4 215C295.5 214.9 295.7 214.7 295.7 214.6C295.3 213.4 293.3 213.9 293.8 213.1C294 212.7 294.4 212.3 294.8 212.1C295 212 295.2 211.9 295.4 211.8C296.8 210.9 299.8 211.4 299.8 209.4C299.8 208.9 298.3 208.9 298.3 208.4C298.4 207.9 298.7 207.5 299 207.2C299.4 206.9 299.8 206.5 300.2 206.2C300.5 206 300.7 205.8 300.9 205.6C301.1 205.4 301.2 205.2 301.4 204.9C300.5 204.4 300 204 299.8 203.5C299.7 203.3 299.6 203 299.6 202.8C299.5 202.2 299.8 201.8 299.9 201.4C300.3 199.8 298.3 199.8 297.6 199.8C298.1 199.2 298.6 198.8 299.2 198.5C299.4 198.4 299.6 198.3 299.8 198.2C300.6 197.6 302.1 197.6 302.1 196.4C302.3 195.9 301.1 195.7 301.1 195.4C300.7 193.9 302.3 193.7 303.1 192.8C303.3 192.6 303.4 192.4 303.4 192.2C303.5 192 303.6 191.6 303.6 191.4C303.6 191.2 303.5 191 303.3 191C301.8 190.1 300 190.5 298.4 190.2C297.9 190.1 297.3 189.9 296.8 189.5C297.6 189 298.3 188.5 299.2 188.2C299.5 188 299.7 187.9 300 187.7C300.7 187.2 301.4 186.7 302 186C301.9 185.9 301.7 185.8 301.3 185.8C300.3 185.8 299.3 185.8 298.3 185.8C298.7 185.5 299 185.2 299.4 184.9C299.9 184 300.2 183.7 300.5 183.6ZM88.9004 72.1002C88.8004 72.1002 88.8004 72.1002 88.7004 72.1002L88.6004 72.0002C88.7004 72.1002 88.8004 72.1002 88.9004 72.1002ZM88.9004 72.6002C87.8004 72.6002 87.3004 71.6002 86.5004 70.9002C87.0004 71.2002 87.5004 71.4002 87.9004 71.6002C88.1004 71.9002 88.3004 72.1002 88.6004 72.3002C88.5004 72.4002 89.1004 72.6002 88.9004 72.6002Z" fill="#A3DBF3" stroke="#070707" stroke-width="1.4152" stroke-miterlimit="10"/>
<path opacity="0.47" d="M280.4 171.8C276.3 172.6 271.9 173.9 268.3 175.6C272.3 177.1 277.7 178.7 280.9 180.8C279.1 180.9 277.1 181.9 275.4 182.1C277.7 184.3 281.1 184.7 284.1 185.7C280.3 187.3 276.2 188.4 272.4 189.9C276.4 191.3 280.6 193.2 284.1 195.4C276.3 194.4 268.9 195.8 261.6 198.5C271.2 204.2 284.5 201.8 292 201.6C290.7 204.2 285.9 206 285.4 209.1C288 210.5 291 211.3 293.6 212.7C289.9 214.1 285.9 211.4 282.1 212.2C284.1 216.1 287.5 218.6 289.6 222.3C286.7 219.9 267.1 212 267.1 212V218.4C267.1 218.4 255.9 209 245.9 206.3C246.7 202.9 247.5 199.3 248.1 195.9C249 195.1 249.8 194.3 250.3 193.5C249.7 193.5 249.1 193.6 248.5 193.7C248.8 192 249 190.3 249.2 188.7C255 185.5 261.6 183.1 266 182.5C263.1 178.5 255.5 179.3 252.5 175.9C253 175.6 255.8 172.5 256.3 172.3C254.3 171.8 252 170.9 250.4 170.1C253.1 168.2 257 167.3 260 166C255.8 164.5 251.6 164.3 247.4 165.2C246.8 163.9 246.1 162.6 245.3 161.3C249.5 159.2 253.9 157.4 257.5 154.8C252.8 153.1 247.6 153.6 242.9 152.6C244.2 150.1 241.4 148.3 239.6 146.3C240 145.9 243.7 145 244.2 144.7C241.4 143.3 237.8 143.8 234.6 143.2C235.9 142.1 236.1 141 238 140.2C234.4 140.6 231.5 141.9 228.9 143.5C227.6 142.4 226.3 141.4 225 140.3C229.2 134.4 233.3 128.3 236.5 122.3C233.8 121.8 231 121.6 228.2 121.3C229.2 120.9 230.8 119.8 232 119.5C223.5 116.9 214.3 125.5 205.9 126.7C211.9 121.3 218.9 116.1 224 109.2C230.1 100.7 234.1 96.0003 244.6 93.3003C242.9 94.0003 241.3 95.5003 239.8 96.4003C242.7 98.4003 246.9 98.4003 250.7 97.9003C244 99.9003 235.5 105.2 231.9 111C241.2 106 250.8 103.3 261.3 105.8C256.5 107.2 252.4 108.7 250.7 113.7C248.9 119 251.9 121.7 258.2 119.2C255 123.5 250.6 126.9 247.4 131.4C254.2 135 267.6 125.9 270 119.5C269.1 128.1 270.1 143.6 259.9 148.5C264.3 148.8 268.8 148.7 273.2 148.9C271.7 151 269 152.3 267.6 154.3C271.3 155.4 276.9 154 279.4 156.8C276.3 158.4 272.6 159.2 269.5 160.5C276.8 161.3 283 158.5 288.8 154.4C286.8 162.2 277.3 164.6 270.3 166.9C281 165.9 288.1 169.6 297.4 172.6C298.2 172.9 299 173.1 299.7 173.3C298.6 173.2 297.6 173.1 296.6 172.9C291.1 171.9 286.8 170.5 280.4 171.8Z" fill="white"/>
<path opacity="0.47" d="M203.7 83.0003C205.1 75.3003 207.5 68.2003 212.2 61.9003C208.5 63.8003 204.8 66.5003 201.6 69.4003C202.2 65.3003 203.2 61.2003 203.8 57.2003C201.4 59.3003 199.4 62.0003 196.3 62.9003C197 61.3003 197 59.1003 197.9 57.5003C194.5 59.2003 190.4 63.1003 187.1 65.9003C187.5 61.9003 188.5 57.5003 189.8 53.5003C192.2 46.2003 196.5 43.2003 200.6 37.4003C192.7 44.9003 185.2 49.1003 180.4 59.7003C181.9 52.5003 184.5 43.0003 178.8 37.4003C179.5 44.5003 178.8 51.3003 174.5 57.2003C175 53.8003 176 50.2003 176.2 46.7003C172.6 47.5003 171 53.0003 168.2 55.7003C167.1 53.4003 167.3 50.5003 166.3 48.1003C163.9 51.8003 161.8 55.8003 159.4 59.5003C160.2 48.2003 146.2 41.4003 139.2 36.3003C143.5 41.5003 144.8 57.7003 138.3 61.8003C136 56.9003 135.3 51.4003 133.1 46.4003C132.2 53.1003 128.4 54.3003 124.7 50.2003C121.2 46.3003 121.9 41.9003 123.1 37.1003C115.7 44.9003 113.3 54.6003 113 65.2003C109.8 59.2003 109.3 49.1003 110.9 42.3003C109.4 45.9003 107.3 49.5003 104.2 51.0003C104.1 49.2003 103.6 47.1003 103.9 45.3003C101 55.8003 103.1 61.6003 107.4 71.1003C110.9 78.9003 112 87.6003 113.7 95.5003C116.9 87.6003 114 75.3003 120.4 69.3003C120.1 70.6003 120.3 72.5003 120.1 73.6003C121.7 71.3003 123.3 69.0003 125.1 66.9003C131 76.7003 136.6 88.7003 140.6 99.4003C142 90.9003 137.3 83.4003 141.3 74.5003C141 76.6003 141.9 77.3003 142.2 78.9003C144.3 76.4003 145.7 73.0003 148.3 71.3003C148.3 71.9003 147.3 75.6003 147.4 76.1003C150 75.6003 152.9 74.0003 154.5 76.4003C157.7 72.8003 159.8 68.1003 163.6 64.9003C164.6 74.5003 160.7 85.6003 165.8 94.9003C167.5 92.7003 166.3 87.0003 166.7 83.8003C167.5 77.5003 170 72.3003 174.7 68.3003C174.4 71.5003 173.1 75.3003 173.5 78.6003C175 77.7003 176.9 76.1003 178.3 74.6003C178.3 75.2003 179.6 79.1003 179.6 79.7003C184 78.9003 187.1 71.9003 192 71.3003C188.7 79.2003 187.4 97.0003 191.5 104C192.7 99.4003 191.3 95.0003 193.7 90.5003C196.4 94.7003 193.3 104.6 198.6 107.2C201.6 96.4003 223.8 88.3003 223.8 88.3003L218.2 85.1003C218.2 85.1003 234.9 72.0003 238.3 70.7003C234.1 70.7003 230.2 72.4003 225.8 72.2003C227 68.5003 231.3 66.3003 231.9 62.4003C229.4 63.9003 227.2 66.1003 224.7 67.7003C222.3 65.7003 223.1 60.7003 221.5 58.3003C217.9 64.7003 213.5 77.5003 203.7 83.0003Z" fill="white"/>
<path d="M219.3 239.8C218.8 221.9 219.8 203.7 214.7 202C209.6 200.3 198.5 196.2 198.4 195.7C198.3 195.2 170.4 161.1 170.4 161.1C170.4 161.1 183.6 197.8 192.6 210C194 211.9 195.6 216.6 197.6 217.8C212.6 226.8 206.2 221 210.7 226.2C215.3 231.4 219.3 239.8 219.3 239.8Z" fill="#6D0635"/>
<path d="M217.6 232.9C216.7 220.6 214.8 205.4 210.9 204.1C207 202.8 197.4 196.7 197.2 196.9C195.4 198.3 174.4 169.3 174.4 169.3C174.4 169.3 186.2 198.4 193.5 207.1C194.6 208.4 196 211.7 197.6 212.6C209.5 219.2 204.3 215 208 218.8C211.6 222.4 217.6 232.9 217.6 232.9Z" fill="#F2DFC0" stroke="#070707" stroke-width="1.2502" stroke-miterlimit="10"/>
<path d="M188.601 192.7C188.901 195.4 189.601 197.7 189.601 197.7L192.001 198.1C192.001 198.1 195.401 201.7 197.001 203.2C197.401 203.6 197.701 205.2 197.901 206.8L200.601 213.7L199.201 207.6C199.401 206.8 199.601 206.1 199.601 206.1C201.701 208.6 209.001 217.1 209.001 217.1C209.001 217.1 204.601 209.8 200.701 205.6C200.101 205 197.601 200.4 197.601 200.4L190.501 196.9L188.601 192.7Z" fill="#6D0635"/>
<path d="M145.401 128.8C132.701 135.5 125.801 140 126.501 144.3C127.101 148.5 128.101 158.1 127.801 158.3C127.501 158.5 106.301 192.1 106.301 192.1C106.301 192.1 128.001 169.5 133.501 158.7C134.401 157 137.201 154.2 137.301 152.4C138.401 138.4 136.501 145.1 138.601 140C140.801 134.7 145.401 128.8 145.401 128.8Z" fill="#6D0635"/>
<path d="M138.701 136C130.101 141.1 128.801 143 129.301 146.3C129.801 149.6 128.801 158.6 129.001 158.8C130.601 159.6 110.701 186.4 110.701 186.4C110.701 186.4 127.401 167.6 131.101 159.2C131.701 157.9 133.501 155.7 133.601 154.3C134.101 143.4 133.001 148.6 134.301 144.6C135.601 140.5 138.701 136 138.701 136Z" fill="#F2DFC0" stroke="#070707" stroke-width="1.0041" stroke-miterlimit="10"/>
<path d="M125.001 383.2C123.701 383.5 110.501 386.8 109.301 387.1C108.101 385.3 108.401 383.5 108.401 383.5L124.101 379.6C124.101 379.6 124.801 380.8 125.001 383.2Z" fill="#FFAB17"/>
<path d="M208.9 219.9C209.1 223 211.1 225.4 211.1 225.4C211.1 225.4 206.8 228.9 208 233.3C209.2 237.8 209.4 237.1 209.4 237.1C209.4 237.5 208.5 239.3 208.3 239.7L205.2 243.9C201.1 243.7 201.6 236.4 205.3 229.4C209.2 222 205.4 215.1 203.5 209C205.4 208.7 207.5 207.8 207.5 207.8C208.4 208.1 210.3 208.3 210.3 209.2L211.8 214.5C211.7 214.6 208.7 216.8 208.9 219.9Z" fill="#66082E"/>
<path d="M207.1 219.9C207.3 223 209.3 225.4 209.3 225.4C209.3 225.4 205 228.9 206.2 233.3C207.4 237.8 208.6 238.6 208.6 238.6C208.6 239 208.5 239.4 208.2 239.7L207.5 240.7L190.4 263.5C190.1 263.8 189.8 264.1 189.4 264.2L180.4 266.9C179.9 267.1 174.4 267.3 173.4 267L173.2 266.8L169.3 262.5L170.1 256.7L169.6 227.8L166.8 226.9L182.5 213.3C184.7 211.4 187.4 210.2 190.2 209.8C194.7 209.1 201.5 208.2 205.5 207.7C207.4 207.4 208.7 207.3 208.7 207.3C209.6 207.6 210.1 208.4 210.1 209.2L209.8 214.5C210 214.6 207 216.8 207.1 219.9Z" fill="#5A5EAF"/>
<path d="M171.5 261.7L173.3 266.8V266.9H173.4C174.4 267.2 179.8 266.9 180.4 266.8L189.4 264.1C189.8 264 190.2 263.7 190.4 263.4L208.2 239.6C208.4 239.3 208.6 238.9 208.6 238.5C208.6 238.5 207.3 237.7 206.2 233.2C205 228.7 209.3 225.3 209.3 225.3C209.3 225.3 207.2 222.9 207.1 219.8C206.9 216.7 209.9 214.5 209.9 214.5L210.2 209.2C210.2 208.3 209.7 207.5 208.8 207.3C208.8 207.3 197 208.8 190.3 209.8C187.4 210.2 184.8 211.4 182.6 213.3L166.9 227L166 227.7" stroke="black" stroke-width="1.4152" stroke-miterlimit="10"/>
<path d="M204.2 216.3C204.2 216.3 200.9 233.5 199.8 235.6L191.8 252.4C191.5 253 191 253.6 190.4 253.9L183.6 257.3C183.4 257.4 183.3 257.4 183.1 257.5L175.9 259.8L180.2 247.9C180.9 246 179.8 244 177.9 243.4L171.4 241.5L186.4 222.3C187.3 221.1 188.6 220.2 190 219.6L202.6 214.7C203.4 214.5 204.2 215.3 204.2 216.3Z" fill="#323768"/>
<path d="M204.2 216.3C204.2 216.3 200.9 233.5 199.8 235.6L191.8 252.4C191.5 253 191 253.6 190.4 253.9L183.6 257.3C183.4 257.4 183.3 257.4 183.1 257.5L175.9 259.8L180.2 247.9C180.9 246 179.8 244 177.9 243.4L171.4 241.5L186.4 222.3C187.3 221.1 188.6 220.2 190 219.6L202.6 214.7C203.4 214.5 204.2 215.3 204.2 216.3Z" stroke="black" stroke-width="1.4152" stroke-miterlimit="10" stroke-linejoin="bevel"/>
<path d="M198.4 198.6C198.6 198.6 198.8 198.7 199.1 198.8L198.4 198.6Z" fill="#66082E"/>
<path d="M175.5 275.6C171.5 274.4 169.2 270.2 170.4 266.3C171.6 262.3 175.8 260 179.7 261.2L179.1 263.2C176.2 262.3 173.2 264 172.3 266.9C171.4 269.8 173.1 272.8 176 273.7C178.9 274.6 181.9 272.9 182.8 270C183.1 269 183.1 267.9 182.8 266.9L184.8 266.3C185.2 267.7 185.2 269.2 184.8 270.5C183.6 274.5 179.4 276.8 175.5 275.6Z" fill="#FFAB17"/>
<path d="M178.2 274.8C174.2 273.6 171.9 269.4 173.1 265.5C174.3 261.5 178.5 259.2 182.4 260.4L181.8 262.4C178.9 261.5 175.9 263.2 175 266.1C174.1 269 175.8 272 178.7 272.9C181.6 273.8 184.6 272.1 185.5 269.2C185.8 268.2 185.8 267.1 185.5 266.1L187.5 265.5C187.9 266.9 187.9 268.4 187.5 269.7C186.3 273.7 182.1 275.9 178.2 274.8Z" fill="#FFAB17"/>
<path d="M180.9 274C176.9 272.8 174.6 268.6 175.8 264.7C177 260.7 181.2 258.4 185.1 259.6L184.5 261.6C181.6 260.7 178.6 262.4 177.7 265.3C176.8 268.2 178.5 271.2 181.4 272.1C184.3 273 187.3 271.3 188.2 268.4C188.5 267.4 188.5 266.3 188.2 265.3L190.2 264.7C190.6 266.1 190.6 267.6 190.2 268.9C189 272.9 184.8 275.2 180.9 274Z" fill="#FFAB17"/>
<path d="M159.101 348.6C158.201 345.9 157.001 343.8 157.001 343.8L154.501 343.9C154.501 343.9 150.301 341.1 148.401 339.9C147.901 339.6 147.301 338.1 146.701 336.5L142.501 330.1L145.201 335.9C145.101 336.8 145.101 337.5 145.101 337.5C142.401 335.4 133.301 328.5 133.301 328.5C133.301 328.5 139.301 334.9 144.101 338.2C144.801 338.7 148.301 342.7 148.301 342.7L156.201 344.7L159.101 348.6Z" fill="#6D0635"/>
<path d="M164.201 410.2C165.301 412.8 166.901 415.2 168.601 415.8C170.301 416.4 174.501 416.7 173.501 413C172.501 409.3 172.801 409.5 171.601 406.6C170.401 403.7 162.801 406.8 164.201 410.2Z" fill="#7A81BC"/>
<path d="M132.7 420.2C134.9 422 135.8 421.9 137.5 421.6C139.2 421.3 141.7 418.7 139.1 415.9C139.1 415.9 139.9 415.6 137.6 413.6C135.2 411.6 129.9 417.8 132.7 420.2Z" fill="#7A81BC"/>
<path d="M109 407C110.7 408.3 112.7 408.8 113.9 408.6C115.1 408.4 116.7 406.4 114.7 404.4C114.7 404.4 115.3 404.2 113.5 402.7C111.7 401.2 106.9 405.3 109 407Z" fill="#7A81BC"/>
<path d="M173.7 362.1C177.7 368.4 181.8 366.5 183 366.3C184.2 366.1 179.5 362 177.7 360.6C175.9 359.1 172.2 359.8 173.7 362.1Z" fill="#7A81BC"/>
<path d="M140.4 440.8H299.9" stroke="black" stroke-width="1.4253" stroke-miterlimit="10"/>
<path d="M18.7999 137.9C20.0999 137 21.5999 136.1 23.0999 135.3L27.6999 132.6C29.4999 131.5 31.5999 130.5 33.3999 129.4C34.9999 128.5 36.7999 127.5 38.2999 126.5C41.3999 124.7 44.3999 122.7 47.4999 120.9C49.5999 119.6 51.8999 118.5 54.0999 117.4L56.0999 116.1C58.5999 114.7 61.0999 113.3 63.3999 111.8C65.9999 110.2 68.5999 108.7 70.7999 106.9C72.6999 105.4 74.5999 104.6 76.6999 104L80.6999 103.1C82.2999 102.7 83.0999 103.1 83.5999 104.3C84.2999 105.5 84.0999 107.1 82.9999 107.9C80.1999 110.2 77.4999 112.5 74.5999 114.6C73.0999 115.8 71.3999 116.7 69.5999 117.4C67.5999 118 66.0999 119.2 64.3999 120.4C60.0999 123.6 55.7999 126.9 51.2999 130.1C48.6999 131.8 46.0999 133.2 43.4999 134.8C41.3999 136.1 39.4999 137.5 37.5999 138.8L35.5999 140.1C33.5999 141.7 31.5999 143.2 29.4999 144.7C25.8999 147.2 22.1999 149.7 17.9999 151.5C17.0999 152 16.1999 152.2 15.1999 152.6C12.8999 153.4 10.7999 154.8 8.89994 156.4C7.69994 157.2 6.19994 157.9 4.69994 158.5C3.69994 158.9 2.69994 158.4 2.09994 157.4C0.399943 154.7 -0.400057 151.9 1.09994 148.8C1.59994 147.9 1.89994 146.8 2.29994 145.9C2.59994 145.3 2.59994 144.7 2.89994 144.2C3.69994 142.3 4.69994 140.4 5.49994 138.4C6.19994 137 6.39994 135.5 6.89994 134.2C7.89994 131.2 9.49994 128.6 11.2999 125.9C12.7999 123.9 14.1999 121.6 15.0999 119.2C16.5999 115.5 18.5999 112 20.7999 108.4C22.1999 105.9 23.5999 103.3 24.7999 100.5C26.1999 97.0001 28.4999 93.9001 30.3999 90.7001C32.2999 87.3001 33.9999 83.9001 35.7999 80.5001C36.5999 78.9001 37.3999 77.5001 38.2999 76.2001C40.9999 72.2001 43.7999 68.3001 46.5999 64.4001C47.3999 63.1001 47.9999 61.9001 48.5999 60.9001L39.3999 67.0001C37.5999 68.1001 35.5999 69.3001 33.5999 70.5001C32.4999 71.2001 31.4999 71.8001 30.4999 72.4001L22.6999 77.5001C20.4999 79.0001 18.1999 80.3001 15.7999 81.8001C14.1999 82.7001 12.4999 82.3001 10.8999 81.8001C9.79994 81.5001 9.49994 79.7001 10.1999 78.7001C11.0999 77.7001 11.9999 76.6001 12.9999 75.8001C18.7999 70.7001 25.1999 66.2001 30.6999 60.8001C32.9999 58.6001 35.8999 57.0001 38.8999 55.6001C41.1999 54.7001 43.3999 53.5001 45.4999 52.1001L54.6999 46.3001C55.9999 45.4001 57.1999 44.3001 58.3999 43.4001L61.3999 41.3001C63.1999 40.1001 66.3999 39.9001 68.5999 42.1001C69.4999 43.1001 69.6999 44.5001 69.0999 45.8001C68.8999 46.7001 68.3999 47.6001 67.7999 48.2001C65.6999 49.9001 64.4999 52.3001 63.0999 54.6001C61.3999 57.5001 59.4999 60.3001 57.5999 63.1001C55.6999 66.0001 53.8999 69.0001 52.3999 72.1001C50.0999 76.9001 47.0999 81.5001 43.8999 85.9001C41.7999 88.9001 39.4999 91.8001 37.4999 94.7001C36.7999 95.8001 36.2999 97.2001 35.8999 98.6001C34.8999 101.5 33.6999 104.4 31.9999 107.2C30.0999 110.1 29.1999 113.6 28.2999 117C27.2999 120.4 25.6999 123.6 23.8999 126.5C22.8999 128.1 21.9999 130 21.1999 131.9C20.4999 133.6 19.6999 135.3 18.8999 137L18.7999 137.9Z" fill="#FFAB17"/>
<path d="M86.5 52.7003C89.8 53.2003 91.7 54.6003 91.8 58.1003C92.1 61.4003 91.9 64.7003 91.6 67.8003C91.3 71.2003 90.3 74.5003 89.6 77.7003C89.3 79.0003 89.4 80.5003 89.2 81.7003C88.9 85.8003 88.8 89.8003 88.6 93.7003C88.5 97.6003 88.5 101.5 88.9 105.4C89 109 90.5 112 93.2 114.5C93.7 115.1 94.1 115.8 94.6 116.3C95.8 117.7 97 117.8 98.3 116.5C99.8 115 100.9 113.5 101.1 111.4C101.3 109.1 101.5 106.5 101.9 104.2C102.1 101.2 102.6 98.2003 103.9 95.5003C104.4 94.1003 105.3 92.8003 105.8 91.3003C107.2 87.5003 108.4 83.5004 109.9 79.6003C111.7 75.1003 112.1 70.3003 111.7 65.4003C111.1 62.3003 110.9 59.2003 110.5 56.2003C110.2 55.0003 110 53.9003 108.7 53.8003C107.4 53.7003 105.8 54.2003 105.6 55.6003C104.8 57.0003 103.8 58.1003 102.5 58.8003C101.3 59.5003 99.1 59.1003 98.6 57.6003C97.9 55.9003 97.6 54.3003 97.2 52.7003C97.2 51.3003 97.9 50.3003 99.1 49.2003C102.3 46.7003 105.8 46.8003 109 47.8003C111.9 48.7003 113.8 50.9003 116 52.7003C118.7 55.6003 120.7 58.6003 122.3 62.0003C123.8 66.1003 124.2 70.4003 124.2 74.7003C123.7 80.0003 123.3 85.7003 123.2 90.9003C122.9 93.9003 122.2 96.6003 120.7 98.9003C119.2 101.3 118.8 104.1 118.2 106.9C117.1 111.9 116 116.9 114.7 121.8C114.7 122.6 114.1 123.6 113.5 124.6C112.9 125.7 112 127.2 111.5 128.6C110.5 130.9 108.3 132 105.6 131.7C102.6 131.5 99.5 131.3 96.6 131.1C94 130.8 91.7 129.7 89.9 128C87.5 126.2 85.3 124.2 83.2 122.4C83 122 82.6 121.7 82.5 121.3C81.8 118.8 81 116.5 80.4 113.9C80 112.3 79.9 110.5 79.5 108.7C77.4 102.5 76.8 95.9003 77.8 89.2003C78.7 83.7003 79.1 78.4003 79.9 72.9003C80.2 70.3003 80.5 68.0003 81.2 65.5003C81.4 64.5003 81.8 63.1003 82.2 62.1003C83.1 59.2003 84.2 56.6003 85 54.1003C85.4 53.4003 85.7 53.1003 86.5 52.7003Z" fill="#FFAB17"/>
<path d="M155.1 73.9004C154.4 76.4004 153.399 78.9004 153 81.5004C152.399 85.0004 152.299 88.5004 152 92.1004C152 92.5004 151.8 93.1004 151.8 93.7004L151 98.8004C150.799 100.4 150.6 102 150.5 103.5C150.5 103.9 142 112.2 141.6 107.9C141.2 103.5 141.399 101.9 139.899 99.1004C138.199 95.4004 136.7 91.8004 136.1 87.8004C135.8 85.6004 135.199 83.7004 134.699 81.5004L134.199 81.6004C133.099 85.3004 131.699 89.2004 131.899 93.0004C131.899 95.1004 132.3 97.1004 131.6 98.9004C130.6 101.9 131.2 105 130.6 108.1C130.1 111.6 130.399 115.1 130.199 118.5C130.199 119.8 129.799 121 129.199 121.9C128.899 122.5 127.799 122.9 126.999 122.7C124.599 122.1 123.299 121 122.999 118.1C122.499 114 122.4 109.8 122.6 105.8C122.7 103.8 122.599 101.9 122.699 99.9004C122.799 98.3004 123.299 96.8004 123.499 95.4004C123.699 93.0004 123.7 90.6004 123.8 88.2004C123.8 87.8004 123.9 87.3004 124.1 87.0004C125.5 83.8004 125.099 80.5004 125.499 77.0004L125.699 75.8004C127.799 71.7004 127.5 67.1004 128.1 62.8004C128.4 59.4004 128.799 55.8004 129.899 52.6004C129.999 52.0004 130.3 51.4004 130.3 50.8004C130.5 48.4004 131.999 47.2004 134.199 46.6004C135.199 46.2004 136.799 46.9004 137.199 48.0004C137.699 50.1004 138.2 52.4004 138.8 54.5004L139.1 56.0004C139.7 58.5004 140.3 61.2004 140.8 63.7004L142.6 71.7004C142.7 72.4004 142.8 73.1004 142.8 73.8004C143 76.7004 143.299 79.6004 143.399 82.5004C143.799 81.2004 144.099 79.8004 144.399 78.7004C144.599 77.8004 145 77.0004 145.1 76.2004C145.7 72.6004 145.7 68.9004 147 65.4004C148.299 61.9004 148.399 58.0004 149 54.2004C149.399 50.5004 149.799 46.7004 151.199 43.1004C151.599 41.9004 151.899 40.4004 152.399 39.2004C153.499 37.3004 156.5 36.5004 158.3 37.5004C158.6 37.7004 159 38.0004 159 38.3004C159.9 40.6004 160.899 42.9004 160.899 45.4004C160.799 46.3004 161.299 47.0004 161.5 47.9004C162.099 50.4004 162.5 52.9004 163 55.4004C163.5 58.2004 164.099 60.9004 164.699 63.5004C164.799 64.2004 165 64.7004 165 65.4004C164.5 70.5004 165.6 75.5004 167.3 80.4004C168.3 83.4004 168.8 86.4004 169.6 89.4004C169.9 89.9004 170 90.6004 170.3 91.1004C172.6 95.9004 175.099 100.5 177.399 105.3C177.999 106.3 178.9 107.2 179.5 108.3C179.9 109 180.299 109.9 180.199 110.7C180.099 111.6 179.399 112 178.399 112.1C177.199 112.4 176.199 112.7 174.899 112.7C172.699 112.9 171.2 111.6 170 110C168.9 108.3 168.1 106.4 167.1 104.5L163.199 96.7004C162.399 94.8004 161.799 93.0004 161 91.1004C160.7 90.3004 160.1 89.5004 159.8 88.7004C159 85.9004 158.099 83.2004 157.5 80.4004C156.7 78.3004 156.4 76.0004 155.1 73.9004Z" fill="#FFAB17"/>
<path d="M192.1 0.200195C193.7 0.500195 193.9 1.9002 194.3 3.2002C195.1 6.2002 194.4 9.10019 194.1 12.1002C193.7 15.7002 193.4 19.4002 193.1 23.0002C193 25.5002 192.7 28.1002 192.6 30.7002C192.4 33.7002 192.5 36.6002 192.5 39.4002L192.6 39.8002C193.9 38.7002 195.1 37.4002 196.6 36.3002C196.8 36.1002 197.2 36.0002 197.6 35.9002C197.9 35.8002 198.1 35.8002 198.4 35.6002C200.1 34.5002 201.7 33.5002 203.4 32.5002C204 32.2002 204.9 32.2002 205.6 32.3002C208.6 32.5002 211.6 32.8002 213.9 34.9002C215.3 36.0002 216.4 37.4002 217.4 38.9002C218.5 40.5002 219.2 42.1002 220 43.8002C220.4 44.5002 220.5 45.5002 220.6 46.5002C220.6 47.9002 220.4 49.3002 220.3 50.8002C220.4 51.1002 220.3 51.4002 220.2 51.7002C219.4 54.4002 218.5 57.0002 217.5 59.7002L216.5 63.3002C215.7 68.4002 214 73.2002 211.7 77.9002C210.8 79.9002 210.1 82.0002 209.3 84.2002C207.6 89.2002 205.8 94.2002 202.8 98.7002C201.8 100.3 200.7 102 198.7 102.7C198.2 102.8 197.8 103.7 197.4 104.3C196.7 105 196.2 105.8 195.5 106.4C194.6 107.2 193.5 107.4 192.1 107C190.7 106.3 189.1 106.1 187.5 105.7L184.2 104.6C184.2 105.2 184 105.8 183.9 106.3C183.7 107.3 183.6 108.5 183.2 109.4C182.9 110.5 182 110.8 181 110.7C180 110.6 179.4 109.8 179.5 108.9C179.3 105.5 179.2 102 179.1 98.6002C179.1 98.2002 179.2 97.6002 179.1 97.3002C178 95.5002 177.6 93.6002 177.6 91.5002L179.1 74.1002C179.2 73.1002 179.5 72.1002 179.9 71.0002C181.1 68.2002 181.2 65.4002 180.9 62.4002C180.7 58.5002 180.8 54.7002 182 51.0002C183.1 46.7002 183 42.4002 183.1 38.0002C183.3 33.5002 183.8 28.9002 183.5 24.3002C183.4 23.8002 183.6 23.3002 183.6 22.7002C184.2 19.9002 185 16.9002 185.3 14.1002C185.7 11.4002 186 8.50019 185.5 5.70019C185.4 5.20019 185.3 4.60019 185.4 4.00019C185.4 3.60019 185.9 3.20019 186.3 2.80019C187.5 1.40019 189.3 1.30019 191 0.600193L192.1 0.200195ZM188.3 91.4002C188.3 91.4002 188.2 91.4002 188.2 91.6002C188.4 91.8002 188.5 92.4002 188.8 92.4002C189.7 92.9002 190.7 92.9002 191.5 92.1002C192.3 91.4002 193.1 90.5002 193.8 89.5002C197.8 84.4002 201.2 78.8002 204.5 73.1002C208 67.0002 210.8 60.5002 212.3 53.6002C212.6 52.0002 212.5 50.2002 212.6 48.5002C212.6 46.4002 211.3 44.6002 211.7 42.4002C211.7 42.3002 211.2 41.8002 210.7 41.8002C209 40.9002 207.6 42.1002 206.2 43.0002C204.5 44.0002 203.1 45.2002 201.4 46.5002C199.7 47.9002 198.1 49.2002 196.2 50.3002C194.6 51.4002 193.8 52.7002 193.5 54.4002C192.7 57.7002 192.1 61.1002 190.8 64.1002C188.6 69.2002 188.1 74.6002 187.8 80.0002C187.6 82.1002 187.5 84.3002 187.3 86.4002C187 87.7002 187 89.0002 187.9 90.2002C188.1 90.5002 188.2 91.0002 188.3 91.4002Z" fill="#FFAB17"/>
<path d="M232.5 25.8003C233.8 25.5003 234.6 26.0003 235.2 27.2003C235.9 28.9003 236.2 30.6003 235.7 32.5003C234.7 35.5003 234.6 38.8003 234.5 42.0003C234.5 42.7003 234.4 43.6003 234.3 44.4003C234.2 45.8003 234.1 47.2003 234.2 48.8003C234.5 52.6003 234.3 56.5003 233.6 60.4003C232.5 65.7003 231.9 70.8003 231 76.1003C230.5 78.9003 229.7 81.7003 229.2 84.5003L227.1 97.7003C226.8 99.6003 226 100.5 224.4 100.5C223.3 100.7 222.5 100.2 222.4 99.3003C222.1 97.4003 221.8 95.4003 221.9 93.5003C222 90.1003 220.4 85.9003 222.7 83.4003C226.4 79.4003 223.7 74.2003 222.6 69.3003C222.1 66.9003 222.3 64.5003 223.2 62.2003C224.2 59.3003 224.1 56.1003 224.1 53.1003C224.1 50.0003 224.5 46.9003 224 43.8003C223.9 43.5003 224 43.2003 224.1 42.9003C224.5 41.1003 225.2 39.3003 225.4 37.6003C225.7 35.4003 225.7 33.3003 225.8 31.2003C225.8 30.6003 225.7 30.2003 225.5 29.7003C225.3 28.9003 225.5 28.3003 226.5 27.9003C227.8 27.5003 229.2 26.7003 230.4 26.0003C230.4 26.1003 230.4 26.1003 230.6 26.2003L232.5 25.8003ZM234.7 7.80029C236.8 8.30029 237 8.70029 236.6 10.9003C236.1 14.2003 235.7 17.7003 235.2 21.0003C235.1 21.9003 234.7 22.4003 233.9 22.6003C232.4 22.9003 230.9 23.4003 229.4 23.6003C228.5 23.8003 227.4 23.6003 226.5 23.6003C226.2 23.5003 225.8 23.2003 225.9 22.9003C225.8 21.8003 225.7 20.7003 225.7 19.7003L226.9 13.8003C227 13.6003 227 13.5003 226.9 13.4003C226.4 11.7003 227.6 9.60029 229.2 9.30029C230.1 9.10029 231 8.70029 231.8 8.60029L234.7 7.80029Z" fill="#FFAB17"/>
<path d="M271.1 5.6001C275.3 5.6001 278.3 8.2001 281.1 10.8001C283 12.5001 283.6 14.4001 283.2 17.0001C282.5 23.3001 278.5 27.3001 274.2 31.2001C268.6 36.5001 262.6 41.6001 256.9 47.0001C255.2 48.6001 253.6 50.5001 251.3 51.5001C251 51.6001 250.8 51.9001 250.8 52.2001C249.8 55.2001 248.4 58.2001 248.3 61.4001C248.2 63.6001 249.3 65.7001 249.8 67.6001C250.4 69.6001 251.5 71.0001 252.8 72.2001C253.7 73.2001 254.6 73.5001 255.9 72.9001C258.7 71.7001 261.3 70.0001 262.9 67.4001C263.6 66.3001 264.8 65.4001 265.7 64.5001C267.2 63.0001 268.7 61.6001 269.8 59.9001C271.9 57.5001 273.7 55.0001 275.8 52.5001C276.7 51.5001 277.9 50.8001 279 50.0001C280.6 48.9001 282.2 48.0001 283.9 47.1001C284.6 46.7001 285.6 46.4001 286.3 47.3001C287 48.1001 287.1 49.1001 286.6 50.0001C283.7 55.3001 281.4 61.0001 277.4 65.5001C274 69.5001 271.8 74.0001 269 78.3001C267.6 80.3001 266.2 82.0001 264.1 83.4001C263.1 84.0001 262.2 84.9001 261.4 85.8001C259.6 87.7001 257.3 88.1001 255 87.0001C252.3 85.8001 249.6 84.7001 246.9 83.4001C244.7 82.4001 243.1 80.6001 241.9 78.4001C240.5 75.9001 239.1 73.4001 237.8 70.9001L237.6 69.8001C237.7 67.3001 237.9 64.8001 238.2 62.4001C238.4 60.7001 238.8 59.0001 238.9 57.4001C239.4 51.0001 241 44.9001 244 39.2001C246.4 34.9001 248.5 30.5001 250.6 26.1001C252 23.1001 253.5 20.3001 255.6 17.7001C256.9 16.1001 258.2 14.5001 259.1 12.7001C260 11.1001 261 9.9001 262.6 9.0001C263.8 8.2001 265.1 7.5001 266.3 6.6001L271.1 5.6001ZM252.5 40.3001C252.5 40.3001 252.7 40.4001 252.8 40.4001C256.3 37.9001 259.8 35.6001 263.3 33.1001C265.4 31.7001 267.1 30.0001 268.6 27.9001C269.3 26.8001 270.5 25.8001 271.4 24.6001L275.5 18.1001C276 17.2001 275.6 16.5001 274.7 16.2001C274.1 15.9001 273.5 15.6001 272.9 15.6001C270.3 15.8001 267.9 16.9001 266 18.4001C263.6 20.2001 262.1 22.8001 260.5 25.2001C258 29.5001 255.5 34.0001 253 38.5001C252.6 39.0001 252.7 39.7001 252.5 40.3001Z" fill="#FFAB17"/>
</svg>
