<svg width="605" height="763" viewBox="0 0 605 763" fill="none" xmlns="http://www.w3.org/2000/svg">
<path d="M592.41 661.636C592.186 660.628 591.962 659.563 591.683 658.555C590.453 653.736 588.944 648.917 587.155 644.322C584.528 637.654 581.342 631.267 577.764 625.159C575.361 619.892 572.789 614.401 569.939 608.629C567.87 604.427 565.746 600.112 563.622 595.91C559.541 587.841 555.964 580.557 552.89 574.113C551.38 571.031 549.983 568.118 548.585 565.26C548.418 564.924 548.25 564.587 548.026 564.251C545.623 559.881 540.424 552.989 533.493 543.743C518.009 523.123 494.532 491.913 478.936 457.733L477.762 455.211L475.638 456.948C472.62 459.47 469.433 461.935 466.191 464.457C465.241 461.095 464.347 457.733 463.564 454.315C461.775 446.638 460.378 438.906 459.484 431.117L478.545 414.307L479.216 385.843L493.078 363.037C494.196 364.606 495.482 366.007 496.935 367.128C498.78 368.584 500.848 369.593 502.917 370.153H502.972C503.811 370.377 504.649 370.49 505.488 370.602C505.6 370.602 505.711 370.602 505.823 370.602C506.159 370.602 506.494 370.658 506.829 370.658C509.792 370.658 512.81 369.817 515.661 368.08C521.475 364.55 526.002 357.602 528.406 348.525C528.741 347.292 529.021 345.947 529.245 344.546C531.425 341.24 533.269 337.374 534.611 333.116C538.132 321.909 538.524 308.405 535.729 292.996L531.201 300.785C532.543 311.991 531.928 321.237 530.027 328.689C529.748 321.685 528.853 314.232 527.568 307.004L523.431 314.233C524.884 322.077 525.332 328.465 524.996 334.236C524.94 335.525 524.829 336.758 524.661 337.99C524.493 339.223 524.326 340.456 524.102 341.633C524.046 341.801 524.046 341.969 523.99 342.137C521.698 345.387 519.127 347.796 516.388 349.421C511.022 352.671 505.32 352.839 500.96 349.925L547.803 272.824L551.716 219.761L532.766 182.555L532.822 180.426L589.838 110.329L590.118 109.768L601.577 65.8947L600.403 64.1016L464.458 44.8823L316.44 17.8745L286.982 0.1681L285.975 0L160.484 24.8226C146.509 27.176 133.429 29.2492 121.914 31.0422C40.638 43.9298 10.2294 48.7486 9.894 89.8207L8.55242 140.082L0 170.788L0.111786 171.853C0.447176 172.525 8.60831 187.766 12.8007 193.201L14.8689 193.426C14.9248 193.37 18.7818 190.064 24.9306 187.262L24.2039 188.775L24.2598 189.223C28.1168 218.808 43.0417 232.312 48.4638 235.002C49.1905 235.338 49.8053 235.506 50.3084 235.506C50.9792 235.506 51.4823 235.282 51.8736 235.058C53.6623 233.881 53.6064 230.968 53.6064 230.351V230.127C53.5505 229.791 47.5694 198.525 61.0968 189.111C61.544 189.391 61.9912 189.671 62.4383 190.008C63.724 190.848 65.0097 191.632 66.3512 192.361C67.0779 198.749 68.6989 204.8 71.2703 210.516C75.0713 219.145 79.9345 224.58 82.2263 226.429C83.4002 227.382 84.4063 227.662 85.2448 227.662C85.6361 227.662 85.9715 227.606 86.3069 227.494C88.4869 226.765 89.2136 224.076 89.3254 223.739L89.3813 223.459C89.3813 223.235 90.2198 211.916 95.027 201.999C96.5363 202.279 97.9896 202.559 99.443 202.783C100.226 205.417 101.12 207.994 102.238 210.46C104.194 214.83 106.374 218.416 108.387 221.05C108.331 221.33 108.275 221.554 108.219 221.834C106.766 228.782 105.368 235.73 104.083 242.678C102.797 249.739 102.014 256.967 102.07 264.195C102.126 271.423 102.909 278.652 104.53 285.712C105.368 289.242 106.318 292.716 107.548 296.134C108.722 299.552 110.12 302.914 111.629 306.164C114.647 312.72 118.392 318.883 122.473 324.767C124.485 327.68 126.609 330.594 128.79 333.396C130.914 336.197 133.094 338.999 135.106 341.801C136.112 343.201 137.007 344.658 137.733 346.059C138.069 346.788 138.348 347.46 138.404 348.076L138.46 348.301C138.46 348.413 138.46 348.469 138.46 348.581L138.516 349.197C138.516 349.589 138.516 349.981 138.516 350.43C138.404 353.68 137.566 357.098 136.615 360.348C135.609 363.654 134.323 366.903 132.982 370.097C131.584 373.291 130.131 376.485 128.51 379.623C125.324 385.899 121.914 392.006 118.281 398.058C116.492 401.083 114.591 404.053 112.691 407.023C111.741 408.48 110.79 409.993 109.84 411.45L106.877 415.932C105.927 417.557 105.2 419.238 104.697 421.143C104.474 422.096 104.306 423.048 104.25 424.057C104.25 425.066 104.362 426.13 104.809 427.139C105.033 427.643 105.312 428.147 105.648 428.54L106.151 429.1L106.654 429.604C107.325 430.277 107.995 430.837 108.666 431.453C110.008 432.63 111.405 433.751 112.803 434.871C115.598 437.057 118.392 439.242 121.243 441.371C124.094 443.5 126.945 445.518 129.516 447.815C130.802 448.936 132.032 450.168 133.094 451.457C133.653 452.073 134.1 452.746 134.491 453.418C134.715 453.754 134.882 454.091 134.994 454.427C135.05 454.595 135.106 454.763 135.162 454.875C135.218 455.043 135.218 455.211 135.274 455.379C135.33 456.108 135.33 456.948 135.274 457.789C135.218 458.629 135.106 459.47 134.938 460.31C134.659 461.991 134.268 463.728 133.876 465.409C133.038 468.827 132.088 472.189 131.193 475.663C130.97 476.504 130.746 477.4 130.578 478.297L130.411 478.969C130.411 479.137 130.355 479.025 130.355 479.642C130.411 480.146 130.634 480.538 130.802 480.706C131.025 480.93 131.193 481.042 131.305 481.154C131.473 481.267 131.584 481.323 131.752 481.379C132.032 481.491 132.255 481.603 132.535 481.715C133.485 482.051 134.379 482.219 135.33 482.387C136.112 482.499 136.895 482.611 137.621 482.723L137.454 484.068L137.342 484.965L137.286 485.413L137.23 485.917C137.174 486.59 137.174 487.318 137.23 487.991C137.398 490.792 138.404 493.538 140.137 495.723C140.584 496.283 141.031 496.788 141.534 497.292L142.82 498.525L145.391 500.99L150.31 505.585C151.764 508.667 153.273 511.692 154.838 514.718L161.993 600.28H177.142L214.873 557.864C214.873 557.864 254.393 543.743 287.82 527.55C297.546 530.968 306.714 536.683 315.21 544.472C324.377 552.933 332.762 563.971 340.141 577.195C348.134 591.483 353.165 605.323 355.792 613.672C354.059 617.875 351.712 620.788 348.749 622.301C343.215 625.159 337.178 622.357 337.122 622.301L334.998 621.293L334.216 623.534C316.775 673.347 290.559 747.479 285.808 758.349C285.64 758.685 285.416 759.078 285.249 759.414L280.218 763H283.404H286.926H288.994H604.595L604.763 761.039C604.595 760.535 608.173 711.114 592.41 661.636ZM507.891 357.602C511.693 357.602 515.661 356.481 519.351 354.24C519.798 353.96 520.189 353.68 520.636 353.399C518.624 357.826 515.885 361.188 512.699 363.093C512.475 363.261 512.196 363.373 511.916 363.541C511.86 363.598 511.748 363.597 511.693 363.654C511.525 363.766 511.357 363.822 511.189 363.878C511.078 363.934 510.966 363.934 510.91 363.99C510.742 364.046 510.575 364.102 510.463 364.158C510.351 364.214 510.239 364.214 510.127 364.27C509.96 364.326 509.848 364.382 509.68 364.438C509.568 364.494 509.457 364.494 509.345 364.55C509.177 364.606 509.065 364.606 508.898 364.662C508.786 364.662 508.674 364.718 508.562 364.718C508.395 364.718 508.283 364.774 508.115 364.774C508.003 364.774 507.891 364.774 507.78 364.83C507.612 364.83 507.5 364.83 507.332 364.886C507.221 364.886 507.109 364.886 506.997 364.886C506.885 364.886 506.718 364.886 506.606 364.886C506.438 364.886 506.326 364.886 506.159 364.886C506.047 364.886 505.935 364.886 505.767 364.83C505.6 364.83 505.488 364.774 505.32 364.774C505.208 364.774 505.096 364.718 504.985 364.718C504.817 364.662 504.705 364.662 504.538 364.606C504.426 364.55 504.314 364.55 504.202 364.494C504.034 364.438 503.923 364.382 503.755 364.382C503.643 364.326 503.531 364.326 503.42 364.27C503.252 364.214 503.14 364.158 502.972 364.102C502.861 364.046 502.749 363.99 502.637 363.99C502.469 363.934 502.357 363.822 502.19 363.766C502.078 363.71 501.966 363.654 501.91 363.597C501.743 363.485 501.575 363.373 501.407 363.317C501.351 363.261 501.24 363.205 501.184 363.149C500.96 362.981 500.681 362.813 500.457 362.645C498.948 361.468 497.55 359.787 496.432 357.602L498.109 354.856C501.016 356.649 504.37 357.602 507.891 357.602Z" fill="black"/>
</svg>
