<svg width="42" height="32" viewBox="0 0 42 32" fill="none" xmlns="http://www.w3.org/2000/svg">
<path d="M39.8278 0.0103354C39.4078 -0.0339146 38.9428 0.0693357 38.5378 0.216836C26.3278 4.53859 14.1178 8.86034 1.90782 13.1821C1.29282 13.4033 0.857824 13.7426 0.857824 14.4211C0.842824 15.0258 1.24782 15.4388 2.01282 15.6453C4.86283 16.4123 7.71282 17.1793 10.5778 17.9316C11.0728 18.0643 11.3428 18.2856 11.5228 18.7871C12.5578 21.8846 13.6378 24.9673 14.7178 28.0648C15.1978 29.4366 16.5328 29.7758 17.6278 28.8023C18.1528 28.3451 18.6478 27.8583 19.1578 27.3863C20.2378 26.3833 21.3178 25.3951 22.3978 24.3921C22.5928 24.5101 22.7578 24.6133 22.9228 24.7166C25.8778 26.6931 28.8628 28.6401 31.7878 30.6608C33.1978 31.6343 34.8928 30.9116 35.2528 29.3333C37.2628 20.2916 39.3778 11.2793 41.4478 2.25234C41.6728 1.08709 41.0278 0.143085 39.8278 0.0103354ZM34.0978 6.30859C32.9278 7.28209 31.7428 8.21134 30.5728 9.17009C26.1178 12.7543 21.6628 16.3386 17.2078 19.9081C16.8178 20.2178 16.6378 20.5866 16.5928 21.0733C16.4428 22.5778 16.2478 24.0971 16.0528 25.6016C16.0228 25.7933 15.9778 25.9851 15.9328 26.1916L15.7378 26.2211C15.6628 26.0441 15.5578 25.8671 15.4978 25.6901C14.6728 23.2711 13.8478 20.8521 13.0228 18.4183C12.7378 17.5628 12.8128 17.3563 13.6078 16.8991C20.1478 13.2116 26.7028 9.52409 33.2428 5.82184C33.3778 5.74809 33.4978 5.61534 33.6328 5.61534C33.8578 5.61534 34.0828 5.68909 34.3078 5.73334C34.2478 5.92509 34.2328 6.19059 34.0978 6.30859Z" fill="#0055FF"/>
</svg>
