<svg width="32" height="25" viewBox="0 0 32 25" fill="none" xmlns="http://www.w3.org/2000/svg">
<path d="M30.1416 0.780936C29.8171 0.746742 29.4577 0.826528 29.1448 0.940508C19.7095 4.28013 10.2743 7.61975 0.83904 10.9594C0.3638 11.1303 0.0276545 11.3925 0.0276545 11.9168C0.0160633 12.3841 0.329027 12.7033 0.920179 12.8628C3.12251 13.4555 5.32484 14.0482 7.53876 14.6295C7.92127 14.7321 8.12991 14.9031 8.26901 15.2906C9.0688 17.6842 9.90337 20.0664 10.7379 22.46C11.1089 23.52 12.1405 23.7822 12.9866 23.0299C13.3923 22.6765 13.7748 22.3004 14.1689 21.9357C15.0035 21.1606 15.8381 20.3969 16.6726 19.6219C16.8233 19.7131 16.9508 19.7928 17.0783 19.8726C19.3618 21.4 21.6685 22.9045 23.9287 24.466C25.0183 25.2183 26.3281 24.6598 26.6063 23.4402C28.1595 16.4532 29.7939 9.48903 31.3935 2.51344C31.5674 1.61299 31.0689 0.883518 30.1416 0.780936ZM25.7138 5.64789C24.8097 6.40016 23.894 7.11824 22.9899 7.85911C19.5473 10.6288 16.1047 13.3986 12.6621 16.1569C12.3607 16.3962 12.2216 16.6812 12.1868 17.0573C12.0709 18.2199 11.9202 19.3939 11.7696 20.5565C11.7464 20.7047 11.7116 20.8529 11.6768 21.0124L11.5261 21.0352C11.4682 20.8985 11.387 20.7617 11.3407 20.6249C10.7032 18.7556 10.0656 16.8864 9.42813 15.0057C9.2079 14.3446 9.26585 14.185 9.88019 13.8317C14.934 10.9822 19.9993 8.13267 25.0531 5.27176C25.1574 5.21477 25.2501 5.11219 25.3545 5.11219C25.5283 5.11219 25.7022 5.16918 25.8761 5.20337C25.8297 5.35155 25.8181 5.55671 25.7138 5.64789Z" fill="white"/>
</svg>
