<?xml version="1.0" encoding="utf-8"?>
<!-- Generator: Adobe Illustrator 25.2.3, SVG Export Plug-In . SVG Version: 6.00 Build 0)  -->
<svg version="1.1" id="Слой_1" xmlns="http://www.w3.org/2000/svg" xmlns:xlink="http://www.w3.org/1999/xlink" x="0px" y="0px"
	 viewBox="0 0 400 400" style="enable-background:new 0 0 400 400;" xml:space="preserve">
<style type="text/css">
	.st0{fill:#FFFFFF;}
</style>
<path class="st0" d="M318.4,97.2c-2.8-0.3-5.9,0.4-8.6,1.4c-81.4,29.3-162.8,58.6-244.2,87.9c-4.1,1.5-7,3.8-7,8.4
	c-0.1,4.1,2.6,6.9,7.7,8.3c19,5.2,38,10.4,57.1,15.5c3.3,0.9,5.1,2.4,6.3,5.8c6.9,21,14.1,41.9,21.3,62.9c3.2,9.3,12.1,11.6,19.4,5
	c3.5-3.1,6.8-6.4,10.2-9.6c7.2-6.8,14.4-13.5,21.6-20.3c1.3,0.8,2.4,1.5,3.5,2.2c19.7,13.4,39.6,26.6,59.1,40.3
	c9.4,6.6,20.7,1.7,23.1-9c13.4-61.3,27.5-122.4,41.3-183.6C330.7,104.5,326.4,98.1,318.4,97.2z M280.2,139.9
	c-7.8,6.6-15.7,12.9-23.5,19.4c-29.7,24.3-59.4,48.6-89.1,72.8c-2.6,2.1-3.8,4.6-4.1,7.9c-1,10.2-2.3,20.5-3.6,30.7
	c-0.2,1.3-0.5,2.6-0.8,4l-1.3,0.2c-0.5-1.2-1.2-2.4-1.6-3.6c-5.5-16.4-11-32.8-16.5-49.3c-1.9-5.8-1.4-7.2,3.9-10.3
	c43.6-25,87.3-50,130.9-75.1c0.9-0.5,1.7-1.4,2.6-1.4c1.5,0,3,0.5,4.5,0.8C281.2,137.3,281.1,139.1,280.2,139.9z"/>
</svg>
