<svg width="1105" height="70" viewBox="0 0 1105 70" fill="none" xmlns="http://www.w3.org/2000/svg">
<path d="M36.8819 59.1406H35.5992L33.4216 60.5639V61.8253L35.5097 60.4617H35.5608V67.8679H36.8819V59.1406ZM43.8545 67.8679H45.15L46.4795 63.1421H46.5775L47.9071 67.8679H49.2068L51.1287 61.3225H49.8119L48.5378 66.108H48.4738L47.1954 61.3225H45.8787L44.5917 66.1293H44.5278L43.2451 61.3225H41.9284L43.8545 67.8679ZM54.2427 68.0128C55.325 68.0128 55.9344 67.4631 56.1773 66.973H56.2285V67.8679H57.4728V63.5213C57.4728 61.6165 55.9728 61.2372 54.933 61.2372C53.7483 61.2372 52.6574 61.7145 52.2313 62.9077L53.4287 63.1804C53.6162 62.7159 54.0935 62.2685 54.95 62.2685C55.7725 62.2685 56.1944 62.6989 56.1944 63.4404V63.4702C56.1944 63.9347 55.7171 63.9262 54.541 64.0625C53.3009 64.2074 52.031 64.5313 52.031 66.0185C52.031 67.3054 52.9983 68.0128 54.2427 68.0128ZM54.5197 66.9901C53.7995 66.9901 53.2796 66.6662 53.2796 66.0355C53.2796 65.3537 53.8847 65.1108 54.6219 65.0128C55.0353 64.9574 56.0154 64.8466 56.1986 64.6634V65.5071C56.1986 66.2827 55.5807 66.9901 54.5197 66.9901ZM64.5349 61.3225H63.167L61.5136 66.3594H61.4454L59.7878 61.3225H58.4199L60.7977 67.8679H62.1613L64.5349 61.3225ZM68.319 68C69.7466 68 70.7565 67.2969 71.0463 66.2316L69.8403 66.0142C69.6102 66.6321 69.0562 66.9475 68.3318 66.9475C67.2409 66.9475 66.5079 66.2401 66.4738 64.9787H71.1273V64.527C71.1273 62.162 69.7125 61.2372 68.2295 61.2372C66.4057 61.2372 65.204 62.6264 65.204 64.6378C65.204 66.6705 66.3886 68 68.319 68ZM66.4781 64.0242C66.5292 63.0952 67.2025 62.2898 68.238 62.2898C69.2267 62.2898 69.8744 63.0227 69.8787 64.0242H66.4781ZM77.4458 62.9205C77.1816 61.902 76.3847 61.2372 74.9699 61.2372C73.4912 61.2372 72.4429 62.0171 72.4429 63.1762C72.4429 64.1051 73.0054 64.723 74.2327 64.9958L75.3407 65.2387C75.9714 65.3793 76.2654 65.6605 76.2654 66.0696C76.2654 66.5767 75.7242 66.973 74.889 66.973C74.1262 66.973 73.6361 66.6449 73.4827 66.0014L72.2512 66.1889C72.4643 67.348 73.4273 68 74.8975 68C76.4785 68 77.5736 67.1605 77.5736 65.9759C77.5736 65.0512 76.9856 64.4801 75.7839 64.2031L74.7441 63.9645C74.0239 63.7941 73.7128 63.5512 73.7171 63.108C73.7128 62.6051 74.2583 62.2472 74.9827 62.2472C75.7753 62.2472 76.1418 62.6861 76.291 63.125L77.4458 62.9205Z" fill="black"/>
<path d="M140.274 67.8679H146.018V66.7387H142.089V66.6747L143.824 64.8594C145.422 63.2443 145.878 62.473 145.878 61.4972C145.878 60.0952 144.736 59.0213 143.091 59.0213C141.459 59.0213 140.265 60.0781 140.265 61.6719H141.522C141.518 60.7344 142.123 60.1208 143.065 60.1208C143.951 60.1208 144.625 60.6662 144.625 61.5355C144.625 62.3068 144.165 62.8608 143.227 63.8537L140.274 66.9134V67.8679ZM152.245 67.8679H153.541L154.87 63.1421H154.968L156.298 67.8679H157.597L159.519 61.3225H158.203L156.928 66.108H156.864L155.586 61.3225H154.269L152.982 66.1293H152.918L151.636 61.3225H150.319L152.245 67.8679ZM162.633 68.0128C163.716 68.0128 164.325 67.4631 164.568 66.973H164.619V67.8679H165.863V63.5213C165.863 61.6165 164.363 61.2372 163.324 61.2372C162.139 61.2372 161.048 61.7145 160.622 62.9077L161.819 63.1804C162.007 62.7159 162.484 62.2685 163.341 62.2685C164.163 62.2685 164.585 62.6989 164.585 63.4404V63.4702C164.585 63.9347 164.108 63.9262 162.932 64.0625C161.692 64.2074 160.422 64.5313 160.422 66.0185C160.422 67.3054 161.389 68.0128 162.633 68.0128ZM162.91 66.9901C162.19 66.9901 161.67 66.6662 161.67 66.0355C161.67 65.3537 162.275 65.1108 163.013 65.0128C163.426 64.9574 164.406 64.8466 164.589 64.6634V65.5071C164.589 66.2827 163.971 66.9901 162.91 66.9901ZM172.926 61.3225H171.558L169.904 66.3594H169.836L168.178 61.3225H166.81L169.188 67.8679H170.552L172.926 61.3225ZM176.71 68C178.137 68 179.147 67.2969 179.437 66.2316L178.231 66.0142C178.001 66.6321 177.447 66.9475 176.722 66.9475C175.632 66.9475 174.899 66.2401 174.864 64.9787H179.518V64.527C179.518 62.162 178.103 61.2372 176.62 61.2372C174.796 61.2372 173.595 62.6264 173.595 64.6378C173.595 66.6705 174.779 68 176.71 68ZM174.869 64.0242C174.92 63.0952 175.593 62.2898 176.629 62.2898C177.617 62.2898 178.265 63.0227 178.269 64.0242H174.869ZM185.836 62.9205C185.572 61.902 184.775 61.2372 183.361 61.2372C181.882 61.2372 180.834 62.0171 180.834 63.1762C180.834 64.1051 181.396 64.723 182.623 64.9958L183.731 65.2387C184.362 65.3793 184.656 65.6605 184.656 66.0696C184.656 66.5767 184.115 66.973 183.28 66.973C182.517 66.973 182.027 66.6449 181.873 66.0014L180.642 66.1889C180.855 67.348 181.818 68 183.288 68C184.869 68 185.964 67.1605 185.964 65.9759C185.964 65.0512 185.376 64.4801 184.174 64.2031L183.135 63.9645C182.415 63.7941 182.103 63.5512 182.108 63.108C182.103 62.6051 182.649 62.2472 183.373 62.2472C184.166 62.2472 184.532 62.6861 184.682 63.125L185.836 62.9205Z" fill="black"/>
<path d="M254.974 67.9872C256.755 67.9872 258.063 66.9219 258.059 65.473C258.063 64.3693 257.394 63.5767 256.235 63.3977V63.3296C257.147 63.0952 257.74 62.3793 257.735 61.3992C257.74 60.1165 256.687 59.0213 255.008 59.0213C253.406 59.0213 252.119 59.9887 252.076 61.4077H253.35C253.38 60.6066 254.134 60.1208 254.991 60.1208C255.882 60.1208 256.465 60.662 256.461 61.4674C256.465 62.3111 255.788 62.8651 254.82 62.8651H254.083V63.9389H254.82C256.031 63.9389 256.73 64.5526 256.73 65.4304C256.73 66.2784 255.992 66.8537 254.965 66.8537C254.019 66.8537 253.282 66.3679 253.231 65.5924H251.893C251.948 67.0156 253.21 67.9872 254.974 67.9872ZM264.282 67.8679H265.577L266.907 63.1421H267.005L268.334 67.8679H269.634L271.556 61.3225H270.239L268.965 66.108H268.901L267.623 61.3225H266.306L265.019 66.1293H264.955L263.672 61.3225H262.356L264.282 67.8679ZM274.67 68.0128C275.752 68.0128 276.362 67.4631 276.605 66.973H276.656V67.8679H277.9V63.5213C277.9 61.6165 276.4 61.2372 275.36 61.2372C274.176 61.2372 273.085 61.7145 272.659 62.9077L273.856 63.1804C274.043 62.7159 274.521 62.2685 275.377 62.2685C276.2 62.2685 276.622 62.6989 276.622 63.4404V63.4702C276.622 63.9347 276.144 63.9262 274.968 64.0625C273.728 64.2074 272.458 64.5313 272.458 66.0185C272.458 67.3054 273.426 68.0128 274.67 68.0128ZM274.947 66.9901C274.227 66.9901 273.707 66.6662 273.707 66.0355C273.707 65.3537 274.312 65.1108 275.049 65.0128C275.463 64.9574 276.443 64.8466 276.626 64.6634V65.5071C276.626 66.2827 276.008 66.9901 274.947 66.9901ZM284.962 61.3225H283.594L281.941 66.3594H281.873L280.215 61.3225H278.847L281.225 67.8679H282.589L284.962 61.3225ZM288.746 68C290.174 68 291.184 67.2969 291.474 66.2316L290.268 66.0142C290.037 66.6321 289.483 66.9475 288.759 66.9475C287.668 66.9475 286.935 66.2401 286.901 64.9787H291.554V64.527C291.554 62.162 290.14 61.2372 288.657 61.2372C286.833 61.2372 285.631 62.6264 285.631 64.6378C285.631 66.6705 286.816 68 288.746 68ZM286.905 64.0242C286.956 63.0952 287.63 62.2898 288.665 62.2898C289.654 62.2898 290.302 63.0227 290.306 64.0242H286.905ZM297.873 62.9205C297.609 61.902 296.812 61.2372 295.397 61.2372C293.918 61.2372 292.87 62.0171 292.87 63.1762C292.87 64.1051 293.433 64.723 294.66 64.9958L295.768 65.2387C296.399 65.3793 296.693 65.6605 296.693 66.0696C296.693 66.5767 296.151 66.973 295.316 66.973C294.553 66.973 294.063 66.6449 293.91 66.0014L292.678 66.1889C292.892 67.348 293.855 68 295.325 68C296.906 68 298.001 67.1605 298.001 65.9759C298.001 65.0512 297.413 64.4801 296.211 64.2031L295.171 63.9645C294.451 63.7941 294.14 63.5512 294.144 63.108C294.14 62.6051 294.686 62.2472 295.41 62.2472C296.203 62.2472 296.569 62.6861 296.718 63.125L297.873 62.9205Z" fill="black"/>
<path d="M354.939 66.1634H359.077V67.8679H360.334V66.1634H361.489V65.0469H360.334V59.1406H358.711L354.939 65.098V66.1634ZM359.086 65.0469H356.32V64.9787L359.017 60.7088H359.086V65.0469ZM367.586 67.8679H368.881L370.211 63.1421H370.309L371.639 67.8679H372.938L374.86 61.3225H373.543L372.269 66.108H372.205L370.927 61.3225H369.61L368.323 66.1293H368.259L366.977 61.3225H365.66L367.586 67.8679ZM377.974 68.0128C379.056 68.0128 379.666 67.4631 379.909 66.973H379.96V67.8679H381.204V63.5213C381.204 61.6165 379.704 61.2372 378.664 61.2372C377.48 61.2372 376.389 61.7145 375.963 62.9077L377.16 63.1804C377.348 62.7159 377.825 62.2685 378.681 62.2685C379.504 62.2685 379.926 62.6989 379.926 63.4404V63.4702C379.926 63.9347 379.449 63.9262 378.272 64.0625C377.032 64.2074 375.762 64.5313 375.762 66.0185C375.762 67.3054 376.73 68.0128 377.974 68.0128ZM378.251 66.9901C377.531 66.9901 377.011 66.6662 377.011 66.0355C377.011 65.3537 377.616 65.1108 378.353 65.0128C378.767 64.9574 379.747 64.8466 379.93 64.6634V65.5071C379.93 66.2827 379.312 66.9901 378.251 66.9901ZM388.266 61.3225H386.898L385.245 66.3594H385.177L383.519 61.3225H382.151L384.529 67.8679H385.893L388.266 61.3225ZM392.05 68C393.478 68 394.488 67.2969 394.778 66.2316L393.572 66.0142C393.342 66.6321 392.788 66.9475 392.063 66.9475C390.972 66.9475 390.239 66.2401 390.205 64.9787H394.859V64.527C394.859 62.162 393.444 61.2372 391.961 61.2372C390.137 61.2372 388.935 62.6264 388.935 64.6378C388.935 66.6705 390.12 68 392.05 68ZM390.21 64.0242C390.261 63.0952 390.934 62.2898 391.969 62.2898C392.958 62.2898 393.606 63.0227 393.61 64.0242H390.21ZM401.177 62.9205C400.913 61.902 400.116 61.2372 398.701 61.2372C397.223 61.2372 396.174 62.0171 396.174 63.1762C396.174 64.1051 396.737 64.723 397.964 64.9958L399.072 65.2387C399.703 65.3793 399.997 65.6605 399.997 66.0696C399.997 66.5767 399.456 66.973 398.62 66.973C397.858 66.973 397.368 66.6449 397.214 66.0014L395.983 66.1889C396.196 67.348 397.159 68 398.629 68C400.21 68 401.305 67.1605 401.305 65.9759C401.305 65.0512 400.717 64.4801 399.515 64.2031L398.476 63.9645C397.755 63.7941 397.444 63.5512 397.449 63.108C397.444 62.6051 397.99 62.2472 398.714 62.2472C399.507 62.2472 399.873 62.6861 400.022 63.125L401.177 62.9205Z" fill="black"/>
<path d="M465.755 67.9872C467.511 67.9872 468.764 66.7472 468.759 65.0469C468.764 63.3594 467.588 62.1321 465.998 62.1321C465.35 62.1321 464.749 62.3793 464.409 62.7117H464.357L464.634 60.2699H468.338V59.1406H463.539L463.049 63.5384L464.255 63.7174C464.583 63.4233 465.171 63.223 465.7 63.223C466.735 63.2316 467.485 64.0071 467.485 65.0725C467.485 66.1208 466.757 66.8793 465.755 66.8793C464.911 66.8793 464.242 66.3424 464.174 65.5924H462.896C462.947 66.9816 464.153 67.9872 465.755 67.9872ZM474.928 67.8679H476.223L477.553 63.1421H477.651L478.98 67.8679H480.28L482.202 61.3225H480.885L479.611 66.108H479.547L478.269 61.3225H476.952L475.665 66.1293H475.601L474.318 61.3225H473.002L474.928 67.8679ZM485.316 68.0128C486.398 68.0128 487.008 67.4631 487.251 66.973H487.302V67.8679H488.546V63.5213C488.546 61.6165 487.046 61.2372 486.006 61.2372C484.822 61.2372 483.731 61.7145 483.305 62.9077L484.502 63.1804C484.689 62.7159 485.167 62.2685 486.023 62.2685C486.846 62.2685 487.268 62.6989 487.268 63.4404V63.4702C487.268 63.9347 486.79 63.9262 485.614 64.0625C484.374 64.2074 483.104 64.5313 483.104 66.0185C483.104 67.3054 484.072 68.0128 485.316 68.0128ZM485.593 66.9901C484.873 66.9901 484.353 66.6662 484.353 66.0355C484.353 65.3537 484.958 65.1108 485.695 65.0128C486.109 64.9574 487.089 64.8466 487.272 64.6634V65.5071C487.272 66.2827 486.654 66.9901 485.593 66.9901ZM495.608 61.3225H494.24L492.587 66.3594H492.519L490.861 61.3225H489.493L491.871 67.8679H493.235L495.608 61.3225ZM499.392 68C500.82 68 501.83 67.2969 502.12 66.2316L500.914 66.0142C500.683 66.6321 500.129 66.9475 499.405 66.9475C498.314 66.9475 497.581 66.2401 497.547 64.9787H502.2V64.527C502.2 62.162 500.786 61.2372 499.303 61.2372C497.479 61.2372 496.277 62.6264 496.277 64.6378C496.277 66.6705 497.462 68 499.392 68ZM497.551 64.0242C497.602 63.0952 498.276 62.2898 499.311 62.2898C500.3 62.2898 500.948 63.0227 500.952 64.0242H497.551ZM508.519 62.9205C508.255 61.902 507.458 61.2372 506.043 61.2372C504.564 61.2372 503.516 62.0171 503.516 63.1762C503.516 64.1051 504.079 64.723 505.306 64.9958L506.414 65.2387C507.045 65.3793 507.339 65.6605 507.339 66.0696C507.339 66.5767 506.797 66.973 505.962 66.973C505.199 66.973 504.709 66.6449 504.556 66.0014L503.324 66.1889C503.537 67.348 504.501 68 505.971 68C507.552 68 508.647 67.1605 508.647 65.9759C508.647 65.0512 508.059 64.4801 506.857 64.2031L505.817 63.9645C505.097 63.7941 504.786 63.5512 504.79 63.108C504.786 62.6051 505.332 62.2472 506.056 62.2472C506.849 62.2472 507.215 62.6861 507.364 63.125L508.519 62.9205Z" fill="black"/>
<path d="M573.375 67.9872C575.199 68.0043 576.409 66.6918 576.405 65.0171C576.409 63.3466 575.195 62.1492 573.682 62.1492C572.761 62.1492 571.964 62.5924 571.517 63.3296H571.453C571.457 61.348 572.207 60.1719 573.486 60.1719C574.325 60.1719 574.854 60.6833 575.033 61.4077H576.332C576.132 60.027 575.045 59.0213 573.486 59.0213C571.457 59.0213 570.192 60.7642 570.192 63.7983C570.187 67.0114 571.824 67.9745 573.375 67.9872ZM573.371 66.8793C572.357 66.8793 571.615 66.027 571.615 65.0469C571.619 64.071 572.395 63.2188 573.401 63.2188C574.398 63.2188 575.131 64.0242 575.126 65.0341C575.131 66.0654 574.368 66.8793 573.371 66.8793ZM582.569 67.8679H583.864L585.194 63.1421H585.292L586.621 67.8679H587.921L589.843 61.3225H588.526L587.252 66.108H587.188L585.91 61.3225H584.593L583.306 66.1293H583.242L581.96 61.3225H580.643L582.569 67.8679ZM592.957 68.0128C594.039 68.0128 594.649 67.4631 594.892 66.973H594.943V67.8679H596.187V63.5213C596.187 61.6165 594.687 61.2372 593.647 61.2372C592.463 61.2372 591.372 61.7145 590.946 62.9077L592.143 63.1804C592.331 62.7159 592.808 62.2685 593.664 62.2685C594.487 62.2685 594.909 62.6989 594.909 63.4404V63.4702C594.909 63.9347 594.431 63.9262 593.255 64.0625C592.015 64.2074 590.745 64.5313 590.745 66.0185C590.745 67.3054 591.713 68.0128 592.957 68.0128ZM593.234 66.9901C592.514 66.9901 591.994 66.6662 591.994 66.0355C591.994 65.3537 592.599 65.1108 593.336 65.0128C593.75 64.9574 594.73 64.8466 594.913 64.6634V65.5071C594.913 66.2827 594.295 66.9901 593.234 66.9901ZM603.249 61.3225H601.881L600.228 66.3594H600.16L598.502 61.3225H597.134L599.512 67.8679H600.876L603.249 61.3225ZM607.033 68C608.461 68 609.471 67.2969 609.761 66.2316L608.555 66.0142C608.325 66.6321 607.771 66.9475 607.046 66.9475C605.955 66.9475 605.222 66.2401 605.188 64.9787H609.842V64.527C609.842 62.162 608.427 61.2372 606.944 61.2372C605.12 61.2372 603.918 62.6264 603.918 64.6378C603.918 66.6705 605.103 68 607.033 68ZM605.192 64.0242C605.244 63.0952 605.917 62.2898 606.952 62.2898C607.941 62.2898 608.589 63.0227 608.593 64.0242H605.192ZM616.16 62.9205C615.896 61.902 615.099 61.2372 613.684 61.2372C612.206 61.2372 611.157 62.0171 611.157 63.1762C611.157 64.1051 611.72 64.723 612.947 64.9958L614.055 65.2387C614.686 65.3793 614.98 65.6605 614.98 66.0696C614.98 66.5767 614.439 66.973 613.603 66.973C612.841 66.973 612.35 66.6449 612.197 66.0014L610.966 66.1889C611.179 67.348 612.142 68 613.612 68C615.193 68 616.288 67.1605 616.288 65.9759C616.288 65.0512 615.7 64.4801 614.498 64.2031L613.458 63.9645C612.738 63.7941 612.427 63.5512 612.431 63.108C612.427 62.6051 612.973 62.2472 613.697 62.2472C614.49 62.2472 614.856 62.6861 615.005 63.125L616.16 62.9205Z" fill="black"/>
<path d="M678.509 67.8679H679.885L683.682 60.3083V59.1406H677.912V60.2699H682.319V60.3338L678.509 67.8679ZM689.776 67.8679H691.071L692.401 63.1421H692.499L693.828 67.8679H695.128L697.05 61.3225H695.733L694.459 66.108H694.395L693.117 61.3225H691.8L690.513 66.1293H690.449L689.167 61.3225H687.85L689.776 67.8679ZM700.164 68.0128C701.246 68.0128 701.856 67.4631 702.099 66.973H702.15V67.8679H703.394V63.5213C703.394 61.6165 701.894 61.2372 700.854 61.2372C699.67 61.2372 698.579 61.7145 698.153 62.9077L699.35 63.1804C699.538 62.7159 700.015 62.2685 700.871 62.2685C701.694 62.2685 702.116 62.6989 702.116 63.4404V63.4702C702.116 63.9347 701.638 63.9262 700.462 64.0625C699.222 64.2074 697.952 64.5313 697.952 66.0185C697.952 67.3054 698.92 68.0128 700.164 68.0128ZM700.441 66.9901C699.721 66.9901 699.201 66.6662 699.201 66.0355C699.201 65.3537 699.806 65.1108 700.543 65.0128C700.957 64.9574 701.937 64.8466 702.12 64.6634V65.5071C702.12 66.2827 701.502 66.9901 700.441 66.9901ZM710.456 61.3225H709.088L707.435 66.3594H707.367L705.709 61.3225H704.341L706.719 67.8679H708.083L710.456 61.3225ZM714.24 68C715.668 68 716.678 67.2969 716.968 66.2316L715.762 66.0142C715.532 66.6321 714.978 66.9475 714.253 66.9475C713.162 66.9475 712.429 66.2401 712.395 64.9787H717.049V64.527C717.049 62.162 715.634 61.2372 714.151 61.2372C712.327 61.2372 711.125 62.6264 711.125 64.6378C711.125 66.6705 712.31 68 714.24 68ZM712.399 64.0242C712.451 63.0952 713.124 62.2898 714.159 62.2898C715.148 62.2898 715.796 63.0227 715.8 64.0242H712.399ZM723.367 62.9205C723.103 61.902 722.306 61.2372 720.891 61.2372C719.413 61.2372 718.364 62.0171 718.364 63.1762C718.364 64.1051 718.927 64.723 720.154 64.9958L721.262 65.2387C721.893 65.3793 722.187 65.6605 722.187 66.0696C722.187 66.5767 721.646 66.973 720.81 66.973C720.048 66.973 719.558 66.6449 719.404 66.0014L718.173 66.1889C718.386 67.348 719.349 68 720.819 68C722.4 68 723.495 67.1605 723.495 65.9759C723.495 65.0512 722.907 64.4801 721.705 64.2031L720.665 63.9645C719.945 63.7941 719.634 63.5512 719.638 63.108C719.634 62.6051 720.18 62.2472 720.904 62.2472C721.697 62.2472 722.063 62.6861 722.212 63.125L723.367 62.9205Z" fill="black"/>
<path d="M788.395 67.9872C790.21 67.9872 791.493 66.956 791.501 65.5412C791.493 64.4418 790.721 63.5171 789.746 63.3424V63.2912C790.594 63.0867 791.169 62.2898 791.177 61.348C791.169 60.0142 789.993 59.0213 788.395 59.0213C786.78 59.0213 785.603 60.0142 785.612 61.348C785.603 62.2855 786.179 63.0867 787.044 63.2912V63.3424C786.051 63.5171 785.28 64.4418 785.288 65.5412C785.28 66.956 786.562 67.9872 788.395 67.9872ZM788.395 66.9091C787.304 66.9091 786.613 66.3296 786.622 65.456C786.613 64.5483 787.363 63.9006 788.395 63.9006C789.409 63.9006 790.159 64.5483 790.167 65.456C790.159 66.3296 789.473 66.9091 788.395 66.9091ZM788.395 62.848C787.513 62.848 786.886 62.2898 786.895 61.4588C786.886 60.6406 787.491 60.0995 788.395 60.0995C789.281 60.0995 789.886 60.6406 789.895 61.4588C789.886 62.2898 789.264 62.848 788.395 62.848ZM797.64 67.8679H798.935L800.265 63.1421H800.363L801.692 67.8679H802.992L804.914 61.3225H803.597L802.323 66.108H802.259L800.981 61.3225H799.664L798.377 66.1293H798.313L797.03 61.3225H795.714L797.64 67.8679ZM808.028 68.0128C809.11 68.0128 809.72 67.4631 809.962 66.973H810.014V67.8679H811.258V63.5213C811.258 61.6165 809.758 61.2372 808.718 61.2372C807.534 61.2372 806.443 61.7145 806.016 62.9077L807.214 63.1804C807.401 62.7159 807.879 62.2685 808.735 62.2685C809.558 62.2685 809.98 62.6989 809.98 63.4404V63.4702C809.98 63.9347 809.502 63.9262 808.326 64.0625C807.086 64.2074 805.816 64.5313 805.816 66.0185C805.816 67.3054 806.784 68.0128 808.028 68.0128ZM808.305 66.9901C807.585 66.9901 807.065 66.6662 807.065 66.0355C807.065 65.3537 807.67 65.1108 808.407 65.0128C808.82 64.9574 809.801 64.8466 809.984 64.6634V65.5071C809.984 66.2827 809.366 66.9901 808.305 66.9901ZM818.32 61.3225H816.952L815.299 66.3594H815.231L813.573 61.3225H812.205L814.583 67.8679H815.946L818.32 61.3225ZM822.104 68C823.532 68 824.542 67.2969 824.831 66.2316L823.625 66.0142C823.395 66.6321 822.841 66.9475 822.117 66.9475C821.026 66.9475 820.293 66.2401 820.259 64.9787H824.912V64.527C824.912 62.162 823.498 61.2372 822.015 61.2372C820.191 61.2372 818.989 62.6264 818.989 64.6378C818.989 66.6705 820.174 68 822.104 68ZM820.263 64.0242C820.314 63.0952 820.988 62.2898 822.023 62.2898C823.012 62.2898 823.66 63.0227 823.664 64.0242H820.263ZM831.231 62.9205C830.967 61.902 830.17 61.2372 828.755 61.2372C827.276 61.2372 826.228 62.0171 826.228 63.1762C826.228 64.1051 826.791 64.723 828.018 64.9958L829.126 65.2387C829.757 65.3793 830.051 65.6605 830.051 66.0696C830.051 66.5767 829.509 66.973 828.674 66.973C827.911 66.973 827.421 66.6449 827.268 66.0014L826.036 66.1889C826.249 67.348 827.212 68 828.683 68C830.264 68 831.359 67.1605 831.359 65.9759C831.359 65.0512 830.771 64.4801 829.569 64.2031L828.529 63.9645C827.809 63.7941 827.498 63.5512 827.502 63.108C827.498 62.6051 828.043 62.2472 828.768 62.2472C829.56 62.2472 829.927 62.6861 830.076 63.125L831.231 62.9205Z" fill="black"/>
<path d="M895.871 59.0213C894.039 59.0043 892.841 60.321 892.841 61.9745C892.846 63.6406 894.052 64.8424 895.564 64.8424C896.489 64.8424 897.282 64.3906 897.729 63.6577H897.797C897.793 65.6648 897.039 66.8367 895.76 66.8367C894.925 66.8367 894.388 66.3253 894.218 65.5796H892.918C893.11 66.9901 894.201 67.9872 895.76 67.9872C897.789 67.9872 899.059 66.2443 899.059 63.1889C899.054 60.0014 897.427 59.0341 895.871 59.0213ZM895.875 60.1293C896.885 60.1293 897.631 60.9858 897.631 61.9446C897.635 62.9162 896.847 63.7685 895.85 63.7685C894.848 63.7685 894.124 62.9674 894.12 61.9574C894.12 60.9432 894.874 60.1293 895.875 60.1293ZM905.21 67.8679H906.505L907.835 63.1421H907.933L909.263 67.8679H910.562L912.484 61.3225H911.167L909.893 66.108H909.829L908.551 61.3225H907.234L905.947 66.1293H905.883L904.601 61.3225H903.284L905.21 67.8679ZM915.598 68.0128C916.681 68.0128 917.29 67.4631 917.533 66.973H917.584V67.8679H918.828V63.5213C918.828 61.6165 917.328 61.2372 916.288 61.2372C915.104 61.2372 914.013 61.7145 913.587 62.9077L914.784 63.1804C914.972 62.7159 915.449 62.2685 916.306 62.2685C917.128 62.2685 917.55 62.6989 917.55 63.4404V63.4702C917.55 63.9347 917.073 63.9262 915.896 64.0625C914.656 64.2074 913.386 64.5313 913.386 66.0185C913.386 67.3054 914.354 68.0128 915.598 68.0128ZM915.875 66.9901C915.155 66.9901 914.635 66.6662 914.635 66.0355C914.635 65.3537 915.24 65.1108 915.977 65.0128C916.391 64.9574 917.371 64.8466 917.554 64.6634V65.5071C917.554 66.2827 916.936 66.9901 915.875 66.9901ZM925.89 61.3225H924.522L922.869 66.3594H922.801L921.143 61.3225H919.775L922.153 67.8679H923.517L925.89 61.3225ZM929.674 68C931.102 68 932.112 67.2969 932.402 66.2316L931.196 66.0142C930.966 66.6321 930.412 66.9475 929.687 66.9475C928.596 66.9475 927.863 66.2401 927.829 64.9787H932.483V64.527C932.483 62.162 931.068 61.2372 929.585 61.2372C927.761 61.2372 926.559 62.6264 926.559 64.6378C926.559 66.6705 927.744 68 929.674 68ZM927.834 64.0242C927.885 63.0952 928.558 62.2898 929.594 62.2898C930.582 62.2898 931.23 63.0227 931.234 64.0242H927.834ZM938.801 62.9205C938.537 61.902 937.74 61.2372 936.325 61.2372C934.847 61.2372 933.798 62.0171 933.798 63.1762C933.798 64.1051 934.361 64.723 935.588 64.9958L936.696 65.2387C937.327 65.3793 937.621 65.6605 937.621 66.0696C937.621 66.5767 937.08 66.973 936.244 66.973C935.482 66.973 934.992 66.6449 934.838 66.0014L933.607 66.1889C933.82 67.348 934.783 68 936.253 68C937.834 68 938.929 67.1605 938.929 65.9759C938.929 65.0512 938.341 64.4801 937.139 64.2031L936.1 63.9645C935.379 63.7941 935.068 63.5512 935.073 63.108C935.068 62.6051 935.614 62.2472 936.338 62.2472C937.131 62.2472 937.497 62.6861 937.646 63.125L938.801 62.9205Z" fill="black"/>
<path d="M1076.11 41.3933C1076.11 41.3933 1075.34 39.6357 1076.13 36.3656C1076.93 33.0954 1077.16 28.0145 1074.64 25.8308C1076.59 29.6442 1074.76 38.7303 1071.67 37.9953C1068.58 37.271 1068.35 30.7307 1071.56 27.6417C1069.04 28.0038 1066.41 28.1849 1063.31 32.1794C1065.26 27.6417 1062.4 17.1069 1058.74 18.1934C1061.82 24.3715 1057.24 29.0903 1054.27 26.5445C1051.3 23.9987 1050.49 17.2774 1054.5 13.2829C1058.51 9.28845 1057.82 2.20494 1055.41 0.0213038C1056.33 2.74819 1056.67 4.74009 1052.21 8.73456C1047.75 12.729 1042.94 19.8125 1045.69 27.8014C1048.43 35.7904 1044.42 42.6928 1041.11 41.9685C1037.79 41.2441 1036.76 35.066 1038.82 33.4363C1038.82 33.4363 1034.7 33.6174 1031.95 38.3362C1033.1 34.885 1030.69 30.7094 1026.34 28.8879C1021.99 27.0665 1019.59 18.1721 1022.1 14.1777C1018.21 15.4452 1015.81 22.1666 1017.87 27.9825C1019.93 33.7985 1018.9 38.8794 1013.52 39.2416C1008.14 39.6037 1007.11 31.2527 1009.97 27.9825C1009.97 27.9825 1005.16 29.069 1002.87 34.5228C1002.76 32.5202 999.558 25.8095 996.121 27.0771C998.524 32.3498 995.436 36.7064 992.57 35.9821C989.71 35.2578 988.905 29.804 992.114 25.2663C995.322 20.7286 991.543 9.09672 987.536 12.3669C991.429 20.5369 985.817 26.1717 982.159 27.2582C978.494 28.3447 975.292 31.977 972.775 37.0686C972.775 37.0686 972.204 31.8066 969.11 30.3473C969.11 30.3473 967.962 39.4333 964.19 36.8875C966.593 34.5228 965.566 28.3553 961.444 25.2663C957.323 22.1772 954.007 14.3694 955.604 9.65062C953.335 10.9501 951.939 20.9097 955.49 26.0013C959.041 31.0822 958.007 41.8087 953.201 40.1683C948.395 38.5279 950.342 29.9957 951.711 28.5471C951.711 28.5471 948.623 29.0903 946.677 33.447C946.677 33.447 945.415 28.1743 941.186 29.9957C943.817 33.447 943.247 38.1657 941.3 39.0818C939.353 39.9872 935.923 36.7171 937.635 29.0903C939.353 21.4636 936.031 15.2855 932.715 14.0179C935.346 18.3745 932.943 28.7282 929.164 31.0929C929.164 31.0929 927.331 27.2795 924.358 28.7282C926.761 31.9983 926.532 40.1683 921.384 40.1683C916.235 40.1683 914.061 32.3605 916.464 28.9092C916.464 28.9092 913.376 29.4525 911.543 32.5415C911.772 28.5471 908.57 22.7311 904.106 21.6447C906.623 24.9148 906.851 32.1794 902.502 33.8091C898.152 35.4389 895.749 24.542 899.065 20.1853C895.514 21.4529 892.084 27.2689 891.05 33.0848C891.05 33.0848 888.077 27.2689 884.411 28.9092C886.929 32.5415 886.815 38.5386 883.15 40.3494C879.485 42.1709 875.021 38.9007 876.967 32.1794C878.914 25.458 876.397 17.1069 869.644 16.0098C873.081 24.542 867.469 34.7145 863.576 36.536C863.348 31.8172 859.454 28.366 855.91 28.5471C859.575 35.4495 856.367 42.1709 852.937 41.9898C849.5 41.8087 848.13 34.7252 849.386 32.1794C849.386 32.1794 846.412 33.0848 844.351 35.8117C844.123 33.9902 842.291 30.5496 838.626 31.6361C841.485 39.9872 837.713 41.9898 834.39 40.9033C831.074 39.8168 830.04 33.8198 832.443 28.5471C834.846 23.285 830.839 12.9314 825.805 11.4721C830.953 21.4636 824.892 31.0929 821.455 32.1794C821.227 29.2714 819.166 26.9173 815.387 26.5445C821.28 36.6851 816.649 46.7086 813.098 43.2574C809.547 39.8061 812.688 34.9382 812.688 34.9382C811.312 35.5134 810.272 36.5147 809.493 37.5692C808.124 39.412 807.607 41.3826 807.607 41.3826C807.607 41.3826 806.828 39.6251 807.627 36.3549C808.426 33.0848 808.654 28.0038 806.137 25.8202C808.084 29.6336 806.251 38.7196 803.163 37.9847C800.076 37.2603 799.847 30.7201 803.049 27.631C800.532 27.9932 797.901 28.1743 794.806 32.1687C796.753 27.631 793.893 17.0963 790.228 18.1828C793.316 24.3609 788.738 29.0797 785.765 26.5339C782.791 23.9881 781.985 17.2667 785.993 13.2723C790 9.2778 789.316 2.19429 786.906 0.0106519C787.819 2.73754 788.168 4.72944 783.704 8.7239C779.24 12.7184 774.434 19.8019 777.179 27.7908C779.925 35.7797 775.917 42.6821 772.601 41.9578C769.279 41.2335 768.252 35.0554 770.312 33.4256C770.312 33.4256 766.191 33.6067 763.446 38.3255C764.593 34.8743 762.184 30.6988 757.834 28.8773C753.484 27.0558 751.081 18.1615 753.598 14.167C749.705 15.4346 747.302 22.1559 749.363 27.9719C751.423 33.7878 750.39 38.8688 745.013 39.2309C739.636 39.5931 738.603 31.242 741.462 27.9719C741.462 27.9719 736.656 29.0584 734.367 34.5121C734.253 32.5096 731.044 25.7989 727.614 27.0665C730.017 32.3392 726.93 36.6958 724.063 35.9715C721.204 35.2471 720.398 29.7934 723.607 25.2556C726.815 20.7179 723.036 9.08607 719.029 12.3562C722.922 20.5262 717.31 26.1611 713.652 27.2475C709.987 28.334 706.785 31.9663 704.268 37.0579C704.268 37.0579 703.698 31.7959 700.603 30.3366C700.603 30.3366 699.455 39.4227 695.683 36.8769C698.086 34.5121 697.059 28.3447 692.937 25.2556C688.816 22.1666 685.5 14.3588 687.098 9.63997C684.829 10.9395 683.433 20.899 686.983 25.9906C690.534 31.0716 689.501 41.798 684.695 40.1576C679.888 38.5173 681.835 29.9851 683.204 28.5364C683.204 28.5364 680.117 29.0797 678.17 33.4363C678.17 33.4363 676.908 28.1636 672.679 29.9851C675.31 33.4363 674.74 38.1551 672.793 39.0712C670.847 39.9766 667.416 36.7064 669.128 29.0797C670.847 21.4529 667.524 15.2748 664.208 14.0072C666.839 18.3639 664.436 28.7175 660.657 31.0822C660.657 31.0822 658.825 27.2689 655.851 28.7175C658.254 31.9876 658.026 40.1576 652.877 40.1576C647.729 40.1576 645.554 32.3498 647.957 28.8986C647.957 28.8986 644.869 29.4418 643.037 32.5309C643.265 28.5364 640.063 22.7205 635.599 21.634C638.116 24.9041 638.345 32.1687 633.995 33.7985C629.645 35.4282 627.242 24.5313 630.558 20.1747C627.007 21.4423 623.577 27.2582 622.543 33.0741C622.543 33.0741 619.57 27.2582 615.905 28.8986C618.422 32.5309 618.308 38.5279 614.643 40.3387C610.978 42.1602 606.514 38.8901 608.461 32.1687C610.407 25.4474 607.89 17.0963 601.137 15.9991C604.574 24.5313 598.962 34.7039 595.069 36.5254C594.841 31.8066 590.948 28.3553 587.404 28.5364C591.069 35.4389 587.86 42.1602 584.43 41.9791C580.993 41.798 579.624 34.7145 580.879 32.1687C580.879 32.1687 577.905 33.0741 575.845 35.801C575.616 33.9796 573.784 30.539 570.119 31.6255C572.978 39.9766 569.206 41.9791 565.883 40.8926C562.561 39.8061 561.534 33.8091 563.937 28.5364C566.34 23.2744 562.332 12.9207 557.298 11.4614C562.446 21.4529 556.385 31.0822 552.948 32.1687C552.72 29.2608 550.659 26.9067 546.88 26.5339C552.774 36.6745 548.142 46.6979 544.591 43.2467C541.04 39.7955 544.182 34.9276 544.182 34.9276C542.806 35.5028 541.765 36.504 540.987 37.5586C539.617 39.4014 539.1 41.372 539.1 41.372C539.1 41.372 538.322 39.6144 539.12 36.3443C539.919 33.0741 540.147 27.9932 537.63 25.8095C539.577 29.6229 537.744 38.709 534.657 37.974C531.569 37.239 531.334 30.7094 534.543 27.6204C532.025 27.9825 529.394 28.1636 526.3 32.1581C528.246 27.6204 525.387 17.0856 521.722 18.1721C524.809 24.3502 520.232 29.069 517.258 26.5232C514.284 23.9774 513.479 17.2561 517.486 13.2616C521.494 9.26715 520.809 2.18364 518.399 0C519.312 2.72689 519.661 4.71879 515.197 8.71325C510.733 12.7077 505.927 19.7912 508.673 27.7801C511.418 35.7691 507.411 42.6715 504.095 41.9472C500.772 41.2228 499.745 35.0447 501.806 33.415C501.806 33.415 497.684 33.5961 494.939 38.3149C496.087 34.8637 493.677 30.6881 489.327 28.8666C484.977 27.0452 482.574 18.1508 485.092 14.1564C481.198 15.4239 478.795 22.1453 480.856 27.9612C482.917 33.7772 481.883 38.8581 476.506 39.2203C471.13 39.5824 470.096 31.2314 472.955 27.9612C472.955 27.9612 468.149 29.0477 465.86 34.5015C465.746 32.4989 462.538 25.7882 459.108 27.0558C461.511 32.3285 458.423 36.6851 455.557 35.9608C452.697 35.2365 451.892 29.7827 455.1 25.245C458.309 20.7073 454.543 9.12868 450.542 12.3988C454.436 20.5688 448.824 26.2037 445.166 27.2902C441.501 28.3767 438.299 32.0089 435.782 37.1006C435.782 37.1006 435.211 31.8385 432.117 30.3792C432.117 30.3792 430.969 39.4653 427.196 36.9195C429.599 34.5548 428.572 28.3873 424.451 25.2983C420.329 22.2092 417.013 14.4014 418.611 9.68257C416.342 10.9821 414.946 20.9416 418.497 26.0332C422.048 31.1142 421.014 41.8406 416.208 40.2003C411.402 38.5705 413.348 30.0277 414.718 28.579C414.718 28.579 411.63 29.1223 409.683 33.4789C409.683 33.4789 408.421 28.2062 404.193 30.0277C406.824 33.4789 406.253 38.1977 404.307 39.1138C402.36 40.0192 398.93 36.749 400.642 29.1223C402.36 21.4955 399.037 15.3174 395.721 14.0499C398.353 18.4065 395.95 28.7601 392.17 31.1248C392.17 31.1248 390.338 27.3115 387.364 28.7601C389.767 32.0303 389.539 40.2003 384.391 40.2003C379.242 40.2003 377.067 32.3924 379.47 28.9412C379.47 28.9412 376.383 29.4844 374.55 32.5735C374.778 28.579 371.577 22.7631 367.113 21.6766C369.63 24.9467 369.858 32.2113 365.508 33.8411C361.159 35.4708 358.756 24.5739 362.072 20.2173C358.521 21.4849 355.091 27.3008 354.057 33.1167C354.057 33.1167 351.083 27.3008 347.418 28.9412C349.935 32.5735 349.821 38.5705 346.156 40.3813C342.491 42.2028 338.027 38.9327 339.974 32.2113C341.921 25.49 339.404 17.1389 332.651 16.0418C336.088 24.5739 330.476 34.7465 326.583 36.568C326.354 31.8492 322.461 28.398 318.917 28.579C322.582 35.4815 319.373 42.2028 315.943 42.0217C312.506 41.8406 311.137 34.7571 312.392 32.2113C312.392 32.2113 309.419 33.1167 307.358 35.8436C307.13 34.0222 305.297 30.5816 301.632 31.6681C304.492 40.0192 300.719 42.0217 297.397 40.9352C294.074 39.8487 293.047 33.8517 295.45 28.579C297.853 23.317 293.846 12.9634 288.811 11.504C293.96 21.4955 287.899 31.1248 284.462 32.2113C284.233 29.3034 282.173 26.9493 278.394 26.5765C284.287 36.7171 279.656 46.7405 276.105 43.2893C272.554 39.8381 275.695 34.9702 275.695 34.9702C274.319 35.5454 273.279 36.5467 272.5 37.6012C271.131 39.444 270.614 41.4146 270.614 41.4146C270.614 41.4146 269.835 39.657 270.634 36.3869C271.433 33.1167 271.661 28.0358 269.144 25.8522C271.09 29.6655 269.258 38.7516 266.17 38.0166C263.082 37.2923 262.854 30.752 266.056 27.663C263.539 28.0251 260.908 28.2062 257.813 32.2007C259.76 27.663 256.9 17.1282 253.235 18.2147C256.323 24.3928 251.745 29.1116 248.771 26.5658C245.798 24.02 244.992 17.2987 249 13.3042C253.007 9.30976 252.322 2.22625 249.912 0.0426076C250.825 2.76949 251.174 4.7614 246.711 8.75586C242.247 12.7503 237.441 19.8338 240.186 27.8228C242.931 35.8117 238.924 42.7141 235.608 41.9898C232.285 41.2654 231.258 35.0873 233.319 33.4576C233.319 33.4576 229.198 33.6387 226.452 38.3575C227.6 34.9063 225.19 30.7307 220.841 28.9092C216.491 27.0878 214.088 18.1934 216.605 14.199C212.712 15.4666 210.309 22.1879 212.369 28.0038C214.43 33.8198 213.396 38.9007 208.02 39.2629C202.643 39.6251 201.609 31.274 204.469 28.0038C204.469 28.0038 199.663 29.0903 197.374 34.5441C197.26 32.5415 194.058 25.8308 190.621 27.0984C193.024 32.3711 189.936 36.7277 187.07 36.0034C184.21 35.2791 183.405 29.8253 186.614 25.2876C189.822 20.7499 186.043 9.12868 182.042 12.3988C185.936 20.5688 180.324 26.2037 176.666 27.2902C173.001 28.3767 169.799 32.0089 167.282 37.1006C167.282 37.1006 166.711 31.8385 163.617 30.3792C163.617 30.3792 162.469 39.4653 158.696 36.9195C161.099 34.5548 160.072 28.3873 155.951 25.2983C151.829 22.2092 148.513 14.4014 150.111 9.68257C147.842 10.9821 146.446 20.9416 149.997 26.0332C153.548 31.1142 152.514 41.8406 147.708 40.2003C142.902 38.5599 144.848 30.0277 146.218 28.579C146.218 28.579 143.13 29.1223 141.183 33.4789C141.183 33.4789 139.921 28.2062 135.693 30.0277C138.324 33.4789 137.753 38.1977 135.807 39.1138C133.86 40.0298 130.43 36.749 132.142 29.1223C133.86 21.4955 130.537 15.3174 127.221 14.0499C129.853 18.4065 127.45 28.7601 123.67 31.1248C123.67 31.1248 121.838 27.3115 118.864 28.7601C121.267 32.0303 121.039 40.2003 115.891 40.2003C110.742 40.2003 108.567 32.3924 110.97 28.9412C110.97 28.9412 107.883 29.4844 106.05 32.5735C106.278 28.579 103.076 22.7631 98.6127 21.6766C101.13 24.9467 101.358 32.2113 97.0084 33.8411C92.6587 35.4708 90.2556 24.5739 93.5716 20.2173C90.0207 21.4849 86.5906 27.3008 85.5569 33.1167C85.5569 33.1167 82.5832 27.3008 78.9182 28.9412C81.4354 32.5735 81.3213 38.5705 77.6563 40.3813C73.9912 42.2028 69.5274 38.9327 71.4741 32.2113C73.4207 25.49 70.9035 17.1389 64.1507 16.0418C67.5875 24.5739 61.9759 34.7465 58.0826 36.568C57.8544 31.8492 53.9611 28.398 50.4169 28.579C54.082 35.4815 50.8734 42.2028 47.4433 42.0217C44.0065 41.8406 42.6371 34.7571 43.8924 32.2113C43.8924 32.2113 40.9188 33.1167 38.858 35.8436C38.6298 34.0222 36.7973 30.5816 33.1322 31.6681C35.9918 40.0192 32.2193 42.0217 28.8967 40.9352C25.574 39.8487 24.547 33.8517 26.95 28.579C29.3531 23.317 25.3457 12.9634 20.3114 11.504C25.4599 21.4955 19.3985 31.1248 15.9617 32.2113C15.7334 29.3034 13.6727 26.9493 9.89358 26.5765C15.7872 36.7171 11.1555 46.7405 7.60461 43.2893C4.0537 39.8381 7.19515 34.9702 7.19515 34.9702C5.81909 35.5454 4.77865 36.5467 4 37.6012V50H272.5H541H809.5H1078V37.5799C1076.63 39.4227 1076.11 41.3933 1076.11 41.3933Z" fill="#FF00CF"/>
<line x1="3" y1="50.5659" x2="1079" y2="50.5659" stroke="black" stroke-width="2"/>
<line x1="3.18848" y1="37.585" x2="3.18848" y2="64.4718" stroke="black" stroke-width="2"/>
<line x1="110.736" y1="37.585" x2="110.736" y2="64.4718" stroke="black" stroke-width="2"/>
<line x1="218.283" y1="37.585" x2="218.283" y2="64.4718" stroke="black" stroke-width="2"/>
<line x1="325.83" y1="37.585" x2="325.83" y2="64.4718" stroke="black" stroke-width="2"/>
<line x1="433.377" y1="37.585" x2="433.377" y2="64.4718" stroke="black" stroke-width="2"/>
<line x1="540.924" y1="37.585" x2="540.924" y2="64.4718" stroke="black" stroke-width="2"/>
<line x1="648.472" y1="37.585" x2="648.472" y2="64.4718" stroke="black" stroke-width="2"/>
<line x1="756" y1="38" x2="756" y2="64.8868" stroke="black" stroke-width="2"/>
<line x1="863.566" y1="37.585" x2="863.566" y2="64.4718" stroke="black" stroke-width="2"/>
<line x1="971.113" y1="37.585" x2="971.113" y2="64.4718" stroke="black" stroke-width="2"/>
<line x1="1078.66" y1="37.585" x2="1078.66" y2="64.4718" stroke="black" stroke-width="2"/>
<path d="M4.15057 18.2727H2.8679L0.690341 19.696V20.9574L2.77841 19.5938H2.82955V27H4.15057V18.2727Z" fill="black"/>
<path d="M112.151 18.2727H110.868L108.69 19.696V20.9574L110.778 19.5938H110.83V27H112.151V18.2727ZM117.55 27.1449C119.565 27.1449 120.746 25.5 120.746 22.6406C120.746 19.8026 119.548 18.1534 117.55 18.1534C115.547 18.1534 114.354 19.7983 114.349 22.6406C114.349 25.4957 115.53 27.1406 117.55 27.1449ZM117.55 26.0071C116.369 26.0071 115.658 24.8224 115.658 22.6406C115.662 20.4673 116.374 19.2699 117.55 19.2699C118.722 19.2699 119.438 20.4673 119.438 22.6406C119.438 24.8224 118.726 26.0071 117.55 26.0071ZM125.296 27.1449C127.311 27.1449 128.492 25.5 128.492 22.6406C128.492 19.8026 127.294 18.1534 125.296 18.1534C123.293 18.1534 122.1 19.7983 122.096 22.6406C122.096 25.4957 123.276 27.1406 125.296 27.1449ZM125.296 26.0071C124.115 26.0071 123.404 24.8224 123.404 22.6406C123.408 20.4673 124.12 19.2699 125.296 19.2699C126.468 19.2699 127.184 20.4673 127.184 22.6406C127.184 24.8224 126.472 26.0071 125.296 26.0071Z" fill="black"/>
<path d="M219.839 27H225.584V25.8707H221.655V25.8068L223.389 23.9915C224.987 22.3764 225.443 21.6051 225.443 20.6293C225.443 19.2273 224.301 18.1534 222.656 18.1534C221.024 18.1534 219.831 19.2102 219.831 20.804H221.088C221.084 19.8665 221.689 19.2528 222.631 19.2528C223.517 19.2528 224.19 19.7983 224.19 20.6676C224.19 21.4389 223.73 21.9929 222.793 22.9858L219.839 26.0455V27ZM230.237 27.1449C232.253 27.1449 233.433 25.5 233.433 22.6406C233.433 19.8026 232.236 18.1534 230.237 18.1534C228.234 18.1534 227.041 19.7983 227.037 22.6406C227.037 25.4957 228.217 27.1406 230.237 27.1449ZM230.237 26.0071C229.057 26.0071 228.345 24.8224 228.345 22.6406C228.349 20.4673 229.061 19.2699 230.237 19.2699C231.409 19.2699 232.125 20.4673 232.125 22.6406C232.125 24.8224 231.413 26.0071 230.237 26.0071ZM237.983 27.1449C239.999 27.1449 241.179 25.5 241.179 22.6406C241.179 19.8026 239.982 18.1534 237.983 18.1534C235.98 18.1534 234.787 19.7983 234.783 22.6406C234.783 25.4957 235.963 27.1406 237.983 27.1449ZM237.983 26.0071C236.803 26.0071 236.091 24.8224 236.091 22.6406C236.096 20.4673 236.807 19.2699 237.983 19.2699C239.155 19.2699 239.871 20.4673 239.871 22.6406C239.871 24.8224 239.159 26.0071 237.983 26.0071Z" fill="black"/>
<path d="M326.878 27.1193C328.659 27.1193 329.967 26.054 329.963 24.6051C329.967 23.5014 329.298 22.7088 328.139 22.5298V22.4616C329.051 22.2273 329.643 21.5114 329.639 20.5312C329.643 19.2486 328.591 18.1534 326.912 18.1534C325.31 18.1534 324.023 19.1207 323.98 20.5398H325.254C325.284 19.7386 326.038 19.2528 326.895 19.2528C327.786 19.2528 328.369 19.794 328.365 20.5994C328.369 21.4432 327.692 21.9972 326.724 21.9972H325.987V23.071H326.724C327.935 23.071 328.634 23.6847 328.634 24.5625C328.634 25.4105 327.896 25.9858 326.869 25.9858C325.923 25.9858 325.186 25.5 325.135 24.7244H323.797C323.852 26.1477 325.114 27.1193 326.878 27.1193ZM334.612 27.1449C336.628 27.1449 337.808 25.5 337.808 22.6406C337.808 19.8026 336.611 18.1534 334.612 18.1534C332.609 18.1534 331.416 19.7983 331.412 22.6406C331.412 25.4957 332.592 27.1406 334.612 27.1449ZM334.612 26.0071C333.432 26.0071 332.72 24.8224 332.72 22.6406C332.724 20.4673 333.436 19.2699 334.612 19.2699C335.784 19.2699 336.5 20.4673 336.5 22.6406C336.5 24.8224 335.788 26.0071 334.612 26.0071ZM342.358 27.1449C344.374 27.1449 345.554 25.5 345.554 22.6406C345.554 19.8026 344.357 18.1534 342.358 18.1534C340.355 18.1534 339.162 19.7983 339.158 22.6406C339.158 25.4957 340.338 27.1406 342.358 27.1449ZM342.358 26.0071C341.178 26.0071 340.466 24.8224 340.466 22.6406C340.471 20.4673 341.182 19.2699 342.358 19.2699C343.53 19.2699 344.246 20.4673 344.246 22.6406C344.246 24.8224 343.534 26.0071 342.358 26.0071Z" fill="black"/>
<path d="M430.656 25.2955H434.794V27H436.051V25.2955H437.206V24.179H436.051V18.2727H434.428L430.656 24.2301V25.2955ZM434.803 24.179H432.037V24.1108L434.734 19.8409H434.803V24.179ZM441.729 27.1449C443.745 27.1449 444.925 25.5 444.925 22.6406C444.925 19.8026 443.728 18.1534 441.729 18.1534C439.727 18.1534 438.533 19.7983 438.529 22.6406C438.529 25.4957 439.71 27.1406 441.729 27.1449ZM441.729 26.0071C440.549 26.0071 439.837 24.8224 439.837 22.6406C439.842 20.4673 440.553 19.2699 441.729 19.2699C442.901 19.2699 443.617 20.4673 443.617 22.6406C443.617 24.8224 442.906 26.0071 441.729 26.0071ZM449.475 27.1449C451.491 27.1449 452.672 25.5 452.672 22.6406C452.672 19.8026 451.474 18.1534 449.475 18.1534C447.473 18.1534 446.279 19.7983 446.275 22.6406C446.275 25.4957 447.456 27.1406 449.475 27.1449ZM449.475 26.0071C448.295 26.0071 447.583 24.8224 447.583 22.6406C447.588 20.4673 448.299 19.2699 449.475 19.2699C450.647 19.2699 451.363 20.4673 451.363 22.6406C451.363 24.8224 450.652 26.0071 449.475 26.0071Z" fill="black"/>
<path d="M541.72 27.1193C543.476 27.1193 544.729 25.8793 544.724 24.179C544.729 22.4915 543.553 21.2642 541.963 21.2642C541.315 21.2642 540.714 21.5114 540.374 21.8438H540.322L540.599 19.402H544.303V18.2727H539.504L539.014 22.6705L540.22 22.8494C540.548 22.5554 541.136 22.3551 541.665 22.3551C542.7 22.3636 543.45 23.1392 543.45 24.2045C543.45 25.2528 542.722 26.0114 541.72 26.0114C540.876 26.0114 540.207 25.4744 540.139 24.7244H538.861C538.912 26.1136 540.118 27.1193 541.72 27.1193ZM549.319 27.1449C551.335 27.1449 552.515 25.5 552.515 22.6406C552.515 19.8026 551.318 18.1534 549.319 18.1534C547.316 18.1534 546.123 19.7983 546.119 22.6406C546.119 25.4957 547.299 27.1406 549.319 27.1449ZM549.319 26.0071C548.139 26.0071 547.427 24.8224 547.427 22.6406C547.431 20.4673 548.143 19.2699 549.319 19.2699C550.491 19.2699 551.207 20.4673 551.207 22.6406C551.207 24.8224 550.495 26.0071 549.319 26.0071ZM557.065 27.1449C559.081 27.1449 560.261 25.5 560.261 22.6406C560.261 19.8026 559.064 18.1534 557.065 18.1534C555.062 18.1534 553.869 19.7983 553.865 22.6406C553.865 25.4957 555.045 27.1406 557.065 27.1449ZM557.065 26.0071C555.885 26.0071 555.173 24.8224 555.173 22.6406C555.178 20.4673 555.889 19.2699 557.065 19.2699C558.237 19.2699 558.953 20.4673 558.953 22.6406C558.953 24.8224 558.241 26.0071 557.065 26.0071Z" fill="black"/>
<path d="M648.886 27.1193C650.71 27.1364 651.92 25.8239 651.916 24.1491C651.92 22.4787 650.706 21.2812 649.193 21.2812C648.273 21.2812 647.476 21.7244 647.028 22.4616H646.964C646.969 20.4801 647.719 19.304 648.997 19.304C649.837 19.304 650.365 19.8153 650.544 20.5398H651.844C651.643 19.1591 650.557 18.1534 648.997 18.1534C646.969 18.1534 645.703 19.8963 645.703 22.9304C645.699 26.1435 647.335 27.1065 648.886 27.1193ZM648.882 26.0114C647.868 26.0114 647.126 25.1591 647.126 24.179C647.131 23.2031 647.906 22.3509 648.912 22.3509C649.909 22.3509 650.642 23.1562 650.638 24.1662C650.642 25.1974 649.879 26.0114 648.882 26.0114ZM656.507 27.1449C658.522 27.1449 659.703 25.5 659.703 22.6406C659.703 19.8026 658.505 18.1534 656.507 18.1534C654.504 18.1534 653.311 19.7983 653.306 22.6406C653.306 25.4957 654.487 27.1406 656.507 27.1449ZM656.507 26.0071C655.326 26.0071 654.615 24.8224 654.615 22.6406C654.619 20.4673 655.331 19.2699 656.507 19.2699C657.679 19.2699 658.395 20.4673 658.395 22.6406C658.395 24.8224 657.683 26.0071 656.507 26.0071ZM664.253 27.1449C666.268 27.1449 667.449 25.5 667.449 22.6406C667.449 19.8026 666.251 18.1534 664.253 18.1534C662.25 18.1534 661.057 19.7983 661.053 22.6406C661.053 25.4957 662.233 27.1406 664.253 27.1449ZM664.253 26.0071C663.072 26.0071 662.361 24.8224 662.361 22.6406C662.365 20.4673 663.077 19.2699 664.253 19.2699C665.425 19.2699 666.141 20.4673 666.141 22.6406C666.141 24.8224 665.429 26.0071 664.253 26.0071Z" fill="black"/>
<path d="M756.134 27H757.51L761.307 19.4403V18.2727H755.537V19.402H759.943V19.4659L756.134 27ZM765.64 27.1449C767.655 27.1449 768.836 25.5 768.836 22.6406C768.836 19.8026 767.638 18.1534 765.64 18.1534C763.637 18.1534 762.444 19.7983 762.439 22.6406C762.439 25.4957 763.62 27.1406 765.64 27.1449ZM765.64 26.0071C764.459 26.0071 763.748 24.8224 763.748 22.6406C763.752 20.4673 764.463 19.2699 765.64 19.2699C766.811 19.2699 767.527 20.4673 767.527 22.6406C767.527 24.8224 766.816 26.0071 765.64 26.0071ZM773.386 27.1449C775.401 27.1449 776.582 25.5 776.582 22.6406C776.582 19.8026 775.384 18.1534 773.386 18.1534C771.383 18.1534 770.19 19.7983 770.185 22.6406C770.185 25.4957 771.366 27.1406 773.386 27.1449ZM773.386 26.0071C772.205 26.0071 771.494 24.8224 771.494 22.6406C771.498 20.4673 772.21 19.2699 773.386 19.2699C774.558 19.2699 775.273 20.4673 775.273 22.6406C775.273 24.8224 774.562 26.0071 773.386 26.0071Z" fill="black"/>
<path d="M863.788 27.1193C865.604 27.1193 866.886 26.0881 866.895 24.6733C866.886 23.5739 866.115 22.6491 865.139 22.4744V22.4233C865.987 22.2188 866.562 21.4219 866.571 20.4801C866.562 19.1463 865.386 18.1534 863.788 18.1534C862.173 18.1534 860.997 19.1463 861.006 20.4801C860.997 21.4176 861.572 22.2188 862.438 22.4233V22.4744C861.445 22.6491 860.673 23.5739 860.682 24.6733C860.673 26.0881 861.956 27.1193 863.788 27.1193ZM863.788 26.0412C862.697 26.0412 862.007 25.4616 862.016 24.5881C862.007 23.6804 862.757 23.0327 863.788 23.0327C864.803 23.0327 865.553 23.6804 865.561 24.5881C865.553 25.4616 864.866 26.0412 863.788 26.0412ZM863.788 21.9801C862.906 21.9801 862.28 21.4219 862.288 20.5909C862.28 19.7727 862.885 19.2315 863.788 19.2315C864.675 19.2315 865.28 19.7727 865.288 20.5909C865.28 21.4219 864.658 21.9801 863.788 21.9801ZM871.46 27.1449C873.475 27.1449 874.656 25.5 874.656 22.6406C874.656 19.8026 873.458 18.1534 871.46 18.1534C869.457 18.1534 868.264 19.7983 868.26 22.6406C868.26 25.4957 869.44 27.1406 871.46 27.1449ZM871.46 26.0071C870.279 26.0071 869.568 24.8224 869.568 22.6406C869.572 20.4673 870.284 19.2699 871.46 19.2699C872.632 19.2699 873.348 20.4673 873.348 22.6406C873.348 24.8224 872.636 26.0071 871.46 26.0071ZM879.206 27.1449C881.222 27.1449 882.402 25.5 882.402 22.6406C882.402 19.8026 881.205 18.1534 879.206 18.1534C877.203 18.1534 876.01 19.7983 876.006 22.6406C876.006 25.4957 877.186 27.1406 879.206 27.1449ZM879.206 26.0071C878.026 26.0071 877.314 24.8224 877.314 22.6406C877.318 20.4673 878.03 19.2699 879.206 19.2699C880.378 19.2699 881.094 20.4673 881.094 22.6406C881.094 24.8224 880.382 26.0071 879.206 26.0071Z" fill="black"/>
<path d="M971.741 18.1534C969.909 18.1364 968.712 19.4531 968.712 21.1065C968.716 22.7727 969.922 23.9744 971.435 23.9744C972.359 23.9744 973.152 23.5227 973.599 22.7898H973.668C973.663 24.7969 972.909 25.9688 971.631 25.9688C970.795 25.9688 970.259 25.4574 970.088 24.7116H968.788C968.98 26.1222 970.071 27.1193 971.631 27.1193C973.659 27.1193 974.929 25.3764 974.929 22.321C974.925 19.1335 973.297 18.1662 971.741 18.1534ZM971.746 19.2614C972.756 19.2614 973.501 20.1179 973.501 21.0767C973.506 22.0483 972.717 22.9006 971.72 22.9006C970.719 22.9006 969.994 22.0994 969.99 21.0895C969.99 20.0753 970.744 19.2614 971.746 19.2614ZM979.507 27.1449C981.522 27.1449 982.703 25.5 982.703 22.6406C982.703 19.8026 981.505 18.1534 979.507 18.1534C977.504 18.1534 976.311 19.7983 976.306 22.6406C976.306 25.4957 977.487 27.1406 979.507 27.1449ZM979.507 26.0071C978.326 26.0071 977.615 24.8224 977.615 22.6406C977.619 20.4673 978.331 19.2699 979.507 19.2699C980.679 19.2699 981.395 20.4673 981.395 22.6406C981.395 24.8224 980.683 26.0071 979.507 26.0071ZM987.253 27.1449C989.268 27.1449 990.449 25.5 990.449 22.6406C990.449 19.8026 989.251 18.1534 987.253 18.1534C985.25 18.1534 984.057 19.7983 984.053 22.6406C984.053 25.4957 985.233 27.1406 987.253 27.1449ZM987.253 26.0071C986.072 26.0071 985.361 24.8224 985.361 22.6406C985.365 20.4673 986.077 19.2699 987.253 19.2699C988.425 19.2699 989.141 20.4673 989.141 22.6406C989.141 24.8224 988.429 26.0071 987.253 26.0071Z" fill="black"/>
<path d="M998.584 60.2727H997.301L995.124 61.696V62.9574L997.212 61.5938H997.263V69H998.584V60.2727ZM1003.98 69.1449C1006 69.1449 1007.18 67.5 1007.18 64.6406C1007.18 61.8026 1005.98 60.1534 1003.98 60.1534C1001.98 60.1534 1000.79 61.7983 1000.78 64.6406C1000.78 67.4957 1001.96 69.1406 1003.98 69.1449ZM1003.98 68.0071C1002.8 68.0071 1002.09 66.8224 1002.09 64.6406C1002.1 62.4673 1002.81 61.2699 1003.98 61.2699C1005.16 61.2699 1005.87 62.4673 1005.87 64.6406C1005.87 66.8224 1005.16 68.0071 1003.98 68.0071ZM1013.3 69H1014.6L1015.93 64.2741H1016.03L1017.36 69H1018.66L1020.58 62.4545H1019.26L1017.99 67.2401H1017.92L1016.64 62.4545H1015.33L1014.04 67.2614H1013.98L1012.69 62.4545H1011.38L1013.3 69ZM1023.69 69.1449C1024.77 69.1449 1025.38 68.5952 1025.63 68.1051H1025.68V69H1026.92V64.6534C1026.92 62.7486 1025.42 62.3693 1024.38 62.3693C1023.2 62.3693 1022.11 62.8466 1021.68 64.0398L1022.88 64.3125C1023.06 63.848 1023.54 63.4006 1024.4 63.4006C1025.22 63.4006 1025.64 63.831 1025.64 64.5724V64.6023C1025.64 65.0668 1025.17 65.0582 1023.99 65.1946C1022.75 65.3395 1021.48 65.6634 1021.48 67.1506C1021.48 68.4375 1022.45 69.1449 1023.69 69.1449ZM1023.97 68.1222C1023.25 68.1222 1022.73 67.7983 1022.73 67.1676C1022.73 66.4858 1023.33 66.2429 1024.07 66.1449C1024.48 66.0895 1025.46 65.9787 1025.65 65.7955V66.6392C1025.65 67.4148 1025.03 68.1222 1023.97 68.1222ZM1033.98 62.4545H1032.62L1030.96 67.4915H1030.89L1029.24 62.4545H1027.87L1030.25 69H1031.61L1033.98 62.4545ZM1037.77 69.1321C1039.19 69.1321 1040.2 68.429 1040.49 67.3636L1039.29 67.1463C1039.06 67.7642 1038.5 68.0795 1037.78 68.0795C1036.69 68.0795 1035.96 67.3722 1035.92 66.1108H1040.58V65.6591C1040.58 63.294 1039.16 62.3693 1037.68 62.3693C1035.85 62.3693 1034.65 63.7585 1034.65 65.7699C1034.65 67.8026 1035.84 69.1321 1037.77 69.1321ZM1035.93 65.1562C1035.98 64.2273 1036.65 63.4219 1037.69 63.4219C1038.68 63.4219 1039.32 64.1548 1039.33 65.1562H1035.93ZM1046.89 64.0526C1046.63 63.0341 1045.83 62.3693 1044.42 62.3693C1042.94 62.3693 1041.89 63.1491 1041.89 64.3082C1041.89 65.2372 1042.45 65.8551 1043.68 66.1278L1044.79 66.3707C1045.42 66.5114 1045.71 66.7926 1045.71 67.2017C1045.71 67.7088 1045.17 68.1051 1044.34 68.1051C1043.57 68.1051 1043.08 67.777 1042.93 67.1335L1041.7 67.321C1041.91 68.4801 1042.88 69.1321 1044.35 69.1321C1045.93 69.1321 1047.02 68.2926 1047.02 67.108C1047.02 66.1832 1046.43 65.6122 1045.23 65.3352L1044.19 65.0966C1043.47 64.9261 1043.16 64.6832 1043.17 64.2401C1043.16 63.7372 1043.71 63.3793 1044.43 63.3793C1045.22 63.3793 1045.59 63.8182 1045.74 64.2571L1046.89 64.0526Z" fill="black"/>
<path d="M1080.15 18.2727H1078.87L1076.69 19.696V20.9574L1078.78 19.5938H1078.83V27H1080.15V18.2727ZM1085.55 27.1449C1087.57 27.1449 1088.75 25.5 1088.75 22.6406C1088.75 19.8026 1087.55 18.1534 1085.55 18.1534C1083.55 18.1534 1082.35 19.7983 1082.35 22.6406C1082.35 25.4957 1083.53 27.1406 1085.55 27.1449ZM1085.55 26.0071C1084.37 26.0071 1083.66 24.8224 1083.66 22.6406C1083.66 20.4673 1084.37 19.2699 1085.55 19.2699C1086.72 19.2699 1087.44 20.4673 1087.44 22.6406C1087.44 24.8224 1086.73 26.0071 1085.55 26.0071ZM1093.3 27.1449C1095.31 27.1449 1096.49 25.5 1096.49 22.6406C1096.49 19.8026 1095.29 18.1534 1093.3 18.1534C1091.29 18.1534 1090.1 19.7983 1090.1 22.6406C1090.1 25.4957 1091.28 27.1406 1093.3 27.1449ZM1093.3 26.0071C1092.12 26.0071 1091.4 24.8224 1091.4 22.6406C1091.41 20.4673 1092.12 19.2699 1093.3 19.2699C1094.47 19.2699 1095.18 20.4673 1095.18 22.6406C1095.18 24.8224 1094.47 26.0071 1093.3 26.0071ZM1101.04 27.1449C1103.06 27.1449 1104.24 25.5 1104.24 22.6406C1104.24 19.8026 1103.04 18.1534 1101.04 18.1534C1099.04 18.1534 1097.85 19.7983 1097.84 22.6406C1097.84 25.4957 1099.02 27.1406 1101.04 27.1449ZM1101.04 26.0071C1099.86 26.0071 1099.15 24.8224 1099.15 22.6406C1099.15 20.4673 1099.87 19.2699 1101.04 19.2699C1102.21 19.2699 1102.93 20.4673 1102.93 22.6406C1102.93 24.8224 1102.22 26.0071 1101.04 26.0071Z" fill="black"/>
</svg>
