<svg width="1099" height="52" viewBox="0 0 1099 52" fill="none" xmlns="http://www.w3.org/2000/svg">
<path d="M84.8738 49.9872C84.2886 49.9872 83.7658 49.8864 83.3056 49.6847C82.8482 49.483 82.486 49.2031 82.219 48.8452C81.9548 48.4844 81.8127 48.0668 81.7928 47.5924H83.1309C83.1479 47.8509 83.2346 48.0753 83.3908 48.2656C83.5499 48.4531 83.7573 48.598 84.013 48.7003C84.2687 48.8026 84.5528 48.8537 84.8653 48.8537C85.209 48.8537 85.513 48.7941 85.7772 48.6747C86.0442 48.5554 86.253 48.3892 86.4036 48.1762C86.5542 47.9602 86.6295 47.7117 86.6295 47.4304C86.6295 47.1378 86.5542 46.8807 86.4036 46.6591C86.2559 46.4347 86.0386 46.2585 85.7516 46.1307C85.4675 46.0029 85.1238 45.9389 84.7204 45.9389H83.9832V44.8651H84.7204C85.0442 44.8651 85.3283 44.8068 85.5727 44.6904C85.8198 44.5739 86.013 44.412 86.1522 44.2046C86.2914 43.9943 86.361 43.7486 86.361 43.4674C86.361 43.1975 86.2999 42.9631 86.1778 42.7642C86.0584 42.5625 85.888 42.4049 85.6664 42.2912C85.4477 42.1776 85.1891 42.1208 84.8908 42.1208C84.6067 42.1208 84.3411 42.1733 84.094 42.2784C83.8496 42.3807 83.6508 42.5284 83.4974 42.7216C83.344 42.912 83.2616 43.1406 83.2502 43.4077H81.9761C81.9903 42.9361 82.1295 42.5213 82.3937 42.1634C82.6607 41.8054 83.013 41.5256 83.4505 41.3239C83.888 41.1222 84.3738 41.0213 84.9079 41.0213C85.4675 41.0213 85.9505 41.1307 86.3567 41.3495C86.7658 41.5654 87.0812 41.8537 87.3028 42.2145C87.5272 42.5753 87.638 42.9702 87.6352 43.3992C87.638 43.8878 87.5016 44.3026 87.2261 44.6435C86.9533 44.9844 86.5897 45.2131 86.1352 45.3296V45.3977C86.7147 45.4858 87.1636 45.7159 87.4817 46.0881C87.8028 46.4602 87.9619 46.9219 87.959 47.473C87.9619 47.9531 87.8283 48.3835 87.5584 48.7642C87.2914 49.1449 86.9263 49.4446 86.4633 49.6634C86.0002 49.8793 85.4704 49.9872 84.8738 49.9872ZM94.1817 49.8679L92.2555 43.3225H93.5723L94.855 48.1293H94.9189L96.2058 43.3225H97.5226L98.801 48.108H98.8649L100.139 43.3225H101.456L99.5339 49.8679H98.2342L96.9047 45.1421H96.8067L95.4771 49.8679H94.1817ZM104.57 50.0128C104.155 50.0128 103.78 49.9361 103.445 49.7827C103.11 49.6264 102.844 49.4006 102.648 49.1051C102.455 48.8097 102.358 48.4475 102.358 48.0185C102.358 47.6492 102.429 47.3452 102.571 47.1066C102.713 46.8679 102.905 46.679 103.147 46.5398C103.388 46.4006 103.658 46.2955 103.956 46.2245C104.254 46.1534 104.558 46.0995 104.868 46.0625C105.26 46.0171 105.578 45.9801 105.823 45.9517C106.067 45.9205 106.245 45.8708 106.355 45.8026C106.466 45.7344 106.522 45.6236 106.522 45.4702V45.4404C106.522 45.0682 106.416 44.7799 106.206 44.5753C105.999 44.3708 105.689 44.2685 105.277 44.2685C104.848 44.2685 104.51 44.3637 104.263 44.554C104.019 44.7415 103.85 44.9503 103.756 45.1804L102.558 44.9077C102.7 44.51 102.908 44.1889 103.181 43.9446C103.456 43.6975 103.773 43.5185 104.131 43.4077C104.489 43.2941 104.865 43.2372 105.26 43.2372C105.522 43.2372 105.799 43.2685 106.091 43.331C106.387 43.3906 106.662 43.5014 106.918 43.6634C107.176 43.8253 107.388 44.0568 107.553 44.358C107.718 44.6563 107.8 45.0441 107.8 45.5213V49.8679H106.556V48.973H106.504C106.422 49.1378 106.299 49.2997 106.134 49.4588C105.969 49.6179 105.757 49.75 105.499 49.8551C105.24 49.9602 104.931 50.0128 104.57 50.0128ZM104.847 48.9901C105.199 48.9901 105.5 48.9205 105.75 48.7813C106.003 48.6421 106.195 48.4602 106.325 48.2358C106.459 48.0085 106.526 47.7656 106.526 47.5071V46.6634C106.48 46.7088 106.392 46.7514 106.262 46.7912C106.134 46.8281 105.987 46.8608 105.823 46.8892C105.658 46.9148 105.497 46.9389 105.341 46.9617C105.185 46.9816 105.054 46.9986 104.949 47.0128C104.702 47.0441 104.476 47.0966 104.272 47.1705C104.07 47.2443 103.908 47.3509 103.786 47.4901C103.666 47.6264 103.607 47.8083 103.607 48.0355C103.607 48.3509 103.723 48.5895 103.956 48.7514C104.189 48.9105 104.486 48.9901 104.847 48.9901ZM114.862 43.3225L112.488 49.8679H111.125L108.747 43.3225H110.115L111.773 48.3594H111.841L113.494 43.3225H114.862ZM118.658 50C118.013 50 117.458 49.8622 116.992 49.5867C116.529 49.3083 116.171 48.9176 115.918 48.4148C115.668 47.9091 115.543 47.3168 115.543 46.6378C115.543 45.9674 115.668 45.3764 115.918 44.8651C116.171 44.3537 116.523 43.9546 116.975 43.6676C117.429 43.3807 117.96 43.2372 118.568 43.2372C118.938 43.2372 119.296 43.2983 119.642 43.4205C119.989 43.5426 120.3 43.7344 120.575 43.9958C120.851 44.2571 121.068 44.5966 121.227 45.0142C121.387 45.429 121.466 45.9333 121.466 46.527V46.9787H116.263V46.0242H120.218C120.218 45.6889 120.149 45.3921 120.013 45.1335C119.877 44.8722 119.685 44.6662 119.438 44.5156C119.193 44.3651 118.906 44.2898 118.577 44.2898C118.219 44.2898 117.906 44.3779 117.639 44.554C117.375 44.7273 117.171 44.9546 117.026 45.2358C116.884 45.5142 116.813 45.8168 116.813 46.1435V46.8892C116.813 47.3267 116.889 47.6989 117.043 48.0057C117.199 48.3125 117.416 48.5469 117.695 48.7088C117.973 48.8679 118.299 48.9475 118.671 48.9475C118.912 48.9475 119.132 48.9134 119.331 48.8452C119.53 48.7742 119.702 48.6691 119.847 48.5299C119.992 48.3906 120.102 48.2188 120.179 48.0142L121.385 48.2316C121.289 48.5867 121.115 48.8977 120.865 49.1648C120.618 49.429 120.307 49.635 119.932 49.7827C119.56 49.9276 119.135 50 118.658 50ZM127.785 44.9205L126.63 45.125C126.582 44.9773 126.505 44.8367 126.4 44.7031C126.297 44.5696 126.158 44.4602 125.982 44.375C125.806 44.2898 125.586 44.2472 125.322 44.2472C124.961 44.2472 124.66 44.3281 124.418 44.4901C124.177 44.6492 124.056 44.8551 124.056 45.108C124.056 45.3267 124.137 45.5029 124.299 45.6364C124.461 45.7699 124.722 45.8793 125.083 45.9645L126.123 46.2031C126.725 46.3424 127.174 46.5568 127.469 46.8466C127.765 47.1364 127.912 47.5128 127.912 47.9759C127.912 48.3679 127.799 48.7174 127.572 49.0242C127.347 49.3281 127.033 49.5668 126.63 49.7401C126.229 49.9134 125.765 50 125.236 50C124.503 50 123.905 49.8438 123.442 49.5313C122.979 49.2159 122.695 48.7685 122.59 48.1889L123.822 48.0014C123.898 48.3225 124.056 48.5654 124.295 48.7301C124.533 48.8921 124.844 48.973 125.228 48.973C125.645 48.973 125.979 48.8864 126.229 48.7131C126.479 48.537 126.604 48.3225 126.604 48.0696C126.604 47.8651 126.528 47.6932 126.374 47.554C126.224 47.4148 125.992 47.3097 125.68 47.2387L124.572 46.9958C123.961 46.8566 123.509 46.635 123.216 46.331C122.927 46.027 122.782 45.6421 122.782 45.1762C122.782 44.7898 122.89 44.4517 123.106 44.162C123.322 43.8722 123.62 43.6463 124.001 43.4844C124.381 43.3196 124.817 43.2372 125.309 43.2372C126.016 43.2372 126.573 43.3906 126.979 43.6975C127.386 44.0014 127.654 44.4091 127.785 44.9205Z" fill="black"/>
<path d="M304.935 49.9872C304.546 49.9816 304.162 49.9105 303.784 49.7742C303.409 49.6378 303.069 49.4105 302.762 49.0924C302.455 48.7742 302.209 48.3466 302.025 47.8097C301.843 47.2727 301.752 46.6023 301.752 45.7983C301.752 45.037 301.827 44.3608 301.978 43.7699C302.131 43.179 302.351 42.6804 302.638 42.2742C302.925 41.8651 303.272 41.554 303.678 41.3409C304.084 41.1279 304.54 41.0213 305.046 41.0213C305.566 41.0213 306.027 41.1236 306.431 41.3281C306.834 41.5327 307.161 41.8154 307.411 42.1762C307.664 42.537 307.824 42.9475 307.892 43.4077H306.593C306.505 43.0441 306.33 42.7472 306.069 42.5171C305.807 42.287 305.466 42.1719 305.046 42.1719C304.407 42.1719 303.908 42.4503 303.55 43.0071C303.195 43.5639 303.016 44.3381 303.013 45.3296H303.077C303.228 45.0824 303.412 44.8722 303.631 44.6989C303.853 44.5227 304.1 44.3878 304.373 44.2941C304.648 44.1975 304.938 44.1492 305.242 44.1492C305.748 44.1492 306.205 44.2727 306.614 44.5199C307.026 44.7642 307.354 45.1023 307.598 45.5341C307.843 45.9659 307.965 46.4602 307.965 47.0171C307.965 47.5739 307.838 48.0781 307.586 48.5299C307.336 48.9816 306.983 49.3395 306.529 49.6037C306.074 49.8651 305.543 49.9929 304.935 49.9872ZM304.931 48.8793C305.266 48.8793 305.566 48.7969 305.83 48.6321C306.094 48.4674 306.303 48.2458 306.456 47.9674C306.61 47.6889 306.686 47.3779 306.686 47.0341C306.686 46.6989 306.611 46.3935 306.461 46.1179C306.313 45.8424 306.108 45.6236 305.847 45.4617C305.588 45.2997 305.293 45.2188 304.961 45.2188C304.708 45.2188 304.473 45.2671 304.257 45.3637C304.044 45.4602 303.857 45.5938 303.695 45.7642C303.533 45.9347 303.405 46.1307 303.311 46.3523C303.221 46.571 303.175 46.8026 303.175 47.0469C303.175 47.3736 303.25 47.6762 303.401 47.9546C303.554 48.233 303.763 48.4574 304.027 48.6279C304.294 48.7955 304.596 48.8793 304.931 48.8793ZM314.129 49.8679L312.203 43.3225H313.52L314.802 48.1293H314.866L316.153 43.3225H317.47L318.748 48.108H318.812L320.086 43.3225H321.403L319.481 49.8679H318.181L316.852 45.1421H316.754L315.424 49.8679H314.129ZM324.517 50.0128C324.102 50.0128 323.727 49.9361 323.392 49.7827C323.057 49.6264 322.791 49.4006 322.595 49.1051C322.402 48.8097 322.305 48.4475 322.305 48.0185C322.305 47.6492 322.376 47.3452 322.518 47.1066C322.661 46.8679 322.852 46.679 323.094 46.5398C323.335 46.4006 323.605 46.2955 323.903 46.2245C324.202 46.1534 324.506 46.0995 324.815 46.0625C325.207 46.0171 325.526 45.9801 325.77 45.9517C326.014 45.9205 326.192 45.8708 326.303 45.8026C326.413 45.7344 326.469 45.6236 326.469 45.4702V45.4404C326.469 45.0682 326.364 44.7799 326.153 44.5753C325.946 44.3708 325.636 44.2685 325.224 44.2685C324.795 44.2685 324.457 44.3637 324.21 44.554C323.966 44.7415 323.797 44.9503 323.703 45.1804L322.506 44.9077C322.648 44.51 322.855 44.1889 323.128 43.9446C323.403 43.6975 323.72 43.5185 324.078 43.4077C324.436 43.2941 324.813 43.2372 325.207 43.2372C325.469 43.2372 325.746 43.2685 326.038 43.331C326.334 43.3906 326.609 43.5014 326.865 43.6634C327.124 43.8253 327.335 44.0568 327.5 44.358C327.665 44.6563 327.747 45.0441 327.747 45.5213V49.8679H326.503V48.973H326.452C326.369 49.1378 326.246 49.2997 326.081 49.4588C325.916 49.6179 325.705 49.75 325.446 49.8551C325.188 49.9602 324.878 50.0128 324.517 50.0128ZM324.794 48.9901C325.146 48.9901 325.447 48.9205 325.697 48.7813C325.95 48.6421 326.142 48.4602 326.273 48.2358C326.406 48.0085 326.473 47.7656 326.473 47.5071V46.6634C326.428 46.7088 326.34 46.7514 326.209 46.7912C326.081 46.8281 325.935 46.8608 325.77 46.8892C325.605 46.9148 325.445 46.9389 325.288 46.9617C325.132 46.9816 325.001 46.9986 324.896 47.0128C324.649 47.0441 324.423 47.0966 324.219 47.1705C324.017 47.2443 323.855 47.3509 323.733 47.4901C323.614 47.6264 323.554 47.8083 323.554 48.0355C323.554 48.3509 323.67 48.5895 323.903 48.7514C324.136 48.9105 324.433 48.9901 324.794 48.9901ZM334.809 43.3225L332.436 49.8679H331.072L328.694 43.3225H330.062L331.72 48.3594H331.788L333.441 43.3225H334.809ZM338.605 50C337.96 50 337.405 49.8622 336.939 49.5867C336.476 49.3083 336.118 48.9176 335.865 48.4148C335.615 47.9091 335.49 47.3168 335.49 46.6378C335.49 45.9674 335.615 45.3764 335.865 44.8651C336.118 44.3537 336.47 43.9546 336.922 43.6676C337.376 43.3807 337.908 43.2372 338.516 43.2372C338.885 43.2372 339.243 43.2983 339.59 43.4205C339.936 43.5426 340.247 43.7344 340.523 43.9958C340.798 44.2571 341.016 44.5966 341.175 45.0142C341.334 45.429 341.413 45.9333 341.413 46.527V46.9787H336.21V46.0242H340.165C340.165 45.6889 340.097 45.3921 339.96 45.1335C339.824 44.8722 339.632 44.6662 339.385 44.5156C339.141 44.3651 338.854 44.2898 338.524 44.2898C338.166 44.2898 337.854 44.3779 337.587 44.554C337.322 44.7273 337.118 44.9546 336.973 45.2358C336.831 45.5142 336.76 45.8168 336.76 46.1435V46.8892C336.76 47.3267 336.837 47.6989 336.99 48.0057C337.146 48.3125 337.364 48.5469 337.642 48.7088C337.92 48.8679 338.246 48.9475 338.618 48.9475C338.859 48.9475 339.08 48.9134 339.278 48.8452C339.477 48.7742 339.649 48.6691 339.794 48.5299C339.939 48.3906 340.05 48.2188 340.126 48.0142L341.332 48.2316C341.236 48.5867 341.063 48.8977 340.813 49.1648C340.565 49.429 340.254 49.635 339.879 49.7827C339.507 49.9276 339.082 50 338.605 50ZM347.732 44.9205L346.577 45.125C346.529 44.9773 346.452 44.8367 346.347 44.7031C346.245 44.5696 346.106 44.4602 345.929 44.375C345.753 44.2898 345.533 44.2472 345.269 44.2472C344.908 44.2472 344.607 44.3281 344.365 44.4901C344.124 44.6492 344.003 44.8551 344.003 45.108C344.003 45.3267 344.084 45.5029 344.246 45.6364C344.408 45.7699 344.669 45.8793 345.03 45.9645L346.07 46.2031C346.672 46.3424 347.121 46.5568 347.417 46.8466C347.712 47.1364 347.86 47.5128 347.86 47.9759C347.86 48.3679 347.746 48.7174 347.519 49.0242C347.294 49.3281 346.981 49.5668 346.577 49.7401C346.177 49.9134 345.712 50 345.184 50C344.451 50 343.853 49.8438 343.39 49.5313C342.927 49.2159 342.642 48.7685 342.537 48.1889L343.769 48.0014C343.846 48.3225 344.003 48.5654 344.242 48.7301C344.481 48.8921 344.792 48.973 345.175 48.973C345.593 48.973 345.927 48.8864 346.177 48.7131C346.427 48.537 346.552 48.3225 346.552 48.0696C346.552 47.8651 346.475 47.6932 346.321 47.554C346.171 47.4148 345.939 47.3097 345.627 47.2387L344.519 46.9958C343.908 46.8566 343.456 46.635 343.164 46.331C342.874 46.027 342.729 45.6421 342.729 45.1762C342.729 44.7898 342.837 44.4517 343.053 44.162C343.269 43.8722 343.567 43.6463 343.948 43.4844C344.329 43.3196 344.765 43.2372 345.256 43.2372C345.963 43.2372 346.52 43.3906 346.927 43.6975C347.333 44.0014 347.601 44.4091 347.732 44.9205Z" fill="black"/>
<path d="M520.79 41.0213C521.179 41.0242 521.563 41.0952 521.941 41.2344C522.319 41.3736 522.659 41.6009 522.963 41.9162C523.27 42.2316 523.515 42.6577 523.696 43.1946C523.881 43.7287 523.975 44.3935 523.978 45.1889C523.978 45.9531 523.901 46.6335 523.748 47.2301C523.594 47.8239 523.374 48.3253 523.087 48.7344C522.803 49.1435 522.458 49.4546 522.052 49.6676C521.645 49.8807 521.188 49.9872 520.679 49.9872C520.159 49.9872 519.698 49.885 519.294 49.6804C518.891 49.4759 518.563 49.1932 518.31 48.8324C518.057 48.4688 517.9 48.0512 517.837 47.5796H519.137C519.222 47.9546 519.395 48.2585 519.657 48.4915C519.921 48.7216 520.262 48.8367 520.679 48.8367C521.319 48.8367 521.817 48.5583 522.175 48.0014C522.533 47.4418 522.713 46.6605 522.716 45.6577H522.648C522.5 45.902 522.316 46.1122 522.094 46.2884C521.875 46.4645 521.63 46.6009 521.357 46.6975C521.084 46.7941 520.793 46.8424 520.483 46.8424C519.98 46.8424 519.523 46.7188 519.111 46.4716C518.699 46.2245 518.371 45.885 518.127 45.4531C517.882 45.0213 517.76 44.5284 517.76 43.9745C517.76 43.4233 517.885 42.9233 518.135 42.4745C518.388 42.0256 518.74 41.6705 519.192 41.4091C519.647 41.1449 520.179 41.0156 520.79 41.0213ZM520.794 42.1293C520.462 42.1293 520.162 42.2117 519.895 42.3764C519.631 42.5384 519.422 42.7585 519.269 43.037C519.115 43.3125 519.039 43.6193 519.039 43.9574C519.039 44.2955 519.113 44.6023 519.26 44.8779C519.411 45.1506 519.615 45.3679 519.874 45.5299C520.135 45.6889 520.434 45.7685 520.769 45.7685C521.019 45.7685 521.252 45.7202 521.468 45.6236C521.684 45.527 521.873 45.3935 522.034 45.223C522.196 45.0497 522.323 44.8537 522.414 44.635C522.505 44.4162 522.55 44.1861 522.55 43.9446C522.55 43.6236 522.473 43.3253 522.32 43.0497C522.169 42.7742 521.962 42.5526 521.698 42.385C521.434 42.2145 521.132 42.1293 520.794 42.1293ZM530.129 49.8679L528.203 43.3225H529.52L530.802 48.1293H530.866L532.153 43.3225H533.47L534.748 48.108H534.812L536.086 43.3225H537.403L535.481 49.8679H534.181L532.852 45.1421H532.754L531.424 49.8679H530.129ZM540.517 50.0128C540.102 50.0128 539.727 49.9361 539.392 49.7827C539.057 49.6264 538.791 49.4006 538.595 49.1051C538.402 48.8097 538.305 48.4475 538.305 48.0185C538.305 47.6492 538.376 47.3452 538.518 47.1066C538.661 46.8679 538.852 46.679 539.094 46.5398C539.335 46.4006 539.605 46.2955 539.903 46.2245C540.202 46.1534 540.506 46.0995 540.815 46.0625C541.207 46.0171 541.526 45.9801 541.77 45.9517C542.014 45.9205 542.192 45.8708 542.303 45.8026C542.413 45.7344 542.469 45.6236 542.469 45.4702V45.4404C542.469 45.0682 542.364 44.7799 542.153 44.5753C541.946 44.3708 541.636 44.2685 541.224 44.2685C540.795 44.2685 540.457 44.3637 540.21 44.554C539.966 44.7415 539.797 44.9503 539.703 45.1804L538.506 44.9077C538.648 44.51 538.855 44.1889 539.128 43.9446C539.403 43.6975 539.72 43.5185 540.078 43.4077C540.436 43.2941 540.813 43.2372 541.207 43.2372C541.469 43.2372 541.746 43.2685 542.038 43.331C542.334 43.3906 542.609 43.5014 542.865 43.6634C543.124 43.8253 543.335 44.0568 543.5 44.358C543.665 44.6563 543.747 45.0441 543.747 45.5213V49.8679H542.503V48.973H542.452C542.369 49.1378 542.246 49.2997 542.081 49.4588C541.916 49.6179 541.705 49.75 541.446 49.8551C541.188 49.9602 540.878 50.0128 540.517 50.0128ZM540.794 48.9901C541.146 48.9901 541.447 48.9205 541.697 48.7813C541.95 48.6421 542.142 48.4602 542.273 48.2358C542.406 48.0085 542.473 47.7656 542.473 47.5071V46.6634C542.428 46.7088 542.34 46.7514 542.209 46.7912C542.081 46.8281 541.935 46.8608 541.77 46.8892C541.605 46.9148 541.445 46.9389 541.288 46.9617C541.132 46.9816 541.001 46.9986 540.896 47.0128C540.649 47.0441 540.423 47.0966 540.219 47.1705C540.017 47.2443 539.855 47.3509 539.733 47.4901C539.614 47.6264 539.554 47.8083 539.554 48.0355C539.554 48.3509 539.67 48.5895 539.903 48.7514C540.136 48.9105 540.433 48.9901 540.794 48.9901ZM550.809 43.3225L548.436 49.8679H547.072L544.694 43.3225H546.062L547.72 48.3594H547.788L549.441 43.3225H550.809ZM554.605 50C553.96 50 553.405 49.8622 552.939 49.5867C552.476 49.3083 552.118 48.9176 551.865 48.4148C551.615 47.9091 551.49 47.3168 551.49 46.6378C551.49 45.9674 551.615 45.3764 551.865 44.8651C552.118 44.3537 552.47 43.9546 552.922 43.6676C553.376 43.3807 553.908 43.2372 554.516 43.2372C554.885 43.2372 555.243 43.2983 555.59 43.4205C555.936 43.5426 556.247 43.7344 556.523 43.9958C556.798 44.2571 557.016 44.5966 557.175 45.0142C557.334 45.429 557.413 45.9333 557.413 46.527V46.9787H552.21V46.0242H556.165C556.165 45.6889 556.097 45.3921 555.96 45.1335C555.824 44.8722 555.632 44.6662 555.385 44.5156C555.141 44.3651 554.854 44.2898 554.524 44.2898C554.166 44.2898 553.854 44.3779 553.587 44.554C553.322 44.7273 553.118 44.9546 552.973 45.2358C552.831 45.5142 552.76 45.8168 552.76 46.1435V46.8892C552.76 47.3267 552.837 47.6989 552.99 48.0057C553.146 48.3125 553.364 48.5469 553.642 48.7088C553.92 48.8679 554.246 48.9475 554.618 48.9475C554.859 48.9475 555.08 48.9134 555.278 48.8452C555.477 48.7742 555.649 48.6691 555.794 48.5299C555.939 48.3906 556.05 48.2188 556.126 48.0142L557.332 48.2316C557.236 48.5867 557.063 48.8977 556.813 49.1648C556.565 49.429 556.254 49.635 555.879 49.7827C555.507 49.9276 555.082 50 554.605 50ZM563.732 44.9205L562.577 45.125C562.529 44.9773 562.452 44.8367 562.347 44.7031C562.245 44.5696 562.106 44.4602 561.929 44.375C561.753 44.2898 561.533 44.2472 561.269 44.2472C560.908 44.2472 560.607 44.3281 560.365 44.4901C560.124 44.6492 560.003 44.8551 560.003 45.108C560.003 45.3267 560.084 45.5029 560.246 45.6364C560.408 45.7699 560.669 45.8793 561.03 45.9645L562.07 46.2031C562.672 46.3424 563.121 46.5568 563.417 46.8466C563.712 47.1364 563.86 47.5128 563.86 47.9759C563.86 48.3679 563.746 48.7174 563.519 49.0242C563.294 49.3281 562.981 49.5668 562.577 49.7401C562.177 49.9134 561.712 50 561.184 50C560.451 50 559.853 49.8438 559.39 49.5313C558.927 49.2159 558.642 48.7685 558.537 48.1889L559.769 48.0014C559.846 48.3225 560.003 48.5654 560.242 48.7301C560.481 48.8921 560.792 48.973 561.175 48.973C561.593 48.973 561.927 48.8864 562.177 48.7131C562.427 48.537 562.552 48.3225 562.552 48.0696C562.552 47.8651 562.475 47.6932 562.321 47.554C562.171 47.4148 561.939 47.3097 561.627 47.2387L560.519 46.9958C559.908 46.8566 559.456 46.635 559.164 46.331C558.874 46.027 558.729 45.6421 558.729 45.1762C558.729 44.7898 558.837 44.4517 559.053 44.162C559.269 43.8722 559.567 43.6463 559.948 43.4844C560.329 43.3196 560.765 43.2372 561.256 43.2372C561.963 43.2372 562.52 43.3906 562.927 43.6975C563.333 44.0014 563.601 44.4091 563.732 44.9205Z" fill="black"/>
<path d="M739.498 41.1406V49.8679H738.177V42.4617H738.126L736.038 43.8253V42.5639L738.215 41.1406H739.498ZM741.859 49.8679V48.9134L744.812 45.8537C745.127 45.5213 745.387 45.2301 745.592 44.9801C745.799 44.7273 745.954 44.4872 746.056 44.26C746.159 44.0327 746.21 43.7912 746.21 43.5355C746.21 43.2458 746.142 42.9958 746.005 42.7855C745.869 42.5725 745.683 42.4091 745.447 42.2955C745.211 42.179 744.946 42.1208 744.65 42.1208C744.338 42.1208 744.065 42.1847 743.832 42.3125C743.599 42.4404 743.42 42.6208 743.295 42.8537C743.17 43.0867 743.107 43.3594 743.107 43.6719H741.85C741.85 43.1406 741.973 42.6762 742.217 42.2784C742.461 41.8807 742.796 41.5725 743.223 41.3537C743.649 41.1321 744.133 41.0213 744.676 41.0213C745.224 41.0213 745.707 41.1307 746.124 41.3495C746.545 41.5654 746.873 41.8608 747.109 42.2358C747.345 42.608 747.463 43.0284 747.463 43.4972C747.463 43.821 747.401 44.1378 747.279 44.4475C747.16 44.7571 746.951 45.1023 746.653 45.483C746.355 45.8608 745.94 46.3196 745.409 46.8594L743.674 48.6747V48.7387H747.603V49.8679H741.859ZM753.83 49.8679L751.904 43.3225H753.221L754.503 48.1293H754.567L755.854 43.3225H757.171L758.449 48.108H758.513L759.787 43.3225H761.104L759.182 49.8679H757.883L756.553 45.1421H756.455L755.126 49.8679H753.83ZM764.218 50.0128C763.803 50.0128 763.428 49.9361 763.093 49.7827C762.758 49.6264 762.492 49.4006 762.296 49.1051C762.103 48.8097 762.007 48.4475 762.007 48.0185C762.007 47.6492 762.078 47.3452 762.22 47.1066C762.362 46.8679 762.553 46.679 762.795 46.5398C763.036 46.4006 763.306 46.2955 763.605 46.2245C763.903 46.1534 764.207 46.0995 764.517 46.0625C764.909 46.0171 765.227 45.9801 765.471 45.9517C765.715 45.9205 765.893 45.8708 766.004 45.8026C766.115 45.7344 766.17 45.6236 766.17 45.4702V45.4404C766.17 45.0682 766.065 44.7799 765.855 44.5753C765.647 44.3708 765.338 44.2685 764.926 44.2685C764.497 44.2685 764.159 44.3637 763.911 44.554C763.667 44.7415 763.498 44.9503 763.404 45.1804L762.207 44.9077C762.349 44.51 762.556 44.1889 762.829 43.9446C763.105 43.6975 763.421 43.5185 763.779 43.4077C764.137 43.2941 764.514 43.2372 764.909 43.2372C765.17 43.2372 765.447 43.2685 765.74 43.331C766.035 43.3906 766.311 43.5014 766.566 43.6634C766.825 43.8253 767.036 44.0568 767.201 44.358C767.366 44.6563 767.448 45.0441 767.448 45.5213V49.8679H766.204V48.973H766.153C766.071 49.1378 765.947 49.2997 765.782 49.4588C765.617 49.6179 765.406 49.75 765.147 49.8551C764.889 49.9602 764.579 50.0128 764.218 50.0128ZM764.495 48.9901C764.848 48.9901 765.149 48.9205 765.399 48.7813C765.651 48.6421 765.843 48.4602 765.974 48.2358C766.107 48.0085 766.174 47.7656 766.174 47.5071V46.6634C766.129 46.7088 766.041 46.7514 765.91 46.7912C765.782 46.8281 765.636 46.8608 765.471 46.8892C765.306 46.9148 765.146 46.9389 764.99 46.9617C764.833 46.9816 764.703 46.9986 764.598 47.0128C764.35 47.0441 764.124 47.0966 763.92 47.1705C763.718 47.2443 763.556 47.3509 763.434 47.4901C763.315 47.6264 763.255 47.8083 763.255 48.0355C763.255 48.3509 763.372 48.5895 763.605 48.7514C763.838 48.9105 764.134 48.9901 764.495 48.9901ZM774.511 43.3225L772.137 49.8679H770.773L768.395 43.3225H769.763L771.421 48.3594H771.489L773.143 43.3225H774.511ZM778.306 50C777.661 50 777.106 49.8622 776.64 49.5867C776.177 49.3083 775.819 48.9176 775.566 48.4148C775.316 47.9091 775.191 47.3168 775.191 46.6378C775.191 45.9674 775.316 45.3764 775.566 44.8651C775.819 44.3537 776.171 43.9546 776.623 43.6676C777.078 43.3807 777.609 43.2372 778.217 43.2372C778.586 43.2372 778.944 43.2983 779.291 43.4205C779.637 43.5426 779.948 43.7344 780.224 43.9958C780.5 44.2571 780.717 44.5966 780.876 45.0142C781.035 45.429 781.115 45.9333 781.115 46.527V46.9787H775.911V46.0242H779.866C779.866 45.6889 779.798 45.3921 779.661 45.1335C779.525 44.8722 779.333 44.6662 779.086 44.5156C778.842 44.3651 778.555 44.2898 778.225 44.2898C777.867 44.2898 777.555 44.3779 777.288 44.554C777.024 44.7273 776.819 44.9546 776.674 45.2358C776.532 45.5142 776.461 45.8168 776.461 46.1435V46.8892C776.461 47.3267 776.538 47.6989 776.691 48.0057C776.848 48.3125 777.065 48.5469 777.343 48.7088C777.622 48.8679 777.947 48.9475 778.319 48.9475C778.561 48.9475 778.781 48.9134 778.98 48.8452C779.178 48.7742 779.35 48.6691 779.495 48.5299C779.64 48.3906 779.751 48.2188 779.828 48.0142L781.034 48.2316C780.937 48.5867 780.764 48.8977 780.514 49.1648C780.267 49.429 779.955 49.635 779.58 49.7827C779.208 49.9276 778.784 50 778.306 50ZM787.433 44.9205L786.278 45.125C786.23 44.9773 786.153 44.8367 786.048 44.7031C785.946 44.5696 785.807 44.4602 785.631 44.375C785.454 44.2898 785.234 44.2472 784.97 44.2472C784.609 44.2472 784.308 44.3281 784.067 44.4901C783.825 44.6492 783.704 44.8551 783.704 45.108C783.704 45.3267 783.785 45.5029 783.947 45.6364C784.109 45.7699 784.371 45.8793 784.731 45.9645L785.771 46.2031C786.373 46.3424 786.822 46.5568 787.118 46.8466C787.413 47.1364 787.561 47.5128 787.561 47.9759C787.561 48.3679 787.447 48.7174 787.22 49.0242C786.996 49.3281 786.682 49.5668 786.278 49.7401C785.878 49.9134 785.413 50 784.885 50C784.152 50 783.554 49.8438 783.091 49.5313C782.628 49.2159 782.344 48.7685 782.238 48.1889L783.47 48.0014C783.547 48.3225 783.704 48.5654 783.943 48.7301C784.182 48.8921 784.493 48.973 784.876 48.973C785.294 48.973 785.628 48.8864 785.878 48.7131C786.128 48.537 786.253 48.3225 786.253 48.0696C786.253 47.8651 786.176 47.6932 786.023 47.554C785.872 47.4148 785.64 47.3097 785.328 47.2387L784.22 46.9958C783.609 46.8566 783.158 46.635 782.865 46.331C782.575 46.027 782.43 45.6421 782.43 45.1762C782.43 44.7898 782.538 44.4517 782.754 44.162C782.97 43.8722 783.268 43.6463 783.649 43.4844C784.03 43.3196 784.466 43.2372 784.957 43.2372C785.665 43.2372 786.221 43.3906 786.628 43.6975C787.034 44.0014 787.302 44.4091 787.433 44.9205Z" fill="black"/>
<line x1="3" y1="32.5659" x2="1079" y2="32.5659" stroke="black" stroke-width="2"/>
<line x1="3.18848" y1="19.585" x2="3.18848" y2="46.4718" stroke="black" stroke-width="2"/>
<line x1="218.283" y1="19.585" x2="218.283" y2="46.4718" stroke="black" stroke-width="2"/>
<line x1="433.377" y1="19.585" x2="433.377" y2="46.4718" stroke="black" stroke-width="2"/>
<line x1="648.472" y1="19.585" x2="648.472" y2="46.4718" stroke="black" stroke-width="2"/>
<line x1="863.566" y1="19.585" x2="863.566" y2="46.4718" stroke="black" stroke-width="2"/>
<line x1="1078.66" y1="19.585" x2="1078.66" y2="46.4718" stroke="black" stroke-width="2"/>
<path d="M3.87784 9.14489C3.20455 9.14205 2.62926 8.96449 2.15199 8.61222C1.67472 8.25994 1.30966 7.74716 1.05682 7.07386C0.803977 6.40057 0.677557 5.58949 0.677557 4.64062C0.677557 3.6946 0.803977 2.88636 1.05682 2.21591C1.3125 1.54545 1.67898 1.03409 2.15625 0.681818C2.63636 0.329545 3.21023 0.153409 3.87784 0.153409C4.54545 0.153409 5.1179 0.330966 5.59517 0.686079C6.07244 1.03835 6.4375 1.54972 6.69034 2.22017C6.94602 2.88778 7.07386 3.6946 7.07386 4.64062C7.07386 5.59233 6.94744 6.40483 6.6946 7.07812C6.44176 7.74858 6.0767 8.26136 5.59943 8.61648C5.12216 8.96875 4.5483 9.14489 3.87784 9.14489ZM3.87784 8.0071C4.46875 8.0071 4.9304 7.71875 5.26278 7.14205C5.59801 6.56534 5.76562 5.73153 5.76562 4.64062C5.76562 3.91619 5.68892 3.30398 5.53551 2.80398C5.38494 2.30114 5.16761 1.92045 4.88352 1.66193C4.60227 1.40057 4.26705 1.26989 3.87784 1.26989C3.28977 1.26989 2.82813 1.55966 2.4929 2.1392C2.15767 2.71875 1.98864 3.55256 1.9858 4.64062C1.9858 5.3679 2.06108 5.98295 2.21165 6.4858C2.36506 6.9858 2.58239 7.36506 2.86364 7.62358C3.14489 7.87926 3.48295 8.0071 3.87784 8.0071Z" fill="black"/>
<path d="M199.221 0.272727V9H197.9V1.59375H197.849L195.761 2.95739V1.69602L197.938 0.272727H199.221ZM204.484 0.153409C204.873 0.15625 205.256 0.227273 205.634 0.366477C206.012 0.505682 206.353 0.732954 206.657 1.0483C206.964 1.36364 207.208 1.78977 207.39 2.3267C207.575 2.8608 207.668 3.52557 207.671 4.32102C207.671 5.08523 207.594 5.76562 207.441 6.36222C207.288 6.95597 207.067 7.45739 206.781 7.86648C206.496 8.27557 206.151 8.58665 205.745 8.79972C205.339 9.01278 204.881 9.11932 204.373 9.11932C203.853 9.11932 203.391 9.01705 202.988 8.8125C202.585 8.60795 202.256 8.32528 202.004 7.96449C201.751 7.60085 201.593 7.18324 201.531 6.71165H202.83C202.915 7.08665 203.089 7.39062 203.35 7.62358C203.614 7.85369 203.955 7.96875 204.373 7.96875C205.012 7.96875 205.511 7.69034 205.869 7.13352C206.227 6.57386 206.407 5.79261 206.41 4.78977H206.342C206.194 5.03409 206.009 5.24432 205.788 5.42045C205.569 5.59659 205.323 5.73295 205.05 5.82955C204.778 5.92614 204.487 5.97443 204.177 5.97443C203.674 5.97443 203.217 5.85085 202.805 5.60369C202.393 5.35653 202.065 5.01705 201.82 4.58523C201.576 4.15341 201.454 3.66051 201.454 3.10653C201.454 2.5554 201.579 2.0554 201.829 1.60653C202.082 1.15767 202.434 0.802557 202.886 0.541193C203.34 0.276988 203.873 0.147727 204.484 0.153409ZM204.488 1.26136C204.156 1.26136 203.856 1.34375 203.589 1.50852C203.325 1.67045 203.116 1.89062 202.962 2.16903C202.809 2.4446 202.732 2.75142 202.732 3.08949C202.732 3.42756 202.806 3.73437 202.954 4.00994C203.104 4.28267 203.309 4.5 203.567 4.66193C203.829 4.82102 204.127 4.90057 204.462 4.90057C204.712 4.90057 204.945 4.85227 205.161 4.75568C205.377 4.65909 205.566 4.52557 205.728 4.35511C205.89 4.18182 206.016 3.9858 206.107 3.76705C206.198 3.5483 206.244 3.31818 206.244 3.0767C206.244 2.75568 206.167 2.45739 206.013 2.18182C205.863 1.90625 205.656 1.68466 205.391 1.51705C205.127 1.34659 204.826 1.26136 204.488 1.26136ZM212.113 0.153409C212.502 0.15625 212.885 0.227273 213.263 0.366477C213.641 0.505682 213.982 0.732954 214.286 1.0483C214.593 1.36364 214.837 1.78977 215.019 2.3267C215.203 2.8608 215.297 3.52557 215.3 4.32102C215.3 5.08523 215.223 5.76562 215.07 6.36222C214.917 6.95597 214.696 7.45739 214.409 7.86648C214.125 8.27557 213.78 8.58665 213.374 8.79972C212.968 9.01278 212.51 9.11932 212.002 9.11932C211.482 9.11932 211.02 9.01705 210.617 8.8125C210.213 8.60795 209.885 8.32528 209.632 7.96449C209.38 7.60085 209.222 7.18324 209.159 6.71165H210.459C210.544 7.08665 210.718 7.39062 210.979 7.62358C211.243 7.85369 211.584 7.96875 212.002 7.96875C212.641 7.96875 213.14 7.69034 213.498 7.13352C213.855 6.57386 214.036 5.79261 214.039 4.78977H213.971C213.823 5.03409 213.638 5.24432 213.417 5.42045C213.198 5.59659 212.952 5.73295 212.679 5.82955C212.407 5.92614 212.115 5.97443 211.806 5.97443C211.303 5.97443 210.846 5.85085 210.434 5.60369C210.022 5.35653 209.694 5.01705 209.449 4.58523C209.205 4.15341 209.083 3.66051 209.083 3.10653C209.083 2.5554 209.208 2.0554 209.458 1.60653C209.711 1.15767 210.063 0.802557 210.515 0.541193C210.969 0.276988 211.502 0.147727 212.113 0.153409ZM212.117 1.26136C211.784 1.26136 211.485 1.34375 211.218 1.50852C210.953 1.67045 210.745 1.89062 210.591 2.16903C210.438 2.4446 210.361 2.75142 210.361 3.08949C210.361 3.42756 210.435 3.73437 210.583 4.00994C210.733 4.28267 210.938 4.5 211.196 4.66193C211.458 4.82102 211.756 4.90057 212.091 4.90057C212.341 4.90057 212.574 4.85227 212.79 4.75568C213.006 4.65909 213.195 4.52557 213.357 4.35511C213.519 4.18182 213.645 3.9858 213.736 3.76705C213.827 3.5483 213.873 3.31818 213.873 3.0767C213.873 2.75568 213.796 2.45739 213.642 2.18182C213.492 1.90625 213.284 1.68466 213.02 1.51705C212.756 1.34659 212.455 1.26136 212.117 1.26136Z" fill="black"/>
<path d="M226.839 9V8.04545L229.793 4.9858C230.108 4.65341 230.368 4.36222 230.572 4.11222C230.78 3.85937 230.935 3.61932 231.037 3.39205C231.139 3.16477 231.19 2.9233 231.19 2.66761C231.19 2.37784 231.122 2.12784 230.986 1.91761C230.849 1.70455 230.663 1.54119 230.428 1.42756C230.192 1.31108 229.926 1.25284 229.631 1.25284C229.318 1.25284 229.045 1.31676 228.812 1.4446C228.58 1.57244 228.401 1.75284 228.276 1.9858C228.151 2.21875 228.088 2.49148 228.088 2.80398H226.831C226.831 2.27273 226.953 1.80824 227.197 1.41051C227.442 1.01278 227.777 0.704545 228.203 0.485795C228.629 0.264204 229.114 0.153409 229.656 0.153409C230.205 0.153409 230.688 0.262784 231.105 0.481534C231.526 0.697443 231.854 0.992897 232.089 1.3679C232.325 1.74006 232.443 2.16051 232.443 2.62926C232.443 2.95312 232.382 3.26989 232.26 3.57955C232.141 3.8892 231.932 4.23437 231.634 4.61506C231.335 4.9929 230.92 5.4517 230.389 5.99148L228.655 7.80682V7.87074H232.584V9H226.839ZM237.237 9.14489C236.564 9.14205 235.989 8.96449 235.511 8.61222C235.034 8.25994 234.669 7.74716 234.416 7.07386C234.163 6.40057 234.037 5.58949 234.037 4.64062C234.037 3.6946 234.163 2.88636 234.416 2.21591C234.672 1.54545 235.038 1.03409 235.516 0.681818C235.996 0.329545 236.57 0.153409 237.237 0.153409C237.905 0.153409 238.477 0.330966 238.955 0.686079C239.432 1.03835 239.797 1.54972 240.05 2.22017C240.305 2.88778 240.433 3.6946 240.433 4.64062C240.433 5.59233 240.307 6.40483 240.054 7.07812C239.801 7.74858 239.436 8.26136 238.959 8.61648C238.482 8.96875 237.908 9.14489 237.237 9.14489ZM237.237 8.0071C237.828 8.0071 238.29 7.71875 238.622 7.14205C238.957 6.56534 239.125 5.73153 239.125 4.64062C239.125 3.91619 239.048 3.30398 238.895 2.80398C238.744 2.30114 238.527 1.92045 238.243 1.66193C237.962 1.40057 237.626 1.26989 237.237 1.26989C236.649 1.26989 236.188 1.55966 235.852 2.1392C235.517 2.71875 235.348 3.55256 235.345 4.64062C235.345 5.3679 235.42 5.98295 235.571 6.4858C235.724 6.9858 235.942 7.36506 236.223 7.62358C236.504 7.87926 236.842 8.0071 237.237 8.0071ZM244.983 9.14489C244.31 9.14205 243.735 8.96449 243.257 8.61222C242.78 8.25994 242.415 7.74716 242.162 7.07386C241.909 6.40057 241.783 5.58949 241.783 4.64062C241.783 3.6946 241.909 2.88636 242.162 2.21591C242.418 1.54545 242.784 1.03409 243.262 0.681818C243.742 0.329545 244.316 0.153409 244.983 0.153409C245.651 0.153409 246.223 0.330966 246.701 0.686079C247.178 1.03835 247.543 1.54972 247.796 2.22017C248.051 2.88778 248.179 3.6946 248.179 4.64062C248.179 5.59233 248.053 6.40483 247.8 7.07812C247.547 7.74858 247.182 8.26136 246.705 8.61648C246.228 8.96875 245.654 9.14489 244.983 9.14489ZM244.983 8.0071C245.574 8.0071 246.036 7.71875 246.368 7.14205C246.703 6.56534 246.871 5.73153 246.871 4.64062C246.871 3.91619 246.794 3.30398 246.641 2.80398C246.49 2.30114 246.273 1.92045 245.989 1.66193C245.708 1.40057 245.373 1.26989 244.983 1.26989C244.395 1.26989 243.934 1.55966 243.598 2.1392C243.263 2.71875 243.094 3.55256 243.091 4.64062C243.091 5.3679 243.167 5.98295 243.317 6.4858C243.471 6.9858 243.688 7.36506 243.969 7.62358C244.25 7.87926 244.588 8.0071 244.983 8.0071Z" fill="black"/>
<path d="M409.886 9.11932C409.3 9.11932 408.778 9.01847 408.317 8.81676C407.86 8.61506 407.498 8.33523 407.231 7.97727C406.967 7.61648 406.825 7.19886 406.805 6.72443H408.143C408.16 6.98295 408.246 7.20739 408.403 7.39773C408.562 7.58523 408.769 7.73011 409.025 7.83239C409.281 7.93466 409.565 7.9858 409.877 7.9858C410.221 7.9858 410.525 7.92614 410.789 7.80682C411.056 7.6875 411.265 7.52131 411.415 7.30824C411.566 7.09233 411.641 6.84375 411.641 6.5625C411.641 6.26989 411.566 6.01278 411.415 5.79119C411.268 5.56676 411.05 5.39062 410.763 5.26278C410.479 5.13494 410.136 5.07102 409.732 5.07102H408.995V3.99716H409.732C410.056 3.99716 410.34 3.93892 410.585 3.82244C410.832 3.70597 411.025 3.54403 411.164 3.33665C411.303 3.12642 411.373 2.88068 411.373 2.59943C411.373 2.32955 411.312 2.09517 411.19 1.89631C411.07 1.6946 410.9 1.53693 410.678 1.4233C410.46 1.30966 410.201 1.25284 409.903 1.25284C409.619 1.25284 409.353 1.3054 409.106 1.41051C408.862 1.51278 408.663 1.66051 408.509 1.85369C408.356 2.04403 408.273 2.27273 408.262 2.53977H406.988C407.002 2.06818 407.141 1.65341 407.406 1.29545C407.673 0.9375 408.025 0.65767 408.462 0.455966C408.9 0.254261 409.386 0.153409 409.92 0.153409C410.479 0.153409 410.962 0.262784 411.369 0.481534C411.778 0.697443 412.093 0.985795 412.315 1.34659C412.539 1.70739 412.65 2.10227 412.647 2.53125C412.65 3.01989 412.513 3.43466 412.238 3.77557C411.965 4.11648 411.602 4.34517 411.147 4.46165V4.52983C411.727 4.6179 412.175 4.84801 412.494 5.22017C412.815 5.59233 412.974 6.05398 412.971 6.60511C412.974 7.08523 412.84 7.51562 412.57 7.89631C412.303 8.27699 411.938 8.5767 411.475 8.79545C411.012 9.01136 410.482 9.11932 409.886 9.11932ZM417.484 0.153409C417.873 0.15625 418.256 0.227273 418.634 0.366477C419.012 0.505682 419.353 0.732954 419.657 1.0483C419.964 1.36364 420.208 1.78977 420.39 2.3267C420.575 2.8608 420.668 3.52557 420.671 4.32102C420.671 5.08523 420.594 5.76562 420.441 6.36222C420.288 6.95597 420.067 7.45739 419.781 7.86648C419.496 8.27557 419.151 8.58665 418.745 8.79972C418.339 9.01278 417.881 9.11932 417.373 9.11932C416.853 9.11932 416.391 9.01705 415.988 8.8125C415.585 8.60795 415.256 8.32528 415.004 7.96449C414.751 7.60085 414.593 7.18324 414.531 6.71165H415.83C415.915 7.08665 416.089 7.39062 416.35 7.62358C416.614 7.85369 416.955 7.96875 417.373 7.96875C418.012 7.96875 418.511 7.69034 418.869 7.13352C419.227 6.57386 419.407 5.79261 419.41 4.78977H419.342C419.194 5.03409 419.009 5.24432 418.788 5.42045C418.569 5.59659 418.323 5.73295 418.05 5.82955C417.778 5.92614 417.487 5.97443 417.177 5.97443C416.674 5.97443 416.217 5.85085 415.805 5.60369C415.393 5.35653 415.065 5.01705 414.82 4.58523C414.576 4.15341 414.454 3.66051 414.454 3.10653C414.454 2.5554 414.579 2.0554 414.829 1.60653C415.082 1.15767 415.434 0.802557 415.886 0.541193C416.34 0.276988 416.873 0.147727 417.484 0.153409ZM417.488 1.26136C417.156 1.26136 416.856 1.34375 416.589 1.50852C416.325 1.67045 416.116 1.89062 415.962 2.16903C415.809 2.4446 415.732 2.75142 415.732 3.08949C415.732 3.42756 415.806 3.73437 415.954 4.00994C416.104 4.28267 416.309 4.5 416.567 4.66193C416.829 4.82102 417.127 4.90057 417.462 4.90057C417.712 4.90057 417.945 4.85227 418.161 4.75568C418.377 4.65909 418.566 4.52557 418.728 4.35511C418.89 4.18182 419.016 3.9858 419.107 3.76705C419.198 3.5483 419.244 3.31818 419.244 3.0767C419.244 2.75568 419.167 2.45739 419.013 2.18182C418.863 1.90625 418.656 1.68466 418.391 1.51705C418.127 1.34659 417.826 1.26136 417.488 1.26136ZM425.113 0.153409C425.502 0.15625 425.885 0.227273 426.263 0.366477C426.641 0.505682 426.982 0.732954 427.286 1.0483C427.593 1.36364 427.837 1.78977 428.019 2.3267C428.203 2.8608 428.297 3.52557 428.3 4.32102C428.3 5.08523 428.223 5.76562 428.07 6.36222C427.917 6.95597 427.696 7.45739 427.409 7.86648C427.125 8.27557 426.78 8.58665 426.374 8.79972C425.968 9.01278 425.51 9.11932 425.002 9.11932C424.482 9.11932 424.02 9.01705 423.617 8.8125C423.213 8.60795 422.885 8.32528 422.632 7.96449C422.38 7.60085 422.222 7.18324 422.159 6.71165H423.459C423.544 7.08665 423.718 7.39062 423.979 7.62358C424.243 7.85369 424.584 7.96875 425.002 7.96875C425.641 7.96875 426.14 7.69034 426.498 7.13352C426.855 6.57386 427.036 5.79261 427.039 4.78977H426.971C426.823 5.03409 426.638 5.24432 426.417 5.42045C426.198 5.59659 425.952 5.73295 425.679 5.82955C425.407 5.92614 425.115 5.97443 424.806 5.97443C424.303 5.97443 423.846 5.85085 423.434 5.60369C423.022 5.35653 422.694 5.01705 422.449 4.58523C422.205 4.15341 422.083 3.66051 422.083 3.10653C422.083 2.5554 422.208 2.0554 422.458 1.60653C422.711 1.15767 423.063 0.802557 423.515 0.541193C423.969 0.276988 424.502 0.147727 425.113 0.153409ZM425.117 1.26136C424.784 1.26136 424.485 1.34375 424.218 1.50852C423.953 1.67045 423.745 1.89062 423.591 2.16903C423.438 2.4446 423.361 2.75142 423.361 3.08949C423.361 3.42756 423.435 3.73437 423.583 4.00994C423.733 4.28267 423.938 4.5 424.196 4.66193C424.458 4.82102 424.756 4.90057 425.091 4.90057C425.341 4.90057 425.574 4.85227 425.79 4.75568C426.006 4.65909 426.195 4.52557 426.357 4.35511C426.519 4.18182 426.645 3.9858 426.736 3.76705C426.827 3.5483 426.873 3.31818 426.873 3.0767C426.873 2.75568 426.796 2.45739 426.642 2.18182C426.492 1.90625 426.284 1.68466 426.02 1.51705C425.756 1.34659 425.455 1.26136 425.117 1.26136Z" fill="black"/>
<path d="M439.656 7.29545V6.23011L443.428 0.272727H444.267V1.84091H443.734L441.037 6.1108V6.17898H446.206V7.29545H439.656ZM443.794 9V6.97159L443.803 6.4858V0.272727H445.051V9H443.794ZM450.729 9.14489C450.056 9.14205 449.481 8.96449 449.004 8.61222C448.526 8.25994 448.161 7.74716 447.908 7.07386C447.656 6.40057 447.529 5.58949 447.529 4.64062C447.529 3.6946 447.656 2.88636 447.908 2.21591C448.164 1.54545 448.531 1.03409 449.008 0.681818C449.488 0.329545 450.062 0.153409 450.729 0.153409C451.397 0.153409 451.969 0.330966 452.447 0.686079C452.924 1.03835 453.289 1.54972 453.542 2.22017C453.798 2.88778 453.925 3.6946 453.925 4.64062C453.925 5.59233 453.799 6.40483 453.546 7.07812C453.293 7.74858 452.928 8.26136 452.451 8.61648C451.974 8.96875 451.4 9.14489 450.729 9.14489ZM450.729 8.0071C451.32 8.0071 451.782 7.71875 452.114 7.14205C452.45 6.56534 452.617 5.73153 452.617 4.64062C452.617 3.91619 452.54 3.30398 452.387 2.80398C452.237 2.30114 452.019 1.92045 451.735 1.66193C451.454 1.40057 451.119 1.26989 450.729 1.26989C450.141 1.26989 449.68 1.55966 449.344 2.1392C449.009 2.71875 448.84 3.55256 448.837 4.64062C448.837 5.3679 448.913 5.98295 449.063 6.4858C449.217 6.9858 449.434 7.36506 449.715 7.62358C449.996 7.87926 450.335 8.0071 450.729 8.0071ZM458.475 9.14489C457.802 9.14205 457.227 8.96449 456.75 8.61222C456.272 8.25994 455.907 7.74716 455.654 7.07386C455.402 6.40057 455.275 5.58949 455.275 4.64062C455.275 3.6946 455.402 2.88636 455.654 2.21591C455.91 1.54545 456.277 1.03409 456.754 0.681818C457.234 0.329545 457.808 0.153409 458.475 0.153409C459.143 0.153409 459.716 0.330966 460.193 0.686079C460.67 1.03835 461.035 1.54972 461.288 2.22017C461.544 2.88778 461.672 3.6946 461.672 4.64062C461.672 5.59233 461.545 6.40483 461.292 7.07812C461.039 7.74858 460.674 8.26136 460.197 8.61648C459.72 8.96875 459.146 9.14489 458.475 9.14489ZM458.475 8.0071C459.066 8.0071 459.528 7.71875 459.86 7.14205C460.196 6.56534 460.363 5.73153 460.363 4.64062C460.363 3.91619 460.287 3.30398 460.133 2.80398C459.983 2.30114 459.765 1.92045 459.481 1.66193C459.2 1.40057 458.865 1.26989 458.475 1.26989C457.887 1.26989 457.426 1.55966 457.091 2.1392C456.755 2.71875 456.586 3.55256 456.583 4.64062C456.583 5.3679 456.659 5.98295 456.809 6.4858C456.963 6.9858 457.18 7.36506 457.461 7.62358C457.743 7.87926 458.081 8.0071 458.475 8.0071Z" fill="black"/>
<path d="M623.021 9.11932C622.487 9.11932 622.007 9.01705 621.581 8.8125C621.157 8.60511 620.819 8.32102 620.566 7.96023C620.314 7.59943 620.179 7.1875 620.162 6.72443H621.44C621.471 7.09943 621.637 7.40767 621.939 7.64915C622.24 7.89062 622.6 8.01136 623.021 8.01136C623.356 8.01136 623.653 7.93466 623.912 7.78125C624.173 7.625 624.377 7.41051 624.525 7.13778C624.676 6.86506 624.751 6.55398 624.751 6.20455C624.751 5.84943 624.674 5.53267 624.521 5.25426C624.368 4.97585 624.156 4.7571 623.886 4.59801C623.619 4.43892 623.312 4.35795 622.966 4.35511C622.701 4.35511 622.436 4.40057 622.169 4.49148C621.902 4.58239 621.686 4.7017 621.521 4.84943L620.315 4.67045L620.805 0.272727H625.603V1.40199H621.9L621.623 3.84375H621.674C621.845 3.67898 622.071 3.54119 622.352 3.4304C622.636 3.3196 622.94 3.2642 623.264 3.2642C623.795 3.2642 624.268 3.39062 624.683 3.64347C625.1 3.89631 625.429 4.24148 625.667 4.67898C625.909 5.11364 626.028 5.61364 626.025 6.17898C626.028 6.74432 625.9 7.24858 625.642 7.69176C625.386 8.13494 625.031 8.48437 624.576 8.74006C624.125 8.9929 623.606 9.11932 623.021 9.11932ZM630.484 0.153409C630.873 0.15625 631.256 0.227273 631.634 0.366477C632.012 0.505682 632.353 0.732954 632.657 1.0483C632.964 1.36364 633.208 1.78977 633.39 2.3267C633.575 2.8608 633.668 3.52557 633.671 4.32102C633.671 5.08523 633.594 5.76562 633.441 6.36222C633.288 6.95597 633.067 7.45739 632.781 7.86648C632.496 8.27557 632.151 8.58665 631.745 8.79972C631.339 9.01278 630.881 9.11932 630.373 9.11932C629.853 9.11932 629.391 9.01705 628.988 8.8125C628.585 8.60795 628.256 8.32528 628.004 7.96449C627.751 7.60085 627.593 7.18324 627.531 6.71165H628.83C628.915 7.08665 629.089 7.39062 629.35 7.62358C629.614 7.85369 629.955 7.96875 630.373 7.96875C631.012 7.96875 631.511 7.69034 631.869 7.13352C632.227 6.57386 632.407 5.79261 632.41 4.78977H632.342C632.194 5.03409 632.009 5.24432 631.788 5.42045C631.569 5.59659 631.323 5.73295 631.05 5.82955C630.778 5.92614 630.487 5.97443 630.177 5.97443C629.674 5.97443 629.217 5.85085 628.805 5.60369C628.393 5.35653 628.065 5.01705 627.82 4.58523C627.576 4.15341 627.454 3.66051 627.454 3.10653C627.454 2.5554 627.579 2.0554 627.829 1.60653C628.082 1.15767 628.434 0.802557 628.886 0.541193C629.34 0.276988 629.873 0.147727 630.484 0.153409ZM630.488 1.26136C630.156 1.26136 629.856 1.34375 629.589 1.50852C629.325 1.67045 629.116 1.89062 628.962 2.16903C628.809 2.4446 628.732 2.75142 628.732 3.08949C628.732 3.42756 628.806 3.73437 628.954 4.00994C629.104 4.28267 629.309 4.5 629.567 4.66193C629.829 4.82102 630.127 4.90057 630.462 4.90057C630.712 4.90057 630.945 4.85227 631.161 4.75568C631.377 4.65909 631.566 4.52557 631.728 4.35511C631.89 4.18182 632.016 3.9858 632.107 3.76705C632.198 3.5483 632.244 3.31818 632.244 3.0767C632.244 2.75568 632.167 2.45739 632.013 2.18182C631.863 1.90625 631.656 1.68466 631.391 1.51705C631.127 1.34659 630.826 1.26136 630.488 1.26136ZM638.113 0.153409C638.502 0.15625 638.885 0.227273 639.263 0.366477C639.641 0.505682 639.982 0.732954 640.286 1.0483C640.593 1.36364 640.837 1.78977 641.019 2.3267C641.203 2.8608 641.297 3.52557 641.3 4.32102C641.3 5.08523 641.223 5.76562 641.07 6.36222C640.917 6.95597 640.696 7.45739 640.409 7.86648C640.125 8.27557 639.78 8.58665 639.374 8.79972C638.968 9.01278 638.51 9.11932 638.002 9.11932C637.482 9.11932 637.02 9.01705 636.617 8.8125C636.213 8.60795 635.885 8.32528 635.632 7.96449C635.38 7.60085 635.222 7.18324 635.159 6.71165H636.459C636.544 7.08665 636.718 7.39062 636.979 7.62358C637.243 7.85369 637.584 7.96875 638.002 7.96875C638.641 7.96875 639.14 7.69034 639.498 7.13352C639.855 6.57386 640.036 5.79261 640.039 4.78977H639.971C639.823 5.03409 639.638 5.24432 639.417 5.42045C639.198 5.59659 638.952 5.73295 638.679 5.82955C638.407 5.92614 638.115 5.97443 637.806 5.97443C637.303 5.97443 636.846 5.85085 636.434 5.60369C636.022 5.35653 635.694 5.01705 635.449 4.58523C635.205 4.15341 635.083 3.66051 635.083 3.10653C635.083 2.5554 635.208 2.0554 635.458 1.60653C635.711 1.15767 636.063 0.802557 636.515 0.541193C636.969 0.276988 637.502 0.147727 638.113 0.153409ZM638.117 1.26136C637.784 1.26136 637.485 1.34375 637.218 1.50852C636.953 1.67045 636.745 1.89062 636.591 2.16903C636.438 2.4446 636.361 2.75142 636.361 3.08949C636.361 3.42756 636.435 3.73437 636.583 4.00994C636.733 4.28267 636.938 4.5 637.196 4.66193C637.458 4.82102 637.756 4.90057 638.091 4.90057C638.341 4.90057 638.574 4.85227 638.79 4.75568C639.006 4.65909 639.195 4.52557 639.357 4.35511C639.519 4.18182 639.645 3.9858 639.736 3.76705C639.827 3.5483 639.873 3.31818 639.873 3.0767C639.873 2.75568 639.796 2.45739 639.642 2.18182C639.492 1.90625 639.284 1.68466 639.02 1.51705C638.756 1.34659 638.455 1.26136 638.117 1.26136Z" fill="black"/>
<path d="M655.886 9.11932C655.497 9.11364 655.114 9.04261 654.736 8.90625C654.361 8.76989 654.02 8.54261 653.713 8.22443C653.406 7.90625 653.161 7.47869 652.976 6.94176C652.794 6.40483 652.703 5.73437 652.703 4.9304C652.703 4.16903 652.778 3.4929 652.929 2.90199C653.082 2.31108 653.303 1.8125 653.589 1.40625C653.876 0.997159 654.223 0.686079 654.629 0.473011C655.036 0.259943 655.491 0.153409 655.997 0.153409C656.517 0.153409 656.979 0.255682 657.382 0.460227C657.786 0.664773 658.112 0.947443 658.362 1.30824C658.615 1.66903 658.776 2.07955 658.844 2.53977H657.544C657.456 2.17614 657.281 1.87926 657.02 1.64915C656.759 1.41903 656.418 1.30398 655.997 1.30398C655.358 1.30398 654.859 1.58239 654.501 2.1392C654.146 2.69602 653.967 3.47017 653.964 4.46165H654.028C654.179 4.21449 654.364 4.00426 654.582 3.83097C654.804 3.65483 655.051 3.51989 655.324 3.42614C655.599 3.32955 655.889 3.28125 656.193 3.28125C656.699 3.28125 657.156 3.40483 657.565 3.65199C657.977 3.89631 658.305 4.23437 658.55 4.66619C658.794 5.09801 658.916 5.59233 658.916 6.14915C658.916 6.70597 658.79 7.21023 658.537 7.66193C658.287 8.11364 657.935 8.47159 657.48 8.7358C657.026 8.99716 656.494 9.125 655.886 9.11932ZM655.882 8.01136C656.217 8.01136 656.517 7.92898 656.781 7.7642C657.045 7.59943 657.254 7.37784 657.408 7.09943C657.561 6.82102 657.638 6.50994 657.638 6.16619C657.638 5.83097 657.563 5.52557 657.412 5.25C657.264 4.97443 657.06 4.75568 656.798 4.59375C656.54 4.43182 656.244 4.35085 655.912 4.35085C655.659 4.35085 655.425 4.39915 655.209 4.49574C654.996 4.59233 654.808 4.72585 654.646 4.89631C654.484 5.06676 654.357 5.26278 654.263 5.48438C654.172 5.70312 654.126 5.93466 654.126 6.17898C654.126 6.50568 654.202 6.80824 654.352 7.08665C654.506 7.36506 654.714 7.58949 654.979 7.75994C655.246 7.92756 655.547 8.01136 655.882 8.01136ZM663.507 9.14489C662.833 9.14205 662.258 8.96449 661.781 8.61222C661.304 8.25994 660.939 7.74716 660.686 7.07386C660.433 6.40057 660.306 5.58949 660.306 4.64062C660.306 3.6946 660.433 2.88636 660.686 2.21591C660.941 1.54545 661.308 1.03409 661.785 0.681818C662.265 0.329545 662.839 0.153409 663.507 0.153409C664.174 0.153409 664.747 0.330966 665.224 0.686079C665.701 1.03835 666.066 1.54972 666.319 2.22017C666.575 2.88778 666.703 3.6946 666.703 4.64062C666.703 5.59233 666.576 6.40483 666.324 7.07812C666.071 7.74858 665.706 8.26136 665.228 8.61648C664.751 8.96875 664.177 9.14489 663.507 9.14489ZM663.507 8.0071C664.098 8.0071 664.559 7.71875 664.892 7.14205C665.227 6.56534 665.395 5.73153 665.395 4.64062C665.395 3.91619 665.318 3.30398 665.164 2.80398C665.014 2.30114 664.797 1.92045 664.512 1.66193C664.231 1.40057 663.896 1.26989 663.507 1.26989C662.919 1.26989 662.457 1.55966 662.122 2.1392C661.787 2.71875 661.618 3.55256 661.615 4.64062C661.615 5.3679 661.69 5.98295 661.841 6.4858C661.994 6.9858 662.211 7.36506 662.493 7.62358C662.774 7.87926 663.112 8.0071 663.507 8.0071ZM671.253 9.14489C670.58 9.14205 670.004 8.96449 669.527 8.61222C669.05 8.25994 668.685 7.74716 668.432 7.07386C668.179 6.40057 668.053 5.58949 668.053 4.64062C668.053 3.6946 668.179 2.88636 668.432 2.21591C668.688 1.54545 669.054 1.03409 669.531 0.681818C670.011 0.329545 670.585 0.153409 671.253 0.153409C671.92 0.153409 672.493 0.330966 672.97 0.686079C673.447 1.03835 673.813 1.54972 674.065 2.22017C674.321 2.88778 674.449 3.6946 674.449 4.64062C674.449 5.59233 674.322 6.40483 674.07 7.07812C673.817 7.74858 673.452 8.26136 672.974 8.61648C672.497 8.96875 671.923 9.14489 671.253 9.14489ZM671.253 8.0071C671.844 8.0071 672.305 7.71875 672.638 7.14205C672.973 6.56534 673.141 5.73153 673.141 4.64062C673.141 3.91619 673.064 3.30398 672.911 2.80398C672.76 2.30114 672.543 1.92045 672.259 1.66193C671.977 1.40057 671.642 1.26989 671.253 1.26989C670.665 1.26989 670.203 1.55966 669.868 2.1392C669.533 2.71875 669.364 3.55256 669.361 4.64062C669.361 5.3679 669.436 5.98295 669.587 6.4858C669.74 6.9858 669.957 7.36506 670.239 7.62358C670.52 7.87926 670.858 8.0071 671.253 8.0071Z" fill="black"/>
<path d="M838.044 9L841.853 1.46591V1.40199H837.447V0.272727H843.217V1.44034L839.42 9H838.044ZM847.484 0.153409C847.873 0.15625 848.256 0.227273 848.634 0.366477C849.012 0.505682 849.353 0.732954 849.657 1.0483C849.964 1.36364 850.208 1.78977 850.39 2.3267C850.575 2.8608 850.668 3.52557 850.671 4.32102C850.671 5.08523 850.594 5.76562 850.441 6.36222C850.288 6.95597 850.067 7.45739 849.781 7.86648C849.496 8.27557 849.151 8.58665 848.745 8.79972C848.339 9.01278 847.881 9.11932 847.373 9.11932C846.853 9.11932 846.391 9.01705 845.988 8.8125C845.585 8.60795 845.256 8.32528 845.004 7.96449C844.751 7.60085 844.593 7.18324 844.531 6.71165H845.83C845.915 7.08665 846.089 7.39062 846.35 7.62358C846.614 7.85369 846.955 7.96875 847.373 7.96875C848.012 7.96875 848.511 7.69034 848.869 7.13352C849.227 6.57386 849.407 5.79261 849.41 4.78977H849.342C849.194 5.03409 849.009 5.24432 848.788 5.42045C848.569 5.59659 848.323 5.73295 848.05 5.82955C847.778 5.92614 847.487 5.97443 847.177 5.97443C846.674 5.97443 846.217 5.85085 845.805 5.60369C845.393 5.35653 845.065 5.01705 844.82 4.58523C844.576 4.15341 844.454 3.66051 844.454 3.10653C844.454 2.5554 844.579 2.0554 844.829 1.60653C845.082 1.15767 845.434 0.802557 845.886 0.541193C846.34 0.276988 846.873 0.147727 847.484 0.153409ZM847.488 1.26136C847.156 1.26136 846.856 1.34375 846.589 1.50852C846.325 1.67045 846.116 1.89062 845.962 2.16903C845.809 2.4446 845.732 2.75142 845.732 3.08949C845.732 3.42756 845.806 3.73437 845.954 4.00994C846.104 4.28267 846.309 4.5 846.567 4.66193C846.829 4.82102 847.127 4.90057 847.462 4.90057C847.712 4.90057 847.945 4.85227 848.161 4.75568C848.377 4.65909 848.566 4.52557 848.728 4.35511C848.89 4.18182 849.016 3.9858 849.107 3.76705C849.198 3.5483 849.244 3.31818 849.244 3.0767C849.244 2.75568 849.167 2.45739 849.013 2.18182C848.863 1.90625 848.656 1.68466 848.391 1.51705C848.127 1.34659 847.826 1.26136 847.488 1.26136ZM855.113 0.153409C855.502 0.15625 855.885 0.227273 856.263 0.366477C856.641 0.505682 856.982 0.732954 857.286 1.0483C857.593 1.36364 857.837 1.78977 858.019 2.3267C858.203 2.8608 858.297 3.52557 858.3 4.32102C858.3 5.08523 858.223 5.76562 858.07 6.36222C857.917 6.95597 857.696 7.45739 857.409 7.86648C857.125 8.27557 856.78 8.58665 856.374 8.79972C855.968 9.01278 855.51 9.11932 855.002 9.11932C854.482 9.11932 854.02 9.01705 853.617 8.8125C853.213 8.60795 852.885 8.32528 852.632 7.96449C852.38 7.60085 852.222 7.18324 852.159 6.71165H853.459C853.544 7.08665 853.718 7.39062 853.979 7.62358C854.243 7.85369 854.584 7.96875 855.002 7.96875C855.641 7.96875 856.14 7.69034 856.498 7.13352C856.855 6.57386 857.036 5.79261 857.039 4.78977H856.971C856.823 5.03409 856.638 5.24432 856.417 5.42045C856.198 5.59659 855.952 5.73295 855.679 5.82955C855.407 5.92614 855.115 5.97443 854.806 5.97443C854.303 5.97443 853.846 5.85085 853.434 5.60369C853.022 5.35653 852.694 5.01705 852.449 4.58523C852.205 4.15341 852.083 3.66051 852.083 3.10653C852.083 2.5554 852.208 2.0554 852.458 1.60653C852.711 1.15767 853.063 0.802557 853.515 0.541193C853.969 0.276988 854.502 0.147727 855.113 0.153409ZM855.117 1.26136C854.784 1.26136 854.485 1.34375 854.218 1.50852C853.953 1.67045 853.745 1.89062 853.591 2.16903C853.438 2.4446 853.361 2.75142 853.361 3.08949C853.361 3.42756 853.435 3.73437 853.583 4.00994C853.733 4.28267 853.938 4.5 854.196 4.66193C854.458 4.82102 854.756 4.90057 855.091 4.90057C855.341 4.90057 855.574 4.85227 855.79 4.75568C856.006 4.65909 856.195 4.52557 856.357 4.35511C856.519 4.18182 856.645 3.9858 856.736 3.76705C856.827 3.5483 856.873 3.31818 856.873 3.0767C856.873 2.75568 856.796 2.45739 856.642 2.18182C856.492 1.90625 856.284 1.68466 856.02 1.51705C855.756 1.34659 855.455 1.26136 855.117 1.26136Z" fill="black"/>
<path d="M873.788 9.11932C873.178 9.11932 872.638 9.0142 872.169 8.80398C871.703 8.59375 871.338 8.30398 871.074 7.93466C870.81 7.56534 870.679 7.14489 870.682 6.6733C870.679 6.30398 870.754 5.96449 870.908 5.65483C871.064 5.34233 871.276 5.08239 871.543 4.875C871.81 4.66477 872.108 4.53125 872.438 4.47443V4.4233C872.003 4.31818 871.655 4.08523 871.393 3.72443C871.132 3.36364 871.003 2.94886 871.006 2.48011C871.003 2.03409 871.121 1.63636 871.359 1.28693C871.601 0.934659 871.932 0.65767 872.352 0.455966C872.773 0.254261 873.251 0.153409 873.788 0.153409C874.32 0.153409 874.794 0.255682 875.212 0.460227C875.632 0.661932 875.963 0.93892 876.205 1.29119C876.446 1.64062 876.568 2.03693 876.571 2.48011C876.568 2.94886 876.435 3.36364 876.17 3.72443C875.906 4.08523 875.563 4.31818 875.139 4.4233V4.47443C875.466 4.53125 875.76 4.66477 876.021 4.875C876.286 5.08239 876.496 5.34233 876.652 5.65483C876.811 5.96449 876.892 6.30398 876.895 6.6733C876.892 7.14489 876.759 7.56534 876.494 7.93466C876.23 8.30398 875.864 8.59375 875.395 8.80398C874.929 9.0142 874.393 9.11932 873.788 9.11932ZM873.788 8.04119C874.149 8.04119 874.462 7.98153 874.726 7.86222C874.99 7.74006 875.195 7.57102 875.339 7.35511C875.484 7.13636 875.558 6.88068 875.561 6.58807C875.558 6.28409 875.479 6.01562 875.322 5.78267C875.169 5.54972 874.96 5.36648 874.696 5.23295C874.432 5.09943 874.129 5.03267 873.788 5.03267C873.445 5.03267 873.139 5.09943 872.872 5.23295C872.605 5.36648 872.395 5.54972 872.241 5.78267C872.088 6.01562 872.013 6.28409 872.016 6.58807C872.013 6.88068 872.082 7.13636 872.224 7.35511C872.369 7.57102 872.575 7.74006 872.842 7.86222C873.109 7.98153 873.425 8.04119 873.788 8.04119ZM873.788 3.98011C874.078 3.98011 874.335 3.92187 874.56 3.8054C874.784 3.68892 874.96 3.52699 875.088 3.3196C875.219 3.11222 875.286 2.86932 875.288 2.59091C875.286 2.31818 875.22 2.07955 875.092 1.875C874.967 1.67045 874.793 1.51278 874.568 1.40199C874.344 1.28835 874.084 1.23153 873.788 1.23153C873.487 1.23153 873.223 1.28835 872.996 1.40199C872.771 1.51278 872.597 1.67045 872.472 1.875C872.347 2.07955 872.286 2.31818 872.288 2.59091C872.286 2.86932 872.348 3.11222 872.476 3.3196C872.604 3.52699 872.78 3.68892 873.004 3.8054C873.232 3.92187 873.493 3.98011 873.788 3.98011ZM881.46 9.14489C880.787 9.14205 880.211 8.96449 879.734 8.61222C879.257 8.25994 878.892 7.74716 878.639 7.07386C878.386 6.40057 878.26 5.58949 878.26 4.64062C878.26 3.6946 878.386 2.88636 878.639 2.21591C878.895 1.54545 879.261 1.03409 879.738 0.681818C880.218 0.329545 880.792 0.153409 881.46 0.153409C882.127 0.153409 882.7 0.330966 883.177 0.686079C883.654 1.03835 884.02 1.54972 884.272 2.22017C884.528 2.88778 884.656 3.6946 884.656 4.64062C884.656 5.59233 884.529 6.40483 884.277 7.07812C884.024 7.74858 883.659 8.26136 883.181 8.61648C882.704 8.96875 882.13 9.14489 881.46 9.14489ZM881.46 8.0071C882.051 8.0071 882.512 7.71875 882.845 7.14205C883.18 6.56534 883.348 5.73153 883.348 4.64062C883.348 3.91619 883.271 3.30398 883.118 2.80398C882.967 2.30114 882.75 1.92045 882.466 1.66193C882.184 1.40057 881.849 1.26989 881.46 1.26989C880.872 1.26989 880.41 1.55966 880.075 2.1392C879.74 2.71875 879.571 3.55256 879.568 4.64062C879.568 5.3679 879.643 5.98295 879.794 6.4858C879.947 6.9858 880.164 7.36506 880.446 7.62358C880.727 7.87926 881.065 8.0071 881.46 8.0071ZM889.206 9.14489C888.533 9.14205 887.957 8.96449 887.48 8.61222C887.003 8.25994 886.638 7.74716 886.385 7.07386C886.132 6.40057 886.006 5.58949 886.006 4.64062C886.006 3.6946 886.132 2.88636 886.385 2.21591C886.641 1.54545 887.007 1.03409 887.484 0.681818C887.964 0.329545 888.538 0.153409 889.206 0.153409C889.874 0.153409 890.446 0.330966 890.923 0.686079C891.401 1.03835 891.766 1.54972 892.018 2.22017C892.274 2.88778 892.402 3.6946 892.402 4.64062C892.402 5.59233 892.276 6.40483 892.023 7.07812C891.77 7.74858 891.405 8.26136 890.928 8.61648C890.45 8.96875 889.876 9.14489 889.206 9.14489ZM889.206 8.0071C889.797 8.0071 890.259 7.71875 890.591 7.14205C890.926 6.56534 891.094 5.73153 891.094 4.64062C891.094 3.91619 891.017 3.30398 890.864 2.80398C890.713 2.30114 890.496 1.92045 890.212 1.66193C889.93 1.40057 889.595 1.26989 889.206 1.26989C888.618 1.26989 888.156 1.55966 887.821 2.1392C887.486 2.71875 887.317 3.55256 887.314 4.64062C887.314 5.3679 887.389 5.98295 887.54 6.4858C887.693 6.9858 887.911 7.36506 888.192 7.62358C888.473 7.87926 888.811 8.0071 889.206 8.0071Z" fill="black"/>
<path d="M948.731 42.2727V51H947.41V43.5938H947.358L945.27 44.9574V43.696L947.448 42.2727H948.731ZM953.972 51.1193C953.438 51.1193 952.958 51.017 952.532 50.8125C952.108 50.6051 951.77 50.321 951.518 49.9602C951.265 49.5994 951.13 49.1875 951.113 48.7244H952.391C952.422 49.0994 952.589 49.4077 952.89 49.6491C953.191 49.8906 953.552 50.0114 953.972 50.0114C954.307 50.0114 954.604 49.9347 954.863 49.7812C955.124 49.625 955.329 49.4105 955.476 49.1378C955.627 48.8651 955.702 48.554 955.702 48.2045C955.702 47.8494 955.626 47.5327 955.472 47.2543C955.319 46.9759 955.107 46.7571 954.837 46.598C954.57 46.4389 954.263 46.358 953.917 46.3551C953.653 46.3551 953.387 46.4006 953.12 46.4915C952.853 46.5824 952.637 46.7017 952.472 46.8494L951.266 46.6705L951.756 42.2727H956.555V43.402H952.851L952.574 45.8438H952.626C952.796 45.679 953.022 45.5412 953.303 45.4304C953.587 45.3196 953.891 45.2642 954.215 45.2642C954.746 45.2642 955.219 45.3906 955.634 45.6435C956.052 45.8963 956.38 46.2415 956.618 46.679C956.86 47.1136 956.979 47.6136 956.976 48.179C956.979 48.7443 956.851 49.2486 956.593 49.6918C956.337 50.1349 955.982 50.4844 955.528 50.7401C955.076 50.9929 954.557 51.1193 953.972 51.1193ZM963.145 51L961.219 44.4545H962.535L963.818 49.2614H963.882L965.169 44.4545H966.486L967.764 49.2401H967.828L969.102 44.4545H970.419L968.497 51H967.197L965.868 46.2741H965.77L964.44 51H963.145ZM973.533 51.1449C973.118 51.1449 972.743 51.0682 972.408 50.9148C972.073 50.7585 971.807 50.5327 971.611 50.2372C971.418 49.9418 971.321 49.5795 971.321 49.1506C971.321 48.7812 971.392 48.4773 971.534 48.2386C971.676 48 971.868 47.8111 972.11 47.6719C972.351 47.5327 972.621 47.4276 972.919 47.3565C973.218 47.2855 973.521 47.2315 973.831 47.1946C974.223 47.1491 974.541 47.1122 974.786 47.0838C975.03 47.0526 975.208 47.0028 975.318 46.9347C975.429 46.8665 975.485 46.7557 975.485 46.6023V46.5724C975.485 46.2003 975.379 45.9119 975.169 45.7074C974.962 45.5028 974.652 45.4006 974.24 45.4006C973.811 45.4006 973.473 45.4957 973.226 45.6861C972.982 45.8736 972.813 46.0824 972.719 46.3125L971.521 46.0398C971.664 45.642 971.871 45.321 972.144 45.0767C972.419 44.8295 972.736 44.6506 973.094 44.5398C973.452 44.4261 973.828 44.3693 974.223 44.3693C974.485 44.3693 974.762 44.4006 975.054 44.4631C975.35 44.5227 975.625 44.6335 975.881 44.7955C976.139 44.9574 976.351 45.1889 976.516 45.4901C976.681 45.7884 976.763 46.1761 976.763 46.6534V51H975.519V50.1051H975.468C975.385 50.2699 975.262 50.4318 975.097 50.5909C974.932 50.75 974.72 50.8821 974.462 50.9872C974.203 51.0923 973.894 51.1449 973.533 51.1449ZM973.81 50.1222C974.162 50.1222 974.463 50.0526 974.713 49.9134C974.966 49.7741 975.158 49.5923 975.289 49.3679C975.422 49.1406 975.489 48.8977 975.489 48.6392V47.7955C975.443 47.8409 975.355 47.8835 975.225 47.9233C975.097 47.9602 974.95 47.9929 974.786 48.0213C974.621 48.0469 974.46 48.071 974.304 48.0938C974.148 48.1136 974.017 48.1307 973.912 48.1449C973.665 48.1761 973.439 48.2287 973.235 48.3026C973.033 48.3764 972.871 48.483 972.749 48.6222C972.629 48.7585 972.57 48.9403 972.57 49.1676C972.57 49.483 972.686 49.7216 972.919 49.8835C973.152 50.0426 973.449 50.1222 973.81 50.1222ZM983.825 44.4545L981.452 51H980.088L977.71 44.4545H979.078L980.736 49.4915H980.804L982.457 44.4545H983.825ZM987.621 51.1321C986.976 51.1321 986.421 50.9943 985.955 50.7188C985.492 50.4403 985.134 50.0497 984.881 49.5469C984.631 49.0412 984.506 48.4489 984.506 47.7699C984.506 47.0994 984.631 46.5085 984.881 45.9972C985.134 45.4858 985.486 45.0866 985.938 44.7997C986.392 44.5128 986.923 44.3693 987.531 44.3693C987.901 44.3693 988.259 44.4304 988.605 44.5526C988.952 44.6747 989.263 44.8665 989.539 45.1278C989.814 45.3892 990.031 45.7287 990.191 46.1463C990.35 46.5611 990.429 47.0653 990.429 47.6591V48.1108H985.226V47.1562H989.181C989.181 46.821 989.112 46.5241 988.976 46.2656C988.84 46.0043 988.648 45.7983 988.401 45.6477C988.156 45.4972 987.869 45.4219 987.54 45.4219C987.182 45.4219 986.869 45.5099 986.602 45.6861C986.338 45.8594 986.134 46.0866 985.989 46.3679C985.847 46.6463 985.776 46.9489 985.776 47.2756V48.0213C985.776 48.4588 985.852 48.831 986.006 49.1378C986.162 49.4446 986.379 49.679 986.658 49.8409C986.936 50 987.262 50.0795 987.634 50.0795C987.875 50.0795 988.095 50.0455 988.294 49.9773C988.493 49.9062 988.665 49.8011 988.81 49.6619C988.955 49.5227 989.066 49.3509 989.142 49.1463L990.348 49.3636C990.252 49.7187 990.078 50.0298 989.828 50.2969C989.581 50.5611 989.27 50.767 988.895 50.9148C988.523 51.0597 988.098 51.1321 987.621 51.1321ZM996.748 46.0526L995.593 46.2571C995.545 46.1094 995.468 45.9687 995.363 45.8352C995.26 45.7017 995.121 45.5923 994.945 45.5071C994.769 45.4219 994.549 45.3793 994.285 45.3793C993.924 45.3793 993.623 45.4602 993.381 45.6222C993.14 45.7812 993.019 45.9872 993.019 46.2401C993.019 46.4588 993.1 46.6349 993.262 46.7685C993.424 46.902 993.685 47.0114 994.046 47.0966L995.086 47.3352C995.688 47.4744 996.137 47.6889 996.432 47.9787C996.728 48.2685 996.876 48.6449 996.876 49.108C996.876 49.5 996.762 49.8494 996.535 50.1562C996.31 50.4602 995.996 50.6989 995.593 50.8722C995.192 51.0455 994.728 51.1321 994.199 51.1321C993.466 51.1321 992.868 50.9759 992.405 50.6634C991.942 50.348 991.658 49.9006 991.553 49.321L992.785 49.1335C992.861 49.4545 993.019 49.6974 993.258 49.8622C993.496 50.0241 993.807 50.1051 994.191 50.1051C994.608 50.1051 994.942 50.0185 995.192 49.8452C995.442 49.669 995.567 49.4545 995.567 49.2017C995.567 48.9972 995.491 48.8253 995.337 48.6861C995.187 48.5469 994.955 48.4418 994.643 48.3707L993.535 48.1278C992.924 47.9886 992.472 47.767 992.18 47.4631C991.89 47.1591 991.745 46.7741 991.745 46.3082C991.745 45.9219 991.853 45.5838 992.069 45.294C992.285 45.0043 992.583 44.7784 992.964 44.6165C993.344 44.4517 993.78 44.3693 994.272 44.3693C994.979 44.3693 995.536 44.5227 995.942 44.8295C996.349 45.1335 996.617 45.5412 996.748 46.0526Z" fill="black"/>
<path d="M1079.74 0.153409C1080.13 0.15625 1080.51 0.227273 1080.89 0.366477C1081.27 0.505682 1081.61 0.732954 1081.91 1.0483C1082.22 1.36364 1082.47 1.78977 1082.65 2.3267C1082.83 2.8608 1082.93 3.52557 1082.93 4.32102C1082.93 5.08523 1082.85 5.76562 1082.7 6.36222C1082.55 6.95597 1082.33 7.45739 1082.04 7.86648C1081.75 8.27557 1081.41 8.58665 1081 8.79972C1080.6 9.01278 1080.14 9.11932 1079.63 9.11932C1079.11 9.11932 1078.65 9.01705 1078.25 8.8125C1077.84 8.60795 1077.51 8.32528 1077.26 7.96449C1077.01 7.60085 1076.85 7.18324 1076.79 6.71165H1078.09C1078.17 7.08665 1078.35 7.39062 1078.61 7.62358C1078.87 7.85369 1079.21 7.96875 1079.63 7.96875C1080.27 7.96875 1080.77 7.69034 1081.13 7.13352C1081.48 6.57386 1081.66 5.79261 1081.67 4.78977H1081.6C1081.45 5.03409 1081.27 5.24432 1081.05 5.42045C1080.83 5.59659 1080.58 5.73295 1080.31 5.82955C1080.04 5.92614 1079.74 5.97443 1079.43 5.97443C1078.93 5.97443 1078.47 5.85085 1078.06 5.60369C1077.65 5.35653 1077.32 5.01705 1077.08 4.58523C1076.83 4.15341 1076.71 3.66051 1076.71 3.10653C1076.71 2.5554 1076.84 2.0554 1077.09 1.60653C1077.34 1.15767 1077.69 0.802557 1078.14 0.541193C1078.6 0.276988 1079.13 0.147727 1079.74 0.153409ZM1079.75 1.26136C1079.41 1.26136 1079.11 1.34375 1078.85 1.50852C1078.58 1.67045 1078.37 1.89062 1078.22 2.16903C1078.07 2.4446 1077.99 2.75142 1077.99 3.08949C1077.99 3.42756 1078.06 3.73437 1078.21 4.00994C1078.36 4.28267 1078.57 4.5 1078.83 4.66193C1079.09 4.82102 1079.38 4.90057 1079.72 4.90057C1079.97 4.90057 1080.2 4.85227 1080.42 4.75568C1080.63 4.65909 1080.82 4.52557 1080.99 4.35511C1081.15 4.18182 1081.27 3.9858 1081.37 3.76705C1081.46 3.5483 1081.5 3.31818 1081.5 3.0767C1081.5 2.75568 1081.42 2.45739 1081.27 2.18182C1081.12 1.90625 1080.91 1.68466 1080.65 1.51705C1080.38 1.34659 1080.08 1.26136 1079.75 1.26136ZM1087.37 0.153409C1087.76 0.15625 1088.14 0.227273 1088.52 0.366477C1088.9 0.505682 1089.24 0.732954 1089.54 1.0483C1089.85 1.36364 1090.09 1.78977 1090.28 2.3267C1090.46 2.8608 1090.56 3.52557 1090.56 4.32102C1090.56 5.08523 1090.48 5.76562 1090.33 6.36222C1090.17 6.95597 1089.95 7.45739 1089.67 7.86648C1089.38 8.27557 1089.04 8.58665 1088.63 8.79972C1088.23 9.01278 1087.77 9.11932 1087.26 9.11932C1086.74 9.11932 1086.28 9.01705 1085.87 8.8125C1085.47 8.60795 1085.14 8.32528 1084.89 7.96449C1084.64 7.60085 1084.48 7.18324 1084.42 6.71165H1085.72C1085.8 7.08665 1085.98 7.39062 1086.24 7.62358C1086.5 7.85369 1086.84 7.96875 1087.26 7.96875C1087.9 7.96875 1088.4 7.69034 1088.76 7.13352C1089.11 6.57386 1089.29 5.79261 1089.3 4.78977H1089.23C1089.08 5.03409 1088.9 5.24432 1088.67 5.42045C1088.46 5.59659 1088.21 5.73295 1087.94 5.82955C1087.66 5.92614 1087.37 5.97443 1087.06 5.97443C1086.56 5.97443 1086.1 5.85085 1085.69 5.60369C1085.28 5.35653 1084.95 5.01705 1084.71 4.58523C1084.46 4.15341 1084.34 3.66051 1084.34 3.10653C1084.34 2.5554 1084.47 2.0554 1084.72 1.60653C1084.97 1.15767 1085.32 0.802557 1085.77 0.541193C1086.23 0.276988 1086.76 0.147727 1087.37 0.153409ZM1087.37 1.26136C1087.04 1.26136 1086.74 1.34375 1086.48 1.50852C1086.21 1.67045 1086 1.89062 1085.85 2.16903C1085.7 2.4446 1085.62 2.75142 1085.62 3.08949C1085.62 3.42756 1085.69 3.73437 1085.84 4.00994C1085.99 4.28267 1086.2 4.5 1086.45 4.66193C1086.72 4.82102 1087.01 4.90057 1087.35 4.90057C1087.6 4.90057 1087.83 4.85227 1088.05 4.75568C1088.26 4.65909 1088.45 4.52557 1088.61 4.35511C1088.78 4.18182 1088.9 3.9858 1088.99 3.76705C1089.08 3.5483 1089.13 3.31818 1089.13 3.0767C1089.13 2.75568 1089.05 2.45739 1088.9 2.18182C1088.75 1.90625 1088.54 1.68466 1088.28 1.51705C1088.01 1.34659 1087.71 1.26136 1087.37 1.26136ZM1095 0.153409C1095.39 0.15625 1095.77 0.227273 1096.15 0.366477C1096.53 0.505682 1096.87 0.732954 1097.17 1.0483C1097.48 1.36364 1097.72 1.78977 1097.91 2.3267C1098.09 2.8608 1098.18 3.52557 1098.19 4.32102C1098.19 5.08523 1098.11 5.76562 1097.96 6.36222C1097.8 6.95597 1097.58 7.45739 1097.3 7.86648C1097.01 8.27557 1096.67 8.58665 1096.26 8.79972C1095.85 9.01278 1095.4 9.11932 1094.89 9.11932C1094.37 9.11932 1093.91 9.01705 1093.5 8.8125C1093.1 8.60795 1092.77 8.32528 1092.52 7.96449C1092.27 7.60085 1092.11 7.18324 1092.05 6.71165H1093.35C1093.43 7.08665 1093.6 7.39062 1093.87 7.62358C1094.13 7.85369 1094.47 7.96875 1094.89 7.96875C1095.53 7.96875 1096.03 7.69034 1096.38 7.13352C1096.74 6.57386 1096.92 5.79261 1096.93 4.78977H1096.86C1096.71 5.03409 1096.52 5.24432 1096.3 5.42045C1096.08 5.59659 1095.84 5.73295 1095.57 5.82955C1095.29 5.92614 1095 5.97443 1094.69 5.97443C1094.19 5.97443 1093.73 5.85085 1093.32 5.60369C1092.91 5.35653 1092.58 5.01705 1092.34 4.58523C1092.09 4.15341 1091.97 3.66051 1091.97 3.10653C1091.97 2.5554 1092.09 2.0554 1092.34 1.60653C1092.6 1.15767 1092.95 0.802557 1093.4 0.541193C1093.86 0.276988 1094.39 0.147727 1095 0.153409ZM1095 1.26136C1094.67 1.26136 1094.37 1.34375 1094.1 1.50852C1093.84 1.67045 1093.63 1.89062 1093.48 2.16903C1093.32 2.4446 1093.25 2.75142 1093.25 3.08949C1093.25 3.42756 1093.32 3.73437 1093.47 4.00994C1093.62 4.28267 1093.82 4.5 1094.08 4.66193C1094.34 4.82102 1094.64 4.90057 1094.98 4.90057C1095.23 4.90057 1095.46 4.85227 1095.68 4.75568C1095.89 4.65909 1096.08 4.52557 1096.24 4.35511C1096.41 4.18182 1096.53 3.9858 1096.62 3.76705C1096.71 3.5483 1096.76 3.31818 1096.76 3.0767C1096.76 2.75568 1096.68 2.45739 1096.53 2.18182C1096.38 1.90625 1096.17 1.68466 1095.91 1.51705C1095.64 1.34659 1095.34 1.26136 1095 1.26136Z" fill="black"/>
</svg>
