<svg width="1105" height="52" viewBox="0 0 1105 52" fill="none" xmlns="http://www.w3.org/2000/svg">
<path d="M36.8819 41.1406H35.5992L33.4216 42.5639V43.8253L35.5097 42.4617H35.5608V49.8679H36.8819V41.1406ZM43.8545 49.8679H45.15L46.4795 45.1421H46.5775L47.9071 49.8679H49.2068L51.1287 43.3225H49.8119L48.5378 48.108H48.4738L47.1954 43.3225H45.8787L44.5917 48.1293H44.5278L43.2451 43.3225H41.9284L43.8545 49.8679ZM54.2427 50.0128C55.325 50.0128 55.9344 49.4631 56.1773 48.973H56.2285V49.8679H57.4728V45.5213C57.4728 43.6165 55.9728 43.2372 54.933 43.2372C53.7483 43.2372 52.6574 43.7145 52.2313 44.9077L53.4287 45.1804C53.6162 44.7159 54.0935 44.2685 54.95 44.2685C55.7725 44.2685 56.1944 44.6989 56.1944 45.4404V45.4702C56.1944 45.9347 55.7171 45.9262 54.541 46.0625C53.3009 46.2074 52.031 46.5313 52.031 48.0185C52.031 49.3054 52.9983 50.0128 54.2427 50.0128ZM54.5197 48.9901C53.7995 48.9901 53.2796 48.6662 53.2796 48.0355C53.2796 47.3537 53.8847 47.1108 54.6219 47.0128C55.0353 46.9574 56.0154 46.8466 56.1986 46.6634V47.5071C56.1986 48.2827 55.5807 48.9901 54.5197 48.9901ZM64.5349 43.3225H63.167L61.5136 48.3594H61.4454L59.7878 43.3225H58.4199L60.7977 49.8679H62.1613L64.5349 43.3225ZM68.319 50C69.7466 50 70.7565 49.2969 71.0463 48.2316L69.8403 48.0142C69.6102 48.6321 69.0562 48.9475 68.3318 48.9475C67.2409 48.9475 66.5079 48.2401 66.4738 46.9787H71.1273V46.527C71.1273 44.162 69.7125 43.2372 68.2295 43.2372C66.4057 43.2372 65.204 44.6264 65.204 46.6378C65.204 48.6705 66.3886 50 68.319 50ZM66.4781 46.0242C66.5292 45.0952 67.2025 44.2898 68.238 44.2898C69.2267 44.2898 69.8744 45.0227 69.8787 46.0242H66.4781ZM77.4458 44.9205C77.1816 43.902 76.3847 43.2372 74.9699 43.2372C73.4912 43.2372 72.4429 44.0171 72.4429 45.1762C72.4429 46.1051 73.0054 46.723 74.2327 46.9958L75.3407 47.2387C75.9714 47.3793 76.2654 47.6605 76.2654 48.0696C76.2654 48.5767 75.7242 48.973 74.889 48.973C74.1262 48.973 73.6361 48.6449 73.4827 48.0014L72.2512 48.1889C72.4643 49.348 73.4273 50 74.8975 50C76.4785 50 77.5736 49.1605 77.5736 47.9759C77.5736 47.0512 76.9856 46.4801 75.7839 46.2031L74.7441 45.9645C74.0239 45.7941 73.7128 45.5512 73.7171 45.108C73.7128 44.6051 74.2583 44.2472 74.9827 44.2472C75.7753 44.2472 76.1418 44.6861 76.291 45.125L77.4458 44.9205Z" fill="black"/>
<path d="M140.274 49.8679H146.018V48.7387H142.089V48.6747L143.824 46.8594C145.422 45.2443 145.878 44.473 145.878 43.4972C145.878 42.0952 144.736 41.0213 143.091 41.0213C141.459 41.0213 140.265 42.0781 140.265 43.6719H141.522C141.518 42.7344 142.123 42.1208 143.065 42.1208C143.951 42.1208 144.625 42.6662 144.625 43.5355C144.625 44.3068 144.165 44.8608 143.227 45.8537L140.274 48.9134V49.8679ZM152.245 49.8679H153.541L154.87 45.1421H154.968L156.298 49.8679H157.597L159.519 43.3225H158.203L156.928 48.108H156.864L155.586 43.3225H154.269L152.982 48.1293H152.918L151.636 43.3225H150.319L152.245 49.8679ZM162.633 50.0128C163.716 50.0128 164.325 49.4631 164.568 48.973H164.619V49.8679H165.863V45.5213C165.863 43.6165 164.363 43.2372 163.324 43.2372C162.139 43.2372 161.048 43.7145 160.622 44.9077L161.819 45.1804C162.007 44.7159 162.484 44.2685 163.341 44.2685C164.163 44.2685 164.585 44.6989 164.585 45.4404V45.4702C164.585 45.9347 164.108 45.9262 162.932 46.0625C161.692 46.2074 160.422 46.5313 160.422 48.0185C160.422 49.3054 161.389 50.0128 162.633 50.0128ZM162.91 48.9901C162.19 48.9901 161.67 48.6662 161.67 48.0355C161.67 47.3537 162.275 47.1108 163.013 47.0128C163.426 46.9574 164.406 46.8466 164.589 46.6634V47.5071C164.589 48.2827 163.971 48.9901 162.91 48.9901ZM172.926 43.3225H171.558L169.904 48.3594H169.836L168.178 43.3225H166.81L169.188 49.8679H170.552L172.926 43.3225ZM176.71 50C178.137 50 179.147 49.2969 179.437 48.2316L178.231 48.0142C178.001 48.6321 177.447 48.9475 176.722 48.9475C175.632 48.9475 174.899 48.2401 174.864 46.9787H179.518V46.527C179.518 44.162 178.103 43.2372 176.62 43.2372C174.796 43.2372 173.595 44.6264 173.595 46.6378C173.595 48.6705 174.779 50 176.71 50ZM174.869 46.0242C174.92 45.0952 175.593 44.2898 176.629 44.2898C177.617 44.2898 178.265 45.0227 178.269 46.0242H174.869ZM185.836 44.9205C185.572 43.902 184.775 43.2372 183.361 43.2372C181.882 43.2372 180.834 44.0171 180.834 45.1762C180.834 46.1051 181.396 46.723 182.623 46.9958L183.731 47.2387C184.362 47.3793 184.656 47.6605 184.656 48.0696C184.656 48.5767 184.115 48.973 183.28 48.973C182.517 48.973 182.027 48.6449 181.873 48.0014L180.642 48.1889C180.855 49.348 181.818 50 183.288 50C184.869 50 185.964 49.1605 185.964 47.9759C185.964 47.0512 185.376 46.4801 184.174 46.2031L183.135 45.9645C182.415 45.7941 182.103 45.5512 182.108 45.108C182.103 44.6051 182.649 44.2472 183.373 44.2472C184.166 44.2472 184.532 44.6861 184.682 45.125L185.836 44.9205Z" fill="black"/>
<path d="M254.974 49.9872C256.755 49.9872 258.063 48.9219 258.059 47.473C258.063 46.3693 257.394 45.5767 256.235 45.3977V45.3296C257.147 45.0952 257.74 44.3793 257.735 43.3992C257.74 42.1165 256.687 41.0213 255.008 41.0213C253.406 41.0213 252.119 41.9887 252.076 43.4077H253.35C253.38 42.6066 254.134 42.1208 254.991 42.1208C255.882 42.1208 256.465 42.662 256.461 43.4674C256.465 44.3111 255.788 44.8651 254.82 44.8651H254.083V45.9389H254.82C256.031 45.9389 256.73 46.5526 256.73 47.4304C256.73 48.2784 255.992 48.8537 254.965 48.8537C254.019 48.8537 253.282 48.3679 253.231 47.5924H251.893C251.948 49.0156 253.21 49.9872 254.974 49.9872ZM264.282 49.8679H265.577L266.907 45.1421H267.005L268.334 49.8679H269.634L271.556 43.3225H270.239L268.965 48.108H268.901L267.623 43.3225H266.306L265.019 48.1293H264.955L263.672 43.3225H262.356L264.282 49.8679ZM274.67 50.0128C275.752 50.0128 276.362 49.4631 276.605 48.973H276.656V49.8679H277.9V45.5213C277.9 43.6165 276.4 43.2372 275.36 43.2372C274.176 43.2372 273.085 43.7145 272.659 44.9077L273.856 45.1804C274.043 44.7159 274.521 44.2685 275.377 44.2685C276.2 44.2685 276.622 44.6989 276.622 45.4404V45.4702C276.622 45.9347 276.144 45.9262 274.968 46.0625C273.728 46.2074 272.458 46.5313 272.458 48.0185C272.458 49.3054 273.426 50.0128 274.67 50.0128ZM274.947 48.9901C274.227 48.9901 273.707 48.6662 273.707 48.0355C273.707 47.3537 274.312 47.1108 275.049 47.0128C275.463 46.9574 276.443 46.8466 276.626 46.6634V47.5071C276.626 48.2827 276.008 48.9901 274.947 48.9901ZM284.962 43.3225H283.594L281.941 48.3594H281.873L280.215 43.3225H278.847L281.225 49.8679H282.589L284.962 43.3225ZM288.746 50C290.174 50 291.184 49.2969 291.474 48.2316L290.268 48.0142C290.037 48.6321 289.483 48.9475 288.759 48.9475C287.668 48.9475 286.935 48.2401 286.901 46.9787H291.554V46.527C291.554 44.162 290.14 43.2372 288.657 43.2372C286.833 43.2372 285.631 44.6264 285.631 46.6378C285.631 48.6705 286.816 50 288.746 50ZM286.905 46.0242C286.956 45.0952 287.63 44.2898 288.665 44.2898C289.654 44.2898 290.302 45.0227 290.306 46.0242H286.905ZM297.873 44.9205C297.609 43.902 296.812 43.2372 295.397 43.2372C293.918 43.2372 292.87 44.0171 292.87 45.1762C292.87 46.1051 293.433 46.723 294.66 46.9958L295.768 47.2387C296.399 47.3793 296.693 47.6605 296.693 48.0696C296.693 48.5767 296.151 48.973 295.316 48.973C294.553 48.973 294.063 48.6449 293.91 48.0014L292.678 48.1889C292.892 49.348 293.855 50 295.325 50C296.906 50 298.001 49.1605 298.001 47.9759C298.001 47.0512 297.413 46.4801 296.211 46.2031L295.171 45.9645C294.451 45.7941 294.14 45.5512 294.144 45.108C294.14 44.6051 294.686 44.2472 295.41 44.2472C296.203 44.2472 296.569 44.6861 296.718 45.125L297.873 44.9205Z" fill="black"/>
<path d="M354.939 48.1634H359.077V49.8679H360.334V48.1634H361.489V47.0469H360.334V41.1406H358.711L354.939 47.098V48.1634ZM359.086 47.0469H356.32V46.9787L359.017 42.7088H359.086V47.0469ZM367.586 49.8679H368.881L370.211 45.1421H370.309L371.639 49.8679H372.938L374.86 43.3225H373.543L372.269 48.108H372.205L370.927 43.3225H369.61L368.323 48.1293H368.259L366.977 43.3225H365.66L367.586 49.8679ZM377.974 50.0128C379.056 50.0128 379.666 49.4631 379.909 48.973H379.96V49.8679H381.204V45.5213C381.204 43.6165 379.704 43.2372 378.664 43.2372C377.48 43.2372 376.389 43.7145 375.963 44.9077L377.16 45.1804C377.348 44.7159 377.825 44.2685 378.681 44.2685C379.504 44.2685 379.926 44.6989 379.926 45.4404V45.4702C379.926 45.9347 379.449 45.9262 378.272 46.0625C377.032 46.2074 375.762 46.5313 375.762 48.0185C375.762 49.3054 376.73 50.0128 377.974 50.0128ZM378.251 48.9901C377.531 48.9901 377.011 48.6662 377.011 48.0355C377.011 47.3537 377.616 47.1108 378.353 47.0128C378.767 46.9574 379.747 46.8466 379.93 46.6634V47.5071C379.93 48.2827 379.312 48.9901 378.251 48.9901ZM388.266 43.3225H386.898L385.245 48.3594H385.177L383.519 43.3225H382.151L384.529 49.8679H385.893L388.266 43.3225ZM392.05 50C393.478 50 394.488 49.2969 394.778 48.2316L393.572 48.0142C393.342 48.6321 392.788 48.9475 392.063 48.9475C390.972 48.9475 390.239 48.2401 390.205 46.9787H394.859V46.527C394.859 44.162 393.444 43.2372 391.961 43.2372C390.137 43.2372 388.935 44.6264 388.935 46.6378C388.935 48.6705 390.12 50 392.05 50ZM390.21 46.0242C390.261 45.0952 390.934 44.2898 391.969 44.2898C392.958 44.2898 393.606 45.0227 393.61 46.0242H390.21ZM401.177 44.9205C400.913 43.902 400.116 43.2372 398.701 43.2372C397.223 43.2372 396.174 44.0171 396.174 45.1762C396.174 46.1051 396.737 46.723 397.964 46.9958L399.072 47.2387C399.703 47.3793 399.997 47.6605 399.997 48.0696C399.997 48.5767 399.456 48.973 398.62 48.973C397.858 48.973 397.368 48.6449 397.214 48.0014L395.983 48.1889C396.196 49.348 397.159 50 398.629 50C400.21 50 401.305 49.1605 401.305 47.9759C401.305 47.0512 400.717 46.4801 399.515 46.2031L398.476 45.9645C397.755 45.7941 397.444 45.5512 397.449 45.108C397.444 44.6051 397.99 44.2472 398.714 44.2472C399.507 44.2472 399.873 44.6861 400.022 45.125L401.177 44.9205Z" fill="black"/>
<path d="M465.755 49.9872C467.511 49.9872 468.764 48.7472 468.759 47.0469C468.764 45.3594 467.588 44.1321 465.998 44.1321C465.35 44.1321 464.749 44.3793 464.409 44.7117H464.357L464.634 42.2699H468.338V41.1406H463.539L463.049 45.5384L464.255 45.7174C464.583 45.4233 465.171 45.223 465.7 45.223C466.735 45.2316 467.485 46.0071 467.485 47.0725C467.485 48.1208 466.757 48.8793 465.755 48.8793C464.911 48.8793 464.242 48.3424 464.174 47.5924H462.896C462.947 48.9816 464.153 49.9872 465.755 49.9872ZM474.928 49.8679H476.223L477.553 45.1421H477.651L478.98 49.8679H480.28L482.202 43.3225H480.885L479.611 48.108H479.547L478.269 43.3225H476.952L475.665 48.1293H475.601L474.318 43.3225H473.002L474.928 49.8679ZM485.316 50.0128C486.398 50.0128 487.008 49.4631 487.251 48.973H487.302V49.8679H488.546V45.5213C488.546 43.6165 487.046 43.2372 486.006 43.2372C484.822 43.2372 483.731 43.7145 483.305 44.9077L484.502 45.1804C484.689 44.7159 485.167 44.2685 486.023 44.2685C486.846 44.2685 487.268 44.6989 487.268 45.4404V45.4702C487.268 45.9347 486.79 45.9262 485.614 46.0625C484.374 46.2074 483.104 46.5313 483.104 48.0185C483.104 49.3054 484.072 50.0128 485.316 50.0128ZM485.593 48.9901C484.873 48.9901 484.353 48.6662 484.353 48.0355C484.353 47.3537 484.958 47.1108 485.695 47.0128C486.109 46.9574 487.089 46.8466 487.272 46.6634V47.5071C487.272 48.2827 486.654 48.9901 485.593 48.9901ZM495.608 43.3225H494.24L492.587 48.3594H492.519L490.861 43.3225H489.493L491.871 49.8679H493.235L495.608 43.3225ZM499.392 50C500.82 50 501.83 49.2969 502.12 48.2316L500.914 48.0142C500.683 48.6321 500.129 48.9475 499.405 48.9475C498.314 48.9475 497.581 48.2401 497.547 46.9787H502.2V46.527C502.2 44.162 500.786 43.2372 499.303 43.2372C497.479 43.2372 496.277 44.6264 496.277 46.6378C496.277 48.6705 497.462 50 499.392 50ZM497.551 46.0242C497.602 45.0952 498.276 44.2898 499.311 44.2898C500.3 44.2898 500.948 45.0227 500.952 46.0242H497.551ZM508.519 44.9205C508.255 43.902 507.458 43.2372 506.043 43.2372C504.564 43.2372 503.516 44.0171 503.516 45.1762C503.516 46.1051 504.079 46.723 505.306 46.9958L506.414 47.2387C507.045 47.3793 507.339 47.6605 507.339 48.0696C507.339 48.5767 506.797 48.973 505.962 48.973C505.199 48.973 504.709 48.6449 504.556 48.0014L503.324 48.1889C503.537 49.348 504.501 50 505.971 50C507.552 50 508.647 49.1605 508.647 47.9759C508.647 47.0512 508.059 46.4801 506.857 46.2031L505.817 45.9645C505.097 45.7941 504.786 45.5512 504.79 45.108C504.786 44.6051 505.332 44.2472 506.056 44.2472C506.849 44.2472 507.215 44.6861 507.364 45.125L508.519 44.9205Z" fill="black"/>
<path d="M573.375 49.9872C575.199 50.0043 576.409 48.6918 576.405 47.0171C576.409 45.3466 575.195 44.1492 573.682 44.1492C572.761 44.1492 571.964 44.5924 571.517 45.3296H571.453C571.457 43.348 572.207 42.1719 573.486 42.1719C574.325 42.1719 574.854 42.6833 575.033 43.4077H576.332C576.132 42.027 575.045 41.0213 573.486 41.0213C571.457 41.0213 570.192 42.7642 570.192 45.7983C570.187 49.0114 571.824 49.9745 573.375 49.9872ZM573.371 48.8793C572.357 48.8793 571.615 48.027 571.615 47.0469C571.619 46.071 572.395 45.2188 573.401 45.2188C574.398 45.2188 575.131 46.0242 575.126 47.0341C575.131 48.0654 574.368 48.8793 573.371 48.8793ZM582.569 49.8679H583.864L585.194 45.1421H585.292L586.621 49.8679H587.921L589.843 43.3225H588.526L587.252 48.108H587.188L585.91 43.3225H584.593L583.306 48.1293H583.242L581.96 43.3225H580.643L582.569 49.8679ZM592.957 50.0128C594.039 50.0128 594.649 49.4631 594.892 48.973H594.943V49.8679H596.187V45.5213C596.187 43.6165 594.687 43.2372 593.647 43.2372C592.463 43.2372 591.372 43.7145 590.946 44.9077L592.143 45.1804C592.331 44.7159 592.808 44.2685 593.664 44.2685C594.487 44.2685 594.909 44.6989 594.909 45.4404V45.4702C594.909 45.9347 594.431 45.9262 593.255 46.0625C592.015 46.2074 590.745 46.5313 590.745 48.0185C590.745 49.3054 591.713 50.0128 592.957 50.0128ZM593.234 48.9901C592.514 48.9901 591.994 48.6662 591.994 48.0355C591.994 47.3537 592.599 47.1108 593.336 47.0128C593.75 46.9574 594.73 46.8466 594.913 46.6634V47.5071C594.913 48.2827 594.295 48.9901 593.234 48.9901ZM603.249 43.3225H601.881L600.228 48.3594H600.16L598.502 43.3225H597.134L599.512 49.8679H600.876L603.249 43.3225ZM607.033 50C608.461 50 609.471 49.2969 609.761 48.2316L608.555 48.0142C608.325 48.6321 607.771 48.9475 607.046 48.9475C605.955 48.9475 605.222 48.2401 605.188 46.9787H609.842V46.527C609.842 44.162 608.427 43.2372 606.944 43.2372C605.12 43.2372 603.918 44.6264 603.918 46.6378C603.918 48.6705 605.103 50 607.033 50ZM605.192 46.0242C605.244 45.0952 605.917 44.2898 606.952 44.2898C607.941 44.2898 608.589 45.0227 608.593 46.0242H605.192ZM616.16 44.9205C615.896 43.902 615.099 43.2372 613.684 43.2372C612.206 43.2372 611.157 44.0171 611.157 45.1762C611.157 46.1051 611.72 46.723 612.947 46.9958L614.055 47.2387C614.686 47.3793 614.98 47.6605 614.98 48.0696C614.98 48.5767 614.439 48.973 613.603 48.973C612.841 48.973 612.35 48.6449 612.197 48.0014L610.966 48.1889C611.179 49.348 612.142 50 613.612 50C615.193 50 616.288 49.1605 616.288 47.9759C616.288 47.0512 615.7 46.4801 614.498 46.2031L613.458 45.9645C612.738 45.7941 612.427 45.5512 612.431 45.108C612.427 44.6051 612.973 44.2472 613.697 44.2472C614.49 44.2472 614.856 44.6861 615.005 45.125L616.16 44.9205Z" fill="black"/>
<path d="M678.509 49.8679H679.885L683.682 42.3083V41.1406H677.912V42.2699H682.319V42.3338L678.509 49.8679ZM689.776 49.8679H691.071L692.401 45.1421H692.499L693.828 49.8679H695.128L697.05 43.3225H695.733L694.459 48.108H694.395L693.117 43.3225H691.8L690.513 48.1293H690.449L689.167 43.3225H687.85L689.776 49.8679ZM700.164 50.0128C701.246 50.0128 701.856 49.4631 702.099 48.973H702.15V49.8679H703.394V45.5213C703.394 43.6165 701.894 43.2372 700.854 43.2372C699.67 43.2372 698.579 43.7145 698.153 44.9077L699.35 45.1804C699.538 44.7159 700.015 44.2685 700.871 44.2685C701.694 44.2685 702.116 44.6989 702.116 45.4404V45.4702C702.116 45.9347 701.638 45.9262 700.462 46.0625C699.222 46.2074 697.952 46.5313 697.952 48.0185C697.952 49.3054 698.92 50.0128 700.164 50.0128ZM700.441 48.9901C699.721 48.9901 699.201 48.6662 699.201 48.0355C699.201 47.3537 699.806 47.1108 700.543 47.0128C700.957 46.9574 701.937 46.8466 702.12 46.6634V47.5071C702.12 48.2827 701.502 48.9901 700.441 48.9901ZM710.456 43.3225H709.088L707.435 48.3594H707.367L705.709 43.3225H704.341L706.719 49.8679H708.083L710.456 43.3225ZM714.24 50C715.668 50 716.678 49.2969 716.968 48.2316L715.762 48.0142C715.532 48.6321 714.978 48.9475 714.253 48.9475C713.162 48.9475 712.429 48.2401 712.395 46.9787H717.049V46.527C717.049 44.162 715.634 43.2372 714.151 43.2372C712.327 43.2372 711.125 44.6264 711.125 46.6378C711.125 48.6705 712.31 50 714.24 50ZM712.399 46.0242C712.451 45.0952 713.124 44.2898 714.159 44.2898C715.148 44.2898 715.796 45.0227 715.8 46.0242H712.399ZM723.367 44.9205C723.103 43.902 722.306 43.2372 720.891 43.2372C719.413 43.2372 718.364 44.0171 718.364 45.1762C718.364 46.1051 718.927 46.723 720.154 46.9958L721.262 47.2387C721.893 47.3793 722.187 47.6605 722.187 48.0696C722.187 48.5767 721.646 48.973 720.81 48.973C720.048 48.973 719.558 48.6449 719.404 48.0014L718.173 48.1889C718.386 49.348 719.349 50 720.819 50C722.4 50 723.495 49.1605 723.495 47.9759C723.495 47.0512 722.907 46.4801 721.705 46.2031L720.665 45.9645C719.945 45.7941 719.634 45.5512 719.638 45.108C719.634 44.6051 720.18 44.2472 720.904 44.2472C721.697 44.2472 722.063 44.6861 722.212 45.125L723.367 44.9205Z" fill="black"/>
<path d="M788.395 49.9872C790.21 49.9872 791.493 48.956 791.501 47.5412C791.493 46.4418 790.721 45.5171 789.746 45.3424V45.2912C790.594 45.0867 791.169 44.2898 791.177 43.348C791.169 42.0142 789.993 41.0213 788.395 41.0213C786.78 41.0213 785.603 42.0142 785.612 43.348C785.603 44.2855 786.179 45.0867 787.044 45.2912V45.3424C786.051 45.5171 785.28 46.4418 785.288 47.5412C785.28 48.956 786.562 49.9872 788.395 49.9872ZM788.395 48.9091C787.304 48.9091 786.613 48.3296 786.622 47.456C786.613 46.5483 787.363 45.9006 788.395 45.9006C789.409 45.9006 790.159 46.5483 790.167 47.456C790.159 48.3296 789.473 48.9091 788.395 48.9091ZM788.395 44.848C787.513 44.848 786.886 44.2898 786.895 43.4588C786.886 42.6406 787.491 42.0995 788.395 42.0995C789.281 42.0995 789.886 42.6406 789.895 43.4588C789.886 44.2898 789.264 44.848 788.395 44.848ZM797.64 49.8679H798.935L800.265 45.1421H800.363L801.692 49.8679H802.992L804.914 43.3225H803.597L802.323 48.108H802.259L800.981 43.3225H799.664L798.377 48.1293H798.313L797.03 43.3225H795.714L797.64 49.8679ZM808.028 50.0128C809.11 50.0128 809.72 49.4631 809.962 48.973H810.014V49.8679H811.258V45.5213C811.258 43.6165 809.758 43.2372 808.718 43.2372C807.534 43.2372 806.443 43.7145 806.016 44.9077L807.214 45.1804C807.401 44.7159 807.879 44.2685 808.735 44.2685C809.558 44.2685 809.98 44.6989 809.98 45.4404V45.4702C809.98 45.9347 809.502 45.9262 808.326 46.0625C807.086 46.2074 805.816 46.5313 805.816 48.0185C805.816 49.3054 806.784 50.0128 808.028 50.0128ZM808.305 48.9901C807.585 48.9901 807.065 48.6662 807.065 48.0355C807.065 47.3537 807.67 47.1108 808.407 47.0128C808.82 46.9574 809.801 46.8466 809.984 46.6634V47.5071C809.984 48.2827 809.366 48.9901 808.305 48.9901ZM818.32 43.3225H816.952L815.299 48.3594H815.231L813.573 43.3225H812.205L814.583 49.8679H815.946L818.32 43.3225ZM822.104 50C823.532 50 824.542 49.2969 824.831 48.2316L823.625 48.0142C823.395 48.6321 822.841 48.9475 822.117 48.9475C821.026 48.9475 820.293 48.2401 820.259 46.9787H824.912V46.527C824.912 44.162 823.498 43.2372 822.015 43.2372C820.191 43.2372 818.989 44.6264 818.989 46.6378C818.989 48.6705 820.174 50 822.104 50ZM820.263 46.0242C820.314 45.0952 820.988 44.2898 822.023 44.2898C823.012 44.2898 823.66 45.0227 823.664 46.0242H820.263ZM831.231 44.9205C830.967 43.902 830.17 43.2372 828.755 43.2372C827.276 43.2372 826.228 44.0171 826.228 45.1762C826.228 46.1051 826.791 46.723 828.018 46.9958L829.126 47.2387C829.757 47.3793 830.051 47.6605 830.051 48.0696C830.051 48.5767 829.509 48.973 828.674 48.973C827.911 48.973 827.421 48.6449 827.268 48.0014L826.036 48.1889C826.249 49.348 827.212 50 828.683 50C830.264 50 831.359 49.1605 831.359 47.9759C831.359 47.0512 830.771 46.4801 829.569 46.2031L828.529 45.9645C827.809 45.7941 827.498 45.5512 827.502 45.108C827.498 44.6051 828.043 44.2472 828.768 44.2472C829.56 44.2472 829.927 44.6861 830.076 45.125L831.231 44.9205Z" fill="black"/>
<path d="M895.871 41.0213C894.039 41.0043 892.841 42.321 892.841 43.9745C892.846 45.6406 894.052 46.8424 895.564 46.8424C896.489 46.8424 897.282 46.3906 897.729 45.6577H897.797C897.793 47.6648 897.039 48.8367 895.76 48.8367C894.925 48.8367 894.388 48.3253 894.218 47.5796H892.918C893.11 48.9901 894.201 49.9872 895.76 49.9872C897.789 49.9872 899.059 48.2443 899.059 45.1889C899.054 42.0014 897.427 41.0341 895.871 41.0213ZM895.875 42.1293C896.885 42.1293 897.631 42.9858 897.631 43.9446C897.635 44.9162 896.847 45.7685 895.85 45.7685C894.848 45.7685 894.124 44.9674 894.12 43.9574C894.12 42.9432 894.874 42.1293 895.875 42.1293ZM905.21 49.8679H906.505L907.835 45.1421H907.933L909.263 49.8679H910.562L912.484 43.3225H911.167L909.893 48.108H909.829L908.551 43.3225H907.234L905.947 48.1293H905.883L904.601 43.3225H903.284L905.21 49.8679ZM915.598 50.0128C916.681 50.0128 917.29 49.4631 917.533 48.973H917.584V49.8679H918.828V45.5213C918.828 43.6165 917.328 43.2372 916.288 43.2372C915.104 43.2372 914.013 43.7145 913.587 44.9077L914.784 45.1804C914.972 44.7159 915.449 44.2685 916.306 44.2685C917.128 44.2685 917.55 44.6989 917.55 45.4404V45.4702C917.55 45.9347 917.073 45.9262 915.896 46.0625C914.656 46.2074 913.386 46.5313 913.386 48.0185C913.386 49.3054 914.354 50.0128 915.598 50.0128ZM915.875 48.9901C915.155 48.9901 914.635 48.6662 914.635 48.0355C914.635 47.3537 915.24 47.1108 915.977 47.0128C916.391 46.9574 917.371 46.8466 917.554 46.6634V47.5071C917.554 48.2827 916.936 48.9901 915.875 48.9901ZM925.89 43.3225H924.522L922.869 48.3594H922.801L921.143 43.3225H919.775L922.153 49.8679H923.517L925.89 43.3225ZM929.674 50C931.102 50 932.112 49.2969 932.402 48.2316L931.196 48.0142C930.966 48.6321 930.412 48.9475 929.687 48.9475C928.596 48.9475 927.863 48.2401 927.829 46.9787H932.483V46.527C932.483 44.162 931.068 43.2372 929.585 43.2372C927.761 43.2372 926.559 44.6264 926.559 46.6378C926.559 48.6705 927.744 50 929.674 50ZM927.834 46.0242C927.885 45.0952 928.558 44.2898 929.594 44.2898C930.582 44.2898 931.23 45.0227 931.234 46.0242H927.834ZM938.801 44.9205C938.537 43.902 937.74 43.2372 936.325 43.2372C934.847 43.2372 933.798 44.0171 933.798 45.1762C933.798 46.1051 934.361 46.723 935.588 46.9958L936.696 47.2387C937.327 47.3793 937.621 47.6605 937.621 48.0696C937.621 48.5767 937.08 48.973 936.244 48.973C935.482 48.973 934.992 48.6449 934.838 48.0014L933.607 48.1889C933.82 49.348 934.783 50 936.253 50C937.834 50 938.929 49.1605 938.929 47.9759C938.929 47.0512 938.341 46.4801 937.139 46.2031L936.1 45.9645C935.379 45.7941 935.068 45.5512 935.073 45.108C935.068 44.6051 935.614 44.2472 936.338 44.2472C937.131 44.2472 937.497 44.6861 937.646 45.125L938.801 44.9205Z" fill="black"/>
<line x1="3" y1="32.5659" x2="1079" y2="32.5659" stroke="black" stroke-width="2"/>
<line x1="3.18848" y1="19.585" x2="3.18848" y2="46.4718" stroke="black" stroke-width="2"/>
<line x1="110.736" y1="19.585" x2="110.736" y2="46.4718" stroke="black" stroke-width="2"/>
<line x1="218.283" y1="19.585" x2="218.283" y2="46.4718" stroke="black" stroke-width="2"/>
<line x1="325.83" y1="19.585" x2="325.83" y2="46.4718" stroke="black" stroke-width="2"/>
<line x1="433.377" y1="19.585" x2="433.377" y2="46.4718" stroke="black" stroke-width="2"/>
<line x1="540.924" y1="19.585" x2="540.924" y2="46.4718" stroke="black" stroke-width="2"/>
<line x1="648.472" y1="19.585" x2="648.472" y2="46.4718" stroke="black" stroke-width="2"/>
<line x1="756" y1="20" x2="756" y2="46.8868" stroke="black" stroke-width="2"/>
<line x1="863.566" y1="19.585" x2="863.566" y2="46.4718" stroke="black" stroke-width="2"/>
<line x1="971.113" y1="19.585" x2="971.113" y2="46.4718" stroke="black" stroke-width="2"/>
<line x1="1078.66" y1="19.585" x2="1078.66" y2="46.4718" stroke="black" stroke-width="2"/>
<path d="M4.15057 0.272727H2.8679L0.690341 1.69602V2.95739L2.77841 1.59375H2.82955V9H4.15057V0.272727Z" fill="black"/>
<path d="M112.151 0.272727H110.868L108.69 1.69602V2.95739L110.778 1.59375H110.83V9H112.151V0.272727ZM117.55 9.14489C119.565 9.14489 120.746 7.5 120.746 4.64062C120.746 1.80256 119.548 0.153409 117.55 0.153409C115.547 0.153409 114.354 1.7983 114.349 4.64062C114.349 7.49574 115.53 9.14062 117.55 9.14489ZM117.55 8.0071C116.369 8.0071 115.658 6.82244 115.658 4.64062C115.662 2.46733 116.374 1.26989 117.55 1.26989C118.722 1.26989 119.438 2.46733 119.438 4.64062C119.438 6.82244 118.726 8.0071 117.55 8.0071ZM125.296 9.14489C127.311 9.14489 128.492 7.5 128.492 4.64062C128.492 1.80256 127.294 0.153409 125.296 0.153409C123.293 0.153409 122.1 1.7983 122.096 4.64062C122.096 7.49574 123.276 9.14062 125.296 9.14489ZM125.296 8.0071C124.115 8.0071 123.404 6.82244 123.404 4.64062C123.408 2.46733 124.12 1.26989 125.296 1.26989C126.468 1.26989 127.184 2.46733 127.184 4.64062C127.184 6.82244 126.472 8.0071 125.296 8.0071Z" fill="black"/>
<path d="M219.839 9H225.584V7.87074H221.655V7.80682L223.389 5.99148C224.987 4.37642 225.443 3.60511 225.443 2.62926C225.443 1.22727 224.301 0.153409 222.656 0.153409C221.024 0.153409 219.831 1.21023 219.831 2.80398H221.088C221.084 1.86648 221.689 1.25284 222.631 1.25284C223.517 1.25284 224.19 1.7983 224.19 2.66761C224.19 3.43892 223.73 3.9929 222.793 4.9858L219.839 8.04545V9ZM230.237 9.14489C232.253 9.14489 233.433 7.5 233.433 4.64062C233.433 1.80256 232.236 0.153409 230.237 0.153409C228.234 0.153409 227.041 1.7983 227.037 4.64062C227.037 7.49574 228.217 9.14062 230.237 9.14489ZM230.237 8.0071C229.057 8.0071 228.345 6.82244 228.345 4.64062C228.349 2.46733 229.061 1.26989 230.237 1.26989C231.409 1.26989 232.125 2.46733 232.125 4.64062C232.125 6.82244 231.413 8.0071 230.237 8.0071ZM237.983 9.14489C239.999 9.14489 241.179 7.5 241.179 4.64062C241.179 1.80256 239.982 0.153409 237.983 0.153409C235.98 0.153409 234.787 1.7983 234.783 4.64062C234.783 7.49574 235.963 9.14062 237.983 9.14489ZM237.983 8.0071C236.803 8.0071 236.091 6.82244 236.091 4.64062C236.096 2.46733 236.807 1.26989 237.983 1.26989C239.155 1.26989 239.871 2.46733 239.871 4.64062C239.871 6.82244 239.159 8.0071 237.983 8.0071Z" fill="black"/>
<path d="M326.878 9.11932C328.659 9.11932 329.967 8.05398 329.963 6.60511C329.967 5.50142 329.298 4.70881 328.139 4.52983V4.46165C329.051 4.22727 329.643 3.51136 329.639 2.53125C329.643 1.24858 328.591 0.153409 326.912 0.153409C325.31 0.153409 324.023 1.12074 323.98 2.53977H325.254C325.284 1.73864 326.038 1.25284 326.895 1.25284C327.786 1.25284 328.369 1.79403 328.365 2.59943C328.369 3.44318 327.692 3.99716 326.724 3.99716H325.987V5.07102H326.724C327.935 5.07102 328.634 5.68466 328.634 6.5625C328.634 7.41051 327.896 7.9858 326.869 7.9858C325.923 7.9858 325.186 7.5 325.135 6.72443H323.797C323.852 8.14773 325.114 9.11932 326.878 9.11932ZM334.612 9.14489C336.628 9.14489 337.808 7.5 337.808 4.64062C337.808 1.80256 336.611 0.153409 334.612 0.153409C332.609 0.153409 331.416 1.7983 331.412 4.64062C331.412 7.49574 332.592 9.14062 334.612 9.14489ZM334.612 8.0071C333.432 8.0071 332.72 6.82244 332.72 4.64062C332.724 2.46733 333.436 1.26989 334.612 1.26989C335.784 1.26989 336.5 2.46733 336.5 4.64062C336.5 6.82244 335.788 8.0071 334.612 8.0071ZM342.358 9.14489C344.374 9.14489 345.554 7.5 345.554 4.64062C345.554 1.80256 344.357 0.153409 342.358 0.153409C340.355 0.153409 339.162 1.7983 339.158 4.64062C339.158 7.49574 340.338 9.14062 342.358 9.14489ZM342.358 8.0071C341.178 8.0071 340.466 6.82244 340.466 4.64062C340.471 2.46733 341.182 1.26989 342.358 1.26989C343.53 1.26989 344.246 2.46733 344.246 4.64062C344.246 6.82244 343.534 8.0071 342.358 8.0071Z" fill="black"/>
<path d="M430.656 7.29545H434.794V9H436.051V7.29545H437.206V6.17898H436.051V0.272727H434.428L430.656 6.23011V7.29545ZM434.803 6.17898H432.037V6.1108L434.734 1.84091H434.803V6.17898ZM441.729 9.14489C443.745 9.14489 444.925 7.5 444.925 4.64062C444.925 1.80256 443.728 0.153409 441.729 0.153409C439.727 0.153409 438.533 1.7983 438.529 4.64062C438.529 7.49574 439.71 9.14062 441.729 9.14489ZM441.729 8.0071C440.549 8.0071 439.837 6.82244 439.837 4.64062C439.842 2.46733 440.553 1.26989 441.729 1.26989C442.901 1.26989 443.617 2.46733 443.617 4.64062C443.617 6.82244 442.906 8.0071 441.729 8.0071ZM449.475 9.14489C451.491 9.14489 452.672 7.5 452.672 4.64062C452.672 1.80256 451.474 0.153409 449.475 0.153409C447.473 0.153409 446.279 1.7983 446.275 4.64062C446.275 7.49574 447.456 9.14062 449.475 9.14489ZM449.475 8.0071C448.295 8.0071 447.583 6.82244 447.583 4.64062C447.588 2.46733 448.299 1.26989 449.475 1.26989C450.647 1.26989 451.363 2.46733 451.363 4.64062C451.363 6.82244 450.652 8.0071 449.475 8.0071Z" fill="black"/>
<path d="M541.72 9.11932C543.476 9.11932 544.729 7.87926 544.724 6.17898C544.729 4.49148 543.553 3.2642 541.963 3.2642C541.315 3.2642 540.714 3.51136 540.374 3.84375H540.322L540.599 1.40199H544.303V0.272727H539.504L539.014 4.67045L540.22 4.84943C540.548 4.5554 541.136 4.35511 541.665 4.35511C542.7 4.36364 543.45 5.1392 543.45 6.20455C543.45 7.25284 542.722 8.01136 541.72 8.01136C540.876 8.01136 540.207 7.47443 540.139 6.72443H538.861C538.912 8.11364 540.118 9.11932 541.72 9.11932ZM549.319 9.14489C551.335 9.14489 552.515 7.5 552.515 4.64062C552.515 1.80256 551.318 0.153409 549.319 0.153409C547.316 0.153409 546.123 1.7983 546.119 4.64062C546.119 7.49574 547.299 9.14062 549.319 9.14489ZM549.319 8.0071C548.139 8.0071 547.427 6.82244 547.427 4.64062C547.431 2.46733 548.143 1.26989 549.319 1.26989C550.491 1.26989 551.207 2.46733 551.207 4.64062C551.207 6.82244 550.495 8.0071 549.319 8.0071ZM557.065 9.14489C559.081 9.14489 560.261 7.5 560.261 4.64062C560.261 1.80256 559.064 0.153409 557.065 0.153409C555.062 0.153409 553.869 1.7983 553.865 4.64062C553.865 7.49574 555.045 9.14062 557.065 9.14489ZM557.065 8.0071C555.885 8.0071 555.173 6.82244 555.173 4.64062C555.178 2.46733 555.889 1.26989 557.065 1.26989C558.237 1.26989 558.953 2.46733 558.953 4.64062C558.953 6.82244 558.241 8.0071 557.065 8.0071Z" fill="black"/>
<path d="M648.886 9.11932C650.71 9.13636 651.92 7.82386 651.916 6.14915C651.92 4.47869 650.706 3.28125 649.193 3.28125C648.273 3.28125 647.476 3.72443 647.028 4.46165H646.964C646.969 2.48011 647.719 1.30398 648.997 1.30398C649.837 1.30398 650.365 1.81534 650.544 2.53977H651.844C651.643 1.15909 650.557 0.153409 648.997 0.153409C646.969 0.153409 645.703 1.89631 645.703 4.9304C645.699 8.14347 647.335 9.10653 648.886 9.11932ZM648.882 8.01136C647.868 8.01136 647.126 7.15909 647.126 6.17898C647.131 5.20312 647.906 4.35085 648.912 4.35085C649.909 4.35085 650.642 5.15625 650.638 6.16619C650.642 7.19744 649.879 8.01136 648.882 8.01136ZM656.507 9.14489C658.522 9.14489 659.703 7.5 659.703 4.64062C659.703 1.80256 658.505 0.153409 656.507 0.153409C654.504 0.153409 653.311 1.7983 653.306 4.64062C653.306 7.49574 654.487 9.14062 656.507 9.14489ZM656.507 8.0071C655.326 8.0071 654.615 6.82244 654.615 4.64062C654.619 2.46733 655.331 1.26989 656.507 1.26989C657.679 1.26989 658.395 2.46733 658.395 4.64062C658.395 6.82244 657.683 8.0071 656.507 8.0071ZM664.253 9.14489C666.268 9.14489 667.449 7.5 667.449 4.64062C667.449 1.80256 666.251 0.153409 664.253 0.153409C662.25 0.153409 661.057 1.7983 661.053 4.64062C661.053 7.49574 662.233 9.14062 664.253 9.14489ZM664.253 8.0071C663.072 8.0071 662.361 6.82244 662.361 4.64062C662.365 2.46733 663.077 1.26989 664.253 1.26989C665.425 1.26989 666.141 2.46733 666.141 4.64062C666.141 6.82244 665.429 8.0071 664.253 8.0071Z" fill="black"/>
<path d="M756.134 9H757.51L761.307 1.44034V0.272727H755.537V1.40199H759.943V1.46591L756.134 9ZM765.64 9.14489C767.655 9.14489 768.836 7.5 768.836 4.64062C768.836 1.80256 767.638 0.153409 765.64 0.153409C763.637 0.153409 762.444 1.7983 762.439 4.64062C762.439 7.49574 763.62 9.14062 765.64 9.14489ZM765.64 8.0071C764.459 8.0071 763.748 6.82244 763.748 4.64062C763.752 2.46733 764.463 1.26989 765.64 1.26989C766.811 1.26989 767.527 2.46733 767.527 4.64062C767.527 6.82244 766.816 8.0071 765.64 8.0071ZM773.386 9.14489C775.401 9.14489 776.582 7.5 776.582 4.64062C776.582 1.80256 775.384 0.153409 773.386 0.153409C771.383 0.153409 770.19 1.7983 770.185 4.64062C770.185 7.49574 771.366 9.14062 773.386 9.14489ZM773.386 8.0071C772.205 8.0071 771.494 6.82244 771.494 4.64062C771.498 2.46733 772.21 1.26989 773.386 1.26989C774.558 1.26989 775.273 2.46733 775.273 4.64062C775.273 6.82244 774.562 8.0071 773.386 8.0071Z" fill="black"/>
<path d="M863.788 9.11932C865.604 9.11932 866.886 8.08807 866.895 6.6733C866.886 5.57386 866.115 4.64915 865.139 4.47443V4.4233C865.987 4.21875 866.562 3.42188 866.571 2.48011C866.562 1.14631 865.386 0.153409 863.788 0.153409C862.173 0.153409 860.997 1.14631 861.006 2.48011C860.997 3.41761 861.572 4.21875 862.438 4.4233V4.47443C861.445 4.64915 860.673 5.57386 860.682 6.6733C860.673 8.08807 861.956 9.11932 863.788 9.11932ZM863.788 8.04119C862.697 8.04119 862.007 7.46165 862.016 6.58807C862.007 5.6804 862.757 5.03267 863.788 5.03267C864.803 5.03267 865.553 5.6804 865.561 6.58807C865.553 7.46165 864.866 8.04119 863.788 8.04119ZM863.788 3.98011C862.906 3.98011 862.28 3.42188 862.288 2.59091C862.28 1.77273 862.885 1.23153 863.788 1.23153C864.675 1.23153 865.28 1.77273 865.288 2.59091C865.28 3.42188 864.658 3.98011 863.788 3.98011ZM871.46 9.14489C873.475 9.14489 874.656 7.5 874.656 4.64062C874.656 1.80256 873.458 0.153409 871.46 0.153409C869.457 0.153409 868.264 1.7983 868.26 4.64062C868.26 7.49574 869.44 9.14062 871.46 9.14489ZM871.46 8.0071C870.279 8.0071 869.568 6.82244 869.568 4.64062C869.572 2.46733 870.284 1.26989 871.46 1.26989C872.632 1.26989 873.348 2.46733 873.348 4.64062C873.348 6.82244 872.636 8.0071 871.46 8.0071ZM879.206 9.14489C881.222 9.14489 882.402 7.5 882.402 4.64062C882.402 1.80256 881.205 0.153409 879.206 0.153409C877.203 0.153409 876.01 1.7983 876.006 4.64062C876.006 7.49574 877.186 9.14062 879.206 9.14489ZM879.206 8.0071C878.026 8.0071 877.314 6.82244 877.314 4.64062C877.318 2.46733 878.03 1.26989 879.206 1.26989C880.378 1.26989 881.094 2.46733 881.094 4.64062C881.094 6.82244 880.382 8.0071 879.206 8.0071Z" fill="black"/>
<path d="M971.741 0.153409C969.909 0.136364 968.712 1.45312 968.712 3.10653C968.716 4.77273 969.922 5.97443 971.435 5.97443C972.359 5.97443 973.152 5.52273 973.599 4.78977H973.668C973.663 6.79688 972.909 7.96875 971.631 7.96875C970.795 7.96875 970.259 7.45739 970.088 6.71165H968.788C968.98 8.12216 970.071 9.11932 971.631 9.11932C973.659 9.11932 974.929 7.37642 974.929 4.32102C974.925 1.13352 973.297 0.166193 971.741 0.153409ZM971.746 1.26136C972.756 1.26136 973.501 2.1179 973.501 3.0767C973.506 4.0483 972.717 4.90057 971.72 4.90057C970.719 4.90057 969.994 4.09943 969.99 3.08949C969.99 2.07528 970.744 1.26136 971.746 1.26136ZM979.507 9.14489C981.522 9.14489 982.703 7.5 982.703 4.64062C982.703 1.80256 981.505 0.153409 979.507 0.153409C977.504 0.153409 976.311 1.7983 976.306 4.64062C976.306 7.49574 977.487 9.14062 979.507 9.14489ZM979.507 8.0071C978.326 8.0071 977.615 6.82244 977.615 4.64062C977.619 2.46733 978.331 1.26989 979.507 1.26989C980.679 1.26989 981.395 2.46733 981.395 4.64062C981.395 6.82244 980.683 8.0071 979.507 8.0071ZM987.253 9.14489C989.268 9.14489 990.449 7.5 990.449 4.64062C990.449 1.80256 989.251 0.153409 987.253 0.153409C985.25 0.153409 984.057 1.7983 984.053 4.64062C984.053 7.49574 985.233 9.14062 987.253 9.14489ZM987.253 8.0071C986.072 8.0071 985.361 6.82244 985.361 4.64062C985.365 2.46733 986.077 1.26989 987.253 1.26989C988.425 1.26989 989.141 2.46733 989.141 4.64062C989.141 6.82244 988.429 8.0071 987.253 8.0071Z" fill="black"/>
<path d="M998.584 42.2727H997.301L995.124 43.696V44.9574L997.212 43.5938H997.263V51H998.584V42.2727ZM1003.98 51.1449C1006 51.1449 1007.18 49.5 1007.18 46.6406C1007.18 43.8026 1005.98 42.1534 1003.98 42.1534C1001.98 42.1534 1000.79 43.7983 1000.78 46.6406C1000.78 49.4957 1001.96 51.1406 1003.98 51.1449ZM1003.98 50.0071C1002.8 50.0071 1002.09 48.8224 1002.09 46.6406C1002.1 44.4673 1002.81 43.2699 1003.98 43.2699C1005.16 43.2699 1005.87 44.4673 1005.87 46.6406C1005.87 48.8224 1005.16 50.0071 1003.98 50.0071ZM1013.3 51H1014.6L1015.93 46.2741H1016.03L1017.36 51H1018.66L1020.58 44.4545H1019.26L1017.99 49.2401H1017.92L1016.64 44.4545H1015.33L1014.04 49.2614H1013.98L1012.69 44.4545H1011.38L1013.3 51ZM1023.69 51.1449C1024.77 51.1449 1025.38 50.5952 1025.63 50.1051H1025.68V51H1026.92V46.6534C1026.92 44.7486 1025.42 44.3693 1024.38 44.3693C1023.2 44.3693 1022.11 44.8466 1021.68 46.0398L1022.88 46.3125C1023.06 45.848 1023.54 45.4006 1024.4 45.4006C1025.22 45.4006 1025.64 45.831 1025.64 46.5724V46.6023C1025.64 47.0668 1025.17 47.0582 1023.99 47.1946C1022.75 47.3395 1021.48 47.6634 1021.48 49.1506C1021.48 50.4375 1022.45 51.1449 1023.69 51.1449ZM1023.97 50.1222C1023.25 50.1222 1022.73 49.7983 1022.73 49.1676C1022.73 48.4858 1023.33 48.2429 1024.07 48.1449C1024.48 48.0895 1025.46 47.9787 1025.65 47.7955V48.6392C1025.65 49.4148 1025.03 50.1222 1023.97 50.1222ZM1033.98 44.4545H1032.62L1030.96 49.4915H1030.89L1029.24 44.4545H1027.87L1030.25 51H1031.61L1033.98 44.4545ZM1037.77 51.1321C1039.19 51.1321 1040.2 50.429 1040.49 49.3636L1039.29 49.1463C1039.06 49.7642 1038.5 50.0795 1037.78 50.0795C1036.69 50.0795 1035.96 49.3722 1035.92 48.1108H1040.58V47.6591C1040.58 45.294 1039.16 44.3693 1037.68 44.3693C1035.85 44.3693 1034.65 45.7585 1034.65 47.7699C1034.65 49.8026 1035.84 51.1321 1037.77 51.1321ZM1035.93 47.1562C1035.98 46.2273 1036.65 45.4219 1037.69 45.4219C1038.68 45.4219 1039.32 46.1548 1039.33 47.1562H1035.93ZM1046.89 46.0526C1046.63 45.0341 1045.83 44.3693 1044.42 44.3693C1042.94 44.3693 1041.89 45.1491 1041.89 46.3082C1041.89 47.2372 1042.45 47.8551 1043.68 48.1278L1044.79 48.3707C1045.42 48.5114 1045.71 48.7926 1045.71 49.2017C1045.71 49.7088 1045.17 50.1051 1044.34 50.1051C1043.57 50.1051 1043.08 49.777 1042.93 49.1335L1041.7 49.321C1041.91 50.4801 1042.88 51.1321 1044.35 51.1321C1045.93 51.1321 1047.02 50.2926 1047.02 49.108C1047.02 48.1832 1046.43 47.6122 1045.23 47.3352L1044.19 47.0966C1043.47 46.9261 1043.16 46.6832 1043.17 46.2401C1043.16 45.7372 1043.71 45.3793 1044.43 45.3793C1045.22 45.3793 1045.59 45.8182 1045.74 46.2571L1046.89 46.0526Z" fill="black"/>
<path d="M1080.15 0.272727H1078.87L1076.69 1.69602V2.95739L1078.78 1.59375H1078.83V9H1080.15V0.272727ZM1085.55 9.14489C1087.57 9.14489 1088.75 7.5 1088.75 4.64062C1088.75 1.80256 1087.55 0.153409 1085.55 0.153409C1083.55 0.153409 1082.35 1.7983 1082.35 4.64062C1082.35 7.49574 1083.53 9.14062 1085.55 9.14489ZM1085.55 8.0071C1084.37 8.0071 1083.66 6.82244 1083.66 4.64062C1083.66 2.46733 1084.37 1.26989 1085.55 1.26989C1086.72 1.26989 1087.44 2.46733 1087.44 4.64062C1087.44 6.82244 1086.73 8.0071 1085.55 8.0071ZM1093.3 9.14489C1095.31 9.14489 1096.49 7.5 1096.49 4.64062C1096.49 1.80256 1095.29 0.153409 1093.3 0.153409C1091.29 0.153409 1090.1 1.7983 1090.1 4.64062C1090.1 7.49574 1091.28 9.14062 1093.3 9.14489ZM1093.3 8.0071C1092.12 8.0071 1091.4 6.82244 1091.4 4.64062C1091.41 2.46733 1092.12 1.26989 1093.3 1.26989C1094.47 1.26989 1095.18 2.46733 1095.18 4.64062C1095.18 6.82244 1094.47 8.0071 1093.3 8.0071ZM1101.04 9.14489C1103.06 9.14489 1104.24 7.5 1104.24 4.64062C1104.24 1.80256 1103.04 0.153409 1101.04 0.153409C1099.04 0.153409 1097.85 1.7983 1097.84 4.64062C1097.84 7.49574 1099.02 9.14062 1101.04 9.14489ZM1101.04 8.0071C1099.86 8.0071 1099.15 6.82244 1099.15 4.64062C1099.15 2.46733 1099.87 1.26989 1101.04 1.26989C1102.21 1.26989 1102.93 2.46733 1102.93 4.64062C1102.93 6.82244 1102.22 8.0071 1101.04 8.0071Z" fill="black"/>
</svg>
