<?xml version="1.0" encoding="utf-8"?>
<!-- Generator: Adobe Illustrator 25.2.3, SVG Export Plug-In . SVG Version: 6.00 Build 0)  -->
<svg version="1.1" id="Слой_1" xmlns="http://www.w3.org/2000/svg" xmlns:xlink="http://www.w3.org/1999/xlink" x="0px" y="0px"
	 viewBox="0 0 400 400" style="enable-background:new 0 0 400 400;" xml:space="preserve">
<style type="text/css">
	.st0{fill:#FFFFFF;}
</style>
<path class="st0" d="M360,68.5c-4.2,16.2-14.4,26.9-25.9,36.6c0.2,0.5,0.4,0.9,0.7,1.4c10.8-2.9,21.7-5.9,32.8-8.9
	c-1.5,6.9-5.7,12.3-10.6,17.2c-4.4,4.3-9.3,8-13.7,12.4c-1.7,1.7-3.2,4.3-3.4,6.5c-1.3,25.4-5.2,50.2-13.9,74.2
	c-16.5,45.3-45,80.6-88.1,103.4c-32.4,17.1-67.2,23.9-103.4,22.9c-33.1-0.8-62.9-12.6-90.9-29.5c-0.2-0.1-0.3-0.5-0.5-0.8
	c35.5,2.5,67.8-6,96.4-28.1c-30.7-3.6-51.4-19.3-62.4-48.7c8.9,0,17.1,0,25.3,0c-31.9-11.9-49.4-33.9-50.7-67.6
	c8.4,2.3,16.8,4.6,25.2,6.9c-26.1-27.4-32-57.7-18.5-93.6c38.5,42.3,83.8,68.5,139.2,72c0.5-10.5-0.4-20.9,1.6-30.7
	c4.6-21.8,19.3-35.9,39-44.9c16-7.3,32.8-9.1,50.1-4.3c10.4,2.9,19,8.4,26.4,16.2c1.3,1.3,4.1,2.4,5.8,1.9
	c7.8-2.1,15.6-4.5,23.2-7.3C348.9,73.7,354,71.1,360,68.5z"/>
</svg>
