<svg width="259" height="82" viewBox="0 0 259 82" fill="none" xmlns="http://www.w3.org/2000/svg">
<path d="M82.8545 5.06754V0.398926H107.139V5.02764H97.735V31.0043H92.259V5.06754H82.8545Z" fill="white"/>
<path d="M116.187 31.0043L107.616 0.398926H113.529L119.044 22.904H119.322L125.155 0.398926H130.552L136.425 22.904H136.703L142.179 0.398926H148.091L139.52 31.0043H134.084L127.973 9.53664H127.735L121.624 31.0043H116.187Z" fill="white"/>
<path d="M175.273 15.7217C175.273 19.0336 174.677 21.8268 173.447 24.181C172.217 26.5353 170.55 28.3309 168.447 29.5679C166.344 30.8049 163.963 31.4433 161.305 31.4433C158.646 31.4433 156.265 30.8049 154.162 29.5679C152.059 28.3309 150.392 26.5353 149.162 24.181C147.932 21.8268 147.337 19.0336 147.337 15.7217C147.337 12.4097 147.932 9.61654 149.162 7.26229C150.392 4.90803 152.059 3.11241 154.162 1.87543C156.265 0.638443 158.646 0 161.305 0C163.963 0 166.344 0.638443 168.447 1.87543C170.55 3.11241 172.217 4.90803 173.447 7.26229C174.638 9.61654 175.273 12.4097 175.273 15.7217ZM169.717 15.7217C169.717 13.4073 169.36 11.4521 168.646 9.85596C167.932 8.25985 166.939 7.06277 165.67 6.22482C164.4 5.38686 162.932 4.98783 161.305 4.98783C159.638 4.98783 158.17 5.38686 156.94 6.22482C155.67 7.06277 154.678 8.25985 153.964 9.85596C153.249 11.4521 152.892 13.4073 152.892 15.7217C152.892 18.036 153.249 19.9912 153.964 21.5873C154.678 23.1835 155.67 24.3805 156.94 25.2185C158.21 26.0564 159.678 26.4555 161.305 26.4555C162.971 26.4555 164.44 26.0564 165.67 25.2185C166.939 24.3805 167.932 23.1835 168.646 21.5873C169.36 19.9912 169.717 18.036 169.717 15.7217Z" fill="white"/>
<path d="M26.8246 61.2507H21.2692C21.1105 60.3329 20.8327 59.5349 20.3962 58.8166C19.9597 58.0984 19.4438 57.4998 18.8089 56.9811C18.174 56.5023 17.4598 56.1032 16.6662 55.8638C15.8725 55.6244 14.9995 55.4648 14.0472 55.4648C12.3806 55.4648 10.9124 55.8638 9.64256 56.7018C8.37276 57.5397 7.38073 58.7368 6.62678 60.3329C5.91252 61.929 5.55539 63.8842 5.55539 66.1986C5.55539 68.5529 5.91252 70.5081 6.66646 72.1042C7.38073 73.7003 8.41244 74.8974 9.68224 75.7353C10.952 76.5334 12.4203 76.9723 14.0472 76.9723C14.9599 76.9723 15.8328 76.8526 16.6265 76.6132C17.4201 76.3738 18.1344 76.0147 18.7693 75.5358C19.4042 75.057 19.9597 74.4585 20.3962 73.7801C20.8327 73.1018 21.1501 72.3037 21.3089 71.386L26.8643 71.4259C26.6658 72.8624 26.1897 74.2589 25.5151 75.5358C24.8405 76.8127 23.9278 77.93 22.8168 78.8877C21.7057 79.8453 20.3962 80.6035 18.928 81.1621C17.4598 81.7207 15.7932 81.9602 13.9678 81.9602C11.3092 81.9602 8.88862 81.3217 6.78551 80.0847C4.6824 78.8478 3.01578 77.0521 1.82534 74.6979C0.634901 72.3436 0 69.5105 0 66.2385C0 62.9266 0.59522 60.1334 1.82534 57.7791C3.05546 55.4249 4.72208 53.6293 6.78551 52.3923C8.88862 51.1553 11.2695 50.5168 13.9281 50.5168C15.6344 50.5168 17.182 50.7563 18.6502 51.2351C20.1184 51.7139 21.3882 52.4322 22.539 53.3499C23.6897 54.2677 24.6024 55.385 25.3564 56.7417C26.1103 58.0186 26.5865 59.5349 26.8246 61.2507Z" fill="white"/>
<path d="M55.7921 66.1985C55.7921 69.5104 55.1969 72.3036 53.9668 74.6578C52.7366 77.0121 51.07 78.8077 48.9669 80.0447C46.8638 81.2817 44.4829 81.9201 41.8243 81.9201C39.1656 81.9201 36.7847 81.2817 34.6816 80.0447C32.5785 78.8077 30.9119 77.0121 29.6818 74.6578C28.4517 72.3036 27.8564 69.5104 27.8564 66.1985C27.8564 62.8865 28.4517 60.0934 29.6818 57.7391C30.9119 55.3848 32.5785 53.5892 34.6816 52.3522C36.7847 51.1152 39.1656 50.4768 41.8243 50.4768C44.4829 50.4768 46.8638 51.1152 48.9669 52.3522C51.07 53.5892 52.7366 55.3848 53.9668 57.7391C55.1572 60.0934 55.7921 62.9264 55.7921 66.1985ZM50.2367 66.1985C50.2367 63.8841 49.8796 61.9289 49.1653 60.3328C48.4511 58.7367 47.459 57.5396 46.1892 56.7016C44.9194 55.8637 43.4512 55.4646 41.8243 55.4646C40.1577 55.4646 38.6894 55.8637 37.4593 56.7016C36.1895 57.5396 35.1975 58.7367 34.4832 60.3328C33.769 61.9289 33.4118 63.8841 33.4118 66.1985C33.4118 68.5128 33.769 70.4681 34.4832 72.0642C35.1975 73.6603 36.1895 74.8573 37.4593 75.6953C38.7291 76.5333 40.1973 76.9323 41.8243 76.9323C43.4909 76.9323 44.9591 76.5333 46.1892 75.6953C47.459 74.8573 48.4511 73.6603 49.1653 72.0642C49.8796 70.508 50.2367 68.5527 50.2367 66.1985Z" fill="white"/>
<path d="M58.0137 81.5211V50.9158H63.5294V76.8924H76.9417V81.5211H58.0137Z" fill="white"/>
<path d="M78.1719 81.5211V50.9158H83.6876V76.8924H97.0999V81.5211H78.1719Z" fill="white"/>
<path d="M98.291 81.5211V50.9158H118.092V55.5445H103.807V63.8442H117.06V68.473H103.807V76.8126H118.211V81.4413H98.291V81.5211Z" fill="white"/>
<path d="M145.869 61.2507H140.313C140.154 60.3329 139.877 59.5349 139.44 58.8166C139.004 58.0984 138.488 57.4998 137.853 56.9811C137.218 56.5023 136.504 56.1032 135.71 55.8638C134.916 55.6244 134.043 55.4648 133.091 55.4648C131.425 55.4648 129.956 55.8638 128.686 56.7018C127.417 57.5397 126.425 58.7368 125.671 60.3329C124.956 61.929 124.599 63.8842 124.599 66.1986C124.599 68.5529 124.956 70.5081 125.71 72.1042C126.425 73.7003 127.456 74.8974 128.726 75.7353C129.996 76.5334 131.464 76.9723 133.091 76.9723C134.004 76.9723 134.877 76.8526 135.67 76.6132C136.464 76.3738 137.178 76.0147 137.813 75.5358C138.448 75.057 139.004 74.4585 139.44 73.7801C139.877 73.1018 140.194 72.3037 140.353 71.386L145.908 71.4259C145.71 72.8624 145.234 74.2589 144.559 75.5358C143.884 76.8127 142.972 77.93 141.861 78.8877C140.75 79.8453 139.44 80.6035 137.972 81.1621C136.504 81.7207 134.837 81.9602 133.012 81.9602C130.353 81.9602 127.933 81.3217 125.829 80.0847C123.726 78.8478 122.06 77.0521 120.869 74.6979C119.679 72.3436 119.044 69.5105 119.044 66.2385C119.044 62.9266 119.639 60.1334 120.869 57.7791C122.099 55.4249 123.766 53.6293 125.829 52.3923C127.933 51.1553 130.313 50.5168 132.972 50.5168C134.678 50.5168 136.226 50.7563 137.694 51.2351C139.162 51.7139 140.432 52.4322 141.583 53.3499C142.734 54.2677 143.646 55.385 144.4 56.7417C145.154 58.0186 145.63 59.5349 145.869 61.2507Z" fill="white"/>
<path d="M145.551 55.5445V50.9158H169.836V55.5445H160.431V81.5211H154.955V55.5445H145.551Z" fill="white"/>
<path d="M176.463 50.9158V81.5211H170.947V50.9158H176.463Z" fill="white"/>
<path d="M206.7 66.1985C206.7 69.5104 206.105 72.3036 204.875 74.6578C203.645 77.0121 201.978 78.8077 199.875 80.0447C197.772 81.2817 195.391 81.9201 192.732 81.9201C190.074 81.9201 187.693 81.2817 185.59 80.0447C183.487 78.8077 181.82 77.0121 180.59 74.6578C179.36 72.3036 178.765 69.5104 178.765 66.1985C178.765 62.8865 179.36 60.0934 180.59 57.7391C181.82 55.3848 183.487 53.5892 185.59 52.3522C187.693 51.1152 190.074 50.4768 192.732 50.4768C195.391 50.4768 197.772 51.1152 199.875 52.3522C201.978 53.5892 203.645 55.3848 204.875 57.7391C206.105 60.0934 206.7 62.9264 206.7 66.1985ZM201.185 66.1985C201.185 63.8841 200.827 61.9289 200.113 60.3328C199.399 58.7367 198.407 57.5396 197.137 56.7016C195.867 55.8637 194.399 55.4646 192.772 55.4646C191.106 55.4646 189.637 55.8637 188.407 56.7016C187.137 57.5396 186.145 58.7367 185.431 60.3328C184.717 61.9289 184.36 63.8841 184.36 66.1985C184.36 68.5128 184.717 70.4681 185.431 72.0642C186.145 73.6603 187.137 74.8573 188.407 75.6953C189.677 76.5333 191.145 76.9323 192.772 76.9323C194.439 76.9323 195.907 76.5333 197.137 75.6953C198.407 74.8573 199.399 73.6603 200.113 72.0642C200.827 70.508 201.185 68.5527 201.185 66.1985Z" fill="white"/>
<path d="M233.961 50.9158V81.5211H229.041L214.716 60.6919H214.478V81.5211H208.962V50.9158H213.882L228.207 71.7849H228.485V50.9158H233.961Z" fill="white"/>
<path d="M253.286 59.3352C253.167 58.0184 252.572 57.0209 251.54 56.3026C250.508 55.5844 249.199 55.2253 247.532 55.2253C246.382 55.2253 245.39 55.3849 244.556 55.744C243.723 56.1031 243.088 56.5819 242.652 57.1805C242.215 57.779 241.977 58.4574 241.977 59.2155C241.977 59.854 242.136 60.4126 242.413 60.8914C242.691 61.3703 243.088 61.7693 243.604 62.0885C244.12 62.4077 244.675 62.6871 245.27 62.8866C245.866 63.0861 246.501 63.2856 247.136 63.4452L249.993 64.1635C251.143 64.4428 252.254 64.8019 253.326 65.2408C254.397 65.6798 255.35 66.2783 256.183 66.9566C257.016 67.635 257.691 68.5128 258.207 69.4705C258.683 70.4681 258.961 71.6253 258.961 72.942C258.961 74.7377 258.524 76.2939 257.611 77.6905C256.699 79.0472 255.389 80.1245 253.683 80.8827C251.977 81.6408 249.874 82.0399 247.453 82.0399C245.072 82.0399 243.048 81.6807 241.302 80.9226C239.556 80.2043 238.207 79.127 237.215 77.6905C236.223 76.2939 235.707 74.5381 235.628 72.5031H241.064C241.144 73.5805 241.461 74.4583 242.056 75.1766C242.612 75.8948 243.366 76.4136 244.318 76.7727C245.231 77.1318 246.263 77.2914 247.413 77.2914C248.604 77.2914 249.675 77.0919 250.588 76.7328C251.5 76.3737 252.215 75.8549 252.731 75.2165C253.246 74.5781 253.524 73.78 253.524 72.942C253.524 72.144 253.286 71.4656 252.81 70.9469C252.373 70.4282 251.699 69.9892 250.905 69.6301C250.072 69.271 249.12 68.9518 248.048 68.6725L244.596 67.7946C242.096 67.1562 240.112 66.1586 238.644 64.8418C237.176 63.525 236.461 61.7693 236.461 59.5746C236.461 57.779 236.937 56.1829 237.929 54.8262C238.921 53.4695 240.231 52.4321 241.937 51.6739C243.604 50.9158 245.548 50.5566 247.651 50.5566C249.794 50.5566 251.699 50.9158 253.326 51.6739C254.953 52.4321 256.223 53.4695 257.175 54.7863C258.088 56.1031 258.603 57.6593 258.603 59.3751H253.286V59.3352Z" fill="white"/>
</svg>
