<svg width="441" height="321" viewBox="0 0 441 321" fill="none" xmlns="http://www.w3.org/2000/svg">
<path opacity="0.29" d="M365.3 305.5C357.7 300.8 355 301.8 354.2 303.8C354.2 303.9 354.1 304.1 354.1 304.3C354 304.5 354 304.7 354 304.8C354 305 354 305.3 353.9 305.5C353.9 305.4 353.9 305.4 353.9 305.4C353.7 304.6 353.4 303.7 353.1 302.7C352.8 301.9 352.4 301.1 351.9 300.3C351.6 299.8 351.2 299.3 350.8 298.8C350.5 298.4 350.2 298.1 349.9 297.8C348.9 296.8 347.7 296 346.2 295.5C338.2 292.5 330.6 300.4 326.3 291.5C322 282.6 327.2 282.5 325 276.4C322.8 270.2 314 266.4 311.7 263.2C311.7 263.2 314.5 253 312.4 245.6C312.4 245.6 316.9 234.3 323 222.1C328.5 208.4 337.5 197.8 347.8 186.5C350.8 183 342 179.7 343.3 179C349.5 173.1 354.3 166.7 358 160.1C361.7 153.5 364.2 146.5 366 139.3C372.6 110.1 363.5 80.8 363.1 51.6C363.1 50.4 363.1 49.3 363.1 48.3C355.7 31.8 331.6 31.5001 314 30.7001C310.9 30.3001 308.3 27.9 306 25.8C304.4 25 302.6 23.9 300.4 24C290.3 26.1 278.7 26.8 271.5 18.6C266.7 13.1 264.7 6.90005 264 0.300049H3.00036C4.90036 5.30005 6.70036 10 8.30036 14.3C11.9004 24.1 6.40036 34.8 3.90036 45C2.10036 52.4 0.600356 59.7 0.400356 67.5C-0.0996445 76.5 0.900359 84.6 3.20036 91.8C14.6004 128.2 57.3004 143.6 94.6004 136.8C74.3004 129.6 21.6004 110.1 59.5004 66C97.4004 21.9 19.9004 100 100.1 132.5C108.7 135.7 116.5 140.2 126.2 141.2C142.4 143.4 155.5 149.2 170.8 153.7C218.6 167.7 262 149 307.2 132.1C314.2 129.6 322.6 133.1 328.6 139.2C332.2 143.3 333.1 149.6 329.5 154C325 159.6 323.5 165.6 322.8 171.8C322.1 178 322.2 184.3 320.8 190.6C317.7 204.4 305.4 212.4 298.1 223.7C292 232.9 288.7 242.6 294.8 254C298.7 259.7 306.1 261.9 307.7 268.7C309.6 279.7 298.2 290.6 306 300.9C312.8 307.2 322.6 305.4 326 310C327.7 312.3 328.1 316.6 328.2 320.2H375.2C375.4 316.5 373.9 310.8 365.3 305.5ZM188.3 145C174.9 147.4 160 124.4 167.9 119.6C177 114.7 190.3 108.4 197.7 117.9C202.7 122.5 205.2 127.7 207.1 131.5C207.2 131.8 207.7 132.6 208 133.1C203.5 139.9 195.9 143.3 188.3 145ZM291.1 122.6C283.4 136.4 267.1 140.5 252.5 144.7C241.6 148.4 230 145.1 220.7 138.2C222.4 137.2 223.8 138.6 225.6 138.7C216.6 133.3 217.1 119.8 225.4 113.7C239.7 103.4 258.1 108.3 274.5 111C275.2 111.2 275.3 109.4 276.2 109.4C285.4 99.7 287 109 287.9 116.1C290.3 117.4 292.3 120.7 291.1 122.6ZM354.3 308.7V308.6C354.2 308.4 354.2 308.2 354.1 307.8L354 307.3C353.9 306.8 353.9 306.3 353.9 305.7C353.9 305.9 354 306.1 354 306.2C354.1 306.7 354.2 307.1 354.2 307.5C354.2 307.7 354.2 308 354.3 308.1C354.3 308.3 354.3 308.4 354.3 308.6C354.3 308.6 354.4 308.6 354.3 308.7ZM286.7 320.4H289.5C288.8 320.1 287.9 320.1 286.7 320.4ZM253.9 280.4C252.9 279.9 251.9 279.5 251.2 279.4C243.8 280.3 236 284.6 230.2 278C224.4 272 219.7 264.8 216.4 257.2C211.8 248.3 205.8 233.7 219.5 228.9C221.4 228.3 219.6 227.1 219.3 226.7C217 224.7 213.3 223.4 213 221.9C212.4 213.7 210.3 206.1 207 199.2C202.4 188.9 194.9 179.6 185.6 173.2C176.4 166.8 165.5 163.2 154.3 164.2C151.1 164.5 154.4 171 157.6 172.5C161 174.4 167.4 174.6 166.7 177.3C164.5 188.9 162.8 200.2 165.5 211.8C168.4 222.6 174 232.8 180.1 241.8C184.3 248.9 188.4 255.6 191 261.9C194 267 197 272 200 277C204.6 285.2 205.6 295 207.3 304.2C208.6 310.2 210.3 315.8 213.3 320.2C213.3 320.3 213.4 320.3 213.4 320.4H259.7C259.1 319.3 258.8 318 258.7 316.5C258.8 312.7 265.8 312.1 265 307.1C263.4 297.2 263 285.6 253.9 280.4Z" fill="#00E85E"/>
<path d="M440 18.4V302.4C440 307.9 437.5 312.8 433.7 316.1C430.6 318.8 426.5 320.4 422 320.4H168.3C168.3 320.3 168.4 320.2 168.4 320.1C169.9 317 171.5 314 172.7 310.9C172.8 310.5 173 310.2 173.1 309.8C175.1 304.6 180.2 292.9 171.2 292.9C163.4 292.3 154.3 299.4 147.5 295.1C147.3 294.2 147.1 293.2 146.9 292.3C146.6 290.8 146.3 289.3 146 287.8C144.8 281.4 143.7 275 142.7 268.5C141.4 260 140.3 251.5 139.5 242.9C139.1 238.7 138.7 234.4 138.4 230.2C120 219 96.6003 234 76.5003 232C67.4003 230.7 72.6003 222.9 75.9003 218.4C79.5003 213.7 83.7003 209.3 88.3003 205.2C90.3003 203.3 92.4003 201.6 94.5003 199.8C96.8003 197.8 99.2003 195.9 101.5 194C129.9 173.7 152.3 145.1 169.2 113.8C170.4 111.3 171.7 108.7 172.8 106C175.9 100.3 175.9 93.2 177.2 86C178.1 82.1 179.4 78.6 181 75.2C182.6 71.8 184.5 68.6 186.7 65.2C188.9 61.4 192.1 57.4999 194.1 53.5999C187.6 59.3999 179.2 63.3 174.5 71.4C172.1 74.5 169.8 77.7 167.8 81.1C165.8 84.4 163.9 87.8 162.3 91.2C160.9 93.7 159.5 96 158.1 98.4C153 103.4 147.6 108 141 110.7C139.7 111.4 141 109.4 140.9 108.9C141.6 106.7 142.3 104.6 143 102.4C143.7 100.2 144.5 98.1 145.2 95.9C146 93.7 146.7 91.6 147.4 89.4C147.9 82.6 150.2 76.4 153 70.4C154.9 67.8 156.7 65.2999 159.3 62.2999C171.4 47.9 188.2 36.7999 193.4 18C194.1 16.1 191.4 16.1 190.2 15.4C183.7 14.1 176.6 16.1 171.4 11.6C170.9 9.79995 171.6 7.29995 172.7 4.59995C173.2 3.19995 173.8 1.89995 174.4 0.499951H422C431.9 0.399951 440 8.39995 440 18.4Z" fill="#C8EA00"/>
<g opacity="0.26">
<path opacity="0.26" d="M392.1 273.6C392 273.6 392.1 273.5 392 273.4C391.9 273.1 391.8 272.6 391.8 272L391.7 271.1C391.6 270.2 391.6 269.2 391.7 268.2C391.7 268.5 391.8 268.9 391.8 269.2C391.9 270 392 270.8 392 271.5C392 271.9 392 272.3 392.1 272.6C392.1 272.9 392.1 273.2 392.1 273.4C392.1 273.4 392.2 273.5 392.1 273.6Z" fill="#00E85E"/>
</g>
<path d="M440 22.1V237.8C440 237.8 440 237.8 440 237.7C434.9 229.4 429.5 221.8 423.7 215.8C423.5 215.6 423.2 215.3 423 215.1C422.5 214.6 422 214.1 421.5 213.6C421.3 213.4 421.1 213.2 420.9 213C419 211.2 417.2 209.7 415.3 208.3C414.3 207.5 413.2 206.9 412.2 206.3C412.2 206.3 412.2 206.3 412.2 206.2L412.3 206.1C412.4 205.9 412.8 205.5 413.2 204.9L413.3 204.8C413.9 204 414.6 202.9 415.4 201.6C419 195.9 424.6 185.3 426.7 172.1C427.3 168.3 427.7 164.3 427.6 160.2C427.4 147.9 423.6 134.3 412.8 120.8C411.6 119.2 410.2 117.6 408.8 116.1C406.8 114 404.7 111.9 402.4 109.8C402.4 109.8 397.3 110.1 388.6 110.7C385.9 110.9 382.9 111.1 379.6 111.3C378.4 111.4 377.3 111.5 376 111.6C374.8 111.7 373.5 111.8 372.2 111.9C371.2 112 370.2 112 369.2 112.1C367.6 112.2 366 112.3 364.3 112.5C363.4 112.6 362.6 112.6 361.7 112.7C361.5 112.7 361.3 112.7 361 112.7C360.1 112.8 359.3 112.8 358.4 112.9C357.8 112.9 357.2 113 356.6 113C356 113 355.4 113.1 354.8 113.1C354.5 113.1 354.3 113.1 354 113.2C350.7 113.4 347.3 113.7 343.8 114C341.1 114.2 338.3 114.4 335.5 114.7C335.2 114.7 334.8 114.7 334.5 114.8C327.8 115.3 320.9 115.9 313.9 116.5C313.5 116.5 313.1 116.6 312.7 116.6C312.2 116.6 311.7 116.7 311.2 116.7C310.8 116.7 310.4 116.8 310 116.8C303.7 117.4 297.3 118 290.9 118.6C288.9 118.8 287 119 285 119.2C284.4 119.3 283.8 119.3 283.2 119.4C282.1 119.5 281 119.6 280 119.7C277.5 120 275 120.2 272.6 120.5C270.5 120.7 268.4 121 266.3 121.2C266.2 121.2 266 121.2 265.9 121.2C265.8 121.2 265.8 121.2 265.7 121.2C263.7 121.4 261.8 121.6 259.8 121.9C259.5 121.9 259.1 122 258.8 122C255.8 122.3 252.8 122.7 249.9 123C245.2 123.6 240.6 124.2 236.2 124.8C235.5 124.9 234.8 125 234.1 125.1C233.8 125.1 233.6 125.2 233.3 125.2C233 125.2 232.7 125.3 232.4 125.3C231.6 125.4 230.8 125.5 229.9 125.6C229.2 125.7 228.5 125.8 227.9 125.9C225.1 126.3 222.4 126.7 219.8 127.2C218.5 127.4 217.3 127.6 216 127.8C214.5 128 213.1 128.3 211.7 128.6C211.1 128.7 210.5 128.8 209.9 128.9C209.3 129 208.7 129.1 208.1 129.3C208.1 129.3 208.1 129.3 208 129.3C207.9 129.3 207.8 129.3 207.7 129.4C206.6 129.6 205.5 129.9 204.4 130.1C203.1 130.4 201.8 130.7 200.6 131C196.5 132 193.1 133 190.6 134C189.9 134.3 189.3 134.5 188.7 134.8C188.5 134.9 188.3 135 188.1 135.1C187.3 135.5 186.7 135.9 186.2 136.3C186.2 136.3 177.2 135.4 177.7 132.8C177.8 132.4 177.9 132 177.9 131.6C179.9 122.8 185.6 105.5 183.7 100.1C183.6 99.8 183.6 99.4 183.7 98.7C183.8 98 184 97.1 184.2 96C184.2 95.9 184.2 95.8 184.3 95.7C185.3 91.7 187.2 85.4 189.4 77.5C191.3 70.8 193.4 63.1 195.3 54.7001V54.6C195.3 54.5 195.3 54.4001 195.3 54.4001C195.4 54.0001 195.5 53.6 195.6 53.1C195.8 52.1 196 51.1 196.3 50.1C197.5 44.5 198.6 38.6 199.4 32.6C199.5 32.1 199.5 31.6001 199.6 31.2001C199.7 30.6001 199.8 30 199.8 29.4C199.9 28.8 199.9 28.2001 200 27.7001C200.6 23.0001 201 18.2 201.2 13.5C201.4 9.20005 201.4 4.90005 201.2 0.700049C201.2 0.600049 201.2 0.500049 201.2 0.300049H421C421 0.400049 421 0.500049 420.9 0.700049H421.8C431.7 0.700049 439.8 8.80005 439.8 18.7001L440 22.1Z" fill="#5A5EAF"/>
<path d="M440 242.3V235.6C429.9 220.6 420.6 211 413.3 205L410.9 207.8C418.8 214.2 429.1 224.9 440 242.3Z" fill="black"/>
<path d="M426.499 212.1C425.799 211.2 424.899 210.4 423.899 209.6C422.399 208.3 420.499 207.3 417.899 206.4C415.799 205.6 413.599 205 411.199 204.4L410.199 204.1C408.599 203.6 407.399 203.2 406.299 202.8L406.099 202.7C404.899 202.1 403.599 201.4 402.399 200.7C401.899 200.4 401.399 200.1 400.899 199.9C397.599 198.1 394.099 196.3 390.399 194.7C388.699 194 386.999 193.4 385.199 192.9C379.799 191.2 374.099 190.1 367.699 189.5L368.099 185.8C374.699 186.4 380.599 187.6 386.299 189.3C388.199 189.9 389.999 190.5 391.799 191.2H391.899C395.699 192.9 399.399 194.7 402.699 196.6C403.199 196.9 403.699 197.2 404.199 197.5C405.399 198.2 406.499 198.8 407.599 199.4C408.599 199.8 409.699 200.1 411.099 200.6L412.099 200.9C414.499 201.6 416.899 202.2 419.099 203C422.099 204.1 424.299 205.3 426.099 206.8C427.199 207.7 428.299 208.7 429.199 209.9L426.499 212.1Z" fill="black"/>
<path d="M381.199 141C338.799 84.7002 280.199 140.2 258.999 138.3C237.799 136.4 212.999 106.3 221.399 135.3C229.799 164.3 286.599 187.7 286.599 187.7L360.899 168.4L381.199 141Z" fill="#8C1137"/>
<path d="M217.7 131.3C210.7 133.6 206.3 129.3 201.6 149.6C196.9 169.9 200.3 160.2 205.2 159.6C210.8 158.9 226.3 137.2 223.8 132.6C221.4 128.1 217.7 131.3 217.7 131.3Z" fill="#A59E81"/>
<path d="M187.899 134.5C194.699 142 190.699 149.7 211.499 137.2C232.299 124.7 239.399 126.8 263.599 129.9C287.799 133 295.999 130.2 305.199 125.2C314.299 120.2 324.699 126.8 324.699 126.8C324.699 126.8 346.699 113.2 364.499 120.7C382.299 128.2 374.099 119 374.099 119L351.099 107.6C351.099 107.6 228.499 94.8 205.999 112.3C183.399 129.8 188.499 130.4 188.499 130.4L187.899 134.5Z" fill="#A88279"/>
<path d="M377 109.9C375.1 109.6 369.2 142.7 366.2 141.6C365.9 136.1 374.2 115.1 358.7 111.6C343.2 108.1 326 120.2 317.2 120.6C312 120.9 304.6 104.9 295.5 109.9C291.6 112.1 288.3 119.1 283.8 117C280.2 115.3 278.8 110.7 270.2 117C266.7 119.6 262.9 126 258.9 121C254.1 114.9 234.8 110.5 233.2 120C232.6 123.4 216.2 116.3 205.8 128.2C199 135.9 193.9 152.8 189 136.3C187.3 130.5 191.8 127.2 195.5 121.4C194.6 117.5 222.4 99.5 229.3 98C230.4 97.8 244.7 70.3 244.7 70.3C244.7 70.3 242.7 97.2 248 97.8C250.7 98.1 272.8 100.8 274.7 101.1C291 103.2 308 104.8 319 105.6C350.9 107.8 364.6 77.5 364.6 77.5L365.7 87.4L357.1 107.4L378.5 107.8C378.6 107.7 385.8 111.2 377 109.9Z" fill="#991F3F"/>
<path d="M272.8 100.8C270.3 101.9 263.7 112.4 261.1 113.5C257.4 115 260.2 97.3 256.3 98.7C257.5 96.5 274.5 100.1 272.8 100.8Z" fill="#6D0635"/>
<path d="M182.8 137.5C182.1 137.5 181.4 137.4 180.7 137.2C177.7 136.3 175.7 133.5 176.2 131L179.8 131.8C179.7 132.2 180.4 133.3 181.7 133.7C184.3 134.5 186.9 132.2 188.8 127.5C191.5 120.8 197 117 201.8 113.6C202.4 113.2 203.1 112.7 203.7 112.3C205.7 110.9 226.8 97.1002 228.7 96.4002C231 95.4002 238 81.7002 243.1 69.7002L246.6 70.5002C246.3 82.1002 247.5 93.2002 249.3 94.4002C255.7 94.9002 273.2 97.8002 274.7 98.1002C277.8 98.6002 280.9 99.3002 284.1 99.9002C295.1 102.1 306.4 104.4 319 103.9C347.7 102.9 358.2 83.0002 361.7 76.4002C362.8 74.3002 363.5 73.0002 365.1 73.5002C366.8 74.0002 366.7 75.6002 366.5 77.8002C366.2 82.2002 365.8 86.4002 365.3 90.8002C364.4 98.2002 361.2 102.7 359.1 105.1C362.8 106.9 370.7 110 379.2 108.8L379.7 112.4C366.7 114.2 355.5 107.3 355 107L354.9 103.9C355.1 103.7 360.5 99.8002 361.7 90.3002C362 87.7002 362.3 85.1002 362.5 82.5002C357.1 91.5002 344.9 106.6 319.1 107.5C306 108 294 105.5 283.3 103.4C280.1 102.7 277 102.1 274 101.6C271.5 101.2 254.8 98.5002 248.9 98.0002C245.6 97.7002 243.8 93.3002 243.1 83.3002C243 81.8002 242.9 80.4002 242.9 79.0002C242.1 80.7002 241.2 82.6002 240.3 84.5002C233.3 98.6002 231 99.5002 230 99.9002C228.4 100.6 208.9 113.2 205.9 115.4C205.3 115.8 204.6 116.3 204 116.7C199.4 119.9 194.6 123.3 192.3 129C190.5 133.2 187.1 137.5 182.8 137.5Z" fill="black"/>
<path d="M316.7 135.3C314 129.2 315.3 121.1 304 131C292.7 141 298.3 137.5 299.7 142.5C301.3 148.2 315.6 149.3 317.4 143.1C319.1 137 316.7 135.3 316.7 135.3Z" fill="#D3CAA3"/>
<path d="M310.4 120.3C310.6 124.1 328.2 116.4 333.4 118.5C334.6 119 335.1 112.4 332.9 112C324.6 110.5 310.2 116.3 310.4 120.3Z" fill="#8C1137"/>
<path d="M283.3 118.9C281 121.8 307.8 117 312.3 120.7C313.3 121.5 313.1 115.6 311.3 114C304.1 107.1 295 104.4 283.3 118.9Z" fill="#8C1137"/>
<path d="M290.9 119C289 127.4 281.8 134.3 300.3 134.5C318.8 134.7 310.7 133.1 313 127C315.7 120 302.4 106.2 296 110.7C289.8 115.2 290.9 119 290.9 119Z" fill="#D3CAA3"/>
<path d="M265.3 123.7C264.1 125.9 255.3 125.8 254.3 125C247.8 119.7 233 125 232.6 119.5C232.1 113.8 237.1 109.8 237.1 109.8L233 103.2L239.5 108.1C239.5 108.1 261.4 114.9 265.4 120.7C266 121.6 265.8 122.7 265.3 123.7Z" fill="#8C1137"/>
<path d="M208 129.1C210 134.2 223.3 125.2 231.2 127.4C233 127.9 237.2 120.6 234.1 119.4C230.6 118 226.6 115.1 222.1 115.3C221.6 115.3 216.2 112.7 216.2 112.7L221.1 105.9L213.5 113.7C213.5 113.7 213.4 118.1 213.1 118.2C207.1 119.5 205.7 123.2 208 129.1Z" fill="#8C1137"/>
<path d="M196.6 146.9C201.4 148.4 203.4 138.8 210 135.9C211.5 135.2 212.9 124.2 210 125.1C200.8 128.1 185.5 143.3 196.6 146.9Z" fill="#8C1137"/>
<path d="M236.8 128C237.7 133.7 238.5 145.8 240.2 140.9C240.8 139.1 242.9 141.6 242.9 138.5C242.9 135.4 245 138.8 246.4 138.8C247.8 138.9 249.3 138.8 251.1 138C268.1 130 260.1 132.1 260 125.4C259.9 117.8 242.6 111.1 238.5 118.1C234.4 125.1 236.8 128 236.8 128Z" fill="#D3CAA3"/>
<path d="M266.3 122.8C268.6 129.1 271.3 120.2 279.2 123.6C281 124.4 287.7 118.5 284.8 116C283.7 115.1 282.6 113.7 281.4 112.7L275.8 108.8L276.4 104.1L273.8 110.7L274.3 113.1C274.3 113 264.7 118.4 266.3 122.8Z" fill="#8C1137"/>
<path d="M282.499 146.1C283.099 144 282.999 141.7 282.099 139.7C277.999 130.4 283.299 113.4 275.799 115.4C270.899 116.7 273.799 129 263.699 137.8C260.799 140.3 266.999 147.3 269.899 150.2C270.699 151 271.699 151.7 272.799 152.1C276.799 153.5 281.099 151.1 282.399 146.7L282.499 146.1Z" fill="#D3CAA3"/>
<path d="M439.999 92.3L375.799 141.1L332.199 165.6C332.199 165.6 372.299 150 387.799 190.3C390.499 191 393.199 191.9 395.799 193.1C397.099 193.7 398.399 194.3 399.699 195C400.999 195.7 402.299 196.4 403.499 197.1C412.199 199.3 411.299 204.3 417.199 210.9C418.699 212.4 423.299 214.3 424.699 216C429.099 221.4 435.099 227 439.899 233.2V92.3H439.999Z" fill="#4F528E"/>
<path d="M232.6 188.5C228.6 196.3 231.5 205 217.3 191.7C201.9 177.3 199.3 166.2 203.5 170.5C212.5 179.8 233.3 169.1 234.5 177.9C235.6 186.8 232.6 188.5 232.6 188.5Z" fill="#A59E81"/>
<path d="M375.399 93.0002C366.199 89.8002 363.499 81.4002 350.499 103.1C340.399 120 332.699 130.6 323.999 126.3C320.299 124.4 314.199 132.5 309.099 134.7C286.399 144.4 280.299 151.1 274.399 160.2C268.499 169.3 258.699 172.2 258.699 172.2C258.699 172.2 233.799 178.3 214.799 180.7C195.799 183.2 206.499 210.7 206.499 210.7L241.299 199.3L326.399 161.2L355.799 138.1L367.599 120.6L378.599 99.7002L375.399 93.0002Z" fill="#A88279"/>
<path d="M369.799 95.1001C366.799 84.0001 366.899 95.8001 353.799 117.6C340.799 139.4 332.299 140.2 309.599 150C286.899 159.8 291.299 146.7 285.399 155.8C279.499 164.9 262.699 166.6 254.699 172.6C246.699 178.6 240.399 191.3 221.399 193.8C202.399 196.3 205.499 209.1 205.499 209.1L242.799 192.4C242.799 192.4 331.599 149.4 339.999 142C348.399 134.6 372.799 106.2 369.799 95.1001Z" fill="#991F3F"/>
<path d="M440.399 77.9001C424.999 70.6001 390.099 65.5001 367.299 83.5001C356.099 149.5 238.599 188.5 218.799 199.9C198.999 211.2 205.499 212.7 205.499 212.7C205.499 212.7 217.599 226.8 232.999 244.1C233.999 245.2 234.899 246.3 235.899 247.4C238.199 250 240.499 252.6 242.799 255.2C243.999 256.5 245.099 257.7 246.299 259C248.399 262.5 250.999 265.1 253.599 266.4C259.899 269.3 264.999 273.3 269.499 277.8C270.999 279.3 272.399 280.8 273.899 282.4C275.399 283.7 276.799 285.2 278.299 286.6C279.799 288 281.099 289.6 282.599 291.1C283.999 292.2 285.399 293.3 286.999 294.5C288.599 295.6 290.299 296.7 292.099 297.7C293.799 298.8 295.599 299.5 297.399 299.9C299.199 300.3 300.999 300.4 302.699 300.2C304.799 299.7 306.799 298.9 308.699 298.1C310.599 297.2 312.399 296.2 314.199 295.1C315.599 293.8 317.099 292.5 318.599 291.2C319.799 289.6 320.999 288.1 322.199 286.6C328.899 278.5 336.499 270.4 345.699 264.8C347.599 263.7 349.499 262.6 351.699 261.6C357.799 259.9 363.399 257.5 368.699 254.7C370.499 253.8 372.299 252.8 373.999 251.7C381.499 247.2 390.399 243.7 398.899 239.7C400.999 238.7 403.099 237.7 405.199 236.5C407.199 235.3 409.199 233.9 411.099 232C416.799 226.4 420.999 219.9 424.099 212.9C424.899 211.2 425.599 209.4 426.299 207.6C432.299 202.8 436.999 197.3 440.399 191.2V77.9001V77.9001Z" fill="#5A5EAF"/>
<path d="M439.999 187.4C436.799 194 431.899 200 424.699 204.9L424.199 205.2L423.999 205.7C423.599 206.6 423.199 207.5 422.899 208.4C422.499 209.5 421.999 210.6 421.599 211.6C418.899 217.8 415.799 223.1 412.099 227.9C410.599 229.8 408.999 231.5 407.399 233.1C405.699 234.3 403.899 235.3 401.999 236.3C398.199 238.3 394.299 240.1 390.599 241.8L389.099 242.5C385.799 244 382.599 245.5 379.699 247C378.499 247.6 377.399 248.1 376.399 248.7C375.799 249 375.299 249.3 374.699 249.6H374.599C372.999 250.5 371.599 251.3 370.099 252.1C365.799 254.4 361.499 256.2 357.299 258C353.299 259.7 349.099 261.4 345.099 263.6L344.999 263.7C343.499 264.6 341.999 265.6 340.499 266.7C333.899 271.5 327.499 277.7 321.099 285.8L319.899 287.2C318.799 288.4 317.799 289.6 316.699 290.8C315.199 292.1 313.599 293.4 311.999 294.8C310.599 295.7 309.199 296.4 307.899 297.1C304.799 298.6 301.799 299.5 298.799 299.9C297.299 299.9 295.899 299.6 294.399 299.1C292.799 298.6 291.299 297.8 289.899 296.9C288.599 296 287.299 294.8 286.099 293.6C284.899 292.3 283.899 290.9 282.999 289.4L282.899 289.2C281.899 287.9 280.799 286.4 279.699 285.2C278.699 283.8 277.399 282.2 275.999 280.7C274.499 279.1 272.999 277.7 271.399 276.5L271.299 276.4C268.799 274.8 266.299 273.4 263.799 272C256.999 268.1 250.499 264.5 246.399 258.4L246.199 258.2C244.999 256.9 243.899 255.8 242.899 254.6C240.499 252 238.499 249.6 236.699 247.3L236.599 247.2C235.599 246 234.499 244.9 233.499 243.7C220.799 229.2 210.499 216.7 207.599 213.1C215.999 200.9 237.999 191.3 263.299 180.2C285.299 170.6 310.199 159.7 329.799 145C352.499 128 364.399 108.7 365.999 86.0002L362.299 85.7002C360.699 107.3 349.299 125.7 327.499 142.1C308.299 156.5 283.599 167.3 261.699 176.8C235.099 188.4 212.099 198.5 203.699 212.3L202.999 213.4L203.799 214.4C203.899 214.5 215.599 228.9 230.699 246.1C231.699 247.2 232.699 248.4 233.799 249.6C235.599 251.9 237.699 254.4 240.199 257.1C241.199 258.2 242.299 259.4 243.499 260.6C248.099 267.4 255.199 271.3 262.099 275.2C264.499 276.6 266.999 278 269.399 279.5C270.799 280.5 272.099 281.7 273.399 283.2C274.699 284.6 275.799 286.1 276.899 287.5L276.999 287.6C277.999 288.8 279.099 290.1 280.099 291.4C281.099 293.1 282.299 294.6 283.599 296.1C284.999 297.6 286.399 298.9 287.999 300C289.699 301.1 291.599 302 293.499 302.7C295.299 303.3 297.199 303.6 299.099 303.7H299.199H299.299C302.799 303.3 306.199 302.3 309.699 300.6C311.199 299.9 312.799 299 314.299 298L314.499 297.8C316.099 296.4 317.799 295 319.399 293.6L319.599 293.4C320.699 292.2 321.799 290.9 322.899 289.7L324.099 288.3L324.199 288.2C330.399 280.4 336.499 274.4 342.899 269.8C344.299 268.8 345.699 267.9 347.099 267C350.899 265 354.799 263.3 358.899 261.6C363.199 259.8 367.599 257.9 371.999 255.6C373.499 254.8 374.999 254 376.599 253.1C377.199 252.8 377.699 252.5 378.299 252.3C379.399 251.8 380.399 251.2 381.599 250.6C384.499 249.1 387.599 247.7 390.899 246.2L392.399 245.5C396.099 243.8 400.099 241.9 403.899 239.9C405.999 238.9 407.999 237.7 409.899 236.4L410.099 236.2C411.799 234.5 413.599 232.7 415.199 230.6C419.099 225.6 422.399 220 425.199 213.5C425.699 212.4 426.099 211.3 426.599 210.2C426.899 209.5 427.199 208.8 427.499 208C432.999 204.2 437.199 199.9 440.299 195.1V187.4H439.999Z" fill="black"/>
<path d="M242.899 167.5C243.899 174.2 240.499 181.6 253.899 175.7C267.399 169.8 260.999 171.3 261.099 166C261.099 160 247.699 154.4 244.399 159.8C240.999 165.2 242.899 167.5 242.899 167.5Z" fill="#D3CAA3"/>
<path d="M274.299 159.7C271.599 153.6 272.899 145.5 261.599 155.4C250.299 165.4 255.899 161.9 257.299 166.9C258.899 172.6 273.199 173.7 274.999 167.5C276.699 161.3 274.299 159.7 274.299 159.7Z" fill="#D3CAA3"/>
<path d="M299.599 142.4C296.899 136.3 298.199 128.2 286.899 138.1C275.599 148.1 281.199 144.6 282.599 149.6C284.199 155.3 298.499 156.4 300.299 150.2C301.999 144.1 299.599 142.4 299.599 142.4Z" fill="#D3CAA3"/>
<path d="M224.299 178.9C221.299 174.4 211.899 188.5 203.699 188.3C201.799 188.3 201.799 201.7 205.099 202.1C215.799 203.6 231.299 189.1 224.299 178.9Z" fill="#8C1137"/>
<path d="M243.999 172.5C241.799 167.5 230.099 179.3 222.099 177.4C220.299 177 216.299 184.4 219.499 185.5C229.599 189.2 248.999 184.1 243.999 172.5Z" fill="#8C1137"/>
<path d="M204.999 197C186.399 184.1 192.399 170.2 196.299 174.7C204.699 184.7 222.399 175.6 222.999 184.5C223.599 193.4 204.999 197 204.999 197Z" fill="#D3CAA3"/>
<path d="M222.599 172.6C223.699 180.1 219.899 188.3 234.899 181.7C249.999 175.1 242.899 176.8 242.899 170.9C242.899 164.2 227.899 158 224.199 164C220.499 170 222.599 172.6 222.599 172.6Z" fill="#D3CAA3"/>
<path d="M220.1 212.8C244.8 221.7 250.9 217.5 258.4 209.3C265.9 201.1 292.3 191 293 191.1C293.8 191.2 338.5 170.6 338.5 170.6C338.5 170.6 314.3 171.8 288.3 181.3C284.3 182.7 276.3 183 272.6 185.9C244.7 207.9 259.3 199.5 247.5 204.9C235.7 210.3 220.1 212.8 220.1 212.8Z" fill="#4F528E"/>
<path d="M228.499 160.3C229.199 163.4 228.399 161.7 227.599 163.8C226.899 165.8 222.599 169.1 216.599 161.6C208.099 151.2 207.399 134.1 208.499 126C209.499 118.2 216.099 122.1 219.699 120.2C219.699 120.2 221.499 117 229.399 119.1C230.299 119.3 230.999 120 231.499 120.9C235.099 128.3 227.199 154.9 228.499 160.3Z" fill="#D3CAA3"/>
<path d="M216.2 155.6C211.5 149.4 209.7 133.7 209.9 128.5C210.1 123.5 213.6 123.7 215.4 124.2C217.2 124.7 211.8 126.8 215.9 127.6C216.4 127.7 215.6 129.3 215.2 129.7C208.5 136.3 219.6 160 216.2 155.6Z" fill="#F2EBCE"/>
<path d="M236.999 148.7C237.699 151.8 228.399 161.7 227.599 163.8C226.999 161 228.099 161.5 227.999 154.7C227.299 126.2 227.399 114.8 231.499 121C235.499 127.1 235.699 143.3 236.999 148.7Z" fill="#A59E81"/>
<path d="M200.199 129C192.099 133.2 188.099 129.1 183.799 154.4C180.699 172.7 183.999 167.5 189.899 165.7C196.599 163.7 211.599 134.3 207.799 129.4C203.999 124.3 200.199 129 200.199 129Z" fill="#D3CAA3"/>
<path d="M186.699 164.7C183.299 155.6 185.999 145.3 188.099 139.3C189.999 133.5 193.999 135.1 195.899 136.5C197.799 137.9 190.799 138.1 195.299 140.7C195.799 141 194.399 142.6 193.699 142.9C183.799 147.9 189.199 171.2 186.699 164.7Z" fill="#F2EBCE"/>
<path d="M333.5 125.1C333.1 118.7 336.9 112.2 323.8 116.4C310.7 120.7 316.8 119.9 316.4 124.8C315.9 130.4 328.1 136.9 331.6 132.2C335.1 127.5 333.5 125.1 333.5 125.1Z" fill="#D3CAA3"/>
<path d="M440 22.1001V25.5001C440 25.5001 440 25.5001 440 25.6001C432.7 40.6001 427.2 56.5001 422.7 72.7001C420 82.4001 417.6 92.3001 415.5 102.2C414.9 104.8 414.4 107.2 414 109.6C413.8 110.6 413.7 111.6 413.6 112.6C413.2 115.4 413 118.1 413 120.9C412.8 131.9 415.3 142.8 422.7 153.1C424.1 155 425.5 156.9 426.8 158.9C427.1 159.4 427.5 159.9 427.8 160.4C431.3 165.6 434.4 170.9 435.8 176.1C432.4 175.5 429.5 174.2 426.8 172.4C425 171.1 423.3 169.6 421.6 168C420.3 166.7 419.1 165.3 417.8 163.8C413.6 159.3 410.4 150.8 406.5 150.8C400 151.5 399.4 162.5 395.9 169C395.1 170.4 394.3 171.7 393.2 172.8C392.1 173.9 390.8 174.8 389.2 175.4C387.2 176.5 385.1 177.6 383.1 178.7C382.7 178.9 382.4 179.1 382 179.3C377.7 181.6 373.3 183.9 368.9 186.1C368.7 186.2 368.5 186.3 368.2 186.4C356.7 192.1 344.9 196.9 332.1 199.8C332.1 199.8 333.3 199.2 335.6 198.2C351.9 193.8 365.4 184.7 379 175.5C380.8 174.3 382.5 173.1 384.3 171.9C386 170.7 387.7 169.6 389.3 168.2C397.4 155.4 398.7 140.5 400 125.6C394.1 126.8 387.7 138.1 385.1 134.4C384.8 134 384.6 133.5 384.4 132.8C382.3 124.7 384.3 117.5 388.5 111C391.6 106.3 395.8 101.9 400.4 97.8001C402 96.2001 403.7 94.7001 405.4 93.0001C408.3 90.0001 411.6 86.7001 413.5 82.8001C415.2 79.4001 416.8 75.9001 418.3 72.4001C425.6 55.3001 431.1 37.7001 440 22.1001Z" fill="#4F528E"/>
<path d="M237.8 191.3C249.2 190.6 254.9 198.4 257.2 207C257.3 207.5 257.5 208 257.6 208.5C257.7 209 257.8 209.6 257.9 210.1C257.9 210.8 257.9 211.3 258 211.7C258.1 212.2 258.2 212.7 258.3 213.3C258.4 213.9 258.4 214.5 258.5 215C258.6 217.8 258.6 219.7 258.3 222.5C258.2 222.9 258.2 223.4 258.1 223.8C258 224.6 257.8 225.3 257.6 226C256.9 228.2 256.5 230.2 256.3 232.1C256.3 232.5 256.2 232.8 256.2 233.2C256.2 233.7 256.2 234.2 256.1 234.7C256.1 235.2 256.1 235.7 256.1 236.2C256.1 236.7 256.1 237.2 256.1 237.7C256.1 238.2 256.2 238.8 256.2 239.3C256.1 239.9 256.2 240.4 256.4 240.8C256.6 241.3 256.8 241.8 257 242.5C257.2 243 257.4 243.5 257.7 243.9C258.1 244.5 258.7 245 259.4 245.3C259.7 245.5 260.1 245.6 260.5 245.6C261.1 245.7 261.7 245.7 262.2 245.6C267.6 245.6 270.9 240.4 268.6 236C268.5 235.5 268.3 235.1 268.2 234.7C268.1 234.3 267.9 233.9 267.7 233.5C267.7 233.2 267.6 232.8 267.6 232.5C267.4 231.2 267.1 229.7 266.7 228.1C266.4 227 266.1 225.8 265.9 224.6C265.8 224.3 265.8 224 265.7 223.7C265.4 222 265.1 220.2 264.9 218.4C264.8 217.9 264.8 217.5 264.7 217C264.5 216.5 264.3 216.1 264.2 215.6C264.1 215.1 263.9 214.7 263.8 214.2C263.8 211.7 264 209 264.2 206.3C264.3 205.7 264.3 205.2 264.4 204.6C264.7 202.9 264.7 200.8 265 198.7C265.1 198.2 265.2 197.6 265.3 197.1C265.3 196.5 265.4 195.9 265.6 195.3C265.8 194.7 266 194.1 266.2 193.6C267.1 191.1 268.8 189.9 270.9 189.6C271.9 189.5 273 189.5 274.1 189.9C274.5 190.1 274.9 190.4 275.3 190.6C275.7 190.8 276.1 191.1 276.5 191.4C277.4 192.2 278.1 193.1 278.6 194.2C278.8 194.6 278.9 194.9 279.1 195.3C279.1 195.7 279.2 196.2 279.3 196.6C279.4 197.1 279.5 197.5 279.6 198C279.7 198.5 279.9 199 280 199.4C280.2 199.9 280.3 200.3 280.5 200.7C282 204.8 285.2 207.3 284.6 211.8C284.6 212.1 284.6 212.5 284.6 212.8C284.6 213.9 284.7 214.9 284.7 215.9C284.7 216.4 284.8 216.9 284.9 217.4C285 218.4 285.2 219.4 285.4 220.4C285.4 220.9 285.4 221.4 285.5 222C285.8 230.5 285.9 241 285.5 253.9C285.3 259.3 284.8 264.5 284.2 269.5C284.1 270 284.1 270.5 284 271C284.5 274.7 283.2 278.6 282.3 282.7C282.2 283.2 282.2 283.6 282.1 284.1C282 284.6 282 285 281.9 285.5C281.8 285.9 281.8 286.3 281.8 286.8C281.7 288.9 281.9 291 281.8 293.2C281.8 294 281.8 294.8 281.9 295.5C282 296.3 282.1 297 282.4 297.7C282.7 298.8 283.1 299.7 283.8 300.4C284.5 301.1 285.5 301.6 286.8 301.9C287.3 302 287.8 302.1 288.3 302.2C292.2 302.5 295.2 299.6 296.1 295.4C296.2 295 296.2 294.6 296.2 294.2C296.2 293 296.2 291.8 296.6 290.7C296.6 289.7 296.5 288.8 296.4 287.9C296.2 286.1 295.8 284.3 295.5 282.5C295.4 282 295.4 281.5 295.3 281C295.2 280.2 295 279.5 294.9 278.7C294.8 278.3 294.7 277.9 294.6 277.5C294.3 276.5 295 274.6 293.9 273.6C293.8 273.2 293.8 272.8 293.7 272.4C293.5 271.6 293.4 270.9 293.2 270.1C293.1 269.7 293.1 269.3 293 268.9C291.9 262.4 290.8 255.6 290.1 249.3C289.1 240.4 289.7 231 291.3 221.6C291.4 221 291.5 220.5 291.6 219.9C291.4 217.9 291.7 216.1 292.2 214.4C292.3 214 292.5 213.5 292.6 213.1C292.7 212.8 292.9 212.4 293.1 212.1C293.3 211.8 293.5 211.4 293.6 211.1C293.7 210.5 293.8 209.9 293.9 209.4C294 208.9 294.2 208.3 294.3 207.8C295.6 204.6 296.9 202 298.3 199C298.5 198.5 298.8 198 299 197.5C299.2 197 299.5 196.5 299.7 195.9C300 195.4 300.2 195 300.4 194.5C301.6 192.4 302.6 190.2 303.1 187.8C303.3 187.4 303.4 186.9 303.6 186.5C303.8 186.1 303.9 185.6 304 185.2C304 184.7 304.1 184.1 304.1 183.6C304.8 179.2 307.9 175.6 307.7 171C307.8 170.5 307.9 170.1 308.1 169.7C308.5 168.4 309 167.1 309.5 166C309.9 165.2 310.2 164.4 310.6 163.6C313.4 157.6 315.4 154 315.4 154L237.8 191.3Z" fill="#C3E9B1"/>
<path d="M346.2 212.1C345.6 219.4 337.7 223.3 331.3 221.7C326.7 220 321.1 214.8 322.8 209.3C326.1 199.3 339.7 201.5 345 208.7C345.6 209.8 346.1 210.9 346.2 212.1Z" fill="#C3E9B1"/>
<path d="M252.7 261.1C246.8 257.5 251.3 243.7 258.9 248.4C262.8 253.2 259.2 258.3 254.9 261C254.1 261.2 253.4 261.3 252.7 261.1Z" fill="#C3E9B1"/>
<path d="M182.7 1.3999C182.2 2.2999 167.5 27.3999 167.5 27.3999L194.2 38.6999L199.2 29.3999L200.5 14.4999L182.7 1.3999Z" fill="#F2DFC0"/>
<path d="M201.4 13.1L184.2 0.4L183.7 0H181.5L181.3 0.4L181.2 0.5C181 0.8 179.5 3.3 177.5 6.8C177.5 6.8 177.4 6.9 177.4 7C176.8 8 176.2 9 175.6 10.1C174 12.9 172.2 15.9 170.6 18.6C170.5 18.8 170.3 19.1 170.2 19.3C170.1 19.5 169.9 19.8 169.8 20C169.4 20.7 169 21.3 168.7 21.9C168.6 22.1 168.4 22.3 168.3 22.6C167 24.8 166.1 26.4 165.9 26.6L164.9 28.3L182.9 35.9L183.7 36.2L191 39.3L192.5 39.9H192.6L193.9 40.5H194L194.8 40.9L199.5 32.3L200 31.3L200.7 30.1L200.8 30L201 28.3L202.2 13.8L201.4 13.1ZM197.5 28.2L197.4 29L193.6 36.1L193.3 36.6L192.5 36.3L191.7 36L188.8 34.8L186 33.6L184.7 33L183.5 32.5L170 26.6C170.6 25.5 171.3 24.3 172.1 23C172.3 22.7 172.4 22.5 172.6 22.2C172.6 22.2 172.6 22.2 172.6 22.1C172.6 22 172.7 22 172.7 21.9C173 21.4 173.4 20.8 173.7 20.2C173.9 19.8 174.2 19.4 174.4 19C174.5 18.9 174.6 18.8 174.6 18.6C176.2 15.9 177.7 13.2 179.1 10.8C179.9 9.5 180.6 8.2 181.3 7.1C182.1 5.8 182.7 4.7 183.2 3.9L187.1 6.8L191.4 10L195.3 12.9L196.7 13.9L198.7 15.4L197.9 25L197.8 26.6L197.5 28.2Z" fill="#070707"/>
<path d="M187.4 10.1999L182.7 14.2999L190.7 17.7999C190.7 17.7999 185.5 21.6999 184.8 23.4999L182 42.1999L186.6 26.1999C188.1 24.2999 189.3 22.6999 189.3 22.6999C190.6 30.0999 195.4 54.7999 195.4 54.7999L192.2 21.9999L196.2 9.8999L187.4 10.1999Z" fill="#6D0635"/>
<path d="M178.701 0C177.701 2.2 176.6 4.5 175.3 6.8C175 7.4 198.701 5.1 193.201 20.5C191.401 25.5 165.801 20.8 165.101 22C154.001 41.8 147.3 49.8 147.3 49.8C147.3 49.8 141.2 59.5 145.4 64.6C148.2 68 160.601 77.5 168.601 83.4C169.801 84.3 186.1 97.5 187.8 98.8C187.8 98.8 222.801 49.6 211.201 0.1H178.701V0Z" fill="#5A5EAF"/>
<path d="M186.1 72.1001C195.6 81.8001 192.8 106.4 184 98.7001C175.2 91.0001 144.2 61.6001 144.2 61.6001C144.2 61.6001 176.6 62.4001 186.1 72.1001Z" fill="#4F528E"/>
<path d="M185 73.6001C184.8 73.5001 164.4 58.7001 144.6 63.3001L143.8 59.7001C165.3 54.7001 186.4 69.9001 187.2 70.6001L185 73.6001Z" fill="black"/>
<path d="M183.3 7.1C181.2 7.3 178.6 7.4 177.6 6.9C177.3 6.6 177.1 6.2 177 5.9C176.9 5.6 176.7 5.3 176.7 5.1C176.8 5 176.8 4.8 176.9 4.7L177 4.5C177.2 4.1 177.4 3.7 177.6 3.3C178.2 2.2 178.7 1.1 179.2 0H175.1C174.8 0.5 174.6 1.1 174.3 1.6C174.1 2 173.9 2.3 173.8 2.7C173.4 3.4 173.1 4 173 4.8L172.9 5.1L173 5.4C173.1 6.1 173.4 6.9 173.8 7.6C174.1 8.2 174.5 8.8 175 9.4L175.2 9.6L175.4 9.7C177.4 11.1 180.4 10.9 183.7 10.6C187.1 10.3 190.9 10.1 192.3 11.9C193.1 12.9 193.6 15.3 191.9 20.9C189 20.9 185.5 20.3 182.1 19.7C175.4 18.5 168.4 17.3 164.2 20.4L163.9 20.6L163.7 20.9C163.3 21.5 151.9 39.3 146 48.7C145.7 49.1 139.3 59.5 144.2 65.6C147 69 158.6 77.9 167.8 84.7L167.9 84.8C172 87.9 180.6 94.2 182.4 99.3C183.6 102.7 180.8 113.5 178.7 121.3C177.7 125 176.8 128.4 176.3 131L179.9 131.7C180.4 129.3 181.3 125.9 182.2 122.3C185.3 110.7 187.3 102.2 185.8 98.1C183.6 92 174.8 85.4 170 81.9L169.9 81.8C157.3 72.5 149 65.7 147 63.3C144.3 60 147.6 53 149 50.7C151.7 46.4 164.6 26.3 166.6 23.2C169.7 21.3 175.6 22.3 181.4 23.4C185.6 24.1 189.9 24.9 193.4 24.6L194.6 24.5L195 23.4C197.2 16.9 197.3 12.6 195.2 9.8C192.5 6.4 187.6 6.7 183.3 7.1Z" fill="black"/>
<path d="M195 52.4001C199.4 55.3001 202.4 51.2001 204.1 48.9001C204.3 48.3001 204.5 47.6001 204.6 46.9001C203.2 44.0001 201.2 43.0001 204.4 40.7001C204.8 40.1001 204.8 39.4001 204.6 38.7001C204.5 38.0001 204.3 37.4001 204.1 36.7001C203.9 36.1001 203.7 35.4001 203.4 34.8001C199 24.0001 188 19.0001 176.7 20.4001C175.1 20.3001 173.4 20.2001 171.8 20.0001C170.5 19.8001 170.8 20.5001 172.6 21.8001C173.8 22.6001 175.2 23.4001 176.5 24.3001C180.5 26.8001 184.8 30.0001 188.2 33.8001C188.6 34.3001 189 34.8001 189.5 35.2001C191.2 35.7001 191.7 37.0001 192.1 38.4001C192.2 38.9001 192.3 39.4001 192.5 39.8001C192.6 40.3001 192.7 40.9001 192.8 41.4001C192 43.0001 194 44.0001 194.2 46.0001C194.3 46.4001 194.3 46.8001 194.3 47.2001C194.3 47.8001 194.3 48.4001 194.5 49.0001C195.2 50.0001 196.3 51.0001 194.5 51.9001C194.7 52.2001 194.9 52.2001 195 52.4001Z" fill="#7C0435"/>
<path d="M204.7 44.4001C203.7 42.8001 203.7 42.7001 205.2 41.7001L205.4 41.6001L205.5 41.4001C206.2 40.3001 206.1 39.2001 205.9 38.4001C205.7 37.7001 205.6 37.0001 205.3 36.3001C205.1 35.6001 204.8 35.0001 204.6 34.4001C203.7 32.1001 202.5 30.1001 201 28.2001C200.8 27.9001 200.5 27.6001 200.2 27.3001C199.9 27.0001 199.6 26.7001 199.4 26.4001C198.9 25.9001 198.3 25.4001 197.8 24.9001C196.9 24.2001 196 23.5001 195 22.9001C194.2 22.4001 193.3 21.9001 192.4 21.5001C192.4 21.5001 192.4 21.5001 192.3 21.5001C191.9 21.3001 191.4 21.1001 191 20.9001C190 20.5001 189 20.2001 188 19.9001C184.9 19.1001 181.5 18.7001 177.9 19.0001C177.5 19.0001 177 19.1001 176.6 19.1001C175.8 19.1001 175.1 19.0001 174.3 18.9001C173.7 18.9001 173 18.8001 172.4 18.7001C172.2 18.7001 172.1 18.7001 171.9 18.7001C171 18.6001 170.5 18.8001 170.1 19.1001C169.9 19.3001 169.8 19.5001 169.7 19.6001C169.7 19.7001 169.7 19.7001 169.6 19.8001C169.4 20.5001 169.8 21.2001 170.4 21.8001C170.4 21.8001 170.4 21.8001 170.5 21.9001C170.6 22.0001 170.6 22.0001 170.7 22.1001C171 22.3001 171.3 22.6001 171.7 22.9001H171.8C171.8 22.9001 171.8 22.9001 171.9 22.9001C172.4 23.2001 172.9 23.5001 173.4 23.8001C174.2 24.3001 175 24.8001 175.8 25.3001C178.8 27.2001 181.4 29.1001 183.6 31.0001C184 31.4001 184.4 31.7001 184.8 32.1001C185.2 32.5001 185.6 32.9001 186 33.2001C186.4 33.6001 186.9 34.1001 187.2 34.5001L187.4 34.8001C187.8 35.2001 188.1 35.6001 188.6 36.0001L188.8 36.2001L189.1 36.3001C189.4 36.4001 189.6 36.5001 189.8 36.7001C190.3 37.1001 190.5 37.7001 190.8 38.7001L190.9 39.0001C191 39.3001 191.1 39.7001 191.2 40.1001C191.3 40.5001 191.3 40.8001 191.4 41.2001C190.9 42.5001 191.6 43.6001 192.1 44.4001C192.4 45.0001 192.8 45.5001 192.8 46.1001V46.3001C192.9 46.6001 192.9 46.9001 192.9 47.3001V47.6001C192.9 48.1001 192.9 48.7001 193.1 49.3001L193.2 49.5001L193.3 49.7001C193.4 49.8001 193.5 50.0001 193.6 50.1001C193.7 50.3001 193.9 50.5001 194 50.6001C194 50.6001 193.9 50.6001 193.9 50.7001L191.6 51.8001L193.9 52.9001C193.9 52.9001 194 52.9001 194.1 53.0001L194.3 53.1001C194.6 53.3001 195 53.5001 195.3 53.7001H195.4C195.4 53.7001 195.4 53.7001 195.5 53.7001C196.4 54.1001 197.2 54.3001 198 54.3001C201.3 54.3001 203.7 51.2001 205 49.5001L205.3 49.1001L205.4 48.9001C205.7 48.1001 205.9 47.4001 206 46.6001V46.2001L205.8 45.9001C205.4 45.6001 205 45.0001 204.7 44.4001ZM203 48.3001C201 50.9001 199.2 52.9001 196.6 51.8001C196.6 51.7001 196.7 51.6001 196.7 51.5001C196.9 50.9001 196.7 50.3001 196.4 49.8001C196.2 49.5001 196 49.1001 195.8 48.9001L195.7 48.8001C195.7 48.5001 195.6 48.1001 195.6 47.8001V47.5001C195.6 47.2001 195.6 46.7001 195.4 46.2001C195.3 45.0001 194.8 44.2001 194.3 43.4001L194.2 43.3001C193.8 42.6001 193.8 42.5001 193.9 42.3001L194.1 41.9001L194 41.5001C194 41.2001 193.9 41.0001 193.8 40.7001C193.8 40.4001 193.7 40.2001 193.6 39.9001V39.8001C193.5 39.4001 193.4 39.1001 193.3 38.8001L193.2 38.6001V38.5001C193 37.9001 192.8 37.1001 192.4 36.4001C192.2 36.0001 191.9 35.6001 191.5 35.3001C191.1 35.0001 190.7 34.7001 190.1 34.5001C189.8 34.2001 189.6 33.9001 189.3 33.6001L189.1 33.3001C188 32.1001 186.9 30.9001 185.6 29.8001C185.1 29.4001 184.6 28.9001 184.1 28.5001C182.1 26.8001 179.8 25.2001 177.2 23.6001C176.8 23.4001 176.4 23.1001 176 22.8001C175.9 22.8001 175.9 22.7001 175.8 22.7001C175.4 22.5001 175.1 22.3001 174.8 22.1001C174.7 22.0001 174.6 22.0001 174.5 21.9001C175.2 21.9001 175.9 22.0001 176.6 22.0001H176.7H176.8C179.9 21.6001 183 21.7001 185.8 22.3001C186.6 22.5001 187.3 22.7001 188.1 22.9001C188.4 23.0001 188.8 23.1001 189.1 23.2001C189.2 23.2001 189.3 23.3001 189.4 23.3001C190.5 23.7001 191.5 24.1001 192.5 24.7001C192.6 24.7001 192.7 24.8001 192.8 24.9001C194.6 25.9001 196.1 27.1001 197.5 28.5001C198 29.0001 198.5 29.5001 199 30.1001C199.3 30.5001 199.6 30.8001 199.8 31.2001C199.9 31.4001 200 31.5001 200.1 31.7001C201 32.9001 201.7 34.3001 202.3 35.7001C202.5 36.2001 202.7 36.8001 203 37.5001C203.2 38.1001 203.3 38.7001 203.5 39.3001C203.6 39.7001 203.6 40.0001 203.5 40.1001C200.4 42.5001 201.6 44.5001 202.6 46.1001C202.9 46.5001 203.1 46.9001 203.4 47.4001C203.2 47.5001 203.1 47.9001 203 48.3001Z" fill="#070707"/>
<path d="M233.6 0C233.7 1.1 233.8 2.2 233.8 3.3C233.9 5.2 230.7 6.7 229.2 8.6C226.8 11.4 224.4 14.2 224.4 14.2C231.6 11.9 239.3 9 242.9 2.3C243.3 1.5 243.6 0.8 243.9 0H233.6V0Z" fill="#323768"/>
<path d="M327.2 31.5C319.1 39 314.5 47.2 311.4 43.9C308.4 40.6 312.5 31.9 320.6 24.4C328.7 16.9 337.7 13.5 340.8 16.8C343.9 20.1 335.3 24 327.2 31.5Z" fill="#656CC4"/>
<path d="M438.9 292.8C438.4 293.1 437.799 293.4 437.099 293.8C433.099 297.9 428.599 301.1 423.599 302.3C423.099 302.5 422.5 302.7 421.9 303C421.3 303.2 420.8 303.5 420.2 303.7C419.1 304.2 418.5 304.6 418.5 304.6C414.8 306.7 412.1 310.2 411 314.3C410.5 316.3 410.399 318.3 410.599 320.3C411.699 319.9 412.9 319.8 414 320.3C414.1 320.4 414.3 320.4 414.4 320.4H417.4C416.8 318.9 416.7 317.3 417.2 315.7C417.7 313.7 419 312 420.8 311C420.8 311 421.6 310.5 423 309.8C423.5 309.4 424 309.1 424.4 308.9C424.9 308.6 425.4 308.4 425.9 308.2C429.7 307 432.999 305.1 436.099 302.1C436.699 301.7 437.3 301.4 437.8 301.1C438.6 300.7 439.2 300.3 439.8 300V292.2C439.8 292.3 439.4 292.5 438.9 292.8Z" fill="#464D54"/>
<path d="M439.6 289.5C439.6 289.5 439 289.9 437.9 290.5C437.4 290.8 436.7 291.2 436 291.6C433.2 296.5 427.3 296.5 423.8 299.5C423.2 299.8 422.6 300.1 422 300.5C421.4 300.8 420.7 301 420.1 301.3C419.5 301.5 418.8 301.8 418.1 301.9C417 302.5 416.4 302.9 416.4 302.9C412.5 305.2 409.7 308.8 408.5 313.2C407.9 315.3 407.8 317.5 408 319.6C408 319.7 408 319.7 408 319.8C408.9 319.9 409.8 320 410.6 320.2C410.5 319.1 410.4 318.1 410.5 317C410.6 316.1 410.7 315.1 411 314.2C412.1 310.1 414.8 306.6 418.5 304.5C418.5 304.5 419.1 304.2 420.2 303.6C420.8 303.4 421.3 303.1 421.9 302.9C422.5 302.7 423 302.5 423.6 302.2C428.6 301 433.1 297.8 437.1 293.7C437.8 293.3 438.4 293 438.9 292.7C439.4 292.4 439.8 292.2 440.1 292V289.2C439.9 289.4 439.7 289.5 439.6 289.5Z" fill="#7A7F84"/>
<path d="M438.9 292.8C438.4 293.1 437.8 293.4 437.1 293.8C433.1 297.9 428.6 301.1 423.6 302.3C423.1 302.5 422.5 302.7 421.9 303C421.3 303.2 420.8 303.5 420.2 303.7C419.1 304.2 418.5 304.6 418.5 304.6C414.8 306.7 412.1 310.2 411 314.3C410.8 315.2 410.6 316.2 410.5 317.1C410.4 318.2 410.4 319.2 410.6 320.3C411.7 319.9 412.9 319.8 414.1 320.3C414.2 320.4 414.4 320.4 414.5 320.4H417.5C416.9 318.9 416.8 317.3 417.3 315.7C417.4 315.1 417.7 314.6 417.9 314.1C418.6 312.8 419.6 311.7 420.9 311C420.9 311 421.7 310.5 423.1 309.8C423.6 309.4 424.1 309.1 424.5 308.9C425 308.6 425.5 308.4 426 308.2C429.8 307 433.1 305.1 436.2 302.1C436.8 301.7 437.4 301.4 437.9 301.1C438.7 300.7 439.3 300.3 439.9 300V292.2C439.8 292.3 439.4 292.5 438.9 292.8Z" fill="#464D54"/>
<path d="M414.1 320.2C414.2 320.3 414.4 320.3 414.5 320.3H417.5C416.9 318.8 416.8 317.2 417.3 315.6C417.4 315 417.7 314.5 417.9 314C415.2 314.2 412.6 315.2 410.6 317C410.5 318.1 410.5 319.1 410.7 320.2C411.8 319.8 413 319.8 414.1 320.2Z" fill="#464D54"/>
<path d="M421.9 320.4C424.3 320.1 426.6 319.6 428.9 318.9C428.5 318.5 428.2 318 427.7 317.6C425.5 315.5 422.7 314.3 419.7 314.1C419.3 314.1 418.9 314.1 418.5 314.1C418.3 314.1 418.1 314.1 417.9 314.1C417.6 314.6 417.4 315.1 417.3 315.7C416.9 317.3 417 318.9 417.5 320.4H421.9Z" fill="#464D54"/>
<path d="M419 320.4L418.9 320C418.7 318.1 418.9 316.2 419.6 314.4C419.6 314.3 419.7 314.2 419.7 314.1C419.3 314.1 418.9 314.1 418.5 314.1C418.3 314.1 418.1 314.1 417.9 314.1C417.6 314.6 417.4 315.1 417.3 315.7C416.9 317.3 417 318.9 417.5 320.4H419Z" fill="#30353A"/>
</svg>
