<svg width="99" height="88" viewBox="0 0 99 88" fill="none" xmlns="http://www.w3.org/2000/svg">
<path d="M18.3071 15.5104L13.7949 0.234741H16.85L19.8582 11.4682H19.9992L23.0073 0.234741H26.0624L29.0705 11.4212H29.2115L32.1727 0.234741H35.2278L30.8096 15.5104H27.7545L24.6524 4.46491H24.4174L21.3152 15.5104H18.3071Z" fill="white"/>
<path d="M39.5042 15.8396C38.5172 15.8396 37.6711 15.6516 36.8721 15.2756C36.0731 14.8996 35.462 14.3826 35.039 13.6776C34.569 12.9725 34.334 12.1265 34.334 11.1395C34.334 10.2934 34.522 9.58839 34.851 9.02437C35.18 8.46034 35.65 8.03732 36.2141 7.70831C36.7781 7.3793 37.3891 7.14429 38.0941 6.95628C38.7992 6.76828 39.5042 6.67427 40.2092 6.58027C41.1023 6.48626 41.8543 6.39226 42.4183 6.29826C42.9823 6.25125 43.4054 6.11025 43.6404 5.96924C43.9224 5.82824 44.0164 5.54623 44.0164 5.17021C44.0164 4.32418 43.7814 3.61915 43.2643 3.14913C42.7943 2.67911 42.0423 2.4441 41.1023 2.4441C40.1152 2.4441 39.3162 2.67911 38.7522 3.10213C38.1881 3.52514 37.7651 4.04216 37.5771 4.55918L34.757 3.90116C35.086 2.96112 35.556 2.20909 36.2141 1.64507C36.8721 1.08104 37.5771 0.658028 38.4232 0.376017C39.2692 0.0940052 40.1152 0 41.0553 0C41.6663 0 42.3243 0.0940038 42.9823 0.23501C43.6874 0.376015 44.2984 0.658025 44.9094 1.03404C45.5204 1.41006 45.9905 1.97408 46.3665 2.63211C46.7425 3.33713 46.9305 4.23017 46.9305 5.35822V15.5106H44.0164V13.4425H43.8754C43.6874 13.8186 43.4054 14.1946 43.0293 14.5706C42.6533 14.9466 42.1363 15.2286 41.5253 15.5106C41.1023 15.7456 40.3502 15.8396 39.5042 15.8396ZM40.1622 13.4425C41.0083 13.4425 41.7133 13.3015 42.2773 12.9725C42.8413 12.6435 43.3114 12.2205 43.6404 11.7035C43.9694 11.1865 44.1104 10.6224 44.1104 10.0114V8.03733C44.0164 8.13133 43.7814 8.22533 43.4994 8.31934C43.2173 8.41334 42.8413 8.50734 42.4653 8.55435C42.0893 8.60135 41.7133 8.69536 41.3373 8.74236C40.9613 8.78936 40.6792 8.83636 40.4442 8.88336C39.8802 8.97736 39.3632 9.07137 38.8462 9.25937C38.3761 9.44738 38.0001 9.68239 37.7181 10.0114C37.4361 10.3404 37.2951 10.7634 37.2951 11.2805C37.2951 12.0325 37.5771 12.5495 38.0941 12.9255C38.6112 13.2545 39.3162 13.4425 40.1622 13.4425Z" fill="white"/>
<path d="M60.5151 0.234741L54.9689 15.5104H51.7728L46.2266 0.234741H49.4227L53.2769 11.9852H53.4179L57.272 0.234741H60.5151Z" fill="white"/>
<path d="M66.3439 15.8398C64.8398 15.8398 63.5238 15.5108 62.4427 14.8527C61.3617 14.1947 60.5157 13.3017 59.9516 12.1266C59.3876 10.9516 59.0586 9.58851 59.0586 7.99044C59.0586 6.43938 59.3406 5.02932 59.9516 3.85427C60.5157 2.67923 61.3617 1.73919 62.4427 1.03416C63.5238 0.376132 64.7458 0.0471191 66.1559 0.0471191C67.0019 0.0471191 67.8479 0.188126 68.647 0.470137C69.446 0.752149 70.198 1.22217 70.8091 1.83319C71.4671 2.44422 71.9371 3.24325 72.3131 4.23029C72.6891 5.21733 72.8772 6.39238 72.8772 7.75543V8.78947H60.7507V6.58039H70.01C70.01 5.78135 69.869 5.12333 69.54 4.5123C69.211 3.90128 68.788 3.43126 68.224 3.05524C67.6599 2.72623 66.9549 2.53822 66.2029 2.53822C65.3568 2.53822 64.6518 2.72623 64.0408 3.14924C63.4298 3.57226 62.9598 4.08928 62.6307 4.74731C62.3017 5.40534 62.1137 6.11037 62.1137 6.8624V8.60147C62.1137 9.63551 62.3017 10.4815 62.6777 11.1866C63.0538 11.8916 63.5238 12.4556 64.1818 12.8316C64.8398 13.2077 65.5919 13.3957 66.4379 13.3957C67.0019 13.3957 67.5189 13.3017 67.989 13.1607C68.459 13.0196 68.835 12.7376 69.211 12.4086C69.54 12.0796 69.822 11.7036 70.01 11.1866L72.8302 11.7036C72.5951 12.5496 72.2191 13.2547 71.6081 13.8657C71.0441 14.4767 70.2921 14.9467 69.446 15.3227C68.459 15.6518 67.4719 15.8398 66.3439 15.8398Z" fill="white"/>
<path d="M84.6264 3.94828L81.9473 4.4183C81.8533 4.08928 81.6652 3.76027 81.4302 3.43126C81.1952 3.10225 80.8662 2.86723 80.4432 2.67923C80.0202 2.49122 79.5032 2.39721 78.8921 2.39721C78.0461 2.39721 77.3411 2.58522 76.777 2.96124C76.213 3.33726 75.931 3.80727 75.931 4.4183C75.931 4.93532 76.119 5.35834 76.495 5.64035C76.871 5.96936 77.4821 6.20437 78.3281 6.39238L80.7722 6.9564C82.1823 7.28542 83.2163 7.80243 83.9213 8.46046C84.6264 9.11849 84.9554 10.0115 84.9554 11.0926C84.9554 11.9856 84.6734 12.8316 84.1563 13.5367C83.6393 14.2417 82.8873 14.8057 81.9473 15.2287C81.0072 15.6518 79.9262 15.8398 78.7041 15.8398C77.0121 15.8398 75.602 15.4637 74.521 14.7587C73.4399 14.0067 72.7819 12.9726 72.5469 11.6096L75.414 11.1866C75.602 11.9386 75.978 12.5026 76.542 12.8786C77.1061 13.2547 77.8111 13.4427 78.7041 13.4427C79.6912 13.4427 80.4432 13.2547 81.0542 12.8316C81.6182 12.4086 81.9473 11.9386 81.9473 11.3276C81.9473 10.8576 81.7592 10.4345 81.4302 10.1055C81.0542 9.77652 80.5372 9.5415 79.7852 9.3535L77.2001 8.78947C75.79 8.46046 74.709 7.94344 74.0509 7.23841C73.3929 6.53338 73.0169 5.64035 73.0169 4.5593C73.0169 3.66627 73.2519 2.86723 73.7689 2.20921C74.2859 1.55118 74.991 0.987159 75.837 0.611144C76.73 0.235129 77.7641 0.0471191 78.8921 0.0471191C80.5372 0.0471191 81.8533 0.423136 82.7933 1.12816C83.7333 1.78619 84.3444 2.77323 84.6264 3.94828Z" fill="white"/>
<path d="M53.6175 45.0067C53.9971 45.4179 54.5032 45.4179 54.9461 45.4179C55.0093 45.4179 55.0726 45.4179 55.1675 45.4179C55.1991 45.4179 55.1991 45.4179 55.2308 45.4179C55.8318 45.4179 56.0532 45.2282 56.1798 44.5639L56.4645 41.7169L56.8441 39.5026C56.8757 39.2179 56.939 38.8383 57.0022 38.3954C57.1604 37.2883 57.4135 35.8015 57.3502 34.5046C57.3502 34.2199 57.4134 34.0617 57.5716 33.9036C58.2992 34.9475 60.5451 37.8577 61.9686 39.6924C62.538 40.4516 63.0441 41.0842 63.0757 41.1475C63.487 41.7802 64.7839 41.4322 65.3533 41.0526C65.8911 40.7046 65.8911 40.325 65.7329 40.072C65.7013 40.0404 65.6696 39.9138 65.638 39.8189C65.6064 39.7557 65.6064 39.6608 65.5747 39.5975C65.4482 39.2812 64.5625 38.0158 63.1706 35.9913C62.0319 34.3464 60.7665 32.5433 60.292 31.6893C60.6716 31.3097 61.8104 29.3801 65.29 23.18C66.3972 21.2188 67.5044 19.1943 67.6941 18.9412C68.3584 18.3718 67.6625 16.9483 67.2197 16.3157C66.7135 15.6197 66.3656 15.6197 66.1125 15.7779C65.7645 16.031 64.3094 18.4034 61.2727 23.4014C59.9441 25.5841 58.489 27.9882 57.6665 29.2535C57.6981 28.6841 57.7614 28.0198 57.793 27.3239C57.8879 25.7739 58.0145 24.0025 58.141 23.3698L58.2992 21.8514V21.8198C58.2992 21.63 58.2359 21.4718 58.0777 21.3769C57.5716 21.0606 56.2114 21.3453 55.3889 21.7882C54.693 22.1677 54.5348 22.579 54.5348 22.8637C54.5348 24.0974 54.4716 25.3943 54.3451 26.976C54.3134 27.4504 54.2185 27.9249 54.1236 28.4311C54.0604 28.8107 53.9971 29.1903 53.9338 29.6015C53.8706 30.1709 53.8389 30.7086 53.8389 31.278C53.8389 31.6576 53.8073 32.0372 53.7757 32.3852C53.6808 33.2393 53.5542 34.1566 53.491 35.0423C53.4277 36.4658 53.3961 38.0475 53.4277 39.8822C53.4277 40.4199 53.3961 40.9577 53.3644 41.5587C53.3328 41.97 53.3328 42.3812 53.3328 42.7608C53.3012 43.2669 53.2695 43.8047 53.2695 44.3424V44.3741V44.4057C53.3012 44.5955 53.4277 44.8486 53.6175 45.0067Z" fill="#FFAB17"/>
<path d="M66.9363 31.5309L66.9046 31.9422C66.8414 32.5748 66.8097 33.2075 66.7781 33.8085V34.0932C66.5567 38.332 66.6199 38.68 66.7781 38.8381C66.8414 38.933 66.9679 39.0596 67.3475 39.0596C67.7587 39.0596 68.423 38.933 69.5618 38.4902L69.7199 38.4269L69.7516 38.2687C69.7516 38.2371 69.7516 38.2371 69.7516 38.2055C70.0046 38.1106 70.2577 37.984 70.5108 37.8891C70.7638 37.7942 71.0169 37.6677 71.27 37.5728C71.523 37.4779 71.7445 37.3514 71.9975 37.2565C72.472 37.0351 72.9781 36.8136 73.4843 36.6555C73.9271 36.5289 74.37 36.434 74.8129 36.3708C75.0659 36.3391 75.2874 36.3075 75.5404 36.2442C75.6037 36.2126 75.6669 36.2126 75.7302 36.181C75.7618 36.1493 75.8251 36.1493 75.8884 36.1177L77.7231 35.4218C78.5455 35.1687 78.2925 33.2075 78.1343 32.5748C77.9761 31.9422 77.7231 31.6891 77.3751 31.7524C77.0588 31.8156 76.7425 31.8789 76.4894 31.8789C75.92 31.8473 75.4139 31.9422 75.0027 32.1636C74.9394 32.1952 74.8129 32.2269 74.6863 32.2585C74.6231 32.2901 74.5598 32.2901 74.4965 32.2901L74.37 32.3217C73.9271 32.4166 73.5159 32.5115 73.073 32.6381L69.6883 33.5554C69.72 33.2075 69.7832 32.9228 69.8465 32.6381C69.9414 32.2901 70.0046 31.9105 70.0363 31.436C70.1628 30.0758 70.5424 27.1023 70.6689 26.3115L70.7006 26.2799H70.7322C71.1118 26.0584 71.4914 25.9003 71.9026 25.7105L71.9343 25.6788C72.1557 25.5523 73.1679 25.1411 73.9588 24.8247C74.5914 24.5717 75.1292 24.3502 75.3506 24.2554C75.7935 24.0656 75.8567 23.4329 75.572 22.5788C75.3506 21.9778 75.0975 21.6931 74.8129 21.788L70.9536 22.9268C71.0485 21.3768 71.3016 17.9604 71.4598 16.6002C71.4598 16.5685 71.523 16.5369 71.523 16.5053C71.7128 16.3788 71.9343 16.3471 72.1873 16.2522C72.5669 16.1257 72.9465 16.0308 73.3261 15.9359C73.7057 15.841 74.1169 15.7145 74.4649 15.6196C74.5282 15.5879 74.5914 15.5879 74.6547 15.5879C74.9394 15.5247 75.2241 15.4614 75.4771 15.2716C76.3312 14.6706 77.3119 14.3542 78.1659 14.1328C78.4506 14.0695 78.6721 13.7216 78.7986 13.0889C78.7986 13.0889 79.1466 11.5389 78.767 11.1909C78.6721 11.0961 78.5455 11.0961 78.419 11.1277C78.1976 11.1909 77.9761 11.2858 77.7863 11.3807C77.6914 11.4124 77.5965 11.444 77.5017 11.4756C77.3751 11.5073 77.2802 11.5705 77.1537 11.5705C76.9639 11.6022 76.8057 11.6022 76.6159 11.6338C76.3629 11.6338 76.1098 11.6654 75.8567 11.7287C74.6547 12.045 73.5159 12.3614 72.3139 12.7093L71.3965 12.9624C71.3649 12.9624 71.3016 12.9624 71.2383 12.9624C71.2067 12.9624 68.6444 13.4053 68.5495 14.3859C68.4863 14.7655 68.2016 17.5175 68.2016 17.8022C68.2016 18.0553 68.1699 18.1818 68.1699 18.3716C68.1383 18.5931 68.1067 18.8778 68.1067 19.3839L68.075 20.5543C67.8536 22.4523 67.126 29.285 67.0628 29.8227C66.9995 30.3605 66.9679 30.9615 66.9363 31.5309Z" fill="#FFAB17"/>
<path d="M88.5092 14.987C88.8888 14.8289 90.0276 14.734 91.0398 14.6391C92.0837 14.5442 93.0643 14.4493 93.5072 14.3227C93.6337 14.2911 93.7286 14.2595 93.7919 14.2595H93.8235H93.8551C94.0449 14.2595 94.646 14.1962 94.8041 13.5319V13.4687L94.7725 13.2789C94.7725 13.184 94.7409 13.0574 94.6776 12.9942L94.4878 11.7921C94.4245 11.4758 94.1715 11.3176 93.9817 11.2227L93.8235 11.0962L93.0643 11.1595V11.2544C90.7867 11.887 78.2917 15.3034 77.5642 15.7462L77.5325 15.7779C77.406 15.8728 77.3111 15.936 77.1846 15.9677C76.1723 16.2207 76.0458 18.4667 76.1723 19.0361C76.2672 19.4789 76.6152 19.4157 76.6468 19.384L78.956 18.8463C79.0826 18.8146 81.3918 18.0238 81.7397 17.8656L83.3214 17.3911L83.3846 17.3595C83.2265 17.7707 83.1948 18.1503 83.1948 18.5616C83.1948 18.6881 83.2265 18.8463 83.1948 18.9728V19.0044C83.1632 19.4157 83.1316 19.8269 83.0999 20.2697C83.0367 20.9024 82.9734 21.5351 82.9734 22.1677C82.9101 23.3065 82.7203 24.2239 82.4356 25.1096C82.3407 25.4259 82.2775 25.8055 82.2775 26.1535C82.2142 27.2922 81.9928 29.981 81.8346 31.5943V31.626C81.7081 32.5117 81.6132 33.429 81.5183 34.3148C81.4867 34.5046 81.6132 34.7576 81.9611 34.8209C81.9928 34.8209 82.0244 34.8209 82.0877 34.8209C82.6571 34.8209 84.0173 34.4097 84.1438 33.8719C84.2387 33.3025 84.3336 32.7647 84.4285 32.227C84.555 31.4994 84.6816 30.8035 84.8081 30.0759C84.903 29.6331 85.0295 29.127 85.1561 28.5892C85.3459 27.8933 85.504 27.1657 85.6306 26.5014C85.6938 26.1535 85.7571 25.8055 85.852 25.4575C85.9785 24.8565 86.1051 24.2239 86.2 23.5596C86.3265 22.7371 86.4214 21.7881 86.4847 20.9024C86.4847 20.7126 86.5163 20.5228 86.5163 20.333C86.5479 19.7003 86.5796 19.0993 86.6745 18.4983C86.7694 17.8656 86.8643 17.2013 86.9275 16.5687C86.9592 16.284 86.9908 15.9677 87.0224 15.683V15.6513C87.4969 15.4299 87.9714 15.1768 88.5092 14.987Z" fill="#FFAB17"/>
<path d="M46.88 52.092C46.3739 51.9971 45.8361 51.8706 45.2984 51.9022C44.381 51.9338 43.5902 52.092 42.831 52.3134C42.9259 52.092 42.9892 51.9022 43.0208 51.6808C43.179 51.0481 43.3055 50.4471 43.4636 49.8144C43.6534 48.9603 43.8749 48.0746 44.0647 47.2205C44.3494 45.9868 44.4759 44.7531 44.6024 43.5511C44.6657 42.8552 44.7606 42.1276 44.8555 41.4001C44.9504 40.7041 45.1086 40.0082 45.2984 39.249C45.33 39.1857 45.33 39.0908 45.3616 39.0276C45.3616 39.0276 45.3933 39.0276 45.3933 39.0592C45.5831 39.1857 45.7729 39.3439 45.8994 39.4704L45.931 39.5021C46.1525 39.6602 46.3739 39.8817 46.5953 40.0715C46.6902 40.1347 46.7535 40.2296 46.8484 40.3245C47.4494 40.8307 48.9361 43.2664 49.8219 44.7215C50.4545 45.7654 50.6127 46.0185 50.7392 46.1134C50.8341 46.1766 51.0239 46.2399 51.3086 46.145C51.8147 45.9236 52.7321 44.9746 52.7954 44.5001V44.4684V44.1205L52.7637 44.0572C52.7005 43.9623 52.6688 43.8358 52.6056 43.7093C52.5107 43.4562 52.3841 43.2031 52.226 42.9501C52.1311 42.7919 52.0362 42.6654 51.9413 42.5072C51.6566 42.096 51.4035 41.7164 51.2453 41.2735C51.1821 41.1154 51.1188 40.9572 51.0872 40.799C50.9607 40.4511 50.8341 40.0715 50.6443 39.6919C50.4862 39.4704 50.3596 39.2174 50.2015 38.9643C49.8851 38.3949 49.5688 37.8255 49.031 37.351C48.9994 37.3194 48.9361 37.1929 48.9045 37.098C48.6831 36.6551 48.43 36.2122 47.9872 35.8327C47.9239 35.7694 47.829 35.7061 47.7657 35.6112C47.9239 35.4847 48.0821 35.3265 48.2086 35.2C48.4933 34.9469 48.7463 34.6939 49.031 34.4724L49.2841 34.251C49.8535 33.7765 50.4229 33.2704 50.8341 32.5745C50.929 32.4163 51.0556 32.2265 51.1505 32.0683C51.6249 31.3408 52.0994 30.5816 52.2892 29.6642C52.3525 29.3795 52.4158 29.1265 52.479 28.8734C52.5423 28.6836 52.6056 28.4622 52.6372 28.2724C52.8586 27.355 52.9535 26.5326 52.8903 25.6785C52.8586 24.9193 52.4474 24.4132 51.7198 24.1601C51.1188 23.907 50.4862 23.8438 49.98 23.8438C48.9361 23.8121 47.9239 23.9387 47.0382 24.255H47.0065C46.88 24.1285 46.7535 24.0336 46.5637 23.9387L46.4688 23.8754L46.3422 23.907C46.1524 23.9703 45.9627 24.0019 45.7729 24.0652C45.5831 24.1285 45.4249 24.1917 45.2667 24.2234C44.6341 24.3183 44.381 24.7611 44.2228 25.1724C44.1912 25.204 44.1596 25.2356 44.0963 25.2673C44.0014 25.3305 43.9065 25.3622 43.78 25.3938C43.6534 25.4571 43.5269 25.4887 43.4004 25.552C43.0524 25.7734 42.6728 25.9632 42.3249 26.153C41.9453 26.3428 41.5973 26.5642 41.2493 26.754C40.8697 26.9754 40.4585 27.2285 40.1106 27.5132C39.8891 27.6397 39.731 27.7979 39.5412 27.9561C39.4463 28.051 39.3197 28.1459 39.2248 28.2091C39.1616 28.2408 39.0983 28.2724 39.0667 28.3357C38.9085 28.4306 38.7503 28.5571 38.6238 28.7152C38.2126 29.1897 38.3391 29.5377 38.4656 29.6959C38.7503 30.1387 39.1616 29.9806 39.3514 29.9173L39.4463 29.8857C39.6677 29.7908 39.8891 29.6642 40.1106 29.6326C41.3126 29.3795 42.2932 29.1581 43.179 28.7152C43.3371 28.652 43.5269 28.5887 43.7167 28.5571C43.5585 29.5377 43.3687 30.4234 43.2106 31.2775C43.1473 31.5622 43.0524 31.8469 42.9575 32.1316C42.8943 32.353 42.7994 32.6061 42.7361 32.8592C42.6412 33.2704 42.5779 33.7133 42.5147 34.1245C42.4514 34.4408 42.4198 34.7571 42.3565 35.0735C42.23 35.8327 42.23 36.6551 42.3565 37.6357C42.483 38.4898 42.3249 39.3123 42.1983 40.2296C42.1667 40.4827 42.1351 40.7358 42.0718 40.9888C41.9769 41.6531 41.8187 42.3174 41.6606 42.9501C41.534 43.4562 41.4075 43.9939 41.3126 44.5317C41.0912 45.8603 40.9014 47.1572 40.7432 48.4542V48.5175C40.6483 49.593 40.5851 50.6685 40.5218 51.744C40.2371 51.143 39.9208 50.542 39.6361 49.9726L38.6238 48.0113C38.5605 47.8848 38.4656 47.6634 38.4024 47.5052L37.5167 44.2154C37.4534 43.9623 37.3585 43.7409 37.2636 43.4878C37.1054 43.0133 36.9156 42.5705 36.8207 42.096C36.6626 41.3368 36.536 40.5776 36.4411 39.8184C36.3779 39.4704 36.3462 39.1541 36.283 38.8378C36.283 38.648 36.2513 38.4898 36.283 38.3317C36.4095 37.7623 36.2513 37.2561 36.1248 36.75C35.935 36.0857 35.7768 35.3582 35.6503 34.6306C35.6187 34.4092 35.5554 34.1877 35.5238 33.9347C35.3656 33.049 35.1758 32.1 34.7962 31.1826C34.733 31.0561 34.733 30.8663 34.7013 30.6765C34.7013 30.55 34.6697 30.4234 34.6697 30.2969C34.5748 29.854 34.4799 29.4112 34.3534 28.9683L34.2585 28.7152C34.1952 28.5254 34.0054 28.2091 33.3095 28.2408C32.835 28.2408 31.7595 28.4622 31.6646 29.0632C31.6646 29.1897 31.6013 29.3163 31.538 29.4428C31.4748 29.5693 31.4431 29.7275 31.3799 29.9173L31.3166 30.1387C31.1901 30.55 31.0635 30.9928 30.9686 31.4357C30.8421 32.3847 30.7472 33.3969 30.6207 34.3459C30.5574 35.0418 30.4625 35.7378 30.3992 36.4337C30.3043 36.9082 30.2094 37.4143 29.9248 37.8888C29.735 38.2368 29.6401 38.5215 29.6084 38.7429C29.5135 39.6286 29.4186 40.5143 29.3554 41.3684C29.3237 41.7796 29.1972 42.1592 29.0707 42.4756C28.8176 42.9184 28.7543 43.3929 28.8492 43.8358C28.8809 44.0572 28.8492 44.2786 28.8492 44.4684C28.8176 44.7531 28.7543 45.0378 28.7227 45.2909C28.6594 45.7654 28.5645 46.2399 28.5329 46.7144V46.746C28.5329 46.9358 28.4064 48.0113 28.3115 48.9287C28.1849 50.0042 28.1217 50.7001 28.1217 50.795C28.0268 51.9655 27.9951 52.9777 28.0584 54.0216C28.0584 54.1165 28.0584 54.243 28.0268 54.3696C28.0268 54.4328 27.9951 54.4961 27.9951 54.5593C27.837 54.1798 27.7104 53.8318 27.5523 53.4522C27.3309 52.9461 27.1094 52.345 27.0145 51.8073C26.6982 50.4471 26.4451 49.0869 26.1604 47.8215C25.7808 46.145 25.3696 44.4684 24.99 42.7603C24.4523 40.4827 24.2625 38.1735 24.0727 35.8643V34.9469C24.2308 33.9979 24.0727 33.1122 23.9145 32.1316C23.5349 30.4551 23.3451 28.7152 23.0288 27.0071C22.8073 25.552 22.5543 24.1285 22.2696 22.6417L21.8584 20.3958C21.7635 19.6366 18.0308 18.5927 17.8726 19.3203C17.6195 20.2376 17.3348 21.155 17.2083 22.0407C16.8287 25.0458 16.5757 28.0193 16.2277 31.0877C16.1012 32.0367 15.8797 33.0173 15.4685 33.8081C15.2471 34.2194 15.0573 34.6939 15.0256 35.2C14.8358 36.6551 14.7093 38.1735 14.6144 39.7868C14.5195 40.5776 14.3297 41.3368 14.0767 42.1276C13.8869 42.6654 13.6654 43.298 13.7603 43.8358C14.0134 45.544 13.3175 47.0623 13.444 48.7389L13.2858 48.7705C13.2542 48.644 13.1909 48.5807 13.1593 48.4542C12.9379 47.5685 12.7164 46.7144 12.5583 45.8287C12.0521 43.7409 11.894 41.5898 11.7042 39.4072C11.6409 39.0592 11.6093 38.648 11.6726 38.2684C11.894 37.2878 11.6093 36.3704 11.4195 35.4214C11.1032 33.7132 10.9134 32.0683 10.597 30.3602C10.3756 28.905 10.1225 27.4183 9.83784 25.9315C9.71131 25.1724 9.55314 24.4448 9.48988 23.6856C9.36335 23.0846 5.63067 22.0091 5.44087 22.7683C5.21944 23.6856 4.96637 24.5713 4.87147 25.6152C4.49188 28.1775 4.20718 30.803 3.95412 33.4286C3.82758 34.9469 3.57452 36.3704 2.8786 37.5725C2.75207 37.8888 2.65717 38.2051 2.65717 38.4898C2.499 40.1031 2.30921 41.6215 2.18268 43.1399C2.15104 43.9307 1.99288 44.6582 1.67655 45.3858C1.39185 46.0185 1.26532 46.6828 1.36022 47.4419C1.45512 47.9164 1.42348 48.4858 1.36022 48.9287C1.36022 49.4981 1.20205 50.0358 1.13879 50.542C1.01226 51.7124 0.917356 52.8512 0.569394 54.0216C0.379596 54.6226 0.347962 55.3502 0.316329 56.0777C0.253063 56.4573 0.284697 56.8686 0.253064 57.3114C0.253064 57.8808 0.126535 58.4818 0.126535 59.0512C0.126535 59.9053 0.158168 60.7594 0.126535 61.5502C0.126535 62.1196 0.0316329 62.6257 0 63.1319L0.0316349 66.1686C1.93025e-06 66.9595 1.93025e-06 67.8135 0.0316349 68.5727L0.158165 70.1227C0.221431 70.4707 0.284696 70.8819 0.474494 71.1983C0.854089 72.0207 3.22656 71.4197 3.41636 71.0085C3.47962 70.787 3.51126 70.5656 3.51126 70.3442C3.57452 69.1105 3.57452 67.9084 3.66942 66.7697C3.70105 65.7574 3.82759 64.8084 3.89085 63.8911C3.92248 62.8155 3.76432 61.6451 4.20718 60.538C4.23881 60.3798 4.20718 60.2533 4.23882 60.0951L4.33372 57.4379C4.36535 56.9951 4.30208 56.5839 4.46025 56.2675C4.83984 55.2553 4.87147 54.1165 5.0929 53.0726C5.1878 52.345 5.1878 51.7124 4.998 51.0481C4.90311 50.795 4.96637 50.5736 4.998 50.3522C5.12454 49.1185 5.2827 47.7899 5.44087 46.5562C5.4725 46.1134 5.63066 45.7338 5.78883 45.3225C5.88373 44.9429 6.07353 44.6899 6.13679 44.3103C6.54802 42.7286 6.92761 41.147 7.14904 39.4704L7.33884 38.5847C7.37048 38.4266 7.40211 38.3633 7.43374 38.2051C7.62354 38.5847 7.6868 38.9327 7.6868 39.2806C7.7817 40.4511 8.00313 41.6215 8.41436 42.8235C8.50926 43.0766 8.63579 43.4246 8.69906 43.7409C8.92049 45.3225 9.17355 46.9042 9.48988 48.5175C9.71131 49.6879 9.99601 50.8899 10.2807 52.092C10.4389 52.693 10.8185 53.1675 11.0083 53.7685C11.5144 55.2869 12.6215 62.1829 12.9379 65.789C13.2542 69.3952 16.544 65.6309 16.4175 64.3023C16.291 62.9737 16.7022 56.3624 16.7655 55.4451C16.8287 54.7808 16.8287 54.1481 16.9236 53.5471C17.1134 52.6614 17.3032 51.8389 17.3665 50.8899C17.3665 50.0358 17.4298 49.0869 17.493 48.1695C17.5246 48.0113 17.493 47.8848 17.5246 47.7266C17.3981 46.6828 17.5563 45.6705 17.7144 44.6266L17.9042 43.7409C18.0308 43.1399 18.1573 42.5388 18.2838 42.0327C18.3471 41.748 18.5053 41.4001 18.6318 41.0205C19.043 39.4388 19.4226 37.8572 19.6441 36.1806L19.8339 35.2949C19.8655 35.1367 19.9604 35.0418 19.992 34.9153L20.2767 36.4653C20.4665 37.4776 20.7196 38.4898 20.9094 39.5021C21.1941 40.7674 21.6369 42.096 21.7635 43.4246C21.89 44.6899 22.1114 45.8919 22.3329 47.1256C22.4277 47.6634 22.5859 48.2011 22.8073 48.7073C23.0604 49.4348 23.3451 50.0675 23.5982 50.795C24.1359 52.5032 24.6104 54.3379 25.3063 55.9512C25.9074 57.3747 26.3186 58.9247 26.9196 60.3165C27.236 61.1074 27.4574 61.8982 27.7104 62.689C28.1849 64.0809 28.8176 65.2829 29.8299 66.2319C30.3044 66.6115 32.234 64.7452 32.1074 64.4288L30.1146 59.2727C29.9564 58.8614 29.7982 58.4502 29.6401 58.039C29.6717 58.039 29.6717 58.039 29.7033 58.039C29.7982 58.0706 29.9247 58.0706 30.0196 58.0706C30.6207 58.0706 31.0635 57.7226 31.2217 57.09C31.3166 56.6471 31.3482 56.1726 31.3482 55.7298L31.5064 53.1359C31.538 52.6614 31.538 52.1869 31.5064 51.744C31.5064 51.6808 31.5064 51.6175 31.5064 51.5542C31.5064 51.491 31.5064 51.4593 31.5064 51.4593C31.7911 50.8267 31.7911 50.1624 31.7911 49.5297V49.245C31.7911 48.8971 31.9176 48.6756 32.234 48.4858L32.8982 47.9481C33.2462 47.695 33.5942 47.4419 33.9105 47.1572C34.2268 46.9042 34.5748 46.6195 34.9228 46.3981C34.986 46.3348 35.0809 46.3032 35.1758 46.2715C35.2391 46.4297 35.334 46.5879 35.3972 46.746C35.4921 46.9358 35.5871 47.1572 35.6819 47.3154L35.8085 47.6634C36.1881 48.644 36.5677 49.6562 37.1687 50.542C37.2003 50.6052 37.2003 50.6685 37.2636 50.7318C37.3901 51.0481 37.5167 51.3644 37.6748 51.6808C37.9595 52.345 38.2442 53.041 38.5605 53.7053C38.6554 53.8951 38.782 54.1165 38.9401 54.3379C38.9085 54.4328 38.8452 54.4961 38.6554 54.5593C38.4973 54.591 38.4024 54.6859 38.2758 54.7808C38.2126 54.844 38.1493 54.8757 38.086 54.9073L38.0544 54.9389C37.7065 55.2236 37.3269 55.4767 36.9789 55.7614C36.5993 56.0461 36.2513 56.2992 35.8717 56.6155C35.8085 56.6471 35.7452 56.6788 35.6819 56.742C35.5554 56.8053 35.3972 56.9002 35.2707 57.0583L35.0493 57.2798L35.2707 57.5012C35.4605 57.691 37.0422 59.2094 38.2126 58.4818C38.3708 58.3553 38.5922 58.2604 38.8136 58.1655C38.782 58.988 38.782 59.842 38.6871 60.6645C38.6554 61.2655 38.5922 61.8349 38.4973 62.4359L38.3708 64.1125C38.3391 64.239 38.3391 64.3656 38.3391 64.4605C38.3391 64.4921 38.3391 64.5237 38.3391 64.5554C38.3391 64.7768 38.3075 64.9982 38.3075 65.2196C38.2758 65.7574 38.2442 66.3584 38.3391 66.9278C38.434 67.6237 38.4024 67.9717 37.9595 68.3829C37.5483 68.7625 37.232 69.2054 36.9156 69.6166C36.7575 69.8381 36.5677 70.0911 36.3779 70.3125L36.0932 70.787C35.9034 71.1666 35.9983 71.9575 36.3146 72.2105C36.6309 72.4952 37.2952 72.4003 37.6432 72.1156L37.7697 71.9575C37.9911 71.736 38.2126 71.5146 38.434 71.2932C38.5605 71.135 38.7187 71.0085 38.8452 70.8503C38.8769 71.4513 38.8769 72.0207 38.8452 72.5901C38.8136 73.286 38.7503 74.0136 38.6871 74.7095C38.5922 75.9432 38.4656 77.2085 38.5289 78.4738C38.5289 79.0749 38.5605 79.8973 38.5922 80.7514C38.6238 81.6055 38.6238 82.428 38.6554 83.029C38.6871 83.4718 38.7187 83.9147 38.782 84.3892C38.8136 84.8321 38.8769 85.2749 38.9085 85.7178L38.9718 86.2872V86.3188C39.035 86.6668 39.1932 86.9198 39.4463 87.0464C39.5728 87.1096 39.731 87.1729 39.8891 87.1729C39.984 87.1729 40.1106 87.1413 40.2371 87.1096C40.8698 86.9515 41.3126 86.5086 41.5024 85.8127C41.6289 85.2433 41.6922 84.6739 41.7555 84.1994C41.882 82.9341 42.0402 81.479 42.1351 80.0871C42.1667 79.3279 42.1667 78.1891 42.1667 77.1769C42.1667 76.5442 42.1667 75.9432 42.1667 75.4687C42.1667 74.9626 42.1351 74.4565 42.1034 73.9503C42.0402 72.7483 41.9769 71.6095 42.23 70.4391C42.2616 70.2809 42.23 70.1227 42.23 69.9962C42.23 69.9646 42.23 69.9013 42.23 69.8697C42.23 69.7748 42.23 69.6483 42.23 69.5534C42.23 69.2687 42.23 69.0156 42.2932 68.8258C42.4198 68.4146 42.6412 68.0033 42.831 67.6237C42.9259 67.4656 42.9892 67.2758 43.0841 67.1493C43.4953 66.3901 44.1279 65.8523 44.7922 65.2513L45.0453 65.0298C45.8045 64.3023 46.4371 63.5115 46.9433 62.6257C47.2912 61.9931 47.5443 61.2972 47.829 60.6645L47.9872 60.2216C48.2086 59.6839 48.3984 59.0829 48.5249 58.3553C48.6198 57.8175 48.7463 57.1532 48.778 56.4573C48.778 55.6032 48.778 54.7491 48.7147 53.8951C48.2086 52.9461 47.7341 52.345 46.88 52.092ZM41.7871 58.8614C41.8187 58.5767 41.8187 58.292 41.8187 58.039C41.8187 57.9124 41.8187 57.7859 41.8187 57.6594L41.882 56.5522V56.5206C41.882 56.4573 41.8504 56.3308 42.0718 56.2043L42.3249 56.0777C43.0841 55.6665 43.8432 55.2236 44.6973 55.0022C44.7922 54.9706 44.8871 54.9706 44.982 54.9706C45.1402 54.9706 45.2667 55.0022 45.3616 55.0655C45.5198 55.1604 45.5831 55.3185 45.6147 55.54C45.6463 55.8563 45.6779 56.1726 45.6779 56.5206C45.6779 56.6788 45.678 56.8686 45.7096 57.0267C45.7096 57.1849 45.7096 57.3114 45.7096 57.4696C45.7096 57.7543 45.7412 58.0073 45.7096 58.292C45.678 59.2094 45.1718 59.9053 44.6973 60.5063C44.1596 61.1706 43.5902 61.8033 42.9892 62.4043C42.7045 62.7206 42.3881 63.037 42.1034 63.3533C41.9453 63.5115 41.7871 63.7013 41.5973 63.8911C41.5024 62.0564 41.534 60.4114 41.7871 58.8614ZM49.8219 26.4693C49.9168 26.4693 50.0117 26.5009 50.0749 26.5642C50.2015 26.6591 50.2647 26.8173 50.2647 26.9754C50.2647 27.2285 50.2331 27.5132 50.2015 27.7979C50.1698 27.9877 50.1698 28.1775 50.1382 28.3673L49.98 29.5061C49.8851 30.1071 49.5372 30.6449 48.9678 31.2142C48.177 31.9102 47.3545 32.5745 46.5004 33.2704C46.2473 33.4602 45.9943 33.6816 45.7412 33.8714C45.8994 32.5112 46.1208 30.9928 46.5637 29.5061C46.6269 29.2846 46.6586 29.0632 46.6586 28.8734C46.6902 28.6836 46.6902 28.5254 46.7535 28.3357V28.2724C46.7851 27.9877 46.8167 27.703 46.88 27.3867C46.88 27.355 46.9433 27.3234 46.9749 27.2918C47.9872 26.7856 48.8729 26.5326 49.727 26.4377C49.7902 26.4693 49.8219 26.4693 49.8219 26.4693ZM34.0054 42.9501C34.0054 42.9817 33.9738 43.045 33.9105 43.1082L31.886 44.5633C31.9176 44.4368 31.9176 44.2786 31.9493 44.1521C31.9809 44.0256 31.9809 43.8991 32.0125 43.7725C32.0442 43.646 32.0442 43.4878 32.0758 43.3929V43.3613C32.1074 43.298 32.1074 43.2348 32.1391 43.1399C32.2023 42.9184 32.234 42.697 32.3289 42.4756L32.5819 41.7164C32.7717 41.0837 32.9615 40.4511 33.088 39.8184C33.2146 40.2929 33.3411 40.7674 33.5625 41.2103C33.7207 41.5898 33.8156 41.9694 33.9105 42.3807C33.9105 42.5388 33.9421 42.7286 34.0054 42.9501Z" fill="#FFAB17"/>
<path d="M61.1469 70.1554C60.9255 70.0288 60.7357 70.0921 60.6408 70.1237C60.1979 70.3768 59.755 70.5982 59.3438 70.8829L59.1856 70.9778C58.2683 71.5472 57.4142 72.0533 56.4019 71.9584H56.2121L56.1805 71.9901C55.8958 72.0217 55.5795 72.0533 55.2948 72.085C54.7887 72.1482 54.3142 72.1799 53.8397 72.2431C53.808 72.2431 53.7448 72.2431 53.6815 72.2431C53.1754 72.2431 52.7641 72.2431 52.4795 72.3064C52.4478 72.085 52.4162 71.8952 52.4162 71.6737C52.3529 71.136 52.2897 70.5982 52.1948 70.0605C51.9101 68.7003 51.9417 67.2135 52.258 65.5686C52.4162 64.8094 52.4795 64.0502 52.4795 63.4492C52.4795 62.5951 52.5111 61.8675 52.606 61.2032C52.6693 60.7604 52.6693 60.3175 52.6693 59.8747C52.6693 59.6532 52.6693 59.4634 52.6693 59.242C52.6693 58.9889 52.6693 58.7675 52.6693 58.5461C52.6693 58.3247 52.6693 58.1032 52.6693 57.8818C52.6693 57.4706 52.7009 57.0277 52.7325 56.5848C52.7642 56.142 52.7958 55.6991 52.7958 55.2563C52.7958 53.9909 52.9223 52.7573 53.1754 51.5236C53.2703 51.0807 53.3652 50.6379 53.3968 50.1317C53.3968 49.9736 53.3335 49.8154 53.207 49.7521C52.9856 49.6256 52.6692 49.6572 52.1631 49.9419C51.4039 50.3215 50.0121 51.3654 49.9805 52.0613C49.9172 53.1369 49.8856 53.9593 49.8856 54.7185C49.8856 55.0981 49.8856 55.4461 49.8856 55.794C49.8856 56.2369 49.9172 56.7114 49.8856 57.1859C49.7907 58.4828 49.6325 59.8114 49.506 61.1084L49.4427 61.6145C49.2845 63.0696 49.0947 64.5563 49.158 66.0115C49.158 66.8972 49.158 67.8145 49.3794 68.7952L49.4427 69.0166C49.5376 69.3962 49.6641 69.8074 49.6325 70.2186C49.6009 71.4523 49.7274 72.5911 49.8539 73.6983C49.8223 73.7932 49.8223 73.9513 49.8223 74.0779C49.7907 74.5523 49.8223 74.9952 49.8856 75.4697L49.9172 75.8177C49.9488 76.0707 50.1386 76.2922 50.2968 76.3871C50.5182 76.5136 50.7396 76.6401 51.0243 76.7034C51.0876 76.7034 51.1509 76.735 51.2458 76.735C51.5305 76.7983 51.7835 76.8615 52.0682 76.8615C52.1315 76.8615 52.2264 76.8615 52.2897 76.8615C53.7764 76.735 55.1999 76.134 56.3703 75.5646L56.6866 75.4064C57.3509 75.0901 57.9836 74.7738 58.6795 74.584C59.3122 74.3942 59.9765 74.1728 60.6408 73.9513C61.1152 73.7615 61.5581 73.5717 62.0642 73.3503C62.1908 73.287 62.3489 73.1289 62.3806 72.7493C62.3489 72.085 61.7163 70.5033 61.1469 70.1554Z" fill="#FFAB17"/>
<path d="M75.6972 68.9845C75.1911 67.909 74.6849 66.8334 74.1472 65.8528L73.1349 63.8916C73.0716 63.765 72.9767 63.5436 72.9135 63.3854L72.0278 60.0956C71.9645 59.8426 71.8696 59.6211 71.7747 59.3681C71.6165 58.8936 71.4267 58.4507 71.3318 57.9762C71.1737 57.217 71.0471 56.4578 70.9522 55.6986C70.889 55.3507 70.8573 55.0344 70.7941 54.718C70.7941 54.5282 70.7624 54.3701 70.7941 54.2119C70.9206 53.6425 70.7624 53.1364 70.6359 52.6303C70.4461 51.966 70.288 51.2384 70.1614 50.5108C70.1298 50.2894 70.0665 50.068 70.0349 49.8149C69.8767 48.9292 69.6869 47.9802 69.3073 47.0629C69.2441 46.9363 69.2441 46.7465 69.2124 46.5251C69.2124 46.3986 69.1808 46.272 69.1808 46.1455C69.0859 45.7026 68.9594 45.2598 68.8645 44.8169L68.7696 44.5639C68.7063 44.3741 68.5481 44.0577 67.8206 44.0894C67.3461 44.0894 66.2706 44.3108 66.1757 44.9118C66.1757 45.0383 66.1124 45.1649 66.0491 45.2914C65.9859 45.4179 65.9542 45.5761 65.891 45.7659L65.8277 45.9873C65.7012 46.3986 65.5746 46.8414 65.4797 47.2843C65.3532 48.2333 65.2583 49.2139 65.1318 50.1945C65.0685 50.8904 64.9736 51.5864 64.9103 52.2823C64.8155 52.7568 64.7206 53.2629 64.4359 53.7374C64.2461 54.0854 64.1512 54.3701 64.1195 54.5915C64.0246 55.4772 63.9297 56.3629 63.8665 57.217C63.8348 57.6283 63.7083 58.0079 63.5818 58.3242C63.3287 58.767 63.2654 59.2415 63.3603 59.6844C63.392 59.9058 63.3603 60.1273 63.3603 60.3171C63.3287 60.6018 63.2654 60.8864 63.2338 61.1395C63.1705 61.614 63.0756 62.0885 63.044 62.563V62.5946C63.044 62.7844 62.9175 63.8599 62.8226 64.7773C62.696 65.8528 62.6328 66.5487 62.6328 66.6436C62.5379 67.8141 62.5062 68.8263 62.5695 69.8702C62.5695 69.9651 62.5695 70.0916 62.5379 70.2182C62.5062 70.3447 62.4746 70.4712 62.4746 70.5978C62.4113 71.0406 62.3164 71.4835 62.3481 71.9896C62.3481 72.8121 63.1389 73.761 63.9297 73.8876C64.0246 73.9192 64.1512 73.9192 64.2461 73.9192C64.8471 73.9192 65.2899 73.5713 65.4481 72.9386C65.543 72.4957 65.5746 72.0212 65.5746 71.5784L65.7328 68.9845C65.7644 68.51 65.7644 68.0355 65.7328 67.5926C65.7328 67.5294 65.7328 67.4661 65.7328 67.4028C65.7328 67.3396 65.7328 67.3079 65.7328 67.3079C66.0175 66.6753 66.0175 66.011 66.0175 65.3467V65.062C66.0175 64.714 66.144 64.4926 66.4604 64.3028L67.1247 63.765C67.4726 63.512 67.8206 63.2589 68.1369 62.9742C68.4532 62.7212 68.8012 62.4365 69.1492 62.215C69.2124 62.1518 69.3073 62.1201 69.4022 62.0885C69.4655 62.2467 69.5604 62.4048 69.6237 62.563C69.7186 62.7528 69.8135 62.9742 69.9083 63.1324L70.0349 63.4803C70.4145 64.461 70.7941 65.4732 71.3951 66.3589C71.4267 66.4222 71.4267 66.4855 71.49 66.5487C71.6165 66.8651 71.7431 67.1814 71.9012 67.4977C72.1859 68.162 72.4706 68.8579 72.7869 69.5222C73.0716 70.0916 73.4829 70.7876 74.2104 71.262C74.6217 71.61 75.0645 71.7049 75.539 71.5151C75.6339 71.4835 75.7288 71.4835 75.8237 71.4518C75.9502 71.4202 76.0768 71.4202 76.2033 71.3569C76.488 71.2937 76.6778 71.1355 76.7411 70.9141C76.8043 70.6927 76.7411 70.408 76.5196 70.2182C76.1717 69.9335 75.9186 69.459 75.6972 68.9845ZM68.5165 58.8936C68.5165 58.9252 68.4849 58.9885 68.4216 59.0517L66.3971 60.5069C66.4287 60.3803 66.4287 60.2222 66.4604 60.0956C66.492 59.9691 66.492 59.8426 66.5236 59.716C66.5553 59.5895 66.5553 59.4313 66.5869 59.3364V59.3048C66.6185 59.2415 66.6185 59.1783 66.6502 59.0834C66.7134 58.8619 66.7451 58.6405 66.84 58.4191L67.093 57.6599C67.2828 57.0272 67.4726 56.3946 67.5991 55.7619C67.7257 56.2364 67.8522 56.7109 68.0736 57.1538C68.2318 57.5334 68.3267 57.913 68.4216 58.3242C68.4216 58.4823 68.4849 58.6721 68.5165 58.8936Z" fill="#FFAB17"/>
<path d="M86.1995 55.1292C85.6618 54.8445 85.2189 54.8129 84.776 55.0343C84.6495 55.0975 84.5546 55.1608 84.4914 55.2241C84.4281 55.2557 84.3965 55.2874 84.3648 55.319L84.3332 55.3506C84.2699 55.4139 84.175 55.4771 84.0801 55.5404C83.8587 55.6986 83.6373 55.8884 83.5107 56.1098C83.226 56.521 83.0046 57.0272 82.8781 57.47C82.5934 58.2608 82.2138 58.8935 81.7709 59.3996C81.3281 59.9058 81.0434 60.3803 80.8852 60.918C80.7903 61.266 80.6321 61.5507 80.474 61.867C80.4107 61.9935 80.3474 62.1201 80.2842 62.2782L80.2209 62.3415C80.2209 62.3731 80.1893 62.4048 80.1576 62.4364C80.126 62.4997 80.0627 62.5946 80.0311 62.6895C79.7464 63.2589 79.3036 63.7333 78.6393 64.1762C78.5444 64.2395 78.5127 64.2395 78.4811 64.2395C78.4811 64.2395 78.4178 64.2078 78.3862 64.1446C78.3229 64.018 78.2597 63.8282 78.228 63.6384V63.5435C78.1648 63.1323 78.1015 62.6895 78.1015 62.2466C78.1015 61.867 78.1648 61.4558 78.1964 61.0762C78.228 60.6649 78.2597 60.2537 78.2913 59.8741C78.3546 59.02 78.3546 58.1659 78.3862 57.3435C78.3862 56.9323 78.4178 56.521 78.4178 56.0465C78.4178 55.9833 78.4178 55.92 78.4178 55.8567C78.4178 55.7935 78.4178 55.6986 78.4178 55.6353C78.4495 55.4139 78.4811 55.1608 78.5444 54.9394C78.7658 53.7373 78.9872 52.472 79.0189 51.1751C79.0505 50.2577 79.177 49.3404 79.3036 48.423L79.3352 48.075C79.4617 47.1577 79.6199 46.2403 79.8413 45.1964C79.9046 44.8485 79.9678 44.5005 80.0311 44.1842C80.0944 43.8362 80.1576 43.4883 80.2209 43.1403C80.2525 43.0138 80.2525 42.8872 80.2842 42.7607C80.3791 41.9699 80.5056 41.2107 80.9801 40.578C81.2015 40.2933 81.3597 40.0403 81.4862 39.7872C81.6444 39.5341 81.8342 39.4392 82.2138 39.4392C82.4985 39.4392 82.6883 39.5342 82.7832 39.8188C82.8781 40.0719 83.0046 40.2933 83.1311 40.5148C83.2577 40.7362 83.3526 40.926 83.4475 41.1474C83.7005 41.7485 83.9852 42.3811 84.2067 42.9505C84.2383 43.0138 84.2699 43.077 84.3016 43.1087C84.523 43.4883 84.9026 43.6148 85.3138 43.425C85.6934 43.2985 85.9781 43.0138 86.1046 42.5709C86.2628 42.0648 86.421 41.4321 86.2944 40.7046C86.073 39.8821 85.8832 39.1229 85.6618 38.3637C85.6301 38.2372 85.5352 38.1107 85.472 37.9841C85.4403 37.9209 85.4087 37.8892 85.3771 37.826L85.3454 37.7943C85.2505 37.6678 85.1556 37.5096 85.0607 37.3515C84.9658 37.1933 84.8709 37.0351 84.7444 36.877C84.5862 36.6556 84.3648 36.4341 84.1434 36.276C83.6373 35.928 83.0679 35.8964 82.4985 35.8964L82.024 35.928L81.1699 36.1811C81.0117 36.2443 80.8852 36.3076 80.7903 36.3709L80.7587 36.4025C80.6321 36.4658 80.474 36.529 80.3158 36.5923C80.0311 36.6872 79.7464 36.8137 79.4934 37.0035C78.576 37.7943 77.8484 38.9015 77.4372 40.1668C77.2791 40.578 77.1525 41.0209 77.026 41.4638C76.8678 42.0015 76.7097 42.5709 76.4882 43.1087C76.2352 43.773 76.0137 44.5638 76.0454 45.4179C76.0454 45.5444 76.0454 45.7026 76.0454 45.8291L75.6341 49.4669C75.5709 50.0679 75.476 50.6689 75.4127 51.2383C75.2862 52.0924 75.128 53.0098 75.128 53.9271C75.128 55.1292 75.0331 56.3629 74.9382 57.4384L74.6219 61.0129C74.6219 61.2027 74.5903 61.3609 74.5903 61.5507C74.5903 61.8986 74.5586 62.2466 74.4953 62.5629C74.3688 63.5752 74.2423 64.6191 74.3688 65.663C74.4637 66.3905 74.7484 66.9599 75.2862 67.3711C75.476 67.5293 75.6974 67.6875 75.9821 67.7191H76.0137H76.0454C76.1719 67.7191 76.2984 67.7507 76.425 67.7507C76.5515 67.7824 76.7097 67.814 76.8362 67.814C76.9311 67.814 77.0576 67.814 77.2158 67.814C77.3107 67.814 77.4056 67.814 77.5321 67.814L78.7974 67.4344C78.924 67.4028 79.0505 67.3711 79.2087 67.2446C79.4301 67.1181 79.6515 66.9599 79.8729 66.8334C80.4107 66.517 80.9485 66.1691 81.4546 65.8211C81.9924 65.4415 82.4668 64.967 82.9097 64.5242C83.0362 64.3976 83.1944 64.2711 83.3209 64.1129C83.5107 63.9231 83.6056 63.7017 83.7005 63.4803C83.7322 63.417 83.7638 63.3221 83.8271 63.2588C83.922 63.1007 83.9852 62.9425 84.0485 62.7527L84.0801 62.6262C84.2383 62.1833 84.4281 61.7405 84.5862 61.3609C84.6495 61.266 84.6811 61.1394 84.7444 61.0445C84.8077 60.918 84.8393 60.7915 84.9026 60.6966L84.9342 60.6649C84.9975 60.57 85.0607 60.4752 85.1556 60.3803C85.2822 60.2221 85.4087 60.0956 85.5036 59.9058C85.7567 59.2415 85.9781 58.5772 86.1679 57.9761L86.6108 56.5527C86.8638 56.0465 86.7373 55.4139 86.1995 55.1292Z" fill="#FFAB17"/>
<path d="M98.8843 55.6352C98.6945 54.9709 98.3149 54.9709 98.1568 55.0025C97.8404 55.0658 97.5241 55.129 97.271 55.129C96.7017 55.129 96.1955 55.224 95.7843 55.4137C95.721 55.4454 95.5945 55.477 95.468 55.5086C95.4047 55.5403 95.3414 55.5403 95.2782 55.5403L95.1833 55.5719C94.7404 55.6668 94.3292 55.7617 93.8863 55.8882L90.5016 56.9321C90.5016 56.4893 90.5332 56.0148 90.5332 55.5403C90.5332 55.1291 90.5332 54.7495 90.5332 54.3382C90.5649 53.8954 90.5649 53.4841 90.5965 53.0729C90.6281 52.0923 90.6914 51.1117 90.7547 50.0994C90.7547 49.53 90.8496 48.929 90.9128 48.328L90.9445 48.0116L90.9761 47.98H91.0077C91.3873 47.7586 91.7353 47.5688 92.1465 47.3473L92.1781 47.3157C92.3679 47.1892 93.7281 46.8729 94.7404 46.6514C96.1006 46.3351 96.9231 46.1453 97.1761 46.0188C97.8404 45.6708 97.8404 44.1208 97.6506 43.6147C97.5241 43.33 97.3027 43.2667 97.1445 43.33C97.018 43.3616 96.9231 43.4249 96.7966 43.4565C96.7017 43.4881 96.6067 43.5198 96.5118 43.5514L91.0394 44.5953C91.0394 43.8994 91.071 43.1718 91.1026 42.4442C91.1342 41.7167 91.1343 40.9891 91.1659 40.2616C91.2292 38.8697 91.2924 37.4462 91.4189 35.9911C91.4189 35.9595 91.4506 35.8962 91.4822 35.8962C91.672 35.7697 91.8934 35.7064 92.1465 35.6115C92.4945 35.485 93.2853 35.2952 94.0445 35.1054C94.8669 34.9156 95.6261 34.7258 96.0057 34.5676C96.069 34.536 96.1323 34.536 96.1955 34.5044C96.4802 34.4411 96.7649 34.3462 97.018 34.1564C97.8088 33.5238 97.967 31.8472 97.6823 31.3095C97.5557 31.0564 97.3027 30.9931 97.1445 31.0564C96.7965 31.1513 95.8476 31.3411 94.772 31.5625C89.3312 32.6697 88.4454 33.0176 88.4138 33.5554C88.3822 33.9666 88.1608 37.4462 88.1608 37.7309C88.1608 37.8891 88.1608 38.0156 88.1924 38.1738C88.224 38.6167 88.2557 39.0595 88.1924 39.5024C88.0659 40.3881 88.0342 41.3055 88.0659 42.2228L88.0975 43.3932C88.0659 43.931 88.0342 44.4371 88.0026 44.9749C87.9077 46.2718 87.8128 47.632 87.7495 48.929C87.7179 49.3086 87.7179 49.6566 87.6863 50.0045C87.6863 50.3525 87.6546 50.7004 87.623 51.0484C87.623 51.3331 87.5914 51.5862 87.5597 51.8709C87.5281 52.1556 87.5281 52.4403 87.4965 52.6933C87.4648 53.2627 87.4332 53.8637 87.4332 54.4648V54.876C87.4016 55.5086 87.4016 56.1413 87.4016 56.7423V57.027C87.3699 61.3291 87.4648 61.6138 87.623 61.772C87.6546 61.8352 87.7179 61.8669 87.7812 61.8985C87.8444 61.9301 87.9077 61.9301 87.971 61.9301C88.4771 61.9301 89.4577 61.5189 91.6404 60.475C91.8302 60.3801 91.9567 60.3169 92.02 60.2852C92.2414 60.1903 92.4945 60.0638 92.7159 59.9373C93.1904 59.6842 93.6965 59.4628 94.171 59.273C94.5822 59.1148 95.0251 59.0199 95.4996 58.925C95.721 58.8617 95.9741 58.8301 96.2271 58.7668C96.2904 58.7352 96.3537 58.7036 96.417 58.6719C96.4486 58.6403 96.5119 58.6403 96.5751 58.6087L98.3782 57.8178C99.1058 57.7229 99.0741 56.3311 98.8843 55.6352Z" fill="#FFAB17"/>
</svg>
