<svg width="265" height="113" viewBox="0 0 265 113" fill="none" xmlns="http://www.w3.org/2000/svg">
<path d="M117.675 36.5134V19.7666H124.04C125.213 19.7666 126.218 19.9349 127.056 20.3557C127.893 20.7765 128.48 21.2814 128.815 21.8705C129.233 22.5437 129.401 23.3011 129.401 24.0585C129.401 24.7317 129.233 25.3208 128.982 25.8257C128.731 26.3307 128.396 26.6673 127.893 27.0039C127.391 27.3405 126.972 27.5088 126.386 27.6771V27.8454C126.972 27.8454 127.558 28.0979 128.061 28.3504C128.563 28.687 129.066 29.1078 129.401 29.781C129.736 30.3701 129.903 31.1275 129.903 31.969C129.903 32.8106 129.736 33.6521 129.317 34.3254C128.898 34.9986 128.312 35.5877 127.474 35.9243C126.637 36.3451 125.548 36.5134 124.292 36.5134H117.675ZM120.69 26.9197H123.705C124.208 26.9197 124.71 26.8356 125.129 26.6673C125.548 26.499 125.883 26.1624 126.134 25.8257C126.386 25.4891 126.469 25.0683 126.469 24.5634C126.469 23.8902 126.218 23.3853 125.799 22.9645C125.381 22.5437 124.71 22.3754 123.789 22.3754H120.774V26.9197H120.69ZM120.69 33.9887H123.957C125.046 33.9887 125.799 33.7363 126.302 33.3155C126.804 32.8947 127.056 32.3898 127.056 31.7166C127.056 31.2116 126.972 30.7909 126.721 30.3701C126.469 29.9493 126.134 29.6968 125.716 29.4444C125.297 29.1919 124.71 29.1078 124.124 29.1078H120.774V33.9887H120.69Z" fill="black"/>
<path d="M135.013 36.5132H131.83L137.693 19.8506H141.378L147.242 36.5132H144.059L139.62 23.2168H139.452L135.013 36.5132ZM135.097 29.9491H143.891V32.3896H135.097V29.9491Z" fill="black"/>
<path d="M162.988 25.4049H159.973C159.889 24.9 159.721 24.4792 159.47 24.0584C159.219 23.6376 158.968 23.301 158.633 23.0486C158.297 22.7961 157.879 22.5436 157.46 22.4595C157.041 22.2912 156.539 22.2912 156.036 22.2912C155.115 22.2912 154.361 22.5436 153.607 22.9644C152.937 23.3852 152.351 24.0584 151.932 24.9841C151.513 25.9098 151.346 26.9197 151.346 28.182C151.346 29.4443 151.513 30.5383 151.932 31.3799C152.351 32.2214 152.853 32.8947 153.607 33.3154C154.277 33.7362 155.115 33.9887 156.036 33.9887C156.539 33.9887 157.041 33.9045 157.46 33.8204C157.879 33.7362 158.297 33.4837 158.633 33.2313C158.968 32.9788 159.303 32.6422 159.554 32.3056C159.805 31.8848 159.973 31.464 160.056 31.0433H163.072C162.988 31.8006 162.737 32.558 162.318 33.3154C161.983 33.9887 161.48 34.6619 160.81 35.1668C160.224 35.6718 159.47 36.0925 158.716 36.4292C157.879 36.7658 157.041 36.8499 156.036 36.8499C154.612 36.8499 153.272 36.5133 152.099 35.8401C150.927 35.1668 150.089 34.157 149.419 32.8947C148.749 31.6323 148.414 30.0334 148.414 28.2662C148.414 26.4989 148.749 24.9 149.419 23.6376C150.089 22.3753 151.011 21.3655 152.099 20.6922C153.272 20.019 154.528 19.6824 156.036 19.6824C156.957 19.6824 157.795 19.8507 158.633 20.1031C159.47 20.3556 160.14 20.7764 160.726 21.2813C161.313 21.7862 161.899 22.3753 162.234 23.1327C162.569 23.8901 162.904 24.4792 162.988 25.4049Z" fill="black"/>
<path d="M165.92 36.5134V19.7666H168.935V27.4247H169.103L175.552 19.7666H179.237L172.788 27.2564L179.237 36.4292H175.636L170.694 29.2761L168.851 31.4641V36.4292H165.92V36.5134Z" fill="black"/>
<path d="M181.498 36.5134V19.7666H192.303V22.2912H184.513V26.8356H191.717V29.3602H184.513V33.9046H192.387V36.4292H181.498V36.5134Z" fill="black"/>
<path d="M201.181 36.5134H195.569V19.7666H201.349C203.024 19.7666 204.448 20.1032 205.62 20.7765C206.793 21.4497 207.714 22.3754 208.384 23.6377C209.054 24.9 209.306 26.3307 209.306 28.0979C209.306 29.8652 208.971 31.2958 208.384 32.5581C207.798 33.8204 206.793 34.7461 205.62 35.4194C204.28 36.1768 202.856 36.5134 201.181 36.5134ZM198.585 33.9046H201.097C202.27 33.9046 203.191 33.6521 204.029 33.2313C204.783 32.8106 205.369 32.1373 205.788 31.2958C206.207 30.4542 206.374 29.3602 206.374 28.0979C206.374 26.8356 206.207 25.7416 205.788 24.9C205.369 24.0585 204.783 23.3853 204.029 22.9645C203.275 22.5437 202.354 22.2912 201.181 22.2912H198.585V33.9046Z" fill="black"/>
<path d="M117.675 64.032V47.3694H124.04C125.213 47.3694 126.218 47.5377 127.056 47.9585C127.893 48.3792 128.48 48.8842 128.815 49.4733C129.233 50.1465 129.401 50.9039 129.401 51.6613C129.401 52.3345 129.233 52.9236 128.982 53.4285C128.731 53.9334 128.396 54.2701 127.893 54.6067C127.474 54.9433 126.972 55.1116 126.386 55.2799V55.4482C126.972 55.4482 127.558 55.7007 128.061 55.9532C128.563 56.2898 129.066 56.7106 129.401 57.3838C129.736 57.9729 129.903 58.7303 129.903 59.5718C129.903 60.4134 129.736 61.2549 129.317 61.9281C128.898 62.6014 128.312 63.1905 127.474 63.5271C126.637 63.9479 125.548 64.1162 124.292 64.1162H117.675V64.032ZM120.69 54.4384H123.705C124.208 54.4384 124.71 54.3542 125.129 54.1859C125.548 54.0176 125.883 53.681 126.134 53.3444C126.386 53.0077 126.469 52.587 126.469 52.082C126.469 51.4088 126.218 50.9039 125.799 50.4831C125.381 50.0623 124.71 49.894 123.789 49.894H120.774V54.4384H120.69ZM120.69 61.5074H123.957C125.046 61.5074 125.799 61.2549 126.302 60.8341C126.804 60.4134 127.056 59.9084 127.056 59.2352C127.056 58.7303 126.972 58.3095 126.721 57.8887C126.469 57.4679 126.134 57.2155 125.716 56.963C125.297 56.7106 124.71 56.6264 124.124 56.6264H120.774V61.5074H120.69Z" fill="black"/>
<path d="M131.746 47.3694H135.18L139.284 54.775H139.452L143.556 47.3694H146.99L140.959 57.8046V64.032H137.944V57.8046L131.746 47.3694Z" fill="black"/>
<path d="M158.381 64.032L153.69 47.3694H156.957L159.972 59.656H160.14L163.323 47.3694H166.254L169.437 59.656H169.604L172.62 47.3694H175.886L171.196 64.032H168.264L164.914 52.3345H164.746L161.396 64.032H158.381Z" fill="black"/>
<path d="M178.651 64.032H175.468L181.331 47.3694H185.016L190.879 64.032H187.696L183.257 50.7356H183.09L178.651 64.032ZM178.734 57.4679H187.529V59.9084H178.734V57.4679Z" fill="black"/>
<path d="M193.56 47.3694L197.915 60.4975H198.083L202.438 47.3694H205.788L199.925 64.032H196.24L190.377 47.3694H193.56Z" fill="black"/>
<path d="M207.966 64.032V47.3694H218.771V49.894H210.981V54.4384H218.184V56.963H210.981V61.5074H218.854V64.032H207.966Z" fill="black"/>
<path d="M231 51.9136C230.916 51.2403 230.581 50.6513 230.078 50.2305C229.576 49.8097 228.822 49.6414 227.901 49.6414C227.231 49.6414 226.728 49.7256 226.309 49.8939C225.891 50.0622 225.556 50.3146 225.304 50.6513C225.053 50.9879 224.969 51.3245 224.969 51.7453C224.969 52.0819 225.053 52.4185 225.221 52.671C225.388 52.9234 225.639 53.1759 225.891 53.3442C226.142 53.5125 226.477 53.6808 226.812 53.765C227.147 53.8491 227.482 54.0175 227.817 54.1016L229.408 54.5224C229.995 54.6907 230.665 54.859 231.251 55.1115C231.837 55.3639 232.34 55.7005 232.842 56.0372C233.345 56.3738 233.68 56.8787 233.931 57.3836C234.183 57.8886 234.35 58.5618 234.35 59.235C234.35 60.2449 234.099 61.0864 233.596 61.8438C233.094 62.6012 232.34 63.1903 231.419 63.6111C230.497 64.0319 229.325 64.2002 227.985 64.2002C226.728 64.2002 225.556 64.0319 224.634 63.6111C223.713 63.1903 222.959 62.6012 222.373 61.8438C221.87 61.0864 221.535 60.1607 221.535 58.9826H224.467C224.55 59.5717 224.718 60.0766 224.969 60.4132C225.304 60.834 225.723 61.0864 226.226 61.2547C226.728 61.4231 227.314 61.5072 227.901 61.5072C228.571 61.5072 229.157 61.4231 229.66 61.1706C230.162 61.0023 230.581 60.6657 230.832 60.3291C231.084 59.9924 231.251 59.5717 231.251 59.0667C231.251 58.646 231.084 58.3093 230.832 57.9727C230.581 57.7203 230.246 57.4678 229.827 57.2153C229.408 57.047 228.822 56.8787 228.236 56.7104L226.309 56.5421C224.969 56.2055 223.88 55.6164 223.043 54.9432C222.289 54.1858 221.87 53.2601 221.87 52.0819C221.87 51.072 222.121 50.2305 222.708 49.4731C223.21 48.7157 223.964 48.1266 224.885 47.79C225.807 47.3692 226.812 47.2009 227.985 47.2009C229.157 47.2009 230.162 47.3692 231.084 47.79C232.005 48.2108 232.675 48.7999 233.178 49.4731C233.68 50.2305 233.931 51.072 233.931 51.9977H231V51.9136Z" fill="black"/>
<path d="M131.914 80.5262H128.898C128.815 80.0213 128.647 79.6005 128.396 79.1798C128.145 78.759 127.893 78.4224 127.558 78.1699C127.223 77.9174 126.804 77.665 126.386 77.5808C125.967 77.4125 125.464 77.4125 124.962 77.4125C124.04 77.4125 123.287 77.665 122.533 78.0857C121.863 78.5065 121.276 79.1798 120.858 80.1055C120.439 81.0312 120.271 82.041 120.271 83.3033C120.271 84.5657 120.439 85.6597 120.858 86.5012C121.276 87.3428 121.779 88.016 122.533 88.4368C123.203 88.8575 124.04 89.11 124.962 89.11C125.464 89.11 125.967 89.0259 126.386 88.9417C126.804 88.8575 127.223 88.6051 127.558 88.3526C127.893 88.1002 128.228 87.7635 128.48 87.4269C128.731 87.0061 128.898 86.5854 128.982 86.1646H131.997C131.914 86.922 131.662 87.6794 131.244 88.4368C130.909 89.11 130.406 89.7832 129.736 90.2882C129.15 90.7931 128.396 91.2139 127.642 91.5505C126.804 91.8871 125.967 91.9713 124.962 91.9713C123.538 91.9713 122.198 91.6347 121.025 90.9614C119.853 90.2882 119.015 89.2783 118.345 88.016C117.675 86.7537 117.34 85.1547 117.34 83.3875C117.34 81.6202 117.675 80.0213 118.345 78.759C119.015 77.4967 119.936 76.4868 121.025 75.8136C122.198 75.1403 123.454 74.8037 124.962 74.8037C125.883 74.8037 126.721 74.972 127.558 75.2245C128.396 75.4769 129.066 75.8977 129.652 76.4027C130.239 76.9076 130.825 77.4967 131.16 78.2541C131.495 79.0115 131.83 79.6005 131.914 80.5262Z" fill="black"/>
<path d="M149.67 83.219C149.67 84.9863 149.335 86.5852 148.665 87.8475C147.995 89.1098 147.074 90.1197 145.901 90.7929C144.729 91.4662 143.472 91.8028 141.965 91.8028C140.457 91.8028 139.201 91.4662 138.028 90.7929C136.855 90.1197 135.934 89.1098 135.264 87.8475C134.594 86.5852 134.259 85.0704 134.259 83.219C134.259 81.4518 134.594 79.8528 135.264 78.5905C135.934 77.3282 136.855 76.3183 138.028 75.6451C139.201 74.9719 140.457 74.6353 141.965 74.6353C143.472 74.6353 144.729 74.9719 145.901 75.6451C147.074 76.3183 147.995 77.3282 148.665 78.5905C149.335 79.8528 149.67 81.4518 149.67 83.219ZM146.655 83.219C146.655 81.9567 146.487 80.8627 146.069 80.0212C145.65 79.1796 145.147 78.5064 144.477 78.0014C143.807 77.4965 142.97 77.3282 142.048 77.3282C141.127 77.3282 140.373 77.5807 139.619 78.0014C138.949 78.4222 138.363 79.0954 138.028 80.0212C137.609 80.8627 137.442 81.9567 137.442 83.219C137.442 84.4813 137.609 85.5754 138.028 86.4169C138.447 87.2584 138.949 87.9317 139.619 88.4366C140.289 88.8574 141.127 89.1098 142.048 89.1098C142.97 89.1098 143.723 88.8574 144.477 88.4366C145.147 88.0158 145.734 87.3426 146.069 86.4169C146.487 85.5754 146.655 84.4813 146.655 83.219Z" fill="black"/>
<path d="M152.685 74.8879H156.371L161.312 87.0062H161.48L166.422 74.8879H170.107V91.5506H167.175V80.1055H167.008L162.401 91.5506H160.224L155.701 80.1055H155.533V91.6347H152.602V74.8879H152.685Z" fill="black"/>
<path d="M173.541 74.8879H177.226L182.168 87.0062H182.336L187.277 74.8879H190.963V91.5506H188.031V80.1055H187.864L183.257 91.5506H181.079L176.556 80.1055H176.389V91.6347H173.541V74.8879Z" fill="black"/>
<path d="M204.866 74.8879H207.882V85.828C207.882 87.0062 207.63 88.1002 207.044 89.0259C206.458 89.9516 205.704 90.6249 204.699 91.1298C203.694 91.6347 202.521 91.8872 201.181 91.8872C199.841 91.8872 198.668 91.6347 197.663 91.1298C196.658 90.6249 195.904 89.9516 195.318 89.0259C194.732 88.1002 194.48 87.0904 194.48 85.828V74.8879H197.496V85.5756C197.496 86.2488 197.663 86.922 197.915 87.427C198.166 87.9319 198.668 88.4368 199.171 88.6893C199.757 89.0259 200.427 89.1101 201.181 89.1101C201.935 89.1101 202.605 88.9418 203.191 88.6893C203.778 88.4368 204.196 87.9319 204.448 87.427C204.783 86.922 204.866 86.2488 204.866 85.5756V74.8879Z" fill="black"/>
<path d="M224.969 74.8879V91.5506H222.288L214.415 80.1897H214.248V91.5506H211.232V74.8879H213.913L221.702 86.2488H221.87V74.8879H224.969Z" fill="black"/>
<path d="M231.419 74.8879V91.5506H228.403V74.8879H231.419Z" fill="black"/>
<path d="M234.099 77.4126V74.8879H247.332V77.4126H242.223V91.5506H239.208V77.4126H234.099Z" fill="black"/>
<path d="M248.84 74.8879H252.274L256.378 82.2935H256.546L260.65 74.8879H264.084L258.053 85.3231V91.5506H255.038V85.3231L248.84 74.8879Z" fill="black"/>
<path d="M111.487 56.503L56.2295 0.984131L0.972334 56.503L56.2295 112.022L111.487 56.503Z" fill="#0055FF"/>
</svg>
