<svg width="460" height="168" viewBox="0 0 460 168" fill="none" xmlns="http://www.w3.org/2000/svg">
<path d="M14.0133 95.1314L0 47.6904H9.4882L18.8304 82.5778H19.2683L28.6106 47.6904H38.0988L47.441 82.4318H47.8789L57.0752 47.6904H66.5634L52.842 95.1314H43.3538L33.7196 60.8279H32.9897L23.3556 95.1314H14.0133Z" fill="black"/>
<path d="M79.845 96.1531C76.7796 96.1531 74.1521 95.5692 71.6706 94.4014C69.1891 93.2337 67.2914 91.628 65.9777 89.4384C64.5179 87.2488 63.7881 84.6213 63.7881 81.5559C63.7881 78.9284 64.372 76.7388 65.3938 74.9871C66.4156 73.2355 67.8753 71.9217 69.627 70.8999C71.3786 69.8781 73.2763 69.1482 75.4659 68.5644C77.6555 67.9805 79.845 67.6885 82.0346 67.3966C84.8081 67.1046 87.1437 66.8127 88.8953 66.5207C90.647 66.3748 91.9607 65.9368 92.6906 65.4989C93.5664 65.061 93.8584 64.1852 93.8584 63.0174C93.8584 60.3899 93.1285 58.2003 91.5228 56.7406C90.0631 55.2809 87.7275 54.551 84.8081 54.551C81.7427 54.551 79.2611 55.2809 77.5095 56.5946C75.7578 57.9084 74.4441 59.5141 73.8602 61.1198L65.1018 59.0762C66.1236 56.1567 67.5834 53.8211 69.627 52.0695C71.6706 50.3178 73.8602 49.0041 76.4877 48.1282C79.1152 47.2524 81.7427 46.9604 84.6621 46.9604C86.5598 46.9604 88.6034 47.2524 90.647 47.6903C92.8366 48.1282 94.7342 49.0041 96.6319 50.1718C98.5295 51.3396 99.9892 53.0913 101.157 55.1349C102.325 57.3245 102.909 60.098 102.909 63.6013V95.1313H93.8584V88.7085H93.4205C92.8366 89.8763 91.9607 91.0441 90.793 92.2119C89.6252 93.3796 88.0195 94.2555 86.1219 95.1313C84.8081 95.8612 82.4725 96.1531 79.845 96.1531ZM81.8887 88.7085C84.5162 88.7085 86.7057 88.2706 88.4574 87.2488C90.2091 86.227 91.6688 84.9132 92.6906 83.3075C93.7124 81.7018 94.1503 79.9502 94.1503 78.0526V71.9217C93.8584 72.2137 93.1285 72.5056 92.2527 72.7975C91.3769 73.0895 90.2091 73.3814 89.0413 73.5274C87.8735 73.6734 86.7057 73.9653 85.538 74.1113C84.3702 74.2573 83.4944 74.4032 82.7645 74.5492C81.0128 74.8411 79.4071 75.1331 77.8014 75.717C76.3417 76.3009 75.1739 77.0307 74.2981 78.0526C73.4223 79.0744 72.9843 80.3881 72.9843 81.9938C72.9843 84.3294 73.8602 85.9351 75.4659 87.1028C77.0716 88.1246 79.2611 88.7085 81.8887 88.7085Z" fill="black"/>
<path d="M145.097 47.6904L127.873 95.1314H117.946L100.722 47.6904H110.648L122.618 84.1835H123.055L135.025 47.6904H145.097Z" fill="black"/>
<path d="M163.2 96.1526C158.529 96.1526 154.442 95.1309 151.084 93.0872C147.727 91.0436 145.099 88.2701 143.348 84.6208C141.596 80.9715 140.574 76.7383 140.574 71.7753C140.574 66.9582 141.45 62.579 143.348 58.9297C145.099 55.2804 147.727 52.361 151.084 50.1714C154.442 48.1278 158.237 47.106 162.616 47.106C165.244 47.106 167.871 47.5439 170.353 48.4197C172.834 49.2955 175.17 50.7553 177.067 52.6529C179.111 54.5505 180.571 57.0321 181.738 60.0975C182.906 63.1629 183.49 66.8122 183.49 71.0454V74.2568H145.829V67.3961H174.586C174.586 64.9146 174.148 62.871 173.126 60.9733C172.104 59.0757 170.79 57.616 169.039 56.4482C167.287 55.4264 165.098 54.8425 162.762 54.8425C160.135 54.8425 157.945 55.4264 156.047 56.7401C154.15 58.0539 152.69 59.6596 151.668 61.7032C150.646 63.7468 150.062 65.9364 150.062 68.2719V73.6729C150.062 76.8843 150.646 79.5118 151.814 81.7014C152.982 83.891 154.442 85.6426 156.485 86.8104C158.529 87.9782 160.864 88.5621 163.492 88.5621C165.244 88.5621 166.849 88.2701 168.309 87.8322C169.769 87.3943 170.936 86.5185 172.104 85.4967C173.126 84.4749 174.002 83.3071 174.586 81.7014L183.344 83.3071C182.614 85.9346 181.446 88.1242 179.549 90.0218C177.797 91.9195 175.462 93.3792 172.834 94.547C169.769 95.5688 166.703 96.1526 163.2 96.1526Z" fill="black"/>
<path d="M219.979 59.2217L211.658 60.6814C211.366 59.6596 210.782 58.6378 210.053 57.616C209.323 56.5942 208.301 55.8643 206.987 55.2804C205.673 54.6965 204.068 54.4046 202.17 54.4046C199.543 54.4046 197.353 54.9885 195.601 56.1562C193.85 57.324 192.974 58.7837 192.974 60.6814C192.974 62.2871 193.558 63.6008 194.726 64.4767C195.893 65.4985 197.791 66.2283 200.418 66.8122L208.009 68.5639C212.388 69.5857 215.6 71.1914 217.789 73.235C219.979 75.2786 221.001 78.0521 221.001 81.4095C221.001 84.1829 220.125 86.8104 218.519 89C216.913 91.1896 214.578 92.9412 211.658 94.255C208.739 95.5687 205.382 96.1526 201.586 96.1526C196.331 96.1526 191.952 94.9849 188.595 92.7953C185.237 90.4597 183.194 87.2483 182.464 83.0151L191.368 81.7014C191.952 84.037 193.12 85.7886 194.872 86.9564C196.623 88.1242 198.813 88.7081 201.586 88.7081C204.652 88.7081 206.987 88.1242 208.885 86.8104C210.637 85.4967 211.658 84.037 211.658 82.1393C211.658 80.6796 211.074 79.3658 210.053 78.344C208.885 77.3222 207.279 76.5924 204.944 76.0085L196.915 74.2568C192.536 73.235 189.179 71.6293 187.135 69.4397C185.091 67.2501 183.924 64.4767 183.924 61.1193C183.924 58.3458 184.653 55.8643 186.259 53.8207C187.865 51.7771 190.054 50.0254 192.682 48.8576C195.455 47.6899 198.667 47.106 202.17 47.106C207.279 47.106 211.366 48.2737 214.286 50.4633C217.205 52.5069 219.103 55.5724 219.979 59.2217Z" fill="black"/>
<path d="M359.403 74.8848C360.241 75.793 361.359 75.793 362.337 75.793C362.477 75.793 362.616 75.793 362.826 75.793C362.896 75.793 362.896 75.793 362.966 75.793C364.293 75.793 364.782 75.3738 365.061 73.9069L365.69 67.62L366.528 62.7301C366.598 62.1014 366.738 61.2632 366.878 60.2852C367.227 57.8403 367.786 54.5571 367.646 51.6931C367.646 51.0644 367.786 50.7151 368.135 50.3658C369.742 52.671 374.701 59.0977 377.845 63.1492C379.102 64.8258 380.22 66.2229 380.29 66.3626C381.198 67.7597 384.062 66.9913 385.319 66.153C386.507 65.3846 386.507 64.5463 386.158 63.9875C386.088 63.9176 386.018 63.6382 385.948 63.4287C385.878 63.289 385.878 63.0794 385.808 62.9397C385.529 62.2411 383.573 59.4469 380.499 54.9762C377.985 51.3438 375.19 47.3621 374.143 45.476C374.981 44.6377 377.496 40.3766 385.18 26.685C387.625 22.354 390.069 17.8833 390.489 17.3245C391.956 16.0671 390.419 12.9236 389.441 11.5265C388.323 9.98974 387.555 9.98974 386.996 10.339C386.227 10.8979 383.014 16.137 376.308 27.174C373.374 31.994 370.161 37.303 368.345 40.0972C368.414 38.8398 368.554 37.3728 368.624 35.836C368.834 32.4131 369.113 28.5013 369.392 27.1042L369.742 23.7511V23.6813C369.742 23.2622 369.602 22.9129 369.253 22.7033C368.135 22.0048 365.131 22.6335 363.315 23.6114C361.778 24.4497 361.429 25.3578 361.429 25.9865C361.429 28.7108 361.289 31.5749 361.01 35.0676C360.94 36.1154 360.73 37.1633 360.521 38.2809C360.381 39.1192 360.241 39.9574 360.102 40.8656C359.962 42.1229 359.892 43.3105 359.892 44.5679C359.892 45.4061 359.822 46.2444 359.752 47.0128C359.543 48.8989 359.263 50.9246 359.124 52.8806C358.984 56.0241 358.914 59.5168 358.984 63.5684C358.984 64.7559 358.914 65.9434 358.844 67.2707C358.774 68.1788 358.774 69.0869 358.774 69.9252C358.705 71.0428 358.635 72.2304 358.635 73.4179V73.4878V73.5576C358.705 73.9767 358.984 74.5356 359.403 74.8848Z" fill="#FFAB17"/>
<path d="M388.815 45.1265L388.745 46.0346C388.606 47.4317 388.536 48.8288 388.466 50.156V50.7847C387.977 60.1452 388.117 60.9136 388.466 61.2629C388.606 61.4725 388.885 61.7519 389.723 61.7519C390.631 61.7519 392.098 61.4725 394.613 60.4945L394.962 60.3548L395.032 60.0055C395.032 59.9357 395.032 59.9357 395.032 59.8658C395.591 59.6563 396.15 59.3768 396.709 59.1673C397.268 58.9577 397.826 58.6783 398.385 58.4687C398.944 58.2592 399.433 57.9797 399.992 57.7702C401.04 57.2812 402.157 56.7922 403.275 56.4429C404.253 56.1635 405.231 55.954 406.209 55.8142C406.768 55.7444 407.257 55.6745 407.816 55.5348C407.955 55.465 408.095 55.465 408.235 55.3951C408.305 55.3253 408.444 55.3253 408.584 55.2554L412.636 53.7186C414.452 53.1598 413.893 48.8288 413.544 47.4317C413.195 46.0346 412.636 45.4757 411.867 45.6154C411.169 45.7551 410.47 45.8949 409.911 45.8949C408.654 45.825 407.536 46.0346 406.628 46.5235C406.488 46.5934 406.209 46.6633 405.93 46.7331C405.79 46.803 405.65 46.803 405.51 46.803L405.231 46.8728C404.253 47.0824 403.345 47.292 402.367 47.5714L394.893 49.5972C394.962 48.8288 395.102 48.2001 395.242 47.5714C395.451 46.803 395.591 45.9647 395.661 44.9169C395.94 41.9131 396.779 35.3468 397.058 33.6004L397.128 33.5306H397.198C398.036 33.0416 398.874 32.6923 399.782 32.2732L399.852 32.2033C400.341 31.9239 402.577 31.0158 404.323 30.3172C405.72 29.7584 406.908 29.2694 407.397 29.0598C408.375 28.6407 408.514 27.2436 407.886 25.3575C407.397 24.0303 406.838 23.4016 406.209 23.6112L397.687 26.1259C397.896 22.7031 398.455 15.1587 398.804 12.155C398.804 12.0851 398.944 12.0153 398.944 11.9454C399.363 11.666 399.852 11.5961 400.411 11.3866C401.249 11.1072 402.088 10.8976 402.926 10.688C403.764 10.4785 404.672 10.199 405.441 9.98948C405.58 9.91963 405.72 9.91963 405.86 9.91963C406.488 9.77992 407.117 9.64021 407.676 9.22108C409.562 7.89384 411.728 7.19529 413.614 6.70631C414.242 6.5666 414.731 5.79819 415.011 4.4011C415.011 4.4011 415.779 0.978211 414.941 0.209808C414.731 0.00024401 414.452 0.000243999 414.172 0.0700988C413.683 0.209808 413.195 0.419373 412.775 0.628937C412.566 0.698792 412.356 0.768647 412.147 0.838502C411.867 0.908357 411.658 1.04807 411.378 1.04807C410.959 1.11792 410.61 1.11792 410.191 1.18778C409.632 1.18778 409.073 1.25763 408.514 1.39734C405.86 2.09589 403.345 2.79444 400.691 3.56284L398.665 4.12168C398.595 4.12168 398.455 4.12168 398.315 4.12168C398.246 4.12168 392.587 5.09965 392.378 7.26514C392.238 8.1034 391.609 14.1808 391.609 14.8095C391.609 15.3683 391.54 15.6477 391.54 16.0669C391.47 16.5558 391.4 17.1845 391.4 18.3022L391.33 20.8868C390.841 25.0781 389.234 40.1668 389.095 41.3543C388.955 42.5418 388.885 43.8691 388.815 45.1265Z" fill="#FFAB17"/>
<path d="M436.454 8.59214C437.292 8.24287 439.807 8.0333 442.042 7.82374C444.347 7.61417 446.513 7.40461 447.491 7.12519C447.77 7.05533 447.98 6.98548 448.12 6.98548H448.189H448.259C448.678 6.98548 450.006 6.84577 450.355 5.37882V5.23911L450.285 4.81998C450.285 4.61042 450.215 4.331 450.076 4.19129L449.656 1.53681C449.517 0.838258 448.958 0.488984 448.539 0.279419L448.189 0L446.513 0.13971V0.349274C441.483 1.74637 413.891 9.29069 412.284 10.2687L412.214 10.3385C411.935 10.5481 411.725 10.6878 411.446 10.7576C409.21 11.3165 408.931 16.2762 409.211 17.5336C409.42 18.5115 410.188 18.3718 410.258 18.302L415.358 17.1144C415.637 17.0446 420.737 15.2982 421.505 14.9489L424.998 13.9011L425.137 13.8312C424.788 14.7394 424.718 15.5776 424.718 16.4857C424.718 16.7652 424.788 17.1144 424.718 17.3938V17.4637C424.648 18.3718 424.579 19.2799 424.509 20.2579C424.369 21.655 424.229 23.0521 424.229 24.4492C424.09 26.964 423.67 28.9897 423.042 30.9457C422.832 31.6442 422.692 32.4825 422.692 33.2509C422.553 35.7657 422.064 41.7033 421.715 45.2659V45.3358C421.435 47.2917 421.226 49.3175 421.016 51.2734C420.946 51.6926 421.226 52.2514 421.994 52.3911C422.064 52.3911 422.134 52.3911 422.273 52.3911C423.531 52.3911 426.534 51.483 426.814 50.2955C427.023 49.0381 427.233 47.8505 427.443 46.663C427.722 45.0563 428.001 43.5195 428.281 41.9129C428.49 40.9349 428.77 39.8172 429.049 38.6297C429.468 37.0929 429.818 35.4862 430.097 34.0193C430.237 33.2509 430.377 32.4825 430.586 31.7141C430.865 30.3868 431.145 28.9897 431.354 27.5228C431.634 25.7066 431.843 23.6109 431.983 21.655C431.983 21.2359 432.053 20.8167 432.053 20.3976C432.123 19.0005 432.193 17.6733 432.402 16.346C432.612 14.9489 432.821 13.482 432.961 12.0849C433.031 11.4562 433.101 10.7576 433.171 10.1289V10.0591C434.219 9.57011 435.266 9.01127 436.454 8.59214Z" fill="#FFAB17"/>
<path d="M344.525 90.5309C343.407 90.3213 342.22 90.0419 341.032 90.1117C339.006 90.1816 337.26 90.5309 335.583 91.0199C335.793 90.5309 335.933 90.1117 336.003 89.6228C336.352 88.2257 336.631 86.8984 336.98 85.5013C337.4 83.6152 337.889 81.6593 338.308 79.7732C338.936 77.0489 339.216 74.3246 339.495 71.6701C339.635 70.1333 339.845 68.5266 340.054 66.9199C340.264 65.3831 340.613 63.8463 341.032 62.1698C341.102 62.0301 341.102 61.8205 341.172 61.6808C341.172 61.6808 341.242 61.6808 341.242 61.7507C341.661 62.0301 342.08 62.3794 342.359 62.6588L342.429 62.7287C342.918 63.0779 343.407 63.5669 343.896 63.986C344.106 64.1258 344.245 64.3353 344.455 64.5449C345.782 65.6626 349.065 71.0414 351.021 74.2547C352.418 76.5599 352.768 77.1187 353.047 77.3283C353.257 77.468 353.676 77.6077 354.305 77.3982C355.422 76.9092 357.448 74.8135 357.588 73.7657V73.6959V72.9275L357.518 72.7877C357.378 72.5782 357.308 72.2988 357.169 72.0193C356.959 71.4605 356.68 70.9017 356.33 70.3428C356.121 69.9936 355.911 69.7141 355.702 69.3649C355.073 68.4568 354.514 67.6185 354.165 66.6405C354.025 66.2913 353.885 65.942 353.816 65.5927C353.536 64.8243 353.257 63.986 352.838 63.1478C352.488 62.6588 352.209 62.1 351.86 61.5411C351.161 60.2837 350.462 59.0264 349.275 57.9785C349.205 57.9087 349.065 57.6293 348.996 57.4197C348.507 56.4417 347.948 55.4638 346.97 54.6255C346.83 54.4858 346.62 54.3461 346.481 54.1365C346.83 53.8571 347.179 53.5078 347.459 53.2284C348.087 52.6696 348.646 52.1107 349.275 51.6217L349.834 51.1328C351.091 50.0849 352.349 48.9673 353.257 47.4305C353.466 47.0812 353.746 46.6621 353.955 46.3128C355.003 44.7061 356.051 43.0296 356.47 41.0038C356.61 40.3751 356.749 39.8163 356.889 39.2574C357.029 38.8383 357.169 38.3493 357.238 37.9302C357.727 35.9044 357.937 34.0882 357.797 32.2021C357.727 30.5256 356.819 29.4079 355.213 28.8491C353.885 28.2902 352.488 28.1505 351.371 28.1505C349.065 28.0807 346.83 28.3601 344.874 29.0586H344.804C344.525 28.7792 344.245 28.5697 343.826 28.3601L343.617 28.2204L343.337 28.2902C342.918 28.4299 342.499 28.4998 342.08 28.6395C341.661 28.7792 341.312 28.9189 340.962 28.9888C339.565 29.1984 339.006 30.1763 338.657 31.0844C338.587 31.1543 338.517 31.2241 338.378 31.294C338.168 31.4337 337.958 31.5036 337.679 31.5734C337.4 31.7131 337.12 31.783 336.841 31.9227C336.072 32.4117 335.234 32.8308 334.466 33.2499C333.627 33.6691 332.859 34.158 332.091 34.5772C331.252 35.0662 330.344 35.625 329.576 36.2537C329.087 36.5331 328.738 36.8824 328.319 37.2317C328.109 37.4412 327.83 37.6508 327.62 37.7905C327.48 37.8603 327.341 37.9302 327.271 38.0699C326.921 38.2795 326.572 38.5589 326.293 38.9082C325.385 39.956 325.664 40.7244 325.943 41.0737C326.572 42.0516 327.48 41.7024 327.899 41.5627L328.109 41.4928C328.598 41.2832 329.087 41.0038 329.576 40.934C332.23 40.3751 334.396 39.8861 336.352 38.9082C336.701 38.7685 337.12 38.6287 337.539 38.5589C337.19 40.7244 336.771 42.6803 336.422 44.5664C336.282 45.1951 336.072 45.8238 335.863 46.4525C335.723 46.9415 335.514 47.5003 335.374 48.0592C335.164 48.9673 335.025 49.9452 334.885 50.8533C334.745 51.5519 334.675 52.2504 334.536 52.949C334.256 54.6255 334.256 56.4417 334.536 58.6072C334.815 60.4933 334.466 62.3095 334.186 64.3353C334.116 64.8942 334.047 65.453 333.907 66.0118C333.697 67.4788 333.348 68.9457 332.999 70.3428C332.719 71.4605 332.44 72.648 332.23 73.8356C331.741 76.7695 331.322 79.6335 330.973 82.4976V82.6373C330.763 85.0123 330.624 87.3874 330.484 89.7625C329.855 88.4352 329.157 87.108 328.528 85.8506L326.293 81.5196C326.153 81.2402 325.943 80.7512 325.804 80.4019L323.848 73.137C323.708 72.5782 323.499 72.0892 323.289 71.5304C322.94 70.4825 322.521 69.5046 322.311 68.4568C321.962 66.7802 321.682 65.1037 321.473 63.4272C321.333 62.6588 321.263 61.9603 321.123 61.2617C321.123 60.8426 321.054 60.4933 321.123 60.144C321.403 58.8866 321.054 57.769 320.774 56.6513C320.355 55.1843 320.006 53.5777 319.726 51.971C319.657 51.482 319.517 50.993 319.447 50.4342C319.098 48.4783 318.679 46.3826 317.84 44.3568C317.701 44.0774 317.701 43.6583 317.631 43.2392C317.631 42.9597 317.561 42.6803 317.561 42.4009C317.351 41.4229 317.142 40.445 316.862 39.467L316.653 38.9082C316.513 38.489 316.094 37.7905 314.557 37.8603C313.509 37.8603 311.134 38.3493 310.925 39.6766C310.925 39.956 310.785 40.2354 310.645 40.5148C310.506 40.7942 310.436 41.1435 310.296 41.5627L310.156 42.0516C309.877 42.9597 309.597 43.9377 309.388 44.9157C309.108 47.0113 308.899 49.2467 308.619 51.3423C308.48 52.8791 308.27 54.4159 308.13 55.9527C307.921 57.0006 307.711 58.1182 307.083 59.1661C306.664 59.9345 306.454 60.5632 306.384 61.0521C306.175 63.0081 305.965 64.964 305.825 66.8501C305.755 67.7582 305.476 68.5965 305.197 69.295C304.638 70.273 304.498 71.3208 304.708 72.2988C304.777 72.7878 304.708 73.2767 304.708 73.6959C304.638 74.3246 304.498 74.9532 304.428 75.5121C304.288 76.5599 304.079 77.6077 304.009 78.6556V78.7254C304.009 79.1445 303.73 81.5196 303.52 83.5454C303.241 85.9204 303.101 87.4573 303.101 87.6668C302.891 90.2514 302.822 92.4868 302.961 94.792C302.961 95.0016 302.961 95.281 302.891 95.5604C302.891 95.7001 302.822 95.8398 302.822 95.9795C302.472 95.1413 302.193 94.3729 301.844 93.5346C301.355 92.4169 300.866 91.0897 300.656 89.9022C299.957 86.8984 299.399 83.8947 298.77 81.1005C297.932 77.3982 297.024 73.6959 296.185 69.9237C294.998 64.8942 294.579 59.7948 294.16 54.6954V52.6696C294.509 50.5739 294.16 48.618 293.81 46.4525C292.972 42.7502 292.553 38.9082 291.854 35.136C291.365 31.9227 290.806 28.7792 290.178 25.496L289.27 20.5364C289.06 18.8598 280.817 16.5546 280.468 18.1613C279.909 20.1871 279.28 22.2129 279.001 24.1688C278.163 30.805 277.604 37.3714 276.836 44.1473C276.556 46.2429 276.067 48.4084 275.159 50.1548C274.67 51.0629 274.251 52.1107 274.181 53.2284C273.762 56.4417 273.482 59.7948 273.273 63.3573C273.063 65.1037 272.644 66.7802 272.085 68.5266C271.666 69.7141 271.177 71.1112 271.387 72.2988C271.946 76.0709 270.409 79.424 270.688 83.1263L270.339 83.1961C270.269 82.9167 270.129 82.777 270.06 82.4976C269.571 80.5416 269.082 78.6556 268.732 76.6996C267.615 72.0892 267.265 67.3391 266.846 62.5191C266.707 61.7507 266.637 60.8426 266.776 60.0043C267.265 57.8388 266.637 55.813 266.218 53.7174C265.519 49.9452 265.1 46.3128 264.401 42.5406C263.912 39.3273 263.354 36.0441 262.725 32.7609C262.445 31.0844 262.096 29.4778 261.956 27.8013C261.677 26.474 253.434 24.099 253.015 25.7755C252.526 27.8013 251.967 29.7572 251.758 32.0624C250.919 37.7206 250.291 43.5186 249.732 49.3165C249.452 52.6696 248.894 55.813 247.357 58.4675C247.077 59.1661 246.868 59.8646 246.868 60.4933C246.519 64.0559 246.099 67.4089 245.82 70.762C245.75 72.5083 245.401 74.115 244.702 75.7217C244.074 77.1187 243.794 78.5857 244.004 80.2622C244.213 81.31 244.143 82.5674 244.004 83.5454C244.004 84.8028 243.654 85.9903 243.515 87.108C243.235 89.6926 243.026 92.2074 242.257 94.792C241.838 96.1193 241.768 97.7259 241.699 99.3326C241.559 100.171 241.629 101.079 241.559 102.057C241.559 103.314 241.279 104.642 241.279 105.899C241.279 107.785 241.349 109.671 241.279 111.417C241.279 112.675 241.07 113.793 241 114.91L241.07 121.616C241 123.363 241 125.249 241.07 126.925L241.349 130.348C241.489 131.117 241.629 132.025 242.048 132.723C242.886 134.539 248.125 133.212 248.544 132.304C248.684 131.815 248.754 131.326 248.754 130.837C248.894 128.113 248.894 125.458 249.103 122.943C249.173 120.708 249.452 118.612 249.592 116.587C249.662 114.212 249.313 111.627 250.291 109.182C250.361 108.833 250.291 108.553 250.361 108.204L250.57 102.336C250.64 101.358 250.5 100.45 250.85 99.7517C251.688 97.5163 251.758 95.0016 252.247 92.6964C252.456 91.0897 252.456 89.6926 252.037 88.2257C251.827 87.6668 251.967 87.1778 252.037 86.6889C252.316 83.9645 252.666 81.0306 253.015 78.3063C253.085 77.3283 253.434 76.4901 253.783 75.5819C253.993 74.7437 254.412 74.1848 254.552 73.3466C255.46 69.8538 256.298 66.3611 256.787 62.6588L257.206 60.7029C257.276 60.3536 257.346 60.2139 257.416 59.8646C257.835 60.7029 257.975 61.4713 257.975 62.2397C258.184 64.8243 258.673 67.4089 259.581 70.0634C259.791 70.6223 260.07 71.3907 260.21 72.0892C260.699 75.5819 261.258 79.0747 261.956 82.6373C262.445 85.2219 263.074 87.8764 263.703 90.5309C264.052 91.8581 264.89 92.9059 265.309 94.2332C266.427 97.5862 268.872 112.815 269.571 120.778C270.269 128.741 277.534 120.429 277.255 117.495C276.975 114.561 277.883 99.9613 278.023 97.9355C278.163 96.4685 278.163 95.0714 278.372 93.7442C278.791 91.7883 279.211 89.972 279.35 87.8764C279.35 85.9903 279.49 83.8947 279.63 81.8689C279.7 81.5196 279.63 81.2402 279.7 80.8909C279.42 78.5857 279.769 76.3503 280.119 74.0451L280.538 72.0892C280.817 70.762 281.097 69.4347 281.376 68.317C281.516 67.6884 281.865 66.9199 282.144 66.0817C283.053 62.5889 283.891 59.0962 284.38 55.3939L284.799 53.438C284.869 53.0887 285.078 52.8791 285.148 52.5997L285.777 56.0226C286.196 58.2579 286.755 60.4933 287.174 62.7287C287.803 65.5229 288.781 68.4567 289.06 71.3907C289.34 74.1848 289.829 76.8393 290.317 79.5637C290.527 80.7512 290.876 81.9387 291.365 83.0564C291.924 84.6631 292.553 86.0602 293.112 87.6668C294.299 91.439 295.347 95.4906 296.884 99.0532C298.211 102.197 299.119 105.62 300.446 108.693C301.145 110.439 301.634 112.186 302.193 113.932C303.241 117.006 304.638 119.66 306.873 121.756C307.921 122.594 312.182 118.473 311.903 117.774L307.502 106.388C307.153 105.48 306.803 104.572 306.454 103.664C306.524 103.664 306.524 103.664 306.594 103.664C306.803 103.733 307.083 103.733 307.292 103.733C308.619 103.733 309.597 102.965 309.947 101.568C310.156 100.59 310.226 99.5421 310.226 98.5642L310.575 92.8361C310.645 91.7883 310.645 90.7404 310.575 89.7625C310.575 89.6228 310.575 89.483 310.575 89.3433C310.575 89.2036 310.575 89.1338 310.575 89.1338C311.204 87.7367 311.204 86.2697 311.204 84.8726V84.2439C311.204 83.4755 311.483 82.9865 312.182 82.5674L313.649 81.3799C314.417 80.8211 315.186 80.2622 315.884 79.6335C316.583 79.0747 317.351 78.446 318.12 77.957C318.259 77.8173 318.469 77.7474 318.679 77.6776C318.818 78.0269 319.028 78.3761 319.168 78.7254C319.377 79.1445 319.587 79.6335 319.796 79.9828L320.076 80.7512C320.914 82.9167 321.752 85.152 323.079 87.108C323.149 87.2477 323.149 87.3874 323.289 87.5271C323.568 88.2257 323.848 88.9242 324.197 89.6228C324.826 91.0897 325.454 92.6265 326.153 94.0935C326.363 94.5126 326.642 95.0016 326.991 95.4906C326.921 95.7001 326.782 95.8398 326.363 95.9795C326.013 96.0494 325.804 96.259 325.524 96.4685C325.385 96.6082 325.245 96.6781 325.105 96.7479L325.035 96.8178C324.267 97.4465 323.429 98.0053 322.66 98.634C321.822 99.2627 321.054 99.8216 320.215 100.52C320.076 100.59 319.936 100.66 319.796 100.8C319.517 100.939 319.168 101.149 318.888 101.498L318.399 101.987L318.888 102.476C319.307 102.895 322.8 106.248 325.385 104.642C325.734 104.362 326.223 104.153 326.712 103.943C326.642 105.759 326.642 107.645 326.432 109.462C326.363 110.789 326.223 112.046 326.013 113.373L325.734 117.076C325.664 117.355 325.664 117.635 325.664 117.844C325.664 117.914 325.664 117.984 325.664 118.054C325.664 118.543 325.594 119.032 325.594 119.521C325.524 120.708 325.454 122.035 325.664 123.293C325.874 124.83 325.804 125.598 324.826 126.506C323.918 127.344 323.219 128.322 322.521 129.23C322.171 129.719 321.752 130.278 321.333 130.767L320.704 131.815C320.285 132.653 320.495 134.4 321.193 134.959C321.892 135.587 323.359 135.378 324.127 134.749L324.407 134.4C324.896 133.911 325.385 133.422 325.874 132.933C326.153 132.583 326.502 132.304 326.782 131.955C326.852 133.282 326.852 134.539 326.782 135.797C326.712 137.334 326.572 138.94 326.432 140.477C326.223 143.201 325.943 145.996 326.083 148.79C326.083 150.117 326.153 151.933 326.223 153.819C326.293 155.705 326.293 157.522 326.363 158.849C326.432 159.827 326.502 160.805 326.642 161.853C326.712 162.831 326.852 163.809 326.921 164.787L327.061 166.044V166.114C327.201 166.882 327.55 167.441 328.109 167.72C328.388 167.86 328.738 168 329.087 168C329.296 168 329.576 167.93 329.855 167.86C331.252 167.511 332.23 166.533 332.65 164.996C332.929 163.739 333.069 162.481 333.208 161.434C333.488 158.639 333.837 155.426 334.047 152.352C334.116 150.676 334.116 148.161 334.116 145.926C334.116 144.529 334.116 143.201 334.116 142.154C334.116 141.036 334.047 139.918 333.977 138.801C333.837 136.146 333.697 133.631 334.256 131.047C334.326 130.697 334.256 130.348 334.256 130.069C334.256 129.999 334.256 129.859 334.256 129.789C334.256 129.58 334.256 129.3 334.256 129.091C334.256 128.462 334.256 127.903 334.396 127.484C334.675 126.576 335.164 125.668 335.583 124.83C335.793 124.48 335.933 124.061 336.142 123.782C337.05 122.105 338.447 120.918 339.914 119.59L340.473 119.101C342.15 117.495 343.547 115.748 344.665 113.793C345.433 112.395 345.992 110.859 346.62 109.462L346.97 108.484C347.459 107.296 347.878 105.969 348.157 104.362C348.367 103.175 348.646 101.708 348.716 100.171C348.716 98.2848 348.716 96.3987 348.576 94.5126C347.459 92.417 346.411 91.0897 344.525 90.5309ZM333.278 105.48C333.348 104.851 333.348 104.222 333.348 103.664C333.348 103.384 333.348 103.105 333.348 102.825L333.488 100.38V100.311C333.488 100.171 333.418 99.8914 333.907 99.612L334.466 99.3326C336.142 98.4245 337.819 97.4465 339.705 96.9575C339.914 96.8877 340.124 96.8877 340.334 96.8877C340.683 96.8877 340.962 96.9575 341.172 97.0972C341.521 97.3068 341.661 97.6561 341.731 98.145C341.8 98.8436 341.87 99.5421 341.87 100.311C341.87 100.66 341.87 101.079 341.94 101.428C341.94 101.777 341.94 102.057 341.94 102.406C341.94 103.035 342.01 103.594 341.94 104.222C341.87 106.248 340.753 107.785 339.705 109.112C338.517 110.579 337.26 111.976 335.933 113.304C335.304 114.002 334.605 114.701 333.977 115.399C333.627 115.748 333.278 116.168 332.859 116.587C332.65 112.535 332.719 108.903 333.278 105.48ZM351.021 33.9485C351.231 33.9485 351.44 34.0183 351.58 34.158C351.86 34.3676 351.999 34.7169 351.999 35.0662C351.999 35.625 351.929 36.2537 351.86 36.8824C351.79 37.3015 351.79 37.7206 351.72 38.1398L351.371 40.6545C351.161 41.9818 350.393 43.1693 349.135 44.4267C347.389 45.9635 345.573 47.4305 343.687 48.9673C343.128 49.3864 342.569 49.8754 342.01 50.2945C342.359 47.2907 342.848 43.9377 343.826 40.6545C343.966 40.1656 344.036 39.6766 344.036 39.2574C344.106 38.8383 344.106 38.489 344.245 38.0699V37.9302C344.315 37.3015 344.385 36.6728 344.525 35.9743C344.525 35.9044 344.665 35.8346 344.734 35.7647C346.97 34.647 348.926 34.0882 350.812 33.8786C350.951 33.9485 351.021 33.9485 351.021 33.9485ZM316.094 70.3428C316.094 70.4127 316.024 70.5524 315.884 70.6921L311.414 73.9054C311.484 73.626 311.483 73.2767 311.553 72.9973C311.623 72.7179 311.623 72.4385 311.693 72.1591C311.763 71.8796 311.763 71.5304 311.833 71.3208V71.2509C311.903 71.1112 311.903 70.9715 311.972 70.762C312.112 70.273 312.182 69.784 312.392 69.295L312.95 67.6185C313.37 66.2214 313.789 64.8243 314.068 63.4272C314.348 64.475 314.627 65.5229 315.116 66.5008C315.465 67.3391 315.675 68.1773 315.884 69.0854C315.884 69.4347 315.954 69.8538 316.094 70.3428Z" fill="#FFAB17"/>
<path d="M376.031 130.421C375.542 130.141 375.123 130.281 374.913 130.351C373.935 130.91 372.957 131.399 372.049 132.027L371.7 132.237C369.674 133.494 367.788 134.612 365.553 134.402H365.134L365.064 134.472C364.435 134.542 363.736 134.612 363.108 134.682C361.99 134.821 360.942 134.891 359.894 135.031C359.825 135.031 359.685 135.031 359.545 135.031C358.427 135.031 357.519 135.031 356.891 135.171C356.821 134.682 356.751 134.263 356.751 133.774C356.611 132.586 356.472 131.399 356.262 130.211C355.633 127.207 355.703 123.924 356.402 120.292C356.751 118.615 356.891 116.939 356.891 115.611C356.891 113.725 356.961 112.119 357.17 110.652C357.31 109.674 357.31 108.696 357.31 107.718C357.31 107.229 357.31 106.81 357.31 106.321C357.31 105.762 357.31 105.273 357.31 104.784C357.31 104.295 357.31 103.806 357.31 103.317C357.31 102.409 357.38 101.431 357.45 100.453C357.519 99.4749 357.589 98.4969 357.589 97.5189C357.589 94.7248 357.869 92.0004 358.427 89.2761C358.637 88.2981 358.847 87.3201 358.916 86.2025C358.916 85.8532 358.777 85.5039 358.497 85.3642C358.008 85.0848 357.31 85.1546 356.192 85.7833C354.516 86.6216 351.442 88.9268 351.372 90.4636C351.232 92.8387 351.163 94.6549 351.163 96.3314C351.163 97.1697 351.163 97.9381 351.163 98.7065C351.163 99.6844 351.232 100.732 351.163 101.78C350.953 104.644 350.604 107.578 350.324 110.442L350.185 111.56C349.835 114.773 349.416 118.056 349.556 121.27C349.556 123.226 349.556 125.251 350.045 127.417L350.185 127.906C350.394 128.744 350.674 129.652 350.604 130.56C350.534 133.285 350.813 135.799 351.093 138.244C351.023 138.454 351.023 138.803 351.023 139.083C350.953 140.13 351.023 141.108 351.163 142.156L351.232 142.925C351.302 143.483 351.721 143.972 352.071 144.182C352.56 144.461 353.049 144.741 353.677 144.881C353.817 144.881 353.957 144.95 354.166 144.95C354.795 145.09 355.354 145.23 355.983 145.23C356.122 145.23 356.332 145.23 356.472 145.23C359.755 144.95 362.898 143.623 365.483 142.366L366.181 142.016C367.648 141.318 369.045 140.619 370.582 140.2C371.979 139.781 373.446 139.292 374.913 138.803C375.961 138.384 376.939 137.965 378.057 137.476C378.336 137.336 378.685 136.987 378.755 136.149C378.685 134.682 377.288 131.189 376.031 130.421Z" fill="#FFAB17"/>
<path d="M408.162 127.835C407.044 125.46 405.926 123.085 404.739 120.919L402.503 116.588C402.364 116.309 402.154 115.82 402.014 115.471L400.058 108.206C399.919 107.647 399.709 107.158 399.5 106.599C399.15 105.551 398.731 104.573 398.522 103.526C398.172 101.849 397.893 100.173 397.683 98.4961C397.544 97.7277 397.474 97.0291 397.334 96.3306C397.334 95.9114 397.264 95.5622 397.334 95.2129C397.613 93.9555 397.264 92.8378 396.985 91.7202C396.566 90.2532 396.216 88.6465 395.937 87.0399C395.867 86.5509 395.727 86.0619 395.658 85.5031C395.308 83.5471 394.889 81.4515 394.051 79.4257C393.911 79.1463 393.911 78.7272 393.841 78.2382C393.841 77.9588 393.771 77.6793 393.771 77.3999C393.562 76.422 393.282 75.444 393.073 74.466L392.863 73.9072C392.724 73.4881 392.374 72.7895 390.768 72.8594C389.72 72.8594 387.345 73.3483 387.135 74.6756C387.135 74.955 386.996 75.2344 386.856 75.5138C386.716 75.7933 386.646 76.1425 386.507 76.5617L386.367 77.0506C386.087 77.9588 385.808 78.9367 385.598 79.9147C385.319 82.0103 385.109 84.1758 384.83 86.3413C384.69 87.8781 384.481 89.4149 384.341 90.9517C384.132 91.9996 383.922 93.1173 383.293 94.1651C382.874 94.9335 382.665 95.5622 382.595 96.0512C382.385 98.0071 382.176 99.963 382.036 101.849C381.966 102.757 381.687 103.595 381.407 104.294C380.848 105.272 380.709 106.32 380.918 107.298C380.988 107.787 380.918 108.276 380.918 108.695C380.848 109.324 380.709 109.952 380.639 110.511C380.499 111.559 380.289 112.607 380.22 113.655V113.724C380.22 114.144 379.94 116.519 379.731 118.544C379.451 120.919 379.312 122.456 379.312 122.666C379.102 125.25 379.032 127.486 379.172 129.791C379.172 130.001 379.172 130.28 379.102 130.559C379.032 130.839 378.962 131.118 378.962 131.398C378.823 132.376 378.613 133.354 378.683 134.471C378.683 136.288 380.429 138.383 382.176 138.663C382.385 138.732 382.665 138.732 382.874 138.732C384.201 138.732 385.179 137.964 385.529 136.567C385.738 135.589 385.808 134.541 385.808 133.563L386.157 127.835C386.227 126.787 386.227 125.739 386.157 124.761C386.157 124.622 386.157 124.482 386.157 124.342C386.157 124.203 386.157 124.133 386.157 124.133C386.786 122.736 386.786 121.269 386.786 119.802V119.173C386.786 118.405 387.065 117.916 387.764 117.497L389.231 116.309C389.999 115.75 390.768 115.191 391.466 114.563C392.165 114.004 392.933 113.375 393.702 112.886C393.841 112.746 394.051 112.677 394.26 112.607C394.4 112.956 394.61 113.305 394.749 113.655C394.959 114.074 395.169 114.563 395.378 114.912L395.658 115.68C396.496 117.846 397.334 120.081 398.661 122.037C398.731 122.177 398.731 122.317 398.871 122.456C399.15 123.155 399.43 123.853 399.779 124.552C400.408 126.019 401.036 127.556 401.735 129.023C402.364 130.28 403.272 131.817 404.878 132.865C405.786 133.633 406.764 133.843 407.812 133.423C408.022 133.354 408.231 133.354 408.441 133.284C408.72 133.214 409 133.214 409.279 133.074C409.908 132.934 410.327 132.585 410.467 132.096C410.606 131.607 410.467 130.979 409.978 130.559C409.209 129.931 408.651 128.883 408.162 127.835ZM392.305 105.551C392.305 105.621 392.235 105.761 392.095 105.901L387.624 109.114C387.694 108.835 387.694 108.485 387.764 108.206C387.834 107.926 387.834 107.647 387.904 107.368C387.974 107.088 387.974 106.739 388.043 106.529V106.46C388.113 106.32 388.113 106.18 388.183 105.971C388.323 105.482 388.393 104.993 388.602 104.504L389.161 102.827C389.58 101.43 389.999 100.033 390.279 98.6358C390.558 99.6836 390.838 100.731 391.327 101.709C391.676 102.548 391.885 103.386 392.095 104.294C392.095 104.643 392.235 105.062 392.305 105.551Z" fill="#FFAB17"/>
<path d="M431.354 97.2378C430.166 96.6091 429.188 96.5393 428.21 97.0283C427.931 97.168 427.721 97.3077 427.582 97.4474C427.442 97.5173 427.372 97.5871 427.302 97.657L427.232 97.7268C427.093 97.8665 426.883 98.0062 426.673 98.146C426.184 98.4952 425.695 98.9144 425.416 99.4033C424.787 100.311 424.298 101.429 424.019 102.407C423.39 104.153 422.552 105.551 421.574 106.668C420.596 107.786 419.967 108.834 419.618 110.021C419.409 110.79 419.059 111.418 418.71 112.117C418.57 112.396 418.431 112.676 418.291 113.025L418.151 113.165C418.151 113.235 418.081 113.304 418.011 113.374C417.942 113.514 417.802 113.724 417.732 113.933C417.103 115.191 416.125 116.238 414.658 117.216C414.449 117.356 414.379 117.356 414.309 117.356C414.309 117.356 414.169 117.286 414.1 117.146C413.96 116.867 413.82 116.448 413.75 116.029V115.819C413.611 114.911 413.471 113.933 413.471 112.955C413.471 112.117 413.611 111.209 413.68 110.371C413.75 109.462 413.82 108.554 413.89 107.716C414.03 105.83 414.03 103.944 414.1 102.128C414.1 101.22 414.169 100.311 414.169 99.2636C414.169 99.1239 414.169 98.9842 414.169 98.8445C414.169 98.7048 414.169 98.4952 414.169 98.3555C414.239 97.8665 414.309 97.3077 414.449 96.8187C414.938 94.1642 415.427 91.37 415.497 88.506C415.567 86.4802 415.846 84.4544 416.125 82.4286L416.195 81.6602C416.475 79.6344 416.824 77.6086 417.313 75.3034C417.453 74.535 417.592 73.7666 417.732 73.0681C417.872 72.2997 418.011 71.5313 418.151 70.7629C418.221 70.4834 418.221 70.204 418.291 69.9246C418.5 68.1782 418.78 66.5017 419.828 65.1046C420.317 64.4759 420.666 63.9171 420.945 63.3583C421.295 62.7994 421.714 62.5899 422.552 62.5899C423.181 62.5899 423.6 62.7994 423.809 63.4281C424.019 63.9869 424.298 64.4759 424.578 64.9649C424.857 65.4539 425.067 65.873 425.276 66.362C425.835 67.6893 426.464 69.0863 426.953 70.3437C427.023 70.4834 427.093 70.6232 427.162 70.693C427.651 71.5313 428.49 71.8107 429.398 71.3916C430.236 71.1121 430.865 70.4834 431.144 69.5055C431.493 68.3878 431.843 66.9907 431.563 65.384C431.074 63.5678 430.655 61.8913 430.166 60.2148C430.096 59.9354 429.887 59.6559 429.747 59.3765C429.677 59.2368 429.607 59.167 429.538 59.0273L429.468 58.9574C429.258 58.678 429.049 58.3287 428.839 57.9794C428.629 57.6302 428.42 57.2809 428.14 56.9316C427.791 56.4426 427.302 55.9536 426.813 55.6044C425.695 54.836 424.438 54.7661 423.181 54.7661L422.133 54.836L420.247 55.3948C419.898 55.5345 419.618 55.6742 419.409 55.8139L419.339 55.8838C419.059 56.0235 418.71 56.1632 418.361 56.3029C417.732 56.5125 417.103 56.7919 416.545 57.211C414.519 58.9574 412.912 61.4023 412.004 64.1965C411.655 65.1046 411.375 66.0826 411.096 67.0606C410.747 68.2481 410.397 69.5055 409.908 70.693C409.349 72.16 408.86 73.9063 408.93 75.7924C408.93 76.0718 408.93 76.4211 408.93 76.7005L408.022 84.7338C407.883 86.0611 407.673 87.3883 407.533 88.6457C407.254 90.5318 406.905 92.5576 406.905 94.5834C406.905 97.2378 406.695 99.9622 406.485 102.337L405.787 110.231C405.787 110.65 405.717 110.999 405.717 111.418C405.717 112.187 405.647 112.955 405.507 113.654C405.228 115.889 404.949 118.194 405.228 120.499C405.438 122.106 406.066 123.364 407.254 124.272C407.673 124.621 408.162 124.97 408.791 125.04H408.861H408.93C409.21 125.04 409.489 125.11 409.769 125.11C410.048 125.18 410.397 125.25 410.677 125.25C410.886 125.25 411.166 125.25 411.515 125.25C411.725 125.25 411.934 125.25 412.214 125.25L415.008 124.411C415.287 124.342 415.567 124.272 415.916 123.992C416.405 123.713 416.894 123.364 417.383 123.084C418.57 122.386 419.758 121.617 420.876 120.849C422.063 120.011 423.111 118.963 424.089 117.985C424.368 117.705 424.718 117.426 424.997 117.077C425.416 116.657 425.626 116.168 425.835 115.68C425.905 115.54 425.975 115.33 426.115 115.191C426.324 114.841 426.464 114.492 426.604 114.073L426.673 113.793C427.023 112.815 427.442 111.837 427.791 110.999C427.931 110.79 428.001 110.51 428.14 110.301C428.28 110.021 428.35 109.742 428.49 109.532L428.56 109.462C428.699 109.253 428.839 109.043 429.049 108.834C429.328 108.484 429.607 108.205 429.817 107.786C430.376 106.319 430.865 104.852 431.284 103.525L432.262 100.381C432.821 99.2636 432.541 97.8665 431.354 97.2378Z" fill="#FFAB17"/>
<path d="M459.366 98.3549C458.947 96.888 458.108 96.888 457.759 96.9578C457.061 97.0975 456.362 97.2373 455.803 97.2373C454.546 97.2373 453.428 97.4468 452.52 97.866C452.38 97.9358 452.101 98.0057 451.821 98.0755C451.682 98.1454 451.542 98.1454 451.402 98.1454L451.193 98.2152C450.215 98.4248 449.307 98.6344 448.329 98.9138L440.854 101.219C440.854 100.241 440.924 99.1932 440.924 98.1454C440.924 97.2373 440.924 96.399 440.924 95.4909C440.994 94.5129 440.994 93.6048 441.064 92.6967C441.134 90.5312 441.273 88.3657 441.413 86.1303C441.413 84.873 441.623 83.5457 441.762 82.2185L441.832 81.5199L441.902 81.4501H441.972C442.81 80.9611 443.579 80.542 444.487 80.053L444.557 79.9831C444.976 79.7037 447.979 79.0051 450.215 78.5162C453.219 77.8176 455.035 77.3985 455.594 77.1191C457.061 76.3507 457.061 72.9278 456.641 71.8101C456.362 71.1814 455.873 71.0417 455.524 71.1814C455.244 71.2513 455.035 71.391 454.755 71.4608C454.546 71.5307 454.336 71.6005 454.127 71.6704L442.042 73.9756C442.042 72.4388 442.112 70.8321 442.182 69.2255C442.251 67.6188 442.251 66.0121 442.321 64.4055C442.461 61.3319 442.601 58.1884 442.88 54.9751C442.88 54.9052 442.95 54.7655 443.02 54.7655C443.439 54.4861 443.928 54.3464 444.487 54.1368C445.255 53.8574 447.001 53.4383 448.678 53.0192C450.494 52.6 452.171 52.1809 453.009 51.8316C453.149 51.7618 453.288 51.7618 453.428 51.6919C454.057 51.5522 454.685 51.3426 455.244 50.9235C456.991 49.5264 457.34 45.8241 456.711 44.6366C456.432 44.0777 455.873 43.938 455.524 44.0777C454.755 44.2873 452.66 44.7064 450.285 45.1954C438.27 47.6403 436.314 48.4087 436.244 49.5963C436.174 50.5044 435.685 58.1884 435.685 58.8171C435.685 59.1664 435.685 59.4458 435.755 59.7951C435.825 60.773 435.895 61.751 435.755 62.729C435.475 64.6849 435.406 66.7107 435.475 68.7365L435.545 71.3211C435.475 72.5086 435.406 73.6263 435.336 74.8139C435.126 77.6779 434.917 80.6817 434.777 83.5457C434.707 84.384 434.707 85.1524 434.637 85.9208C434.637 86.6892 434.567 87.4576 434.497 88.226C434.497 88.8547 434.428 89.4135 434.358 90.0422C434.288 90.6709 434.288 91.2996 434.218 91.8584C434.148 93.1158 434.078 94.4431 434.078 95.7703V96.6784C434.008 98.0755 434.009 99.4726 434.009 100.8V101.429C433.939 110.929 434.148 111.557 434.497 111.907C434.567 112.046 434.707 112.116 434.847 112.186C434.986 112.256 435.126 112.256 435.266 112.256C436.384 112.256 438.549 111.348 443.369 109.043C443.788 108.833 444.068 108.693 444.207 108.624C444.696 108.414 445.255 108.135 445.744 107.855C446.792 107.296 447.91 106.807 448.957 106.388C449.866 106.039 450.843 105.829 451.891 105.62C452.38 105.48 452.939 105.41 453.498 105.271C453.638 105.201 453.777 105.131 453.917 105.061C453.987 104.991 454.127 104.991 454.266 104.921L458.248 103.175C459.855 102.965 459.785 99.8917 459.366 98.3549Z" fill="#FFAB17"/>
</svg>
